<svg viewBox="0 0 81 32" fill="none" xmlns="http://www.w3.org/2000/svg">
<g id="logo_exito04">
<path id="Vector" d="M71.6059 0.758288C73.1984 0.712903 76.3994 0.857616 76.6849 3.05787C76.769 3.70462 76.1393 4.68447 75.69 5.14301C73.1602 7.72238 69.3102 8.78369 65.8444 9.35276C64.4436 9.57113 62.9063 9.50797 61.5263 9.57066C63.6223 10.2366 66.2083 9.86018 68.3488 9.50825C70.9924 9.07359 78.149 6.48018 77.5048 3.06936L77.5463 3.03102C78.8202 3.60737 80.0431 4.6961 80.1295 6.18139C80.1663 6.8002 79.9567 7.40846 79.5471 7.87295C78.8353 8.67183 77.1423 9.21821 76.0945 9.25045C75.3492 9.27334 75.0004 9.16536 74.4567 8.67666C74.6148 9.15642 74.7574 10.3579 74.8385 10.9163C73.9805 10.8355 73.0502 10.8355 72.1898 10.8361C69.9375 10.8373 66.4528 11.4183 64.4219 12.4196C65.448 12.2384 66.6765 11.9047 67.7272 11.6826C70.3349 11.1316 72.321 11.0874 74.9282 11.3442C75.0042 11.9545 75.0925 12.5632 75.1935 13.1698C72.1124 12.3888 66.8422 13.3483 63.8796 14.462C63.7597 13.4292 63.5327 12.3537 63.4477 11.3207C61.8708 11.15 59.3297 11.3259 58.3744 10.1481C55.509 6.61502 59.0724 6.08131 61.8519 5.8038C62.4726 5.74182 63.6648 5.12065 64.1127 4.68003C64.0155 5.08708 63.9664 5.6041 63.915 6.02647C64.074 5.74673 64.2369 5.32725 64.3714 5.02534C64.9529 3.71526 65.641 2.84853 66.8427 2.0748C68.3898 1.07859 69.8247 0.830385 71.6059 0.758288Z" fill="var(--fill-0, black)"/>
<path id="Vector_2" d="M28.3945 17.186C29.3702 17.2055 30.3788 17.1918 31.3576 17.1894C31.3905 18.1792 31.6883 19.9027 31.842 20.9118L32.7496 26.824C32.9882 23.7649 33.7138 20.3032 34.0753 17.1956C35.0272 17.2166 36.0292 17.2029 36.9847 17.2023L37.01 30.4055L35.108 30.4109C35.072 27.73 35.105 24.9851 35.0996 22.2966C35.0955 21.6935 35.0665 21.0908 35.0124 20.4901C34.9149 21.0658 34.8831 21.7075 34.7885 22.3082C34.3393 25.006 33.9308 27.7105 33.5631 30.4208L31.6874 30.4049C31.3031 27.0482 30.7067 23.8136 30.2193 20.4824C30.1521 21.1721 30.2147 22.8521 30.2151 23.6377L30.2264 30.3926L28.392 30.4056L28.3945 17.186Z" fill="var(--fill-0, black)"/>
<path id="Exclude" d="M63.2002 17.2399C64.5822 17.2664 66.1399 17.1354 67.4912 17.4088C68.1921 17.5507 68.8929 18.2002 69.1836 18.8395C69.4138 19.3457 69.4651 20.0083 69.4883 20.5621C69.5095 22.4286 69.4957 24.2999 69.4971 26.1666C69.4975 26.9041 69.4923 27.6803 69.3271 28.3991C69.2106 28.9062 68.9446 29.2562 68.5996 29.6266C67.8205 30.3401 67.1266 30.4355 66.0908 30.4547C65.1261 30.4727 64.1619 30.4494 63.1973 30.4362L63.2002 17.2399ZM67.5176 20.8473C67.5237 18.995 66.7861 19.0838 65.2598 19.1159L65.2568 28.5729C65.9048 28.5854 66.6871 28.7025 67.166 28.2487C67.2802 28.0918 67.4501 27.8543 67.46 27.6578C67.5751 25.3978 67.51 23.1116 67.5176 20.8473Z" fill="var(--fill-0, black)"/>
<path id="Exclude_2" d="M58.3461 17.1118C60.0305 17.0208 61.5537 17.7379 61.7094 19.601C61.8194 20.9155 61.7628 22.2885 61.768 23.6137C61.7737 25.0685 61.8082 26.5622 61.7006 28.0092C61.5392 29.5824 60.5409 30.3957 59.0561 30.602C58.1376 30.62 57.4596 30.5909 56.7006 29.9995C56.0706 29.5053 55.6428 28.7626 55.5776 27.9614C55.4818 26.7802 55.5456 25.5944 55.5249 24.4106C55.5211 24.2134 55.5121 23.9705 55.5249 23.7768C55.6967 21.1469 54.6293 17.5029 58.3461 17.1118ZM58.4731 19.0415C58.1852 19.1567 57.8675 19.3121 57.7368 19.6147C57.5354 20.083 57.5946 26.4316 57.6333 27.2749C57.6451 27.5269 57.6504 27.8817 57.7514 28.1147C57.8548 28.353 58.0639 28.5161 58.3022 28.603C58.5159 28.6807 58.7207 28.676 58.9428 28.6645C59.234 28.5583 59.4961 28.4227 59.6401 28.1294C59.8411 27.7187 59.8414 20.0407 59.6479 19.5454C59.5729 19.3544 59.3535 19.2122 59.1704 19.1411C58.9487 19.0549 58.709 19.0278 58.4731 19.0415Z" fill="var(--fill-0, black)"/>
<path id="Exclude_3" d="M50.7825 17.1108C52.4404 17.0192 54.0458 17.6762 54.1927 19.5464C54.3394 21.4242 54.2145 23.3418 54.2532 25.227C54.2735 26.2129 54.2745 27.2368 54.1839 28.2163C54.046 29.6514 52.9352 30.434 51.6321 30.602C50.6702 30.6256 50.0072 30.6045 49.1897 30.0073C48.5857 29.5713 48.1841 28.7236 48.135 27.9848C47.992 25.8329 48.1083 23.6271 48.0686 21.4712C48.0281 19.2546 48.1881 17.4374 50.7825 17.1108ZM51.0081 19.0405C50.6972 19.171 50.3635 19.3113 50.2229 19.646C50.02 20.1284 50.0469 26.3192 50.097 27.2651C50.1106 27.5204 50.1273 27.8524 50.2288 28.0893C50.3289 28.3237 50.5266 28.5004 50.762 28.5913C50.9857 28.6778 51.214 28.682 51.4495 28.6753C51.7803 28.5546 52.0353 28.3615 52.1868 28.0356C52.2718 27.853 52.2981 27.6746 52.3128 27.476C52.3807 26.5485 52.4205 20.2552 52.2034 19.686C52.1033 19.424 51.8669 19.228 51.6136 19.1235C51.4178 19.0427 51.2175 19.0315 51.0081 19.0405Z" fill="var(--fill-0, black)"/>
<path id="Exclude_4" d="M12.9568 17.1858C14.5948 17.2786 17.0178 16.8186 18.2605 17.9289C18.7984 18.4098 19.0645 19.2949 19.0632 19.9934C19.0599 21.8285 19.2926 22.3125 18.0613 23.6604C18.0388 23.8046 18.2374 23.8387 18.3738 23.9934C19.412 25.1723 19.0199 27.0821 19.1199 28.5393C19.1721 29.3004 19.1951 29.6421 19.3435 30.3742L17.1736 30.3694C17.0853 29.5085 17.0661 28.8668 17.0671 27.9992L17.0701 26.9592C17.0712 25.0077 16.9819 24.839 14.9851 24.8391C14.9563 26.6824 14.9538 28.526 14.9773 30.3694C14.3135 30.3533 13.6017 30.3676 12.9343 30.3694C13.0375 26.0386 12.8423 21.5323 12.9568 17.1858ZM14.9919 19.0881C14.9589 20.3622 14.955 21.6371 14.9792 22.9114C15.5909 22.9215 16.1886 23.0071 16.6892 22.6379C17.1028 22.1601 17.0118 21.5988 17.0388 21.0159C17.1242 19.1716 16.6592 19.12 14.9919 19.0881Z" fill="var(--fill-0, black)"/>
<path id="Exclude_5" d="M22.4111 17.1836C23.2877 17.2142 24.2832 17.1973 25.1689 17.1992C25.2367 17.5844 25.3117 17.9825 25.3633 18.3691C25.901 22.4039 26.7543 26.3615 27.3047 30.3975L25.2217 30.3936C25.1339 29.5992 25.0232 28.8074 24.8896 28.0195C24.8786 27.9853 24.8555 27.9705 24.8271 27.9414C24.2075 27.8914 23.1046 27.9181 22.4727 27.9365C22.3896 28.7738 22.2351 29.5645 22.1436 30.3906L20.1885 30.375C20.3267 28.9891 20.7811 26.8932 21.0273 25.4678L22.4111 17.1836ZM23.7363 19.6836C23.6391 20.073 23.5516 20.6924 23.4746 21.1133C23.1742 22.7452 22.9391 24.3891 22.7715 26.04L23.6113 26.041L24.5947 26.0391C24.515 25.4554 23.8004 19.7815 23.7363 19.6836Z" fill="var(--fill-0, black)"/>
<path id="Vector_3" d="M4.88817 17.2029L7.0129 17.2017C7.03792 18.5848 7.01068 19.976 7.02682 21.3599C7.03249 21.8442 7.03117 22.3311 6.99827 22.8143C7.06015 22.7057 7.10744 22.5939 7.16285 22.4824C8.03352 20.73 8.88162 18.9671 9.7479 17.2128C10.4506 17.1933 11.1543 17.2267 11.8739 17.2032C11.6156 17.6195 11.3597 18.2485 11.1077 18.6933C10.4855 19.7915 9.91375 20.906 9.33841 22.029C9.73728 23.0412 9.96789 24.2113 10.2665 25.2578C10.5695 26.3198 10.9018 27.3692 11.2104 28.4305C11.3678 29.0802 11.5322 29.7283 11.7035 30.3745C10.9891 30.3619 10.2745 30.365 9.56033 30.384C9.52786 30.1926 9.48213 30.018 9.41855 29.8347C8.83674 28.1567 8.46024 26.3911 7.80541 24.7417C7.20174 25.7311 6.99761 26.0953 7.0129 27.2571C7.02645 28.2869 7.02192 29.3473 7.02758 30.3797L4.87661 30.383L4.88817 17.2029Z" fill="var(--fill-0, black)"/>
<path id="Vector_4" d="M41.6464 17.188C42.5969 17.2363 43.7698 17.174 44.7464 17.1977C45.3269 17.2119 46.4998 17.2504 47.035 17.2081L47.0364 19.0917C45.9372 19.0983 44.8384 19.0988 43.7391 19.0933C43.7127 20.3109 43.7344 21.5954 43.7363 22.818C44.6232 22.808 45.5388 22.8228 46.428 22.8274L46.4294 24.6475C45.6478 24.6109 44.6213 24.6269 43.8397 24.6389C43.733 24.6815 43.7424 24.7593 43.7415 24.8608C43.7273 26.701 43.7354 28.5907 43.7349 30.4274C43.0425 30.4164 42.3378 30.4214 41.6445 30.4197C41.6034 28.6387 41.6322 26.7503 41.6317 24.9646C41.6237 22.3724 41.6284 19.7802 41.6464 17.188Z" fill="var(--fill-0, black)"/>
<path id="Vector_5" d="M1.21862 17.178L3.28529 17.1914C3.23573 21.5652 3.26797 26.0111 3.27807 30.3897C2.58803 30.3817 1.89789 30.3842 1.20795 30.3973C1.18289 26.0865 1.13852 21.4736 1.21862 17.178Z" fill="var(--fill-0, black)"/>
</g>
</svg>
