<svg overflow="visible" viewBox="0 0 148 32" fill="none" xmlns="http://www.w3.org/2000/svg">
<g id="logo_exito01">
<path id="Vector" d="M34.464 12.728V10.264H40.408C42.12 10.264 43.44 10.616 44.36 11.312C45.28 12.008 45.744 13.12 45.744 14.648C45.744 15.92 45.456 16.96 44.888 17.76C44.32 18.56 43.496 19.104 42.424 19.384C42.776 20.192 43.088 20.832 43.36 21.288C43.632 21.744 43.928 22.104 44.264 22.352C44.592 22.6 44.984 22.752 45.44 22.728C46.448 22.664 47.096 22.064 47.248 21.968L48.016 23.512C47.648 23.864 46.512 25.216 44.544 25.216C43.624 25.216 42.872 25 42.288 24.576C41.712 24.152 41.256 23.608 40.92 22.952C40.584 22.296 40.2 21.376 39.768 20.184L39.552 19.608L37.568 19.6V24.936H34.448V12.728H34.464ZM39.416 17.144C40.144 17.144 40.744 17.088 41.2 16.976C41.656 16.864 42.008 16.648 42.256 16.328C42.504 16.008 42.624 15.56 42.624 14.976C42.624 14.392 42.504 13.936 42.264 13.608C42.024 13.28 41.672 13.048 41.208 12.92C40.744 12.792 40.152 12.72 39.416 12.72H37.584V17.136H39.416V17.144Z" fill="var(--fill-0, #00292D)"/>
<path id="Vector_2" d="M50.56 22.28C50.976 22.6 51.56 22.76 52.32 22.76C52.632 22.76 52.928 22.744 53.208 22.72C53.792 22.648 54.408 22.512 55.064 22.304C55.72 22.096 56.248 21.912 56.664 21.752L57.12 23.592C56.896 23.792 56.528 24.016 55.992 24.272C55.456 24.528 54.848 24.744 54.16 24.928C53.464 25.112 52.776 25.208 52.08 25.208C50.8 25.208 49.776 24.992 49.016 24.568C48.248 24.144 47.704 23.496 47.36 22.632C47.024 21.768 46.856 20.648 46.856 19.28C46.856 18.016 47.024 16.976 47.368 16.176C47.712 15.368 48.264 14.768 49.04 14.368C49.808 13.968 50.84 13.768 52.128 13.768C53.584 13.768 54.744 14.088 55.616 14.736C56.48 15.376 56.952 16.384 57.024 17.76C57.04 17.92 57.048 18.16 57.048 18.472C57.048 18.856 57.032 19.208 57.008 19.536C56.984 19.864 56.96 20.072 56.944 20.152L49.976 20.56C49.944 21.376 50.152 21.96 50.56 22.28ZM54.08 17.808C54.08 16.672 53.408 16.104 52.08 16.104C51.416 16.104 50.912 16.28 50.552 16.64C50.192 17 49.992 17.536 49.944 18.264L54.072 18.104C54.072 18.032 54.08 17.936 54.08 17.808Z" fill="var(--fill-0, #00292D)"/>
<path id="Vector_3" d="M64.624 16.904C64.36 16.448 63.904 16.224 63.248 16.224C62.896 16.224 62.568 16.296 62.264 16.44C61.96 16.584 61.712 16.736 61.512 16.912C61.312 17.08 61.216 17.176 61.216 17.2V24.936H58.208V14.168L61.216 13.432V15.208C61.216 15.16 61.376 15.008 61.704 14.752C62.032 14.496 62.432 14.264 62.912 14.056C63.392 13.84 63.888 13.736 64.416 13.736C65.712 13.736 66.64 14.112 67.2 14.872C67.76 15.632 68.04 16.744 68.04 18.216V20.272C68.048 20.896 68.072 21.384 68.128 21.72C68.176 22.064 68.272 22.312 68.408 22.472C68.544 22.632 68.752 22.712 69.032 22.712C69.304 22.712 69.552 22.64 69.784 22.528C70.616 22.12 70.872 21.328 70.984 21.2L71.28 23.184C71.28 23.216 70.52 24.36 69.456 24.856C69.016 25.064 68.56 25.2 68.048 25.2C66.888 25.2 66.096 24.832 65.664 24.096C65.232 23.36 65.016 22.408 65.016 21.232V19.024C65.024 18.064 64.888 17.36 64.624 16.904Z" fill="var(--fill-0, #00292D)"/>
<path id="Vector_4" d="M73.96 20.032C73.96 20.664 73.984 21.168 74.032 21.552C74.08 21.936 74.176 22.224 74.32 22.424C74.464 22.624 74.672 22.72 74.952 22.72C76.432 22.72 77.48 21.48 77.632 21.352L78.056 23.144C77.664 23.616 76.28 25.2 74.064 25.2C72.904 25.2 72.096 24.824 71.632 24.08C71.168 23.336 70.936 22.384 70.936 21.232V20.944L70.928 16.264H69.76V14.008H70.936V10.992L73.96 10.4V14.008H76.472L75.952 16.264H73.952L73.96 19.944V20.032Z" fill="var(--fill-0, #00292D)"/>
<path id="Vector_5" d="M80.904 22.28C81.32 22.6 81.904 22.76 82.664 22.76C82.976 22.76 83.272 22.744 83.552 22.72C84.136 22.648 84.752 22.512 85.408 22.304C86.064 22.096 86.592 21.912 87.008 21.752L87.464 23.592C87.248 23.792 86.872 24.016 86.336 24.272C85.808 24.528 85.192 24.744 84.504 24.928C83.808 25.112 83.12 25.208 82.424 25.208C81.144 25.208 80.12 24.992 79.36 24.568C78.6 24.144 78.048 23.496 77.704 22.632C77.368 21.768 77.2 20.648 77.2 19.28C77.2 18.016 77.368 16.976 77.712 16.176C78.056 15.368 78.608 14.768 79.384 14.368C80.152 13.968 81.184 13.768 82.472 13.768C83.928 13.768 85.088 14.088 85.96 14.736C86.824 15.376 87.296 16.384 87.368 17.76C87.384 17.92 87.392 18.16 87.392 18.472C87.392 18.856 87.376 19.208 87.352 19.536C87.328 19.864 87.304 20.072 87.288 20.152L80.32 20.56C80.288 21.376 80.488 21.96 80.904 22.28ZM84.424 17.808C84.424 16.672 83.76 16.104 82.424 16.104C81.76 16.104 81.256 16.28 80.896 16.64C80.544 16.992 80.336 17.536 80.288 18.264L84.416 18.104C84.416 18.032 84.424 17.936 84.424 17.808Z" fill="var(--fill-0, #00292D)"/>
<path id="Vector_6" d="M94.904 16.904C94.64 16.448 94.184 16.224 93.528 16.224C93.176 16.224 92.84 16.296 92.544 16.44C92.24 16.584 91.992 16.736 91.792 16.912C91.592 17.08 91.496 17.176 91.496 17.2V24.936H88.488V14.168L91.496 13.432V15.208C91.496 15.16 91.656 15.008 91.984 14.752C92.312 14.496 92.712 14.264 93.192 14.056C93.664 13.84 94.168 13.736 94.696 13.736C95.992 13.736 96.92 14.112 97.48 14.872C98.04 15.632 98.32 16.744 98.32 18.216V20.272C98.328 20.896 98.352 21.384 98.408 21.72C98.456 22.064 98.552 22.312 98.688 22.472C98.824 22.632 99.032 22.712 99.312 22.712C99.584 22.712 99.832 22.648 100.064 22.528C100.296 22.4 100.464 22.28 100.584 22.152L101.224 22.512C101.224 22.544 101.016 23.32 100.8 23.656C100.416 24.248 99.6 24.976 98.336 24.976C97.176 24.976 96.384 24.608 95.952 23.872C95.52 23.136 95.304 22.408 95.304 21.24V19.032C95.296 18.064 95.16 17.36 94.904 16.904Z" fill="var(--fill-0, #00292D)"/>
<path id="Vector_7" d="M106.528 16.904C106.264 16.448 105.808 16.224 105.152 16.224C104.8 16.224 104.464 16.296 104.168 16.44C103.864 16.584 103.616 16.736 103.416 16.912C103.216 17.08 103.12 17.176 103.12 17.2V24.936H100.112V14.168L103.12 13.648V15.208C103.12 15.16 103.28 15.008 103.608 14.752C103.936 14.496 104.336 14.264 104.816 14.056C105.288 13.84 105.792 13.736 106.32 13.736C107.616 13.736 108.544 14.112 109.104 14.872C109.664 15.632 109.944 16.744 109.944 18.216V20.272C109.952 20.896 109.976 21.384 110.032 21.72C110.08 22.064 110.176 22.312 110.312 22.472C110.448 22.632 110.656 22.712 110.936 22.712C112.272 22.712 112.648 21.632 112.76 21.504L113.144 23.184C113.144 23.216 112.496 24.352 111.36 24.856C110.92 25.056 110.464 25.2 109.952 25.2C108.792 25.2 108 24.832 107.568 24.096C107.136 23.36 106.92 22.408 106.92 21.232V19.024C106.92 18.064 106.784 17.36 106.528 16.904Z" fill="var(--fill-0, #00292D)"/>
<path id="Vector_8" d="M115.824 21.544C115.872 21.928 115.968 22.216 116.12 22.416C116.264 22.616 116.48 22.712 116.752 22.712C117.904 22.72 118.768 21.744 118.912 21.616L119.392 23.192C119 23.664 117.696 25.2 115.84 25.2C114.984 25.2 114.328 24.992 113.872 24.568C113.416 24.152 113.104 23.624 112.952 22.992C112.8 22.36 112.72 21.632 112.72 20.816V16.264H111.664V14.008H112.944L115.736 13.488V20.024C115.752 20.664 115.776 21.168 115.824 21.544Z" fill="var(--fill-0, #00292D)"/>
<path id="Vector_9" d="M128.712 21.544C128.76 21.928 128.856 22.216 129.008 22.416C129.152 22.616 129.368 22.696 129.64 22.712C130.664 22.776 131.304 22.056 131.448 21.928L131.952 23.6C131.552 24.072 131.064 24.456 130.48 24.752C129.896 25.048 129.312 25.2 128.728 25.2C127.32 25.2 126.392 24.576 125.944 23.336C125.592 23.88 125.168 24.312 124.672 24.656C124.168 24.992 123.592 25.176 122.928 25.208C122.84 25.216 122.712 25.216 122.544 25.216C121.048 25.216 120.024 24.624 119.488 23.448C118.952 22.272 118.68 20.92 118.68 19.408C118.68 17.664 119.008 16.288 119.664 15.272C120.32 14.256 121.416 13.744 122.944 13.744C123.424 13.744 123.904 13.856 124.408 14.072C124.912 14.288 125.304 14.536 125.616 14.816V13.44L128.632 14.176V20.04C128.64 20.664 128.664 21.168 128.712 21.544ZM123.72 16.232C123.208 16.232 122.8 16.416 122.504 16.784C122.208 17.152 122 17.592 121.88 18.096C121.76 18.6 121.704 19.088 121.704 19.568C121.72 20.392 121.872 21.096 122.16 21.68C122.448 22.264 122.88 22.584 123.456 22.648L123.608 22.656C124 22.656 124.376 22.528 124.752 22.28C125.12 22.032 125.416 21.728 125.64 21.36V17.12C125.072 16.528 124.432 16.232 123.72 16.232Z" fill="var(--fill-0, #00292D)"/>
<path id="Vector_10" d="M134.496 21.536C134.544 21.92 134.64 22.208 134.792 22.408C134.936 22.608 135.152 22.704 135.424 22.704C136.544 22.704 136.864 21.736 137.016 21.608L137.72 23.592C137.328 24.056 136.84 24.432 136.256 24.728C135.672 25.024 135.088 25.168 134.504 25.168C133.648 25.168 132.992 24.96 132.536 24.552C132.08 24.136 131.768 23.616 131.616 22.992C131.464 22.368 131.384 21.64 131.384 20.824L131.376 10.232L134.4 9.704V20.024C134.416 20.648 134.44 21.16 134.496 21.536Z" fill="var(--fill-0, #00292D)"/>
<path id="Vector_11" d="M138.888 22.392C139.704 22.616 140.4 22.736 140.992 22.736C141.6 22.736 142.064 22.656 142.392 22.504C142.72 22.352 142.88 22.096 142.88 21.728C142.88 21.496 142.768 21.296 142.544 21.128C142.32 20.96 142.04 20.832 141.712 20.728C141.384 20.624 140.928 20.504 140.352 20.368L139.904 20.264C139 20.032 138.304 19.624 137.808 19.056C137.312 18.488 137.064 17.8 137.064 17C137.064 16.744 137.08 16.52 137.12 16.328C137.28 15.432 137.776 14.776 138.608 14.36C139.44 13.944 140.464 13.736 141.704 13.736C142.472 13.736 143.176 13.824 143.816 14.008C144.456 14.192 145 14.408 145.448 14.656L145.152 16.976C144.872 16.84 144.504 16.712 144.048 16.584C143.592 16.456 143.12 16.352 142.648 16.272C142.216 16.224 141.84 16.2 141.52 16.2C140.536 16.2 140.048 16.456 140.048 16.96C140.048 17.304 140.208 17.568 140.536 17.752C140.864 17.936 141.368 18.096 142.064 18.224C143.28 18.472 144.24 18.896 144.952 19.48C145.664 20.072 146.016 20.816 146.016 21.704C146.016 22.552 145.8 23.232 145.36 23.752C144.92 24.272 144.36 24.64 143.672 24.864C142.984 25.08 142.232 25.192 141.416 25.192C141.04 25.192 140.672 25.168 140.32 25.128C138.92 24.968 137.736 24.6 136.768 24.008L137.032 21.6C137.448 21.904 138.072 22.168 138.888 22.392Z" fill="var(--fill-0, #00292D)"/>
<path id="Vector_12" d="M114.32 12.736C115.226 12.736 115.96 12.1414 115.96 11.408C115.96 10.6746 115.226 10.08 114.32 10.08C113.414 10.08 112.68 10.6746 112.68 11.408C112.68 12.1414 113.414 12.736 114.32 12.736Z" fill="var(--fill-0, #00292D)"/>
<path id="Vector_13" d="M27.504 4.648V4.64C27.768 4.552 27.976 4.328 27.976 4C27.976 3.808 27.904 3.632 27.776 3.52C27.616 3.376 27.4 3.312 27.048 3.312C26.824 3.312 26.592 3.328 26.424 3.368V5.84H26.744V4.76H27.048C27.344 4.768 27.472 4.904 27.552 5.248C27.624 5.56 27.68 5.776 27.72 5.848H28.056C28 5.752 27.944 5.512 27.864 5.16C27.808 4.896 27.696 4.72 27.504 4.648ZM27.08 4.512H26.752V3.6C26.808 3.584 26.912 3.568 27.072 3.568C27.416 3.568 27.648 3.712 27.648 4.04C27.648 4.32 27.432 4.512 27.08 4.512ZM27.168 2.16C25.784 2.16 24.664 3.28 24.664 4.664C24.664 6.048 25.784 7.168 27.168 7.168C28.552 7.168 29.672 6.048 29.672 4.664C29.672 3.28 28.552 2.16 27.168 2.16ZM28.72 6.208C28.32 6.608 27.776 6.848 27.168 6.848C26.56 6.848 26.016 6.6 25.616 6.208C25.216 5.808 24.976 5.264 24.976 4.656C24.976 4.048 25.224 3.504 25.616 3.104C26.016 2.704 26.56 2.464 27.168 2.464C27.776 2.464 28.32 2.712 28.72 3.104C29.12 3.504 29.36 4.048 29.36 4.656C29.36 5.264 29.112 5.816 28.72 6.208Z" fill="var(--fill-0, #00292D)"/>
<path id="Vector_14" d="M13.056 13.072V15.424C13.056 16.064 12.536 16.592 11.888 16.592C11.248 16.592 10.72 16.072 10.72 15.424V10.032C10.72 9.392 11.24 8.864 11.888 8.864H17.28C17.92 8.864 18.448 9.384 18.448 10.032C18.448 10.672 17.928 11.2 17.28 11.2H14.456L21.296 18.816C23.328 17.08 24.624 14.504 24.624 11.616C24.624 6.4 20.384 2.16 15.16 2.16H3.96C3.064 2.16 2 2.984 2 4.192V9.76L13.664 22.752V20.4C13.664 19.76 14.184 19.232 14.832 19.232C15.472 19.232 16 19.752 16 20.4V25.792C16 26.432 15.48 26.96 14.832 26.96H9.44C8.8 26.96 8.272 26.44 8.272 25.792C8.272 25.152 8.792 24.624 9.44 24.624H12.264L2 13.184V27.872C2.032 28.88 2.8 29.704 3.792 29.816L4.032 29.832H23.552C24.672 29.832 25.584 28.92 25.584 27.8C25.584 27.08 25.12 26.512 25.12 26.512C25.104 26.496 13.056 13.072 13.056 13.072Z" fill="var(--fill-0, #00292D)"/>
</g>
</svg>
