<svg viewBox="0 0 37.0096 36" fill="none" xmlns="http://www.w3.org/2000/svg">
<g id="Group">
<path id="Vector" d="M18.5048 35.935C28.7247 35.935 37.0096 27.8907 37.0096 17.9675C37.0096 8.04433 28.7247 0 18.5048 0C8.28487 0 0 8.04433 0 17.9675C0 27.8907 8.28487 35.935 18.5048 35.935Z" fill="var(--fill-0, #FFFDF6)"/>
<path id="Vector_2" d="M20.3591 7.76798C20.1966 7.74014 19.4128 7.61021 18.4952 7.61021C17.5776 7.61021 16.7939 7.74014 16.6314 7.76798C16.5358 7.78654 16.5071 7.69374 16.574 7.64733C16.6409 7.60093 18.4952 6.22738 18.4952 6.22738L20.4164 7.64733C20.4929 7.69374 20.4547 7.78654 20.3591 7.76798ZM17.1571 16.6589C17.1571 16.6589 17.0615 16.6961 17.0328 16.7796C17.4247 17.0673 17.6923 17.7262 18.4952 17.7262C19.3077 17.7262 19.5753 17.0673 19.9576 16.7796C19.929 16.6961 19.8334 16.6589 19.8334 16.6589C19.8334 16.6589 19.3268 16.7796 18.4952 16.7796C17.6637 16.7796 17.1571 16.6589 17.1571 16.6589ZM18.5048 15.5545C18.2754 15.5545 18.2276 15.471 18.0747 15.471C17.9313 15.471 17.6445 15.5824 17.5872 15.6845C17.5872 15.7401 17.6159 15.7865 17.6541 15.8237C17.9791 15.8701 18.132 16.0464 18.5143 16.0464C18.8967 16.0464 19.04 15.8701 19.3746 15.8237C19.4128 15.7773 19.4319 15.7309 19.4415 15.6845C19.3841 15.5824 19.0974 15.471 18.954 15.471C18.7724 15.471 18.7246 15.5545 18.5048 15.5545ZM36.9713 18.9513C36.9522 19.3782 36.9044 19.8051 36.8566 20.2227C34.7634 20.5568 34.0178 18.7471 31.8672 18.8399C31.9915 19.2854 32.0966 19.7309 32.1826 20.1949C33.9509 20.1949 34.6678 21.8005 36.6368 21.5592C36.5316 22.051 36.4074 22.5336 36.264 23.0162C34.706 23.1647 34.1612 21.6613 32.3547 21.7077C32.3738 21.9582 32.3738 22.2088 32.3738 22.4594L32.3642 22.877L35.8626 24.1763C35.681 24.6589 35.4707 25.1322 35.2508 25.5963C34.1994 25.5406 33.8362 24.232 32.24 24.3341C32.1922 24.6682 32.1348 25.0023 32.0584 25.3271C33.4443 25.2343 33.7502 26.478 34.7443 26.5708C34.4862 27.0162 34.2185 27.4524 33.9318 27.8793C33.3392 27.5731 32.8326 26.645 31.7143 26.5893C31.829 26.2459 31.9341 25.8933 32.0106 25.5406C31.0165 25.5406 29.8887 25.1694 28.9328 24.3248C29.2387 22.6172 26.5146 20.8817 26.5146 19.6381C26.5146 18.2831 27.2219 17.5313 27.2219 15.703C27.2219 14.348 26.5433 12.8724 25.5205 11.8701C25.3198 11.6752 25.1191 11.5174 24.8897 11.3782C25.8264 12.5104 26.5528 13.8469 26.5528 15.3968C26.5528 17.1137 25.7308 18.0232 25.7308 19.6102C25.7308 21.1972 28.1204 22.5708 28.1204 24.2135C28.1204 24.8538 27.9101 25.4849 27.2123 26.7193C28.2829 27.7587 29.6879 28.3248 30.5864 28.3248C30.8827 28.3248 31.0356 28.2413 31.1408 28.0186C31.2268 27.8237 31.3128 27.6288 31.3989 27.4339C32.3738 27.471 32.8135 28.3248 33.3583 28.6682C33.062 29.0487 32.7561 29.4292 32.4312 29.7819C32.0679 29.3921 31.59 28.7425 30.8732 28.5568C30.7489 28.7981 30.6151 29.0302 30.4717 29.2622C31.0834 29.42 31.504 30.0232 31.829 30.413C31.4753 30.7657 31.1121 31.0998 30.7393 31.4246C30.5004 31.0719 30.1372 30.6172 29.7262 30.3666C29.5732 30.5708 29.4107 30.7657 29.2483 30.9513C29.6019 31.1833 29.9078 31.6009 30.1085 31.935C29.6688 32.2784 29.2196 32.594 28.7512 32.9002C28.5218 31.0719 25.9602 29.8283 26.6484 27.7123C26.419 28.0835 26.1514 28.5476 26.1514 29.1137C26.1514 30.645 27.8336 31.8608 27.9675 33.3828C27.6234 33.587 27.2601 33.7726 26.8969 33.9582C26.8396 32.2877 25.0522 30.4501 25.0522 29.0766C25.0522 27.5452 27.1168 26.0046 27.1168 24.1949C27.1168 22.3852 24.7272 21.1322 24.7272 19.536C24.7272 17.949 25.7404 17.0302 25.7404 14.9977C25.7404 13.5035 25.0139 12 23.8861 11.0348C23.6854 10.8677 23.4942 10.7285 23.2552 10.6079C24.3162 11.8422 24.9375 12.9745 24.9375 14.6729C24.9375 16.5847 23.7714 17.652 23.7714 19.5267C23.7714 21.4014 26.1132 22.4501 26.1132 24.1949C26.1132 25.9397 23.9339 27.4153 23.9339 29.2158C23.9339 30.8492 25.8551 32.4826 25.8837 34.4223C25.4632 34.5986 25.0331 34.7657 24.6029 34.9142C24.8515 32.9559 22.6817 30.9327 22.6817 29.3364C22.6817 27.5916 24.947 26.0882 24.947 24.2042C24.947 22.3202 22.6435 21.4478 22.6435 19.5081C22.6435 17.5777 24.0581 16.5012 24.0581 14.3666C24.0581 12.7053 23.2074 11.2019 21.9744 10.2738L21.898 10.2181C21.7833 10.1346 21.6877 10.2367 21.7641 10.3387C22.6435 11.3968 23.1119 12.4733 23.1119 14.0603C23.1119 16.0186 21.4965 17.6056 21.4965 19.4988C21.4965 21.7355 23.6758 22.3759 23.6758 24.2042C23.6758 26.0325 21.3436 27.4988 21.3436 29.4478C21.3436 31.2483 23.5515 33.2529 23.1692 35.3411C22.7295 35.4524 22.2803 35.5452 21.8215 35.6288C22.2325 33.0394 20.0723 31.174 20.0723 29.4756C20.0723 27.6381 22.4906 26.0046 22.4906 24.2042C22.4906 22.5151 20.7605 21.9582 20.5311 20.2227C20.5025 19.9907 20.3017 19.8144 20.0341 19.8515C19.6804 19.9165 19.2312 20.1392 18.5239 20.1392C17.8166 20.1392 17.3673 19.9165 17.0137 19.8515C16.7461 19.8051 16.5453 19.9814 16.5167 20.2227C16.2873 21.9582 14.5572 22.5058 14.5572 24.2042C14.5572 25.9954 16.9755 27.6381 16.9755 29.4756C16.9755 31.174 14.8057 33.0394 15.2263 35.6288C14.7675 35.5452 14.3183 35.4524 13.8786 35.3411C13.4963 33.2622 15.7042 31.2575 15.7042 29.4478C15.7042 27.4988 13.372 26.0325 13.372 24.2042C13.372 22.3666 15.5513 21.7355 15.5513 19.4988C15.5513 17.6056 13.9264 16.0186 13.9264 14.0603C13.9264 12.4733 14.3947 11.3968 15.2741 10.3387C15.3601 10.2367 15.2645 10.1346 15.1403 10.2181L15.0638 10.2738C13.8308 11.2019 12.9801 12.6961 12.9801 14.3666C12.9801 16.5012 14.3947 17.5777 14.3947 19.5081C14.3947 21.4385 12.0912 22.3202 12.0912 24.2042C12.0912 26.0882 14.3565 27.5916 14.3565 29.3364C14.3565 30.9327 12.1963 32.9559 12.4353 34.9142C11.9956 34.7657 11.575 34.6079 11.1545 34.4223C11.1832 32.4826 13.1044 30.8492 13.1044 29.2158C13.1044 27.4153 10.9251 25.949 10.9251 24.1949C10.9251 22.4408 13.2669 21.4014 13.2669 19.5267C13.2669 17.652 12.1007 16.5847 12.1007 14.6729C12.1007 12.9652 12.7125 11.8422 13.783 10.6079C13.544 10.7285 13.3529 10.8585 13.1522 11.0348C12.0243 12 11.2979 13.5128 11.2979 14.9977C11.2979 17.0302 12.311 17.949 12.311 19.536C12.311 21.123 9.92147 22.3759 9.92147 24.1949C9.92147 26.0046 11.9861 27.5452 11.9861 29.0766C11.9861 30.4501 10.2082 32.2784 10.1413 33.9582C9.77809 33.7819 9.42444 33.587 9.07078 33.3828C9.2046 31.8608 10.8869 30.645 10.8869 29.1137C10.8869 28.5476 10.6192 28.0835 10.3898 27.7123C11.078 29.8283 8.5164 31.0812 8.28701 32.9002C7.81865 32.594 7.36941 32.2784 6.92973 31.935C7.13046 31.6009 7.43632 31.1833 7.78998 30.9513C7.62749 30.7657 7.465 30.5708 7.31206 30.3666C6.90106 30.6079 6.52829 31.0626 6.29889 31.4246C5.92612 31.0998 5.5629 30.7657 5.20925 30.413C5.53423 30.0232 5.95479 29.42 6.56652 29.2622C6.42315 29.0302 6.28933 28.7981 6.16507 28.5568C5.45776 28.7425 4.97029 29.3921 4.60708 29.7819C4.2821 29.42 3.96668 29.0487 3.67993 28.6682C4.21519 28.3248 4.66443 27.471 5.63937 27.4339C5.72539 27.6288 5.80186 27.8237 5.89744 28.0186C6.00258 28.2413 6.15552 28.3248 6.45182 28.3248C7.3503 28.3248 8.75536 27.7587 9.82589 26.7193C9.12813 25.4849 8.91785 24.8538 8.91785 24.2135C8.91785 22.58 11.3074 21.2065 11.3074 19.6102C11.3074 18.0139 10.4854 17.1137 10.4854 15.3968C10.4854 13.8469 11.2023 12.5104 12.1485 11.3782C11.9191 11.5174 11.7089 11.6752 11.5177 11.8701C10.495 12.8724 9.81633 14.348 9.81633 15.703C9.81633 17.5313 10.5236 18.2831 10.5236 19.6381C10.5236 20.8817 7.79954 22.6172 8.1054 24.3248C7.15913 25.1694 6.0217 25.5406 5.02764 25.5406C5.11367 25.8933 5.21881 26.2459 5.32395 26.5893C4.20563 26.645 3.69904 27.5731 3.10643 27.8793C2.81968 27.4524 2.5425 27.0162 2.29398 26.5708C3.28804 26.4687 3.58434 25.2251 4.97985 25.3271C4.90338 25.0023 4.84603 24.6682 4.79824 24.3341C3.20201 24.232 2.8388 25.5406 1.78739 25.5963C1.56755 25.1322 1.35727 24.6589 1.17567 24.1763L4.67399 22.877L4.66443 22.4594C4.66443 22.2088 4.67399 21.9582 4.68354 21.7077C2.88659 21.6705 2.33221 23.1647 0.774219 23.0162C0.630845 22.5429 0.506587 22.051 0.401447 21.5592C2.37045 21.7912 3.07776 20.1856 4.85559 20.1949C4.93206 19.7309 5.0372 19.2854 5.17102 18.8399C3.02997 18.7471 2.27486 20.5568 0.181607 20.2227C0.124257 19.8051 0.0860243 19.3782 0.0669078 18.9513C2.50426 19.2111 3.4123 17.2715 5.62981 17.5128C5.84009 17.0023 6.07905 16.5012 6.35624 16.0186C3.57479 15.5452 2.63808 17.8005 0.0477913 17.4571C0.286748 7.76798 8.45906 0 18.5048 0C28.5505 0 36.7133 7.76798 36.9904 17.4478C34.4002 17.7912 33.4634 15.536 30.682 16.0093C30.9592 16.4919 31.1981 16.9838 31.4084 17.5035C33.6259 17.2715 34.5435 19.2111 36.9713 18.9513ZM10.5523 11.4153C9.18548 10.877 7.54146 10.9977 6.1364 11.8793C5.91656 10.6079 5.20925 9.47564 4.19607 8.79814C4.0527 8.70534 3.90933 8.78886 3.91888 8.94664C4.12917 11.6381 2.51382 13.9675 0.525704 16.0186C2.58073 16.6218 4.32033 14.051 6.98708 14.9513C7.93335 13.5684 9.14725 12.3712 10.5523 11.4153ZM18.5048 9.79118C16.7843 9.79118 15.3506 10.7378 14.9682 11.9536C14.9396 12.0464 14.9778 12.1114 15.0925 12.0557C15.3983 11.9165 15.752 11.8608 16.1343 11.8608C16.8321 11.8608 17.4534 12.1114 17.8166 12.5476C17.9791 13.0673 17.9886 13.8097 17.807 14.2459C17.5203 14.181 17.4151 13.9675 17.1284 13.9675C16.8416 13.9675 16.6314 14.1624 16.1534 14.1624C15.6755 14.1624 15.6182 13.9397 15.3028 13.9397C14.93 13.9397 14.8631 14.3109 14.8631 14.7285C14.8631 16.5847 16.6218 19.1462 18.4952 19.1462C20.3686 19.1462 22.1274 16.594 22.1274 14.7285C22.1274 14.3109 22.0413 13.9582 21.6494 13.9026C21.4583 14.0418 21.2767 14.1531 20.837 14.1531C20.3591 14.1531 20.2253 13.9582 19.9481 13.9582C19.604 13.9582 19.6422 14.6543 19.2408 14.6914C18.9731 14.0603 18.9636 13.2622 19.1834 12.5383C19.5466 12.1021 20.1679 11.8515 20.8657 11.8515C21.248 11.8515 21.6017 11.9165 21.9075 12.0464C22.0222 12.0928 22.0604 12.0371 22.0318 11.9443C21.659 10.7285 20.2157 9.79118 18.5048 9.79118ZM21.2384 12.4548C20.8274 12.4548 20.34 12.5754 20.0437 12.9095C20.015 13.0023 20.015 13.1322 20.0532 13.2158C20.7988 12.9652 21.4583 12.9559 21.7737 13.2993C21.9458 13.1508 21.9935 13.0116 21.9935 12.8631C21.9935 12.6218 21.745 12.4548 21.2384 12.4548ZM15.2263 13.2993C15.5895 12.9466 16.3446 12.9652 17.1379 13.2436C17.1762 12.8631 16.4689 12.4455 15.7711 12.4455C15.2645 12.4455 15.0065 12.6125 15.0065 12.8538C15.0065 13.0209 15.0542 13.1508 15.2263 13.2993ZM27.069 7.01624C25.7117 7.10905 24.536 7.5638 23.5802 8.31554C23.9817 7.20186 24.4978 6.22738 25.1478 5.28074C23.4177 5.45708 21.9744 6.0696 20.923 7.11833L20.101 5.02088L21.9266 3.45244L19.4797 3.28538L18.5048 1.07657L17.5298 3.28538L15.0829 3.45244L16.9086 5.02088L16.0865 7.11833C15.0351 6.0696 13.5918 5.45708 11.8618 5.28074C12.5118 6.22738 13.0279 7.20186 13.4293 8.31554C12.4735 7.5638 11.2979 7.10905 9.94058 7.01624C10.753 8.02784 11.4795 9.11369 12.0052 10.2738C12.0625 10.4037 12.1963 10.4501 12.3397 10.3759C14.194 9.47564 16.2873 8.97448 18.5048 8.97448C20.7223 8.97448 22.8156 9.47564 24.6699 10.3759C24.8132 10.4408 24.9375 10.4037 24.9948 10.2738C25.5301 9.11369 26.247 8.02784 27.069 7.01624ZM30.0225 14.9513C32.6797 14.0603 34.4288 16.6218 36.4839 16.0186C34.4957 13.9675 32.8708 11.6288 33.0907 8.94664C33.1002 8.78886 32.9569 8.69606 32.8135 8.79814C31.8003 9.47564 31.093 10.6079 30.8732 11.8793C29.4681 10.9977 27.8145 10.877 26.4572 11.4153C27.8528 12.3712 29.0667 13.5684 30.0225 14.9513Z" fill="var(--fill-0, #00654F)"/>
<g id="Group_2">
<path id="Vector_3" d="M32.4312 33.5406H31.4944V36H31.1599V33.5406H30.2232V33.2343H32.4407V33.5406H32.4312ZM32.8326 33.2343H33.3296L34.295 35.3968H34.3046L35.2795 33.2343H35.767V36H35.4229V33.6798H35.4133L34.3906 36H34.1899L33.1671 33.6798V36H32.8326V33.2343Z" fill="var(--fill-0, #00654F)"/>
</g>
</g>
</svg>
