<svg viewBox="0 0 65 32" fill="none" xmlns="http://www.w3.org/2000/svg">
<g id="logo_exito02">
<path id="Vector" d="M32.2582 14.5663C31.1571 14.8614 30.3733 15.109 29.3037 14.5549C27.1542 13.4414 25.964 11.8472 25.1361 9.63014C24.3397 7.49727 24.6569 6.17281 25.5351 4.10014C26.1783 2.58233 27.8929 0.778716 29.4536 0.236067C31.1135 -0.341066 31.8364 0.243018 33.196 0.88433C34.5933 0.77109 35.3883 1.1897 36.5711 1.7478C40.0473 2.54318 40.7699 5.37041 40.0696 8.58608C39.665 10.4434 38.5942 12.2193 36.9372 13.2249C35.7946 13.9158 34.5042 14.3249 33.1725 14.4184C32.8074 14.5055 32.6321 14.5338 32.2582 14.5663Z" fill="var(--fill-0, #002F01)"/>
<path id="Vector_2" d="M33.1958 0.884287C34.5931 0.771047 35.3882 1.18966 36.571 1.74776C40.0472 2.54314 40.7698 5.37037 40.0694 8.58604C39.6649 10.4434 38.594 12.2192 36.937 13.2248C35.7945 13.9157 34.5041 14.3248 33.1724 14.4183C32.8073 14.5055 32.632 14.5338 32.2581 14.5663C32.4039 14.3922 32.6226 14.2452 32.8137 14.1202C36.6799 11.5905 37.6366 6.21899 34.8025 2.54847C34.3243 1.92909 33.7179 1.45083 33.1958 0.884287Z" fill="var(--fill-0, #02B200)"/>
<path id="Vector_3" d="M36.5712 1.7478C40.0473 2.54318 40.77 5.3704 40.0696 8.58607C39.665 10.4434 38.5942 12.2193 36.9372 13.2249C35.7946 13.9158 34.5042 14.3249 33.1725 14.4183C34.3082 13.8877 34.7012 13.7662 35.746 13.04C37.4713 11.8406 38.1545 10.4008 38.5132 8.34124C38.7841 6.78597 38.4285 4.56531 37.655 3.17423C37.3739 2.66877 36.9215 2.21777 36.5712 1.7478Z" fill="var(--fill-0, #E7CE00)"/>
<path id="Vector_4" d="M32.0157 0.883246C32.542 0.928934 34.121 2.79787 34.4806 3.32101C35.3681 4.61221 36.1602 6.91521 35.8147 8.49092C35.3887 10.4337 33.9849 12.5928 32.3112 13.6913C31.9007 13.9529 31.0191 14.3935 30.5394 14.2926C32.8887 12.1048 35.1781 9.0935 31.0216 7.07184C27.3071 5.2652 30.1716 2.49742 32.0157 0.883246Z" fill="var(--fill-0, #02B200)"/>
<path id="Vector_5" d="M30.4499 0.561139L30.5318 0.571802C30.4679 0.791264 29.2479 1.8609 29.0232 2.18807C27.9833 3.70204 27.1295 5.71836 29.0098 7.0165C29.8344 7.66868 31.8107 8.21686 32.015 9.42593C32.324 11.2547 31.5415 12.4623 29.8736 12.9173C25.4434 13.2154 24.6347 6.97527 26.229 4.00592C27.2429 2.11755 28.4854 1.26245 30.4499 0.561139Z" fill="var(--fill-0, #C96200)"/>
<path id="Vector_6" d="M63.7566 26.2712C64.2747 26.4045 64.3656 25.9174 64.8433 25.8748C65.0161 26.0278 64.9834 25.955 65 26.1438C64.7624 26.5608 64.0734 26.7791 63.6227 26.8494L63.5703 26.8572C62.9965 27.5549 62.3875 28.3683 61.3795 28.0385C61.6351 28.051 61.747 28.0694 61.9901 27.9854C62.0995 27.8254 62.0799 27.9026 62.0492 27.6901L61.9493 27.6338C61.9951 27.6116 62.0403 27.5884 62.085 27.5641C62.4973 27.3399 62.861 26.952 62.9944 26.4946L63.3548 26.6378C63.6086 26.573 63.5607 26.5407 63.7566 26.2712Z" fill="var(--fill-0, #02B200)"/>
<path id="Exclude" d="M30.1409 19.2812C30.4685 19.2587 31.1403 19.1684 31.386 19.3593C31.3051 19.7797 30.4298 20.1994 30.0344 20.8046C28.6189 22.9717 26.4114 33.4095 32.2366 29.8632C31.259 31.8284 29.3313 32.8567 27.6497 30.8544C26.6054 29.611 26.6838 27.5816 26.8821 26.0488C26.5206 26.0716 26.1493 26.1162 25.7883 26.1552C25.2141 27.318 24.5516 28.4354 23.8069 29.497C23.2994 30.1208 23.0453 30.3679 22.262 30.789C21.0954 31.4157 18.491 30.4201 19.0833 28.8661C19.4062 28.0193 20.6536 27.582 20.969 28.7763C21.1372 29.4134 20.9281 29.6827 20.6204 30.2021C22.2976 29.8811 22.907 27.8662 23.5969 26.4511C22.753 26.4941 21.8267 26.6537 20.9954 26.8066C21.4543 26.2464 21.9273 25.798 22.4426 25.2929C23.0214 25.3021 23.6002 25.3049 24.179 25.3007C24.4108 24.7689 25.9887 22.1727 26.3421 21.7089C27.4088 20.3089 28.3879 19.5142 30.1409 19.2812ZM29.7229 19.8564C28.4241 20.5971 27.7697 21.7305 27.1956 23.0722C26.955 23.6344 26.3502 24.6845 26.219 25.2236L26.3645 25.3036C26.5854 25.2986 26.8896 25.3207 27.054 25.1923C27.8394 23.4945 28.0355 21.7152 29.5813 20.3388C29.6927 20.2396 29.9267 20.0045 29.9153 19.87L29.7229 19.8564Z" fill="var(--fill-0, #02B200)"/>
<path id="Vector_7" d="M7.81225 17.7246C9.06825 17.595 10.3031 18.0743 11.2137 19.1216C11.8772 19.8847 12.2483 22.08 10.6745 22.1109C10.3905 22.0625 9.91884 21.771 9.79252 21.5233C9.30268 20.5631 9.93293 20.1508 10.596 19.7378C9.94042 19.0352 9.02367 18.4834 8.02234 18.7521C5.5925 19.4041 6.90009 21.6552 7.70772 23.0973C8.67674 24.8277 9.41025 26.8047 8.80994 28.8001C7.75931 32.188 3.17304 33.097 0.787003 30.5013C-0.205293 29.1658 -0.339646 27.1948 0.849583 25.936C1.344 25.4045 2.03439 25.0988 2.76001 25.0901C3.47964 25.0827 4.35791 25.4359 4.33448 26.2796C4.32601 26.5685 4.20265 26.842 3.9918 27.0396C3.30111 27.6894 2.66116 27.2445 2.15103 26.6876C1.62195 27.3034 1.0862 27.9702 1.24046 28.8538C1.49819 30.3302 2.82006 31.1408 4.27169 30.9163C5.09927 30.7918 5.83961 30.3332 6.31988 29.6474C8.10428 27.1204 5.19253 24.5455 4.89549 21.9777C4.63939 19.7639 5.44629 18.073 7.81225 17.7246Z" fill="var(--fill-0, #002F01)"/>
<path id="Vector_8" d="M16.9352 22.6054C17.532 22.7172 17.4055 23.4312 17.3513 23.8514C17.7937 23.7341 18.1992 23.5353 18.5654 23.8572C18.6429 24.0656 18.6074 24.2756 18.517 24.4736C18.054 25.4883 17.8127 26.1945 17.7615 27.302C18.456 26.8924 19.8112 25.6361 20.306 25.5521L20.3725 25.6284C20.0738 26.679 18.3252 27.8404 17.3414 28.1938C15.2976 27.3605 17.5381 25.3856 17.3956 24.5308L17.303 24.4929C16.7128 24.6501 16.5181 25.2984 16.1056 25.8447C15.4004 26.7788 14.438 27.8683 13.2251 28.1075C12.4967 28.2512 12.3316 27.5848 12.0768 27.3879C11.8332 27.6033 11.5909 27.8204 11.3503 28.0392C9.59378 28.6842 9.95986 26.3109 10.3994 25.3988C10.767 24.6359 10.943 24.1349 11.4597 23.431C11.9537 23.4764 12.1869 23.5076 12.6785 23.4448C12.3186 24.1025 11.0319 26.476 11.3212 27.1149C11.955 27.3845 13.4948 24.0115 13.6991 23.4473C14.1052 23.4706 14.5118 23.482 14.9185 23.4815C14.6815 24.3517 13.9866 26.0936 13.8776 26.8432L13.9671 26.9191C14.7986 26.846 15.9693 25.1376 16.3574 24.4745L15.9167 23.8966C16.189 23.2468 16.3843 23.0118 16.9352 22.6054Z" fill="var(--fill-0, #02B200)"/>
<path id="Exclude_2" d="M31.3242 22.2691C31.9545 20.893 33.6893 21.169 33.1123 22.8687C33.0678 23 33.58 22.9076 33.6807 22.9156C34.6002 22.992 34.4176 23.7307 33.9873 24.2564C33.2439 24.2691 33.169 24.1173 32.8154 23.4771C32.6534 23.5417 32.6721 23.589 32.5732 23.7769C32.013 24.5442 30.7416 25.9557 30.7832 26.9976L30.8672 27.0992C31.8143 27.1044 32.5675 25.0767 32.8008 24.3043C33.1205 24.4758 33.2894 24.5469 33.5479 24.6314L33.8457 24.7252C33.653 25.1106 32.9606 26.7082 33.21 27.026C34.0069 27.0449 35.3558 24.7329 35.7285 24.0914C36.0993 24.122 36.6045 24.1188 36.9863 24.1265C36.7936 24.7745 36.4212 25.2079 36.1436 25.8795C36.8028 25.4134 38.0564 23.6114 38.751 24.0357C38.9768 24.4213 38.8407 24.7803 38.7559 25.2262C39.161 24.7483 39.6761 24.0686 40.2979 23.9215C40.5225 23.9631 40.439 23.9199 40.6094 24.108C40.8352 24.8522 40.1428 26.4589 39.873 27.3023C41.6022 26.243 41.0988 25.8754 42.1973 24.5709C43.0876 23.5145 45.6093 24.5066 44.0674 26.0982C43.6494 26.5297 42.8993 26.4627 42.332 26.399C42.4382 26.563 42.6855 26.9673 42.8359 27.0445C44.2157 27.751 45.6913 24.8826 46.1494 24.0973C46.4869 24.1189 46.8939 24.1145 47.2373 24.1197C47.1361 24.5759 46.7343 25.5569 46.6992 25.8033C47.4011 25.3779 48.1236 23.892 49.207 23.9264C49.4316 24.0339 49.3565 23.9683 49.4951 24.1764C49.5797 24.7776 48.8586 26.5843 48.6309 27.2789C49.7008 26.7317 50.2321 26.0765 50.5537 24.9078C50.6423 24.5861 51.0475 23.8107 50.9561 23.5465C50.8213 23.5009 50.686 23.4557 50.5508 23.4117C50.4954 23.2105 50.517 23.2601 50.6055 23.0289C50.8127 22.7882 51.0969 22.8648 51.2119 22.7838C51.3575 22.6808 51.6526 21.7333 51.7168 21.5484C52.0903 21.5337 52.461 21.5671 52.834 21.5924C52.7508 21.8014 52.6507 22.0429 52.582 22.2535C52.3733 22.8942 52.6879 22.7323 52.8984 23.1344L52.833 23.2779C52.6181 23.458 52.473 23.4933 52.207 23.5875C51.8724 24.3741 51.2482 26.1984 51.0205 27.0172L51.082 27.1109C51.2945 27.0983 51.3749 26.9853 51.542 26.8844C52.4157 26.3568 52.7731 25.2919 53.0059 24.316C53.4224 24.4935 53.7449 24.6478 54.2051 24.689C53.8118 25.2701 53.4316 26.5398 53.1973 27.2428C54.0857 26.8327 54.6389 26.4503 55.041 25.5035C55.454 24.5315 56.1943 23.9448 57.2812 24.231C58.4131 24.5291 57.8505 26.5518 56.8232 26.0582C56.5346 25.5868 57.1046 25.2825 57.0176 24.7525C56.7894 24.6879 56.8582 24.705 56.6104 24.7642C56.0475 25.2335 55.7398 26.1741 56.0146 26.8756C56.3349 27.692 57.4826 26.8478 57.8457 26.4849C58.4159 25.9151 58.6352 25.0705 58.8623 24.3092C59.3043 24.5168 59.5102 24.6015 60.0029 24.692C59.6176 25.2869 59.2467 26.5296 59.0273 27.2496C60.7637 26.3307 60.3574 26.1908 61.4482 24.816C62.4613 23.5392 64.8146 23.9762 63.7568 26.2711C64.2745 26.4041 64.3655 25.9174 64.8428 25.8746C65.0156 26.0275 64.9834 25.9553 65 26.1441C64.7623 26.561 64.0727 26.779 63.6221 26.8492L63.5703 26.857C62.9966 27.5547 62.387 28.3685 61.3789 28.0387C60.8123 27.6765 60.7697 27.5509 60.5654 26.9371C60.2027 27.3035 59.5593 27.7556 59.0879 27.9654C58.3534 28.2923 58.0346 28.0308 57.7627 27.358C57.147 27.3715 55.5742 29.4738 54.8389 26.8599C54.3582 27.3101 53.2068 28.2504 52.4873 28.0582C52.1915 27.9789 52.0575 27.6371 51.9307 27.3765C51.6215 27.4102 51.2252 27.8511 50.9219 28.0055C50.1104 28.4183 49.9783 28.0058 49.6768 27.3678C49.3493 27.3682 47.8996 28.8576 47.4238 27.7896C47.1611 27.199 47.7879 25.9014 47.9961 25.2984C47.0206 26.1029 46.5231 27.1824 45.6982 28.149L44.9062 28.0855C45.1727 27.3338 45.4338 26.5797 45.6885 25.8238C44.7173 27.1145 42.2194 29.7649 41.3486 26.8365C40.863 27.3511 39.4666 28.6783 38.8018 27.859C38.4477 27.4217 39.2211 25.7972 39.3633 25.2437C38.5918 25.9697 38.2799 26.951 37.6113 27.7633C37.282 28.1635 36.7888 28.3259 36.375 27.9557C36.8096 27.629 37.3928 25.8724 37.584 25.2857C37.1886 25.6149 36.3846 26.5221 36.1162 26.9586V26.9596C35.8003 27.3014 35.3452 28.6269 34.6338 28.0133C34.5361 27.595 35.0767 26.4033 35.2461 25.8834C34.6923 26.4409 32.0817 29.7635 31.7334 27.2379C31.4181 27.5165 29.4792 28.8932 29.4482 27.6734C29.4667 25.9428 30.6166 23.814 31.3242 22.2691ZM36.375 27.9557C36.4023 27.8622 36.4469 27.7507 36.4971 27.6295C36.447 27.7507 36.4023 27.8622 36.375 27.9557ZM63.3691 24.8521C62.6472 24.0642 61.1314 26.9368 61.9492 27.6344C61.9949 27.6123 62.0403 27.5883 62.085 27.564C62.4969 27.3399 62.8607 26.9519 62.9941 26.4947L62.9512 26.4459C62.2865 25.6892 63.2897 25.4337 63.3691 24.8521ZM43.3594 24.6949C43.1017 24.9308 42.5601 25.4996 42.6709 25.8863C42.8547 25.9836 42.8302 25.9459 43.083 25.898C43.4508 25.6489 43.6678 25.4771 43.8379 25.0592C43.8255 24.8225 43.8625 24.9027 43.7119 24.7486C43.5867 24.7206 43.4879 24.6898 43.3594 24.6949ZM33.8945 24.4947C33.8785 24.5399 33.8647 24.5848 33.8555 24.6246L33.8457 24.6803C33.8474 24.6634 33.8499 24.6446 33.8545 24.6246L33.8945 24.4947ZM58.9629 23.6422C59.0805 22.1381 61.3302 23.0628 60.2686 24.1471L60.1514 24.2564C59.6298 24.2668 59.4041 24.2765 59.0967 23.9586L58.959 23.8004L58.9629 23.6422ZM53.1484 23.7467C53.1336 22.5779 54.7006 22.4576 54.6826 23.6715C54.6792 23.8848 54.5391 24.0197 54.4629 24.1715L54.4346 24.2389C54.3362 24.2456 54.2373 24.2504 54.1387 24.2535C53.717 24.2655 53.5409 24.2066 53.2754 23.9742L53.1543 23.8639L53.1484 23.7467ZM32.4912 22.1119C32.3129 22.4483 31.7707 23.5368 31.8428 23.8697H31.9531C32.1622 23.5835 33.1699 22.321 32.4912 22.1119Z" fill="var(--fill-0, #02B200)"/>
</g>
</svg>
