<svg viewBox="0 0 76 32" fill="none" xmlns="http://www.w3.org/2000/svg">
<g id="logo_exito03">
<path id="Vector" d="M41.8 10.7927C42.4849 10.1569 43.1495 9.67683 44.0828 9.44694C45.8781 9.00459 47.3095 9.87057 47.6444 11.7555C48.0833 14.2248 46.9348 17.1075 45.7826 19.2579C45.5299 19.7291 45.0934 20.2508 44.7878 20.7115C45.4194 20.4313 45.5161 20.2838 46.0184 19.8872C47.5813 18.654 47.6604 17.4896 48.3077 15.8051L49.7573 12.1095C49.9395 11.6572 50.1187 11.1587 50.3714 10.7411C51.1046 9.52902 53.1544 9.75444 53.9166 10.7992C54.4513 10.1351 55.4573 9.59925 56.2982 9.42253C58.1652 9.03021 59.4885 10.0336 59.7606 11.9673C60.1039 14.4061 58.9477 17.2662 57.7887 19.3851C57.5695 19.7853 57.1177 20.3492 56.8397 20.7355C57.7213 20.2999 59.2841 19.0401 59.6424 18.122C60.3141 16.4006 60.7774 14.4719 61.6165 12.7884C61.9794 12.0596 62.2703 11.1885 62.8056 10.5535C62.9648 10.3678 63.1633 10.2199 63.3868 10.1208C64.289 9.71257 65.7626 9.91137 66.2486 10.8831C66.3037 10.9939 66.3502 11.2489 66.3182 11.3707C66.0729 12.3009 65.5951 13.1569 65.2217 14.0394C64.9139 14.8106 64.6181 15.589 64.3078 16.3609C64.1136 16.8568 63.3856 19.2397 63.8131 19.575C64.269 19.7491 65.307 18.4429 65.6592 18.0822C66.0612 17.6223 66.393 16.9753 66.8538 16.5891C67.1173 16.461 67.4809 16.511 67.7003 16.6307C68.5062 17.07 67.475 18.1621 67.0779 18.7372C65.8549 20.5096 63.944 22.8588 61.7797 23.4143C60.4089 23.7661 59.3626 22.7851 59.3066 21.4754C59.3007 21.3326 59.293 21.0616 59.2678 20.9327C59.2207 20.9134 59.2001 20.9074 59.1524 20.9467C58.5558 21.4383 57.7973 21.9444 57.1056 22.3006C55.5268 23.1138 53.8279 23.5929 52.0407 23.4676C50.9661 23.3923 50.7546 23.1253 50.0796 22.365C49.9441 22.6635 49.8909 23.092 49.7908 23.4207C49.3516 24.8657 48.9234 26.2962 48.6196 27.7777C48.5078 28.3239 48.3964 29.0122 47.8097 29.2412C47.0506 29.5375 46.0942 29.0694 45.5441 28.5438C44.7764 27.7947 44.8977 27.0821 45.1276 26.141C45.2372 25.6955 45.356 25.2523 45.4834 24.8115C45.7756 23.7918 46.0172 22.7676 46.3484 21.7601C46.3721 21.6873 46.39 21.641 46.362 21.5668C46.2034 21.5039 45.7654 21.8625 45.5779 21.977C44.5203 22.6222 42.9913 23.2436 41.7699 23.3936C40.8864 23.5022 39.3818 23.6315 38.659 23.0606C38.4121 22.8657 38.2388 22.5864 38.0162 22.419C37.9159 22.4651 37.8516 22.8334 37.8229 22.9424C37.4172 24.5082 36.9016 26.0009 36.5726 27.5935C36.3412 28.7137 36.1901 29.5718 34.7428 29.2666C33.8713 29.0828 32.8059 28.1729 32.8599 27.2065C32.9261 26.1732 33.3542 25.1614 33.5847 24.1652C33.7778 23.3305 34.072 22.5142 34.2623 21.6954C33.9866 21.8733 33.8113 22.1088 33.5517 22.3104C32.5876 23.0589 31.3724 23.8032 30.1156 23.3123C29.4817 23.0604 29.2875 22.4149 28.9177 21.9149C28.8359 21.8042 28.4982 22.2204 28.4188 22.2842C27.1736 23.2856 25.4035 24.014 23.9641 22.9409C23.3036 22.4485 22.8352 21.5475 22.722 20.7398C22.6355 19.8605 22.6517 18.7868 22.7616 17.8971C23.1895 15.8443 23.9795 13.596 25.259 11.9181C26.301 10.5515 27.6595 9.58398 29.3773 9.36412C30.85 9.25468 31.7397 9.70977 32.0743 11.1982C32.6801 10.0774 33.4317 9.73859 34.7262 10.0056C35.2983 10.1237 36.1855 10.7233 35.9965 11.4095C35.6786 12.5636 35.0001 13.6346 34.6263 14.7804C34.4563 15.2924 34.1712 15.8035 34.0011 16.3193C33.8474 16.7856 33.7258 17.2507 33.591 17.7218C33.4648 18.2462 33.2381 19.0096 33.3928 19.5298C33.4815 19.8285 34.1023 19.3541 34.2138 19.2518C34.6567 18.8243 35.2779 18.2036 35.5341 17.6361C35.9278 16.7637 36.2107 15.7488 36.5878 14.8574C36.7398 14.5371 36.8322 14.009 36.9926 13.7089C37.4505 12.8525 37.7875 11.5398 38.2816 10.7475C38.4109 10.5393 38.5851 10.3626 38.7913 10.2304C39.669 9.65962 41.2302 9.90896 41.8 10.7927ZM27.0732 20.7872C28.6674 19.8316 29.8911 16.3768 30.3601 14.6526C30.5031 14.1267 30.9375 11.9609 30.3634 11.6955C28.7544 12.4552 26.9482 17.2613 26.8076 19.0812C26.7874 19.3419 26.7289 20.6167 26.924 20.7654C26.9838 20.7803 27.0112 20.7909 27.0732 20.7872ZM51.8009 20.9677C52.0222 20.7969 52.4421 20.5 52.6102 20.2898C54.2395 18.2524 55.3501 15.7238 55.8371 13.1662C55.8774 12.9549 55.9818 11.8656 55.6173 11.8718C53.7273 12.8401 51.1923 18.5308 51.6372 20.8405C51.6489 20.9023 51.7406 20.9551 51.8009 20.9677ZM39.7268 20.9536C40.4518 20.4016 40.5102 20.3444 41.0452 19.5985C41.6535 18.7507 42.0694 17.9006 42.5539 16.9796C42.8201 16.4737 44.4846 11.9564 43.5201 11.8654C41.7246 12.8081 39.0588 18.5356 39.5563 20.8479C39.5631 20.88 39.6243 20.9289 39.6523 20.9472L39.7268 20.9536Z" fill="var(--fill-0, #FF4940)"/>
<path id="Vector_2" d="M16.6822 2.67057C16.7372 2.65752 17.1516 2.68086 17.226 2.68702C18.4282 2.78665 19.7732 3.03843 20.8725 3.59057C21.9838 4.14227 23.3541 5.24357 23.7265 6.56016C24.7903 10.3203 21.9289 13.4264 18.9599 14.8106C18.3448 15.0974 17.7231 15.3299 17.1214 15.5535C17.1905 15.9881 17.1987 16.5741 17.2418 17.0425C17.6292 21.2478 19.9358 26.1679 24.6309 24.334C25.4055 24.0315 25.9166 23.3141 26.6293 24.1274C26.6643 24.3364 26.717 24.751 26.5588 24.9139C24.4648 27.0699 21.3107 28.7579 18.3755 27.6498C15.8069 26.6802 14.3633 23.6416 13.7959 20.9469C13.6506 20.2571 13.5946 19.5055 13.4832 18.8029L13.4388 18.7868C13.1463 18.948 12.5731 22.5462 12.353 23.0216C11.8274 24.1565 9.82677 23.6009 9.23173 22.8016C9.16075 22.7063 9.04237 22.6327 8.97467 22.5399C8.57476 21.9916 8.64405 21.2564 8.698 20.6128C8.84571 19.3784 9.17827 18.2141 9.49947 17.0237C9.62761 16.5488 9.74094 16.0694 9.88303 15.5989C10.086 14.927 10.3231 14.2692 10.5375 13.6017C11.0913 11.8785 11.6796 10.1747 12.3857 8.51609C12.558 8.11132 12.6886 7.64642 12.9085 7.27322C13.1552 6.85444 13.426 6.67372 13.8735 6.56749C14.5237 6.4131 16.2219 6.38882 16.7718 6.77527C16.9604 6.90774 17.1082 7.16021 17.0996 7.40785C17.0835 7.86945 16.2899 9.65133 16.0762 10.19C15.867 10.7169 15.7127 11.2603 15.5206 11.7936C15.3052 12.3913 15.0517 12.984 14.8624 13.5914C14.8362 13.6756 14.7999 13.7718 14.8182 13.8608C15.1008 13.9205 16.613 12.7528 16.924 12.4855C17.1701 12.2759 17.4022 12.0481 17.6185 11.8035C18.6605 10.6086 19.3674 9.14893 19.315 7.47318C19.2934 6.78365 19.084 5.951 18.5861 5.48787C17.972 4.91663 16.9549 4.7568 16.1678 4.7898C13.2389 4.92177 10.9188 7.52416 9.98255 10.3544C9.8478 10.7618 9.74901 12.1187 9.55429 12.3161C8.89372 12.9861 7.8714 12.5588 7.31083 11.9374C6.82351 11.3973 6.66277 10.9164 6.66741 10.1491C6.63351 8.46447 7.76906 6.90368 8.82354 5.77496C9.52025 5.04763 10.2179 4.56795 11.0725 4.07185C12.9156 3.00206 14.6029 2.6844 16.6822 2.67057Z" fill="var(--fill-0, #FF4940)"/>
<path id="Vector_3" d="M66.1974 2.70873C67.6534 2.44847 69.0431 3.42319 69.2942 4.88085C69.5453 6.33852 68.5618 7.72194 67.1026 7.96373C65.6561 8.20336 64.2879 7.23053 64.0391 5.78589C63.7903 4.34121 64.7542 2.96667 66.1974 2.70873Z" fill="var(--fill-0, #FF4940)"/>
</g>
</svg>
