<svg width="24" height="24" viewBox="0 0 24 24" fill="none" xmlns="http://www.w3.org/2000/svg">
<path d="M10.8787 21.9155C10.489 21.859 10.0192 21.7698 9.46921 21.648C8.23338 22.6673 6.81963 23.0773 5.22796 22.878C3.63629 22.6785 2.46346 21.9301 1.70946 20.6327C1.06213 19.5404 0.865376 18.3724 1.11921 17.1288C1.37304 15.8853 2.00829 14.8442 3.02496 14.0057C3.01213 13.8609 3.00571 13.6946 3.00571 13.5068V13.0078C2.04938 12.2373 1.43979 11.2234 1.17696 9.96625C0.914126 8.70925 1.07696 7.56025 1.66546 6.51925C2.25646 5.50775 3.09679 4.80808 4.18646 4.42025C5.27629 4.03242 6.38271 4.00517 7.50571 4.3385C7.80821 3.35 8.37071 2.5465 9.19321 1.928C10.0157 1.30933 10.9513 1 12 1C13.0486 1 13.9842 1.30933 14.8067 1.928C15.6292 2.5465 16.1917 3.35 16.4942 4.3385C17.6172 4.00517 18.7268 4.03242 19.823 4.42025C20.9191 4.80808 21.7563 5.50775 22.3345 6.51925C22.923 7.54742 23.0858 8.69 22.823 9.947C22.5601 11.2042 21.9505 12.2244 20.9942 13.0078V13.5068C20.9942 13.6946 20.9878 13.8609 20.975 14.0057C21.9916 14.8442 22.6269 15.8821 22.8807 17.1193C23.1345 18.3564 22.9378 19.5276 22.2905 20.6327C21.5365 21.9301 20.3636 22.6785 18.772 22.878C17.1803 23.0773 15.7665 22.6673 14.5307 21.648C13.9807 21.7698 13.5109 21.859 13.1212 21.9155C12.7314 21.9718 12.3576 22 12 22C11.6423 22 11.2685 21.9718 10.8787 21.9155ZM8.27696 21.173C7.66663 20.8858 7.09096 20.5433 6.54996 20.1453C6.00896 19.7471 5.52563 19.2891 5.09996 18.7712C4.67429 18.2532 4.30729 17.6977 3.99896 17.1047C3.69063 16.5119 3.44929 15.8853 3.27496 15.225C2.60829 15.8892 2.21088 16.6741 2.08271 17.5798C1.95454 18.4856 2.11671 19.3328 2.56921 20.1213C3.11671 21.0494 3.96571 21.6202 5.11621 21.8337C6.26688 22.0471 7.32046 21.8268 8.27696 21.173ZM15.723 21.173C16.6795 21.8268 17.733 22.0471 18.8837 21.8337C20.0342 21.6202 20.8832 21.0494 21.4307 20.1213C21.8832 19.3328 22.0454 18.4856 21.9172 17.5798C21.789 16.6741 21.3916 15.8892 20.725 15.225C20.5635 15.8853 20.3253 16.5119 20.0105 17.1047C19.6958 17.6977 19.3256 18.2532 18.9 18.7712C18.4743 19.2891 17.9951 19.7471 17.4625 20.1453C16.9298 20.5433 16.35 20.8858 15.723 21.173ZM12 21C14.2333 21 16.125 20.225 17.675 18.675C19.225 17.125 20 15.2333 20 13C20 12.4397 19.9465 11.897 19.8395 11.372C19.7323 10.847 19.5717 10.3442 19.3577 9.8635C18.9119 10.1847 18.42 10.4335 17.882 10.61C17.344 10.7867 16.7583 10.875 16.125 10.875C14.5638 10.875 13.236 10.3278 12.1415 9.2335C11.0471 8.139 10.5 6.81117 10.5 5.25V5.1345C8.63846 5.491 7.08971 6.40192 5.85371 7.86725C4.61788 9.33275 3.99996 11.0437 3.99996 13C3.99996 15.2333 4.77496 17.125 6.32496 18.675C7.87496 20.225 9.76663 21 12 21ZM8.11246 14.8875C7.87079 14.6458 7.74996 14.35 7.74996 14C7.74996 13.65 7.87079 13.3542 8.11246 13.1125C8.35413 12.8708 8.64996 12.75 8.99996 12.75C9.34996 12.75 9.64579 12.8708 9.88746 13.1125C10.1291 13.3542 10.25 13.65 10.25 14C10.25 14.35 10.1291 14.6458 9.88746 14.8875C9.64579 15.1292 9.34996 15.25 8.99996 15.25C8.64996 15.25 8.35413 15.1292 8.11246 14.8875ZM14.1125 14.8875C13.8708 14.6458 13.75 14.35 13.75 14C13.75 13.65 13.8708 13.3542 14.1125 13.1125C14.3541 12.8708 14.65 12.75 15 12.75C15.35 12.75 15.6458 12.8708 15.8875 13.1125C16.1291 13.3542 16.25 13.65 16.25 14C16.25 14.35 16.1291 14.6458 15.8875 14.8875C15.6458 15.1292 15.35 15.25 15 15.25C14.65 15.25 14.3541 15.1292 14.1125 14.8875ZM3.13846 11.573C3.23713 10.9205 3.40313 10.2952 3.63646 9.697C3.86979 9.099 4.16404 8.5365 4.51921 8.0095C4.87438 7.48267 5.28429 6.99042 5.74896 6.53275C6.21379 6.07508 6.72696 5.67958 7.28846 5.34625C6.39229 5.05125 5.49579 5.04675 4.59896 5.33275C3.70213 5.61858 3.01271 6.17883 2.53071 7.0135C2.12054 7.7135 1.97888 8.49942 2.10571 9.37125C2.23271 10.2429 2.57696 10.9768 3.13846 11.573ZM20.8615 11.573C21.4358 10.9768 21.7832 10.2429 21.9037 9.37125C22.0242 8.49942 21.8794 7.7135 21.4692 7.0135C20.9872 6.17883 20.2978 5.61533 19.401 5.323C18.5041 5.03067 17.6076 5.03842 16.7115 5.34625C17.273 5.67958 17.7861 6.07508 18.251 6.53275C18.7156 6.99042 19.1255 7.48267 19.4807 8.0095C19.8359 8.5365 20.1301 9.099 20.3635 9.697C20.5968 10.2952 20.7628 10.9205 20.8615 11.573ZM16.125 9.875C16.6853 9.875 17.1962 9.79683 17.6577 9.6405C18.1192 9.484 18.5378 9.266 18.9135 8.9865C18.5763 8.37633 18.1628 7.82983 17.673 7.347C17.1833 6.86433 16.6423 6.4455 16.05 6.0905C15.4576 5.73533 14.8221 5.46475 14.1435 5.27875C13.4646 5.09292 12.7501 5 12 5C11.9103 5.00767 11.827 5.01725 11.75 5.02875C11.673 5.04042 11.5896 5.0565 11.5 5.077V5.25C11.5 6.52817 11.9512 7.61858 12.8537 8.52125C13.7564 9.42375 14.8468 9.875 16.125 9.875ZM15.448 4.70775C15.2301 3.91542 14.8058 3.266 14.175 2.7595C13.5441 2.25317 12.8191 2 12 2C11.1808 2 10.4622 2.25 9.84421 2.75C9.22621 3.25 8.83388 3.88333 8.66721 4.65C9.17754 4.43967 9.71463 4.27875 10.2785 4.16725C10.8421 4.05575 11.416 4 12 4C12.6058 4 13.2011 4.059 13.786 4.177C14.371 4.29483 14.925 4.47175 15.448 4.70775Z" fill="#FF48A0"/>
</svg>
