<svg width="48" height="48" viewBox="0 0 48 48" fill="none" xmlns="http://www.w3.org/2000/svg">
<path d="M19.4615 26.6655H21V19.4H19.4615V26.6655ZM11.8845 24.6655C10.4565 23.9678 9.28533 22.9652 8.371 21.6575C7.457 20.3498 7 18.8987 7 17.304C7 15.2807 7.7135 13.5575 9.1405 12.1345C10.5675 10.7115 12.3042 10 14.3505 10C14.7415 10 15.1308 10.035 15.5185 10.105C15.9065 10.175 16.294 10.2528 16.681 10.3385L17.196 10.4385L17.473 9.973C18.1883 8.79367 19.1102 7.83667 20.2385 7.102C21.3668 6.36733 22.6207 6 24 6C25.3793 6 26.6397 6.36733 27.781 7.102C28.922 7.83667 29.8502 8.79367 30.5655 9.973L30.8425 10.4385L31.319 10.3385C31.6927 10.2385 32.0695 10.157 32.4495 10.094C32.8295 10.0313 33.2252 10 33.6365 10C35.6472 10 37.377 10.711 38.826 12.133C40.2753 13.555 41 15.2915 41 17.3425C41 18.9372 40.5493 20.382 39.648 21.677C38.7467 22.9717 37.5692 23.965 36.1155 24.657V34.377H11.8845V24.6655ZM27.0385 26.6655H28.577V19.4H27.0385V26.6655ZM13.423 32.7885H34.577V23.6615L36.1155 22.8925C37.1565 22.3848 37.991 21.6393 38.619 20.656C39.2473 19.6727 39.5615 18.5942 39.5615 17.4205C39.5615 15.7588 38.9487 14.3733 37.723 13.264C36.4973 12.1547 35.055 11.6 33.396 11.6C33.0703 11.6 32.7512 11.6187 32.4385 11.656C32.1255 11.693 31.8318 11.7577 31.5575 11.85L30.146 12.246L29.246 10.754C28.687 9.81033 27.95 9.0385 27.035 8.4385C26.12 7.8385 25.1098 7.5385 24.0045 7.5385C22.8988 7.5385 21.8935 7.8385 20.9885 8.4385C20.0835 9.0385 19.3515 9.81033 18.7925 10.754L17.8925 12.246L16.431 11.85C16.1477 11.7503 15.8543 11.6838 15.551 11.6505C15.248 11.6168 14.9285 11.6 14.5925 11.6C12.9335 11.6 11.4995 12.1615 10.2905 13.2845C9.0815 14.4075 8.477 15.7835 8.477 17.4125C8.477 18.5992 8.7895 19.6835 9.4145 20.6655C10.0395 21.6478 10.8757 22.4068 11.923 22.9425L13.423 23.6615V32.7885ZM11.8845 34.377H13.423V40.4615H34.577V34.377H36.1155V42H11.8845V34.377Z" fill="#FFFDF6"/>
</svg>
