<svg width="24" height="24" viewBox="0 0 24 24" fill="none" xmlns="http://www.w3.org/2000/svg">
<path d="M11.4115 16.9615C10.1577 16.8013 9.109 16.2552 8.2655 15.323C7.42183 14.391 7 13.2833 7 12C7 10.6112 7.48608 9.43058 8.45825 8.45825C9.43058 7.48608 10.6112 7 12 7C13.2833 7 14.391 7.41858 15.323 8.25575C16.2552 9.09292 16.8013 10.1384 16.9615 11.3923L15.8807 11.075C15.6651 10.175 15.2008 9.4375 14.4878 8.8625C13.7746 8.2875 12.9453 8 12 8C10.9 8 9.95833 8.39167 9.175 9.175C8.39167 9.95833 8 10.9 8 12C8 12.95 8.29067 13.7833 8.872 14.5C9.4535 15.2167 10.1878 15.6833 11.075 15.9L11.4115 16.9615ZM12.6115 20.9693C12.5097 20.9898 12.4078 21 12.3058 21H12C10.755 21 9.585 20.7638 8.49 20.2915C7.395 19.8192 6.4425 19.1782 5.6325 18.3685C4.8225 17.5588 4.18125 16.6067 3.70875 15.512C3.23625 14.4175 3 13.2479 3 12.0033C3 10.7588 3.23617 9.58867 3.7085 8.493C4.18083 7.3975 4.82183 6.4445 5.6315 5.634C6.44117 4.8235 7.39333 4.18192 8.488 3.70925C9.5825 3.23642 10.7521 3 11.9967 3C13.2412 3 14.4113 3.23625 15.507 3.70875C16.6025 4.18125 17.5555 4.8225 18.366 5.6325C19.1765 6.4425 19.8181 7.395 20.2908 8.49C20.7636 9.585 21 10.755 21 12V12.2963C21 12.3949 20.9898 12.4936 20.9693 12.5922L20 12.3V12C20 9.76667 19.225 7.875 17.675 6.325C16.125 4.775 14.2333 4 12 4C9.76667 4 7.875 4.775 6.325 6.325C4.775 7.875 4 9.76667 4 12C4 14.2333 4.775 16.125 6.325 17.675C7.875 19.225 9.76667 20 12 20H12.3L12.6115 20.9693ZM19.7558 20.7885L14.9615 15.975L14.0385 18.7693L12 12L18.7693 14.0385L15.975 14.9615L20.7885 19.7558L19.7558 20.7885Z" fill="#FF48A0"/>
</svg>
