<svg width="48" height="48" viewBox="0 0 48 48" fill="none" xmlns="http://www.w3.org/2000/svg">
<path d="M36.0769 24.7691V23.2311H42.3074V24.7691H36.0769ZM38.3074 37.9231L33.2959 34.1926L34.2499 32.9846L39.2614 36.7156L38.3074 37.9231ZM34.1689 14.8501L33.2154 13.6426L38.1539 9.9231L39.1074 11.1311L34.1689 14.8501ZM11.2309 35.9231V28.3076H8.46138C7.71338 28.3076 7.06488 28.0331 6.51588 27.4841C5.96688 26.9351 5.69238 26.2866 5.69238 25.5386V22.4616C5.69238 21.7136 5.96688 21.0651 6.51588 20.5161C7.06488 19.9671 7.71338 19.6926 8.46138 19.6926H16.3844L24.3074 15.0001V33.0001L16.3844 28.3076H12.7689V35.9231H11.2309ZM22.7689 30.2771V17.7231L16.7999 21.2311H8.46138C8.15372 21.2311 7.87172 21.3593 7.61538 21.6156C7.35905 21.8719 7.23088 22.1539 7.23088 22.4616V25.5386C7.23088 25.8463 7.35905 26.1283 7.61538 26.3846C7.87172 26.6409 8.15372 26.7691 8.46138 26.7691H16.7999L22.7689 30.2771ZM27.8459 29.7771V18.2231C28.5152 18.8438 29.0544 19.6586 29.4634 20.6676C29.8724 21.6766 30.0769 22.7874 30.0769 24.0001C30.0769 25.2128 29.8724 26.3236 29.4634 27.3326C29.0544 28.3416 28.5152 29.1564 27.8459 29.7771Z" fill="#FFFDF6"/>
</svg>
