<svg width="48" height="48" viewBox="0 0 48 48" fill="none" xmlns="http://www.w3.org/2000/svg">
<path d="M30.7705 20.9269C31.3352 20.9269 31.8222 20.7232 32.2315 20.3159C32.6412 19.9086 32.846 19.4144 32.846 18.8334C32.846 18.2521 32.6382 17.7607 32.2225 17.3594C31.8068 16.9581 31.3168 16.7574 30.7525 16.7574C30.1882 16.7574 29.7012 16.9611 29.2915 17.3684C28.8818 17.7757 28.677 18.2701 28.677 18.8514C28.677 19.4324 28.8848 19.9236 29.3005 20.3249C29.7162 20.7262 30.2062 20.9269 30.7705 20.9269ZM17.2475 20.9269C17.8118 20.9269 18.2988 20.7232 18.7085 20.3159C19.1182 19.9086 19.323 19.4144 19.323 18.8334C19.323 18.2521 19.1152 17.7607 18.6995 17.3594C18.2838 16.9581 17.7938 16.7574 17.2295 16.7574C16.6648 16.7574 16.1778 16.9611 15.7685 17.3684C15.3588 17.7757 15.154 18.2701 15.154 18.8514C15.154 19.4324 15.3618 19.9236 15.7775 20.3249C16.1932 20.7262 16.6832 20.9269 17.2475 20.9269ZM29.248 32.2324C30.8287 31.2157 32.023 29.8574 32.831 28.1574H15.169C15.9847 29.8574 17.1808 31.2157 18.7575 32.2324C20.3345 33.2491 22.082 33.7574 24 33.7574C25.918 33.7574 27.6673 33.2491 29.248 32.2324ZM24.02 41.9999C21.514 41.9999 19.173 41.5276 16.997 40.5829C14.821 39.6382 12.917 38.3479 11.285 36.7119C9.65267 35.0759 8.36383 33.1736 7.4185 31.0049C6.47283 28.8362 6 26.5054 6 24.0124C6 21.5194 6.47417 19.1772 7.4225 16.9859C8.37083 14.7949 9.65783 12.8889 11.2835 11.2679C12.9092 9.6469 14.8143 8.36374 16.999 7.41841C19.184 6.47274 21.5177 5.99991 24 5.99991C24.3693 5.99991 24.7293 6.01207 25.08 6.0364C25.431 6.06074 25.7773 6.09724 26.119 6.1459C26.0567 6.3849 25.995 6.63641 25.934 6.90041C25.873 7.16407 25.822 7.41774 25.781 7.6614C25.4757 7.6204 25.1788 7.58957 24.8905 7.56891C24.6018 7.54857 24.305 7.53841 24 7.53841C19.4387 7.53841 15.5548 9.13541 12.3485 12.3294C9.14183 15.5237 7.5385 19.4042 7.5385 23.9709C7.5385 28.5372 9.14367 32.4272 12.354 35.6409C15.5643 38.8546 19.4528 40.4614 24.0195 40.4614C28.5858 40.4614 32.4678 38.8584 35.6655 35.6524C38.8628 32.4464 40.4615 28.5632 40.4615 24.0029C40.4615 23.2599 40.418 22.5569 40.331 21.8939C40.2437 21.2312 40.1167 20.5641 39.95 19.8924C40.1937 19.8101 40.4352 19.7236 40.6745 19.6329C40.9142 19.5419 41.1573 19.4412 41.404 19.3309C41.5937 20.0949 41.7403 20.8586 41.844 21.6219C41.948 22.3852 42 23.1779 42 23.9999C42 26.4822 41.5277 28.8186 40.583 31.0089C39.6383 33.1992 38.3563 35.1044 36.737 36.7244C35.1177 38.3447 33.2133 39.6291 31.024 40.5774C28.835 41.5257 26.5003 41.9999 24.02 41.9999ZM37.069 15.9229L31.146 9.99991C30.764 9.61791 30.5007 9.21957 30.356 8.8049C30.211 8.39057 30.1385 7.97607 30.1385 7.5614C30.1385 6.65474 30.4607 5.8474 31.105 5.1394C31.7493 4.43107 32.5758 4.0769 33.5845 4.0769C34.3862 4.0769 35.0162 4.26157 35.4745 4.63091C35.9325 4.99991 36.464 5.48707 37.069 6.0924C37.659 5.5024 38.1862 5.01907 38.6505 4.6424C39.1152 4.2654 39.7557 4.0769 40.572 4.0769C41.6137 4.0769 42.4455 4.43141 43.0675 5.14041C43.6892 5.84941 44 6.65724 44 7.56391C44 7.98891 43.9192 8.41407 43.7575 8.8394C43.5962 9.2644 43.3412 9.65124 42.9925 9.99991L37.069 15.9229Z" fill="#FFFDF6"/>
</svg>
