<svg width="109" height="32" viewBox="0 0 109 32" fill="none" xmlns="http://www.w3.org/2000/svg">
<path d="M72.486 17.3531C72.386 15.9949 72.9365 16.4649 73.0759 16.1901C73.2126 15.9208 72.8961 15.538 73.1668 15.251C73.262 15.1506 73.4583 15.1363 73.5429 15.0507C73.5897 15.0034 73.3652 14.4207 73.529 14.1015C73.9588 13.2615 75.0135 12.8858 75.8618 12.6197C76.6575 12.3701 77.7745 12.0643 78.5579 12.4777C79.0164 12.7198 79.1605 13.0595 79.3041 13.5355C79.2802 13.6146 79.2557 13.6932 79.2292 13.7715C78.8957 14.756 78.1255 14.9879 77.2543 15.4163C78.9228 16.3197 79.3563 16.9297 80.1812 18.5513C80.687 17.4775 81.3822 16.8694 82.6103 16.8892C83.4219 16.9024 84.5277 17.1363 85.1043 17.7557C85.859 18.5661 85.9771 19.7594 85.9702 20.8128C86.1201 20.1141 86.3228 19.4521 86.8334 18.9206C87.1499 18.5915 87.5679 18.4103 88.0248 18.4011C88.4801 18.392 89.0806 18.5704 89.4103 18.8921C89.7507 19.2245 89.888 19.7818 89.8933 20.2417C89.914 22.1225 88.1817 28.226 86.8658 29.5432C86.4504 29.9586 85.9223 30.0759 85.3473 30.0752C84.4974 30.0741 83.6756 29.8415 83.0656 29.2289C82.1827 28.3423 82.1789 26.8247 82.1816 25.6555C81.9162 26.862 81.3822 28.743 79.7291 28.556C78.4164 28.4076 77.8862 27.2186 78.0335 25.9938C77.5665 26.2974 76.9469 26.6482 76.4251 26.8444C73.9875 27.7616 70.3867 26.5764 69.4102 24.066C69.2995 24.1539 69.1735 24.2696 69.0799 24.3707C67.8332 25.7022 65.9982 25.9609 64.285 25.6115C62.3399 25.2147 61.4916 24.3276 60.4395 22.7648C60.3502 23.4876 60.1018 24.3812 59.5013 24.842C58.6365 25.5058 56.9776 25.4441 56.2755 24.5677C56.1468 24.6779 55.9931 24.8234 55.8415 24.8957C53.2132 26.1506 52.1947 23.4638 51.2803 21.6676C51.3375 22.0548 51.3756 22.4992 51.4174 22.893C52.2045 23.4177 52.7391 24.1021 52.5646 25.0856C52.4867 25.5522 52.2207 25.9668 51.8283 26.2334C51.0048 26.7991 49.5028 26.7297 48.5459 26.5347C45.5146 25.9169 44.2264 24.5602 42.5581 22.1786C42.6908 23.147 42.9467 24.1811 42.4155 25.0725C41.8041 26.0986 40.1288 26.0503 39.2217 25.4948C38.4483 26.2751 37.5362 26.7076 36.3876 26.4013C35.3127 26.1148 35.143 25.0467 34.6823 24.179C34.4328 24.2337 34.1646 24.2807 33.9124 24.3295C33.8943 24.9784 33.9036 26.02 33.5214 26.5499C32.8064 27.541 31.0428 27.6114 30.093 26.96C29.1885 27.7876 28.6537 28.5723 27.3197 28.943C24.7964 29.6442 22.0298 30.94 20.8696 27.5126C20.205 25.5491 18.7094 21.6169 19.4519 19.3968C20.7232 17.3044 27.6848 15.7156 28.6632 19.194C29.0629 20.5983 28.9531 21.0832 28.4676 22.1523C28.6225 22.2122 28.6893 22.2304 28.8523 22.2631C28.9232 22.1568 28.926 20.745 28.973 20.4504C29.1439 19.3803 29.2691 18.1625 29.6717 17.1577C30.0353 16.2502 30.7576 15.4533 31.6708 15.0905C32.6335 14.7081 34.0359 14.5942 35.0062 15.0021C36.0918 15.4583 37.0914 16.7744 37.532 17.8496C37.4024 15.6721 37.736 14.1504 40.1361 13.7522C42.3309 13.388 45.6007 13.0759 46.7367 15.496C46.8864 14.6313 47.2022 13.8065 48.1074 13.4803C49.9631 12.8114 52.4031 12.8086 54.24 13.5442C55.0298 13.8604 55.6314 14.5462 55.9489 15.3125C56.0819 14.7679 56.1739 14.3864 56.5308 13.9244C56.8898 13.4631 57.419 13.1638 58.0004 13.0932C58.628 13.0131 59.4109 13.269 59.8912 13.6382C60.5076 14.112 60.6816 15.6736 60.7656 16.416C61.5724 14.9983 63.1713 14.0439 64.7531 13.7215C66.0274 13.4618 68.1417 13.3755 69.2825 14.0429C70.1516 14.5511 70.4207 15.8247 69.7984 16.6114C69.0804 17.6315 68.2214 17.2848 67.2183 17.482C66.604 17.4789 65.5211 17.6516 65.06 18.087C64.8211 18.3154 64.6951 18.415 64.5749 18.7149C64.1542 19.764 64.1919 21.5472 65.7264 21.5008C65.8748 21.4963 66.0067 21.4966 66.1359 21.4142L66.1865 21.3161C66.1088 21.1221 66.0961 21.118 65.8535 21.0161C65.3525 20.8057 65.1733 20.766 64.7642 20.3978C64.3776 19.2942 64.4733 19.0742 65.1344 18.1808C65.6237 17.6665 66.6875 17.6581 67.3555 17.6793C68.2518 17.7702 68.5129 17.7935 69.3538 18.0965C69.6373 17.947 70.1798 17.6141 70.483 17.67C70.6643 17.7033 70.6633 17.7827 70.9569 17.7909C71.3537 17.5546 70.8303 16.6128 72.486 17.3531ZM42.4917 18.0756C42.7654 17.9696 42.9506 17.8507 42.8705 17.5377C42.6085 17.214 42.3905 17.2617 42.0059 17.2838L41.9034 17.3591C41.8716 17.6052 41.9259 17.9768 41.9535 18.2345L42.4917 18.0756ZM25.7735 28.5816C27.0517 28.2898 28.6494 27.6694 29.3714 26.5217C29.7597 25.9044 29.8417 25.1626 29.6766 24.4606C29.5512 23.928 29.3497 23.4946 28.8682 23.2025C28.6764 23.0862 27.2674 22.6693 27.2548 22.6197C27.2131 22.4552 27.279 22.313 27.3655 22.1761C27.9298 21.2836 28.3165 21.1013 28.0437 19.8906C27.9052 19.2481 27.5107 18.6891 26.9506 18.3416C26.2729 17.9169 25.3518 17.8241 24.571 17.9239C23.4743 18.0569 20.9794 18.6801 20.3056 19.5304C19.8921 20.0524 19.9961 20.9903 20.0746 21.6109C20.2644 23.1103 21.3732 27.7784 22.4644 28.6398C22.8976 28.9819 23.5223 29.0091 24.0446 28.9389C24.6252 28.8609 25.2036 28.7147 25.7735 28.5816ZM74.8848 23.091C77.2644 22.5468 77.2426 18.3739 74.3114 18.6563C71.8738 19.169 72.0297 23.5669 74.8848 23.091ZM51.8502 18.371C53.2522 17.6969 52.8903 15.8173 50.8562 15.9611C50.6539 16.0352 50.3927 16.118 50.3234 16.342C49.9105 17.6761 50.169 18.8604 51.8502 18.371ZM55.0325 19.6184L55.4936 20.2014L55.6011 20.2975C55.7191 20.078 55.6787 19.251 55.6702 18.9629L55.6324 18.9077C55.4426 19.1394 55.2362 19.4029 55.0325 19.6184Z" fill="#FFFDF6"/>
<path d="M42.079 14.3275C43.6274 14.2505 45.5703 14.3568 46.1101 16.1523C46.3236 16.861 46.3736 17.3581 46.2533 18.0812C46.1236 18.8613 44.8232 19.6532 45.5105 20.3612C46.4743 21.3538 47.5065 22.3273 48.8049 22.8463C50.0055 23.3262 52.5714 23.5445 51.5657 25.4692C50.0375 26.4098 47.3209 25.6258 45.9199 24.6988C45.3375 24.268 44.804 23.7751 44.3292 23.2289C43.9942 22.8403 42.765 21.0344 42.5654 20.9246C42.4152 20.842 42.1723 20.8238 42.0066 20.8783C41.3112 21.1072 42.1967 23.744 41.7615 24.5838C41.6388 24.8206 41.45 24.9674 41.1953 25.0452C40.6233 25.2197 40.0042 25.0448 39.4974 24.7742C39.6878 22.671 39.1046 21.7776 38.5475 19.8583C38.1912 18.6312 38.1274 16.2959 38.7837 15.1479C39.7331 14.491 40.9737 14.404 42.079 14.3275ZM41.9535 18.2345L42.4917 18.0756C42.7654 17.9696 42.9506 17.8507 42.8705 17.5376C42.6085 17.214 42.3905 17.2617 42.0059 17.2838L41.9033 17.359C41.8715 17.6052 41.9259 17.9767 41.9535 18.2345Z" fill="#A7A7A7"/>
<path d="M42.1231 16.4968C43.4134 16.4779 43.8105 17.0283 43.5173 18.2662C43.1338 18.6734 43.0586 18.7431 42.5271 18.9283C42.2784 18.9854 42.0107 19.0119 41.7563 19.0425C41.3118 18.7241 41.1126 18.2697 41.0818 17.7381C41.031 16.8613 41.2662 16.5562 42.1231 16.4968ZM41.9536 18.2345L42.4918 18.0756C42.7654 17.9696 42.9507 17.8507 42.8705 17.5376C42.6086 17.214 42.3905 17.2617 42.0059 17.2838L41.9034 17.359C41.8716 17.6052 41.926 17.9768 41.9536 18.2345Z" fill="#FFFDF6"/>
<path d="M24.571 17.9237C25.3518 17.8239 26.2729 17.9168 26.9506 18.3414C27.5107 18.6889 27.9052 19.2479 28.0437 19.8904C28.3165 21.1011 27.9297 21.2834 27.3655 22.1759C27.279 22.3128 27.213 22.455 27.2547 22.6195C27.2673 22.6692 28.6763 23.086 28.8682 23.2023C29.3496 23.4944 29.5512 23.9278 29.6766 24.4604C29.8417 25.1624 29.7597 25.9043 29.3714 26.5215C28.6494 27.6692 27.0517 28.2896 25.7735 28.5815C25.2036 28.7145 24.6251 28.8607 24.0446 28.9387C23.5223 29.0089 22.8976 28.9817 22.4644 28.6397C21.3732 27.7782 20.2643 23.1101 20.0746 21.6108C19.9961 20.9901 19.8921 20.0522 20.3056 19.5303C20.9793 18.6799 23.4743 18.0567 24.571 17.9237ZM24.4686 24.9982C24.5265 25.2427 24.581 25.5734 24.7275 25.7667C24.8698 25.8298 24.829 25.8112 25.0009 25.7895C25.3597 25.6995 26.083 25.4918 25.9477 24.991C25.8048 24.8859 25.5507 24.8417 25.3813 24.8657C25.0752 24.9007 24.769 24.9297 24.4686 24.9982ZM23.8782 22.6693C25.8975 22.0773 25.9583 20.2335 24.2446 20.253C23.7856 20.3349 23.1593 20.4769 22.8221 20.8087C22.6191 21.1778 22.8781 22.3691 23.184 22.6506C23.4241 22.7702 23.6237 22.73 23.8782 22.6693Z" fill="#A7A7A7"/>
<path d="M25.4444 24.0715C26.8876 24.0206 27.186 25.4177 26.1155 26.176C25.7436 26.4394 25.3609 26.5012 24.9222 26.5857C24.7061 26.6197 24.4594 26.6208 24.2847 26.474C23.8932 26.145 23.4416 24.9511 23.7746 24.5185C24.0395 24.1743 25.0165 24.1081 25.4444 24.0715ZM24.4687 24.9983C24.5266 25.2429 24.5812 25.5735 24.7276 25.7668C24.87 25.83 24.8292 25.8113 25.001 25.7897C25.3598 25.6996 26.0832 25.4919 25.9478 24.9911C25.805 24.886 25.5509 24.8418 25.3815 24.8658C25.0754 24.9008 24.7691 24.9299 24.4687 24.9983Z" fill="#FFFDF6"/>
<path d="M24.2446 20.2531C25.9583 20.2336 25.8975 22.0773 23.8782 22.6694C23.6237 22.7301 23.4241 22.7703 23.184 22.6507C22.8781 22.3692 22.6191 21.1779 22.8221 20.8088C23.1593 20.477 23.7856 20.335 24.2446 20.2531ZM23.5329 21.2768C23.5623 21.4399 23.606 21.7783 23.691 21.8998L23.8117 21.868C24.0673 21.7534 24.6852 21.4995 24.6419 21.1565C24.5525 21.0515 24.4 21.0138 24.2639 21.0393C24.0362 21.107 23.7452 21.185 23.5329 21.2768Z" fill="#FFFDF6"/>
<path d="M74.218 15.6219C75.086 15.7418 75.7843 15.6787 76.6263 16.0128C81.6477 18.0057 80.1197 25.9814 74.7663 26.3589C73.634 26.4154 72.492 26.0658 71.5607 25.4353C70.6927 24.8479 70.2991 24.1238 69.7986 23.2542C70.356 22.3181 70.4097 21.3568 70.4369 20.2915C70.4528 19.667 70.2895 19.3312 70.1395 18.7379C70.3533 18.3925 70.9826 18.7188 71.3426 18.5684C71.54 18.5481 71.7256 18.0333 71.8761 18.0366C72.4495 18.0492 73.0989 18.1631 73.2015 17.3894C73.2457 17.0556 73.4654 16.9604 73.7334 16.805C73.8159 16.7572 73.951 16.4979 74.0047 16.3985C73.9978 15.946 73.8302 15.9171 74.218 15.6219ZM74.8849 23.0909C77.2646 22.5467 77.2428 18.3738 74.3116 18.6562C71.874 19.1689 72.0298 23.5668 74.8849 23.0909Z" fill="#A7A7A7"/>
<path d="M74.3115 18.6563C77.2427 18.3739 77.2645 22.5468 74.8849 23.091C72.0298 23.5668 71.8739 19.169 74.3115 18.6563ZM74.9466 22.3013C75.6917 21.8819 76.0311 20.7814 75.6162 20.02C75.5306 19.8634 75.2801 19.6136 75.145 19.4853C74.7487 19.43 74.5652 19.4105 74.1669 19.459C72.9765 20.5221 73.1855 22.7122 74.9466 22.3013Z" fill="#FFFDF6"/>
<path d="M33.3556 15.5446C33.8222 15.5161 34.4892 15.5919 34.9022 15.8495C36.744 16.998 37.8482 20.2627 38.4703 22.2449C38.6675 22.9565 38.9331 24.348 38.561 25.0028C38.1114 25.7942 36.8898 25.8578 36.1579 25.4299C35.9378 25.0831 35.7674 24.6548 35.6161 24.2717C35.2631 23.378 34.9197 23.3875 34.0992 23.482C33.7496 23.5496 33.5655 23.633 33.2497 23.7895C32.9628 24.9174 33.4362 26.4389 31.8676 26.585C31.2053 26.6466 30.9231 26.5976 30.3956 26.1901C30.7391 25.1043 30.5931 23.5735 29.6671 22.819C29.6727 21.087 29.7828 17.9634 30.9581 16.5719C31.6061 15.8047 32.4039 15.6188 33.3556 15.5446Z" fill="#A7A7A7"/>
<path d="M33.1903 18.3225C34.0204 18.3097 34.4887 19.4479 34.6931 20.1242C34.9014 20.8136 34.6307 21.0874 33.9839 21.2274C33.6005 21.2781 33.3164 21.3086 32.9277 21.3286C32.8141 21.1896 32.692 20.9843 32.5933 20.8294C32.5664 20.0977 32.6115 18.8123 33.1903 18.3225Z" fill="#FFFDF6"/>
<path d="M82.3109 17.6612C86.2463 17.3706 84.9294 21.6542 85.149 24.0608L85.4065 24.4318L85.8341 24.1403C86.2266 23.0434 86.6936 20.0907 87.5239 19.3754C87.6999 19.2237 87.8909 19.1672 88.1222 19.186C88.3993 19.2087 88.7695 19.3354 88.9477 19.5576C89.1471 19.8064 89.103 20.4135 89.0769 20.709C88.944 22.2347 87.4164 28.0916 86.2782 29.017C85.8383 29.3744 85.3448 29.312 84.8198 29.2592C83.3827 28.915 83.1242 28.1895 82.9976 26.7692C82.8843 25.4054 83.0449 24.0365 83.0646 22.674C83.0683 22.3908 82.8013 22.3576 82.7992 21.7613L82.7285 21.745C82.5912 21.8553 82.5678 22.0679 82.4721 22.2444C81.6402 23.7779 81.6498 25.7002 80.7818 27.2396C80.1765 28.1718 79.0245 27.8423 78.8293 26.7901C78.5075 25.0518 79.7244 24.3184 80.1584 22.7852C80.3967 21.9434 80.3988 21.2023 80.4563 20.3415C80.526 19.3061 81.1514 17.8539 82.3109 17.6612Z" fill="#A7A7A7"/>
<path d="M51.0537 13.7983C53.53 13.7313 55.5384 14.4377 55.3964 17.1731C55.3448 18.1761 54.8847 18.4713 54.3502 19.2616C54.2853 19.3571 54.2188 19.5657 54.2582 19.6828C54.8438 21.2221 56.7218 22.2353 55.6889 24.0777C54.3023 24.9662 53.4582 24.1037 52.832 22.903C52.3649 22.1987 52.0113 21.0904 51.4041 20.4901C51.3469 20.4337 51.0581 20.3342 50.967 20.3034C50.7929 20.4148 50.6416 20.5523 50.4846 20.6867C50.4449 21.2509 50.5074 21.9998 50.554 22.5605C49.8845 22.2975 49.1653 22.2103 48.5354 21.8264C48.1751 21.6067 47.813 21.3887 47.4524 21.1695C47.442 21.0886 47.434 21.0073 47.4285 20.9259C47.3395 19.5361 47.1128 15.5779 47.9746 14.5234C48.4894 13.8934 50.2511 13.8374 51.0537 13.7983ZM51.8503 18.371C53.2523 17.6969 52.8903 15.8172 50.8563 15.9611C50.654 16.0352 50.3928 16.118 50.3235 16.3419C49.9105 17.6761 50.169 18.8604 51.8503 18.371Z" fill="#A7A7A7"/>
<path d="M50.8564 15.9609C52.8904 15.8171 53.2524 17.6968 51.8504 18.3709C50.1691 18.8602 49.9106 17.6759 50.3236 16.3418C50.3929 16.1179 50.654 16.035 50.8564 15.9609ZM51.7642 17.5301C51.8357 17.328 51.8697 17.2526 51.8568 17.0319C51.6687 16.6881 51.3373 16.732 50.976 16.715C50.9743 16.9743 50.946 17.351 51.0475 17.5757C51.2596 17.7783 51.5334 17.6735 51.7642 17.5301Z" fill="#FFFDF6"/>
<path d="M66.1099 14.3257C67.0199 14.233 69.3735 14.2618 69.3485 15.5915C69.3235 16.8928 67.53 16.5655 66.6822 16.6963C65.8493 16.8247 64.9456 17.0487 64.3297 17.6571C63.3628 18.6149 63.2495 20.8026 64.2462 21.7628C65.1648 22.6349 67.0306 22.5631 66.9753 20.9421C66.945 20.0577 65.4578 20.5321 65.3552 19.702C65.1674 18.1795 67.0162 18.4209 67.963 18.5299C68.6257 18.6061 68.9964 18.783 69.4251 19.2078C69.5575 19.4496 69.6102 19.7334 69.6309 20.0061C69.8086 22.33 68.6959 24.7451 66.0929 24.9427C63.142 25.1668 60.8135 23.326 60.656 20.3172C60.4678 16.7285 62.5995 14.5998 66.1099 14.3257Z" fill="#A7A7A7"/>
<path d="M58.0802 13.8857C58.4935 13.8631 58.7818 13.9348 59.1567 14.1329C59.5195 14.3265 59.653 14.663 59.745 15.0398C60.1056 16.5177 59.9609 18.0446 59.8487 19.5462C59.7439 20.9544 59.87 22.5706 59.3019 23.8895C59.1636 24.2115 58.7009 24.3998 58.3839 24.479C57.6621 24.5142 56.6314 24.3579 56.7601 23.5175C56.7734 23.4288 56.809 22.8822 56.7936 22.8346C56.4883 21.9272 56.4085 21.3041 56.4447 20.3401C56.4989 18.6508 56.4745 16.9154 56.7957 15.2511C56.9484 14.4587 57.3308 14.1191 58.0802 13.8857Z" fill="#A7A7A7"/>
<path d="M77.1965 13.0997C77.7161 13.0366 78.9729 13.0756 78.2629 13.8775C77.6363 14.5853 76.4471 14.8884 75.5402 14.9651C75.1397 14.9591 74.4594 14.9466 74.2132 14.5942C74.2578 13.8008 76.5194 13.273 77.1965 13.0997Z" fill="#A7A7A7"/>
<path d="M48.2907 4.89742C48.6078 3.65248 49.4585 3.01939 50.7988 3.11986C51.5246 3.17427 52.1857 3.79751 51.7493 4.53452C51.6792 4.66306 51.5683 4.76793 51.5354 4.90087C51.6783 5.08746 51.7837 5.32197 51.9393 5.3949C53.1016 4.44422 53.8629 4.29614 55.2112 4.95992C56.8218 3.56417 57.3244 5.59203 57.3558 6.85536C57.3387 7.30798 57.3898 7.69853 57.3813 8.11826C57.3738 8.72675 57.3659 9.71832 57.16 10.2829C57.101 10.2957 56.5909 10.7831 56.3409 10.7991C55.9825 10.822 55.5447 10.648 55.3001 10.4368C54.7038 10.7385 54.1113 10.9213 53.4348 10.8193C52.8036 10.718 52.2388 10.3702 51.8658 9.8529C51.176 8.91249 51.1015 7.76801 51.2766 6.66125L50.797 6.80743C50.827 8.22222 51.6874 11.9451 48.9596 10.7531C48.9426 10.7456 48.8638 10.4606 48.7288 10.3782C48.3152 10.4098 48.4611 11.2559 46.7674 11.1759C45.8081 10.5583 45.7746 10.4524 45.5334 9.31167C45.4969 9.08086 45.4582 8.74793 45.368 8.54339L45.4142 8.64958L45.3453 8.71488C45.3576 8.81594 45.4376 9.55551 45.4539 9.58051C45.7186 10.8687 44.8094 12.0347 43.5637 11.1297C43.4154 11.2391 43.2064 11.3811 43.0436 11.4598C42.434 11.7613 41.728 11.805 41.0855 11.5812C38.1299 10.539 38.6716 4.12427 42.9394 5.7238C43.4352 5.22479 43.6 5.24889 44.273 5.21314C45.006 5.84451 45.0491 6.20619 45.1963 7.12621C45.1863 7.42344 45.2651 7.76966 45.3207 8.0663C45.3599 7.82235 45.3175 7.06239 45.2629 6.8221C45.0373 5.45094 44.8903 2.5517 47.1948 3.76831C47.4992 4.37786 47.4995 4.81517 47.5678 5.48637L47.609 5.48415C47.705 5.20646 48.0501 5.05531 48.2907 4.89742ZM54.4437 8.64932C55.0612 8.28811 55.0687 7.96774 55.0097 7.30279C54.6937 6.93946 54.6645 6.87151 54.198 6.78672C53.997 6.83825 53.8252 6.89259 53.7321 7.08755C53.4034 7.77892 53.5539 8.63597 54.4437 8.64932ZM42.6551 9.41219C43.4039 8.82537 43.1189 7.55039 41.9467 7.64615C41.2786 8.12943 41.4413 9.74109 42.6551 9.41219ZM47.8193 8.9217C48.1386 8.9895 48.2404 9.03383 48.5271 9.19515C48.4984 8.70096 48.5209 7.27964 48.3393 6.95652C48.0733 6.75563 47.8583 6.60267 47.6109 6.37758C47.6293 7.10857 47.724 8.18303 47.8193 8.9217Z" fill="#FFFDF6"/>
<path d="M53.6779 5.20736C53.9513 5.18776 54.1726 5.22664 54.4433 5.26292C54.6507 5.43245 54.9853 5.73985 55.2379 5.77184C55.731 5.83423 55.707 5.40968 56.015 5.16954C56.2708 5.15339 56.4474 5.30063 56.4947 5.54028C56.6421 6.28446 57.1123 10.0545 56.1496 10.1549C55.7368 9.99494 55.8368 9.79723 55.5821 9.41372C55.0427 9.43486 54.797 10.1006 54.1412 10.1746C51.9452 10.4226 51.288 7.43519 52.367 5.99237C52.68 5.5657 53.1526 5.28267 53.6779 5.20736ZM54.4438 8.6492C55.0613 8.288 55.0688 7.96763 55.0098 7.30268C54.6938 6.93935 54.6646 6.8714 54.1981 6.78661C53.9971 6.83814 53.8253 6.89248 53.7322 7.08743C53.4035 7.77881 53.554 8.63586 54.4438 8.6492Z" fill="#A7A7A7"/>
<path d="M54.1332 5.85693C54.6002 6.42115 55.2534 6.08621 55.6235 7.1594C55.7714 7.59004 55.7406 8.06183 55.5374 8.46965C55.2794 8.97936 55.0183 9.14344 54.5055 9.31133C53.9917 9.32468 53.8614 9.27288 53.3923 9.05303C52.7135 8.08111 52.6043 6.66732 53.9051 6.16052C54.0774 6.09336 54.0768 6.01132 54.1332 5.85693ZM54.4438 8.6493C55.0614 8.28809 55.0688 7.96772 55.0098 7.30277C54.6938 6.93944 54.6646 6.87149 54.1981 6.7867C53.9971 6.83823 53.8253 6.89257 53.7322 7.08753C53.4035 7.7789 53.554 8.63595 54.4438 8.6493Z" fill="#FFFDF6"/>
<path d="M43.691 5.86621C43.8756 5.8777 44.0065 5.87034 44.1619 5.97373C44.6033 6.4514 44.756 9.14308 44.8015 9.88641C44.8258 10.284 44.7958 10.793 44.2769 10.793C44.0782 10.6969 43.9368 10.4237 43.7464 10.2263C43.0582 10.0169 43.0758 11.5071 41.2554 10.927C39.4744 10.1045 39.2813 6.49912 41.5165 6.16789C42.4311 6.03236 42.396 6.42264 43.1039 6.58847C43.4838 6.49218 43.4335 6.20221 43.691 5.86621ZM42.6552 9.41213C43.4041 8.8253 43.119 7.55032 41.9468 7.64608C41.2787 8.12937 41.4414 9.74103 42.6552 9.41213Z" fill="#A7A7A7"/>
<path d="M41.8258 7.00851C42.9852 6.88559 43.6857 7.43624 43.7165 8.67467C43.7325 9.32072 43.2978 9.83424 42.7166 10.1031C41.0511 10.4432 40.5815 8.68114 41.1716 7.41331C41.4345 7.21592 41.5311 7.15231 41.8258 7.00851ZM42.6551 9.41224C43.404 8.82541 43.1189 7.55043 41.9467 7.64619C41.2786 8.12947 41.4413 9.74113 42.6551 9.41224Z" fill="#FFFDF6"/>
<path d="M50.2588 3.77772C50.5417 3.76338 51.1042 3.74095 51.2548 4.05653C51.1809 4.63828 49.8321 4.18831 50.0122 5.10319C50.1374 5.73885 50.7943 5.29412 51.182 5.56878C51.2669 5.74113 51.2471 5.67497 51.2343 5.87973C50.9744 6.25614 50.5449 6.02331 50.243 6.25667C49.9713 6.46666 50.289 9.4131 50.2327 9.98653C50.0843 10.2641 49.8147 10.4005 49.5149 10.2607C48.9266 9.75725 49.1281 7.30035 48.987 6.33103C48.664 6.24883 48.4835 6.30772 48.2488 6.04195C48.1202 5.61873 48.5781 5.56471 48.8996 5.47297C48.9487 5.10917 48.9832 4.87169 49.0759 4.51106C49.473 4.0943 49.7176 3.94108 50.2588 3.77772Z" fill="#A7A7A7"/>
<path d="M46.1089 4.18632C46.2494 4.17742 46.5008 4.14379 46.6144 4.23579C46.9306 4.49197 47.0344 7.89674 47.0977 8.569C47.2062 9.72227 47.5105 9.27049 47.9739 9.70426C48.0174 9.74499 48.0483 9.80219 48.051 9.86124C48.061 10.0842 47.8652 10.2754 47.7218 10.4265C46.0004 11.0595 46.0703 8.50099 45.9479 7.42987C45.8536 6.60545 45.8625 5.70561 45.8549 4.87759C45.8518 4.53582 45.8699 4.42645 46.1089 4.18632Z" fill="#A7A7A7"/>
<path d="M58.0238 4.73471C57.7414 4.52546 57.5622 4.40412 57.501 4.02575C57.2388 2.40335 59.7928 2.19889 60.0146 3.67165C60.087 4.15 59.7689 4.50941 59.4859 4.85933C59.8609 5.226 59.9497 5.85938 60.0088 6.37376C61.281 3.91559 64.7654 4.18167 65.8919 6.69339C66.3732 4.81945 66.9264 4.63779 67.9694 5.35088C67.9752 5.35501 68.4651 5.20449 68.5348 5.17674C69.7411 4.69711 70.792 6.56543 69.5741 7.22243C69.1353 7.45923 68.9167 7.35452 68.4566 7.37115C67.8928 8.3543 68.1912 9.12719 68.0853 10.1892C68.0002 11.0464 67.0599 11.5273 66.3025 11.095C65.8163 10.8178 65.6616 9.90951 65.6371 9.39545L65.5791 9.41044C64.7122 10.9266 63.0001 11.3459 61.3938 10.6631C60.6582 10.3502 60.2519 9.74267 59.904 9.05188C59.9407 9.89314 59.829 10.8808 59.2365 11.5572C58.7594 12.1014 57.743 12.4397 57.1265 11.8974C56.9026 11.7006 56.8106 11.4017 56.8021 11.1183C56.7707 10.7266 57.142 10.4124 57.1601 10.2828C57.5813 9.97534 57.4749 8.58109 57.4712 8.05533C57.4739 7.74994 57.468 7.44456 57.4547 7.13944C57.4712 6.13717 57.36 5.48996 58.0238 4.73471ZM63.024 8.76265C63.8968 8.30065 63.8468 6.97372 62.8304 6.88538C62.5432 6.96117 62.4166 6.97976 62.2586 7.24706C62.0975 7.52247 62.0507 7.84978 62.1288 8.15887C62.2698 8.69687 62.5363 8.76206 63.024 8.76265Z" fill="#FFFDF6"/>
<path d="M62.4703 5.35103C63.8287 5.1485 65.0988 6.06948 65.3222 7.41897C65.545 8.76852 64.6393 10.0466 63.2872 10.2887C62.3953 10.4484 61.4858 10.1173 60.9071 9.42213C60.3289 8.72689 60.1715 7.77541 60.4954 6.93219C60.8188 6.08897 61.5735 5.48477 62.4703 5.35103ZM63.0239 8.76274C63.8968 8.30075 63.8468 6.97382 62.8303 6.88548C62.5431 6.96126 62.4165 6.97985 62.2586 7.24716C62.0974 7.52257 62.0506 7.84988 62.1288 8.15897C62.2697 8.69697 62.5362 8.76216 63.0239 8.76274Z" fill="#A7A7A7"/>
<path d="M62.4623 6.2647C62.7729 6.24219 63.108 6.20729 63.4016 6.33922C64.6759 6.91165 64.5648 8.89982 63.2643 9.38019C62.7107 9.5277 62.3373 9.39788 61.8575 9.14324C61.181 8.18901 61.2512 6.75858 62.4623 6.2647ZM63.0239 8.76275C63.8967 8.30076 63.8467 6.97382 62.8303 6.88548C62.5431 6.96127 62.4165 6.97986 62.2586 7.24717C62.0974 7.52257 62.0506 7.84988 62.1288 8.15898C62.2697 8.69697 62.5362 8.76217 63.0239 8.76275Z" fill="#FFFDF6"/>
<path d="M58.627 5.18384C59.412 5.24877 59.3546 6.6194 59.3131 7.21147C59.2253 8.45753 59.6226 10.9635 58.1318 11.478C57.8313 11.495 57.7185 11.5406 57.5079 11.3084C57.3808 10.8325 57.9967 10.515 58.0531 10.0047C58.2137 8.55789 57.9839 6.9198 58.2717 5.5013C58.3041 5.34167 58.4823 5.23955 58.627 5.18384Z" fill="#A7A7A7"/>
<path d="M67.0173 5.64734C67.596 5.70385 67.3986 6.72466 67.5742 6.88116C67.7342 6.71041 67.6438 6.70533 67.7417 6.42039C68.1507 6.07057 68.8251 5.40721 69.3778 5.99642C69.4341 6.18385 69.448 6.22787 69.4293 6.42166C68.9815 7.04535 67.7784 6.25726 67.4587 8.15598C67.4045 8.75864 67.6811 10.6487 66.9359 10.5907C65.7105 10.4954 66.5737 6.07014 67.0173 5.64734Z" fill="#A7A7A7"/>
<path d="M58.5744 3.34747C59.3057 3.3357 59.7626 3.91731 58.9382 4.29648C58.0967 4.35251 57.8218 3.6694 58.5744 3.34747Z" fill="#A7A7A7"/>
</svg>
