<svg width="112" height="32" viewBox="0 0 112 32" fill="none" xmlns="http://www.w3.org/2000/svg">
<path d="M16.8086 7.03137C16.9667 7.06417 17.0441 7.11297 17.062 7.27745C17.1209 7.74167 17.0273 8.61445 17.1846 9.03311C17.8515 10.809 18.7313 12.4377 19.4013 14.2272C20.8684 13.1229 21.6104 12.1474 22.0263 10.3614C22.0929 10.0751 22.1306 9.07409 22.2899 8.93069C22.388 9.03933 22.377 9.13334 22.3794 9.27864C22.4164 11.5434 21.4992 14.0547 19.7443 15.6986C19.7543 16.9511 19.7983 17.8843 19.3397 19.0878C19.155 19.5727 18.9388 20.0328 18.7601 20.5175C18.999 20.5098 19.2688 20.4902 19.5012 20.4406C23.093 19.6749 25.2296 16.6888 25.7864 13.3387C25.8342 13.051 25.8363 12.5192 25.9981 12.2791L26.0856 12.2717C26.3964 12.8578 25.8188 15.8153 25.5601 16.5697C27.0763 16.5043 28.1918 16.0143 29.0469 14.789C29.1841 14.5923 29.317 14.3208 29.49 14.1616L29.5935 14.174C29.6041 14.1949 29.632 14.2613 29.6282 14.2826C29.4281 15.4033 28.6769 16.4598 27.6938 17.0818C26.7956 17.6501 25.9646 17.838 24.9238 17.9558C24.3453 18.9659 23.4156 20.1119 22.4121 20.7357C22.1393 20.9053 21.3422 21.3967 21.1586 21.5898L21.1702 21.6962C21.2408 21.7766 21.3566 21.8839 21.4522 21.933C23.6585 23.0662 26.177 23.3937 28.3466 21.974C28.6346 21.7855 28.9875 21.3986 29.289 21.3181L29.3421 21.3616C29.2899 21.5838 29.0407 21.8763 28.8683 22.0394C26.9623 23.8435 24.4103 24.2095 21.8898 23.599C21.2913 23.454 20.4535 23.0544 19.9147 23.0622C19.5227 23.0642 19.1481 23.2194 18.8763 23.4924C18.2428 24.1284 18.4204 25.4745 18.4351 26.3697C18.613 26.7115 19.2003 27.2442 19.1443 27.5757L19.0262 27.6479C18.4893 27.6976 13.7803 27.7291 13.6047 27.6047C13.4642 27.1973 13.9611 26.9405 14.0879 26.4827C14.1932 26.181 14.1669 25.8847 14.1736 25.5744C14.2091 23.9313 13.5081 23.6276 11.9667 23.6408C10.2777 23.5813 8.16118 22.9134 7.19212 21.4875C4.98559 22.032 3.06593 21.0689 1.82043 19.2989C3.50004 20.2393 4.38808 21.2275 6.49639 20.5843C6.19768 20.1886 5.9325 19.6735 5.75756 19.2225C5.5218 18.6146 4.80049 16.3125 5.04269 15.8036C5.30669 15.9316 5.64107 17.4729 5.85621 17.8891C6.055 18.3617 6.30985 18.8218 6.56381 19.2656C7.79849 21.4232 9.9464 22.4856 12.4899 22.1787C14.2308 21.9687 13.6888 19.8046 13.5017 18.6827C12.7964 18.8455 11.7325 18.892 11.0365 18.658C10.2175 18.3754 9.54664 17.7923 9.16913 17.035C9.71294 17.293 10.1446 17.8403 10.891 18.0256C11.7653 18.2427 12.451 18.1054 13.2269 17.6938C13.0134 17.1988 12.6929 16.3971 12.4353 15.935C11.6167 14.4664 10.3997 13.1211 9.01753 12.1219C8.64599 11.8533 7.44428 11.1227 7.24533 10.8857C7.82059 10.3975 11.3048 12.8482 11.8276 13.3243C13.6326 11.5896 13.3281 10.3026 12.4901 8.19428C12.9627 8.54507 13.3211 9.04896 13.5326 9.58296C14.228 11.3378 13.8829 12.8235 12.7392 14.2666C14.483 15.8449 15.4061 18.3287 15.8304 20.5038C15.8719 20.7167 15.9904 20.8866 16.2224 20.9115C16.6347 20.7396 16.99 19.8395 17.1636 19.4529C17.9436 17.7148 18.2913 15.8708 17.7756 14.0057C17.1828 11.8615 15.7666 9.21997 16.8086 7.03137Z" fill="#A7A7A7"/>
<path d="M40.3806 15.6865C40.3947 15.6863 40.4087 15.6862 40.4228 15.6863C41.315 15.6886 41.1274 16.8378 41.1181 17.4393C41.7588 16.5565 42.3041 16.1605 43.389 15.8692C44.5143 15.5669 46.2003 15.7052 47.203 16.3157C49.2719 17.5755 49.4636 19.5669 49.6327 21.6312L49.8366 24.1497C49.8679 24.5291 49.891 24.89 49.9433 25.3088C50.0003 25.873 51.1313 27.003 50.7445 27.5305C50.4218 27.9705 48.2004 27.7665 47.6519 27.7849C46.8606 27.8114 46.0012 27.8142 45.26 27.7919C43.9217 27.7515 44.5509 26.7293 45.0758 26.1695C45.5882 25.4465 45.3108 23.4063 45.2501 22.5428C45.1786 21.5251 45.1879 20.0041 44.9794 19.079C44.8989 18.7304 44.7774 18.3339 44.5874 18.0261C44.4197 17.7543 44.1677 17.4878 43.839 17.4087C43.4645 17.3186 43.0147 17.3458 42.6812 17.5446C42.2458 17.804 42.016 18.2963 41.8997 18.7606C41.7466 19.3718 41.7024 25.0292 41.8451 25.488C42.0021 25.9928 42.4805 26.312 42.7507 26.7499C42.8678 26.9397 42.9498 27.1915 42.886 27.4119C42.8588 27.506 42.7991 27.6135 42.707 27.6599C42.5234 27.7523 42.2905 27.7797 42.0859 27.7927C41.4319 27.8343 36.9019 27.8522 36.5146 27.7372C36.3805 27.6973 36.3105 27.6462 36.2452 27.5243C35.8612 26.8082 36.9532 26.2436 37.1576 25.6056C37.4052 24.833 37.2581 22.4999 37.2555 21.5652C37.2544 21.1423 37.2985 20.7058 37.2694 20.2853C37.2581 20.0986 37.2172 19.9147 37.1481 19.7401C36.9054 19.1443 36.2622 18.9479 35.9911 18.4314C35.9182 18.2925 35.9168 18.1506 35.9672 18.0045C36.1545 17.4622 39.6986 16.0136 40.3806 15.6865Z" fill="#A7A7A7"/>
<path d="M81.2667 15.7495C81.3493 15.7385 81.4324 15.731 81.5155 15.727C82.1445 15.7023 82.0756 16.2762 82.0739 16.7054C82.0214 16.7833 81.9476 16.8919 81.8836 16.961C80.8593 18.06 79.7945 19.1223 78.7998 20.2467C78.6893 20.3717 78.394 20.6818 78.2294 20.6968L78.2228 20.5063C78.2157 19.6694 77.9259 19.343 77.3112 18.7966C76.743 18.4117 76.93 17.7891 77.5102 17.4713C78.6647 16.8395 80.0811 16.3178 81.2667 15.7495Z" fill="#A7A7A7"/>
<path d="M4.73611 12.4259C5.40374 12.5488 6.78097 14.8994 5.11439 15.3533C3.11625 15.4171 4.05258 13.3177 4.73611 12.4259Z" fill="#A7A7A7"/>
<path d="M18.1636 4.03735C18.6496 4.13849 18.6279 5.47739 18.5261 5.8595C18.3135 6.65749 17.859 6.92473 17.0541 6.7471C15.4632 5.73708 17.275 4.58526 18.1636 4.03735Z" fill="#A7A7A7"/>
<path d="M26.0015 8.93579C26.6517 9.00471 27.9727 11.5259 26.1198 11.8795C24.1468 11.6714 25.3921 9.78199 26.0015 8.93579Z" fill="#A7A7A7"/>
<path d="M25.4582 19.9797C25.4789 19.9814 25.573 20.0175 25.5991 20.0269C25.867 20.5434 25.2925 22.8995 23.725 22.2722C23.6758 22.2432 23.6271 22.2132 23.5792 22.1823C23.3856 22.0571 23.2903 21.9594 23.2437 21.7307C22.9952 20.5108 24.5015 20.1385 25.4582 19.9797Z" fill="#A7A7A7"/>
<path d="M31.2885 18.368C31.4493 18.3864 31.394 18.3611 31.5106 18.4718C31.8683 19.4262 31.5192 21.4812 29.9573 20.9234C28.4576 19.8134 30.3333 18.8247 31.2885 18.368Z" fill="#A7A7A7"/>
<path d="M21.5982 5.65845C21.9238 5.71919 22.398 6.21626 22.586 6.48423C23.1157 7.23929 23.2926 7.94405 22.4275 8.51342C22.1502 8.56936 21.7984 8.60906 21.5493 8.46722C20.5322 7.88806 21.2623 6.33496 21.5982 5.65845Z" fill="#A7A7A7"/>
<path d="M19.0832 6.79065C19.6619 6.83434 20.2829 9.85741 18.2141 9.54441C17.3727 9.19815 17.4124 8.43796 17.9009 7.81425C18.2533 7.36421 18.6103 7.11375 19.0832 6.79065Z" fill="#A7A7A7"/>
<path d="M11.0713 9.46448C11.4616 9.60742 12.0074 10.1512 12.2483 10.4882C12.759 11.2023 12.8305 11.7668 12.0733 12.2788C10.6059 12.8367 10.3887 11.1381 10.7808 10.2077C10.8905 9.94728 10.9002 9.7335 11.0713 9.46448Z" fill="#A7A7A7"/>
<path d="M7.51723 12.4249C9.42883 12.1339 10.2512 13.8284 8.66671 14.4422C7.85143 14.4282 7.42016 13.886 6.93913 13.3109C6.74915 13.0836 6.54489 12.846 6.751 12.5772C6.94329 12.4608 7.28186 12.4495 7.51723 12.4249Z" fill="#A7A7A7"/>
<path d="M30.6048 11.0724C30.7319 11.0707 30.7499 11.0768 30.8532 11.1502C31.1909 11.6843 31.2863 13.3501 30.6088 13.6875C30.2682 13.8572 30.0116 13.8387 29.655 13.7578C29.5616 13.7358 29.4456 13.6827 29.3737 13.6202C28.4225 12.793 29.8051 11.4242 30.6048 11.0724Z" fill="#A7A7A7"/>
<path d="M16.0008 13.408C16.1405 13.3946 16.0886 13.3836 16.2096 13.4514C16.4205 13.8675 16.3837 14.8762 16.2305 15.3239C15.9834 16.0464 15.4437 16.2141 14.7291 15.9858C14.3903 15.7107 14.3425 15.5429 14.2093 15.1491C14.4268 14.1171 15.1275 13.8379 16.0008 13.408Z" fill="#A7A7A7"/>
<path d="M10.5165 19.4777C11.5883 19.6024 13.9226 20.0412 12.6962 21.5716C11.4371 22.629 10.387 20.4834 10.5165 19.4777Z" fill="#A7A7A7"/>
<path d="M0.206549 16.6299C1.20888 16.8612 3.02393 17.9826 1.8585 19.0876C0.158363 20.0539 -0.280843 17.3206 0.206549 16.6299Z" fill="#A7A7A7"/>
<path d="M22.7263 12.0015C23.4085 11.9261 24.6402 12.1514 25.0716 12.6891C25.1927 13.1132 24.6534 13.3236 24.3164 13.5339C22.5605 14.5627 21.3394 12.8025 22.7263 12.0015Z" fill="#A7A7A7"/>
<path d="M5.17624 9.30473C5.63195 9.24746 6.16532 9.26577 6.54025 9.54928C6.76425 9.71834 6.90945 9.96658 6.94379 10.2393C7.02528 10.9063 6.51778 11.1972 5.91682 11.2625C4.97577 11.0965 4.37981 10.3046 3.96469 9.51968C4.34963 9.42346 4.78282 9.35744 5.17624 9.30473Z" fill="#A7A7A7"/>
<path d="M10.7558 5.58801C11.7303 5.78686 12.589 6.27193 12.8776 7.22994C12.7944 7.60174 12.755 7.70667 12.4999 7.99733C10.8756 9.05369 10.3226 6.25151 10.7558 5.58801Z" fill="#A7A7A7"/>
<path d="M26.3648 18.0157C26.9771 17.9651 28.1821 18.6848 28.0768 19.2648C27.9483 19.3963 27.6409 19.467 27.4515 19.5255C26.004 19.8133 25.0953 18.7676 26.3648 18.0157Z" fill="#A7A7A7"/>
<path d="M28.1681 19.9632C28.3315 19.9661 28.2749 19.9448 28.3968 20.0464C28.5814 20.5874 28.3724 21.525 27.8689 21.8532C27.5817 22.0404 27.3571 21.9907 27.0418 21.9336C26.8425 21.7933 26.7523 21.6948 26.6661 21.4629C26.5995 21.2885 26.6096 21.0953 26.6942 20.9283C26.953 20.4132 27.6439 20.1429 28.1681 19.9632Z" fill="#A7A7A7"/>
<path d="M27.6909 13.0074C28.3726 13.2658 29.1853 15.0449 27.8116 15.3716C26.3501 15.237 27.1653 13.6658 27.6909 13.0074Z" fill="#A7A7A7"/>
<path d="M7.91879 15.0016C8.82502 15.1685 10.0742 15.9626 9.21773 16.95C8.0997 17.6761 7.39161 15.6656 7.91879 15.0016Z" fill="#A7A7A7"/>
<path d="M14.709 10.3309C15.5391 10.3532 17.2006 11.1356 16.3105 12.1078C15.0964 12.8847 14.464 11.0561 14.709 10.3309Z" fill="#A7A7A7"/>
<path d="M15.0067 6.8197C15.5424 7.00494 16.1986 7.94085 16.063 8.4853C15.9844 8.80118 15.8339 8.89419 15.5753 9.06632L15.5589 9.06804C14.0356 9.21368 14.3725 7.53634 15.0067 6.8197Z" fill="#A7A7A7"/>
<path d="M16.8958 16.311C17.2132 16.4035 17.5791 18.8764 15.8729 18.4084C14.8658 17.5681 16.0625 16.6221 16.8958 16.311Z" fill="#A7A7A7"/>
<path d="M30.6479 14.7476L30.669 14.7456C30.9802 14.7169 31.5111 14.7059 31.7592 14.9053C31.9706 15.3527 31.2542 15.9702 30.9222 16.251C30.5977 16.3474 30.2281 16.3793 29.941 16.1733C29.7828 16.0607 29.6795 15.89 29.6556 15.7014C29.5756 15.0979 30.1058 14.8055 30.6479 14.7476Z" fill="#A7A7A7"/>
<path d="M7.21559 16.5117C7.62208 16.7154 8.34675 18.1509 7.9414 18.5608C7.68716 18.8178 7.6701 18.8113 7.33585 18.893C5.77977 18.7005 6.6861 17.2427 7.21559 16.5117Z" fill="#A7A7A7"/>
<path d="M3.10128 15.8052C4.29097 15.5959 5.46843 16.661 4.03654 17.376C3.36828 17.3824 2.8008 16.8811 2.4927 16.3132C2.4245 16.1875 2.47654 16.0568 2.53496 15.9383C2.68294 15.8196 2.90677 15.8219 3.10128 15.8052Z" fill="#A7A7A7"/>
<path d="M20.576 8.61218C21.2639 8.80599 22.2574 10.2826 21.1571 10.8922C19.5854 11.1321 20.122 9.39209 20.576 8.61218Z" fill="#A7A7A7"/>
<path d="M3.33988 18.0907C4.22494 18.1614 5.89464 18.7568 4.9516 19.8359C4.91287 19.8676 4.87244 19.8973 4.83049 19.9248C3.87231 20.5433 3.1712 18.8438 3.33988 18.0907Z" fill="#A7A7A7"/>
<path d="M22.2422 14.7557C22.3057 14.7397 22.3612 14.7709 22.4258 14.7953C22.6608 15.1428 22.1461 16.7289 20.9339 16.4863C20.5192 16.232 20.2269 15.7616 20.6216 15.3496C21.0768 14.8745 21.6098 14.802 22.2422 14.7557Z" fill="#A7A7A7"/>
<path d="M21.5279 17.6094C21.7577 17.6025 21.858 17.5966 22.082 17.6406C22.7076 18.1221 21.4886 19.1565 20.9248 19.2912C20.2907 19.1689 19.8208 18.6172 20.3212 18.0562C20.6715 17.6634 21.0333 17.6398 21.5279 17.6094Z" fill="#A7A7A7"/>
<path d="M10.0624 15.5765C10.9965 15.4465 12.8422 15.8386 11.9337 17.0973C10.8577 17.6509 9.99058 16.3416 10.0624 15.5765Z" fill="#A7A7A7"/>
<path d="M8.33694 18.9301C9.1863 19.2166 10.4842 20.0248 9.57026 20.9654C8.12333 21.602 8.08292 19.8206 8.33694 18.9301Z" fill="#A7A7A7"/>
<path d="M8.39497 8.72375C9.22316 8.96738 10.3856 9.9483 9.51087 10.8204C8.04033 11.4761 8.0984 9.57097 8.39497 8.72375Z" fill="#A7A7A7"/>
<path d="M23.3414 14.4854L23.3644 14.4931C23.9356 14.6814 24.4926 15.5763 24.4201 16.1464C24.3797 16.4642 24.2042 16.5995 23.9706 16.7894C22.307 16.8925 22.9295 15.3694 23.3414 14.4854Z" fill="#A7A7A7"/>
<path d="M28.6854 16.7936C29.6072 16.7477 30.0647 17.2412 30.5876 17.8856C30.4118 17.9853 30.1118 18.1021 29.9171 18.1845C28.4146 18.6241 27.4694 17.5575 28.6854 16.7936Z" fill="#A7A7A7"/>
<path d="M19.0499 10.8878C20.0355 10.9272 21.2717 11.617 20.5807 12.7386C20.4625 12.8274 20.0762 12.9101 19.928 12.8855C19.0842 12.7459 18.9817 11.5275 19.0499 10.8878Z" fill="#A7A7A7"/>
<path d="M23.9529 8.5802C24.4474 8.72762 24.7328 10.9291 23.2328 10.7289C22.0478 9.96414 23.0984 9.02466 23.9529 8.5802Z" fill="#A7A7A7"/>
<path d="M67.9569 17.6719C67.089 17.6849 66.3485 17.8284 66.4158 16.7475C66.4295 16.5303 66.3824 16.3712 66.5104 16.1694C66.9003 15.8087 68.4272 16.183 69.5702 15.216C70.9827 14.0217 69.9945 12.7212 71.7719 12.8109C73.0122 12.8735 72.5627 14.9865 72.5873 15.9733C73.2162 15.9697 75.1795 15.8741 75.6186 16.1346C75.8368 16.3773 75.8231 17.2738 75.5656 17.5324C75.1018 17.7713 73.2381 17.6631 72.5791 17.6831L72.5763 21.5701C72.5736 22.3138 72.5293 23.2546 72.6452 23.9888C72.6819 24.2211 72.9652 24.5473 73.1391 24.7254C73.9834 24.9012 74.6309 24.6562 75.3293 24.2018C78.0145 22.4533 79.7229 19.6797 82.0531 17.5291C83.2798 16.3972 84.2734 15.3751 86.1722 15.7744C86.7557 15.8964 87.2648 16.2383 87.5864 16.7242C88.2673 17.7508 88.1683 20.0931 86.6305 20.4247C85.9042 20.5813 84.9527 20.5217 84.5595 19.8459C84.2691 19.3916 84.1504 18.3311 83.6265 18.1154C81.9585 17.8011 82.6919 24.364 82.5995 25.3436C82.5896 25.9847 84.4834 27.0058 83.7102 27.6105C83.5466 27.7383 82.3556 27.8243 81.8814 27.7443C81.0245 27.5997 77.8455 28.0431 77.2669 27.5067C76.8523 27.1225 78.1123 25.7858 78.1763 25.3699C78.2797 24.6895 78.1998 23.9406 78.2179 23.2753C76.5281 25.3065 75.5415 27.2912 72.8241 28H71.3874C67.8995 27.1078 67.9547 24.937 67.9563 21.9294L67.9569 17.6719Z" fill="#A7A7A7"/>
<path d="M56.4681 28C51.1634 26.6549 52.7806 22.6946 52.4288 18.7094C52.3805 18.1634 51.428 17.474 51.4405 16.9095C51.4419 16.8503 51.4505 16.7915 51.4661 16.7341C51.5051 16.5928 51.5895 16.483 51.7212 16.4097C51.9875 16.2614 55.3799 15.8679 55.8874 15.8396C56.1482 15.8251 56.437 15.8273 56.6896 15.8945C56.8045 15.925 56.892 15.9601 56.9532 16.0646C57.1791 16.4508 57.0599 17.232 57.0533 17.6732C57.0287 19.2327 56.7744 24.0189 57.1736 25.2682C57.3223 25.7337 57.6084 26.1711 58.1175 26.3155C58.4691 26.4153 58.8881 26.3665 59.208 26.1954C59.6668 25.9499 59.9195 25.4527 60.0562 24.9823C60.3936 23.8208 60.1989 22.2349 60.2049 21.019C60.2088 20.332 60.287 19.5811 60.2027 18.9017C60.1743 18.6751 60.095 18.4667 59.9791 18.2681C59.7188 17.8226 59.0866 17.238 59.2424 16.6912C59.2796 16.5616 59.3474 16.4694 59.4699 16.405C59.5968 16.338 59.745 16.3028 59.8866 16.2801C60.3559 16.2051 60.8338 16.219 61.3036 16.1595C62.1212 16.0559 62.953 15.8678 63.7766 15.8166C63.9669 15.8048 64.1659 15.8095 64.3497 15.8642C64.4744 15.9014 64.587 15.9668 64.6461 16.0818C64.8802 16.5349 64.727 23.988 64.7418 25.0201C64.7462 25.349 64.7424 25.807 64.9223 26.0966C65.1624 26.4819 66.0991 26.5455 65.8388 27.2442C65.7666 27.438 65.5703 27.5614 65.3844 27.6417C64.5499 28.002 62.603 28.0403 61.7624 27.7269C61.4086 27.5952 61.0717 27.3396 60.9159 26.9981C60.8502 26.855 60.8087 26.7031 60.7742 26.5506C60.1174 27.5068 59.1828 27.734 58.1027 28H56.4681Z" fill="#A7A7A7"/>
<path d="M93.8492 28.0001C91.9286 27.6448 90.4378 27.075 89.3462 25.451C87.4464 22.6254 87.9861 18.5336 91.0202 16.6557C92.4875 15.7472 94.2429 15.4954 95.9311 15.7828C97.6828 16.0659 99.511 17.4319 99.2129 19.3264C99.1364 19.8144 98.724 20.1523 98.3155 20.4083C96.6886 21.3542 95.0808 22.4775 93.4358 23.3834C94.6936 24.8958 96.4348 25.3174 98.2499 24.1897C98.6721 23.9276 99.0483 23.0585 99.7051 23.4767C99.8391 23.6854 99.8654 23.9487 99.8194 24.1867C99.3535 26.596 97.3585 27.5928 95.124 28.0001H93.8492ZM93.7595 21.4402C94.4573 21.0453 95.4586 19.9797 95.6533 19.2016C95.9618 17.9704 95.0261 17.0322 93.7573 17.1273C91.8919 17.5176 92.1413 19.6121 92.4093 20.9861C92.4683 21.2887 92.5936 21.7079 92.7839 21.9539L92.8829 22.0075C93.1574 21.9161 93.4937 21.6089 93.7595 21.4402Z" fill="#A7A7A7"/>
<path d="M105.958 28C104.836 27.7867 103.925 27.5643 102.958 26.9199C100.857 25.5217 100.017 22.8014 100.5 20.4405C100.835 18.8796 101.799 17.5117 103.178 16.6383C105.305 15.2667 109.385 15.1744 110.906 17.4792C111.68 18.6523 111.593 19.7741 110.271 20.5206C108.7 21.4083 107.161 22.5302 105.568 23.3754C106.763 24.9685 108.693 25.2473 110.382 24.1963C110.788 23.9438 111.214 23.0152 111.85 23.5015C112.032 23.8209 111.961 24.305 111.85 24.6429C111.137 26.7993 109.327 27.6233 107.234 28H105.958ZM105.85 21.4624C106.55 21.1013 107.519 20.0402 107.757 19.284C107.898 18.8316 107.846 18.3435 107.614 17.9278C107.282 17.3425 106.566 17.0637 105.897 17.1257C103.983 17.5156 104.285 19.7856 104.595 21.1509C104.66 21.4351 104.728 21.752 104.933 21.9732C105.218 22.039 105.59 21.6128 105.85 21.4624Z" fill="#A7A7A7"/>
</svg>
