<svg width="76" height="32" viewBox="0 0 76 32" fill="none" xmlns="http://www.w3.org/2000/svg">
<g clip-path="url(#clip0_119_296)">
<path d="M42.1885 9.45807C43.0142 8.69141 43.8154 8.11255 44.9406 7.83535C47.1048 7.30197 48.8304 8.34616 49.2341 10.619C49.7633 13.5965 48.3788 17.0724 46.9898 19.6654C46.6851 20.2335 46.1589 20.8626 45.7904 21.4181C46.5519 21.0802 46.6684 20.9023 47.274 20.4242C49.1581 18.9371 49.2534 17.5331 50.0338 15.502L51.7813 11.0458C52.001 10.5004 52.217 9.89935 52.5217 9.39585C53.4056 7.93432 55.8767 8.20614 56.7955 9.46594C57.4401 8.66509 58.6529 8.019 59.6667 7.80591C61.9174 7.33286 63.5127 8.54273 63.8408 10.8744C64.2545 13.8151 62.8607 17.2638 61.4635 19.8187C61.1993 20.3014 60.6545 20.9813 60.3194 21.447C61.3823 20.9218 63.2663 19.4028 63.6983 18.2958C64.508 16.22 65.0665 13.8945 66.0781 11.8644C66.5156 10.9857 66.8663 9.93533 67.5116 9.16959C67.7035 8.94566 67.9428 8.76744 68.2122 8.6479C69.2999 8.15565 71.0763 8.39535 71.6623 9.56703C71.7287 9.70063 71.7848 10.0082 71.7462 10.155C71.4504 11.2766 70.8745 12.3089 70.4243 13.3729C70.0532 14.3028 69.6966 15.2415 69.3226 16.1722C69.0884 16.7701 68.2108 19.6434 68.7262 20.0478C69.2758 20.2577 70.5271 18.6827 70.9516 18.2478C71.4363 17.6931 71.8363 16.913 72.3919 16.4473C72.7095 16.2929 73.1478 16.3531 73.4124 16.4975C74.3839 17.0271 73.1407 18.3441 72.662 19.0375C71.1877 21.1747 68.8839 24.0073 66.2748 24.6771C64.6223 25.1013 63.3609 23.9184 63.2934 22.3393C63.2863 22.167 63.2771 21.8403 63.2466 21.6849C63.1899 21.6616 63.165 21.6543 63.1075 21.7017C62.3883 22.2945 61.4739 22.9047 60.6401 23.3342C58.7367 24.3148 56.6887 24.8925 54.5341 24.7414C53.2386 24.6506 52.9837 24.3287 52.1699 23.4119C52.0066 23.7718 51.9424 24.2886 51.8218 24.6849C51.2922 26.4272 50.776 28.1521 50.4098 29.9385C50.2751 30.5971 50.1407 31.4271 49.4334 31.7032C48.5183 32.0604 47.3653 31.496 46.7022 30.8622C45.7767 29.9589 45.9229 29.0997 46.2001 27.9649C46.3322 27.4277 46.4754 26.8933 46.6291 26.3619C46.9812 25.1323 47.2725 23.8973 47.6718 22.6825C47.7004 22.5947 47.7219 22.5389 47.6882 22.4494C47.497 22.3735 46.969 22.8059 46.743 22.944C45.4679 23.7221 43.6247 24.4713 42.1522 24.6522C41.0871 24.7831 39.2732 24.939 38.4019 24.2506C38.1043 24.0156 37.8954 23.6789 37.6271 23.477C37.5061 23.5326 37.4285 23.9766 37.394 24.1081C36.9049 25.9961 36.2833 27.7961 35.8867 29.7163C35.6077 31.0671 35.4256 32.1019 33.6808 31.7338C32.6301 31.5121 31.3458 30.415 31.4108 29.2498C31.4907 28.0037 32.0068 26.7838 32.2846 25.5826C32.5175 24.5761 32.8722 23.5918 33.1015 22.6045C32.7691 22.819 32.5578 23.1029 32.2448 23.346C31.0826 24.2486 29.6177 25.1461 28.1025 24.5542C27.3384 24.2504 27.1042 23.472 26.6584 22.8692C26.5597 22.7357 26.1527 23.2375 26.057 23.3144C24.5558 24.522 22.4219 25.4003 20.6867 24.1064C19.8904 23.5125 19.3258 22.4262 19.1893 21.4522C19.085 20.392 19.1045 19.0973 19.237 18.0245C19.7528 15.5492 20.7052 12.8383 22.2477 10.815C23.5039 9.16725 25.1416 8.00059 27.2124 7.73549C28.9879 7.60352 30.0605 8.15227 30.4638 9.94698C31.1942 8.59556 32.1002 8.18702 33.6608 8.50902C34.3505 8.65135 35.4201 9.3744 35.1922 10.2018C34.809 11.5933 33.991 12.8848 33.5403 14.2664C33.3354 14.8838 32.9917 15.5 32.7867 16.122C32.6013 16.6842 32.4548 17.2451 32.2923 17.8131C32.1401 18.4455 31.8669 19.3659 32.0533 19.9932C32.1603 20.3534 32.9086 19.7813 33.043 19.658C33.577 19.1425 34.3259 18.3941 34.6347 17.7098C35.1094 16.6579 35.4504 15.4341 35.905 14.3593C36.0883 13.973 36.1996 13.3363 36.3931 12.9744C36.945 11.9418 37.3513 10.3589 37.9469 9.40354C38.1028 9.15248 38.3128 8.93943 38.5615 8.78002C39.6195 8.0918 41.5017 8.39246 42.1885 9.45807ZM24.4348 21.5094C26.3567 20.3571 27.8319 16.1914 28.3973 14.1123C28.5697 13.4782 29.0934 10.8666 28.4013 10.5467C26.4616 11.4627 24.2841 17.2578 24.1146 19.4523C24.0903 19.7666 24.0197 21.3038 24.255 21.4831C24.327 21.5011 24.3601 21.5138 24.4348 21.5094ZM54.245 21.727C54.5118 21.5211 55.018 21.1631 55.2206 20.9096C57.1848 18.4529 58.5237 15.404 59.1108 12.32C59.1594 12.0652 59.2852 10.7518 58.8458 10.7593C56.5673 11.9269 53.5114 18.7887 54.0476 21.5737C54.0617 21.6481 54.1723 21.7118 54.245 21.727ZM39.6892 21.71C40.5632 21.0444 40.6337 20.9754 41.2786 20.0761C42.0119 19.0538 42.5133 18.0288 43.0974 16.9182C43.4184 16.3082 45.4249 10.8612 44.2622 10.7515C42.0976 11.8882 38.884 18.7945 39.4836 21.5826C39.4918 21.6213 39.5657 21.6803 39.5994 21.7023L39.6892 21.71Z" fill="#A7A7A7"/>
<path d="M13.1224 1.241C13.1896 1.22619 13.695 1.25268 13.7857 1.25967C15.2521 1.37271 16.8926 1.65841 18.2335 2.28491C19.589 2.91091 21.2602 4.16053 21.7145 5.65443C23.012 9.92098 19.5219 13.4455 15.9006 15.016C15.1503 15.3414 14.3921 15.6052 13.6581 15.859C13.7424 16.3521 13.7524 17.017 13.805 17.5485C14.2775 22.3202 17.091 27.903 22.8176 25.8221C23.7624 25.4788 24.3858 24.6648 25.2551 25.5876C25.2978 25.8248 25.3621 26.2952 25.1691 26.4801C22.615 28.9264 18.7679 30.8418 15.1879 29.5845C12.0548 28.4842 10.2941 25.0364 9.60193 21.9788C9.42477 21.1961 9.35649 20.3433 9.22056 19.5461L9.16638 19.5277C8.80964 19.7107 8.11054 23.7934 7.84202 24.3329C7.20092 25.6207 4.76075 24.9902 4.03497 24.0833C3.94839 23.9751 3.804 23.8916 3.72143 23.7863C3.23365 23.1642 3.31817 22.3299 3.38397 21.5996C3.56413 20.1991 3.96977 18.8779 4.36153 17.5273C4.51783 16.9883 4.65607 16.4444 4.82937 15.9105C5.07692 15.1481 5.36612 14.4017 5.6277 13.6444C6.30309 11.689 7.02068 9.75582 7.88187 7.87379C8.09202 7.41451 8.25137 6.88699 8.51956 6.46353C8.82048 5.98836 9.15075 5.78329 9.6966 5.66275C10.4897 5.48757 12.561 5.46002 13.2318 5.89852C13.4617 6.04883 13.642 6.33531 13.6315 6.61629C13.6119 7.14006 12.644 9.16192 12.3832 9.77312C12.1282 10.371 11.94 10.9876 11.7056 11.5927C11.4429 12.2709 11.1337 12.9435 10.9028 13.6327C10.8708 13.7282 10.8266 13.8373 10.8489 13.9383C11.1936 14.0061 13.038 12.6811 13.4173 12.3778C13.7175 12.14 14.0006 11.8814 14.2645 11.6039C15.5355 10.2481 16.3977 8.59186 16.3337 6.69043C16.3073 5.90802 16.0519 4.96324 15.4447 4.43773C14.6956 3.78956 13.4551 3.6082 12.4951 3.64565C8.92257 3.79539 6.09272 6.74826 4.95075 9.9597C4.7864 10.4219 4.6659 11.9616 4.4284 12.1856C3.62269 12.9458 2.37574 12.4609 1.69201 11.7559C1.09762 11.143 0.901555 10.5974 0.907214 9.72675C0.865871 7.81521 2.25092 6.04423 3.53709 4.76348C4.38688 3.9382 5.23779 3.39391 6.28023 2.831C8.52821 1.61713 10.5863 1.25669 13.1224 1.241Z" fill="#A7A7A7"/>
<path d="M71.9105 0.533537C73.5652 0.23764 75.1446 1.34584 75.43 3.0031C75.7154 4.66037 74.5976 6.23323 72.9392 6.50813C71.2953 6.78057 69.7404 5.67453 69.4576 4.03206C69.1748 2.38956 70.2703 0.826798 71.9105 0.533537Z" fill="#A7A7A7"/>
</g>
<defs>
<clipPath id="clip0_119_296">
<rect width="76" height="32" fill="white"/>
</clipPath>
</defs>
</svg>
