<svg width="67" height="32" viewBox="0 0 67 32" fill="none" xmlns="http://www.w3.org/2000/svg">
<path d="M33.7287 11.8513C33.7441 11.8498 33.7591 11.8481 33.7745 11.8465C36.7591 11.7031 39.2768 14.7597 37.3813 17.4378C36.5922 18.5524 35.3562 18.9857 34.0791 19.0832C32.0054 19.1464 29.8345 17.9124 29.696 15.7083C29.5498 13.3828 31.5775 11.9415 33.7287 11.8513ZM34.0974 17.4502C34.7962 17.3335 35.371 17.1124 35.8012 16.5109C36.0796 16.1228 36.1928 15.6411 36.1159 15.1705C35.9167 14.0152 34.6931 13.3811 33.5851 13.5051C32.4893 13.6625 31.3998 14.4638 31.5728 15.7076C31.734 16.8666 32.9573 17.5705 34.0974 17.4502Z" fill="#A7A7A7"/>
<path d="M22.4293 12.142C22.8967 12.1167 23.3954 12.1316 23.8778 12.1452C25.2281 12.1831 26.9918 11.802 27.9383 13.0238C28.3575 13.5649 28.4859 14.1628 28.2441 14.8038C28.1721 15.0513 28.0966 15.281 28.275 15.5034C29.0191 16.4312 28.7928 17.652 27.8733 18.3564C27.5338 18.5832 27.122 18.7934 26.711 18.8372C25.9331 18.8883 25.5847 18.9072 24.743 18.9014C24.2644 18.8982 22.4778 19.0581 22.0043 18.8518C21.8693 18.7929 21.9039 17.9467 21.902 17.6735C21.9024 16.9132 21.9078 16.1529 21.918 15.3926C21.9248 14.4602 21.8979 13.5256 21.9203 12.5931C21.9302 12.1791 22.0814 12.1695 22.4293 12.142ZM25.3459 17.2495C25.6076 17.2445 26.5767 17.2731 26.7025 17.037C27.1702 16.1589 25.75 16.3274 25.3089 16.3408C24.8677 16.3529 23.3266 16.1451 23.9108 17.1339C24.0346 17.3435 25.0955 17.2587 25.3459 17.2495ZM25.7526 14.6738C25.9872 14.6572 26.1915 14.6556 26.3544 14.4639C26.5601 14.2219 26.3938 13.9972 26.1967 13.8456L26.1791 13.8322C25.8148 13.7799 24.8908 13.7646 24.516 13.8036C24.1163 13.8138 23.7905 13.7588 23.7956 14.3185C23.7973 14.5027 23.9883 14.6609 24.1675 14.6769C24.6834 14.723 25.2309 14.6867 25.7526 14.6738Z" fill="#A7A7A7"/>
<path d="M39.8742 12.1428C40.3505 12.0635 43.6426 12.1195 44.1025 12.2258C44.6558 12.3536 45.1736 12.7475 45.4694 13.2262C45.6745 13.5591 45.7831 13.933 45.7743 14.3239C45.7704 14.499 45.7612 14.7038 45.7069 14.8709C45.6254 15.1209 45.4589 15.3717 45.2875 15.5698C45.1327 15.7485 44.5072 16.2004 44.5514 16.4345C44.6466 16.9392 45.7919 18.4712 45.6804 18.8805C45.6719 18.9115 45.6336 18.9357 45.6058 18.9487C45.3179 19.0836 44.2069 18.998 43.8987 18.9124C43.5827 18.754 43.2107 17.7979 42.9971 17.4495C42.8097 17.1447 42.6821 16.7866 42.4577 16.4767C42.1105 16.3419 41.365 16.1193 41.2387 16.6979C41.1337 17.1782 41.3578 18.409 41.1278 18.7697C41.0136 18.9491 39.6671 18.9027 39.4727 18.7672C39.3177 18.6591 39.335 18.2103 39.3357 18.0713C39.3416 16.2829 39.319 14.4957 39.3455 12.7078C39.353 12.2293 39.4263 12.1801 39.8742 12.1428ZM43.5183 14.6838C43.7525 14.5897 43.778 14.523 43.8801 14.2837L43.8892 14.2622C43.8048 14.0798 43.7433 13.9181 43.5271 13.8594C43.0854 13.7396 42.0078 13.7679 41.5485 13.8021C40.9207 13.9453 41.1733 14.9 42.1295 14.6978C42.2136 14.6801 43.336 14.6936 43.5183 14.6838Z" fill="#A7A7A7"/>
<path d="M9.62914 11.8252C10.5235 11.7065 11.5135 12.017 12.182 12.6201C12.3661 12.7862 12.9835 13.6033 12.6455 13.7939C12.2866 13.9963 11.4843 14.0969 11.0637 14.0781C10.6991 13.8685 10.5872 13.691 10.1113 13.6184C9.80707 13.5719 9.05152 13.8884 9.11895 14.1944C9.26754 14.8687 10.7336 14.7657 11.2814 14.9931C11.7257 15.1775 12.0853 15.274 12.4337 15.6333C13.3662 16.5821 13.2986 17.9896 12.3767 18.8986C11.6932 19.5846 10.7612 19.9692 9.78993 19.9661C9.14103 19.998 8.57837 19.828 8.03841 19.4836C7.48013 19.1275 6.83987 18.2464 7.01097 17.5755C7.07162 17.3377 8.49838 17.3117 8.70615 17.4459L8.72101 17.4557C8.93872 17.5971 9.04011 17.8091 9.20875 17.9391C9.6944 18.3135 10.6522 18.1644 11.0211 17.6847C11.1103 17.5686 11.2099 17.3715 11.1752 17.2377C10.9852 16.5417 9.70592 16.6127 9.11162 16.4529C8.18926 16.2346 7.30295 15.5804 7.20615 14.5689C7.06164 13.0594 8.17415 11.9736 9.62914 11.8252Z" fill="#A7A7A7"/>
<path d="M47.6446 12.145C47.6574 12.1444 47.6701 12.1438 47.6829 12.1435C48.3771 12.1197 49.0386 12.1706 49.8198 12.1624C50.2026 12.1584 52.0987 12.0832 52.4517 12.2773C52.5944 12.3557 52.6123 13.6717 52.4174 13.858C51.9548 14.0379 49.8211 13.7662 49.2296 13.8821C48.7798 13.9703 48.7899 14.6317 49.0837 14.739C49.6301 14.9386 51.6574 14.6582 52.0385 15.005C52.1579 15.2694 52.244 16.4436 51.9489 16.5445C51.4503 16.7149 49.3818 16.3862 48.9974 16.6057C48.9031 16.7786 48.8014 17.1687 48.9843 17.3044C49.4246 17.631 50.2045 17.4414 50.7417 17.5116C51.2442 17.5773 52.0254 17.432 52.4583 17.7093C52.5839 17.8258 52.5558 18.5373 52.5479 18.738C52.5407 18.926 52.5669 19.1318 52.4265 19.2624C51.9767 19.4069 49.9104 19.168 49.333 19.1705C48.8164 19.1727 47.5147 19.1374 47.0809 18.982C46.9412 18.5738 47.0207 18.1517 47.0152 17.7164C46.9932 16.0323 46.9874 14.3362 47.0099 12.6532C47.0165 12.1509 47.2036 12.1653 47.6446 12.145Z" fill="#A7A7A7"/>
<path d="M56.2329 11.8253L56.2568 11.822C57.0756 11.7106 57.901 11.9788 58.5717 12.4461C58.89 12.668 59.5292 13.4823 59.296 13.8604C59.1769 14.054 58.0636 14.1258 57.7895 14.1479C57.3756 13.9794 57.2425 13.7324 56.7351 13.6358C56.3601 13.5643 55.7759 13.7388 55.77 14.1507C55.7608 14.7978 57.4558 14.8322 57.936 15.0709C58.3993 15.3013 58.7788 15.434 59.1131 15.8618C59.9621 16.9071 59.9702 18.4069 58.874 19.2883C58.0695 19.9352 57.286 20.0279 56.2852 19.9274C55.098 19.775 53.7783 18.7948 53.6092 17.57C53.5921 17.4454 53.5899 17.3342 53.6697 17.2307C53.9042 17.0801 55.2249 17.1364 55.4389 17.4171C55.8622 17.973 56.2142 18.2059 56.9493 18.1335C57.3144 18.0976 57.866 17.7886 57.8075 17.3249C57.5909 16.6615 56.4033 16.564 55.7867 16.3955C54.1159 15.9392 53.159 14.2933 54.3076 12.8005C54.7604 12.212 55.4778 11.9067 56.2329 11.8253Z" fill="#A7A7A7"/>
<path d="M16.5848 12.1738C17.0135 12.1643 17.44 12.1472 17.8691 12.1508C18.2331 12.1538 18.3608 12.2842 18.4985 12.6123C18.8776 13.5152 19.2053 14.4352 19.5698 15.3448C19.8559 16.0568 20.1377 16.7706 20.4149 17.4861C20.5312 17.7829 20.9664 18.6944 20.8277 18.9423C20.6646 19.086 19.7704 19.0547 19.5318 19.0703C18.6109 19.1307 19.0906 18.4088 18.4773 18.1579C18.3888 18.1217 17.9382 18.1432 17.8051 18.1465C17.2975 18.1484 16.7532 18.1628 16.2559 18.2301C15.7964 18.2497 15.787 19.0697 15.4957 19.1663C15.1792 19.2712 13.9044 19.5182 13.7457 19.1515C13.7511 19.0103 13.8152 18.804 13.8633 18.6691C14.4404 17.0502 15.0731 15.4517 15.6761 13.8421C15.8637 13.3411 16.0524 12.8335 16.273 12.3471C16.3246 12.2334 16.4742 12.2045 16.5848 12.1738ZM17.3383 16.4558C17.6175 16.4298 17.86 16.4032 17.8157 16.0407C17.7878 15.8128 17.5325 15.1456 17.3145 15.0699C17.1156 15.2859 16.4919 16.2631 17.0466 16.4266C17.113 16.4461 17.2625 16.4512 17.3383 16.4558Z" fill="#A7A7A7"/>
<path d="M36.7044 21.6089C36.9223 21.6062 37.2308 21.55 37.3427 21.7549C37.3299 21.9656 37.0097 22.2766 36.8719 22.445C36.6426 22.7242 36.4394 23.0233 36.2641 23.3388C35.5574 24.6267 35.7213 26.0466 34.6964 27.2215C33.8242 28.2214 31.7817 28.1996 30.8537 27.3424C30.5158 28.0432 30.4964 28.2508 30.2599 28.9379C30.1531 29.0086 30.1727 29.0192 30.0633 29.0204C29.9124 28.8459 30.0385 28.363 30.1091 28.1559C30.5656 26.8157 31.5029 25.6335 32.5062 24.6486C33.0495 24.1558 33.5991 23.7298 34.2511 23.3888C34.3843 23.3191 34.5364 23.2046 34.4896 23.0386C34.4854 23.0368 34.4815 23.0348 34.4775 23.0333C34.3231 22.9766 33.9443 23.2132 33.8088 23.2926C32.8673 23.8438 32.0568 24.5964 31.3812 25.4465C31.194 25.6821 30.6117 26.6272 30.4474 26.7084C30.0873 26.666 29.9645 25.8309 29.9665 25.5331C29.9896 22.1875 34.1468 21.6702 36.7044 21.6089Z" fill="#A7A7A7"/>
<path d="M40.1408 6.81385C40.9181 6.697 41.644 7.22793 41.7631 8.00055C41.8822 8.7732 41.3496 9.49583 40.5726 9.61577C39.7934 9.73606 39.0638 9.20477 38.9444 8.42995C38.825 7.65512 39.3609 6.93105 40.1408 6.81385ZM40.4856 9.17375C40.9871 9.10468 41.3529 8.66653 41.3283 8.16373C41.3156 7.89743 41.1932 7.64806 40.9901 7.47391C40.7872 7.2998 40.5209 7.21616 40.254 7.24263C39.902 7.27756 39.5961 7.49889 39.4544 7.82143C39.3128 8.14396 39.3576 8.51736 39.5716 8.79782C39.7852 9.07827 40.1349 9.22204 40.4856 9.17375Z" fill="#A7A7A7"/>
<path d="M36.2055 6.76819C36.743 6.84933 37.5399 6.65541 37.959 6.9943C38.5512 7.53238 38.4484 8.0345 37.9355 8.5585C37.5295 8.97329 38.3182 9.03362 38.3673 9.4225C38.2737 9.64455 38.1053 9.57616 37.9214 9.5225C37.4359 9.29394 37.5494 9.04526 37.3096 8.82042C37.2239 8.73895 37.1084 8.69596 36.99 8.70152C36.2948 8.72978 36.7496 9.19485 36.4901 9.57085C36.4247 9.66601 36.2359 9.5892 36.1695 9.52146C36.1247 9.2824 36.1384 6.90803 36.2055 6.76819ZM36.6125 7.2423L36.5762 8.28276C36.7944 8.29447 37.2223 8.32777 37.4222 8.31629C38.1998 8.05964 37.9862 7.15313 37.0757 7.23411C36.9128 7.24221 36.7764 7.24975 36.6125 7.2423Z" fill="#A7A7A7"/>
<path d="M31.4163 6.80549C31.8761 6.76715 32.3474 6.85476 32.6127 7.27804C32.675 7.37743 32.7453 7.50907 32.7184 7.62393C32.4245 7.85238 32.0742 7.21912 31.6512 7.24321C31.4002 7.25752 31.0211 7.3878 31.0097 7.69086C31.1655 8.01307 32.0016 7.95264 32.3531 8.16796C33.0433 8.59073 32.7204 9.38549 31.9865 9.57746C31.9457 9.58689 31.9048 9.59573 31.8637 9.60399C31.3481 9.7065 30.2929 9.23743 30.684 8.74055C30.8523 8.70471 31.1545 8.96578 31.3133 9.08373C31.664 9.34429 32.4105 9.10982 32.252 8.62048C31.9595 8.33941 30.8313 8.52191 30.6463 7.94897C30.4312 7.28276 30.8854 6.99694 31.4163 6.80549Z" fill="#A7A7A7"/>
<path d="M43.1944 6.80503C43.6698 6.77485 44.0594 6.88506 44.4 7.24536C44.5063 7.35771 44.5266 7.58246 44.396 7.68542C44.1307 7.71381 43.8366 7.27303 43.48 7.24571C43.2042 7.22461 42.8316 7.35553 42.7959 7.66932C42.9405 8.03612 43.8 7.94903 44.1608 8.19414C44.8665 8.67345 44.4071 9.42119 43.6999 9.59319C42.7318 9.81277 42.072 8.85062 42.5152 8.73508C42.8385 8.79713 43.1682 9.29342 43.5284 9.20737C43.7718 9.14926 44.1127 8.92724 44.0453 8.63388C43.959 8.53332 43.8474 8.51651 43.7214 8.49553C43.2409 8.41547 42.8964 8.36818 42.4744 8.11404L42.4668 8.09573C42.1724 7.36955 42.5431 7.03488 43.1944 6.80503Z" fill="#A7A7A7"/>
<path d="M24.1455 6.85645C24.2695 6.86168 24.3907 6.85697 24.5006 6.91388C24.5131 6.93114 24.5281 6.95209 24.5457 6.97664C24.5747 7.76051 24.4905 8.82292 24.556 9.57999C23.9812 9.09111 23.2671 8.38952 22.7033 7.86688C22.6495 8.31888 22.724 9.03755 22.6754 9.56393C22.5168 9.56981 22.3858 9.59586 22.2669 9.50341C22.2362 9.2463 22.2528 8.81521 22.2548 8.54604L22.2645 6.89518C22.4698 7.0261 22.6693 7.23967 22.852 7.40568C23.2611 7.77749 23.6456 8.17352 24.0796 8.51745C24.0944 8.20262 24.0358 7.06981 24.1455 6.85645Z" fill="#A7A7A7"/>
<path d="M28.3365 6.85803C28.7665 6.89315 29.5254 6.86606 29.9818 6.86109C29.9901 6.99231 29.9718 7.18649 29.9633 7.32229C29.5624 7.31524 29.1615 7.31498 28.7606 7.32145C28.7492 7.54499 28.7567 7.77055 28.7608 7.99445C29.062 8.00896 29.3515 7.99137 29.6501 7.99985C29.8365 8.00515 29.8769 8.22262 29.8391 8.36899C29.5814 8.59091 28.8738 8.26792 28.7494 8.54499C28.7505 8.73872 28.7547 8.93241 28.762 9.12597C29.1127 9.11042 29.5715 9.13413 29.9438 9.12912L29.9763 9.5567C29.5293 9.59143 28.7986 9.57878 28.3356 9.58584C28.2535 9.03042 28.3221 7.43862 28.3365 6.85803Z" fill="#A7A7A7"/>
<path d="M25.6946 6.8872C25.6831 7.43897 25.6112 8.31884 25.8167 8.83949C25.8747 8.98645 26.1318 9.13949 26.2912 9.1658C27.7223 9.40213 26.8686 7.09952 27.3487 6.82886C27.4604 6.83019 27.4925 6.85946 27.5872 6.91796C27.6418 7.01936 27.6219 7.29331 27.6208 7.42271C27.6285 7.77185 27.6714 8.53078 27.5591 8.80752C26.9366 10.3416 24.9256 9.55887 25.2684 7.9537C25.3307 7.66183 25.1813 7.19559 25.2906 6.86216L25.6946 6.8872Z" fill="#A7A7A7"/>
<path d="M39.9913 25.0149C40.8438 24.942 41.2089 25.7679 40.873 26.4599C40.7297 26.7546 40.5432 26.835 40.2537 26.9256C39.1351 26.991 38.8221 25.3733 39.9913 25.0149ZM40.1653 26.6363C40.9809 26.2889 40.783 25.3182 40.0819 25.3032C39.69 25.4512 39.4587 25.8319 39.6174 26.2365C39.6821 26.3973 39.8097 26.5252 39.971 26.591C40.0423 26.6206 40.0878 26.6313 40.1653 26.6363Z" fill="#A7A7A7"/>
<path d="M43.1241 25.0179C43.5513 25.005 43.8968 25.2027 44.0326 25.6205C44.1202 25.8944 44.0963 26.1917 43.9661 26.4483C43.8094 26.7495 43.637 26.8299 43.3393 26.9248C43.1182 26.9318 43.024 26.9201 42.8277 26.807C42.6108 26.6799 42.4547 26.4714 42.3945 26.2285C42.2476 25.6563 42.5519 25.1615 43.1241 25.0179ZM42.6294 26.0018C42.7508 26.3768 42.8502 26.5909 43.2817 26.644C44.0424 26.3301 43.9429 25.3138 43.1623 25.3075C42.7753 25.4458 42.7374 25.6222 42.6294 26.0018Z" fill="#A7A7A7"/>
<path d="M33.2422 6.85955C33.5494 6.85828 35.2941 6.80706 35.4446 6.92872C35.4923 7.03769 35.5228 7.18075 35.4403 7.27412C35.2499 7.34059 34.8007 7.32199 34.5868 7.32192C34.5495 7.59018 34.5776 8.35532 34.5783 8.67483C34.5855 8.99828 34.5688 9.25441 34.5472 9.57496C34.4291 9.58517 34.2554 9.57792 34.1327 9.57649C34.1124 8.85721 34.1393 8.07018 34.1275 7.3294C33.8703 7.30612 33.4869 7.315 33.2203 7.3133C33.2174 7.17665 33.2334 6.99896 33.2422 6.85955Z" fill="#A7A7A7"/>
<path d="M24.6411 25.078C24.979 25.0497 25.7103 25.1267 25.5822 25.6155C25.4121 25.7524 25.0931 25.3443 24.8426 25.3542C24.6529 25.3618 24.4887 25.4638 24.4759 25.663C24.6292 25.9349 25.8877 25.7973 25.5669 26.5767C25.4805 26.7867 25.3701 26.8331 25.1688 26.9225C24.827 27.0316 24.0766 26.9046 24.1989 26.4161C24.3379 26.2971 24.7189 26.6912 24.9444 26.6678C25.1208 26.6495 25.2931 26.5624 25.3027 26.3676C25.1403 26.1018 23.8753 26.2308 24.1996 25.4418C24.283 25.2388 24.4482 25.1562 24.6411 25.078Z" fill="#A7A7A7"/>
<path d="M23.5407 25.0907C23.6536 25.0899 23.6084 25.0803 23.7155 25.1419C23.7704 25.2495 23.7641 25.2046 23.7505 25.314C23.6029 25.456 23.1628 25.396 22.9004 25.4031L22.8909 25.8558C23.1096 25.8596 23.4757 25.8299 23.6287 25.9326C23.6668 26.0481 23.6765 26.0237 23.6542 26.1311C23.5235 26.2141 23.2013 26.0837 23.0354 26.1738C22.8878 26.254 22.8429 26.4432 22.914 26.5865C23 26.6458 23.1557 26.6287 23.2673 26.6276C23.4333 26.6271 23.6137 26.5943 23.7268 26.7205C23.7448 26.8234 23.7536 26.7851 23.6988 26.8655C23.4779 26.9842 22.8757 26.9347 22.6003 26.9284C22.6026 26.3219 22.6081 25.7154 22.6168 25.1089C22.9246 25.0969 23.2326 25.0909 23.5407 25.0907Z" fill="#A7A7A7"/>
<path d="M38.1187 25.013C38.9735 24.9786 38.9729 25.633 38.5826 26.2096C38.4903 26.3459 38.3912 26.4809 38.294 26.6144C38.4753 26.5947 38.7769 26.5178 38.8505 26.7163C38.8427 26.7432 38.826 26.817 38.8109 26.8289C38.668 26.9433 38.0634 26.8864 37.8759 26.8803C37.8599 26.8845 37.8148 26.883 37.7954 26.883C37.7052 26.6157 38.8426 25.7554 38.435 25.3429C38.1638 25.2584 37.9711 25.5571 37.7634 25.5594L37.7349 25.5158C37.7611 25.2191 37.8635 25.1438 38.1187 25.013Z" fill="#A7A7A7"/>
<path d="M25.9775 25.0675C26.3231 25.1247 27.2953 24.9849 27.4975 25.21C27.5057 25.3037 27.5149 25.2655 27.4482 25.3546C27.3118 25.4125 27.025 25.3967 26.862 25.3966C26.8525 25.6962 26.8637 26.0462 26.8658 26.3496C26.8698 26.5293 26.9059 26.8164 26.7875 26.9457C26.6772 26.9561 26.7193 26.9682 26.6302 26.8991C26.5085 26.6561 26.5603 25.7532 26.5587 25.416C26.3231 25.3865 26.1058 25.4664 25.9522 25.3177C25.9224 25.2178 25.9478 25.1656 25.9775 25.0675Z" fill="#A7A7A7"/>
<path d="M41.5783 25.0347C41.7045 25.0389 41.7471 25.036 41.8292 25.1094C41.8733 25.4068 41.8737 26.4807 41.8089 26.8342C41.7958 26.9052 41.7199 26.9236 41.6568 26.9502C41.4438 26.6115 41.6352 26.067 41.5776 25.673C41.5593 25.5469 41.4526 25.5901 41.3954 25.4307C41.45 25.2917 41.5125 25.1681 41.5783 25.0347Z" fill="#A7A7A7"/>
<path d="M46.2598 8.0295C46.5876 8.04498 47.3691 7.92853 47.5726 8.14469C47.6011 8.24661 47.5818 8.28124 47.5484 8.3788L47.2376 8.39276C47.0328 8.40089 46.3648 8.45152 46.2428 8.33952C46.2061 8.22267 46.2333 8.14941 46.2598 8.0295Z" fill="#A7A7A7"/>
<path d="M19.154 8.03891C19.4665 8.03898 20.2892 7.92672 20.4721 8.15687C20.4895 8.26301 20.4755 8.28545 20.4359 8.38106C20.1288 8.39134 19.2952 8.49983 19.1063 8.28054C19.0862 8.17511 19.1124 8.13537 19.154 8.03891Z" fill="#A7A7A7"/>
<path d="M28.0075 26.6223C28.0636 26.5864 28.1351 26.5845 28.1931 26.6173C28.2511 26.6502 28.2858 26.7123 28.2834 26.7785C28.2809 26.8448 28.2415 26.9042 28.1813 26.9327C28.096 26.9729 27.994 26.9404 27.9481 26.8584C27.9022 26.7765 27.9282 26.6732 28.0075 26.6223Z" fill="#A7A7A7"/>
</svg>
