<svg width="40" height="40" viewBox="0 0 40 40" fill="none" xmlns="http://www.w3.org/2000/svg">
<mask id="mask0_298_6237" style="mask-type:alpha" maskUnits="userSpaceOnUse" x="0" y="0" width="40" height="40">
<rect width="40" height="40" fill="#D9D9D9"/>
</mask>
<g mask="url(#mask0_298_6237)">
<path d="M4.31266 22.354C3.65989 21.7012 3.3335 20.9165 3.3335 19.9998C3.3335 19.0832 3.65989 18.2984 4.31266 17.6457C4.96544 16.9929 5.75016 16.6665 6.66683 16.6665C7.5835 16.6665 8.36822 16.9929 9.021 17.6457C9.67377 18.2984 10.0002 19.0832 10.0002 19.9998C10.0002 20.9165 9.67377 21.7012 9.021 22.354C8.36822 23.0068 7.5835 23.3332 6.66683 23.3332C5.75016 23.3332 4.96544 23.0068 4.31266 22.354ZM7.43766 20.7707C7.646 20.5623 7.75016 20.3054 7.75016 19.9998C7.75016 19.6943 7.646 19.4373 7.43766 19.229C7.22933 19.0207 6.97238 18.9165 6.66683 18.9165C6.36127 18.9165 6.10433 19.0207 5.896 19.229C5.68766 19.4373 5.5835 19.6943 5.5835 19.9998C5.5835 20.3054 5.68766 20.5623 5.896 20.7707C6.10433 20.979 6.36127 21.0832 6.66683 21.0832C6.97238 21.0832 7.22933 20.979 7.43766 20.7707ZM13.2293 22.354C12.5766 21.7012 12.2502 20.9165 12.2502 19.9998C12.2502 19.0832 12.5766 18.2984 13.2293 17.6457C13.8821 16.9929 14.6668 16.6665 15.5835 16.6665C16.5002 16.6665 17.2849 16.9929 17.9377 17.6457C18.5904 18.2984 18.9168 19.0832 18.9168 19.9998C18.9168 20.9165 18.5904 21.7012 17.9377 22.354C17.2849 23.0068 16.5002 23.3332 15.5835 23.3332C14.6668 23.3332 13.8821 23.0068 13.2293 22.354ZM16.3543 20.7707C16.5627 20.5623 16.6668 20.3054 16.6668 19.9998C16.6668 19.6943 16.5627 19.4373 16.3543 19.229C16.146 19.0207 15.8891 18.9165 15.5835 18.9165C15.2779 18.9165 15.021 19.0207 14.8127 19.229C14.6043 19.4373 14.5002 19.6943 14.5002 19.9998C14.5002 20.3054 14.6043 20.5623 14.8127 20.7707C15.021 20.979 15.2779 21.0832 15.5835 21.0832C15.8891 21.0832 16.146 20.979 16.3543 20.7707ZM22.0627 22.354C21.4099 21.7012 21.0835 20.9165 21.0835 19.9998C21.0835 19.0832 21.4099 18.2984 22.0627 17.6457C22.7154 16.9929 23.5002 16.6665 24.4168 16.6665C25.3335 16.6665 26.1182 16.9929 26.771 17.6457C27.4238 18.2984 27.7502 19.0832 27.7502 19.9998C27.7502 20.9165 27.4238 21.7012 26.771 22.354C26.1182 23.0068 25.3335 23.3332 24.4168 23.3332C23.5002 23.3332 22.7154 23.0068 22.0627 22.354ZM25.1877 20.7707C25.396 20.5623 25.5002 20.3054 25.5002 19.9998C25.5002 19.6943 25.396 19.4373 25.1877 19.229C24.9793 19.0207 24.7224 18.9165 24.4168 18.9165C24.1113 18.9165 23.8543 19.0207 23.646 19.229C23.4377 19.4373 23.3335 19.6943 23.3335 19.9998C23.3335 20.3054 23.4377 20.5623 23.646 20.7707C23.8543 20.979 24.1113 21.0832 24.4168 21.0832C24.7224 21.0832 24.9793 20.979 25.1877 20.7707ZM30.9793 22.354C30.3266 21.7012 30.0002 20.9165 30.0002 19.9998C30.0002 19.0832 30.3266 18.2984 30.9793 17.6457C31.6321 16.9929 32.4168 16.6665 33.3335 16.6665C34.2502 16.6665 35.0349 16.9929 35.6877 17.6457C36.3404 18.2984 36.6668 19.0832 36.6668 19.9998C36.6668 20.9165 36.3404 21.7012 35.6877 22.354C35.0349 23.0068 34.2502 23.3332 33.3335 23.3332C32.4168 23.3332 31.6321 23.0068 30.9793 22.354Z" fill="#FF48A0"/>
</g>
</svg>
