<svg width="34" height="30" viewBox="0 0 34 30" fill="none" xmlns="http://www.w3.org/2000/svg">
<path d="M1.01409 0C2.07406 0.22509 4.28691 1.36339 5.28169 1.88824C6.728 2.65125 8.27618 3.41863 9.68822 4.24772C10.7084 4.84679 11.7697 5.57543 12.7527 6.24864C13.5819 6.81654 14.4679 7.33412 15.2586 7.97026C15.9004 6.19728 16.6485 4.41068 17.2911 2.63136C17.4824 2.10158 17.941 0.835343 18.3719 0.53923L18.4711 0.576121C18.6439 0.910418 18.5937 1.5019 18.5859 1.89804C18.5553 3.25278 18.4401 4.60382 18.2414 5.94187C18.0563 7.12158 17.8437 7.90208 17.7373 9.14005C18.3834 8.46099 18.9475 7.64514 19.6082 6.94249C21.4462 4.98807 23.4139 3.24686 25.6011 1.76242C26.2154 1.34541 27.1155 0.512624 27.7753 0.232814C28.0531 0.393748 27.6904 0.944907 27.5496 1.1277C25.058 4.36148 22.5186 7.41696 20.4117 10.9836C23.434 9.63251 27.9099 8.95966 31.13 8.36959C31.7236 8.26083 33.4342 7.80816 33.9517 7.86495L34 7.93275C33.8188 8.21267 33.1955 8.40753 32.8998 8.54567C28.6249 10.5434 24.1306 12.2223 19.8997 14.3118C20.6114 14.701 21.4215 14.9974 22.1571 15.3666C23.8059 16.1939 25.4276 17.0909 27.1046 17.8482C28.322 18.3978 29.5652 18.8944 30.7512 19.523C30.9164 19.6106 31.2669 19.8445 31.3426 20.0327C31.3773 20.1191 31.3503 20.1367 31.3172 20.2375C31.157 20.3696 31.0495 20.3696 30.85 20.4002C29.7411 20.4083 28.7169 20.2367 27.6202 20.0944C26.4307 19.9401 25.3774 19.8801 24.2103 19.5577C22.4081 19.0598 20.5467 18.3508 18.6957 18.1403C18.6671 20.8286 18.8582 23.5089 18.865 26.1955C18.8666 26.8495 19.1527 29.7185 18.7953 29.9492C18.5341 29.6995 18.1625 28.6239 17.9814 28.244C16.8874 25.9491 16.0651 23.6702 15.4814 21.1642C15.3137 20.4442 15.0046 19.7601 14.8643 19.0009C14.3517 20.0608 14.0365 21.3426 13.4266 22.5082C12.9427 23.433 12.5606 24.2093 12.0196 25.1388C11.4267 26.2073 10.8668 27.3196 10.2238 28.3535C9.96301 28.7729 9.54022 29.855 9.12376 30L9.04442 29.9446C8.86676 28.7065 12.4042 19.2039 12.9659 16.9295C10.4887 18.4145 6.64969 18.8944 3.87005 19.4679C3.33068 19.5791 0.280181 20.3931 0.0117234 20.1619C-0.410154 18.2256 10.6844 12.9035 12.2859 11.6861C11.6887 10.933 11.0757 10.4208 10.4177 9.74959C8.83916 8.13932 7.10385 6.67132 5.55511 5.03537C4.05478 3.45054 2.37851 2.07381 1.02219 0.351209C0.934585 0.23997 0.977017 0.110821 1.01409 0Z" fill="#FF1B89"/>
</svg>
