<svg width="696" height="546" viewBox="0 0 696 546" fill="none" xmlns="http://www.w3.org/2000/svg">
<g filter="url(#filter0_d_293_5868)">
<rect x="522" y="399" width="124" height="56" rx="28" fill="#00654F" shape-rendering="crispEdges"/>
<rect x="522.5" y="399.5" width="123" height="55" rx="27.5" stroke="#FFD1E7" shape-rendering="crispEdges"/>
<path d="M550.724 425.216C550.428 424.688 550.064 424.308 549.632 424.076C549.2 423.844 548.74 423.728 548.252 423.728C547.724 423.728 547.24 423.86 546.8 424.124C546.368 424.38 546.024 424.74 545.768 425.204C545.52 425.66 545.396 426.192 545.396 426.8C545.396 427.408 545.52 427.944 545.768 428.408C546.016 428.864 546.352 429.224 546.776 429.488C547.208 429.744 547.688 429.872 548.216 429.872C548.592 429.872 548.944 429.808 549.272 429.68C549.6 429.552 549.888 429.376 550.136 429.152C550.384 428.92 550.58 428.656 550.724 428.36V427.52H548.312V426.356H552.152V428.444C551.96 428.94 551.672 429.388 551.288 429.788C550.912 430.188 550.46 430.504 549.932 430.736C549.412 430.968 548.836 431.084 548.204 431.084C547.612 431.084 547.056 430.98 546.536 430.772C546.024 430.564 545.572 430.272 545.18 429.896C544.796 429.512 544.492 429.06 544.268 428.54C544.052 428.012 543.944 427.432 543.944 426.8C543.944 426.176 544.052 425.604 544.268 425.084C544.492 424.556 544.796 424.1 545.18 423.716C545.572 423.332 546.024 423.036 546.536 422.828C547.056 422.62 547.612 422.516 548.204 422.516C548.74 422.516 549.256 422.604 549.752 422.78C550.248 422.948 550.692 423.2 551.084 423.536C551.476 423.872 551.776 424.284 551.984 424.772L550.724 425.216ZM554.992 422.6V429.812H558.76V431H553.564V422.6H554.992ZM559.903 422.6H561.319V427.952C561.319 428.376 561.403 428.732 561.571 429.02C561.747 429.308 561.983 429.524 562.279 429.668C562.575 429.804 562.911 429.872 563.287 429.872C563.679 429.872 564.023 429.804 564.319 429.668C564.615 429.524 564.847 429.308 565.015 429.02C565.191 428.732 565.279 428.376 565.279 427.952V422.6H566.695V427.916C566.695 428.452 566.599 428.92 566.407 429.32C566.223 429.712 565.967 430.04 565.639 430.304C565.319 430.568 564.955 430.764 564.547 430.892C564.147 431.02 563.723 431.084 563.275 431.084C562.683 431.084 562.131 430.968 561.619 430.736C561.107 430.504 560.691 430.156 560.371 429.692C560.059 429.22 559.903 428.628 559.903 427.916V422.6ZM567.991 422.6H574.591V423.788H572.011V431H570.583V423.788H567.991V422.6ZM581.635 423.788H577.327V426.152H580.555V427.34H577.327V429.812H581.635V431H575.899V422.6H581.635V423.788ZM589.957 422.6V431H588.505L584.593 424.844V431H583.165V422.6H584.629L588.541 428.732V422.6H589.957ZM595.083 422.6H600.819V423.788H596.511V426.152H599.739V427.34H596.511V431H595.083V422.6ZM606.938 425.132C606.938 424.716 606.814 424.388 606.566 424.148C606.318 423.908 605.934 423.788 605.414 423.788H603.554V426.488H605.414C605.766 426.488 606.05 426.436 606.266 426.332C606.49 426.22 606.658 426.064 606.77 425.864C606.882 425.656 606.938 425.412 606.938 425.132ZM605.414 422.6C606.086 422.6 606.638 422.716 607.07 422.948C607.51 423.172 607.838 423.48 608.054 423.872C608.27 424.256 608.378 424.676 608.378 425.132C608.378 425.436 608.326 425.736 608.222 426.032C608.118 426.328 607.95 426.604 607.718 426.86C607.486 427.108 607.178 427.308 606.794 427.46C606.418 427.604 605.958 427.676 605.414 427.676H603.554V431H602.126V422.6H605.414ZM606.266 427.208L608.558 431H606.95L604.742 427.208H606.266ZM615.62 423.788H611.312V426.152H614.54V427.34H611.312V429.812H615.62V431H609.884V422.6H615.62V423.788ZM622.885 423.788H618.577V426.152H621.805V427.34H618.577V429.812H622.885V431H617.149V422.6H622.885V423.788Z" fill="#FFD1E7"/>
</g>
<g filter="url(#filter1_d_293_5868)">
<rect x="50" y="100" width="114" height="56" rx="28" fill="#00654F" shape-rendering="crispEdges"/>
<rect x="50.5" y="100.5" width="113" height="55" rx="27.5" stroke="#FFD1E7" shape-rendering="crispEdges"/>
<path d="M75.688 126.132C75.688 125.716 75.564 125.388 75.316 125.148C75.068 124.908 74.684 124.788 74.164 124.788H72.304V127.488H74.164C74.516 127.488 74.8 127.436 75.016 127.332C75.24 127.22 75.408 127.064 75.52 126.864C75.632 126.656 75.688 126.412 75.688 126.132ZM74.164 123.6C74.836 123.6 75.388 123.716 75.82 123.948C76.26 124.172 76.588 124.48 76.804 124.872C77.02 125.256 77.128 125.676 77.128 126.132C77.128 126.436 77.076 126.736 76.972 127.032C76.868 127.328 76.7 127.604 76.468 127.86C76.236 128.108 75.928 128.308 75.544 128.46C75.168 128.604 74.708 128.676 74.164 128.676H72.304V132H70.876V123.6H74.164ZM75.016 128.208L77.308 132H75.7L73.492 128.208H75.016ZM84.3698 124.788H80.0618V127.152H83.2898V128.34H80.0618V130.812H84.3698V132H78.6338V123.6H84.3698V124.788ZM91.6354 124.788H87.3274V127.152H90.5554V128.34H87.3274V130.812H91.6354V132H85.8994V123.6H91.6354V124.788ZM94.5931 123.6V130.812H98.3611V132H93.1651V123.6H94.5931ZM100.5 129.696C100.548 129.92 100.64 130.124 100.776 130.308C100.92 130.484 101.108 130.624 101.34 130.728C101.58 130.832 101.864 130.884 102.192 130.884C102.696 130.884 103.072 130.768 103.32 130.536C103.568 130.296 103.692 130.016 103.692 129.696C103.692 129.432 103.612 129.212 103.452 129.036C103.3 128.86 103.084 128.712 102.804 128.592C102.524 128.464 102.204 128.344 101.844 128.232C101.516 128.136 101.2 128.036 100.896 127.932C100.592 127.82 100.316 127.684 100.068 127.524C99.8281 127.356 99.6361 127.144 99.4921 126.888C99.3481 126.624 99.2801 126.296 99.2881 125.904C99.2881 125.392 99.4081 124.96 99.6481 124.608C99.8881 124.248 100.224 123.976 100.656 123.792C101.088 123.608 101.584 123.516 102.144 123.516C102.616 123.516 103.04 123.584 103.416 123.72C103.8 123.848 104.124 124.04 104.388 124.296C104.652 124.544 104.848 124.852 104.976 125.22L103.668 125.652C103.62 125.476 103.524 125.32 103.38 125.184C103.236 125.04 103.056 124.928 102.84 124.848C102.632 124.768 102.404 124.724 102.156 124.716C101.884 124.708 101.64 124.748 101.424 124.836C101.216 124.924 101.048 125.052 100.92 125.22C100.792 125.38 100.728 125.568 100.728 125.784C100.728 126.032 100.8 126.228 100.944 126.372C101.088 126.508 101.276 126.624 101.508 126.72C101.748 126.808 102.012 126.9 102.3 126.996C102.636 127.092 102.968 127.204 103.296 127.332C103.632 127.452 103.936 127.608 104.208 127.8C104.488 127.984 104.712 128.22 104.88 128.508C105.048 128.796 105.132 129.156 105.132 129.588C105.132 130.052 105.024 130.472 104.808 130.848C104.6 131.224 104.28 131.524 103.848 131.748C103.416 131.972 102.88 132.084 102.24 132.084C101.72 132.084 101.244 132.008 100.812 131.856C100.388 131.696 100.032 131.472 99.7441 131.184C99.4641 130.888 99.2801 130.54 99.1921 130.14L100.5 129.696Z" fill="#FFD1E7"/>
<path d="M139.576 128.604V127.506H144V128.604H139.576ZM141.16 138L137.601 135.335L138.278 134.472L141.837 137.138L141.16 138ZM138.221 121.519L137.544 120.657L141.051 118L141.728 118.863L138.221 121.519ZM121.933 136.571V131.132H119.966C119.435 131.132 118.975 130.936 118.585 130.544C118.195 130.151 118 129.688 118 129.154V126.956C118 126.422 118.195 125.959 118.585 125.566C118.975 125.174 119.435 124.978 119.966 124.978H125.592L131.218 121.626V134.484L125.592 131.132H123.025V136.571H121.933ZM130.126 132.539V123.571L125.887 126.077H119.966C119.748 126.077 119.548 126.169 119.366 126.352C119.183 126.535 119.092 126.736 119.092 126.956V129.154C119.092 129.374 119.183 129.575 119.366 129.758C119.548 129.941 119.748 130.033 119.966 130.033H125.887L130.126 132.539ZM133.731 132.181V123.929C134.206 124.372 134.589 124.954 134.88 125.675C135.17 126.395 135.315 127.189 135.315 128.055C135.315 128.921 135.17 129.715 134.88 130.435C134.589 131.156 134.206 131.738 133.731 132.181Z" fill="#FFD1E7"/>
</g>
<g filter="url(#filter2_d_293_5868)">
<rect x="525" y="145" width="94" height="56" rx="28" fill="#FFD1E7" shape-rendering="crispEdges"/>
<rect x="525.5" y="145.5" width="93" height="55" rx="27.5" stroke="#00292D" shape-rendering="crispEdges"/>
<path d="M550.688 171.132C550.688 170.716 550.564 170.388 550.316 170.148C550.068 169.908 549.684 169.788 549.164 169.788H547.304V172.488H549.164C549.516 172.488 549.8 172.436 550.016 172.332C550.24 172.22 550.408 172.064 550.52 171.864C550.632 171.656 550.688 171.412 550.688 171.132ZM549.164 168.6C549.836 168.6 550.388 168.716 550.82 168.948C551.26 169.172 551.588 169.48 551.804 169.872C552.02 170.256 552.128 170.676 552.128 171.132C552.128 171.436 552.076 171.736 551.972 172.032C551.868 172.328 551.7 172.604 551.468 172.86C551.236 173.108 550.928 173.308 550.544 173.46C550.168 173.604 549.708 173.676 549.164 173.676H547.304V177H545.876V168.6H549.164ZM550.016 173.208L552.308 177H550.7L548.492 173.208H550.016ZM559.37 169.788H555.062V172.152H558.29V173.34H555.062V175.812H559.37V177H553.634V168.6H559.37V169.788ZM561.859 174.696C561.907 174.92 561.999 175.124 562.135 175.308C562.279 175.484 562.467 175.624 562.699 175.728C562.939 175.832 563.223 175.884 563.551 175.884C564.055 175.884 564.431 175.768 564.679 175.536C564.927 175.296 565.051 175.016 565.051 174.696C565.051 174.432 564.971 174.212 564.811 174.036C564.659 173.86 564.443 173.712 564.163 173.592C563.883 173.464 563.563 173.344 563.203 173.232C562.875 173.136 562.559 173.036 562.255 172.932C561.951 172.82 561.675 172.684 561.427 172.524C561.187 172.356 560.995 172.144 560.851 171.888C560.707 171.624 560.639 171.296 560.647 170.904C560.647 170.392 560.767 169.96 561.007 169.608C561.247 169.248 561.583 168.976 562.015 168.792C562.447 168.608 562.943 168.516 563.503 168.516C563.975 168.516 564.399 168.584 564.775 168.72C565.159 168.848 565.483 169.04 565.747 169.296C566.011 169.544 566.207 169.852 566.335 170.22L565.027 170.652C564.979 170.476 564.883 170.32 564.739 170.184C564.595 170.04 564.415 169.928 564.199 169.848C563.991 169.768 563.763 169.724 563.515 169.716C563.243 169.708 562.999 169.748 562.783 169.836C562.575 169.924 562.407 170.052 562.279 170.22C562.151 170.38 562.087 170.568 562.087 170.784C562.087 171.032 562.159 171.228 562.303 171.372C562.447 171.508 562.635 171.624 562.867 171.72C563.107 171.808 563.371 171.9 563.659 171.996C563.995 172.092 564.327 172.204 564.655 172.332C564.991 172.452 565.295 172.608 565.567 172.8C565.847 172.984 566.071 173.22 566.239 173.508C566.407 173.796 566.491 174.156 566.491 174.588C566.491 175.052 566.383 175.472 566.167 175.848C565.959 176.224 565.639 176.524 565.207 176.748C564.775 176.972 564.239 177.084 563.599 177.084C563.079 177.084 562.603 177.008 562.171 176.856C561.747 176.696 561.391 176.472 561.103 176.184C560.823 175.888 560.639 175.54 560.551 175.14L561.859 174.696ZM573.632 169.788H569.324V172.152H572.552V173.34H569.324V175.812H573.632V177H567.896V168.6H573.632V169.788ZM576.709 167.916C576.781 167.428 576.941 167.068 577.189 166.836C577.445 166.596 577.745 166.476 578.089 166.476C578.313 166.476 578.497 166.52 578.641 166.608C578.793 166.696 578.933 166.784 579.061 166.872C579.197 166.96 579.345 167.004 579.505 167.004C579.641 167.004 579.753 166.964 579.841 166.884C579.937 166.804 579.997 166.676 580.021 166.5H580.813C580.741 166.98 580.581 167.34 580.333 167.58C580.085 167.82 579.785 167.94 579.433 167.94C579.209 167.94 579.021 167.896 578.869 167.808C578.725 167.712 578.585 167.62 578.449 167.532C578.321 167.436 578.177 167.388 578.017 167.388C577.889 167.388 577.777 167.432 577.681 167.52C577.585 167.608 577.525 167.74 577.501 167.916H576.709ZM581.953 168.6V177H580.501L576.589 170.844V177H575.161V168.6H576.625L580.537 174.732V168.6H581.953ZM587.352 169.788H586.92L584.4 177H582.936L585.912 168.6H588.336L591.324 177H589.86L587.352 169.788ZM584.568 173.772H589.464V174.948H584.568V173.772ZM593.242 174.696C593.29 174.92 593.382 175.124 593.518 175.308C593.662 175.484 593.85 175.624 594.082 175.728C594.322 175.832 594.606 175.884 594.934 175.884C595.438 175.884 595.814 175.768 596.062 175.536C596.31 175.296 596.434 175.016 596.434 174.696C596.434 174.432 596.354 174.212 596.194 174.036C596.042 173.86 595.826 173.712 595.546 173.592C595.266 173.464 594.946 173.344 594.586 173.232C594.258 173.136 593.942 173.036 593.638 172.932C593.334 172.82 593.058 172.684 592.81 172.524C592.57 172.356 592.378 172.144 592.234 171.888C592.09 171.624 592.022 171.296 592.03 170.904C592.03 170.392 592.15 169.96 592.39 169.608C592.63 169.248 592.966 168.976 593.398 168.792C593.83 168.608 594.326 168.516 594.886 168.516C595.358 168.516 595.782 168.584 596.158 168.72C596.542 168.848 596.866 169.04 597.13 169.296C597.394 169.544 597.59 169.852 597.718 170.22L596.41 170.652C596.362 170.476 596.266 170.32 596.122 170.184C595.978 170.04 595.798 169.928 595.582 169.848C595.374 169.768 595.146 169.724 594.898 169.716C594.626 169.708 594.382 169.748 594.166 169.836C593.958 169.924 593.79 170.052 593.662 170.22C593.534 170.38 593.47 170.568 593.47 170.784C593.47 171.032 593.542 171.228 593.686 171.372C593.83 171.508 594.018 171.624 594.25 171.72C594.49 171.808 594.754 171.9 595.042 171.996C595.378 172.092 595.71 172.204 596.038 172.332C596.374 172.452 596.678 172.608 596.95 172.8C597.23 172.984 597.454 173.22 597.622 173.508C597.79 173.796 597.874 174.156 597.874 174.588C597.874 175.052 597.766 175.472 597.55 175.848C597.342 176.224 597.022 176.524 596.59 176.748C596.158 176.972 595.622 177.084 594.982 177.084C594.462 177.084 593.986 177.008 593.554 176.856C593.13 176.696 592.774 176.472 592.486 176.184C592.206 175.888 592.022 175.54 591.934 175.14L593.242 174.696Z" fill="#00292D"/>
</g>
<rect x="506.5" y="329.5" width="55" height="55" rx="27.5" fill="#00292D"/>
<rect x="506.5" y="329.5" width="55" height="55" rx="27.5" stroke="#FFD1E7"/>
<path d="M537.645 355.664C538.001 355.664 538.309 355.535 538.567 355.277C538.826 355.019 538.955 354.707 538.955 354.339C538.955 353.971 538.824 353.66 538.562 353.406C538.299 353.152 537.99 353.025 537.633 353.025C537.277 353.025 536.969 353.154 536.71 353.412C536.452 353.669 536.322 353.982 536.322 354.35C536.322 354.718 536.454 355.029 536.716 355.283C536.979 355.537 537.288 355.664 537.645 355.664ZM529.104 355.664C529.46 355.664 529.768 355.535 530.026 355.277C530.285 355.019 530.415 354.707 530.415 354.339C530.415 353.971 530.283 353.66 530.021 353.406C529.758 353.152 529.449 353.025 529.092 353.025C528.736 353.025 528.428 353.154 528.17 353.412C527.911 353.669 527.781 353.982 527.781 354.35C527.781 354.718 527.913 355.029 528.175 355.283C528.438 355.537 528.747 355.664 529.104 355.664ZM536.683 362.819C537.681 362.175 538.436 361.315 538.946 360.24H527.791C528.306 361.315 529.062 362.175 530.057 362.819C531.053 363.462 532.157 363.784 533.368 363.784C534.58 363.784 535.685 363.462 536.683 362.819ZM533.381 369C531.798 369 530.32 368.701 528.945 368.103C527.571 367.505 526.369 366.689 525.338 365.653C524.307 364.618 523.493 363.414 522.896 362.042C522.299 360.669 522 359.194 522 357.616C522 356.039 522.299 354.556 522.898 353.17C523.497 351.783 524.31 350.577 525.337 349.551C526.364 348.525 527.567 347.713 528.947 347.115C530.327 346.516 531.801 346.217 533.368 346.217C533.602 346.217 533.829 346.225 534.051 346.24C534.272 346.255 534.491 346.279 534.707 346.309C534.667 346.461 534.628 346.62 534.59 346.787C534.551 346.954 534.519 347.114 534.493 347.268C534.3 347.243 534.113 347.223 533.931 347.21C533.749 347.197 533.561 347.191 533.368 347.191C530.488 347.191 528.035 348.201 526.01 350.223C523.984 352.244 522.972 354.7 522.972 357.59C522.972 360.48 523.985 362.942 526.013 364.976C528.041 367.009 530.497 368.026 533.381 368.026C536.265 368.026 538.717 367.012 540.736 364.983C542.755 362.954 543.765 360.496 543.765 357.61C543.765 357.14 543.738 356.695 543.683 356.276C543.628 355.856 543.547 355.434 543.442 355.009C543.596 354.957 543.749 354.902 543.9 354.845C544.051 354.787 544.205 354.723 544.36 354.654C544.48 355.137 544.573 355.62 544.638 356.104C544.704 356.587 544.737 357.088 544.737 357.608C544.737 359.179 544.439 360.658 543.842 362.044C543.245 363.43 542.436 364.636 541.413 365.661C540.39 366.687 539.187 367.5 537.805 368.1C536.422 368.7 534.948 369 533.381 369ZM541.623 352.497L537.882 348.748C537.64 348.507 537.474 348.255 537.383 347.992C537.291 347.73 537.245 347.468 537.245 347.205C537.245 346.631 537.449 346.12 537.856 345.672C538.263 345.224 538.785 345 539.422 345C539.928 345 540.326 345.117 540.615 345.351C540.905 345.584 541.24 345.892 541.623 346.276C541.995 345.902 542.328 345.596 542.621 345.358C542.915 345.119 543.319 345 543.835 345C544.493 345 545.018 345.224 545.411 345.673C545.804 346.122 546 346.633 546 347.207C546 347.476 545.949 347.745 545.847 348.014C545.745 348.283 545.584 348.528 545.364 348.748L541.623 352.497Z" fill="#FFD1E7"/>
<rect x="100.569" y="376.766" width="55" height="55" rx="27.5" transform="rotate(-8.57145 100.569 376.766)" fill="#FFFDF6"/>
<rect x="100.569" y="376.766" width="55" height="55" rx="27.5" transform="rotate(-8.57145 100.569 376.766)" stroke="#00654F"/>
<path d="M129.221 402.055L130.205 401.907L129.483 397.117L128.499 397.266L129.221 402.055ZM124.174 401.468C123.191 401.145 122.342 400.597 121.627 399.823C120.913 399.05 120.476 398.137 120.318 397.086C120.116 395.752 120.402 394.547 121.173 393.472C121.945 392.396 122.986 391.759 124.295 391.562C124.545 391.524 124.798 391.51 125.053 391.519C125.308 391.527 125.564 391.541 125.82 391.56L126.159 391.577L126.29 391.243C126.631 390.397 127.125 389.677 127.774 389.084C128.423 388.491 129.189 388.127 130.071 387.994C130.954 387.861 131.797 387.982 132.6 388.356C133.403 388.731 134.092 389.272 134.667 389.98L134.891 390.261L135.185 390.149C135.415 390.047 135.648 389.957 135.885 389.878C136.121 389.801 136.371 389.742 136.635 389.702C137.921 389.508 139.099 389.81 140.167 390.608C141.236 391.405 141.872 392.48 142.076 393.832C142.234 394.883 142.089 395.879 141.641 396.82C141.193 397.76 140.538 398.529 139.677 399.125L140.643 405.533L125.139 407.87L124.174 401.468ZM134.069 401.325L135.053 401.176L134.331 396.387L133.347 396.535L134.069 401.325ZM125.966 406.674L139.501 404.634L138.594 398.617L139.502 397.962C140.117 397.527 140.577 396.955 140.881 396.246C141.186 395.537 141.28 394.796 141.163 394.022C140.998 392.927 140.468 392.073 139.574 391.46C138.679 390.847 137.701 390.62 136.64 390.78C136.431 390.811 136.229 390.854 136.033 390.909C135.836 390.964 135.655 391.035 135.488 391.122L134.624 391.519L133.9 390.622C133.449 390.054 132.901 389.617 132.256 389.309C131.611 389.002 130.934 388.902 130.227 389.008C129.52 389.115 128.906 389.41 128.387 389.892C127.867 390.375 127.476 390.955 127.212 391.631L126.784 392.701L125.81 392.581C125.619 392.542 125.424 392.527 125.227 392.534C125.03 392.541 124.824 392.561 124.609 392.593C123.547 392.753 122.685 393.262 122.024 394.119C121.362 394.976 121.111 395.941 121.273 397.015C121.391 397.797 121.699 398.482 122.196 399.069C122.694 399.656 123.304 400.076 124.028 400.328L125.059 400.657L125.966 406.674ZM125.139 407.87L126.124 407.721L126.728 411.732L140.263 409.692L139.659 405.681L140.643 405.533L141.4 410.558L125.897 412.895L125.139 407.87Z" fill="#00654F"/>
<rect x="63.6921" y="312.568" width="55" height="55" rx="27.5" transform="rotate(8.49455 63.6921 312.568)" fill="#FFD1E7"/>
<rect x="63.6921" y="312.568" width="55" height="55" rx="27.5" transform="rotate(8.49455 63.6921 312.568)" stroke="#00292D"/>
<path d="M87.3854 344.196L93.3253 340.17L87.3854 336.144L87.3854 344.196ZM95.6644 352.137L96.1395 352.137L96.2849 353.097L76.8179 355.52L74.5195 337.962L77.9798 337.624L77.9798 338.68L75.7223 338.88L77.6757 354.373L95.6644 352.137ZM80.2961 349.782L80.2961 331.52L98.5195 331.52L98.5195 349.782L80.2961 349.782ZM81.3176 348.759L97.498 348.759L97.498 332.544L81.3176 332.544L81.3176 348.759Z" fill="#00292D"/>
<defs>
<filter id="filter0_d_293_5868" x="472" y="374" width="224" height="156" filterUnits="userSpaceOnUse" color-interpolation-filters="sRGB">
<feFlood flood-opacity="0" result="BackgroundImageFix"/>
<feColorMatrix in="SourceAlpha" type="matrix" values="0 0 0 0 0 0 0 0 0 0 0 0 0 0 0 0 0 0 127 0" result="hardAlpha"/>
<feOffset dy="25"/>
<feGaussianBlur stdDeviation="25"/>
<feComposite in2="hardAlpha" operator="out"/>
<feColorMatrix type="matrix" values="0 0 0 0 0 0 0 0 0 0 0 0 0 0 0 0 0 0 0.12 0"/>
<feBlend mode="normal" in2="BackgroundImageFix" result="effect1_dropShadow_293_5868"/>
<feBlend mode="normal" in="SourceGraphic" in2="effect1_dropShadow_293_5868" result="shape"/>
</filter>
<filter id="filter1_d_293_5868" x="0" y="75" width="214" height="156" filterUnits="userSpaceOnUse" color-interpolation-filters="sRGB">
<feFlood flood-opacity="0" result="BackgroundImageFix"/>
<feColorMatrix in="SourceAlpha" type="matrix" values="0 0 0 0 0 0 0 0 0 0 0 0 0 0 0 0 0 0 127 0" result="hardAlpha"/>
<feOffset dy="25"/>
<feGaussianBlur stdDeviation="25"/>
<feComposite in2="hardAlpha" operator="out"/>
<feColorMatrix type="matrix" values="0 0 0 0 0 0 0 0 0 0 0 0 0 0 0 0 0 0 0.12 0"/>
<feBlend mode="normal" in2="BackgroundImageFix" result="effect1_dropShadow_293_5868"/>
<feBlend mode="normal" in="SourceGraphic" in2="effect1_dropShadow_293_5868" result="shape"/>
</filter>
<filter id="filter2_d_293_5868" x="475" y="120" width="194" height="156" filterUnits="userSpaceOnUse" color-interpolation-filters="sRGB">
<feFlood flood-opacity="0" result="BackgroundImageFix"/>
<feColorMatrix in="SourceAlpha" type="matrix" values="0 0 0 0 0 0 0 0 0 0 0 0 0 0 0 0 0 0 127 0" result="hardAlpha"/>
<feOffset dy="25"/>
<feGaussianBlur stdDeviation="25"/>
<feComposite in2="hardAlpha" operator="out"/>
<feColorMatrix type="matrix" values="0 0 0 0 0 0 0 0 0 0 0 0 0 0 0 0 0 0 0.12 0"/>
<feBlend mode="normal" in2="BackgroundImageFix" result="effect1_dropShadow_293_5868"/>
<feBlend mode="normal" in="SourceGraphic" in2="effect1_dropShadow_293_5868" result="shape"/>
</filter>
</defs>
</svg>
