<svg width="334" height="376" viewBox="0 0 334 376" fill="none" xmlns="http://www.w3.org/2000/svg">
<g filter="url(#filter0_d_172_386)">
<rect x="65.7381" y="87.0112" width="175.004" height="175.004" rx="28" transform="rotate(-9.57244 65.7381 87.0112)" fill="#FFF7F3" shape-rendering="crispEdges"/>
<g filter="url(#filter1_d_172_386)">
<rect x="79.5665" y="96.8485" width="151" height="107" rx="28" transform="rotate(-9.57244 79.5665 96.8485)" fill="#FFECF0" shape-rendering="crispEdges"/>
<path d="M124.239 140.899L124.093 140.034C123.785 140.041 123.481 140.071 123.176 140.123C119.475 140.742 116.973 144.268 117.599 147.982C117.97 150.18 119.386 152.054 121.397 153.01C120.029 151.961 119.107 150.435 118.82 148.731C118.203 145.071 120.627 141.594 124.239 140.899Z" fill="#25F4EE"/>
<path d="M126.054 150.67C127.699 150.388 128.83 148.856 128.615 147.196L126.149 132.541L128.82 132.09C128.709 131.794 128.632 131.487 128.579 131.176L124.933 131.791L127.394 146.447C127.621 148.151 126.425 149.714 124.725 149.94C124.264 150.002 123.79 149.955 123.35 149.811C124.057 150.515 125.064 150.837 126.054 150.67Z" fill="#25F4EE"/>
<path d="M134.65 136.222L134.513 135.407C133.532 135.573 132.523 135.448 131.609 135.049C132.469 135.762 133.537 136.171 134.65 136.222Z" fill="#25F4EE"/>
<path d="M131.609 135.049C130.65 134.26 130.007 133.15 129.8 131.925L128.825 132.09C129.307 133.415 130.313 134.485 131.609 135.049Z" fill="#FE2C55"/>
<path d="M123.796 143.772C122.101 144.058 120.963 145.662 121.25 147.361C121.443 148.507 122.25 149.448 123.354 149.805C122.128 148.605 122.106 146.643 123.298 145.416C123.985 144.711 124.972 144.371 125.948 144.512L125.318 140.778C125.01 140.784 124.706 140.815 124.401 140.866C124.347 140.875 124.298 140.889 124.244 140.898L124.727 143.762C124.416 143.718 124.102 143.721 123.796 143.772Z" fill="#FE2C55"/>
<path d="M134.65 136.222L135.129 139.062C133.306 139.37 131.436 139.101 129.778 138.283L131.032 145.717C131.658 149.431 129.156 152.956 125.451 153.581C124.071 153.814 122.659 153.615 121.397 153.01C122.894 154.165 124.804 154.645 126.672 154.33C130.372 153.706 132.879 150.18 132.252 146.466L130.999 139.032C132.657 139.85 134.528 140.124 136.35 139.811L135.734 136.156C135.374 136.217 135.012 136.237 134.65 136.222Z" fill="#FE2C55"/>
<path d="M131.031 145.717L129.778 138.283C131.436 139.101 133.307 139.375 135.129 139.062L134.65 136.222C133.537 136.171 132.469 135.762 131.609 135.049C130.313 134.485 129.307 133.415 128.82 132.09L126.149 132.541L128.615 147.196C128.842 148.9 127.646 150.463 125.946 150.689C124.994 150.814 124.033 150.493 123.35 149.811C121.72 149.278 120.825 147.519 121.355 145.881C121.711 144.779 122.653 143.965 123.791 143.773C124.097 143.721 124.411 143.719 124.722 143.763L124.239 140.899C120.627 141.599 118.204 145.076 118.821 148.736C119.108 150.44 120.029 151.966 121.397 153.015C122.66 153.62 124.072 153.819 125.451 153.586C129.151 152.957 131.657 149.426 131.031 145.717Z" fill="#252525"/>
<path d="M139.323 135.444L150.725 133.521L150.232 136.967L147.275 137.466L149.314 149.552L145.628 150.173L143.59 138.087L139.885 138.717L139.323 135.444Z" fill="#252525"/>
<path d="M169.395 130.373L181.059 128.406L180.566 131.852L177.353 132.393L179.391 144.479L175.695 145.103L173.657 133.017L169.953 133.647L169.395 130.373Z" fill="#252525"/>
<path d="M152.244 138.289L155.895 137.673L157.661 148.144L154.029 148.756L152.244 138.289Z" fill="#252525"/>
<path d="M156.518 132.504L160.169 131.888L161.376 139.04L164.393 134.874L168.749 134.139L164.921 139.356L171.285 145.846L167.265 146.524L162.985 142.004L162.079 143.239L162.761 147.284L159.11 147.9L156.518 132.504Z" fill="#252525"/>
<path d="M195.199 125.981L198.85 125.365L200.056 132.517L203.073 128.351L207.429 127.616L203.601 132.833L209.966 139.323L205.945 140.001L201.666 135.481L200.759 136.716L201.441 140.761L197.79 141.377L195.199 125.981Z" fill="#252525"/>
<path d="M155.375 135.362C155.605 134.356 154.978 133.353 153.974 133.122C152.971 132.891 151.971 133.519 151.741 134.524C151.511 135.53 152.138 136.532 153.142 136.764C154.145 136.995 155.145 136.367 155.375 135.362Z" fill="#252525"/>
<path d="M182.123 137.573C181.572 134.303 183.626 131.158 186.835 130.353C186.671 130.37 186.447 130.398 186.285 130.425C182.83 131.008 180.505 134.29 181.089 137.747C181.672 141.209 184.943 143.538 188.399 142.96C188.561 142.933 188.781 142.886 188.942 142.848C185.647 143.14 182.68 140.842 182.123 137.573Z" fill="#25F4EE"/>
<path d="M188.251 130.093C188.083 130.122 187.863 130.169 187.702 130.206C191.187 129.898 194.268 132.482 194.579 135.975C194.855 139.088 192.833 141.938 189.809 142.697C189.974 142.685 190.196 142.652 190.364 142.624C193.818 142.041 196.143 138.759 195.56 135.302C194.977 131.844 191.705 129.511 188.251 130.093Z" fill="#FE2C55"/>
<path d="M188.836 139.575C187.156 139.858 185.566 138.724 185.282 137.04C184.998 135.356 186.128 133.763 187.808 133.48C189.488 133.197 191.078 134.33 191.362 136.015C191.646 137.699 190.516 139.291 188.836 139.575ZM187.265 130.26C183.811 130.842 181.485 134.12 182.069 137.582C182.653 141.044 185.925 143.378 189.379 142.795C192.833 142.212 195.159 138.935 194.575 135.473C193.991 132.011 190.714 129.678 187.265 130.26Z" fill="#252525"/>
</g>
<g filter="url(#filter2_d_172_386)">
<g clip-path="url(#clip0_172_386)">
<rect x="129.944" y="209.033" width="91" height="32" rx="8" transform="rotate(-9.57244 129.944 209.033)" fill="#FE2C55"/>
<path d="M142.427 228.224L140.734 218.184L146.96 217.134L147.18 218.438L142.469 219.233L142.985 222.292L147.25 221.573L147.469 222.872L143.204 223.591L143.942 227.969L142.427 228.224ZM153.043 226.59C152.337 226.709 151.694 226.652 151.113 226.417C150.533 226.182 150.048 225.798 149.659 225.265C149.27 224.733 149.01 224.077 148.879 223.3C148.747 222.519 148.777 221.811 148.969 221.177C149.161 220.543 149.493 220.02 149.965 219.607C150.437 219.195 151.025 218.929 151.731 218.81C152.437 218.691 153.081 218.749 153.661 218.984C154.242 219.219 154.727 219.604 155.117 220.14C155.506 220.676 155.767 221.335 155.899 222.116C156.03 222.894 155.999 223.598 155.806 224.229C155.614 224.86 155.281 225.381 154.81 225.793C154.338 226.206 153.749 226.471 153.043 226.59ZM152.841 225.359C153.298 225.282 153.657 225.097 153.917 224.804C154.177 224.512 154.345 224.153 154.421 223.726C154.5 223.299 154.499 222.844 154.417 222.361C154.336 221.88 154.188 221.451 153.974 221.074C153.761 220.693 153.484 220.405 153.142 220.211C152.8 220.017 152.401 219.958 151.943 220.035C151.482 220.113 151.12 220.3 150.858 220.596C150.598 220.892 150.429 221.255 150.351 221.685C150.275 222.111 150.277 222.565 150.358 223.045C150.44 223.529 150.586 223.959 150.798 224.337C151.013 224.714 151.291 224.999 151.632 225.19C151.977 225.38 152.38 225.437 152.841 225.359ZM157.937 215.283L159.63 225.323L158.164 225.571L156.471 215.53L157.937 215.283ZM161.374 214.704L163.068 224.744L161.602 224.991L159.909 214.951L161.374 214.704ZM168.237 224.028C167.531 224.147 166.888 224.089 166.307 223.854C165.726 223.62 165.241 223.236 164.852 222.703C164.463 222.17 164.203 221.515 164.072 220.737C163.94 219.956 163.971 219.249 164.163 218.615C164.355 217.981 164.687 217.457 165.159 217.045C165.63 216.633 166.219 216.367 166.925 216.248C167.631 216.129 168.274 216.187 168.855 216.422C169.436 216.656 169.921 217.042 170.311 217.578C170.7 218.114 170.961 218.772 171.092 219.553C171.224 220.331 171.193 221.036 171 221.666C170.807 222.297 170.475 222.819 170.003 223.231C169.532 223.643 168.943 223.909 168.237 224.028ZM168.034 222.797C168.492 222.72 168.851 222.535 169.111 222.242C169.371 221.95 169.538 221.59 169.614 221.164C169.694 220.737 169.693 220.282 169.611 219.798C169.53 219.318 169.382 218.889 169.167 218.512C168.955 218.131 168.678 217.843 168.336 217.649C167.994 217.454 167.594 217.396 167.137 217.473C166.676 217.55 166.314 217.738 166.051 218.034C165.792 218.33 165.623 218.693 165.544 219.123C165.468 219.549 165.471 220.002 165.552 220.483C165.633 220.966 165.78 221.397 165.992 221.775C166.207 222.152 166.485 222.436 166.826 222.627C167.171 222.818 167.574 222.874 168.034 222.797ZM174.761 222.772L171.275 215.615L172.79 215.36L175.198 220.641L175.272 220.628L175.82 214.849L177.335 214.593L179.734 219.851L179.807 219.838L180.345 214.086L181.859 213.83L180.918 221.733L179.423 221.985L176.977 216.807L176.864 216.826L176.251 222.52L174.761 222.772ZM190.841 218.325L189.723 211.697L191.042 211.475L192.159 218.103L190.841 218.325ZM187.74 216.116L187.519 214.802L194.147 213.684L194.368 214.998L187.74 216.116ZM196.807 217.037L196.6 215.811L199.783 208.226L200.749 208.063L201.053 209.867L200.441 209.971L198.166 215.406L198.179 215.485L204.126 214.482L204.342 215.766L196.807 217.037ZM201.898 218.195L201.505 215.862L201.42 215.301L200.215 208.153L201.651 207.911L203.344 217.951L201.898 218.195ZM206.519 217.416L204.825 207.376L206.34 207.12L207.149 211.915L207.271 211.894L210.674 206.39L212.581 206.068L209.294 211.271L214.289 216.105L212.465 216.413L208.463 212.475L207.507 214.038L208.033 217.16L206.519 217.416Z" fill="#FFFDF6"/>
</g>
</g>
</g>
<defs>
<filter id="filter0_d_172_386" x="-4.26195" y="37.9089" width="341.67" height="341.67" filterUnits="userSpaceOnUse" color-interpolation-filters="sRGB">
<feFlood flood-opacity="0" result="BackgroundImageFix"/>
<feColorMatrix in="SourceAlpha" type="matrix" values="0 0 0 0 0 0 0 0 0 0 0 0 0 0 0 0 0 0 127 0" result="hardAlpha"/>
<feOffset dy="50"/>
<feGaussianBlur stdDeviation="35"/>
<feComposite in2="hardAlpha" operator="out"/>
<feColorMatrix type="matrix" values="0 0 0 0 0 0 0 0 0 0 0 0 0 0 0 0 0 0 0.06 0"/>
<feBlend mode="normal" in2="BackgroundImageFix" result="effect1_dropShadow_172_386"/>
<feBlend mode="normal" in="SourceGraphic" in2="effect1_dropShadow_172_386" result="shape"/>
</filter>
<filter id="filter1_d_172_386" x="-0.433502" y="-4.2619" width="326.691" height="290.621" filterUnits="userSpaceOnUse" color-interpolation-filters="sRGB">
<feFlood flood-opacity="0" result="BackgroundImageFix"/>
<feColorMatrix in="SourceAlpha" type="matrix" values="0 0 0 0 0 0 0 0 0 0 0 0 0 0 0 0 0 0 127 0" result="hardAlpha"/>
<feOffset dy="4"/>
<feGaussianBlur stdDeviation="40"/>
<feComposite in2="hardAlpha" operator="out"/>
<feColorMatrix type="matrix" values="0 0 0 0 0 0 0 0 0 0 0 0 0 0 0 0 0 0 0.02 0"/>
<feBlend mode="normal" in2="BackgroundImageFix" result="effect1_dropShadow_172_386"/>
<feBlend mode="normal" in="SourceGraphic" in2="effect1_dropShadow_172_386" result="shape"/>
</filter>
<filter id="filter2_d_172_386" x="117.944" y="185.9" width="119.054" height="70.6872" filterUnits="userSpaceOnUse" color-interpolation-filters="sRGB">
<feFlood flood-opacity="0" result="BackgroundImageFix"/>
<feColorMatrix in="SourceAlpha" type="matrix" values="0 0 0 0 0 0 0 0 0 0 0 0 0 0 0 0 0 0 127 0" result="hardAlpha"/>
<feOffset dy="4"/>
<feGaussianBlur stdDeviation="6"/>
<feComposite in2="hardAlpha" operator="out"/>
<feColorMatrix type="matrix" values="0 0 0 0 1 0 0 0 0 0.105882 0 0 0 0 0.537255 0 0 0 0.06 0"/>
<feBlend mode="normal" in2="BackgroundImageFix" result="effect1_dropShadow_172_386"/>
<feBlend mode="normal" in="SourceGraphic" in2="effect1_dropShadow_172_386" result="shape"/>
</filter>
<clipPath id="clip0_172_386">
<rect x="129.944" y="209.033" width="91" height="32" rx="8" transform="rotate(-9.57244 129.944 209.033)" fill="white"/>
</clipPath>
</defs>
</svg>
