<svg width="335" height="526" viewBox="0 0 335 526" fill="none" xmlns="http://www.w3.org/2000/svg">
<g filter="url(#filter0_d_172_407)">
<rect x="68.0508" y="73.863" width="175" height="334" rx="28" transform="rotate(-4.14466 68.0508 73.863)" fill="#FDF5F1" shape-rendering="crispEdges"/>
<g filter="url(#filter1_d_172_407)">
<path d="M82.9104 112.891C81.7928 97.4676 93.39 84.0583 108.813 82.9406L203.565 76.0745C218.989 74.9568 232.398 86.554 233.516 101.978L236.937 149.187C237.735 160.204 229.451 169.782 218.434 170.58L107.725 178.603C96.7078 179.401 87.1298 171.117 86.3314 160.101L82.9104 112.891Z" fill="#FFD1E7" shape-rendering="crispEdges"/>
<path d="M161.112 127.868L169.597 121.187L160.237 115.799L161.112 127.868ZM174.411 138.87L175.125 138.818L175.447 140.241L146.468 145.993L141.109 119.924L146.27 119.04L146.384 120.625L143.015 121.17L147.632 144.181L174.411 138.87ZM151.07 137.014L149.086 109.639L176.46 107.656L178.444 135.03L151.07 137.014ZM152.493 135.368L176.798 133.607L175.037 109.301L150.732 111.063L152.493 135.368Z" fill="#FF1B89"/>
</g>
<g filter="url(#filter2_d_172_407)">
<rect x="88.6442" y="192.017" width="151" height="95.3333" rx="20" transform="rotate(-4.14466 88.6442 192.017)" fill="#FFD1E7" shape-rendering="crispEdges"/>
<mask id="mask0_172_407" style="mask-type:alpha" maskUnits="userSpaceOnUse" x="141" y="207" width="53" height="53">
<rect x="141.724" y="211.438" width="48" height="48" transform="rotate(-4.14466 141.724 211.438)" fill="#D9D9D9"/>
</mask>
<g mask="url(#mask0_172_407)">
<path d="M179.497 233.534L179.386 232L185.6 231.55L185.711 233.084L179.497 233.534ZM182.672 246.493L177.404 243.134L178.269 241.861L183.537 245.22L182.672 246.493ZM176.877 223.779L175.839 222.644L180.496 218.577L181.534 219.713L176.877 223.779ZM155.522 246.455L154.972 238.859L152.21 239.06C151.463 239.114 150.797 238.887 150.21 238.379C149.622 237.871 149.302 237.244 149.248 236.498L149.025 233.429C148.971 232.683 149.198 232.016 149.706 231.429C150.214 230.842 150.841 230.521 151.587 230.467L159.489 229.894L167.052 224.642L168.353 242.595L160.112 238.487L156.506 238.748L157.056 246.344L155.522 246.455ZM166.622 239.99L165.715 227.469L160.015 231.399L151.698 232.002C151.391 232.024 151.119 232.172 150.882 232.446C150.645 232.72 150.537 233.011 150.56 233.318L150.782 236.387C150.804 236.694 150.953 236.966 151.227 237.203C151.501 237.44 151.791 237.547 152.098 237.525L160.415 236.922L166.622 239.99ZM171.65 239.124L170.814 227.6C171.527 228.171 172.124 228.945 172.604 229.922C173.085 230.898 173.37 231.992 173.457 233.201C173.545 234.411 173.421 235.533 173.086 236.569C172.751 237.605 172.272 238.457 171.65 239.124Z" fill="#FF1B89"/>
</g>
</g>
<g filter="url(#filter3_d_172_407)">
<path d="M97.8472 319.017C97.0489 308 105.333 298.422 116.349 297.624L227.059 289.602C238.076 288.803 247.654 297.087 248.452 308.104L251.873 355.313C252.991 370.737 241.394 384.146 225.97 385.264L131.219 392.13C115.795 393.248 102.386 381.65 101.268 366.227L97.8472 319.017Z" fill="#FFD1E7" shape-rendering="crispEdges"/>
<mask id="mask1_172_407" style="mask-type:alpha" maskUnits="userSpaceOnUse" x="149" y="315" width="52" height="53">
<rect x="149.53" y="319.155" width="48" height="48" transform="rotate(-4.14466 149.53 319.155)" fill="#D9D9D9"/>
</mask>
<g mask="url(#mask1_172_407)">
<path d="M181.732 337.803C182.296 337.763 182.767 337.524 183.145 337.088C183.525 336.653 183.693 336.145 183.651 335.565C183.609 334.986 183.366 334.511 182.923 334.14C182.479 333.77 181.976 333.605 181.413 333.646C180.85 333.687 180.379 333.925 180 334.361C179.621 334.797 179.452 335.305 179.494 335.885C179.536 336.464 179.779 336.939 180.223 337.309C180.666 337.68 181.17 337.844 181.732 337.803ZM168.245 338.781C168.808 338.74 169.279 338.502 169.658 338.066C170.037 337.63 170.206 337.122 170.164 336.543C170.122 335.963 169.879 335.488 169.435 335.118C168.992 334.748 168.488 334.583 167.925 334.624C167.362 334.664 166.891 334.903 166.512 335.339C166.133 335.774 165.965 336.282 166.007 336.862C166.049 337.442 166.292 337.916 166.735 338.287C167.179 338.657 167.682 338.822 168.245 338.781ZM181.031 349.189C182.534 348.061 183.627 346.62 184.31 344.866L166.694 346.143C167.631 347.779 168.922 349.048 170.568 349.948C172.214 350.848 173.994 351.228 175.907 351.09C177.82 350.951 179.528 350.318 181.031 349.189ZM176.523 359.309C174.023 359.49 171.654 359.188 169.416 358.404C167.177 357.619 165.185 356.469 163.439 354.956C161.692 353.442 160.269 351.638 159.17 349.543C158.07 347.448 157.43 345.158 157.25 342.671C157.069 340.185 157.373 337.814 158.161 335.56C158.948 333.306 160.094 331.312 161.598 329.578C163.103 327.844 164.91 326.426 167.021 325.326C169.132 324.225 171.425 323.584 173.901 323.405C174.269 323.378 174.629 323.364 174.981 323.363C175.332 323.362 175.68 323.373 176.025 323.397C175.98 323.64 175.937 323.896 175.895 324.163C175.853 324.431 175.82 324.687 175.797 324.933C175.49 324.914 175.191 324.905 174.902 324.905C174.613 324.906 174.316 324.917 174.012 324.939C169.463 325.269 165.704 327.143 162.737 330.56C159.77 333.978 158.451 337.964 158.781 342.519C159.111 347.073 160.993 350.837 164.428 353.81C167.862 356.783 171.856 358.105 176.411 357.775C180.965 357.445 184.721 355.565 187.679 352.137C190.636 348.708 191.95 344.719 191.62 340.171C191.567 339.43 191.472 338.732 191.338 338.077C191.203 337.422 191.028 336.766 190.813 336.108C191.05 336.009 191.285 335.905 191.517 335.797C191.749 335.689 191.985 335.571 192.223 335.443C192.467 336.191 192.669 336.942 192.827 337.696C192.986 338.45 193.095 339.237 193.155 340.057C193.334 342.533 193.032 344.897 192.248 347.15C191.464 349.403 190.323 351.396 188.825 353.128C187.327 354.862 185.521 356.28 183.405 357.384C181.291 358.488 178.996 359.13 176.523 359.309ZM187.653 332.357L181.317 326.878C180.909 326.525 180.617 326.146 180.443 325.743C180.268 325.34 180.166 324.932 180.136 324.519C180.071 323.614 180.333 322.786 180.925 322.033C181.516 321.28 182.315 320.867 183.321 320.794C184.121 320.736 184.762 320.875 185.246 321.21C185.73 321.545 186.295 321.993 186.942 322.553C187.488 321.921 187.979 321.401 188.415 320.992C188.851 320.582 189.476 320.348 190.29 320.289C191.329 320.214 192.185 320.507 192.856 321.17C193.528 321.832 193.896 322.615 193.961 323.519C193.992 323.943 193.942 324.373 193.812 324.809C193.682 325.245 193.455 325.649 193.133 326.022L187.653 332.357Z" fill="#FF1B89"/>
</g>
</g>
</g>
<defs>
<filter id="filter0_d_172_407" x="-1.94922" y="41.2148" width="338.682" height="485.775" filterUnits="userSpaceOnUse" color-interpolation-filters="sRGB">
<feFlood flood-opacity="0" result="BackgroundImageFix"/>
<feColorMatrix in="SourceAlpha" type="matrix" values="0 0 0 0 0 0 0 0 0 0 0 0 0 0 0 0 0 0 127 0" result="hardAlpha"/>
<feOffset dy="50"/>
<feGaussianBlur stdDeviation="35"/>
<feComposite in2="hardAlpha" operator="out"/>
<feColorMatrix type="matrix" values="0 0 0 0 0 0 0 0 0 0 0 0 0 0 0 0 0 0 0.06 0"/>
<feBlend mode="normal" in2="BackgroundImageFix" result="effect1_dropShadow_172_407"/>
<feBlend mode="normal" in="SourceGraphic" in2="effect1_dropShadow_172_407" result="shape"/>
</filter>
<filter id="filter1_d_172_407" x="0.886719" y="-1.94922" width="317.495" height="265.998" filterUnits="userSpaceOnUse" color-interpolation-filters="sRGB">
<feFlood flood-opacity="0" result="BackgroundImageFix"/>
<feColorMatrix in="SourceAlpha" type="matrix" values="0 0 0 0 0 0 0 0 0 0 0 0 0 0 0 0 0 0 127 0" result="hardAlpha"/>
<feOffset dy="4"/>
<feGaussianBlur stdDeviation="40"/>
<feComposite in2="hardAlpha" operator="out"/>
<feColorMatrix type="matrix" values="0 0 0 0 0 0 0 0 0 0 0 0 0 0 0 0 0 0 0.02 0"/>
<feBlend mode="normal" in2="BackgroundImageFix" result="effect1_dropShadow_172_407"/>
<feBlend mode="normal" in="SourceGraphic" in2="effect1_dropShadow_172_407" result="shape"/>
</filter>
<filter id="filter2_d_172_407" x="8.64417" y="105.103" width="317.495" height="265.998" filterUnits="userSpaceOnUse" color-interpolation-filters="sRGB">
<feFlood flood-opacity="0" result="BackgroundImageFix"/>
<feColorMatrix in="SourceAlpha" type="matrix" values="0 0 0 0 0 0 0 0 0 0 0 0 0 0 0 0 0 0 127 0" result="hardAlpha"/>
<feOffset dy="4"/>
<feGaussianBlur stdDeviation="40"/>
<feComposite in2="hardAlpha" operator="out"/>
<feColorMatrix type="matrix" values="0 0 0 0 0 0 0 0 0 0 0 0 0 0 0 0 0 0 0.02 0"/>
<feBlend mode="normal" in2="BackgroundImageFix" result="effect1_dropShadow_172_407"/>
<feBlend mode="normal" in="SourceGraphic" in2="effect1_dropShadow_172_407" result="shape"/>
</filter>
<filter id="filter3_d_172_407" x="16.4017" y="212.156" width="317.495" height="265.998" filterUnits="userSpaceOnUse" color-interpolation-filters="sRGB">
<feFlood flood-opacity="0" result="BackgroundImageFix"/>
<feColorMatrix in="SourceAlpha" type="matrix" values="0 0 0 0 0 0 0 0 0 0 0 0 0 0 0 0 0 0 127 0" result="hardAlpha"/>
<feOffset dy="4"/>
<feGaussianBlur stdDeviation="40"/>
<feComposite in2="hardAlpha" operator="out"/>
<feColorMatrix type="matrix" values="0 0 0 0 0 0 0 0 0 0 0 0 0 0 0 0 0 0 0.02 0"/>
<feBlend mode="normal" in2="BackgroundImageFix" result="effect1_dropShadow_172_407"/>
<feBlend mode="normal" in="SourceGraphic" in2="effect1_dropShadow_172_407" result="shape"/>
</filter>
</defs>
</svg>
