<svg width="327" height="370" viewBox="0 0 327 370" fill="none" xmlns="http://www.w3.org/2000/svg">
<g filter="url(#filter0_d_172_419)">
<rect x="85.1265" y="60.1347" width="175.004" height="175.004" rx="28" transform="rotate(5.84815 85.1265 60.1347)" fill="#FDF5F1" shape-rendering="crispEdges"/>
<g filter="url(#filter1_d_172_419)">
<rect x="110.596" y="194.429" width="99" height="32" rx="8" transform="rotate(5.84815 110.596 194.429)" fill="#455FFF"/>
<path d="M117.527 216.249L118.564 206.12L124.845 206.763L124.711 208.079L119.958 207.592L119.642 210.678L123.945 211.119L123.81 212.429L119.508 211.989L119.055 216.405L117.527 216.249ZM128.195 217.496C127.483 217.423 126.878 217.196 126.381 216.816C125.883 216.435 125.518 215.936 125.285 215.319C125.051 214.702 124.975 214.001 125.055 213.216C125.136 212.428 125.353 211.754 125.707 211.194C126.061 210.634 126.52 210.218 127.084 209.946C127.649 209.674 128.287 209.574 128.999 209.647C129.711 209.72 130.316 209.947 130.814 210.328C131.311 210.709 131.676 211.209 131.909 211.829C132.142 212.45 132.218 213.154 132.138 213.942C132.057 214.727 131.84 215.397 131.487 215.954C131.133 216.511 130.674 216.925 130.11 217.198C129.546 217.47 128.907 217.569 128.195 217.496ZM128.327 216.255C128.789 216.303 129.184 216.22 129.512 216.007C129.841 215.794 130.098 215.492 130.285 215.101C130.475 214.711 130.594 214.272 130.644 213.784C130.694 213.299 130.666 212.847 130.559 212.426C130.455 212.002 130.265 211.651 129.987 211.373C129.709 211.094 129.339 210.932 128.877 210.884C128.413 210.837 128.014 210.921 127.682 211.137C127.354 211.353 127.094 211.658 126.904 212.051C126.717 212.442 126.599 212.88 126.549 213.364C126.499 213.852 126.526 214.307 126.63 214.727C126.737 215.148 126.929 215.496 127.208 215.771C127.489 216.046 127.862 216.208 128.327 216.255ZM135.919 207.897L134.881 218.026L133.403 217.875L134.44 207.746L135.919 207.897ZM139.387 208.252L138.35 218.381L136.871 218.23L137.908 208.101L139.387 208.252ZM143.523 219.066C142.811 218.993 142.206 218.766 141.709 218.386C141.211 218.005 140.846 217.506 140.613 216.889C140.379 216.272 140.303 215.571 140.383 214.786C140.464 213.998 140.681 213.324 141.035 212.764C141.389 212.204 141.848 211.788 142.412 211.516C142.977 211.244 143.615 211.144 144.327 211.217C145.039 211.29 145.644 211.517 146.142 211.898C146.639 212.279 147.004 212.779 147.237 213.399C147.47 214.02 147.546 214.724 147.466 215.512C147.385 216.297 147.168 216.967 146.815 217.524C146.461 218.081 146.002 218.495 145.438 218.767C144.874 219.04 144.235 219.139 143.523 219.066ZM143.655 217.825C144.117 217.873 144.512 217.79 144.84 217.577C145.169 217.364 145.426 217.062 145.613 216.671C145.803 216.281 145.922 215.842 145.972 215.354C146.022 214.869 145.994 214.417 145.887 213.996C145.783 213.572 145.593 213.221 145.315 212.943C145.037 212.664 144.667 212.501 144.205 212.454C143.741 212.407 143.342 212.491 143.01 212.707C142.682 212.923 142.422 213.228 142.232 213.621C142.045 214.012 141.927 214.45 141.877 214.934C141.827 215.422 141.854 215.877 141.958 216.297C142.065 216.718 142.257 217.066 142.536 217.341C142.817 217.616 143.19 217.778 143.655 217.825ZM150.146 219.59L148.689 211.764L150.217 211.921L151.135 217.652L151.209 217.659L153.274 212.234L154.802 212.39L155.717 218.096L155.791 218.104L157.839 212.701L159.367 212.858L156.358 220.226L154.85 220.071L153.869 214.428L153.755 214.417L151.65 219.744L150.146 219.59ZM166.829 219.579L167.514 212.893L168.845 213.029L168.16 219.715L166.829 219.579ZM164.428 216.625L164.564 215.299L171.251 215.984L171.115 217.309L164.428 216.625ZM172.526 221.882L172.639 220.774L176.43 217.574C176.836 217.226 177.172 216.919 177.439 216.653C177.71 216.384 177.918 216.124 178.064 215.872C178.21 215.621 178.298 215.346 178.328 215.05C178.363 214.713 178.313 214.415 178.18 214.155C178.047 213.891 177.85 213.68 177.59 213.52C177.33 213.357 177.029 213.257 176.686 213.222C176.323 213.185 175.999 213.227 175.714 213.348C175.428 213.468 175.199 213.656 175.026 213.912C174.854 214.167 174.749 214.476 174.711 214.839L173.252 214.69C173.316 214.073 173.513 213.549 173.843 213.116C174.174 212.683 174.6 212.366 175.121 212.162C175.641 211.956 176.217 211.885 176.847 211.949C177.483 212.015 178.03 212.199 178.489 212.502C178.951 212.803 179.297 213.185 179.526 213.648C179.756 214.108 179.842 214.61 179.787 215.154C179.748 215.53 179.64 215.89 179.461 216.235C179.286 216.58 179.002 216.956 178.611 217.363C178.22 217.766 177.684 218.249 177.003 218.812L174.775 220.713L174.767 220.787L179.327 221.254L179.193 222.565L172.526 221.882ZM184.579 223.256C183.9 223.187 183.305 223.008 182.795 222.719C182.288 222.43 181.901 222.062 181.634 221.615C181.37 221.165 181.255 220.664 181.288 220.111L182.841 220.27C182.83 220.572 182.904 220.842 183.063 221.082C183.225 221.318 183.449 221.511 183.733 221.66C184.018 221.809 184.341 221.903 184.704 221.94C185.103 221.981 185.463 221.947 185.784 221.84C186.108 221.734 186.37 221.566 186.57 221.336C186.77 221.104 186.887 220.824 186.921 220.498C186.956 220.158 186.899 219.851 186.75 219.576C186.606 219.298 186.374 219.067 186.056 218.885C185.742 218.703 185.351 218.588 184.882 218.54L184.027 218.452L184.154 217.206L185.01 217.293C185.386 217.332 185.723 217.298 186.02 217.192C186.321 217.086 186.564 216.921 186.75 216.697C186.937 216.47 187.047 216.193 187.08 215.866C187.112 215.553 187.069 215.274 186.951 215.028C186.837 214.78 186.658 214.577 186.414 214.419C186.174 214.261 185.88 214.164 185.534 214.129C185.204 214.095 184.89 214.124 184.59 214.217C184.295 214.306 184.046 214.454 183.845 214.66C183.645 214.863 183.522 215.119 183.477 215.427L181.998 215.276C182.071 214.73 182.282 214.265 182.631 213.881C182.983 213.497 183.425 213.215 183.957 213.032C184.489 212.85 185.065 212.791 185.685 212.855C186.334 212.921 186.882 213.105 187.327 213.408C187.776 213.707 188.108 214.079 188.322 214.524C188.54 214.969 188.621 215.441 188.567 215.938C188.512 216.506 188.305 216.971 187.944 217.334C187.587 217.697 187.138 217.919 186.597 218.001L186.589 218.08C187.251 218.251 187.744 218.571 188.069 219.041C188.398 219.511 188.528 220.066 188.459 220.705C188.405 221.263 188.199 221.746 187.84 222.156C187.485 222.566 187.026 222.871 186.462 223.069C185.899 223.265 185.272 223.327 184.579 223.256ZM190.182 223.69L191.219 213.561L192.748 213.718L192.252 218.555L192.376 218.568L197.12 214.166L199.044 214.363L194.491 218.504L198.021 224.493L196.181 224.305L193.371 219.444L192.033 220.696L191.71 223.847L190.182 223.69Z" fill="#FFFDF6"/>
</g>
<g filter="url(#filter2_d_172_419)">
<rect x="95.8413" y="73.2949" width="151" height="107" rx="28" transform="rotate(5.84815 95.8413 73.2949)" fill="#FFEAE5" shape-rendering="crispEdges"/>
<g clip-path="url(#clip0_172_419)">
<path d="M183.515 123.129C183.684 121.478 182.482 120.008 180.837 119.839C179.192 119.671 177.717 120.867 177.547 122.518C177.379 124.163 178.582 125.633 180.227 125.801C181.872 125.97 183.346 124.774 183.515 123.129Z" fill="url(#paint0_linear_172_419)"/>
<path d="M185.104 146.83C184.745 149.24 184.205 150.515 183.779 151.354C183.209 152.467 182.585 153.24 181.622 154.02C180.669 154.801 179.785 155.253 178.581 155.581C177.672 155.833 176.309 156.104 173.876 155.972C171.245 155.819 170.467 155.764 163.827 155.084C157.194 154.404 156.414 154.3 153.808 153.916C151.398 153.553 150.124 153.012 149.285 152.581C148.166 152.015 147.399 151.393 146.619 150.435C145.832 149.476 145.378 148.592 145.052 147.388C144.805 146.479 144.528 145.121 144.672 142.688C144.812 140.057 144.87 139.267 145.549 132.64C146.229 126.001 146.332 125.221 146.728 122.616C147.08 120.204 147.626 118.932 148.053 118.085C148.617 116.973 149.24 116.204 150.205 115.425C151.163 114.646 152.04 114.191 153.251 113.859C154.16 113.606 155.516 113.341 157.95 113.473C160.58 113.626 161.365 113.677 167.999 114.356C174.639 115.036 175.411 115.145 178.018 115.529C180.428 115.892 181.708 116.428 182.547 116.86C183.659 117.43 184.433 118.054 185.208 119.01C185.993 119.969 186.448 120.848 186.781 122.052C187.027 122.968 187.297 124.324 187.16 126.757C187.013 129.388 186.962 130.173 186.282 136.812C185.604 143.439 185.493 144.224 185.104 146.83ZM191.652 127.011C191.802 124.352 191.57 122.501 191.111 120.863C190.648 119.164 189.944 117.693 188.701 116.166C187.464 114.647 186.165 113.659 184.597 112.853C183.079 112.078 181.32 111.471 178.684 111.084C176.049 110.685 175.206 110.575 168.457 109.884C161.714 109.194 160.86 109.13 158.199 108.986C155.545 108.831 153.701 109.069 152.05 109.52C150.357 109.991 148.885 110.695 147.366 111.933C145.839 113.176 144.852 114.474 144.047 116.042C143.272 117.554 142.669 119.32 142.271 121.953C141.884 124.589 141.768 125.433 141.077 132.182C140.386 138.925 140.329 139.774 140.173 142.434C140.03 145.088 140.262 146.938 140.714 148.583C141.184 150.276 141.888 151.754 143.131 153.274C144.369 154.794 145.666 155.788 147.228 156.591C148.754 157.368 150.512 157.97 153.141 158.362C155.777 158.755 156.626 158.871 163.369 159.562C170.118 160.253 170.966 160.31 173.627 160.46C176.287 160.61 178.132 160.377 179.776 159.925C181.475 159.455 182.947 158.745 184.466 157.508C185.992 156.271 186.981 154.967 187.778 153.404C188.56 151.885 189.163 150.121 189.555 147.492C189.948 144.856 190.064 144.014 190.754 137.271C191.446 130.521 191.503 129.671 191.652 127.011Z" fill="url(#paint1_linear_172_419)"/>
<path d="M165.065 142.999C160.495 142.531 157.166 138.448 157.634 133.878C158.103 129.301 162.191 125.973 166.761 126.442C171.332 126.91 174.666 130.997 174.197 135.575C173.729 140.145 169.637 143.467 165.065 142.999ZM167.22 121.963C160.175 121.242 153.883 126.375 153.162 133.42C152.441 140.459 157.562 146.755 164.606 147.477C171.651 148.198 177.948 143.072 178.669 136.033C179.391 128.988 174.265 122.685 167.22 121.963Z" fill="url(#paint2_linear_172_419)"/>
</g>
</g>
</g>
<defs>
<filter id="filter0_d_172_419" x="-2.70508" y="40.1347" width="331.925" height="331.925" filterUnits="userSpaceOnUse" color-interpolation-filters="sRGB">
<feFlood flood-opacity="0" result="BackgroundImageFix"/>
<feColorMatrix in="SourceAlpha" type="matrix" values="0 0 0 0 0 0 0 0 0 0 0 0 0 0 0 0 0 0 127 0" result="hardAlpha"/>
<feOffset dy="50"/>
<feGaussianBlur stdDeviation="35"/>
<feComposite in2="hardAlpha" operator="out"/>
<feColorMatrix type="matrix" values="0 0 0 0 0 0 0 0 0 0 0 0 0 0 0 0 0 0 0.06 0"/>
<feBlend mode="normal" in2="BackgroundImageFix" result="effect1_dropShadow_172_419"/>
<feBlend mode="normal" in="SourceGraphic" in2="effect1_dropShadow_172_419" result="shape"/>
</filter>
<filter id="filter1_d_172_419" x="95.335" y="186.429" width="125.745" height="65.9208" filterUnits="userSpaceOnUse" color-interpolation-filters="sRGB">
<feFlood flood-opacity="0" result="BackgroundImageFix"/>
<feColorMatrix in="SourceAlpha" type="matrix" values="0 0 0 0 0 0 0 0 0 0 0 0 0 0 0 0 0 0 127 0" result="hardAlpha"/>
<feOffset dy="4"/>
<feGaussianBlur stdDeviation="6"/>
<feComposite in2="hardAlpha" operator="out"/>
<feColorMatrix type="matrix" values="0 0 0 0 1 0 0 0 0 0.105882 0 0 0 0 0.537255 0 0 0 0.06 0"/>
<feBlend mode="normal" in2="BackgroundImageFix" result="effect1_dropShadow_172_419"/>
<feBlend mode="normal" in="SourceGraphic" in2="effect1_dropShadow_172_419" result="shape"/>
</filter>
<filter id="filter2_d_172_419" x="4.93887" y="-2.70508" width="321.117" height="281.829" filterUnits="userSpaceOnUse" color-interpolation-filters="sRGB">
<feFlood flood-opacity="0" result="BackgroundImageFix"/>
<feColorMatrix in="SourceAlpha" type="matrix" values="0 0 0 0 0 0 0 0 0 0 0 0 0 0 0 0 0 0 127 0" result="hardAlpha"/>
<feOffset dy="4"/>
<feGaussianBlur stdDeviation="40"/>
<feComposite in2="hardAlpha" operator="out"/>
<feColorMatrix type="matrix" values="0 0 0 0 0 0 0 0 0 0 0 0 0 0 0 0 0 0 0.02 0"/>
<feBlend mode="normal" in2="BackgroundImageFix" result="effect1_dropShadow_172_419"/>
<feBlend mode="normal" in="SourceGraphic" in2="effect1_dropShadow_172_419" result="shape"/>
</filter>
<linearGradient id="paint0_linear_172_419" x1="139.033" y1="156.55" x2="188.744" y2="116.077" gradientUnits="userSpaceOnUse">
<stop stop-color="#FFD521"/>
<stop offset="0.05" stop-color="#FFD521"/>
<stop offset="0.501119" stop-color="#F50000"/>
<stop offset="0.95" stop-color="#B900B4"/>
<stop offset="0.950079" stop-color="#B900B4"/>
<stop offset="1" stop-color="#B900B4"/>
</linearGradient>
<linearGradient id="paint1_linear_172_419" x1="139.027" y1="156.612" x2="188.778" y2="116.106" gradientUnits="userSpaceOnUse">
<stop stop-color="#FFD521"/>
<stop offset="0.05" stop-color="#FFD521"/>
<stop offset="0.501119" stop-color="#F50000"/>
<stop offset="0.95" stop-color="#B900B4"/>
<stop offset="0.950079" stop-color="#B900B4"/>
<stop offset="1" stop-color="#B900B4"/>
</linearGradient>
<linearGradient id="paint2_linear_172_419" x1="139.039" y1="156.615" x2="188.778" y2="116.118" gradientUnits="userSpaceOnUse">
<stop stop-color="#FFD521"/>
<stop offset="0.05" stop-color="#FFD521"/>
<stop offset="0.501119" stop-color="#F50000"/>
<stop offset="0.95" stop-color="#B900B4"/>
<stop offset="0.950079" stop-color="#B900B4"/>
<stop offset="1" stop-color="#B900B4"/>
</linearGradient>
<clipPath id="clip0_172_419">
<rect width="50" height="50" fill="white" transform="translate(143.621 107.34) rotate(5.84815)"/>
</clipPath>
</defs>
</svg>
