<svg width="596" height="356" viewBox="0 0 596 356" fill="none" xmlns="http://www.w3.org/2000/svg">
<rect x="472.5" y="300.135" width="123" height="55" rx="27.5" fill="#00654F"/>
<rect x="472.5" y="300.135" width="123" height="55" rx="27.5" stroke="#FFD1E7"/>
<path d="M500.724 325.851C500.428 325.323 500.064 324.943 499.632 324.711C499.2 324.479 498.74 324.363 498.252 324.363C497.724 324.363 497.24 324.495 496.8 324.759C496.368 325.015 496.024 325.375 495.768 325.839C495.52 326.295 495.396 326.827 495.396 327.435C495.396 328.043 495.52 328.579 495.768 329.043C496.016 329.499 496.352 329.859 496.776 330.123C497.208 330.379 497.688 330.507 498.216 330.507C498.592 330.507 498.944 330.443 499.272 330.315C499.6 330.187 499.888 330.011 500.136 329.787C500.384 329.555 500.58 329.291 500.724 328.995V328.155H498.312V326.991H502.152V329.079C501.96 329.575 501.672 330.023 501.288 330.423C500.912 330.823 500.46 331.139 499.932 331.371C499.412 331.603 498.836 331.719 498.204 331.719C497.612 331.719 497.056 331.615 496.536 331.407C496.024 331.199 495.572 330.907 495.18 330.531C494.796 330.147 494.492 329.695 494.268 329.175C494.052 328.647 493.944 328.067 493.944 327.435C493.944 326.811 494.052 326.239 494.268 325.719C494.492 325.191 494.796 324.735 495.18 324.351C495.572 323.967 496.024 323.671 496.536 323.463C497.056 323.255 497.612 323.151 498.204 323.151C498.74 323.151 499.256 323.239 499.752 323.415C500.248 323.583 500.692 323.835 501.084 324.171C501.476 324.507 501.776 324.919 501.984 325.407L500.724 325.851ZM504.992 323.235V330.447H508.76V331.635H503.564V323.235H504.992ZM509.903 323.235H511.319V328.587C511.319 329.011 511.403 329.367 511.571 329.655C511.747 329.943 511.983 330.159 512.279 330.303C512.575 330.439 512.911 330.507 513.287 330.507C513.679 330.507 514.023 330.439 514.319 330.303C514.615 330.159 514.847 329.943 515.015 329.655C515.191 329.367 515.279 329.011 515.279 328.587V323.235H516.695V328.551C516.695 329.087 516.599 329.555 516.407 329.955C516.223 330.347 515.967 330.675 515.639 330.939C515.319 331.203 514.955 331.399 514.547 331.527C514.147 331.655 513.723 331.719 513.275 331.719C512.683 331.719 512.131 331.603 511.619 331.371C511.107 331.139 510.691 330.791 510.371 330.327C510.059 329.855 509.903 329.263 509.903 328.551V323.235ZM517.991 323.235H524.591V324.423H522.011V331.635H520.583V324.423H517.991V323.235ZM531.635 324.423H527.327V326.787H530.555V327.975H527.327V330.447H531.635V331.635H525.899V323.235H531.635V324.423ZM539.957 323.235V331.635H538.505L534.593 325.479V331.635H533.165V323.235H534.629L538.541 329.367V323.235H539.957ZM545.083 323.235H550.819V324.423H546.511V326.787H549.739V327.975H546.511V331.635H545.083V323.235ZM556.938 325.767C556.938 325.351 556.814 325.023 556.566 324.783C556.318 324.543 555.934 324.423 555.414 324.423H553.554V327.123H555.414C555.766 327.123 556.05 327.071 556.266 326.967C556.49 326.855 556.658 326.699 556.77 326.499C556.882 326.291 556.938 326.047 556.938 325.767ZM555.414 323.235C556.086 323.235 556.638 323.351 557.07 323.583C557.51 323.807 557.838 324.115 558.054 324.507C558.27 324.891 558.378 325.311 558.378 325.767C558.378 326.071 558.326 326.371 558.222 326.667C558.118 326.963 557.95 327.239 557.718 327.495C557.486 327.743 557.178 327.943 556.794 328.095C556.418 328.239 555.958 328.311 555.414 328.311H553.554V331.635H552.126V323.235H555.414ZM556.266 327.843L558.558 331.635H556.95L554.742 327.843H556.266ZM565.62 324.423H561.312V326.787H564.54V327.975H561.312V330.447H565.62V331.635H559.884V323.235H565.62V324.423ZM572.885 324.423H568.577V326.787H571.805V327.975H568.577V330.447H572.885V331.635H567.149V323.235H572.885V324.423Z" fill="#FFD1E7"/>
<rect x="0.5" y="1.13477" width="113" height="55" rx="27.5" fill="#00654F"/>
<rect x="0.5" y="1.13477" width="113" height="55" rx="27.5" stroke="#FFD1E7"/>
<path d="M25.688 26.7668C25.688 26.3508 25.564 26.0228 25.316 25.7828C25.068 25.5428 24.684 25.4228 24.164 25.4228H22.304V28.1228H24.164C24.516 28.1228 24.8 28.0708 25.016 27.9668C25.24 27.8548 25.408 27.6988 25.52 27.4988C25.632 27.2908 25.688 27.0468 25.688 26.7668ZM24.164 24.2348C24.836 24.2348 25.388 24.3508 25.82 24.5828C26.26 24.8068 26.588 25.1148 26.804 25.5068C27.02 25.8908 27.128 26.3108 27.128 26.7668C27.128 27.0708 27.076 27.3708 26.972 27.6668C26.868 27.9628 26.7 28.2388 26.468 28.4948C26.236 28.7428 25.928 28.9428 25.544 29.0948C25.168 29.2388 24.708 29.3108 24.164 29.3108H22.304V32.6348H20.876V24.2348H24.164ZM25.016 28.8428L27.308 32.6348H25.7L23.492 28.8428H25.016ZM34.3698 25.4228H30.0618V27.7868H33.2898V28.9748H30.0618V31.4468H34.3698V32.6348H28.6338V24.2348H34.3698V25.4228ZM41.6354 25.4228H37.3274V27.7868H40.5554V28.9748H37.3274V31.4468H41.6354V32.6348H35.8994V24.2348H41.6354V25.4228ZM44.5931 24.2348V31.4468H48.3611V32.6348H43.1651V24.2348H44.5931ZM50.5001 30.3308C50.5481 30.5548 50.6401 30.7588 50.7761 30.9428C50.9201 31.1188 51.1081 31.2588 51.3401 31.3628C51.5801 31.4668 51.8641 31.5188 52.1921 31.5188C52.6961 31.5188 53.0721 31.4028 53.3201 31.1708C53.5681 30.9308 53.6921 30.6508 53.6921 30.3308C53.6921 30.0668 53.6121 29.8468 53.4521 29.6708C53.3001 29.4948 53.0841 29.3468 52.8041 29.2268C52.5241 29.0988 52.2041 28.9788 51.8441 28.8668C51.5161 28.7708 51.2001 28.6708 50.8961 28.5668C50.5921 28.4548 50.3161 28.3188 50.0681 28.1588C49.8281 27.9908 49.6361 27.7788 49.4921 27.5228C49.3481 27.2588 49.2801 26.9308 49.2881 26.5388C49.2881 26.0268 49.4081 25.5948 49.6481 25.2428C49.8881 24.8828 50.2241 24.6108 50.6561 24.4268C51.0881 24.2428 51.5841 24.1508 52.1441 24.1508C52.6161 24.1508 53.0401 24.2188 53.4161 24.3548C53.8001 24.4828 54.1241 24.6748 54.3881 24.9308C54.6521 25.1788 54.8481 25.4868 54.9761 25.8548L53.6681 26.2868C53.6201 26.1108 53.5241 25.9548 53.3801 25.8188C53.2361 25.6748 53.0561 25.5628 52.8401 25.4828C52.6321 25.4028 52.4041 25.3588 52.1561 25.3508C51.8841 25.3428 51.6401 25.3828 51.4241 25.4708C51.2161 25.5588 51.0481 25.6868 50.9201 25.8548C50.7921 26.0148 50.7281 26.2028 50.7281 26.4188C50.7281 26.6668 50.8001 26.8628 50.9441 27.0068C51.0881 27.1428 51.2761 27.2588 51.5081 27.3548C51.7481 27.4428 52.0121 27.5348 52.3001 27.6308C52.6361 27.7268 52.9681 27.8388 53.2961 27.9668C53.6321 28.0868 53.9361 28.2428 54.2081 28.4348C54.4881 28.6188 54.7121 28.8548 54.8801 29.1428C55.0481 29.4308 55.1321 29.7908 55.1321 30.2228C55.1321 30.6868 55.0241 31.1068 54.8081 31.4828C54.6001 31.8588 54.2801 32.1588 53.8481 32.3828C53.4161 32.6068 52.8801 32.7188 52.2401 32.7188C51.7201 32.7188 51.2441 32.6428 50.8121 32.4908C50.3881 32.3308 50.0321 32.1068 49.7441 31.8188C49.4641 31.5228 49.2801 31.1748 49.1921 30.7748L50.5001 30.3308Z" fill="#FFD1E7"/>
<path d="M89.5758 29.2391V28.1405H94V29.2391H89.5758ZM91.1596 38.6348L87.601 35.9701L88.2784 35.1073L91.8371 37.7723L91.1596 38.6348ZM88.2209 22.1541L87.5438 21.2915L91.0506 18.6348L91.7277 19.4976L88.2209 22.1541ZM71.9328 37.2062V31.7666H69.9662C69.4351 31.7666 68.9746 31.5705 68.5848 31.1783C68.1949 30.7862 68 30.323 68 29.7887V27.5908C68 27.0566 68.1949 26.5933 68.5848 26.2012C68.9746 25.8091 69.4351 25.613 69.9662 25.613H75.5923L81.2184 22.2612V35.1183L75.5923 31.7666H73.025V37.2062H71.9328ZM80.1259 33.1733V24.2062L75.8873 26.7119H69.9662C69.7478 26.7119 69.5475 26.8035 69.3655 26.9866C69.1835 27.1696 69.0925 27.3711 69.0925 27.5908V29.7887C69.0925 30.0085 69.1835 30.2099 69.3655 30.393C69.5475 30.5761 69.7478 30.6676 69.9662 30.6676H75.8873L80.1259 33.1733ZM83.731 32.8162V24.5633C84.2063 25.0067 84.5892 25.5887 84.8796 26.3094C85.17 27.0301 85.3152 27.8236 85.3152 28.6898C85.3152 29.556 85.17 30.3494 84.8796 31.0701C84.5892 31.7908 84.2063 32.3729 83.731 32.8162Z" fill="#FFD1E7"/>
<rect x="475.5" y="46.1348" width="93" height="55" rx="27.5" fill="#FFD1E7"/>
<rect x="475.5" y="46.1348" width="93" height="55" rx="27.5" stroke="#00292D"/>
<path d="M500.688 71.7668C500.688 71.3508 500.564 71.0228 500.316 70.7828C500.068 70.5428 499.684 70.4228 499.164 70.4228H497.304V73.1228H499.164C499.516 73.1228 499.8 73.0708 500.016 72.9668C500.24 72.8548 500.408 72.6988 500.52 72.4988C500.632 72.2908 500.688 72.0468 500.688 71.7668ZM499.164 69.2348C499.836 69.2348 500.388 69.3508 500.82 69.5828C501.26 69.8068 501.588 70.1148 501.804 70.5068C502.02 70.8908 502.128 71.3108 502.128 71.7668C502.128 72.0708 502.076 72.3708 501.972 72.6668C501.868 72.9628 501.7 73.2388 501.468 73.4948C501.236 73.7428 500.928 73.9428 500.544 74.0948C500.168 74.2388 499.708 74.3108 499.164 74.3108H497.304V77.6348H495.876V69.2348H499.164ZM500.016 73.8428L502.308 77.6348H500.7L498.492 73.8428H500.016ZM509.37 70.4228H505.062V72.7868H508.29V73.9748H505.062V76.4468H509.37V77.6348H503.634V69.2348H509.37V70.4228ZM511.859 75.3308C511.907 75.5548 511.999 75.7588 512.135 75.9428C512.279 76.1188 512.467 76.2588 512.699 76.3628C512.939 76.4668 513.223 76.5188 513.551 76.5188C514.055 76.5188 514.431 76.4028 514.679 76.1708C514.927 75.9308 515.051 75.6508 515.051 75.3308C515.051 75.0668 514.971 74.8468 514.811 74.6708C514.659 74.4948 514.443 74.3468 514.163 74.2268C513.883 74.0988 513.563 73.9788 513.203 73.8668C512.875 73.7708 512.559 73.6708 512.255 73.5668C511.951 73.4548 511.675 73.3188 511.427 73.1588C511.187 72.9908 510.995 72.7788 510.851 72.5228C510.707 72.2588 510.639 71.9308 510.647 71.5388C510.647 71.0268 510.767 70.5948 511.007 70.2428C511.247 69.8828 511.583 69.6108 512.015 69.4268C512.447 69.2428 512.943 69.1508 513.503 69.1508C513.975 69.1508 514.399 69.2188 514.775 69.3548C515.159 69.4828 515.483 69.6748 515.747 69.9308C516.011 70.1788 516.207 70.4868 516.335 70.8548L515.027 71.2868C514.979 71.1108 514.883 70.9548 514.739 70.8188C514.595 70.6748 514.415 70.5628 514.199 70.4828C513.991 70.4028 513.763 70.3588 513.515 70.3508C513.243 70.3428 512.999 70.3828 512.783 70.4708C512.575 70.5588 512.407 70.6868 512.279 70.8548C512.151 71.0148 512.087 71.2028 512.087 71.4188C512.087 71.6668 512.159 71.8628 512.303 72.0068C512.447 72.1428 512.635 72.2588 512.867 72.3548C513.107 72.4428 513.371 72.5348 513.659 72.6308C513.995 72.7268 514.327 72.8388 514.655 72.9668C514.991 73.0868 515.295 73.2428 515.567 73.4348C515.847 73.6188 516.071 73.8548 516.239 74.1428C516.407 74.4308 516.491 74.7908 516.491 75.2228C516.491 75.6868 516.383 76.1068 516.167 76.4828C515.959 76.8588 515.639 77.1588 515.207 77.3828C514.775 77.6068 514.239 77.7188 513.599 77.7188C513.079 77.7188 512.603 77.6428 512.171 77.4908C511.747 77.3308 511.391 77.1068 511.103 76.8188C510.823 76.5228 510.639 76.1748 510.551 75.7748L511.859 75.3308ZM523.632 70.4228H519.324V72.7868H522.552V73.9748H519.324V76.4468H523.632V77.6348H517.896V69.2348H523.632V70.4228ZM526.709 68.5508C526.781 68.0628 526.941 67.7028 527.189 67.4708C527.445 67.2308 527.745 67.1108 528.089 67.1108C528.313 67.1108 528.497 67.1548 528.641 67.2428C528.793 67.3308 528.933 67.4188 529.061 67.5068C529.197 67.5948 529.345 67.6388 529.505 67.6388C529.641 67.6388 529.753 67.5988 529.841 67.5188C529.937 67.4388 529.997 67.3108 530.021 67.1348H530.813C530.741 67.6148 530.581 67.9748 530.333 68.2148C530.085 68.4548 529.785 68.5748 529.433 68.5748C529.209 68.5748 529.021 68.5308 528.869 68.4428C528.725 68.3468 528.585 68.2548 528.449 68.1668C528.321 68.0708 528.177 68.0228 528.017 68.0228C527.889 68.0228 527.777 68.0668 527.681 68.1548C527.585 68.2428 527.525 68.3748 527.501 68.5508H526.709ZM531.953 69.2348V77.6348H530.501L526.589 71.4788V77.6348H525.161V69.2348H526.625L530.537 75.3668V69.2348H531.953ZM537.352 70.4228H536.92L534.4 77.6348H532.936L535.912 69.2348H538.336L541.324 77.6348H539.86L537.352 70.4228ZM534.568 74.4068H539.464V75.5828H534.568V74.4068ZM543.242 75.3308C543.29 75.5548 543.382 75.7588 543.518 75.9428C543.662 76.1188 543.85 76.2588 544.082 76.3628C544.322 76.4668 544.606 76.5188 544.934 76.5188C545.438 76.5188 545.814 76.4028 546.062 76.1708C546.31 75.9308 546.434 75.6508 546.434 75.3308C546.434 75.0668 546.354 74.8468 546.194 74.6708C546.042 74.4948 545.826 74.3468 545.546 74.2268C545.266 74.0988 544.946 73.9788 544.586 73.8668C544.258 73.7708 543.942 73.6708 543.638 73.5668C543.334 73.4548 543.058 73.3188 542.81 73.1588C542.57 72.9908 542.378 72.7788 542.234 72.5228C542.09 72.2588 542.022 71.9308 542.03 71.5388C542.03 71.0268 542.15 70.5948 542.39 70.2428C542.63 69.8828 542.966 69.6108 543.398 69.4268C543.83 69.2428 544.326 69.1508 544.886 69.1508C545.358 69.1508 545.782 69.2188 546.158 69.3548C546.542 69.4828 546.866 69.6748 547.13 69.9308C547.394 70.1788 547.59 70.4868 547.718 70.8548L546.41 71.2868C546.362 71.1108 546.266 70.9548 546.122 70.8188C545.978 70.6748 545.798 70.5628 545.582 70.4828C545.374 70.4028 545.146 70.3588 544.898 70.3508C544.626 70.3428 544.382 70.3828 544.166 70.4708C543.958 70.5588 543.79 70.6868 543.662 70.8548C543.534 71.0148 543.47 71.2028 543.47 71.4188C543.47 71.6668 543.542 71.8628 543.686 72.0068C543.83 72.1428 544.018 72.2588 544.25 72.3548C544.49 72.4428 544.754 72.5348 545.042 72.6308C545.378 72.7268 545.71 72.8388 546.038 72.9668C546.374 73.0868 546.678 73.2428 546.95 73.4348C547.23 73.6188 547.454 73.8548 547.622 74.1428C547.79 74.4308 547.874 74.7908 547.874 75.2228C547.874 75.6868 547.766 76.1068 547.55 76.4828C547.342 76.8588 547.022 77.1588 546.59 77.3828C546.158 77.6068 545.622 77.7188 544.982 77.7188C544.462 77.7188 543.986 77.6428 543.554 77.4908C543.13 77.3308 542.774 77.1068 542.486 76.8188C542.206 76.5228 542.022 76.1748 541.934 75.7748L543.242 75.3308Z" fill="#00292D"/>
<rect x="456.5" y="230.135" width="55" height="55" rx="27.5" fill="#00292D"/>
<rect x="456.5" y="230.135" width="55" height="55" rx="27.5" stroke="#FFD1E7"/>
<path d="M487.645 256.298C488.001 256.298 488.309 256.17 488.567 255.912C488.826 255.654 488.955 255.341 488.955 254.974C488.955 254.606 488.824 254.295 488.562 254.041C488.299 253.787 487.99 253.66 487.633 253.66C487.277 253.66 486.969 253.789 486.71 254.046C486.452 254.304 486.322 254.617 486.322 254.985C486.322 255.353 486.454 255.664 486.716 255.917C486.979 256.171 487.288 256.298 487.645 256.298ZM479.104 256.298C479.46 256.298 479.768 256.17 480.026 255.912C480.285 255.654 480.415 255.341 480.415 254.974C480.415 254.606 480.283 254.295 480.021 254.041C479.758 253.787 479.449 253.66 479.092 253.66C478.736 253.66 478.428 253.789 478.17 254.046C477.911 254.304 477.781 254.617 477.781 254.985C477.781 255.353 477.913 255.664 478.175 255.917C478.438 256.171 478.747 256.298 479.104 256.298ZM486.683 263.453C487.681 262.81 488.436 261.95 488.946 260.874H477.791C478.306 261.95 479.062 262.81 480.057 263.453C481.053 264.097 482.157 264.418 483.368 264.418C484.58 264.418 485.685 264.097 486.683 263.453ZM483.381 269.635C481.798 269.635 480.32 269.336 478.945 268.738C477.571 268.14 476.369 267.324 475.338 266.288C474.307 265.253 473.493 264.049 472.896 262.676C472.299 261.304 472 259.829 472 258.251C472 256.673 472.299 255.191 472.898 253.804C473.497 252.418 474.31 251.212 475.337 250.186C476.364 249.16 477.567 248.348 478.947 247.749C480.327 247.151 481.801 246.852 483.368 246.852C483.602 246.852 483.829 246.859 484.051 246.875C484.272 246.89 484.491 246.913 484.707 246.944C484.667 247.095 484.628 247.255 484.59 247.422C484.551 247.589 484.519 247.749 484.493 247.903C484.3 247.877 484.113 247.858 483.931 247.845C483.749 247.832 483.561 247.825 483.368 247.825C480.488 247.825 478.035 248.836 476.01 250.857C473.984 252.879 472.972 255.335 472.972 258.225C472.972 261.115 473.985 263.577 476.013 265.61C478.041 267.644 480.497 268.661 483.381 268.661C486.265 268.661 488.717 267.647 490.736 265.618C492.755 263.589 493.765 261.131 493.765 258.245C493.765 257.775 493.738 257.33 493.683 256.91C493.628 256.491 493.547 256.069 493.442 255.644C493.596 255.592 493.749 255.537 493.9 255.48C494.051 255.422 494.205 255.358 494.36 255.288C494.48 255.772 494.573 256.255 494.638 256.738C494.704 257.221 494.737 257.723 494.737 258.243C494.737 259.814 494.439 261.293 493.842 262.679C493.245 264.065 492.436 265.271 491.413 266.296C490.39 267.322 489.187 268.134 487.805 268.735C486.422 269.335 484.948 269.635 483.381 269.635ZM491.623 253.132L487.882 249.383C487.64 249.141 487.474 248.889 487.383 248.627C487.291 248.365 487.245 248.102 487.245 247.84C487.245 247.266 487.449 246.755 487.856 246.307C488.263 245.859 488.785 245.635 489.422 245.635C489.928 245.635 490.326 245.752 490.615 245.985C490.905 246.219 491.24 246.527 491.623 246.91C491.995 246.537 492.328 246.231 492.621 245.993C492.915 245.754 493.319 245.635 493.835 245.635C494.493 245.635 495.018 245.859 495.411 246.308C495.804 246.757 496 247.268 496 247.842C496 248.111 495.949 248.38 495.847 248.649C495.745 248.918 495.584 249.163 495.364 249.383L491.623 253.132Z" fill="#FFD1E7"/>
<rect x="50.5689" y="277.401" width="55" height="55" rx="27.5" transform="rotate(-8.57145 50.5689 277.401)" fill="#FFFDF6"/>
<rect x="50.5689" y="277.401" width="55" height="55" rx="27.5" transform="rotate(-8.57145 50.5689 277.401)" stroke="#00654F"/>
<path d="M79.221 302.69L80.2053 302.542L79.4834 297.752L78.499 297.9L79.221 302.69ZM74.1742 302.102C73.1912 301.78 72.3423 301.232 71.6273 300.458C70.9126 299.684 70.476 298.772 70.3175 297.721C70.1165 296.387 70.4018 295.182 71.1734 294.106C71.9451 293.031 72.9856 292.394 74.2949 292.197C74.545 292.159 74.7976 292.145 75.0526 292.153C75.3078 292.162 75.5635 292.176 75.8196 292.195L76.1591 292.211L76.2901 291.878C76.6306 291.031 77.1253 290.312 77.7742 289.718C78.4232 289.125 79.1889 288.762 80.0715 288.629C80.954 288.496 81.7969 288.617 82.6002 288.991C83.4032 289.365 84.0922 289.907 84.6671 290.615L84.8905 290.895L85.1855 290.783C85.4146 290.681 85.6476 290.591 85.8845 290.513C86.1214 290.435 86.3715 290.376 86.6347 290.337C87.9211 290.143 89.0986 290.445 90.167 291.242C91.2356 292.04 91.8718 293.115 92.0756 294.467C92.2341 295.518 92.0893 296.514 91.6413 297.455C91.1932 298.395 90.5385 299.164 89.6771 299.76L90.6429 306.168L75.1392 308.504L74.1742 302.102ZM84.069 301.959L85.0533 301.811L84.3314 297.021L83.3471 297.17L84.069 301.959ZM75.9657 307.309L89.5007 305.269L88.5939 299.252L89.5018 298.597C90.1174 298.162 90.5773 297.59 90.8814 296.881C91.1857 296.172 91.2796 295.431 91.163 294.657C90.9979 293.562 90.4681 292.707 89.5737 292.094C88.6792 291.481 87.7012 291.255 86.6398 291.415C86.4314 291.446 86.229 291.489 86.0327 291.544C85.8361 291.599 85.6546 291.67 85.4883 291.757L84.6245 292.154L83.9004 291.257C83.449 290.689 82.9007 290.251 82.2557 289.944C81.6106 289.637 80.9344 289.536 80.2272 289.643C79.5198 289.75 78.9063 290.044 78.3869 290.527C77.8675 291.01 77.4758 291.589 77.2119 292.265L76.7843 293.336L75.8099 293.216C75.6187 293.177 75.4244 293.162 75.227 293.169C75.0298 293.176 74.8237 293.196 74.6087 293.228C73.5472 293.388 72.6855 293.897 72.0235 294.753C71.3615 295.61 71.1115 296.576 71.2733 297.65C71.3912 298.432 71.6989 299.117 72.1964 299.704C72.6939 300.291 73.3043 300.711 74.0277 300.963L75.0589 301.292L75.9657 307.309ZM75.1392 308.504L76.1236 308.356L76.7281 312.367L90.2631 310.327L89.6586 306.316L90.6429 306.168L91.4004 311.193L75.8966 313.53L75.1392 308.504Z" fill="#00654F"/>
<rect x="13.6921" y="213.203" width="55" height="55" rx="27.5" transform="rotate(8.49455 13.6921 213.203)" fill="#FFD1E7"/>
<rect x="13.6921" y="213.203" width="55" height="55" rx="27.5" transform="rotate(8.49455 13.6921 213.203)" stroke="#00292D"/>
<path d="M37.3854 244.83L43.3253 240.805L37.3854 236.779L37.3854 244.83ZM45.6644 252.771L46.1395 252.771L46.2849 253.731L26.8179 256.155L24.5195 238.596L27.9798 238.258L27.9798 239.315L25.7223 239.515L27.6757 255.008L45.6644 252.771ZM30.2961 250.417L30.2961 232.155L48.5195 232.155L48.5195 250.417L30.2961 250.417ZM31.3176 249.393L47.498 249.393L47.498 233.178L31.3176 233.178L31.3176 249.393Z" fill="#00292D"/>
</svg>
