<svg width="329" height="329" viewBox="0 0 329 329" fill="none" xmlns="http://www.w3.org/2000/svg">
<g filter="url(#filter0_d_172_383)">
<rect x="87.953" y="16.8276" width="175.004" height="175.004" rx="28" transform="rotate(6.9333 87.953 16.8276)" fill="#FFF7F3" shape-rendering="crispEdges"/>
<g filter="url(#filter1_d_172_383)">
<rect x="98.4167" y="30.1884" width="152" height="151" rx="28" transform="rotate(6.9333 98.4167 30.1884)" fill="#FFE1D1"/>
<path d="M127.404 128.557C118.917 127.525 114.034 121.29 114.999 113.348L117.661 91.4595L124.61 92.3045L122.039 113.449C121.441 118.363 123.412 121.624 128.177 122.204C132.942 122.783 135.637 120.089 136.234 115.175L138.805 94.0307L145.754 94.8757L143.092 116.764C142.127 124.706 135.892 129.589 127.404 128.557ZM162.818 132.863C152.494 131.608 145.679 122.62 146.886 112.693C148.099 102.716 156.876 95.5733 167.199 96.8288C173.106 97.547 176.841 99.9656 179.292 103.84L173.809 107.505C172.17 105.24 169.641 103.674 166.415 103.281C159.714 102.466 154.856 107.215 154.083 113.568C153.31 119.921 156.89 125.695 163.59 126.51C169.1 127.18 172.888 125.022 174.34 119.708L162.912 118.419L163.672 112.165L181.789 114.368C181.811 115.429 181.699 117.178 181.566 118.27C180.395 127.899 173.241 134.131 162.818 132.863ZM199.898 137.372C189.574 136.117 182.759 127.129 183.966 117.202C185.179 107.225 193.559 100.034 204.28 101.338C209.938 102.026 213.648 104.24 216.322 108.343L210.889 112.014C209.07 109.576 206.622 108.171 203.495 107.79C196.795 106.975 191.936 111.724 191.163 118.077C190.391 124.43 193.982 130.105 200.831 130.938C204.207 131.348 206.877 130.515 209.183 128.529L213.721 133.462C210.704 136.319 205.953 138.109 199.898 137.372Z" fill="#FF6B1C"/>
</g>
</g>
<defs>
<filter id="filter0_d_172_383" x="-3.17241" y="-3.17241" width="334.85" height="334.85" filterUnits="userSpaceOnUse" color-interpolation-filters="sRGB">
<feFlood flood-opacity="0" result="BackgroundImageFix"/>
<feColorMatrix in="SourceAlpha" type="matrix" values="0 0 0 0 0 0 0 0 0 0 0 0 0 0 0 0 0 0 127 0" result="hardAlpha"/>
<feOffset dy="50"/>
<feGaussianBlur stdDeviation="35"/>
<feComposite in2="hardAlpha" operator="out"/>
<feColorMatrix type="matrix" values="0 0 0 0 0 0 0 0 0 0 0 0 0 0 0 0 0 0 0.06 0"/>
<feBlend mode="normal" in2="BackgroundImageFix" result="effect1_dropShadow_172_383"/>
<feBlend mode="normal" in="SourceGraphic" in2="effect1_dropShadow_172_383" result="shape"/>
</filter>
<filter id="filter1_d_172_383" x="68.1889" y="22.1884" width="193.116" height="192.244" filterUnits="userSpaceOnUse" color-interpolation-filters="sRGB">
<feFlood flood-opacity="0" result="BackgroundImageFix"/>
<feColorMatrix in="SourceAlpha" type="matrix" values="0 0 0 0 0 0 0 0 0 0 0 0 0 0 0 0 0 0 127 0" result="hardAlpha"/>
<feOffset dy="4"/>
<feGaussianBlur stdDeviation="6"/>
<feComposite in2="hardAlpha" operator="out"/>
<feColorMatrix type="matrix" values="0 0 0 0 1 0 0 0 0 0.105882 0 0 0 0 0.537255 0 0 0 0.06 0"/>
<feBlend mode="normal" in2="BackgroundImageFix" result="effect1_dropShadow_172_383"/>
<feBlend mode="normal" in="SourceGraphic" in2="effect1_dropShadow_172_383" result="shape"/>
</filter>
</defs>
</svg>
