<svg width="457" height="585" viewBox="0 0 457 585" fill="none" xmlns="http://www.w3.org/2000/svg">
<g filter="url(#filter0_d_293_5906)">
<rect x="19.5908" y="13.9933" width="417" height="545.317" rx="24" fill="#FFD1E7" shape-rendering="crispEdges"/>
<path d="M19.5908 33.5839C19.5908 22.7643 28.3618 13.9933 39.1814 13.9933H417C427.82 13.9933 436.591 22.7643 436.591 33.5839V86.7584H19.5908V33.5839Z" fill="#FFFDF6"/>
<rect x="40.1602" y="28.6637" width="46.2291" height="46.2291" rx="23.1145" fill="#FF1B89"/>
<path d="M63.1196 44.0057L63.1492 44.0046C65.4307 43.9356 67.7971 44.1485 69.6682 45.5805C70.5872 46.2838 69.2002 48.5309 68.6207 48.4887C68.4148 48.4738 66.8262 47.6625 66.42 47.5179C65.555 47.2043 64.6403 47.037 63.7162 47.0235C62.9527 47.0167 62.1945 47.0829 61.6711 47.6438C61.471 47.8583 61.2559 48.2279 61.293 48.4972C61.5249 50.1797 65.4183 50.5959 66.808 51.2088C67.6991 51.5521 68.5569 51.9268 69.2486 52.5945C70.9113 54.1991 71.1165 56.6135 69.371 58.2458C67.7998 59.7151 65.403 60.0184 63.3086 59.9917C61.4893 59.9684 58.6128 59.2628 57.2313 58.159C57.028 57.9966 56.5502 57.605 56.5936 57.3338C56.6935 56.7084 57.2348 55.5884 57.6891 55.1054C57.7945 54.9935 57.9754 54.9244 58.101 54.9867C58.4968 55.1831 58.948 55.5051 59.3289 55.7125C60.6015 56.4053 62.1646 56.963 63.6415 56.9632C64.3419 56.9633 65.4318 56.832 65.9502 56.3386C66.1684 56.1309 66.3662 55.6968 66.3392 55.4114C66.1913 53.8441 61.9417 53.2695 60.6336 52.6246C59.7946 52.315 59.1707 51.945 58.4743 51.4016C56.7762 50.0767 56.8952 47.3534 58.3231 45.8747C59.426 44.7326 61.4816 44.0777 63.1196 44.0057Z" fill="#FFFDF6"/>
<path d="M100.833 49.0794C100.254 49.0794 99.7624 48.9922 99.358 48.8177C98.9615 48.6354 98.6562 48.3895 98.4422 48.0803C98.2281 47.771 98.1051 47.4221 98.0734 47.0336H99.6673C99.699 47.1842 99.7585 47.323 99.8457 47.4499C99.9408 47.5688 100.068 47.668 100.226 47.7472C100.385 47.8186 100.579 47.8543 100.809 47.8543C101.023 47.8543 101.202 47.8265 101.344 47.771C101.487 47.7076 101.594 47.6243 101.666 47.5213C101.737 47.4102 101.773 47.2953 101.773 47.1763C101.773 46.9939 101.721 46.8552 101.618 46.76C101.523 46.6649 101.384 46.5895 101.202 46.534C101.019 46.4706 100.797 46.419 100.536 46.3794C100.21 46.316 99.9091 46.2446 99.6316 46.1653C99.354 46.0781 99.1082 45.9671 98.8941 45.8323C98.68 45.6975 98.5135 45.527 98.3946 45.3208C98.2836 45.1146 98.2281 44.8609 98.2281 44.5596C98.2281 44.2027 98.3232 43.8856 98.5135 43.608C98.7118 43.3226 98.9933 43.1005 99.358 42.9419C99.7307 42.7754 100.175 42.6922 100.69 42.6922C101.428 42.6922 102.006 42.8547 102.427 43.1798C102.847 43.5049 103.097 43.949 103.176 44.512H101.666C101.626 44.3296 101.519 44.1869 101.344 44.0838C101.178 43.9807 100.956 43.9292 100.678 43.9292C100.385 43.9292 100.163 43.9807 100.012 44.0838C99.8615 44.1869 99.7862 44.3257 99.7862 44.5001C99.7862 44.6111 99.8259 44.7142 99.9052 44.8094C99.9924 44.9045 100.127 44.9878 100.31 45.0591C100.492 45.1226 100.726 45.1781 101.011 45.2257C101.519 45.3208 101.947 45.4318 102.296 45.5587C102.645 45.6776 102.91 45.8561 103.093 46.0939C103.283 46.3239 103.378 46.653 103.378 47.0812C103.378 47.4856 103.271 47.8384 103.057 48.1398C102.851 48.4332 102.558 48.6631 102.177 48.8296C101.804 48.9961 101.356 49.0794 100.833 49.0794ZM104.807 48.9367V42.8349H106.413V48.9367H104.807ZM105.604 42.0499C105.319 42.0499 105.081 41.9627 104.891 41.7882C104.708 41.6138 104.617 41.3997 104.617 41.1459C104.617 40.8763 104.708 40.6582 104.891 40.4917C105.081 40.3252 105.319 40.2419 105.604 40.2419C105.898 40.2419 106.136 40.3252 106.318 40.4917C106.508 40.6582 106.603 40.8763 106.603 41.1459C106.603 41.3997 106.508 41.6138 106.318 41.7882C106.136 41.9627 105.898 42.0499 105.604 42.0499ZM108.047 48.9367V42.8349H109.462L109.581 43.7864C109.756 43.4534 110.01 43.1878 110.343 42.9895C110.684 42.7913 111.088 42.6922 111.556 42.6922C112.048 42.6922 112.464 42.7953 112.805 43.0014C113.146 43.1997 113.407 43.4931 113.59 43.8816C113.772 44.2622 113.863 44.7301 113.863 45.2851V48.9367H112.258V45.4279C112.258 44.9917 112.155 44.6547 111.948 44.4168C111.742 44.171 111.433 44.0481 111.021 44.0481C110.767 44.0481 110.537 44.1076 110.331 44.2265C110.125 44.3375 109.958 44.5041 109.831 44.7261C109.712 44.9481 109.653 45.2217 109.653 45.5468V48.9367H108.047ZM118.004 51.6962C117.425 51.6962 116.918 51.6248 116.482 51.4821C116.053 51.3473 115.72 51.1371 115.482 50.8517C115.252 50.5741 115.137 50.2292 115.137 49.8169C115.137 49.5314 115.209 49.2618 115.352 49.008C115.494 48.7622 115.704 48.5402 115.982 48.342C116.26 48.1358 116.6 47.9613 117.005 47.8186L117.647 48.6155C117.267 48.7265 116.993 48.8732 116.826 49.0556C116.668 49.238 116.589 49.4323 116.589 49.6384C116.589 49.8287 116.648 49.9873 116.767 50.1142C116.886 50.2411 117.052 50.3323 117.267 50.3878C117.481 50.4512 117.722 50.4829 117.992 50.4829C118.254 50.4829 118.48 50.4512 118.67 50.3878C118.868 50.3243 119.023 50.2292 119.134 50.1023C119.245 49.9834 119.3 49.8367 119.3 49.6622C119.3 49.4402 119.221 49.2618 119.063 49.127C118.912 48.9922 118.603 48.9089 118.135 48.8772C117.722 48.8455 117.358 48.8019 117.041 48.7464C116.723 48.6829 116.446 48.6116 116.208 48.5323C115.97 48.445 115.768 48.3539 115.601 48.2587C115.435 48.1556 115.3 48.0525 115.197 47.9494V47.6759L116.482 46.308L117.659 46.6768L116.125 48.1398L116.589 47.3428C116.668 47.3904 116.751 47.438 116.838 47.4856C116.926 47.5331 117.033 47.5768 117.16 47.6164C117.294 47.6481 117.465 47.6798 117.671 47.7116C117.885 47.7433 118.159 47.775 118.492 47.8067C119.015 47.8543 119.443 47.9494 119.776 48.0922C120.117 48.2349 120.367 48.4332 120.526 48.6869C120.684 48.9406 120.763 49.2539 120.763 49.6265C120.763 49.9834 120.664 50.3164 120.466 50.6257C120.276 50.9428 119.978 51.2006 119.574 51.3988C119.17 51.597 118.646 51.6962 118.004 51.6962ZM118.016 47.1406C117.516 47.1406 117.084 47.0415 116.719 46.8433C116.355 46.645 116.073 46.3794 115.875 46.0464C115.685 45.7054 115.589 45.3287 115.589 44.9164C115.589 44.5041 115.685 44.1314 115.875 43.7983C116.073 43.4574 116.355 43.1878 116.719 42.9895C117.084 42.7913 117.516 42.6922 118.016 42.6922C118.531 42.6922 118.967 42.7913 119.324 42.9895C119.689 43.1878 119.967 43.4574 120.157 43.7983C120.347 44.1314 120.442 44.5041 120.442 44.9164C120.442 45.3287 120.347 45.7054 120.157 46.0464C119.967 46.3794 119.689 46.645 119.324 46.8433C118.967 47.0415 118.531 47.1406 118.016 47.1406ZM118.016 45.9155C118.333 45.9155 118.583 45.8323 118.765 45.6657C118.956 45.4992 119.051 45.2534 119.051 44.9283C119.051 44.5953 118.956 44.3494 118.765 44.1909C118.583 44.0243 118.333 43.9411 118.016 43.9411C117.707 43.9411 117.453 44.0243 117.255 44.1909C117.064 44.3494 116.969 44.5953 116.969 44.9283C116.969 45.2534 117.064 45.4992 117.255 45.6657C117.453 45.8323 117.707 45.9155 118.016 45.9155ZM119.039 43.9649L118.777 42.8349H121.251V43.7864L119.039 43.9649ZM122.508 48.9367V40.3728H124.114V48.9367H122.508ZM127.986 49.0794C127.495 49.0794 127.078 48.9843 126.737 48.7939C126.397 48.5957 126.135 48.3102 125.952 47.9376C125.77 47.5569 125.679 47.0851 125.679 46.5221V42.8349H127.273V46.3437C127.273 46.8036 127.376 47.1486 127.582 47.3785C127.796 47.6085 128.105 47.7235 128.51 47.7235C128.771 47.7235 129.005 47.668 129.211 47.5569C129.418 47.4459 129.58 47.2794 129.699 47.0574C129.818 46.8353 129.878 46.5578 129.878 46.2248V42.8349H131.483V48.9367H130.068L129.949 47.9851C129.774 48.3182 129.521 48.5838 129.188 48.7821C128.855 48.9803 128.454 49.0794 127.986 49.0794ZM135.814 48.9367C135.402 48.9367 135.037 48.8732 134.72 48.7464C134.403 48.6116 134.157 48.3935 133.983 48.0922C133.808 47.7829 133.721 47.3627 133.721 46.8314V44.179H132.674V42.8349H133.721L133.899 41.1459H135.327V42.8349H136.92V44.179H135.327V46.8552C135.327 47.1248 135.386 47.3111 135.505 47.4142C135.624 47.5173 135.826 47.5688 136.112 47.5688H136.932V48.9367H135.814ZM141.032 49.0794C140.43 49.0794 139.898 48.9486 139.439 48.6869C138.987 48.4252 138.63 48.0565 138.368 47.5807C138.114 47.105 137.987 46.5578 137.987 45.9393C137.987 45.305 138.114 44.7459 138.368 44.2622C138.622 43.7706 138.975 43.386 139.427 43.1085C139.887 42.8309 140.422 42.6922 141.032 42.6922C141.635 42.6922 142.154 42.823 142.591 43.0847C143.035 43.3464 143.376 43.7071 143.613 44.1671C143.859 44.619 143.982 45.1345 143.982 45.7133C143.982 45.7926 143.982 45.8798 143.982 45.975C143.982 46.0701 143.974 46.1732 143.958 46.2842H139.129V45.297H142.365C142.349 44.8926 142.214 44.5754 141.96 44.3455C141.714 44.1076 141.409 43.9886 141.044 43.9886C140.767 43.9886 140.517 44.056 140.295 44.1909C140.073 44.3177 139.894 44.512 139.76 44.7737C139.633 45.0353 139.569 45.3644 139.569 45.7609V46.1058C139.569 46.4468 139.629 46.7402 139.748 46.986C139.867 47.2318 140.033 47.4261 140.247 47.5688C140.469 47.7036 140.727 47.771 141.02 47.771C141.33 47.771 141.576 47.7116 141.758 47.5926C141.94 47.4737 142.079 47.3151 142.174 47.1168H143.816C143.705 47.4895 143.518 47.8265 143.257 48.1279C142.995 48.4213 142.674 48.6552 142.293 48.8296C141.92 48.9961 141.5 49.0794 141.032 49.0794ZM145.321 48.9367V42.8349H146.737L146.856 43.7864C147.03 43.4534 147.284 43.1878 147.617 42.9895C147.958 42.7913 148.362 42.6922 148.83 42.6922C149.322 42.6922 149.738 42.7953 150.079 43.0014C150.42 43.1997 150.682 43.4931 150.864 43.8816C151.046 44.2622 151.138 44.7301 151.138 45.2851V48.9367H149.532V45.4279C149.532 44.9917 149.429 44.6547 149.223 44.4168C149.016 44.171 148.707 44.0481 148.295 44.0481C148.041 44.0481 147.811 44.1076 147.605 44.2265C147.399 44.3375 147.232 44.5041 147.105 44.7261C146.986 44.9481 146.927 45.2217 146.927 45.5468V48.9367H145.321ZM153.446 48.9961C153.153 48.9961 152.915 48.9089 152.733 48.7345C152.55 48.5521 152.459 48.3301 152.459 48.0684C152.459 47.8067 152.55 47.5887 152.733 47.4142C152.915 47.2318 153.153 47.1406 153.446 47.1406C153.74 47.1406 153.978 47.2318 154.16 47.4142C154.343 47.5887 154.434 47.8067 154.434 48.0684C154.434 48.3301 154.343 48.5521 154.16 48.7345C153.978 48.9089 153.74 48.9961 153.446 48.9961ZM156.952 48.9367L154.716 42.8349H156.405L157.939 47.4261L159.462 42.8349H161.139L158.903 48.9367H156.952ZM162.188 48.9367V42.8349H163.794V48.9367H162.188ZM162.985 42.0499C162.7 42.0499 162.462 41.9627 162.271 41.7882C162.089 41.6138 161.998 41.3997 161.998 41.1459C161.998 40.8763 162.089 40.6582 162.271 40.4917C162.462 40.3252 162.7 40.2419 162.985 40.2419C163.278 40.2419 163.516 40.3252 163.699 40.4917C163.889 40.6582 163.984 40.8763 163.984 41.1459C163.984 41.3997 163.889 41.6138 163.699 41.7882C163.516 41.9627 163.278 42.0499 162.985 42.0499ZM167.069 48.9367L164.833 42.8349H166.522L168.056 47.4261L169.579 42.8349H171.256L169.02 48.9367H167.069ZM173.908 49.0794C173.424 49.0794 173.02 48.9961 172.695 48.8296C172.369 48.6631 172.128 48.4411 171.969 48.1635C171.81 47.8781 171.731 47.5688 171.731 47.2358C171.731 46.8631 171.826 46.538 172.017 46.2605C172.207 45.9829 172.488 45.7649 172.861 45.6063C173.242 45.4477 173.713 45.3684 174.276 45.3684H175.739C175.739 45.0512 175.704 44.7935 175.632 44.5953C175.569 44.397 175.454 44.2503 175.288 44.1552C175.129 44.0521 174.903 44.0005 174.61 44.0005C174.316 44.0005 174.07 44.064 173.872 44.1909C173.674 44.3098 173.551 44.4961 173.503 44.7499H171.933C171.981 44.3296 172.12 43.9688 172.35 43.6675C172.587 43.3582 172.901 43.1204 173.289 42.9538C173.678 42.7794 174.122 42.6922 174.621 42.6922C175.192 42.6922 175.68 42.7873 176.084 42.9776C176.497 43.1679 176.81 43.4415 177.024 43.7983C177.238 44.1552 177.345 44.5913 177.345 45.1067V48.9367H176.001L175.823 48.0208C175.736 48.1715 175.628 48.3142 175.502 48.449C175.383 48.5759 175.244 48.6869 175.085 48.7821C174.935 48.8772 174.76 48.9486 174.562 48.9961C174.364 49.0517 174.146 49.0794 173.908 49.0794ZM174.288 47.8424C174.487 47.8424 174.665 47.8067 174.824 47.7354C174.99 47.6561 175.133 47.549 175.252 47.4142C175.371 47.2794 175.466 47.1248 175.537 46.9503C175.609 46.7679 175.656 46.5776 175.68 46.3794V46.3437H174.467C174.229 46.3437 174.031 46.3754 173.872 46.4389C173.721 46.5023 173.61 46.5935 173.539 46.7124C173.468 46.8235 173.432 46.9503 173.432 47.0931C173.432 47.2517 173.468 47.3865 173.539 47.4975C173.61 47.6085 173.71 47.6957 173.836 47.7591C173.971 47.8146 174.122 47.8424 174.288 47.8424ZM178.913 48.9367V42.8349H180.329L180.46 43.6199C180.65 43.3345 180.9 43.1085 181.209 42.9419C181.526 42.7754 181.883 42.6922 182.279 42.6922C182.581 42.6922 182.846 42.7318 183.076 42.8111C183.314 42.8825 183.524 42.9935 183.707 43.1442C183.889 43.2948 184.04 43.4812 184.159 43.7032C184.381 43.386 184.666 43.1402 185.015 42.9657C185.372 42.7834 185.757 42.6922 186.169 42.6922C186.692 42.6922 187.124 42.7953 187.465 43.0014C187.806 43.1997 188.064 43.4931 188.239 43.8816C188.413 44.2701 188.5 44.742 188.5 45.297V48.9367H186.906V45.4516C186.906 44.9997 186.811 44.6547 186.621 44.4168C186.431 44.171 186.149 44.0481 185.776 44.0481C185.531 44.0481 185.313 44.1076 185.122 44.2265C184.932 44.3455 184.781 44.5199 184.67 44.7499C184.567 44.9719 184.516 45.2455 184.516 45.5706V48.9367H182.91V45.4516C182.91 44.9997 182.815 44.6547 182.624 44.4168C182.434 44.171 182.149 44.0481 181.768 44.0481C181.53 44.0481 181.316 44.1076 181.126 44.2265C180.935 44.3455 180.785 44.5199 180.674 44.7499C180.571 44.9719 180.519 45.2455 180.519 45.5706V48.9367H178.913ZM192.907 49.0794C192.328 49.0794 191.809 48.9446 191.349 48.675C190.897 48.4054 190.54 48.0287 190.278 47.545C190.016 47.0613 189.886 46.5102 189.886 45.8917C189.886 45.2574 190.016 44.7023 190.278 44.2265C190.54 43.7428 190.901 43.3662 191.361 43.0966C191.82 42.827 192.34 42.6922 192.919 42.6922C193.505 42.6922 194.025 42.827 194.477 43.0966C194.937 43.3662 195.298 43.7428 195.559 44.2265C195.821 44.7023 195.952 45.2574 195.952 45.8917C195.952 46.5102 195.821 47.0613 195.559 47.545C195.298 48.0287 194.937 48.4054 194.477 48.675C194.025 48.9446 193.501 49.0794 192.907 49.0794ZM192.907 47.6878C193.184 47.6878 193.426 47.6204 193.632 47.4856C193.846 47.3508 194.013 47.1525 194.132 46.8909C194.251 46.6213 194.31 46.2882 194.31 45.8917C194.31 45.4873 194.251 45.1503 194.132 44.8807C194.013 44.6111 193.85 44.4129 193.644 44.286C193.438 44.1512 193.196 44.0838 192.919 44.0838C192.657 44.0838 192.419 44.1512 192.205 44.286C191.999 44.4129 191.832 44.6111 191.705 44.8807C191.586 45.1503 191.527 45.4873 191.527 45.8917C191.527 46.2803 191.586 46.6094 191.705 46.879C191.824 47.1486 191.987 47.3508 192.193 47.4856C192.407 47.6204 192.645 47.6878 192.907 47.6878ZM199.797 49.0794C199.218 49.0794 198.727 48.9922 198.322 48.8177C197.926 48.6354 197.621 48.3895 197.406 48.0803C197.192 47.771 197.069 47.4221 197.038 47.0336H198.632C198.663 47.1842 198.723 47.323 198.81 47.4499C198.905 47.5688 199.032 47.668 199.191 47.7472C199.349 47.8186 199.543 47.8543 199.773 47.8543C199.987 47.8543 200.166 47.8265 200.309 47.771C200.451 47.7076 200.558 47.6243 200.63 47.5213C200.701 47.4102 200.737 47.2953 200.737 47.1763C200.737 46.9939 200.685 46.8552 200.582 46.76C200.487 46.6649 200.348 46.5895 200.166 46.534C199.984 46.4706 199.762 46.419 199.5 46.3794C199.175 46.316 198.873 46.2446 198.596 46.1653C198.318 46.0781 198.073 45.9671 197.858 45.8323C197.644 45.6975 197.478 45.527 197.359 45.3208C197.248 45.1146 197.192 44.8609 197.192 44.5596C197.192 44.2027 197.287 43.8856 197.478 43.608C197.676 43.3226 197.958 43.1005 198.322 42.9419C198.695 42.7754 199.139 42.6922 199.654 42.6922C200.392 42.6922 200.971 42.8547 201.391 43.1798C201.811 43.5049 202.061 43.949 202.14 44.512H200.63C200.59 44.3296 200.483 44.1869 200.309 44.0838C200.142 43.9807 199.92 43.9292 199.643 43.9292C199.349 43.9292 199.127 43.9807 198.976 44.0838C198.826 44.1869 198.75 44.3257 198.75 44.5001C198.75 44.6111 198.79 44.7142 198.869 44.8094C198.957 44.9045 199.091 44.9878 199.274 45.0591C199.456 45.1226 199.69 45.1781 199.976 45.2257C200.483 45.3208 200.911 45.4318 201.26 45.5587C201.609 45.6776 201.875 45.8561 202.057 46.0939C202.247 46.3239 202.343 46.653 202.343 47.0812C202.343 47.4856 202.236 47.8384 202.021 48.1398C201.815 48.4332 201.522 48.6631 201.141 48.8296C200.769 48.9961 200.321 49.0794 199.797 49.0794Z" fill="#2D2936"/>
<path d="M97.9013 62.7666L100.428 55.9099H101.3L103.818 62.7666H102.936L100.859 56.9384L98.7633 62.7666H97.9013ZM99.0572 61.0034L99.2922 60.3373H102.397L102.632 61.0034H99.0572ZM104.807 62.7666V57.6534H105.552L105.611 58.5938C105.728 58.3587 105.878 58.1628 106.061 58.0061C106.251 57.8493 106.479 57.7318 106.747 57.6534C107.015 57.5751 107.315 57.5359 107.648 57.5359V58.3979H107.168C106.972 58.3979 106.783 58.424 106.6 58.4762C106.417 58.5285 106.251 58.6134 106.1 58.7309C105.957 58.8484 105.842 59.0084 105.758 59.2109C105.673 59.4133 105.63 59.6713 105.63 59.9847V62.7666H104.807ZM110.489 65.0391C110.025 65.0391 109.62 64.9803 109.274 64.8628C108.928 64.7518 108.657 64.5787 108.461 64.3436C108.272 64.1085 108.177 63.8179 108.177 63.4718C108.177 63.3086 108.206 63.1388 108.265 62.9625C108.33 62.7927 108.438 62.6262 108.588 62.4629C108.745 62.2997 108.964 62.1527 109.245 62.0221L109.862 62.3552C109.49 62.4988 109.248 62.6621 109.137 62.8449C109.032 63.0343 108.98 63.2172 108.98 63.3935C108.98 63.609 109.042 63.7885 109.166 63.9322C109.297 64.0759 109.473 64.1836 109.695 64.2555C109.924 64.3273 110.188 64.3632 110.489 64.3632C110.776 64.3632 111.024 64.324 111.233 64.2457C111.449 64.1738 111.612 64.0661 111.723 63.9224C111.84 63.7853 111.899 63.622 111.899 63.4327C111.899 63.1649 111.811 62.9527 111.635 62.796C111.458 62.6458 111.119 62.5576 110.616 62.5315C110.218 62.5054 109.885 62.4694 109.617 62.4237C109.356 62.378 109.137 62.3258 108.961 62.267C108.791 62.2017 108.647 62.1299 108.53 62.0515C108.419 61.9732 108.317 61.8915 108.226 61.8066V61.5813L109.186 60.641L109.95 60.8957L108.912 61.7772L109.039 61.405C109.111 61.4573 109.179 61.5062 109.245 61.552C109.31 61.5977 109.398 61.6401 109.509 61.6793C109.627 61.7119 109.787 61.7446 109.989 61.7772C110.192 61.8099 110.463 61.8393 110.802 61.8654C111.266 61.8981 111.638 61.9764 111.919 62.1005C112.2 62.2246 112.402 62.3943 112.526 62.6098C112.65 62.8253 112.712 63.0898 112.712 63.4033C112.712 63.6775 112.634 63.9387 112.477 64.1869C112.327 64.435 112.085 64.6375 111.752 64.7942C111.426 64.9575 111.005 65.0391 110.489 65.0391ZM110.479 61.1699C110.061 61.1699 109.705 61.0916 109.411 60.9348C109.124 60.7716 108.905 60.5528 108.755 60.2786C108.605 60.0043 108.53 59.6941 108.53 59.348C108.53 59.0084 108.605 58.7015 108.755 58.4273C108.912 58.153 109.134 57.9375 109.421 57.7808C109.715 57.6175 110.067 57.5359 110.479 57.5359C110.897 57.5359 111.249 57.6175 111.537 57.7808C111.824 57.9375 112.043 58.153 112.193 58.4273C112.343 58.7015 112.418 59.0084 112.418 59.348C112.418 59.6941 112.343 60.0043 112.193 60.2786C112.043 60.5528 111.824 60.7716 111.537 60.9348C111.249 61.0916 110.897 61.1699 110.479 61.1699ZM110.479 60.4941C110.838 60.4941 111.119 60.3994 111.321 60.21C111.524 60.0141 111.625 59.7268 111.625 59.348C111.625 58.9693 111.524 58.6885 111.321 58.5056C111.119 58.3162 110.838 58.2216 110.479 58.2216C110.133 58.2216 109.849 58.3162 109.627 58.5056C109.411 58.6885 109.303 58.9693 109.303 59.348C109.303 59.7268 109.408 60.0141 109.617 60.21C109.832 60.3994 110.12 60.4941 110.479 60.4941ZM111.331 58.3489L111.086 57.6534H113.104V58.2705L111.331 58.3489ZM116.03 62.8841C115.573 62.8841 115.168 62.7731 114.816 62.5511C114.463 62.329 114.185 62.0189 113.983 61.6205C113.787 61.2156 113.689 60.7455 113.689 60.21C113.689 59.668 113.787 59.1978 113.983 58.7995C114.185 58.3946 114.463 58.0844 114.816 57.8689C115.175 57.6469 115.586 57.5359 116.05 57.5359C116.546 57.5359 116.961 57.6469 117.294 57.8689C117.627 58.0844 117.878 58.3783 118.048 58.7505C118.224 59.1162 118.313 59.5178 118.313 59.9553C118.313 60.0206 118.313 60.0892 118.313 60.161C118.313 60.2263 118.309 60.3047 118.303 60.3961H114.306V59.7594H117.509C117.49 59.2631 117.34 58.8844 117.059 58.6232C116.784 58.3619 116.442 58.2313 116.03 58.2313C115.756 58.2313 115.501 58.2966 115.266 58.4273C115.038 58.5579 114.851 58.7538 114.708 59.015C114.564 59.2696 114.492 59.5929 114.492 59.9847V60.259C114.492 60.6834 114.564 61.0393 114.708 61.3267C114.851 61.614 115.038 61.8295 115.266 61.9732C115.501 62.1168 115.756 62.1886 116.03 62.1886C116.396 62.1886 116.683 62.1168 116.892 61.9732C117.108 61.8295 117.264 61.6271 117.362 61.3658H118.175C118.097 61.6597 117.96 61.9209 117.764 62.1495C117.568 62.378 117.323 62.5576 117.029 62.6882C116.742 62.8188 116.409 62.8841 116.03 62.8841ZM119.443 62.7666V57.6534H120.187L120.227 58.4664C120.377 58.1726 120.592 57.944 120.873 57.7808C121.16 57.6175 121.49 57.5359 121.862 57.5359C122.241 57.5359 122.571 57.6077 122.852 57.7514C123.133 57.895 123.351 58.1171 123.508 58.4175C123.665 58.7113 123.743 59.0835 123.743 59.5341V62.7666H122.92V59.6223C122.92 59.1652 122.809 58.8223 122.587 58.5938C122.365 58.3587 122.062 58.2411 121.676 58.2411C121.422 58.2411 121.187 58.3032 120.971 58.4273C120.756 58.5448 120.582 58.7244 120.452 58.966C120.328 59.2011 120.266 59.4917 120.266 59.8378V62.7666H119.443ZM127.085 62.7666C126.791 62.7666 126.536 62.7209 126.321 62.6294C126.105 62.538 125.939 62.3846 125.821 62.1691C125.71 61.947 125.655 61.6499 125.655 61.2777V58.3489H124.763V57.6534H125.655L125.762 56.38H126.477V57.6534H127.927V58.3489H126.477V61.2777C126.477 61.5846 126.539 61.7936 126.664 61.9046C126.788 62.0091 127.006 62.0613 127.32 62.0613H127.908V62.7666H127.085ZM129.135 62.7666V57.6534H129.958V62.7666H129.135ZM129.546 56.6543C129.383 56.6543 129.246 56.6021 129.135 56.4976C129.03 56.3866 128.978 56.2494 128.978 56.0862C128.978 55.9229 129.03 55.7923 129.135 55.6944C129.246 55.5899 129.383 55.5376 129.546 55.5376C129.703 55.5376 129.837 55.5899 129.948 55.6944C130.059 55.7923 130.114 55.9229 130.114 56.0862C130.114 56.2494 130.059 56.3866 129.948 56.4976C129.837 56.6021 129.703 56.6543 129.546 56.6543ZM131.419 62.7666V57.6534H132.164L132.203 58.4664C132.353 58.1726 132.569 57.944 132.849 57.7808C133.137 57.6175 133.466 57.5359 133.839 57.5359C134.217 57.5359 134.547 57.6077 134.828 57.7514C135.109 57.895 135.328 58.1171 135.484 58.4175C135.641 58.7113 135.719 59.0835 135.719 59.5341V62.7666H134.897V59.6223C134.897 59.1652 134.786 58.8223 134.564 58.5938C134.341 58.3587 134.038 58.2411 133.653 58.2411C133.398 58.2411 133.163 58.3032 132.947 58.4273C132.732 58.5448 132.559 58.7244 132.428 58.966C132.304 59.2011 132.242 59.4917 132.242 59.8378V62.7666H131.419ZM138.679 62.8841C138.287 62.8841 137.957 62.8123 137.69 62.6686C137.428 62.5184 137.233 62.3225 137.102 62.0809C136.971 61.8393 136.906 61.5781 136.906 61.2973C136.906 60.9577 136.991 60.6704 137.161 60.4353C137.337 60.2002 137.582 60.0206 137.895 59.8965C138.215 59.7725 138.584 59.7104 139.002 59.7104H140.285C140.285 59.3774 140.243 59.1031 140.158 58.8876C140.08 58.6656 139.952 58.5023 139.776 58.3979C139.6 58.2869 139.368 58.2313 139.081 58.2313C138.78 58.2313 138.522 58.3064 138.307 58.4566C138.098 58.6003 137.967 58.8158 137.915 59.1031H137.073C137.112 58.7636 137.226 58.4795 137.415 58.2509C137.611 58.0158 137.856 57.8395 138.15 57.722C138.444 57.5979 138.754 57.5359 139.081 57.5359C139.544 57.5359 139.926 57.6208 140.227 57.7906C140.527 57.9538 140.749 58.1856 140.893 58.486C141.036 58.7799 141.108 59.126 141.108 59.5243V62.7666H140.374L140.325 61.885C140.259 62.0221 140.174 62.1527 140.07 62.2768C139.972 62.3943 139.854 62.4988 139.717 62.5903C139.58 62.6817 139.423 62.7535 139.247 62.8058C139.077 62.858 138.888 62.8841 138.679 62.8841ZM138.797 62.1886C139.012 62.1886 139.211 62.1397 139.394 62.0417C139.577 61.9438 139.734 61.8132 139.864 61.6499C140.001 61.4801 140.106 61.2907 140.178 61.0818C140.25 60.8728 140.285 60.6573 140.285 60.4353V60.3471H139.071C138.764 60.3471 138.512 60.3863 138.317 60.4647C138.121 60.543 137.98 60.6508 137.895 60.7879C137.81 60.9251 137.768 61.0818 137.768 61.2581C137.768 61.4475 137.807 61.6107 137.886 61.7479C137.97 61.885 138.088 61.9927 138.238 62.0711C138.395 62.1495 138.581 62.1886 138.797 62.1886Z" fill="#2D2936"/>
<path d="M436.591 539.72C436.591 550.54 427.82 559.311 417 559.311L39.1814 559.311C28.3618 559.311 19.5908 550.54 19.5908 539.72L19.5908 503.338L436.591 503.338L436.591 539.72Z" fill="#FFFDF6"/>
<path d="M410.936 540.224L404.206 536.017L397.476 540.224V521.716C397.476 521.493 397.564 521.279 397.722 521.121C397.88 520.963 398.094 520.875 398.317 520.875H410.094C410.318 520.875 410.532 520.963 410.689 521.121C410.847 521.279 410.936 521.493 410.936 521.716V540.224Z" stroke="#797596" stroke-width="1.68251" stroke-linecap="round" stroke-linejoin="round"/>
<path d="M51.9747 539.382C51.9747 539.382 41.459 533.494 41.459 526.343C41.459 525.079 41.897 523.854 42.6984 522.876C43.4998 521.899 44.6152 521.229 45.8548 520.981C47.0943 520.733 48.3815 520.922 49.4973 521.516C50.613 522.111 51.4885 523.073 51.9747 524.24V524.24C52.4609 523.073 53.3364 522.111 54.4521 521.516C55.5679 520.922 56.8551 520.733 58.0946 520.981C59.3342 521.229 60.4496 521.899 61.251 522.876C62.0524 523.854 62.4904 525.079 62.4904 526.343C62.4904 533.494 51.9747 539.382 51.9747 539.382Z" stroke="#797596" stroke-width="1.68251" stroke-linecap="round" stroke-linejoin="round"/>
<path d="M81.4035 535.281C80.151 533.168 79.7129 530.67 80.1714 528.257C80.63 525.843 81.9536 523.68 83.8939 522.174C85.8343 520.667 88.2578 519.921 90.7095 520.074C93.1612 520.228 95.4726 521.271 97.2096 523.008C98.9466 524.745 99.9899 527.057 100.144 529.509C100.297 531.96 99.5507 534.384 98.0441 536.324C96.5375 538.264 94.3745 539.588 91.9612 540.047C89.5478 540.505 87.05 540.067 84.9368 538.814V538.814L81.4456 539.803C81.3026 539.845 81.1509 539.847 81.0065 539.81C80.8621 539.774 80.7303 539.698 80.625 539.593C80.5196 539.488 80.4445 539.356 80.4076 539.211C80.3706 539.067 80.3732 538.915 80.4151 538.772L81.4035 535.281Z" stroke="#797596" stroke-width="1.68251" stroke-linecap="round" stroke-linejoin="round"/>
<path d="M136.859 520.444L117.258 525.964C117.091 526.01 116.942 526.106 116.832 526.239C116.722 526.372 116.655 526.536 116.641 526.709C116.628 526.881 116.667 527.054 116.755 527.203C116.843 527.352 116.974 527.47 117.132 527.542L126.133 531.801C126.31 531.882 126.451 532.024 126.533 532.2L130.792 541.202C130.863 541.359 130.982 541.491 131.131 541.578C131.28 541.666 131.452 541.706 131.625 541.692C131.797 541.678 131.961 541.612 132.094 541.501C132.228 541.391 132.324 541.242 132.369 541.075L137.89 521.474C137.932 521.331 137.934 521.179 137.897 521.035C137.86 520.891 137.785 520.759 137.68 520.654C137.575 520.548 137.443 520.473 137.298 520.436C137.154 520.399 137.002 520.402 136.859 520.444V520.444Z" stroke="#797596" stroke-width="1.68251" stroke-linecap="round" stroke-linejoin="round"/>
<path d="M126.406 531.927L131.159 527.174" stroke="#797596" stroke-width="1.68251" stroke-linecap="round" stroke-linejoin="round"/>
</g>
<defs>
<filter id="filter0_d_293_5906" x="0.000213623" y="-4.76837e-06" width="456.181" height="584.499" filterUnits="userSpaceOnUse" color-interpolation-filters="sRGB">
<feFlood flood-opacity="0" result="BackgroundImageFix"/>
<feColorMatrix in="SourceAlpha" type="matrix" values="0 0 0 0 0 0 0 0 0 0 0 0 0 0 0 0 0 0 127 0" result="hardAlpha"/>
<feOffset dy="5.59732"/>
<feGaussianBlur stdDeviation="9.7953"/>
<feComposite in2="hardAlpha" operator="out"/>
<feColorMatrix type="matrix" values="0 0 0 0 0.7125 0 0 0 0 0.7125 0 0 0 0 0.7125 0 0 0 0.25 0"/>
<feBlend mode="normal" in2="BackgroundImageFix" result="effect1_dropShadow_293_5906"/>
<feBlend mode="normal" in="SourceGraphic" in2="effect1_dropShadow_293_5906" result="shape"/>
</filter>
</defs>
</svg>
