<svg width="117" height="32" viewBox="0 0 117 32" fill="none" xmlns="http://www.w3.org/2000/svg">
<g clip-path="url(#clip0_119_419)">
<path d="M71.683 10.6731C73.9389 10.6419 75.7206 11.0041 77.5001 12.5163C81.2644 15.7149 80.6535 22.364 76.2848 24.6705C74.2641 25.7182 71.911 25.9171 69.7442 25.2232C68.105 24.7103 66.7962 23.8204 65.8008 22.3672C65.5706 22.0314 65.1782 21.0988 64.9612 20.6825C64.8325 21.4128 64.6191 22.2352 64.2062 22.8591C61.9729 26.235 56.8618 26.6195 53.6416 24.4838C52.0654 23.4383 50.9759 21.8009 50.6192 19.9413C50.1546 17.6338 50.6515 15.6631 51.9381 13.7281C52.1003 13.5247 52.4259 13.203 52.6172 13.0226C54.1926 11.5383 56.2928 10.7428 58.4542 10.8113C61.2253 10.899 64.6981 12.6626 64.5863 15.857C64.5227 17.6522 63.2898 17.7949 61.8348 17.7329C59.6424 16.3487 60.6882 14.3836 59.3487 12.6478C58.357 11.3621 56.3126 12.097 55.9573 13.625C55.7977 14.3123 55.5956 14.6815 55.5128 15.455C55.3024 17.4194 55.3862 19.4675 56.6159 21.1094C58.1568 23.078 61.1778 22.9433 62.961 21.4067C63.3951 21.0337 63.7692 20.6114 64.2004 20.2392C64.4218 20.0482 64.4927 20.0807 64.7492 20.1154C64.8267 19.9521 64.6067 18.7935 64.6111 18.4922C64.6447 16.4524 65.0262 14.7405 66.3979 13.1976C67.6965 11.7371 69.7807 10.7753 71.683 10.6731Z" fill="#A7A7A7"/>
<path d="M71.7772 11.7615C72.0374 11.7883 72.291 11.8631 72.5241 11.9821C75.087 13.3189 75.4385 21.3108 74.1947 23.6804C73.8644 24.3091 73.4303 24.4615 72.8179 24.6515C69.294 24.0302 69.3115 14.9652 70.4647 12.534C70.6467 12.1509 71.3884 11.845 71.7772 11.7615Z" fill="#FFFDF6"/>
<path d="M41.6942 10.9633C45.8636 10.4271 49.6776 13.3773 50.2139 17.5533C50.7501 21.7293 47.8053 25.5501 43.6362 26.0881C39.4658 26.6263 35.6496 23.6757 35.1132 19.4985C34.5769 15.3212 37.5235 11.4996 41.6942 10.9633Z" fill="#A7A7A7"/>
<path d="M41.7475 12.1901C42.2226 12.1483 42.4035 12.1032 42.8688 12.2634C43.5097 12.484 44.3475 13.8855 44.5398 14.5745C45.2914 17.2674 45.6152 21.3105 44.6824 23.9954C44.5076 24.4985 43.881 24.7231 43.4554 24.8818C42.3756 25.2223 41.3516 23.8558 41.0188 22.9985C40.1512 20.7632 39.108 13.3843 41.7475 12.1901Z" fill="#FFFDF6"/>
<path d="M24.7002 6.71687C25.0979 6.65539 25.2248 6.61 25.5561 6.80881C25.8269 7.12377 25.7184 8.49804 25.7279 8.98838L25.8162 13.5556C26.6688 12.5753 27.1995 12.0741 28.452 11.6444C29.764 11.1934 31.4525 11.0653 32.7426 11.7382C35.6489 13.2543 34.5409 17.6759 34.7955 20.3765C34.9472 21.985 34.6143 22.7223 35.1735 24.3996C35.5866 24.6533 35.9131 24.7892 35.921 25.3267C35.661 25.8141 35.0123 25.8439 34.5226 25.7923C33.4078 25.6748 29.7905 26.0447 28.9678 25.6743C28.4838 25.0126 29.5725 24.4392 29.797 23.8697C30.0173 23.3107 29.8466 17.0746 29.8242 15.9683C29.5932 13.4258 27.2842 12.9356 26.0601 15.1004C25.7239 15.6949 25.8792 18.5437 25.9032 19.3803C25.9421 20.7447 25.7419 23.0334 26.185 24.279C26.4916 24.5948 27.07 24.8048 27.1107 25.2823C27.0325 25.618 26.8085 25.8687 26.4535 25.8667C24.4495 25.8553 22.4318 25.9839 20.4315 25.8885C20.2005 25.8775 20.0739 25.8387 19.9715 25.6194C19.6984 25.0339 20.4949 24.6688 20.8752 24.3535C21.2314 23.0802 21.0421 21.2197 21.0293 19.8725C20.9985 16.616 21.0178 13.3312 20.8519 10.0796C20.8152 9.36234 19.4172 8.38941 19.883 7.56727C19.9612 7.42937 20.1219 7.38706 20.2677 7.35449C21.7555 7.19594 23.2185 6.92021 24.7002 6.71687Z" fill="#A7A7A7"/>
<path d="M11.8666 6.64782C14.0965 6.58165 16.8808 7.35615 18.4428 9.03162C19.5176 10.1843 20.1083 11.3551 20.0386 12.961C19.9611 14.7464 18.8121 15.0107 17.2867 14.9607C15.6031 13.8043 15.7572 13.0074 15.3312 11.2318C14.8128 9.07151 13.1959 7.0384 10.7193 7.88477C7.273 9.1185 6.84366 14.8117 7.65798 17.7798C8.79246 21.915 12.0551 23.3213 16.0172 22.1274C17.0629 21.8546 18.0035 21.2756 18.7187 20.4643C18.9855 20.1629 19.7022 19.1748 20.0973 19.1947C20.2085 19.2921 20.2787 19.4291 20.2618 19.579C19.3054 28.0689 6.78578 28.3113 3.51534 21.3081C3.43495 21.1359 3.31715 20.9515 3.26131 20.7783C0.969474 13.6758 3.9316 7.05392 11.8666 6.64782Z" fill="#A7A7A7"/>
<path d="M92.7218 10.524C93.1237 10.4833 93.5286 10.4709 93.9334 10.4868C95.7575 10.5708 97.4127 11.1744 98.6624 12.5252C99.5949 13.5341 100.855 16.967 98.7947 17.5249C98.2787 17.6644 97.1175 17.5333 96.5336 17.6009C94.6182 17.6334 92.6012 17.7418 90.688 17.6152C90.8677 19.8102 91.1352 20.3472 92.6567 21.8343C98.0456 23.2809 98.7932 19.6717 99.8236 19.7861C99.9983 19.9374 100.016 20.0317 100.082 20.246C99.6862 23.2701 97.3097 25.0372 94.3945 25.2996C92.4258 25.482 90.0836 25.0599 88.5358 23.7558C88.1507 23.4315 87.5931 22.9928 87.3249 22.5764C83.9077 17.2739 86.567 11.2032 92.7218 10.524Z" fill="#A7A7A7"/>
<path d="M93.1631 11.5322C93.6981 11.5181 94.2162 11.7196 94.6013 12.0916C95.2971 12.7509 95.5959 13.9848 95.6281 14.9221C95.6953 16.8845 94.4018 16.6265 92.9746 16.6424C92.2584 16.6461 91.3493 16.7152 90.6193 16.7525C90.6478 14.8198 90.9445 12.072 93.1631 11.5322Z" fill="#FFFDF6"/>
<path d="M84.2423 6.06002C84.3045 6.05504 84.3666 6.05073 84.4287 6.04714C84.7627 6.02723 84.8708 6.02013 85.1025 6.22574C85.4613 7.29046 85.2296 11.7813 85.3042 13.2207C85.4796 16.5902 85.3049 20.0571 85.4511 23.4398C85.8435 23.9241 86.3448 24.0339 86.4881 24.5543C86.4398 24.9002 86.4216 24.8319 86.1826 25.1432C84.4207 25.0832 82.1026 25.1841 80.3099 25.2076C79.9402 25.2136 79.6559 25.2688 79.4242 24.9353C79.3015 24.4141 80.1653 23.5806 80.3655 23.0594C80.5394 22.6086 80.3479 10.2437 80.1916 9.27826C80.0783 8.58011 79.5624 8.05126 79.2934 7.4195C79.213 7.23073 79.1772 7.05081 79.2561 6.85472C79.7304 6.33487 81.2826 6.46465 81.9732 6.37469C82.7252 6.27683 83.4918 6.14742 84.2423 6.06002Z" fill="#A7A7A7"/>
<path d="M111.106 6.18408C111.393 6.17178 111.626 6.15502 111.838 6.34928C112.068 6.71483 111.979 9.98056 111.983 10.636C113.369 10.6581 114.744 10.5866 116.134 10.5797L116.132 11.4506C114.753 11.5099 113.372 11.5322 111.993 11.5175C111.905 14.2816 111.988 17.2611 112.012 20.0354C112.019 20.8919 112.366 21.6383 113.193 21.9275C114.456 22.3688 115.916 20.1095 116.595 20.2631L116.667 20.4002C116.679 21.1647 116.096 22.5635 115.59 23.1524C113.854 24.827 112.292 25.5927 109.803 24.8971C106.76 24.0463 107.172 20.7172 107.15 18.2368L107.099 13.7033C107.099 13.1587 107.202 12.311 106.958 11.8467C106.819 11.5853 106.463 11.5225 106.181 11.445C106.086 11.2335 106.122 11.2621 106.181 11.0093C106.558 10.5329 107.654 9.56649 108.13 9.12482C108.99 8.32486 110.135 6.70253 111.106 6.18408Z" fill="#A7A7A7"/>
<path d="M104.844 12.0498C105.09 12.0222 105.592 12.0329 105.858 12.0306C105.871 12.7433 105.774 13.5296 105.785 14.2528C105.81 15.9666 105.833 17.6733 105.839 19.3873C105.843 20.4767 105.803 21.8777 105.935 22.9299C106.271 23.4504 107.153 24.0387 106.925 24.6889C106.42 24.9327 101.77 24.8792 100.805 24.8871C100.359 24.8781 100.142 24.924 99.8492 24.6192C99.7863 24.0054 100.564 23.6899 100.798 23.166C101.057 22.5879 100.912 15.6576 100.682 14.8001C100.512 14.1675 99.9361 13.9245 99.7425 13.3736C99.6782 13.1913 99.7081 13.1281 99.7878 12.9629C100.374 12.6098 101.974 12.6326 102.731 12.4931C103.461 12.3584 104.114 12.2179 104.844 12.0498Z" fill="#A7A7A7"/>
<path d="M102.889 5.85275C104.315 5.72554 105.576 6.7724 105.717 8.199C105.858 9.62552 104.824 10.8991 103.402 11.0532C101.959 11.2093 100.667 10.1574 100.524 8.71174C100.383 7.26603 101.445 5.98165 102.889 5.85275Z" fill="#A7A7A7"/>
</g>
<defs>
<clipPath id="clip0_119_419">
<rect width="117" height="32" fill="white"/>
</clipPath>
</defs>
</svg>
