<svg width="71" height="24" viewBox="0 0 71 24" fill="none" xmlns="http://www.w3.org/2000/svg">
<g clip-path="url(#clip0_131_1377)">
<path d="M28.5592 3.65415C29.8676 3.55702 30.4487 3.80351 31.3729 4.668C31.389 4.35696 31.3652 4.13192 31.5676 3.89086C31.8764 3.75414 33.2529 3.69818 33.4803 3.9691C33.6306 4.35955 33.5581 6.4247 33.5499 6.94837C33.5321 8.09724 33.6525 9.48168 33.4813 10.6065C33.0673 13.3253 30.2534 13.8037 27.9231 13.3873C27.472 13.3102 26.2616 12.8882 26.021 12.5392C25.9832 12.4072 25.9943 12.3873 26.0444 12.2621C26.2798 11.7527 26.4828 11.448 26.8077 11.0024C27.7264 11.4942 28.3056 11.8327 29.3888 11.7944C31.0489 11.7358 31.2756 10.9378 31.2386 9.55649C30.6995 10.0949 30.3933 10.3442 29.6053 10.5074C28.8254 10.6688 27.8461 10.4165 27.1949 9.98229C26.4631 9.48922 25.963 8.73098 25.8057 7.87597C25.431 5.90883 26.4619 4.03286 28.5592 3.65415ZM29.7443 8.86784C32.0744 8.5012 31.4872 5.1309 29.569 5.32222C27.8694 5.44448 27.4374 7.43341 28.5699 8.4941C28.875 8.77983 29.3305 8.84938 29.7443 8.86784Z" fill="#FFF3F9"/>
<path d="M47.1716 17.1632C47.7347 16.6489 47.9016 16.2799 48.7595 16.0261C49.547 15.7847 50.2093 15.8876 50.933 16.1986C51.8425 16.5894 52.3446 17.8394 52.3212 18.729C52.3082 19.2292 52.4231 22.632 52.2782 22.9019C52.2014 22.9693 52.1593 23.0063 52.0538 23.0263C51.8883 23.0577 50.7158 23.0313 50.4839 23.0225C50.3645 23.0179 50.2124 23.0218 50.1415 22.9108C49.7893 22.3594 50.4686 18.863 49.7036 18.0797C49.5187 17.8903 49.2643 17.8112 49.0005 17.813C48.6424 17.8156 48.2175 17.9079 47.9622 18.1649C47.2838 18.8483 47.5292 20.9485 47.5422 21.8467C47.5427 22.2166 47.6584 22.7292 47.3399 22.9682C46.9872 23.0317 45.7923 23.0517 45.4621 22.9735C45.0507 22.7211 45.507 19.2272 45.1422 18.471C44.8151 17.5343 43.3147 17.6329 42.9373 18.5041C42.6165 19.2124 42.7578 20.5498 42.7318 21.2773C42.6699 23.0141 43.1823 23.1328 41.1995 23.0139C41.0447 23.0046 40.6198 23.0808 40.5983 22.8312C40.4902 21.5659 40.5862 20.2758 40.5597 19.0042C40.5561 18.4653 40.474 16.5004 40.6822 16.1254C40.9653 15.9746 42.4016 15.9396 42.603 16.1325C42.7305 16.3641 42.6789 16.7633 42.6623 17.029C43.2747 16.3819 43.5588 16.1414 44.462 15.9315C45.8309 15.8148 46.3779 16.1315 47.1716 17.1632Z" fill="#FFF3F9"/>
<path d="M56.7211 15.7669C58.8291 15.6642 60.6252 17.2464 60.7387 19.3061C60.8522 21.3657 59.2405 23.1275 57.1335 23.2468C55.0148 23.3667 53.1998 21.7806 53.0854 19.7092C52.971 17.6379 54.6015 15.8703 56.7211 15.7669ZM57.0312 21.3981C57.4983 21.3051 57.8976 21.1658 58.1632 20.744C58.8852 19.5977 58.5397 17.4616 56.7974 17.594C54.5773 17.9157 54.7743 21.4801 57.0312 21.3981Z" fill="#FFF3F9"/>
<path d="M5.3792 1.41847L5.39634 1.41781C6.72115 1.37716 8.09526 1.50249 9.18172 2.34553C9.71535 2.75958 8.91 4.08245 8.57348 4.05763C8.4539 4.04882 7.53148 3.57123 7.29561 3.48611C6.79334 3.30145 6.26218 3.20296 5.72559 3.19503C5.28229 3.19104 4.84203 3.22998 4.53809 3.56022C4.42188 3.68647 4.29701 3.90406 4.31854 4.06259C4.4532 5.05311 6.71397 5.29811 7.52094 5.65896C8.03833 5.86107 8.53642 6.08165 8.93808 6.47469C9.90358 7.41934 10.0227 8.84074 9.00916 9.80166C8.09683 10.6666 6.70508 10.8452 5.48895 10.8295C4.43251 10.8158 2.76221 10.4004 1.96004 9.75058C1.84199 9.65494 1.56457 9.42441 1.58974 9.26475C1.64776 8.89661 1.96206 8.23726 2.22589 7.95292C2.2871 7.88702 2.39213 7.84636 2.46505 7.88303C2.69487 7.99862 2.95686 8.18819 3.17806 8.31027C3.91701 8.71818 4.82467 9.0465 5.6822 9.04658C6.08894 9.04663 6.72182 8.96936 7.0228 8.67889C7.14951 8.55658 7.26438 8.30106 7.24872 8.13302C7.16279 7.21038 4.69522 6.87211 3.93563 6.49245C3.44844 6.3102 3.08617 6.09235 2.68181 5.77245C1.69577 4.99246 1.76486 3.38925 2.594 2.51875C3.23442 1.84637 4.42802 1.46083 5.3792 1.41847Z" fill="#FFF3F9"/>
<path d="M36.1703 15.8906C39.8383 15.8909 39.5498 18.2347 39.509 20.9394C39.5031 21.329 39.6193 22.625 39.4273 22.903C39.1047 23.1065 37.8995 23.0073 37.4746 22.9937C37.3929 22.6555 37.4024 22.4237 37.4118 22.0793C36.1716 23.4314 34.1214 23.4891 32.8529 22.1415C32.6537 21.7555 32.4951 21.3393 32.5167 20.9031C32.6336 18.545 35.74 18.7287 37.3395 18.7559C37.2785 18.5696 37.2157 18.3839 37.1515 18.1988C36.6544 16.8127 34.5577 17.8385 33.6674 18.152C33.5122 17.9333 33.0536 17.1685 33.0762 16.9594C33.162 16.1658 35.6246 15.9232 36.1703 15.8906ZM36.0491 21.6184C37.012 21.4438 37.2202 20.8509 37.3131 20.0031C36.881 20.0061 36.4336 20.0039 36.0029 20.0153C35.6561 20.0288 35.0557 20.0405 34.8665 20.3346C34.159 21.4345 35.346 21.6286 36.0491 21.6184Z" fill="#FFF3F9"/>
<path d="M55.6825 3.65299C57.7591 3.49763 59.5691 4.41755 59.7383 6.60986C59.8522 7.93686 58.8319 7.74202 57.8766 7.80863C56.811 7.88292 55.7341 7.83617 54.6725 7.88599C55.1979 9.26578 56.1801 9.47925 57.5253 8.97057C58.2199 8.70807 58.3733 8.20299 58.988 8.81919C59.1469 9.02582 59.6427 9.57805 59.3757 9.83506C58.1436 11.0209 55.3586 11.1448 53.9515 10.2157C53.2215 9.7264 52.723 8.97088 52.5686 8.11893C52.1114 5.72099 53.2412 4.08313 55.6825 3.65299ZM54.6497 6.70261C55.0562 6.69792 55.8176 6.71283 56.1824 6.67178C56.6495 6.66647 57.1565 6.67375 57.6168 6.61284C57.5302 5.56997 57.1919 5.19236 56.1137 5.18311C55.0319 5.30515 54.8987 5.7673 54.6497 6.70261Z" fill="#FFF3F9"/>
<path d="M64.5482 3.68916C64.5626 3.6871 64.5769 3.68531 64.5917 3.68368C66.5458 3.46657 67.8667 4.60167 68.065 6.50058C68.1454 7.26798 68.0731 8.108 68.0852 8.88343C68.0906 9.22744 68.1575 10.4143 67.978 10.6292C67.6603 10.7825 66.417 10.6743 66.0186 10.6841C65.6071 10.6257 65.7758 9.76919 65.7431 9.53406C65.5694 8.29099 66.4255 5.43648 64.3346 5.51023C63.9555 5.52361 63.7307 5.59789 63.4301 5.80807C62.1912 6.95111 63.2201 9.21004 62.7059 10.699C62.1858 10.7053 61.6649 10.7158 61.1453 10.7037C60.9237 10.6985 60.5607 10.7047 60.5773 10.4006C60.6271 9.49472 60.3857 4.3326 60.7182 3.88145C61.0749 3.72144 61.8022 3.82462 62.1935 3.79204C62.8203 3.73981 62.7382 4.25042 62.722 4.70411C63.3852 4.09922 63.6674 3.88325 64.5482 3.68916Z" fill="#FFF3F9"/>
<path d="M38.9992 3.78853C39.3249 3.77835 39.9661 3.69903 40.2425 3.86154C40.724 4.14447 40.2712 7.29416 40.5458 8.13264C40.6486 8.44697 40.8442 8.71591 41.1507 8.86623C41.506 9.04063 41.9583 9.0248 42.3294 8.89952C43.3735 8.54704 43.2555 7.17887 43.2496 6.32859C43.2456 5.84933 43.2474 5.37008 43.2541 4.89087C43.2716 3.65609 43.3807 3.78914 44.5136 3.79725C44.7936 3.79927 45.1736 3.73577 45.4285 3.86724C45.6362 4.22152 45.5501 6.54828 45.5501 7.07937C45.5501 7.62497 45.6425 10.3417 45.4496 10.6356C45.1687 10.7774 43.8271 10.6992 43.4511 10.6694C43.3766 10.3381 43.3708 10.0102 43.3659 9.67293C43.2968 9.76668 43.225 9.85877 43.1509 9.94902C42.245 11.0417 40.2681 11.0282 39.1962 10.1946C37.9605 9.23367 38.2423 7.46825 38.223 6.09858C38.2167 5.66888 38.1323 4.14644 38.3701 3.86316C38.5339 3.77542 38.8036 3.7923 38.9992 3.78853Z" fill="#FFF3F9"/>
<path d="M18.3596 3.65453C21.7067 3.62699 21.7054 6.08684 21.6142 8.6572C21.6 9.05652 21.6901 10.3428 21.5349 10.6293C21.2745 10.7619 19.8492 10.7042 19.4463 10.7054C19.1721 9.5345 19.7147 6.71909 19.0149 5.90709C18.8076 5.66652 18.5326 5.55058 18.2155 5.52901C17.758 5.49792 17.3304 5.55207 16.9772 5.85719C15.7568 7.0543 16.7335 9.97784 16.258 10.6475C16.0368 10.7634 14.6418 10.6948 14.2447 10.7014C14.1363 10.0118 14.0902 4.1779 14.3007 3.88084C14.5728 3.77963 16.0304 3.72061 16.2231 3.89865C16.3808 4.13431 16.3581 4.41272 16.3614 4.69214C17.0293 4.05967 17.4707 3.81643 18.3596 3.65453Z" fill="#FFF3F9"/>
<path d="M64.3313 15.8886C65.1735 15.8127 66.3011 16.0509 67.0679 16.4159C67.8199 16.7737 67.1105 17.6358 66.7973 18.1121C66.0902 17.7479 65.5011 17.4572 64.6746 17.4527C64.3138 17.4507 63.6565 17.459 63.6776 17.9891C63.696 18.4447 64.5175 18.5864 64.8872 18.6848C66.0749 19.0006 67.6925 19.3944 67.6575 20.9012C67.648 21.4443 67.5291 21.8818 67.1069 22.2696C66.2033 23.0852 65.069 23.1083 63.9118 23.0954C62.7842 22.9418 62.0228 22.6055 61.0859 22.0234C61.1384 21.889 61.1968 21.7568 61.2605 21.6272C61.3933 21.3563 61.6544 20.7972 61.9528 20.6948C62.0551 20.7028 62.1368 20.7521 62.2193 20.8099C63.1104 21.4351 64.1079 21.6927 65.1995 21.4433C65.3597 21.3045 65.4867 21.1508 65.6253 20.9918C65.1107 20.2678 64.3461 20.3117 63.5564 20.0342C62.6676 19.7221 61.5907 19.2463 61.4983 18.1925C61.3511 16.5131 62.9318 16.0192 64.3313 15.8886Z" fill="#FFF3F9"/>
<path d="M13.3911 16.0153C13.6671 16.0095 15.0851 15.9464 15.2018 16.0835C15.8349 16.8267 16.0747 18.2343 16.4929 19.1277C16.7824 19.7461 16.9971 20.3476 17.1886 20.9691C17.3425 20.3299 17.6623 19.6954 17.8912 19.0765C18.1518 18.3718 18.3922 17.6606 18.6712 16.9611C18.7914 16.7077 18.8859 16.2469 19.136 16.1041C19.3522 15.9806 21.0971 15.9223 21.1497 16.1484C21.2279 16.4839 20.7482 17.3881 20.5724 17.7727L19.5113 20.3074C19.1964 21.0736 18.7859 22.2687 18.3143 22.8956C17.7663 23.0544 17.0097 23.0586 16.434 23.0108C16.2123 22.9924 16.0312 22.8962 15.9106 22.712C15.4773 22.0504 15.1694 21.196 14.8652 20.4672L13.9389 18.2852C13.7654 17.8728 13.112 16.5241 13.1633 16.1983C13.2635 16.0436 13.21 16.0915 13.3911 16.0153Z" fill="#FFF3F9"/>
<path d="M28.6363 20.9297C28.7307 20.4574 30.3151 16.3141 30.5062 16.1376C30.9036 15.9527 32.2395 15.8548 32.5037 16.2694C32.5247 16.5959 32.0428 17.627 31.89 17.9953C31.253 19.3287 30.7219 20.7503 30.1678 22.119C29.8794 22.8316 29.7033 23.0203 28.8801 23.0184C28.533 23.0177 27.9183 23.0988 27.6037 22.9428C27.2173 22.7513 26.9817 21.9939 26.8231 21.6251C26.6284 21.1217 26.4218 20.6436 26.2071 20.153L25.2423 17.9305C25.0641 17.5302 24.4808 16.496 24.6441 16.1485C24.7985 16.0199 24.7646 16.0576 24.995 16.0152C25.3544 16.0199 26.3583 15.9539 26.5873 16.1026C26.993 16.3663 27.4541 17.9021 27.6278 18.3553C27.9637 19.2318 28.3495 20.0774 28.6363 20.9297Z" fill="#FFF3F9"/>
<path d="M49.4668 2.08008C49.6287 2.10183 49.5794 2.0756 49.705 2.17028C49.845 2.41716 49.7956 3.49206 49.7992 3.85585C50.208 3.87006 51.3934 3.80735 51.6891 3.92084C51.8444 4.10593 51.8686 5.16811 51.7093 5.35654C51.4042 5.48805 50.1254 5.44148 49.7943 5.37474C49.7808 6.07623 49.6485 8.31099 50.0124 8.85059C50.4754 9.53704 51.1094 8.79709 51.5523 8.8466C51.8668 8.99995 52.0535 9.95806 51.9426 10.2767C51.7537 10.507 51.5254 10.5641 51.2472 10.6582C50.2457 10.8518 49.0118 10.9067 48.2302 10.1482C47.9587 9.88193 47.7631 9.5512 47.6626 9.18864C47.4898 8.57472 47.545 6.2319 47.5455 5.43538C47.3283 5.43657 46.7235 5.4356 46.5485 5.37991C46.282 5.29515 46.4112 4.16781 46.4848 3.97262C46.6755 3.81287 47.2794 3.85931 47.5571 3.85988C47.4409 1.83898 47.689 2.12994 49.4668 2.08008Z" fill="#FFF3F9"/>
<path d="M34.946 1.28411C35.3447 1.27485 36.5521 1.19974 36.8464 1.35852C37.0789 1.79362 37.025 5.78569 37.0084 6.51407C36.9833 7.61658 37.0932 9.49979 36.9761 10.5602C36.8595 10.709 36.8931 10.6655 36.689 10.7367C36.2546 10.7135 35.2267 10.7474 34.8674 10.6749C34.6762 10.4396 34.7359 8.7266 34.7353 8.28782L34.7335 4.8057C34.7306 4.0336 34.7319 3.26155 34.7375 2.4895C34.7407 2.1725 34.7441 1.82822 34.7597 1.51056C34.765 1.40286 34.8667 1.34449 34.946 1.28411Z" fill="#FFF3F9"/>
<path d="M21.9021 16.025C22.3252 16.0298 23.6182 15.9236 23.9255 16.0796C23.9649 16.2068 24.0195 16.5952 24.0068 16.706C23.9124 17.5309 24.132 22.6465 23.8914 23.0115C23.5104 23.0157 22.1415 23.0608 21.8618 22.9624C21.5907 22.4466 21.8217 19.3091 21.7362 18.5691C21.6955 18.2166 21.712 16.2682 21.9021 16.025Z" fill="#FFF3F9"/>
<path d="M11.9248 3.79106C12.2732 3.77361 12.4998 3.78549 12.8497 3.8086C12.8955 3.98059 12.9249 4.15634 12.9376 4.33359C12.9557 4.61933 12.9737 5.71435 12.951 5.98561C12.8942 6.6636 13.0755 10.4155 12.8477 10.6675C12.5437 10.7591 12.1136 10.7247 11.7963 10.701C11.5192 10.7056 10.9516 10.7447 10.7362 10.6115C10.7004 10.5322 10.6718 10.4287 10.6723 10.3424C10.6836 8.38522 10.6521 6.42496 10.6815 4.468C10.6907 4.35372 10.7233 3.95353 10.8148 3.89012C11.0202 3.748 11.7011 3.79075 11.9248 3.79106Z" fill="#FFF3F9"/>
<path d="M11.6068 0.974073C12.4351 0.904261 12.8863 1.15281 13.1111 1.96065C12.9594 2.6232 12.7374 2.9698 12.035 3.12912C10.2483 3.27825 9.99945 1.2217 11.6068 0.974073Z" fill="#FFF3F9"/>
<path d="M22.887 13.2129C23.4506 13.2777 24.0006 13.3964 24.1572 14.0346C24.2201 14.2821 24.1772 14.5439 24.0384 14.7598C23.8015 15.1339 23.4678 15.2519 23.063 15.3415C22.0213 15.3856 21.2893 14.6159 21.9004 13.621C22.1025 13.292 22.5253 13.2511 22.887 13.2129Z" fill="#FFF3F9"/>
</g>
<defs>
<clipPath id="clip0_131_1377">
<rect width="70.0541" height="24" fill="white"/>
</clipPath>
</defs>
</svg>
