<svg width="90" height="32" viewBox="0 0 90 32" fill="none" xmlns="http://www.w3.org/2000/svg">
<path d="M42.5147 10.8272C42.7069 10.7976 43.1914 10.878 43.4019 10.9106C43.7266 11.3789 43.9342 12.3143 44.1298 12.8723C44.4752 13.8583 44.7749 14.9931 45.1638 15.9555C45.4018 14.4391 45.2225 12.4522 45.4251 10.9216C46.3098 10.8363 47.3861 10.919 48.2754 10.9762C48.3394 14.4114 48.0237 17.971 48.1996 21.3788C46.8971 21.3621 45.5667 21.3752 44.2627 21.3767L43.2915 17.6743L43.2344 17.5357C42.9975 17.5906 42.5643 21.1166 41.8306 21.2257C41.3729 21.2937 40.7875 21.2986 40.322 21.3192C39.4181 21.3642 38.5138 21.4004 37.6092 21.4277C37.5643 19.5283 37.659 17.416 37.6782 15.5037C37.682 14.4818 37.6982 13.4599 37.7269 12.4384C37.7386 12.0341 37.7442 11.3042 37.8089 10.9225C38.4074 10.9238 39.0543 10.8988 39.6562 10.886C39.7767 11.3811 39.7296 11.8181 39.737 12.3071C39.7532 13.3849 39.5496 14.8838 39.7561 15.9101C40.0326 15.3161 40.1625 14.6415 40.3116 14.0052C40.5627 12.9338 40.7561 11.9253 41.1464 10.8913C41.58 10.8867 42.0772 10.8497 42.5147 10.8272Z" fill="#A7A7A7"/>
<path d="M49.9127 10.6015C50.7399 10.5418 51.7336 10.5494 52.5486 10.6824C52.7516 11.6345 52.4538 12.7688 52.6358 13.564C53.4269 13.574 56.2159 13.4274 56.7225 13.8228C57.061 14.0872 57.1426 14.7486 57.1795 15.1437C57.2549 15.9439 57.3661 20.5834 56.9936 20.9498C56.6596 21.2786 54.5881 21.1865 54.0804 21.1342C54.0054 20.6608 53.9593 20.2994 53.922 19.8209L53.866 17.6481C53.8554 17.2496 53.8767 16.8147 53.8024 16.4241C53.7685 16.2449 53.6973 16.0407 53.5693 15.9079C53.5019 15.8378 53.4158 15.7893 53.3172 15.7888C53.1965 15.7883 53.0933 15.8273 53.0079 15.9124C52.7741 16.146 52.819 19.0514 52.8107 19.4825C52.4134 19.5193 49.5429 19.5362 49.2424 19.4605C49.0946 19.1788 48.7659 11.1553 48.855 10.721C49.0173 10.5742 49.6518 10.6082 49.9127 10.6015Z" fill="#A7A7A7"/>
<path d="M62.7698 11.1352L63.2603 11.1327C64.0734 11.1308 66.3224 11.0135 66.3159 12.197C66.3114 13.0563 66.2402 13.9424 66.2348 14.8145C66.2291 15.7737 66.3076 16.7327 66.2866 17.6876C66.2531 17.7395 66.2177 17.7903 66.1804 17.8396C65.8022 18.3363 64.7396 18.4786 64.1469 18.5579C63.5235 18.6414 58.4413 18.9472 58.049 18.5785C57.7417 18.2894 57.8681 16.2506 57.8723 15.7427C57.8738 15.6827 57.8757 15.6228 57.878 15.5629C57.8925 15.1766 57.8536 14.4858 58.1636 14.2085C58.9852 13.4734 63.3959 13.9539 64.6063 14.0041C64.6516 13.729 64.7259 13.2603 64.5541 13.0196C64.3157 12.6855 59.3847 13.089 58.439 12.908C58.3556 12.8921 58.2779 12.8754 58.2295 12.7995C58.0536 12.5221 58.2147 11.7626 58.2787 11.4422C59.3938 11.24 61.6401 11.1655 62.7698 11.1352ZM61.5049 15.8321C61.4459 16.1243 61.2204 16.8242 61.639 16.9049C61.6896 16.9147 61.7506 16.9234 61.8024 16.9306C62.2236 16.9447 63.8034 16.8989 64.0833 16.6953C64.2418 16.4368 64.1721 15.9156 64.0171 15.6693C63.9295 15.6319 63.9066 15.6394 63.8164 15.6526C63.2714 15.6909 61.9989 15.7466 61.5049 15.8321Z" fill="#A7A7A7"/>
<path d="M67.3858 10.7854C67.4669 10.7773 67.5754 10.7741 67.6585 10.7749C68.6883 10.7847 69.744 10.7587 70.7708 10.8163C70.9182 12.3503 70.9266 14.3783 70.943 15.931C71.5318 15.443 72.6919 14.3127 73.2491 13.9325C73.7507 14.3218 74.3315 14.9521 74.6864 15.4815C74.2999 16.0854 73.3454 16.7702 72.821 17.4117C73.2015 17.9585 73.6756 18.5403 74.0919 19.0714C74.95 20.1479 75.7662 20.7811 73.8364 21.2257C73.4494 21.3149 73.2502 21.319 72.8587 21.2762C72.794 21.1894 72.7376 21.0801 72.6786 20.9877C72.1457 20.1552 71.5006 19.3662 70.8973 18.5841C70.7815 18.9281 70.5975 18.9962 70.23 18.9507C69.6058 18.8735 67.7422 19.0508 67.241 18.782C67.1831 18.6761 67.1603 18.4684 67.1576 18.348C67.1085 16.1335 67.0792 13.9166 67.0609 11.7015C67.0586 11.4455 67.0655 11.1168 67.1005 10.8648C67.1911 10.7797 67.2433 10.8003 67.3858 10.7854Z" fill="#A7A7A7"/>
<path d="M58.5236 19.5963C62.4464 19.7457 66.407 19.6214 70.334 19.6449C70.5614 19.6463 70.967 19.6171 71.026 19.8662C71.1944 20.5802 70.7667 20.7569 70.2209 20.9236C69.3777 21.2012 67.302 21.1879 66.3662 21.1889C63.621 21.1859 60.8765 21.0938 58.137 20.9126C58.0723 20.5882 57.8365 20.0005 58.0532 19.7216C58.1492 19.5984 58.375 19.6044 58.5236 19.5963Z" fill="#A7A7A7"/>
<path d="M76.1623 19.4089C76.9366 19.37 77.8362 19.3906 78.6226 19.3905C80.3209 19.3872 82.0191 19.4149 83.7163 19.4736C83.8172 20.2144 83.8111 20.6519 83.049 20.9771C81.7011 21.4288 77.2565 21.0259 75.7152 20.8755C75.6036 20.2875 75.5807 20.0211 75.6382 19.4292L76.1623 19.4089Z" fill="#A7A7A7"/>
<path d="M43.7719 23.8558C44.6115 23.8969 45.5241 23.7585 46.3338 23.9935C47.2322 24.2541 47.5544 25.1723 47.2855 26.0182C47.1412 26.4711 46.7923 26.7011 46.3894 26.8996C46.7462 27.3977 47.1313 27.9166 47.4638 28.4285L46.9329 28.4296L46.8114 28.423C46.6404 28.3332 45.9358 27.2591 45.7796 27.0312L44.3876 27.0342L44.3887 28.3512L43.772 28.3529L43.7719 23.8558ZM46.413 26.1204C46.6514 25.8134 46.712 25.5828 46.6621 25.1947C46.5341 24.1993 45.0826 24.3901 44.3872 24.4011L44.3887 26.4061C45.0705 26.4172 45.8676 26.5274 46.413 26.1204Z" fill="#A7A7A7"/>
<path d="M39.5939 23.8593L40.1591 23.8643C40.849 25.287 41.5896 26.9766 42.2316 28.4296L41.5941 28.43L41.0363 27.1878L40.1821 27.1879L38.7162 27.1872L38.1625 28.4287L37.5236 28.4296C38.1482 26.9506 38.9243 25.3398 39.5939 23.8593ZM38.9601 26.6424L39.9155 26.6457L40.7914 26.6441C40.6229 26.2571 40.0656 24.9116 39.8728 24.587C39.574 25.2582 39.2424 25.9683 38.9601 26.6424Z" fill="#A7A7A7"/>
<path d="M81.0822 23.8589L81.649 23.8626C81.8752 24.2858 82.1787 25.0073 82.3882 25.4681L83.7288 28.4297L83.0863 28.4299C82.9046 28.0132 82.7184 27.5985 82.5284 27.1858L81.7339 27.1879L80.2066 27.1843L79.6609 28.4287L79.0107 28.4296C79.1517 28.1584 79.2926 27.8267 79.4175 27.5438C79.9618 26.3145 80.5574 25.0955 81.0822 23.8589ZM80.455 26.6415L81.4292 26.6457L82.2934 26.6447C82.1833 26.3937 81.4635 24.7259 81.3603 24.5928L80.455 26.6415Z" fill="#A7A7A7"/>
<path d="M63.4214 23.8521C63.5532 23.8675 63.8678 23.8599 64.0129 23.8602C64.038 25.359 64.0159 26.9244 64.0167 28.4287L63.5147 28.4292L60.8544 24.9875C60.8388 26.0064 60.8677 27.0262 60.8567 28.0453C60.8552 28.1737 60.8544 28.3008 60.8369 28.4282L60.1639 28.4303L60.1616 23.8568L60.6868 23.8695C61.5121 24.9949 62.553 26.1367 63.3993 27.2763L63.394 25.0306C63.3936 24.7651 63.378 24.0707 63.4214 23.8521Z" fill="#A7A7A7"/>
<path d="M76.8764 23.8589L77.496 23.8577C77.4877 24.3824 77.5482 28.2888 77.4461 28.4306C77.3841 28.4322 77.0676 28.4408 77.0367 28.4038C76.1074 27.2872 75.2253 26.1112 74.3349 24.9604L74.3425 28.4302L73.7164 28.4303L73.7145 23.8571L74.2271 23.8707L76.8787 27.2471L76.8764 23.8589Z" fill="#A7A7A7"/>
<path d="M55.0078 23.8574C55.9965 23.889 57.1837 23.8696 58.1758 23.8571V24.409C57.3326 24.3988 56.4715 24.4082 55.6267 24.4086L55.6263 25.7876L57.9458 25.7859L57.9454 26.333C57.2126 26.314 56.4109 26.3303 55.6728 26.3305L55.6358 26.3653C55.602 26.7403 55.6244 27.4143 55.6263 27.8113C56.5274 27.8155 57.4286 27.8145 58.3293 27.8084V28.4309L55.0116 28.4301L55.0078 23.8574Z" fill="#A7A7A7"/>
<path d="M50.8766 23.8452C51.6608 23.6924 52.4157 23.9876 52.9786 24.5262L52.5756 24.9388C51.6006 24.0351 49.9584 24.2711 49.5509 25.5687C49.4058 26.0297 49.4496 26.5297 49.6716 26.9584C49.886 27.3605 50.2505 27.6604 50.6851 27.7919C51.2666 27.9673 51.7911 27.8505 52.3117 27.5703L52.3094 26.8782L52.3071 26.0185L52.931 26.0171C52.9188 26.6089 52.9291 27.243 52.9295 27.8381C52.0055 28.5338 50.7285 28.6836 49.7645 27.9765C49.2839 27.6204 48.9643 27.0862 48.8771 26.4923C48.6688 25.1173 49.528 24.0444 50.8766 23.8452Z" fill="#A7A7A7"/>
<path d="M65.5641 23.8539C66.6503 23.907 68.1551 23.8674 69.2607 23.8582L69.2622 24.4086L67.7079 24.408C67.7331 25.1733 67.7118 26.0646 67.7121 26.84L67.7156 28.4297L67.0898 28.4302L67.0879 24.4078L65.5641 24.4069V23.8539Z" fill="#A7A7A7"/>
<path d="M70.8649 23.8561C71.0535 23.8664 71.3067 23.8586 71.5006 23.8584L71.5029 28.4292L70.8657 28.4303L70.8649 23.8561Z" fill="#A7A7A7"/>
<path d="M19.6161 2H20.1914C20.4675 2.0555 20.9928 2.06263 21.3005 2.08844C21.8266 2.136 22.3489 2.21888 22.864 2.33651C26.3926 3.12132 29.483 5.24736 31.4892 8.27028C33.5399 11.3413 34.2841 15.1096 33.5561 18.7357C32.821 22.3852 30.6745 25.5916 27.5887 27.6492C25.863 28.794 23.9076 29.5421 21.8616 29.8402C21.4728 29.9003 20.4016 29.9454 20.1659 30H19.6084C19.492 29.973 19.0577 29.9516 18.9152 29.9393C18.5103 29.9053 18.1067 29.8566 17.7053 29.793C15.5832 29.4468 13.5691 28.613 11.8196 27.3565C9.07855 25.4016 7.14188 22.507 6.37357 19.217C6.1333 18.1713 6.15398 17.5819 6 16.6517V15.2711C6.0746 14.9337 6.13394 13.946 6.21388 13.465C6.54015 11.5136 7.28193 9.65614 8.38841 8.01989C10.3819 5.0946 13.4231 3.05817 16.8757 2.33685C17.4582 2.21476 18.0476 2.12903 18.6406 2.08015C18.9164 2.0558 19.3695 2.04731 19.6161 2ZM8.42763 11.319C7.53587 13.1022 7.38392 15.8439 7.62862 17.8069C7.8026 17.1746 8.0291 16.684 8.62855 16.34C9.09392 16.079 9.64254 16.0121 10.1565 16.1536C10.6778 16.2978 11.1197 16.6464 11.3831 17.1213C11.6371 17.5787 11.7005 18.1188 11.5595 18.6232C11.4011 19.1796 11.0985 19.4788 10.662 19.8142C10.8568 20.3107 11.05 20.7952 11.1743 21.3155C11.2998 21.841 11.4976 22.3954 10.9877 22.7935C10.6089 23.0892 10.2206 23.1468 9.75864 23.164C11.7584 25.936 14.5376 27.7251 17.9113 28.2624C18.8485 28.4202 19.8012 28.4633 20.7487 28.3906C24.0555 28.1685 27.1325 26.6113 29.2803 24.0728C29.5224 23.7917 29.7712 23.4874 29.9654 23.1708C29.1996 23.1046 28.8423 23.0109 28.3803 22.3522C28.5645 21.2838 28.7123 20.817 29.0799 19.8134C28.5557 19.3924 28.2154 19.0085 28.1344 18.298C28.0746 17.7719 28.2273 17.2436 28.5581 16.8315C28.8999 16.4101 29.3949 16.1434 29.9332 16.0906C30.4693 16.0306 31.0068 16.1921 31.4223 16.5383C31.8281 16.8709 32.0087 17.2439 32.1661 17.7317C32.4036 15.8695 32.2942 14.1128 31.736 12.3122C31.669 12.0962 31.4819 11.5307 31.388 11.3348C28.5544 9.47182 22.3811 8.23274 19.0156 8.49259C15.7981 8.64994 11.1463 9.58034 8.42763 11.319ZM30.4666 17.4029C31.1382 17.8181 30.9739 18.4532 30.3632 18.8132L30.6232 19.2814C31.7226 18.7034 31.6742 17.2038 30.526 16.8578C30.3841 16.8154 30.2365 16.7956 30.0886 16.7992C29.6911 16.8428 29.3944 16.9507 29.1348 17.2796C28.9307 17.5433 28.8384 17.8773 28.878 18.2091C28.9209 18.5811 29.1057 18.8897 29.3961 19.1191C29.4232 19.1405 29.4506 19.1615 29.4783 19.1821C29.5836 19.0489 29.6899 18.911 29.7969 18.7797C29.0315 18.0373 29.556 17.1061 30.4666 17.4029ZM29.6757 21.4772C29.3306 21.5391 29.1009 21.8709 29.163 22.218C29.2251 22.565 29.5554 22.7955 29.9003 22.7326C30.2446 22.6698 30.4732 22.3385 30.4113 21.9921C30.3493 21.6458 30.0202 21.4154 29.6757 21.4772ZM9.43419 18.8163C9.3073 18.7364 9.14409 18.6456 9.06382 18.5196C8.73654 18.0058 8.97788 17.486 9.53711 17.3394C10.4656 17.3802 10.6625 18.1743 10.0224 18.7738L10.3405 19.1692C10.6617 18.9322 10.8513 18.7026 10.9169 18.2891C10.9701 17.9443 10.8854 17.5924 10.6813 17.3103C10.4846 17.0381 10.1877 16.8564 9.85685 16.8057C9.76225 16.7913 9.65853 16.7822 9.56356 16.793C9.15988 16.8633 8.84671 17.002 8.60296 17.3532C8.41269 17.63 8.339 17.9712 8.39796 18.3024C8.48341 18.7719 8.77329 19.0773 9.18684 19.2822L9.43419 18.8163ZM14.794 5.37944C14.409 5.46023 14.1215 5.58957 13.8963 5.93505C13.7178 6.20873 13.6566 6.5432 13.7264 6.86285C13.8659 7.52902 14.295 7.85495 14.9686 7.63179C15.6966 7.46138 16.3721 7.32498 16.1224 6.33743C16.036 5.98703 15.8131 5.68632 15.5039 5.50303C15.2596 5.36059 15.0723 5.35255 14.794 5.37944ZM31.053 21.1815L31.0861 21.2701L31.1241 21.2617C31.2808 20.897 31.8529 19.6033 31.8057 19.269C31.4981 19.6272 31.284 19.7897 30.8504 19.9869C30.9491 20.3791 31.0169 20.7785 31.053 21.1815ZM21.9665 5.71403C21.8638 6.30775 21.7444 6.4661 21.4689 7.00016L23.0257 7.22282C22.9354 6.86744 22.8939 6.46763 23 6.11014C23.2925 5.11232 23.9696 4.72965 24.9637 4.65383C23.7093 4.04926 21.9593 3.58162 20.5663 3.56658C20.8498 4.20928 20.8425 4.3492 20.4144 4.9097C21.0642 4.99536 21.7438 4.97889 21.9665 5.71403ZM24.5837 5.38049C24.2081 5.53648 23.8855 5.77411 23.7536 6.1643C23.2967 7.51715 24.4683 7.53393 25.2633 7.75337C25.4965 7.75544 25.82 7.47011 25.9323 7.27273C26.4219 6.41182 25.8809 5.34941 24.8622 5.36025C24.7691 5.3615 24.676 5.36825 24.5837 5.38049ZM9.90884 21.4785C9.60983 21.5381 9.39504 21.8029 9.39701 22.1094C9.39821 22.2958 9.48026 22.4723 9.62166 22.5928C9.76305 22.7133 9.9497 22.7656 10.1327 22.7362C10.3595 22.6997 10.5491 22.5428 10.6285 22.3259C10.7078 22.1091 10.6646 21.8661 10.5154 21.6903C10.3661 21.5146 10.1342 21.4336 9.90884 21.4785ZM7.96213 19.2228C8.0369 19.5487 8.52767 21.1283 8.7375 21.2668L8.76038 21.1793C8.81883 20.8082 8.87873 20.3492 8.95414 19.9879C8.26209 19.6724 8.36326 19.4954 7.96213 19.2228ZM19.3946 4.89102C18.9891 4.4073 18.8883 4.15757 19.2293 3.57582C19.1308 3.57749 18.8983 3.57565 18.8124 3.58607C17.7132 3.69199 15.7923 4.11366 14.831 4.66585C16.0393 4.7156 16.7361 5.33635 16.8529 6.56385C16.8334 6.7821 16.8199 6.96933 16.7733 7.18341C17.2936 7.14162 17.8349 7.04069 18.3306 7.00396C17.4852 5.44583 17.7051 5.151 19.3946 4.89102ZM26.4645 5.46724C27.0045 6.45365 26.9523 7.19582 26.179 8.04674C27.8637 8.63531 28.9349 9.1138 30.4666 10.0077L30.8677 10.2416C30.0294 8.59559 28.8952 7.25389 27.4461 6.11826C27.2265 5.94628 26.7153 5.55478 26.4645 5.46724ZM19.9954 4.74647C20.196 4.7151 20.3644 4.5778 20.4364 4.38693C20.5083 4.19604 20.4728 3.98099 20.3434 3.82375C20.2139 3.6665 20.0105 3.5913 19.8106 3.6268C19.5059 3.68092 19.3014 3.97167 19.3521 4.27864C19.4027 4.5856 19.6897 4.79428 19.9954 4.74647ZM13.2684 5.48867C11.5998 6.58342 9.71605 8.44352 8.9059 10.2939L9.36161 10.0238C10.8831 9.10419 11.9342 8.63742 13.6209 8.04865C13.1795 7.51274 12.9618 7.11714 12.9962 6.39853C13.013 6.04916 13.2695 5.59872 13.2684 5.48867Z" fill="#A7A7A7"/>
<path d="M14.7674 18.0231C16.063 17.8434 16.4288 18.717 17.3418 19.2795C18.3222 19.8836 21.2323 19.8926 22.2734 19.3834C23.2578 18.902 23.7775 17.7778 25.1605 18.0299C26.3875 18.2536 27.103 19.0783 26.9162 20.3424C26.7612 21.2998 26.1402 21.991 25.3854 22.5382C22.692 24.4717 17.1447 24.3708 14.4022 22.5053C12.5765 21.2635 12.0438 18.4762 14.7674 18.0231ZM25.306 21.5758C26.3365 20.59 26.6411 18.9684 24.8555 18.8187C24.3842 18.7792 23.9271 19.0922 23.6184 19.3949C22.5243 20.468 21.2634 20.5448 19.8125 20.5114C19.1067 20.4951 18.2768 20.5197 17.5774 20.2612C17.2166 20.1256 16.8776 19.9373 16.5714 19.7023C15.9311 19.2083 15.6381 18.7337 14.7793 18.8225C12.841 19.2107 13.7984 21.2482 15.017 21.9622C17.2847 23.291 20.0269 23.3384 22.5463 22.8495C23.4848 22.6594 24.6091 22.2084 25.306 21.5758Z" fill="#A7A7A7"/>
<path d="M18.2259 20.6251C18.552 20.6751 19.3137 20.7195 19.6458 20.7345C19.7629 21.2856 19.9585 21.7894 19.3086 22.0285C18.2854 22.3651 17.3522 21.5974 18.2259 20.6251Z" fill="#A7A7A7"/>
<path d="M21.3131 20.6711C21.9313 20.545 22.1077 21.591 21.7059 21.9012C21.439 22.1073 21.044 22.1232 20.7256 22.0848C19.8438 21.8617 20.0421 21.4877 20.1638 20.7167C20.579 20.7279 20.9021 20.7073 21.3131 20.6711Z" fill="#A7A7A7"/>
<path d="M23.1281 20.0356C23.6078 20.1145 24.3689 21.7537 22.5487 21.7774C21.9445 21.7169 21.9759 21.0525 21.944 20.5758C22.4475 20.4053 22.6783 20.2904 23.1281 20.0356Z" fill="#A7A7A7"/>
<path d="M16.6091 20.0251C16.7364 20.053 17.5039 20.4586 17.8637 20.5652C17.846 21.0227 17.8593 21.6136 17.3469 21.7585C17.3358 21.7595 17.3248 21.7603 17.3137 21.7611C16.0132 21.8456 15.758 20.9354 16.6091 20.0251Z" fill="#A7A7A7"/>
<path d="M15.3218 19.0714C15.6323 19.0736 16.1668 19.6187 16.4042 19.8316C16.2349 20.2908 16.1241 20.4983 15.7761 20.8335C15.0788 21.1369 14.7278 20.2927 14.8191 19.7299C14.876 19.3796 15.0532 19.2563 15.3218 19.0714Z" fill="#A7A7A7"/>
<path d="M24.3437 19.0735C25.321 19.1106 25.1901 20.8993 24.2167 20.9195C23.7585 20.671 23.5962 20.2801 23.4263 19.8116C23.7364 19.5502 24.0174 19.3134 24.3437 19.0735Z" fill="#A7A7A7"/>
<path d="M27.6891 16.3538C27.7178 16.5116 27.7404 16.8855 27.7565 17.0609C27.1636 18.0202 27.8555 18.8476 28.1073 19.8417C28.2418 20.372 28.2483 20.9271 28.1261 21.4604C27.798 22.9325 26.5553 24.1992 25.3084 24.9962C22.5742 26.7438 18.3376 26.8256 15.438 25.5009C13.3172 24.4725 11.0259 22.253 11.7925 19.6514C12.0555 18.7588 12.6383 17.9475 12.0947 17.0779L12.0978 16.5458C12.1127 16.4404 12.0944 16.4673 12.1524 16.4048C12.8452 17.0166 13.0873 17.1807 13.9038 17.6043C12.5366 18.301 11.9928 19.3234 12.4331 20.8577C12.7544 21.977 13.6202 22.8627 14.6553 23.3786C17.4647 24.743 20.7382 24.7775 23.7378 23.957C25.8187 23.3877 28.0214 21.6782 27.4246 19.1787C27.249 18.4429 26.5636 17.9512 25.9129 17.6097C26.6122 17.2564 27.1377 16.9121 27.6891 16.3538Z" fill="#A7A7A7"/>
<path d="M18.924 10.4436C19.0433 10.4174 19.7122 10.413 19.8606 10.4144C21.4523 10.429 23.2585 10.6209 24.682 11.3918C25.3186 11.7364 26.0373 12.3459 26.2433 13.0663C26.05 12.9125 25.8486 12.7693 25.6399 12.6374C24.3961 11.8582 22.2512 11.392 21.1722 12.5981C20.2191 13.6635 21.2566 15.7433 21.8628 16.7683C22.1518 17.257 22.8307 18.4736 21.8965 18.6614C21.5561 18.7299 21.1918 18.4665 20.933 18.276C20.8679 18.5284 20.8315 18.6524 20.6897 18.8696C20.5655 19.005 20.4118 19.1098 20.2406 19.1756C19.4977 19.4574 19.1464 18.8672 18.9445 18.2797C18.4168 18.6647 17.8068 18.9895 17.4712 18.1768C17.5293 17.4746 17.9981 16.8418 18.3303 16.2019C18.5275 15.8234 18.6952 15.4302 18.8318 15.0256C19.2692 13.7185 19.2404 12.4871 17.7467 12.0222C16.7097 11.6994 15.5493 11.9582 14.6019 12.4442C14.2442 12.6276 13.9325 12.8634 13.5754 13.0437C14.2412 11.1427 17.1751 10.567 18.924 10.4436Z" fill="#A7A7A7"/>
<path d="M18.8889 9.44691C19.2008 9.3988 19.764 9.41366 20.088 9.4171C22.3227 9.44005 24.8392 9.94229 26.59 11.4148C27.9563 12.5639 28.5695 14.4775 27.2867 15.8987C26.3929 16.8888 24.5377 17.7238 23.2256 17.8093L23.2206 16.4526C24.2949 16.2028 25.1229 15.9586 25.9985 15.2532C27.6051 13.959 26.8217 12.1339 25.3168 11.1725C23.9971 10.3294 22.4592 10.0022 20.9204 9.88276C19.0205 9.67244 16.4589 10.0805 14.7593 10.983C13.5664 11.6165 12.3187 13.1926 13.1526 14.5671C13.889 15.7809 15.2802 16.146 16.55 16.48L16.5493 17.8348C15.2389 17.5853 14.0034 17.1606 12.9445 16.3161C10.9228 14.7037 11.8565 12.2232 13.7579 10.989C15.314 9.9789 17.0602 9.58943 18.8889 9.44691Z" fill="#A7A7A7"/>
<path d="M22.9191 12.6612C23.935 12.5391 25.0621 12.9517 25.9182 13.4848C25.2938 13.3364 24.9316 13.2664 24.2931 13.2158C24.3339 13.2702 24.3725 13.3263 24.4089 13.3838C24.5574 13.6168 24.6262 13.8886 24.5624 14.1627C24.5084 14.3895 24.3662 14.5849 24.1676 14.7053C23.9419 14.844 23.6697 14.8843 23.4138 14.8167C22.6891 14.6272 22.684 13.9782 22.8523 13.3937C21.933 13.7692 21.9104 14.4396 22.7755 14.913L22.7879 14.9188C23.7845 15.3736 24.8809 15.048 25.8386 14.6901C24.9047 15.6787 23.1755 16.1544 21.9882 15.34C21.3663 14.9135 21.0755 13.9692 21.553 13.3305C21.8824 12.89 22.4 12.7361 22.9191 12.6612Z" fill="#A7A7A7"/>
<path d="M16.2929 12.6252C16.3594 12.6188 16.426 12.6144 16.4928 12.6121C17.0601 12.5933 17.6473 12.7012 18.0725 13.1087C18.3321 13.3541 18.4821 13.6946 18.4885 14.0528C18.5029 15.1217 17.4517 15.7638 16.4848 15.7279C15.4368 15.6891 14.735 15.432 13.9919 14.6887C14.919 15.0479 15.5097 15.1982 16.5304 15.0716C17.5738 14.7892 18.3153 13.9009 16.9582 13.3929C17.1859 14.0266 17.082 14.7006 16.3031 14.8097C16.0488 14.8457 15.7908 14.7786 15.5856 14.6233C15.0722 14.2312 15.187 13.6527 15.5333 13.2042C14.8428 13.2255 14.5262 13.3122 13.8495 13.4751C14.6846 12.9678 15.323 12.727 16.2929 12.6252Z" fill="#A7A7A7"/>
<path d="M24.9857 9.70046C25.0149 9.69974 25.052 9.69947 25.081 9.70483C27.4002 10.1344 30.1268 11.6529 29.8425 14.4159C29.7878 14.9478 29.5314 15.2786 29.125 15.5944C28.9214 15.7118 28.3533 15.9822 28.1504 15.8428C28.1412 15.6997 28.264 15.5928 28.3168 15.462C29.4444 12.6696 27.1773 10.7529 24.9857 9.70046Z" fill="#A7A7A7"/>
<path d="M14.6251 9.70422C14.6515 9.70104 14.735 9.70445 14.7666 9.70491C14.7375 9.75639 14.2716 9.97752 14.1869 10.0195C12.2112 10.9976 10.3681 13.3651 11.6132 15.5978C11.6533 15.6697 11.6768 15.7775 11.6451 15.8568C11.472 15.9069 11.1214 15.7698 10.9583 15.7011C9.60884 15.074 9.84841 13.2491 10.4993 12.1927C11.3768 10.7684 13.0633 10.0693 14.6251 9.70422Z" fill="#A7A7A7"/>
<path d="M30.5901 11.5302C31.2907 12.3089 31.0548 14.552 30.2283 15.1945C30.6064 14.1092 30.4651 13.1967 29.9962 12.1815C30.1782 11.9535 30.3884 11.7412 30.5901 11.5302Z" fill="#A7A7A7"/>
<path d="M9.2101 11.5223L9.81398 12.1515C9.34723 13.2263 9.25677 13.9711 9.54658 15.1066L9.48772 15.0968C9.01387 14.6421 8.87006 13.7725 8.82136 13.1447C8.77288 12.5196 8.89389 12.0577 9.2101 11.5223Z" fill="#A7A7A7"/>
<path d="M27.9197 23.7086C28.066 23.695 28.1881 23.743 28.3034 23.8284C28.3453 23.9073 28.381 23.9684 28.3524 24.067C28.2429 24.4445 27.3834 25.1471 27.0838 25.3392C26.9266 25.3445 26.8375 25.3171 26.7099 25.2322C26.6621 25.1535 26.6211 25.1006 26.6465 24.9967C26.7368 24.6281 27.6292 23.9085 27.9197 23.7086Z" fill="#A7A7A7"/>
<path d="M24.8145 25.9445C25.0373 25.9761 25.2414 26.2582 25.1319 26.4071C24.8669 26.7672 23.9502 27.016 23.5516 27.1587C23.2835 27.1185 23.0452 26.9086 23.2003 26.6772C23.4221 26.3462 24.4548 26.0468 24.8145 25.9445Z" fill="#A7A7A7"/>
<path d="M11.6655 23.7103C12.0893 23.7066 12.7162 24.3905 13.0082 24.694C13.2388 24.9337 13.2053 25.155 12.9368 25.3488C12.5809 25.328 11.4581 24.4068 11.4668 23.9883C11.4693 23.8717 11.5866 23.7793 11.6655 23.7103Z" fill="#A7A7A7"/>
<path d="M15.0545 26.0073C15.0877 26.0064 15.1209 26.0073 15.1539 26.0101C15.421 26.0324 16.5421 26.4612 16.753 26.711C16.9163 26.9045 16.7608 27.0973 16.5798 27.2367C16.2234 27.2116 15.2195 26.8139 14.9352 26.5386C14.7453 26.3546 14.8859 26.1554 15.0545 26.0073Z" fill="#A7A7A7"/>
<path d="M19.196 27.0923C19.6485 27.0797 20.764 26.9746 21.075 27.2557C21.185 27.4835 21.0688 27.5915 20.8766 27.7254C20.4126 27.8031 19.465 27.888 19.0583 27.6233C18.8688 27.5 19.0809 27.1995 19.196 27.0923Z" fill="#A7A7A7"/>
<path d="M24.8517 5.88162C25.2362 5.85791 25.5701 6.14511 25.6065 6.53079C25.6428 6.91647 25.3685 7.26162 24.9864 7.31096C24.7277 7.34436 24.4715 7.23328 24.318 7.02119C24.1645 6.8091 24.1382 6.52975 24.2494 6.29246C24.3605 6.05517 24.5914 5.89767 24.8517 5.88162Z" fill="#A7A7A7"/>
<path d="M14.8813 5.8809C15.2685 5.85692 15.6042 6.14738 15.6385 6.53597C15.6728 6.92456 15.3931 7.26995 15.0078 7.31488C14.7492 7.34506 14.4946 7.2316 14.3431 7.01864C14.1915 6.80567 14.1669 6.52674 14.2788 6.29025C14.3907 6.05376 14.6214 5.89703 14.8813 5.8809Z" fill="#A7A7A7"/>
<path d="M19.8854 3.8578C20.003 3.84751 20.1168 3.90222 20.1828 4.00067C20.2487 4.09913 20.2562 4.22581 20.2025 4.3315C20.1488 4.43719 20.0423 4.50523 19.9244 4.50919C19.7486 4.51508 19.6002 4.37912 19.5896 4.20257C19.579 4.02602 19.7102 3.87314 19.8854 3.8578Z" fill="#A7A7A7"/>
<path d="M75.946 11.4818C77.3266 11.31 82.5607 10.8755 83.5902 11.5018C83.8579 11.6647 83.9303 11.9195 84 12.2049V13.1294C83.963 13.2589 83.9406 13.7119 83.9326 13.8735C83.9036 14.5743 83.8998 15.2759 83.9211 15.977C83.9375 16.4277 83.9931 16.9002 83.9642 17.3495C83.9524 17.5337 83.9219 17.7967 83.8023 17.9437C83.3483 18.5014 81.5179 18.6289 80.832 18.6856C80.2698 18.7321 75.9619 18.8775 75.7072 18.6084C75.5746 18.4684 75.5666 18.0901 75.5567 17.9061C75.5198 17.2424 75.4226 14.7155 75.7894 14.3123C76.6406 13.3774 80.685 14.0855 82.0054 14.0117C82.0938 14.0067 82.1821 14.0018 82.2446 13.9312C82.3783 13.6734 82.2922 13.257 82.2576 12.961C80.8175 12.8571 79.2118 12.9584 77.76 12.9222C77.3654 12.9123 76.1969 12.9604 75.8801 12.8608C75.7887 12.6316 75.9136 11.7798 75.946 11.4818ZM79.144 15.8424C79.0103 16.6226 78.8169 16.9504 79.7439 16.9351C80.1685 16.9436 80.6039 16.8794 81.0251 16.8434C81.1751 16.8305 81.6459 16.781 81.7381 16.6869C81.9125 16.5087 81.7403 15.8367 81.6767 15.6345C81.5423 15.6395 81.3454 15.6407 81.2167 15.6525C80.4953 15.6982 79.8608 15.7361 79.144 15.8424Z" fill="#A7A7A7"/>
</svg>
