<svg width="58" height="32" viewBox="0 0 58 32" fill="none" xmlns="http://www.w3.org/2000/svg">
<g clip-path="url(#clip0_119_462)">
<path d="M29.6869 19.0445C29.7002 18.085 29.7898 17.1169 29.7889 16.1558C29.7886 15.8189 29.7801 15.5021 29.8287 15.1669C30.2684 14.6311 31.1237 14.9993 31.2115 15.745C31.4071 17.405 31.0771 19.0137 31.1507 20.677C31.1773 21.2789 31.2521 21.5504 31.4223 22.1129C31.4827 22.363 31.1694 23.7352 31.2835 24.0987C31.9384 23.9853 31.8415 18.7896 34.9531 18.7842L34.8188 18.948C34.1287 19.7944 33.6436 20.1718 33.7482 21.3771C33.7539 21.442 33.7743 21.5043 33.7981 21.5652L33.8873 21.5923C34.4427 21.1446 34.5594 19.7873 34.9914 19.1642L35.0467 19.0053L35.2317 18.9384L35.2803 18.9665C36.1919 19.5025 35.4155 22.1082 35.9491 22.7948C36.3169 22.7856 36.4748 21.8326 36.6118 21.5915C37.28 20.416 37.2433 19.6468 37.236 18.3248C38.8081 18.3159 38.8766 18.7792 39.0921 20.2428C39.4505 19.035 39.8228 17.7193 41.4317 17.9749C41.7921 18.0322 41.9784 18.5137 41.9762 18.8299C41.965 20.464 41.1056 22.2269 41.5631 23.8405C41.6083 23.9995 42.0127 24.3278 42.1518 24.4479C41.6954 25.6964 40.9178 25.1252 40.2437 24.413C39.9566 22.9003 40.0146 21.7619 40.2072 20.2459C40.2436 19.9593 40.4354 19.2856 40.414 19.115L40.3518 19.0805C40.2135 19.2635 40.0534 19.6309 39.94 19.8451C39.1393 21.3577 38.7888 22.9453 38.6544 24.6436C38.3401 24.5759 38.0091 24.4962 37.6911 24.4594C37.5917 24.0954 37.2851 22.0424 37.2367 21.9695C37.0391 22.1256 36.9716 22.8928 36.8118 23.1519C36.5048 23.6496 36.0211 23.8409 35.5146 24.088C35.2246 23.9269 34.9097 23.7767 34.6821 23.5408L34.645 23.5026C34.6184 23.4748 34.5997 23.4535 34.5757 23.4242C34.5272 23.1905 34.3841 22.3248 34.2892 22.1716C34.1391 22.161 33.9556 22.2697 33.8129 22.336C33.3237 22.5635 32.8889 22.4794 32.3666 22.4252C32.1817 22.9437 31.6456 25.7219 31.6249 26.3126C31.9781 26.4419 36.0296 26.2529 36.8711 26.396C39.9311 26.916 43.1048 27.1754 46.1051 28.0395C46.5612 28.1708 47.1126 28.2625 47.5323 28.4286C48.2721 28.5438 49.9075 29.1362 50.7062 29.3842C50.9614 29.4377 51.0264 29.4543 51.2631 29.5603L51.1349 29.7629L50.8614 29.8418C50.6733 29.9164 50.5643 29.9791 50.3664 29.9412C49.9711 29.969 49.0238 29.6461 48.6428 29.505C46.2915 28.8766 43.4084 28.4317 41.0077 28.0885C40.076 27.9088 38.1127 27.7234 37.1597 27.6746C35.2172 27.4671 32.6771 27.5876 30.6932 27.6377C28.6366 27.6895 26.3803 28.2266 24.3224 28.4621C22.5276 28.7377 20.7779 29.3551 18.9499 29.5097C18.2239 29.5871 17.4635 29.8067 16.7339 29.901C16.2076 29.969 16.1167 30.0376 16.0949 29.4566C15.8611 29.5633 15.2349 30.1382 14.9612 29.8581C14.9426 29.4466 15.155 29.317 15.5039 29.1889C15.8294 29.0402 16.3763 28.8531 16.7259 28.721C17.1685 28.4166 18.4594 28.2123 19.0203 28.0607C21.3884 27.4199 23.8185 27.1453 26.2338 26.7489C27.4493 26.5494 29.0985 26.188 30.3257 26.3593C29.8893 25.3886 30.0747 24.5993 29.8726 23.8413C29.644 23.872 29.6982 24.0633 29.4753 24.1307C28.6587 24.3779 28.2751 24.3916 27.4654 24.2C27.029 23.6556 26.7819 22.9856 26.761 22.2901C26.6924 20.5 27.8287 19.1127 29.6869 19.0445ZM28.8207 23.5623C29.6377 22.9477 29.9987 20.4971 29.6237 19.5605C29.4676 19.476 29.5305 19.4998 29.3189 19.5085C29.0866 19.579 28.8763 19.6546 28.7797 19.893C28.4351 20.743 27.9612 22.946 28.8207 23.5623ZM30.5856 25.5119C30.5845 25.2459 30.5238 24.2355 30.2575 24.1421C30.1216 24.6082 30.0647 25.2756 30.5856 25.5119Z" fill="#A7A7A7"/>
<path d="M47.5323 28.4287C48.2721 28.5439 49.9075 29.1363 50.7062 29.3843C50.9614 29.4378 51.0264 29.4544 51.263 29.5603L51.1349 29.763L50.8613 29.8419C50.6732 29.9165 50.5643 29.9792 50.3664 29.9413C49.9711 29.9691 49.0238 29.6462 48.6427 29.5051L49.0629 29.3584C48.582 28.9973 47.992 29.0361 47.5323 28.4287Z" fill="#A7A7A7"/>
<path d="M49.0629 29.3583C49.3522 29.3677 50.211 29.6923 50.3664 29.9412C49.9711 29.969 49.0238 29.6462 48.6427 29.505L49.0629 29.3583Z" fill="#A7A7A7"/>
<path d="M50.7062 29.3842C50.9614 29.4376 51.0264 29.4542 51.263 29.5602L51.1349 29.7628L50.8613 29.8418C50.7581 29.6976 50.7444 29.5589 50.7062 29.3842Z" fill="#A7A7A7"/>
<path d="M16.7259 28.7209C16.5138 28.9615 16.5506 28.8801 16.37 29.0409C16.4061 29.2251 16.4161 29.1547 16.3469 29.3132C16.2253 29.3759 16.2057 29.3883 16.0739 29.4193L16.0949 29.4565C15.8611 29.5633 15.2349 30.1382 14.9612 29.858C14.9426 29.4466 15.155 29.3169 15.5039 29.1889C15.8294 29.0402 16.3763 28.853 16.7259 28.7209Z" fill="#A7A7A7"/>
<path d="M16.7258 28.7209C16.5137 28.9615 16.5505 28.8801 16.3699 29.0409C16.0497 29.3161 15.9071 29.3512 15.5039 29.1889C15.8293 29.0402 16.3763 28.853 16.7258 28.7209Z" fill="#A7A7A7"/>
<path d="M44.8029 4.33228L45.0606 4.3514C45.0242 4.44629 44.901 5.21214 44.8314 5.45733C44.6419 6.12479 44.2951 6.96005 44.1735 7.60186C43.7358 9.9125 43.8972 11.6731 42.6127 13.8036C41.625 15.442 40.465 16.0666 38.5645 16.1922C37.9189 16.258 37.3274 16.3196 36.6705 16.3204C35.7323 16.3215 34.75 16.2324 33.8506 16.5782C33.7274 16.6255 33.7404 16.8427 33.5393 16.896L33.4977 16.8248C33.4474 15.9744 34.1313 14.3262 34.3134 13.5106C34.7016 11.773 35.177 10.2659 36.7605 9.24684C36.9644 9.11561 37.2554 8.90855 37.4946 8.81979C39.813 7.95978 43.9153 6.9731 44.8029 4.33228ZM35.326 13.9105C36.16 12.7107 37.6763 12.6571 38.8721 11.9826C39.2711 11.7576 40.3088 10.2559 40.7746 10.5973C40.7903 10.8467 40.5415 11.1087 40.4198 11.3144C39.081 13.578 36.7702 12.948 35.4346 15.338C36.7381 15.2041 38.0836 15.3766 39.3916 15.0757C41.6004 14.5677 42.6479 12.0035 42.9713 10.0015C43.1329 9.0017 43.39 7.41714 43.9403 6.57131L43.9583 6.54403C43.4132 6.77589 42.8779 7.14719 42.4169 7.51929C39.7909 9.63879 37.4681 8.61532 35.8365 11.9552L35.642 12.3754C35.5506 12.6481 35.3906 13.5828 35.326 13.9105Z" fill="#A7A7A7"/>
<path d="M6.75752 15.5774C7.02198 15.3964 7.52268 15.093 7.83335 15.0741C7.98317 15.0359 8.40055 15.2009 8.44977 15.3598C8.91791 16.8688 9.05798 18.4994 9.53031 20.0275C9.65979 20.4463 9.66018 21.2668 9.97431 21.54C10.3378 21.5704 10.3924 21.2152 10.7314 20.9641L10.8056 21.0006C11.1072 22.0229 9.99402 23.6649 11.157 24.358C11.2274 24.4 11.4311 25.2938 11.4782 25.4675C11.6468 26.4286 11.7315 26.2262 11.9614 26.9279C12.1445 27.5205 12.412 27.9618 12.6704 28.5224C13.0645 29.3776 13.1415 30.1634 13.2477 31.0816C11.1484 30.4885 9.48488 25.5652 8.83504 23.6329C8.43233 23.6374 7.68269 23.7436 7.25868 23.7911C7.23948 24.6432 7.80112 28.2939 7.22837 28.5924C6.97814 28.6041 7.00096 28.6398 6.80787 28.5381C6.40148 27.6534 6.20063 25.2385 5.933 24.1809C5.84991 24.1347 5.76744 24.0874 5.68554 24.0393C5.48039 23.9171 5.46406 23.9058 5.41397 23.7111C5.47687 23.5157 5.70248 23.3535 5.86486 23.2121C5.93329 22.3317 5.86209 21.3107 5.88208 20.4099C5.91176 19.0728 6.30893 16.8343 6.75752 15.5774ZM10.1771 25.9106C10.4228 26.3266 10.6552 26.7468 10.8804 27.174C11.0759 27.5449 11.2286 28.0115 11.4765 28.338L11.535 28.3458C11.4633 27.906 11.3589 27.5369 11.5447 27.1164L11.5303 27.0465C11.4524 26.733 11.3278 26.2012 11.008 26.072C10.8287 26.1009 10.5743 26.1462 10.4913 25.946C10.7522 25.6928 10.8922 25.9239 11.1533 25.6199C10.8909 25.4213 10.6483 25.4615 10.3421 25.5165C10.3441 25.7136 10.2937 25.7578 10.1771 25.9106ZM10.3092 25.484C10.2999 25.1502 10.3818 24.9131 10.3213 24.504L10.2679 24.4811C10.0552 24.8215 10.1157 24.8878 9.98643 25.2533L10.3092 25.484ZM8.26309 22.767C8.29718 22.6301 7.37972 19.6032 7.32308 19.5483C7.15582 20.5895 7.18555 21.7185 7.19014 22.7782L8.26309 22.767ZM10.8659 25.2615C10.8569 25.0445 10.9013 24.8698 10.6808 24.7528C10.6571 24.9856 10.6176 24.9901 10.7105 25.1622L10.8659 25.2615Z" fill="#A7A7A7"/>
<path d="M10.9892 26.2222L11.0863 26.304C11.1411 26.5175 11.1043 26.6228 11.0593 26.8383C10.9428 26.7477 10.9419 26.731 10.8749 26.5951C10.8642 26.4169 10.9023 26.3722 10.9892 26.2222Z" fill="#A7A7A7"/>
<path d="M11.1533 25.6199C11.0509 25.3931 10.8314 24.8114 10.9658 24.5951L10.9168 24.5353C11.2571 25.096 10.979 25.1809 11.4782 25.4675C11.6468 26.4285 11.7315 26.2262 11.9614 26.9279C11.803 26.981 11.6983 27.0198 11.5303 27.0464C11.4524 26.733 11.3278 26.2012 11.008 26.072C10.8287 26.1009 10.5743 26.1462 10.4913 25.946C10.7522 25.6927 10.8922 25.9239 11.1533 25.6199Z" fill="#A7A7A7"/>
<path d="M9.98643 25.2534L10.3092 25.484L10.3421 25.5166C10.3441 25.7137 10.2937 25.7579 10.1771 25.9107C10.0726 25.8451 10.0465 25.8242 9.95523 25.7413C9.88477 25.5596 9.93614 25.4431 9.98643 25.2534Z" fill="#A7A7A7"/>
<path d="M7.3231 19.5483C7.37974 19.6033 8.29721 22.6301 8.26311 22.767L7.19016 22.7782C7.18558 21.7186 7.15584 20.5895 7.3231 19.5483Z" fill="#A7A7A7"/>
<path d="M10.6808 24.7528C10.9014 24.8699 10.8569 25.0446 10.866 25.2615L10.7105 25.1622C10.6176 24.9902 10.6571 24.9856 10.6808 24.7528Z" fill="#A7A7A7"/>
<path d="M12.7696 8.22891C12.6161 7.37745 12.9248 6.52217 13.8092 6.22371C16.2068 5.41461 17.0353 9.71694 17.6714 11.2724C17.8747 11.7696 17.9316 12.8703 18.1506 13.4682L18.2195 13.4681C18.4816 13.0095 18.5925 11.134 18.7102 10.49C19.2034 7.79376 19.7406 5.13229 20.9674 2.65279C21.2963 1.98797 21.6016 1.25166 22.0261 0.639038L22.3516 0.770156C22.1157 1.80009 21.6883 3.10667 21.3514 4.15129C21.0295 5.14939 20.6996 5.70643 20.4378 6.8487C19.9405 9.01787 20.1156 11.0747 19.7641 13.2564C19.593 14.3182 19.6534 15.5784 19.5657 16.6547C17.619 19.6902 16.7494 15.9749 16.4317 14.3866C16.232 13.3884 16.1664 13.7668 15.9691 12.8682C15.7689 12.0104 14.5096 7.25061 13.839 7.03854C13.6874 7.04687 13.5458 7.11651 13.4473 7.23126C13.3974 7.2897 13.3786 7.33358 13.3479 7.4013L13.3326 7.43449C13.3234 7.4571 13.3141 7.47977 13.3048 7.50238C13.238 7.76569 13.1396 8.29191 12.9318 8.44541C12.7955 8.38101 12.8409 8.41234 12.7696 8.22891Z" fill="#A7A7A7"/>
<path d="M12.7696 8.22889C12.7881 8.0098 12.822 7.6615 12.9458 7.48425C12.9854 7.51463 13.0411 7.75898 13.0609 7.82856C13.2 7.70622 13.0911 7.73389 13.1716 7.51339L13.3048 7.50236C13.238 7.76567 13.1395 8.29189 12.9318 8.4454C12.7954 8.38099 12.8409 8.41232 12.7696 8.22889Z" fill="#A7A7A7"/>
<path d="M31.843 12.4204C30.6062 10.2533 29.0919 8.14371 30.4148 5.63204C31.0455 4.4347 31.4201 3.98205 31.8046 2.66445C32.0794 1.72288 31.7391 0.652785 31.8223 0.230966L31.9132 0.177979C32.2381 0.359272 32.6044 1.25078 32.781 1.60228C33.4566 2.94717 34.8633 4.22578 35.3262 5.63265C36.0612 7.86634 35.3379 9.36034 33.5648 10.7867C33.1505 11.1201 32.5556 11.6108 32.2996 12.0873L32.2751 12.1336L32.0818 12.0733C31.9108 12.1797 31.943 12.2033 31.843 12.4204ZM33.1642 7.3156C32.8253 8.71965 32.6104 8.95208 32.469 10.4657C33.7465 9.08342 35.3565 8.03166 34.3462 5.70887C34.129 5.20971 32.651 2.47973 32.3758 2.37156C32.2318 3.00297 32.1113 4.0851 31.9146 4.6107C31.411 5.9566 30.5843 6.85345 30.9976 8.4091C31.0776 8.71015 31.1396 9.29385 31.4472 9.41113C31.5682 9.32378 32.2503 7.45695 32.4059 7.21137C32.5623 6.96448 32.4453 5.97207 32.7417 5.71686C33.0344 5.87661 33.2132 6.98592 33.1642 7.3156Z" fill="#A7A7A7"/>
<path d="M23.7945 20.3893C24.1909 19.6012 24.3253 18.5571 25.2241 18.2428C25.6675 18.0722 26.466 18.0528 26.5507 18.6792C26.7163 19.9047 26.2621 21.2269 26.2153 22.4566C26.1846 23.2623 25.9281 24.2419 26.8481 24.5935L26.8899 24.6727C26.5198 25.5109 26.1087 25.4577 25.3436 25.1817C23.8923 22.8479 25.3438 20.2105 25.0025 19.5126C24.9008 19.5221 24.8908 19.5288 24.8234 19.6077C24.669 19.7885 23.6139 22.8131 23.5494 23.1533C23.4614 23.6167 23.5355 24.1221 23.411 24.5757C23.3653 24.742 23.3132 24.8037 23.1519 24.8492C22.9899 24.774 22.9616 24.7538 22.8243 24.6395L22.7276 24.645L22.5627 24.8915L22.4943 24.8752C22.3282 24.3854 22.2639 23.7697 22.0973 23.2366C21.9488 23.673 21.8612 23.9309 21.5872 24.3196C21.4798 24.3623 21.3105 24.4379 21.204 24.4637C20.1872 24.7103 20.1715 23.1746 19.8597 22.6759L19.7801 22.6984C19.3988 23.5348 19.5598 23.9546 18.6811 24.5571C18.2681 24.499 17.9626 24.4884 17.7847 24.0513C17.5962 23.5878 17.5715 23.0575 17.4418 22.571C17.3382 22.2815 17.327 21.9429 17.2999 21.6337C17.2124 21.0702 17.1857 20.1077 17.2222 19.5347C17.3965 19.5363 18.1918 19.5514 18.237 19.7386C18.558 21.0652 18.4306 22.4686 18.7021 23.8412C18.8544 23.5059 19.4823 22.1758 19.5304 21.9372C19.6953 21.12 19.7478 20.0128 19.8637 19.1306L20.6143 19.1205L20.6214 19.1475C20.7777 19.768 20.6336 20.4312 20.6703 21.0382C20.7052 21.6151 20.9546 23.2903 21.2867 23.6944L21.3849 23.7007C21.9181 23.1535 21.8792 19.7775 21.8653 18.8602C21.8643 18.796 21.8629 18.7317 21.861 18.6675C23.4769 18.5938 23.5057 18.8476 23.7945 20.3893ZM23.5724 20.6907C23.7321 20.5085 23.7545 20.5426 23.7747 20.3434L23.6859 20.2647C23.5055 20.4076 23.509 20.357 23.4806 20.5348L23.5724 20.6907Z" fill="#A7A7A7"/>
<path d="M17.2998 21.6337C17.5166 21.4969 17.4763 21.4725 17.6821 21.4938C17.9126 21.8142 17.7738 22.3521 17.4417 22.571C17.3381 22.2815 17.3269 21.9429 17.2998 21.6337Z" fill="#A7A7A7"/>
<path d="M23.6858 20.2646L23.7747 20.3433C23.7544 20.5425 23.732 20.5085 23.5724 20.6907L23.4805 20.5348C23.5089 20.357 23.5054 20.4076 23.6858 20.2646Z" fill="#A7A7A7"/>
<path d="M11.9212 14.1972C12.1925 13.9699 12.5095 13.8026 12.851 13.7063C14.8365 13.1289 14.5397 17.2397 14.297 18.3015C14.1722 19.0144 13.7257 19.5187 13.4013 20.1099C13.0725 20.7093 13.4221 22.0629 13.5894 22.637C13.7131 21.5045 13.8354 21.0429 14.2274 19.9841C15.6181 19.3827 16.1176 19.7675 16.5151 21.203C16.744 22.0298 16.7449 22.7667 16.7165 23.6169C16.7145 24.1058 16.8352 25.0842 16.7059 25.4398C16.4085 25.9715 15.5078 26.3761 14.9161 26.2549C14.7583 26.1348 14.7975 26.2012 14.7685 26.0082C14.9065 25.5815 15.188 25.4041 15.5317 25.1127C15.6398 24.7138 15.7264 24.2942 15.6889 23.8827C15.6405 23.3516 15.2689 20.3704 14.9905 20.116L14.9014 20.1341C13.2714 22.1933 14.7112 24.6397 14.1932 26.3991L13.3543 26.455C13.2834 26.1847 13.1988 25.9789 13.1008 25.7178C12.0921 23.0293 11.6088 20.0654 11.5426 17.2023C11.5188 16.1692 11.7014 15.1921 11.9212 14.1972ZM16.4632 23.8902L16.4069 23.6949C16.2616 23.8424 16.1149 25.1172 16.2241 25.366L16.3319 25.4085C16.4041 25.3759 16.4583 25.358 16.516 25.3033C16.5819 24.8373 16.5129 24.3566 16.4632 23.8902ZM13.4295 19.3694C14.1847 17.721 14.1637 16.2397 13.653 14.5359C13.4801 14.3886 13.2532 14.158 13.0412 14.1168C12.6748 15.1474 12.9437 16.8269 12.9872 17.9361C13.0037 18.3546 12.8971 19.2795 13.1936 19.5924L13.2676 19.5951C13.3531 19.5044 13.3855 19.4826 13.4295 19.3694Z" fill="#A7A7A7"/>
<path d="M16.516 25.3034C16.4583 25.3581 16.4042 25.3759 16.3319 25.4085L16.2242 25.366C16.1149 25.1172 16.2617 23.8425 16.407 23.6949L16.4633 23.8902C16.5129 24.3567 16.5819 24.8373 16.516 25.3034Z" fill="#A7A7A7"/>
<path d="M16.4632 23.8903C16.4939 23.7557 16.5036 23.6928 16.5142 23.5552L16.7165 23.6169C16.7145 24.1059 16.8352 25.0842 16.7059 25.4398C16.5967 25.4147 16.587 25.3886 16.516 25.3034C16.5819 24.8373 16.5129 24.3567 16.4632 23.8903Z" fill="#A7A7A7"/>
<path d="M45.8265 22.1942C45.9955 21.95 46.2164 21.6717 46.3603 21.4813C46.5511 21.2288 46.4537 19.784 46.7946 19.8001C47.3907 19.8283 47.8628 20.2184 47.8906 20.7889C47.9512 22.0343 47.4186 23.2616 47.3949 24.4188C47.8654 23.2225 48.2046 22.058 49.503 21.4682C50.2157 21.1444 51.089 21.1788 51.4001 22.0084C51.6892 22.7791 50.7045 24.8509 50.9085 25.4675C51.1581 25.5533 51.2983 25.2564 51.4438 25.075C51.55 24.8632 52.8857 23.104 53.0408 23.0846C53.049 23.2622 52.6147 24.5136 52.4859 24.6467C52.2011 25.3222 51.7334 26.227 51.0201 26.4868C49.4147 27.0716 49.3152 25.5875 49.5169 24.4977C48.9525 24.6275 48.6486 24.6655 48.0628 24.647C47.7945 25.4864 47.0399 26.0242 46.1952 25.5601C45.9616 25.1818 46.1387 23.2049 46.2023 22.7468C46.2876 22.5493 46.372 22.3613 46.3416 22.15L46.2653 22.1052C46.1042 22.0802 45.9844 22.1402 45.8265 22.1942ZM49.1377 23.9657C49.875 23.2979 50.3277 22.5792 50.7718 21.6911L50.7149 21.5962L50.598 21.5864C50.0051 21.9931 48.72 23.2507 49.0368 24.0432L49.1095 24.0264L49.1377 23.9657Z" fill="#A7A7A7"/>
<path d="M51.4437 25.0749C51.5499 24.8632 52.8856 23.1039 53.0408 23.0845C53.049 23.2622 52.6147 24.5135 52.4859 24.6466C52.3855 24.4023 52.5563 24.1511 52.5966 23.8642L52.5546 23.8492C52.3258 24.1708 51.7883 24.9032 51.4437 25.0749Z" fill="#A7A7A7"/>
<path d="M46.1952 25.5599C45.9616 25.1817 46.1387 23.2047 46.2024 22.7467C46.3115 23.7611 46.312 24.5412 46.1952 25.5599Z" fill="#A7A7A7"/>
<path d="M26.4767 6.28437C26.9596 6.03231 27.11 5.89658 27.6616 5.85181C27.8496 5.93922 28.0774 6.02432 28.2089 6.17761L28.228 6.29725C28.0969 6.3454 27.8014 6.41937 27.7162 6.50116C26.4147 7.75092 25.7891 9.82148 26.0532 11.5346C26.772 10.342 27.5215 9.44247 27.5069 8.04004C27.5042 7.77381 27.5286 7.61744 27.7927 7.52243C28.1452 7.58566 28.3791 7.95871 28.5496 8.25503C29.1339 9.27091 28.6289 10.6881 28.7211 11.836C28.733 11.9844 28.803 13.2156 28.7946 13.2576C28.7879 13.292 28.7786 13.3259 28.7668 13.3589C28.5988 13.591 28.5598 13.6491 28.4549 13.9128C28.2437 15.3221 26.816 17.1843 25.209 16.9491C24.719 16.8774 24.5126 16.7146 24.2505 16.3194L24.6991 16.1764C25.5858 16.5138 26.1432 16.363 26.6633 15.5809C27.5799 14.2025 27.0981 12.6208 27.6324 11.1451L27.6457 11.1092C27.3393 11.0491 27.1179 12.0357 26.7013 12.1997C25.8029 12.5533 25.0086 11.5905 24.667 10.8689L24.5516 10.8365L24.4624 10.5046L24.4753 10.4636C24.7607 9.54012 24.8032 8.55259 25.4176 7.69039C25.804 7.14814 26.1772 6.89395 26.4767 6.28437Z" fill="#A7A7A7"/>
<path d="M28.2898 13.4058C28.4057 13.2551 28.3475 13.3061 28.5387 13.2217L28.7668 13.359C28.5988 13.5911 28.5597 13.6491 28.4548 13.9128C28.4303 13.657 28.4256 13.623 28.2898 13.4058Z" fill="#A7A7A7"/>
<path d="M28.2898 13.4057C28.1373 13.408 28.1117 13.4121 27.9926 13.3208L28.0045 13.2317C28.2493 13.123 28.2253 13.1696 28.5387 13.2216C28.3474 13.306 28.4056 13.255 28.2898 13.4057Z" fill="#A7A7A7"/>
<path d="M23.5643 12.2389C21.4077 13.6267 20.6228 11.0545 20.8659 9.39523C21.1136 7.70503 21.9097 6.77482 23.7283 6.98638C23.7626 7.34868 23.8185 7.72128 23.6878 8.06677C23.6427 8.62663 23.2904 9.28835 22.8695 9.64728C22.2323 10.0917 22.4178 11.5256 23.017 11.7492C23.1693 11.7472 23.2884 11.754 23.4361 11.7142C24.0644 11.3719 24.1423 11.1262 24.4625 10.5045L24.5516 10.8365C24.348 11.4299 24.1137 11.8781 23.5643 12.2389ZM23.2429 8.30656C23.2558 8.0981 23.3017 7.73523 23.2332 7.55377C23.0352 7.41461 22.7034 7.50084 22.6171 7.71869C22.4221 8.21122 22.4114 9.01734 22.4817 9.53006L22.5404 9.59311C22.5965 9.55177 22.6198 9.54136 22.6642 9.48725C22.9938 9.02353 23.1055 8.84769 23.2429 8.30656Z" fill="#A7A7A7"/>
<path d="M23.2428 8.30657C23.2882 8.40034 23.3273 8.47369 23.3796 8.56385L23.453 8.57415C23.5073 8.38475 23.5362 8.2016 23.6878 8.06677C23.6426 8.62663 23.2903 9.28835 22.8694 9.64729C22.8018 9.5372 22.7959 9.5601 22.6641 9.48725C22.9937 9.02353 23.1055 8.84769 23.2428 8.30657Z" fill="#A7A7A7"/>
<path d="M23.436 11.7142C24.0644 11.3718 24.1422 11.1261 24.4624 10.5045L24.5515 10.8364C24.348 11.4299 24.1136 11.8781 23.5642 12.2389C23.6335 12.0994 24.1531 11.443 24.1511 11.4527C23.9945 11.5175 23.7675 11.6855 23.6192 11.7872L23.436 11.7142Z" fill="#A7A7A7"/>
<path d="M43.1241 18.9383C44.0982 18.8225 45.5083 18.5868 45.5494 19.8418C45.5539 19.9782 45.5387 19.9812 45.4486 20.0629C45.0537 20.002 44.8028 19.4723 44.6038 19.1586C44.2289 19.4698 44.0056 19.6725 43.8389 20.1531C43.3461 21.5742 43.2184 22.7248 43.7952 24.1077C44.1939 23.9593 44.3845 23.8564 44.7099 23.586L44.8897 23.8019C44.497 24.4412 43.7337 24.7501 43.0043 24.738C42.914 24.6873 42.826 24.6327 42.7405 24.5742C41.856 23.9814 41.9749 22.7174 42.0176 21.7793C42.0692 20.6455 42.4805 19.845 43.1241 18.9383Z" fill="#A7A7A7"/>
<path d="M9.83313 8.98424C11.1641 8.84778 12.8002 11.2432 11.8664 11.7303C11.6712 11.8614 11.5722 11.983 11.3455 11.9144C11.1381 11.6473 11.1719 10.8838 10.8341 10.3259C10.5392 9.83896 9.89521 9.39656 9.83313 8.98424Z" fill="#A7A7A7"/>
<path d="M8.2734 11.7823C8.60379 11.8196 8.92851 11.9491 9.24473 12.0455C10.1004 12.3066 10.6361 12.5952 10.2746 13.5758C9.76985 13.4136 8.4926 12.5192 8.21563 12.1331C8.17372 11.9173 8.17202 11.9975 8.2734 11.7823Z" fill="#A7A7A7"/>
<path d="M46.7331 18.1577C47.6414 18.1385 48.2769 18.3572 47.7429 19.4077C46.9011 19.7264 46.5364 18.8196 46.7331 18.1577Z" fill="#A7A7A7"/>
<path d="M45.8265 22.1942C45.9844 22.1402 46.1042 22.0802 46.2653 22.1052C46.0798 22.4179 45.1813 23.4562 44.8897 23.8019L44.7099 23.5861C45.1492 22.9076 45.3434 22.7761 45.8265 22.1942Z" fill="#A7A7A7"/>
<path d="M24.2505 16.3194C24.0352 16.0443 23.9234 15.7637 24.0213 15.423L24.1098 15.4014C24.333 15.5594 24.4429 15.868 24.6629 16.1332L24.699 16.1764L24.2505 16.3194Z" fill="#A7A7A7"/>
<path d="M22.4868 -0.149902C22.4507 0.158066 22.4056 0.464854 22.3517 0.770235L22.0262 0.639117C22.1755 0.382336 22.3322 0.10176 22.4868 -0.149902Z" fill="#A7A7A7"/>
<path d="M51.263 29.5603C51.6153 29.6948 51.7633 29.7939 52.0549 30.0321C51.7523 29.9594 51.3566 29.8133 51.1349 29.7629L51.263 29.5603Z" fill="#A7A7A7"/>
<path d="M31.843 12.4204C31.943 12.2033 31.9108 12.1797 32.0818 12.0732L32.2751 12.1336C32.1942 12.277 32.151 12.3896 32.0008 12.4619C31.9264 12.4528 31.8979 12.4603 31.843 12.4204Z" fill="#A7A7A7"/>
<path d="M34.9531 18.7843C35.068 18.8737 35.0938 18.9078 35.2317 18.9385L35.0467 19.0054L34.9913 19.1643C34.9508 19.0696 34.8913 19.0217 34.8188 18.9481L34.9531 18.7843Z" fill="#A7A7A7"/>
<path d="M44.8029 4.33242C44.9121 4.19095 44.9146 4.13695 45.061 4.08655C45.0853 4.21722 45.0887 4.22385 45.0607 4.35154L44.8029 4.33242Z" fill="#A7A7A7"/>
</g>
<defs>
<clipPath id="clip0_119_462">
<rect width="58" height="32" fill="white"/>
</clipPath>
</defs>
</svg>
