<svg width="86" height="32" viewBox="0 0 86 32" fill="none" xmlns="http://www.w3.org/2000/svg">
<path d="M2.53101 17.9002C4.09211 17.5099 6.76496 15.7481 7.75624 14.3484C8.20512 13.7145 8.54315 11.6413 8.91308 10.861C9.4708 9.22081 10.0267 7.62606 10.6155 5.98826C10.8934 5.47349 11.3935 3.00618 12.0028 2.93685C12.9755 2.82618 13.4413 2.96044 13.0492 3.98617C12.1585 6.31645 11.3244 8.64165 10.5636 11.014C10.1745 12.2274 9.69803 13.5051 9.41255 14.7408C9.80352 14.4076 10.386 13.808 10.7814 13.5976C11.3066 13.5729 11.6226 13.5598 12.1436 13.6072C13.2066 14.7232 12.8253 15.9703 13.6237 17.307C14.8932 16.1254 15.0146 15.9433 16.0799 14.5248C19.6052 13.8604 16.4827 16.32 17.7711 17.6003C17.9331 17.6876 18.218 17.6496 18.3817 17.5827C19.9344 16.9466 21.0801 15.5867 22.3071 14.4873C23.0139 13.9143 22.8887 12.8638 23.3916 12.1532C23.6696 11.7604 24.7164 11.7257 24.8561 12.2875C24.9587 12.7 24.7528 13.0201 24.5771 13.3772C25.4305 12.9271 26.8812 12.255 27.5229 13.4127C27.7573 13.8362 27.7197 14.3862 27.7166 14.8607C29.0695 14.6253 29.7279 14.5262 31.0985 14.4778C31.7113 13.7253 32.2622 13.0604 33.2741 12.9767C34.8388 12.8473 35.8924 13.174 35.6545 14.9914C35.6532 15.0065 36.1268 15.4957 36.0758 15.6022C35.8567 16.3751 35.7969 17.0701 35.8487 17.8746C37.4961 17.5825 38.0471 16.4336 38.9884 15.1951C39.2101 14.9035 39.4909 14.5273 39.7986 14.3273C40.0049 13.7873 40.5982 11.9487 41.0839 11.474C41.1525 11.4069 42.3256 11.3313 42.3323 11.5654C42.6239 12.1868 41.5052 13.8375 41.5993 14.2677C42.0393 14.3258 42.0219 13.8561 42.5795 13.8607C42.9806 13.864 43.3985 13.8643 43.803 13.8756C44.2303 14.8897 44.3593 16.3254 44.9371 17.0257C45.6869 16.6515 46.4361 16.306 47.0999 15.7917C47.6683 15.3513 48.2804 14.9557 48.7729 14.4304C49.3036 13.8647 49.5872 13.0872 50.2785 12.6807C50.8698 12.3393 51.4886 12.2149 52.139 12.4283C52.5999 12.5805 52.9808 12.9103 53.1978 13.3446C53.6681 14.2976 53.1065 14.9588 52.0906 14.5925C51.7298 14.4625 51.6525 13.8487 51.5403 13.5005C50.8113 14.07 50.4109 14.6566 50.1684 15.5895C50.0071 16.2111 50.0179 17.8386 50.9659 17.8594C52.3029 17.8611 53.5828 16.8327 54.6094 16.074C55.2726 15.5837 55.8497 14.8456 56.568 14.4637C56.8206 14.3294 57.606 14.3592 57.8781 14.5207C58.4069 15.1752 57.0551 16.6895 57.7726 17.4385C58.5016 18.2001 60.3728 16.3716 60.9755 15.9009C61.5136 15.4811 62.1358 14.8332 62.4905 14.2521C62.8916 13.4863 63.0798 12.3262 63.3317 11.4582C63.6663 10.3087 64.0802 9.14271 64.4 8.00571C63.4614 8.0795 59.3838 8.8164 58.8134 8.29448C58.7294 8.21733 58.6891 8.11858 58.6938 8.00544C58.7045 7.75716 58.9383 7.5526 59.1103 7.40206C59.1197 7.39399 59.1291 7.38612 59.1392 7.37852C61.0991 7.11685 62.9158 7.01414 64.8831 6.83675C65.0934 6.13839 65.8009 3.62587 66.3491 3.31418C67.6062 3.06275 67.7023 3.63685 67.3247 4.65029C67.068 5.33806 66.7872 6.05243 66.4915 6.72307C68.524 6.79895 70.5813 6.73935 72.6728 6.81207C72.8549 7.01817 73.0208 7.20786 73.0013 7.50054C72.9913 7.64503 72.9362 7.76597 72.8246 7.86472C72.6305 8.03571 66.7959 7.93346 66.1684 7.93474C65.6221 9.23123 65.2654 10.6444 64.875 11.9966C64.2327 14.2233 63.6132 16.46 63.1476 18.7317C62.7465 20.6911 62.4724 22.6684 62.1647 24.6426C62.1405 24.8004 62.0626 24.8814 61.9094 24.9424C61.6332 25.0526 61.132 25.0779 60.8565 24.9599C60.7228 24.9028 60.6489 24.8265 60.5952 24.69C60.3493 24.0677 61.6561 18.2939 61.8442 17.1017C60.8861 17.8902 60.2989 18.2938 59.1513 18.7633C58.5997 18.909 57.8069 18.8764 57.2486 18.758C56.3274 18.3131 56.2186 17.8773 55.8833 16.9626C54.3958 18.2038 51.408 20.008 49.3614 18.5488C48.7688 18.1258 48.5861 17.3094 48.5162 16.6048C47.3035 17.4169 45.3644 18.7605 43.8131 17.8921C43.0223 17.4496 42.8194 16.3313 42.6279 15.5095C41.3043 16.6489 40.5021 19.0661 39.6166 20.0764C38.9312 20.1287 38.7996 20.1964 38.3098 19.678C38.3326 19.1881 38.6087 18.4434 38.5745 18.2828L38.4697 18.2449C37.0581 18.9462 36.5716 19.3513 34.9262 18.8513C34.6695 18.5731 34.3961 18.2932 34.1878 17.9785C32.9583 18.961 32.4839 18.9454 30.9736 18.8666C29.6768 18.0023 30.0652 17.0187 30.3238 15.7148C29.4887 15.7613 28.413 15.9769 27.6357 16.2873C27.1073 16.9676 26.8593 17.8871 26.2511 18.5833C25.2003 19.786 24.0858 19.8721 22.8873 18.8495C22.8387 19.0489 22.772 19.2583 22.7116 19.4548C21.9583 22.117 21.1111 25.0852 20.7088 27.8177C20.3881 29.9955 18.9819 29.9023 19.045 28.5974C19.183 25.7434 20.2343 22.5468 20.9217 19.7868C21.0635 19.2174 21.6214 17.8185 21.5585 17.345C21.454 17.3059 21.457 17.3374 21.3559 17.4197C20.6372 18.0055 19.9316 18.3821 19.0755 18.7455C18.6059 18.9343 17.6553 18.8666 17.1562 18.7642C16.5096 18.4358 16.1587 18.1778 15.918 17.4412C15.9062 17.4055 15.8951 17.3697 15.8845 17.3336C15.0519 17.9721 14.3655 18.5067 13.2479 18.3706C11.6877 18.1805 11.4528 16.3504 11.2296 15.1299C11.0039 15.4608 10.7308 15.7426 10.5115 16.0653C9.52482 17.5168 8.7267 19.0665 8.14378 20.7201C7.80066 21.6934 7.55361 22.3588 6.38871 21.9171C6.29391 21.8812 6.23264 21.6759 6.21537 21.5812C6.30392 20.2752 6.77201 18.3421 7.03505 17.1108C4.95506 18.6241 2.55217 20.0672 0.191472 18.1581C0.173735 16.5196 -0.162541 14.4089 1.02144 13.1878C2.10174 12.0736 4.16427 11.9752 4.65668 13.6973C4.97341 14.8229 3.83196 14.9658 3.21981 14.3672C2.83967 13.9857 3.05521 13.3426 2.35437 13.8705C1.5664 14.7834 1.17436 16.5251 1.8027 17.627C2.03402 17.7239 2.29068 17.8395 2.53101 17.9002Z" fill="#A7A7A7"/>
<path d="M17.1561 18.7643C17.6879 18.4527 18.5345 18.4472 19.0753 18.7457C18.6058 18.9344 17.6552 18.8668 17.1561 18.7643Z" fill="#A7A7A7"/>
<path d="M57.2484 18.7581C57.8376 18.5101 58.3839 18.4484 58.9946 18.6968C59.047 18.7181 59.0994 18.7404 59.1512 18.7634C58.5996 18.9091 57.8067 18.8766 57.2484 18.7581Z" fill="#A7A7A7"/>
<path d="M33.761 14.1196C33.9773 14.1909 34.4443 14.9962 34.6411 15.2665C33.7899 15.8962 33.6515 16.6545 32.3608 17.523C32.1754 17.6254 32.129 17.6387 31.9214 17.6816C31.4564 17.5152 31.7017 16.853 31.8213 16.4919C32.17 15.4417 32.7485 14.622 33.761 14.1196Z" fill="#FFFDF6"/>
<path d="M25.8719 14.3733C26.0337 14.3845 25.9751 14.3639 26.1078 14.4682C26.1789 14.7384 26.0641 15.1236 26.0027 15.4076C25.4904 15.5763 25.1252 15.7372 24.6776 16.0341L24.4977 15.9639C24.5 15.6473 25.5974 14.6049 25.8719 14.3733Z" fill="#FFFDF6"/>
<path d="M77.3899 12.541C77.6257 12.5365 77.8622 12.5362 78.098 12.5401C79.6145 12.5764 80.1688 13.7332 80.1224 15.0934C79.6373 15.1322 79.2879 15.1272 78.8001 15.1149C78.5744 14.5958 78.3419 13.7969 77.7198 13.7543C77.324 13.8874 77.1211 14.2357 76.894 14.5738C76.9061 14.6331 76.9196 14.6921 76.9344 14.7508C77.0392 15.167 77.5384 16.1475 77.9032 16.3736C78.0987 16.4945 79.2785 15.8518 79.5641 15.7303C80.5712 15.3129 81.6052 14.9626 82.6581 14.6814C83.1573 14.5518 83.9507 14.332 84.407 14.6002C84.5232 14.8099 84.5131 15.2255 84.5239 15.4824C82.9873 16.1481 80.203 16.5629 78.7498 17.7334C79.2187 18.7569 79.1683 19.7946 78.2734 20.5673C77.2434 21.4563 76.2121 21.3968 74.9517 21.316C74.3832 20.5017 74.4457 20.1088 74.8038 19.1917C75.2399 18.4663 76.1375 17.9701 76.5185 17.4051C76.6401 17.224 75.8768 16.2588 75.6685 15.9897C73.8088 16.4626 73.7423 16.6485 71.5916 16.6714C70.6389 18.2918 69.5135 20.049 67.2775 19.4424C67.0276 19.2091 66.7783 18.9533 66.5351 18.7113C66.2986 16.5554 66.7259 14.9288 68.3626 13.4477C69.2824 12.6154 70.5623 12.1239 71.5587 13.1517C72.1298 13.7412 72.1372 14.7378 72.0827 15.4969C72.1399 15.4896 72.197 15.4815 72.2541 15.4727C73.0187 15.3574 74.8898 14.9884 75.3071 14.354C75.9635 13.3553 75.981 12.7289 77.3899 12.541Z" fill="#A7A7A7"/>
<path d="M68.7625 15.462C68.9425 15.4966 69.8025 16.2856 69.9853 16.4759C69.65 17.0302 69.2711 17.4182 68.8203 17.8745C68.6348 18.0795 68.5193 18.1919 68.2545 18.2167L68.1383 18.0995C67.928 17.5287 68.1833 16.6196 68.3325 16.0468C68.4144 15.7343 68.5065 15.6451 68.7625 15.462Z" fill="#FFFDF6"/>
<path d="M77.1623 18.8041L77.3101 18.8343C77.6675 19.263 76.9117 19.8268 76.5905 20.1413C76.4602 20.1094 76.3842 20.1027 76.2908 20.0063C76.3083 19.6002 76.8747 19.1051 77.1623 18.8041Z" fill="#FFFDF6"/>
<path d="M69.9624 13.8118C70.0021 13.8217 70.041 13.8344 70.0787 13.85C70.4939 14.0243 70.6007 14.4805 70.42 14.8781C70.3299 14.8011 70.2681 14.5685 70.0437 14.4721C69.8831 14.4031 69.949 13.9965 69.9624 13.8118Z" fill="#FFFDF6"/>
<path d="M57.2545 12.3812L58.3819 12.3772C58.8341 12.8893 58.7481 13.0028 58.4222 13.5673C57.3546 13.6408 56.7419 13.6543 57.2545 12.3812Z" fill="#A7A7A7"/>
<path d="M17.2306 12.385C17.693 12.3607 18.5331 12.2911 18.5162 12.9663C18.509 13.2569 18.3161 13.361 18.1297 13.5496C17.5524 13.9412 16.3438 13.1314 17.2306 12.385Z" fill="#A7A7A7"/>
</svg>
