<svg width="94" height="32" viewBox="0 0 94 32" fill="none" xmlns="http://www.w3.org/2000/svg">
<path d="M38.079 4.87208C39.8234 4.74257 40.5983 5.07123 41.8305 6.22388C41.852 5.80916 41.8203 5.5091 42.0901 5.1877C42.5019 5.00539 44.3372 4.93079 44.6404 5.29201C44.8408 5.81261 44.7441 8.56614 44.7332 9.26437C44.7094 10.7962 44.87 12.6421 44.6417 14.1419C44.0898 17.767 40.3378 18.4049 37.2308 17.8496C36.6294 17.7469 35.0155 17.1841 34.6946 16.7188C34.6443 16.5427 34.659 16.5163 34.7259 16.3494C35.0398 15.6702 35.3104 15.2639 35.7435 14.6697C36.9686 15.3255 37.7408 15.7768 39.1851 15.7258C41.3985 15.6476 41.7008 14.5836 41.6515 12.7419C40.9326 13.4597 40.5244 13.7922 39.4738 14.0097C38.4338 14.2249 37.1281 13.8885 36.2598 13.3096C35.2841 12.6522 34.6174 11.6412 34.4076 10.5012C33.908 7.87831 35.2825 5.37702 38.079 4.87208ZM39.6591 11.8237C42.7659 11.3348 41.9829 6.84108 39.4254 7.09618C37.1593 7.25919 36.5831 9.9111 38.0933 11.3253C38.5001 11.7063 39.1073 11.7991 39.6591 11.8237Z" fill="#FF1B89"/>
<path d="M62.8956 22.884C63.6464 22.1982 63.8689 21.7062 65.0128 21.3678C66.0627 21.046 66.9458 21.1832 67.9107 21.5979C69.1234 22.1189 69.7929 23.7856 69.7617 24.9717C69.7444 25.6386 69.8975 30.1758 69.7043 30.5356C69.602 30.6254 69.5458 30.6748 69.4052 30.7015C69.1844 30.7434 67.6212 30.7081 67.3119 30.6964C67.1528 30.6903 66.9499 30.6954 66.8554 30.5474C66.3858 29.8122 67.2915 25.1504 66.2715 24.106C66.025 23.8534 65.6858 23.7479 65.3341 23.7504C64.8567 23.7539 64.2901 23.877 63.9497 24.2195C63.0451 25.1307 63.3724 27.9311 63.3897 29.1286C63.3903 29.6218 63.5447 30.3053 63.1199 30.624C62.6497 30.7086 61.0565 30.7354 60.6162 30.631C60.0676 30.2945 60.6761 25.636 60.1897 24.6277C59.7535 23.3788 57.753 23.5103 57.2498 24.6718C56.8221 25.6162 57.0105 27.3994 56.9758 28.3694C56.8933 30.6852 57.5765 30.8435 54.9328 30.6849C54.7264 30.6726 54.1599 30.7741 54.1311 30.4413C53.987 28.7543 54.115 27.034 54.0797 25.3387C54.0749 24.62 53.9654 22.0003 54.243 21.5003C54.6205 21.2991 56.5355 21.2525 56.8041 21.5097C56.974 21.8186 56.9053 22.3508 56.8831 22.705C57.6997 21.8422 58.0784 21.5216 59.2827 21.2417C61.108 21.0861 61.8373 21.5084 62.8956 22.884Z" fill="#FF1B89"/>
<path d="M75.6282 21.0226C78.4388 20.8856 80.8336 22.9952 80.9849 25.7415C81.1363 28.4877 78.9874 30.8367 76.178 30.9957C73.353 31.1556 70.9331 29.0408 70.7805 26.279C70.628 23.5173 72.802 21.1605 75.6282 21.0226ZM76.0416 28.5308C76.6643 28.4068 77.1968 28.2211 77.551 27.6587C78.5136 26.1304 78.0529 23.2822 75.7299 23.4587C72.7697 23.8876 73.0323 28.6402 76.0416 28.5308Z" fill="#FF1B89"/>
<path d="M7.17219 1.89131L7.19504 1.89043C8.96145 1.83623 10.7936 2.00334 12.2422 3.1274C12.9537 3.67946 11.8799 5.44329 11.4312 5.4102C11.2718 5.39844 10.0419 4.76166 9.7274 4.64817C9.05771 4.40196 8.3495 4.27064 7.63404 4.26006C7.04297 4.25474 6.45596 4.30666 6.0507 4.74698C5.89576 4.91532 5.72926 5.20544 5.75798 5.4168C5.93751 6.7375 8.95188 7.06416 10.0278 7.5453C10.7177 7.81478 11.3818 8.10888 11.9174 8.63294C13.2047 9.89247 13.3635 11.7877 12.0121 13.0689C10.7957 14.2222 8.94003 14.4603 7.31852 14.4394C5.90993 14.4211 3.68287 13.8672 2.61331 13.0008C2.45591 12.8733 2.08601 12.5659 2.11957 12.353C2.19693 11.8622 2.616 10.983 2.96778 10.6039C3.04938 10.516 3.18943 10.4618 3.28665 10.5107C3.59307 10.6648 3.94239 10.9176 4.23733 11.0804C5.2226 11.6243 6.43281 12.062 7.57619 12.0621C8.11851 12.0622 8.96235 11.9592 9.36366 11.5719C9.5326 11.4088 9.68576 11.0681 9.66488 10.8441C9.55031 9.61387 6.26021 9.16284 5.24743 8.65662C4.59784 8.41362 4.11481 8.12315 3.57566 7.69662C2.26094 6.65663 2.35307 4.51901 3.45859 3.35835C4.31247 2.46185 5.90395 1.94779 7.17219 1.89131Z" fill="#FF1B89"/>
<path d="M48.227 21.1875C53.1177 21.1879 52.7331 24.3129 52.6786 27.9192C52.6708 28.4387 52.8258 30.1666 52.5697 30.5374C52.1396 30.8087 50.5327 30.6764 49.9661 30.6582C49.8573 30.2074 49.8698 29.8982 49.8824 29.4391C48.2288 31.2419 45.4952 31.3189 43.8039 29.522C43.5383 29.0073 43.3268 28.4524 43.3557 27.8708C43.5114 24.7267 47.6533 24.9717 49.7861 25.0079C49.7047 24.7595 49.6209 24.5119 49.5354 24.2651C48.8725 22.417 46.0769 23.7847 44.8898 24.2026C44.683 23.9111 44.0714 22.8913 44.1016 22.6126C44.216 21.5543 47.4995 21.2309 48.227 21.1875ZM48.0655 28.8246C49.3493 28.5918 49.6269 27.8012 49.7508 26.6708C49.1747 26.6748 48.5782 26.6719 48.0039 26.6871C47.5414 26.705 46.7409 26.7207 46.4887 27.1128C45.5453 28.5794 47.128 28.8381 48.0655 28.8246Z" fill="#FF1B89"/>
<path d="M74.2432 4.87068C77.0119 4.66352 79.4253 5.89008 79.6508 8.81317C79.8028 10.5825 78.4424 10.3227 77.1687 10.4115C75.7478 10.5106 74.312 10.4482 72.8965 10.5147C73.5971 12.3544 74.9067 12.639 76.7003 11.9608C77.6264 11.6108 77.831 10.9373 78.6506 11.7589C78.8623 12.0344 79.5234 12.7707 79.1675 13.1134C77.5246 14.6945 73.8113 14.8598 71.9352 13.621C70.9618 12.9685 70.2971 11.9612 70.0913 10.8253C69.4817 7.62801 70.9881 5.4442 74.2432 4.87068ZM72.866 8.93683C73.4081 8.93058 74.4233 8.95045 74.9097 8.89573C75.5325 8.88865 76.2085 8.89836 76.8223 8.81715C76.7068 7.42664 76.2557 6.92317 74.8181 6.91083C73.3757 7.07355 73.1981 7.68975 72.866 8.93683Z" fill="#FF1B89"/>
<path d="M86.0641 4.91877C86.0832 4.91603 86.1024 4.91363 86.1221 4.91147C88.7275 4.62199 90.4888 6.13545 90.7532 8.66733C90.8603 9.69053 90.764 10.8106 90.7801 11.8445C90.7873 12.3031 90.8765 13.8857 90.6372 14.1721C90.2136 14.3766 88.5558 14.2323 88.0246 14.2454C87.476 14.1675 87.7009 13.0255 87.6573 12.712C87.4257 11.0545 88.5672 7.24852 85.7793 7.34687C85.2738 7.3647 84.9741 7.46375 84.5732 7.74399C82.9215 9.26803 84.2933 12.2799 83.6077 14.2652C82.9143 14.2737 82.2197 14.2876 81.5269 14.2714C81.2314 14.2646 80.7474 14.2728 80.7695 13.8674C80.836 12.6595 80.5141 5.77669 80.9574 5.17516C81.433 4.96181 82.4028 5.09939 82.9245 5.05594C83.7602 4.98631 83.6507 5.66712 83.6292 6.27203C84.5134 5.46552 84.8897 5.17756 86.0641 4.91877Z" fill="#FF1B89"/>
<path d="M51.9988 5.05155C52.4332 5.03799 53.2881 4.93222 53.6566 5.1489C54.2985 5.52614 53.6949 9.72572 54.061 10.8437C54.198 11.2628 54.4589 11.6214 54.8675 11.8218C55.3413 12.0544 55.9443 12.0333 56.4391 11.8662C57.8312 11.3962 57.6739 9.57201 57.6661 8.4383C57.6607 7.79929 57.6631 7.16029 57.6721 6.52134C57.6954 4.87498 57.8408 5.05237 59.3514 5.06319C59.7247 5.06588 60.2314 4.98121 60.5712 5.1565C60.8482 5.62887 60.7334 8.73123 60.7334 9.43934C60.7334 10.1668 60.8566 13.7891 60.5994 14.181C60.2248 14.37 58.4361 14.2658 57.9347 14.2261C57.8354 13.7843 57.8276 13.3471 57.8211 12.8974C57.7289 13.0224 57.6332 13.1452 57.5345 13.2655C56.3266 14.7225 53.6907 14.7045 52.2615 13.593C50.6139 12.3117 50.9896 9.95784 50.9639 8.13163C50.9555 7.55869 50.843 5.52877 51.1601 5.15107C51.3785 5.03407 51.738 5.05658 51.9988 5.05155Z" fill="#FF1B89"/>
<path d="M24.4796 4.87283C28.9424 4.83612 28.9406 8.11592 28.819 11.5431C28.8001 12.0755 28.9202 13.7905 28.7133 14.1726C28.3661 14.3494 26.4657 14.2724 25.9285 14.274C25.5628 12.7128 26.2863 8.95892 25.3533 7.87626C25.0769 7.5555 24.7103 7.40091 24.2874 7.37214C23.6774 7.33069 23.1072 7.40289 22.6363 7.80972C21.0092 9.40586 22.3114 13.3039 21.6775 14.1967C21.3825 14.3513 19.5225 14.2599 18.993 14.2687C18.8485 13.3492 18.787 5.57066 19.0677 5.17459C19.4304 5.03965 21.374 4.96095 21.6309 5.19833C21.8412 5.51254 21.8109 5.88376 21.8153 6.25632C22.7058 5.41303 23.2943 5.0887 24.4796 4.87283Z" fill="#FF1B89"/>
<path d="M85.7752 21.1847C86.8981 21.0834 88.4015 21.401 89.4239 21.8877C90.4266 22.3648 89.4808 23.5143 89.0632 24.1493C88.1203 23.6638 87.3348 23.2761 86.2328 23.2701C85.7518 23.2675 84.8754 23.2785 84.9035 23.9853C84.928 24.5928 86.0234 24.7817 86.5164 24.9129C88.1 25.334 90.2567 25.8591 90.21 27.8682C90.1975 28.5923 90.0389 29.1757 89.476 29.6927C88.2711 30.7802 86.7587 30.8109 85.2158 30.7937C83.7124 30.589 82.6972 30.1405 81.448 29.3644C81.518 29.1852 81.5958 29.009 81.6807 28.8361C81.8578 28.4749 82.206 27.7295 82.6038 27.5929C82.7402 27.6036 82.8491 27.6694 82.9592 27.7464C84.1473 28.58 85.4772 28.9235 86.9328 28.591C87.1464 28.4059 87.3157 28.201 87.5005 27.989C86.8143 27.0236 85.7949 27.0821 84.742 26.7122C83.5568 26.296 82.121 25.6616 81.9978 24.2566C81.8016 22.0173 83.9092 21.3587 85.7752 21.1847Z" fill="#FF1B89"/>
<path d="M17.8547 21.3536C18.2228 21.3459 20.1134 21.2618 20.269 21.4445C21.1131 22.4354 21.4329 24.3123 21.9904 25.5035C22.3764 26.3281 22.6628 27.1301 22.918 27.9586C23.1233 27.1065 23.5497 26.2604 23.8548 25.4352C24.2023 24.4956 24.5228 23.5474 24.8948 22.6148C25.0551 22.2768 25.1811 21.6624 25.5146 21.472C25.8029 21.3074 28.1293 21.2297 28.1995 21.531C28.3038 21.9784 27.6642 23.184 27.4298 23.6968L26.015 27.0765C25.5951 28.098 25.0478 29.6915 24.419 30.5274C23.6883 30.7391 22.6796 30.7447 21.912 30.6809C21.6163 30.6564 21.3749 30.5282 21.214 30.2826C20.6363 29.4004 20.2257 28.2613 19.8202 27.2895L18.5851 24.3802C18.3538 23.8303 17.4826 22.0321 17.5509 21.5976C17.6846 21.3914 17.6132 21.4552 17.8547 21.3536Z" fill="#FF1B89"/>
<path d="M38.1817 27.9061C38.3076 27.2763 40.4201 21.7519 40.675 21.5166C41.2048 21.2701 42.986 21.1395 43.3382 21.6923C43.3662 22.1276 42.7237 23.5025 42.52 23.9936C41.6706 25.7714 40.9625 27.6668 40.2237 29.4918C39.8391 30.4419 39.6044 30.6935 38.5068 30.691C38.044 30.69 37.2244 30.7982 36.8049 30.5902C36.2897 30.3348 35.9756 29.325 35.7641 28.8333C35.5045 28.162 35.2291 27.5245 34.9428 26.8705L33.6564 23.9071C33.4187 23.3734 32.6411 21.9945 32.8588 21.5311C33.0647 21.3597 33.0195 21.4099 33.3267 21.3533C33.8058 21.3597 35.1443 21.2716 35.4498 21.47C35.9907 21.8215 36.6055 23.8692 36.8371 24.4736C37.2849 25.6421 37.7993 26.7696 38.1817 27.9061Z" fill="#FF1B89"/>
<path d="M65.9557 2.77322C66.1717 2.80222 66.1058 2.76726 66.2734 2.89349C66.46 3.22267 66.3942 4.65586 66.399 5.14092C66.944 5.15986 68.5246 5.07625 68.9188 5.22757C69.1258 5.47436 69.1581 6.89059 68.9458 7.14183C68.5389 7.31718 66.8339 7.25509 66.3924 7.1661C66.3745 8.10143 66.198 11.0811 66.6832 11.8006C67.3006 12.7158 68.1459 11.7292 68.7364 11.7952C69.1557 11.9997 69.4046 13.2772 69.2568 13.702C69.005 14.0092 68.7005 14.0853 68.3296 14.2107C66.9942 14.4689 65.349 14.5421 64.3069 13.5307C63.9449 13.1757 63.6841 12.7347 63.5501 12.2513C63.3198 11.4327 63.3934 8.30899 63.394 7.24696C63.1044 7.24854 62.298 7.24726 62.0646 7.173C61.7093 7.05998 61.8816 5.55686 61.9797 5.29662C62.2339 5.08362 63.0392 5.14554 63.4095 5.1463C63.2546 2.45176 63.5854 2.8397 65.9557 2.77322Z" fill="#FF1B89"/>
<path d="M46.5945 1.71233C47.1262 1.69999 48.7361 1.59983 49.1285 1.81155C49.4384 2.39168 49.3666 7.71444 49.3445 8.68561C49.311 10.1556 49.4576 12.6666 49.3014 14.0804C49.1459 14.2789 49.1907 14.2208 48.9185 14.3158C48.3394 14.2849 46.9688 14.33 46.4897 14.2334C46.2348 13.9197 46.3144 11.6356 46.3137 11.0506L46.3112 6.40778C46.3073 5.37832 46.3091 4.34892 46.3165 3.31952C46.3208 2.89685 46.3254 2.43781 46.3462 2.01426C46.3533 1.87066 46.4888 1.79284 46.5945 1.71233Z" fill="#FF1B89"/>
<path d="M29.2029 21.3663C29.767 21.3728 31.4911 21.2312 31.9009 21.4391C31.9534 21.6088 32.0262 22.1267 32.0092 22.2743C31.8834 23.3743 32.1762 30.195 31.8553 30.6818C31.3473 30.6873 29.5222 30.7474 29.1492 30.6162C28.7878 29.9285 29.0957 25.7452 28.9818 24.7585C28.9275 24.2886 28.9495 21.6906 29.2029 21.3663Z" fill="#FF1B89"/>
<path d="M15.8998 5.05492C16.3643 5.03165 16.6664 5.04749 17.1331 5.07831C17.194 5.30762 17.2333 5.54196 17.2503 5.77829C17.2744 6.15928 17.2984 7.6193 17.268 7.98099C17.1923 8.88498 17.4341 13.8875 17.1304 14.2235C16.725 14.3456 16.1516 14.2997 15.7285 14.2682C15.359 14.2743 14.6022 14.3264 14.3151 14.1488C14.2673 14.0431 14.2292 13.905 14.2299 13.79C14.2449 11.1805 14.2029 8.56679 14.2421 5.9575C14.2543 5.80513 14.2978 5.27155 14.4198 5.187C14.6936 4.9975 15.6015 5.05451 15.8998 5.05492Z" fill="#FF1B89"/>
<path d="M15.4758 1.29885C16.5801 1.20576 17.1818 1.53716 17.4814 2.61428C17.2792 3.49768 16.9833 3.95982 16.0466 4.17224C13.6644 4.37109 13.3326 1.62902 15.4758 1.29885Z" fill="#FF1B89"/>
<path d="M30.5159 17.617C31.2674 17.7034 32.0007 17.8617 32.2096 18.7126C32.2933 19.0426 32.2361 19.3917 32.0511 19.6795C31.7352 20.1784 31.2903 20.3358 30.7506 20.4552C29.3617 20.514 28.3856 19.4877 29.2004 18.1611C29.4699 17.7225 30.0336 17.668 30.5159 17.617Z" fill="#FF1B89"/>
</svg>
