<svg width="37" height="32" viewBox="0 0 37 32" fill="none" xmlns="http://www.w3.org/2000/svg">
<path d="M18.3938 1.67928C18.6801 1.62129 19.0698 1.76352 19.2942 1.94259C19.5468 2.14342 19.7097 2.43687 19.7473 2.75847C19.7878 3.1201 19.6646 3.42573 19.4433 3.70288C19.5358 4.01167 19.6776 4.3301 19.806 4.62688C20.0418 4.51825 19.8792 4.38893 19.9079 4.17616C20.0003 3.49187 20.8658 3.25617 21.3084 3.77242C21.3276 3.14047 21.7099 2.65088 22.3666 2.63781C22.6616 2.63447 22.946 2.74889 23.1572 2.95601C23.6385 3.43031 23.5322 4.05826 23.0876 4.51195L23.0676 4.70983C23.3579 4.66326 23.7678 4.64031 24.0735 4.60982C24.6233 4.55343 25.1721 4.48718 25.7195 4.41106C27.9739 4.09529 30.3843 3.54142 32.4377 2.54363C32.8299 2.35299 33.459 1.99125 33.7784 1.69721C33.6987 1.80826 33.6066 1.91101 33.5266 2.02614C32.5607 3.41579 32.0336 5.05891 31.6589 6.69712C31.5738 7.06911 31.4802 7.49963 31.441 7.88154C31.5797 7.64169 31.7002 7.31226 31.9069 7.12363C32.5925 6.50421 33.6959 7.02683 34.2442 7.58994C34.5645 7.91876 34.58 8.26152 34.5589 8.68765C35.2116 9.05242 35.1515 9.5388 34.9184 10.1506C34.9936 10.1652 35.0685 10.1845 35.1394 10.2148C35.3805 10.3182 35.5679 10.5091 35.6608 10.7563C35.8022 11.1335 35.6821 11.5628 35.5227 11.9144C34.8861 13.32 33.2182 15.7612 32.0243 16.698C31.7673 16.8997 31.5004 17.0461 31.1967 17.161C31.2383 17.4064 31.2643 17.752 31.2955 18.0119C31.3532 18.4867 31.4209 18.9603 31.4984 19.4324C31.8092 21.3257 32.6458 24.4354 33.8431 25.9162C33.1463 25.3265 32.3149 24.914 31.4722 24.5798C28.7323 23.4932 25.7222 23.0852 22.8052 22.849C23.0925 23.3571 23.2705 23.7498 23.4088 24.3265C23.7165 25.6338 23.4981 27.0103 22.8014 28.1562C22.2145 29.1198 21.3245 29.859 20.2727 30.2564C19.9948 30.3609 19.7152 30.4258 19.4272 30.4954C18.328 30.6696 17.3033 30.5621 16.2958 30.0727C15.0868 29.4856 14.1601 28.4384 13.7206 27.1624C13.3189 26.0061 13.35 24.7423 13.808 23.6073C13.9275 23.3066 14.0472 23.1167 14.1829 22.8363C10.9762 23.0114 5.66857 23.9109 3.15867 25.9143C4.37317 24.437 5.09826 21.2637 5.36259 19.3623C5.41127 19.0123 5.49146 18.4791 5.51385 18.1302C5.03675 18.1969 4.52888 18.214 4.07265 18.0319C2.10849 17.2457 2.72466 14.7165 3.11548 13.1317C3.22675 12.6804 3.43413 12.1692 3.6045 11.7325C2.69952 11.8697 1.66575 11.2696 1.36233 10.3923C1.19773 9.91635 1.39375 9.34033 1.61838 8.91566C2.29181 7.64251 3.78439 6.72554 5.1131 6.30634C5.00972 5.99427 4.92121 5.53255 4.8202 5.1904C4.48298 4.04792 3.95081 2.61261 3.18377 1.68353C3.69593 2.13046 4.39422 2.50819 5.01144 2.7838C7.55082 3.91763 10.3487 4.38242 13.0962 4.6581C13.3757 4.68614 13.6789 4.71785 13.959 4.72721L13.9224 4.49436C13.4897 4.07111 13.3901 3.47401 13.812 3.00097C14.0051 2.78553 14.2753 2.65593 14.5633 2.64057C14.8556 2.6228 15.1428 2.72344 15.3609 2.92003C15.6155 3.15105 15.6898 3.42513 15.7051 3.75587C15.7573 3.71198 15.8299 3.64964 15.8863 3.61424C16.0677 3.50039 16.2866 3.46363 16.4949 3.51201C16.8347 3.59287 17.0985 3.88514 17.1166 4.24208C17.1251 4.4108 17.0332 4.4468 17.1267 4.60193C17.2764 4.666 17.5346 3.82583 17.5809 3.70391C17.4055 3.48433 17.2998 3.31105 17.2708 3.02152C17.2366 2.69574 17.3344 2.36987 17.5423 2.11763C17.7681 1.84624 18.0467 1.71172 18.3938 1.67928Z" fill="#A7A7A7"/>
<path d="M32.5651 7.70834C32.9795 7.67355 33.5562 7.98524 33.7249 8.37239C33.7011 8.72004 33.491 9.14478 33.347 9.46427C33.5041 9.4634 34.117 9.44223 34.2205 9.49531C34.2355 9.57614 34.066 10.0139 34.0069 10.038C33.8062 10.1196 33.2718 10.0827 33.0631 10.0806C32.5996 11.0878 32.1459 12.0995 31.702 13.1156C31.5727 13.4116 30.8347 15.0471 30.9566 15.2144C31.2318 15.291 32.4037 13.9744 32.5959 13.7586C33.0597 13.2379 33.5155 12.6757 33.9253 12.1125C34.051 11.9412 34.1712 11.7657 34.2855 11.5865C34.3827 11.4319 34.5881 11.007 34.786 10.9989C34.8205 11.0173 34.8347 11.0223 34.8528 11.0592C34.9027 11.1606 34.8282 11.3455 34.7897 11.4446C34.333 12.6222 32.188 15.8005 31.056 16.2925C30.7656 16.4187 30.4269 16.403 30.1358 16.2849C29.8506 16.169 29.5899 15.9308 29.4701 15.643C29.329 15.3038 29.4414 14.9881 29.5729 14.6674C29.224 15.0719 28.9359 15.4713 28.5234 15.8274C28.1711 16.138 27.8477 16.4266 27.3496 16.3918C26.7067 16.3467 26.1573 15.8565 26.2106 15.1792C25.614 15.877 24.9208 16.5783 23.9223 16.3674C22.837 16.1383 22.8836 15.1028 23.0516 14.2321C22.6246 14.8127 22.0948 15.4654 21.5505 15.9331C21.2119 16.2238 20.922 16.4287 20.4625 16.3892C20.1195 16.3597 19.802 16.1951 19.5791 15.9312C19.3916 15.7053 19.3189 15.4655 19.3468 15.176C18.7757 15.8329 18.1779 16.4823 17.2357 16.391C16.3392 16.3042 16.033 15.6681 16.095 14.8316C15.4253 15.5773 14.4784 16.7187 13.3945 16.2815C12.9655 16.1085 12.4977 15.6519 12.6125 15.1394C12.7033 14.734 12.9387 14.3534 13.0884 13.9673C13.4458 13.1055 13.8668 12.2534 14.2105 11.3868C13.6399 11.5354 13.4817 11.8049 12.8926 11.8083C12.7316 12.325 12.2698 13.0983 11.9792 13.554C11.6674 14.0426 10.1558 16.3341 9.63165 16.3772C9.4884 16.3903 9.34627 16.3423 9.23993 16.2449C9.16871 16.1798 9.12286 16.0953 9.12248 15.9981C9.12078 15.7934 9.28119 15.647 9.42807 15.5292C9.63918 15.3598 9.8309 15.1676 10.0218 14.9759C10.7855 14.1993 11.4856 13.362 12.1156 12.4722C12.2819 12.2366 12.4143 11.9841 12.5774 11.7499C12.2354 11.5771 11.8819 11.3182 11.9937 10.8598C12.1179 10.3705 12.3893 9.91495 12.568 9.44574C12.7682 8.92017 13.2047 9.04266 13.6182 9.22319C14.18 9.46847 14.1602 10.0147 13.8662 10.4673C13.8098 10.554 13.6792 10.8249 13.7109 10.9259C13.8497 11.0042 14.5993 10.6959 14.8635 10.6756C15.2224 10.648 15.5396 10.6065 15.8655 10.8463C15.9675 10.9214 16.085 11.131 16.0633 11.2285C15.9626 11.6312 15.7261 12.0293 15.5436 12.4032C15.1357 13.2389 14.74 14.0785 14.3272 14.9114C14.2868 14.9929 14.2443 15.1186 14.3305 15.1776C14.652 15.1727 16.2214 13.6194 16.4529 13.2643C16.5678 12.985 16.6883 12.6526 16.7933 12.3751C17.511 10.4787 19.3515 8.21978 21.1243 10.6769C21.2159 10.4292 21.3001 10.1696 21.4156 9.93223C21.4697 9.82058 21.5501 9.68008 21.675 9.64194C21.871 9.58204 22.1107 9.69198 22.2813 9.78335C22.4648 9.88166 22.7651 10.0527 22.8097 10.2788C22.8827 10.6479 22.0719 12.1729 21.8914 12.5648C21.7317 12.9117 20.8036 14.9682 20.8902 15.1935C20.9017 15.2241 20.9091 15.2194 20.937 15.2313C21.4212 15.1481 23.2338 13.0113 23.6057 12.4623C23.7219 12.2507 23.807 12.0223 23.9112 11.803C24.7533 10.0324 26.412 8.4955 27.976 10.6768C28.0723 10.417 28.2071 9.92285 28.4035 9.72823C28.4764 9.65591 28.565 9.61819 28.6681 9.62184C28.9393 9.63151 29.3496 9.86928 29.5348 10.061C29.6065 10.1353 29.6715 10.2293 29.6677 10.337C29.6508 10.8091 28.8405 12.345 28.6002 12.8822C28.3773 13.3806 28.1673 13.8849 27.9704 14.3943C27.9149 14.5379 27.664 15.1255 27.7681 15.2294C27.8074 15.2319 27.8336 15.2279 27.8701 15.2114C28.3646 14.9888 30.1675 12.9784 30.4596 12.4414C30.5918 12.1983 30.6807 11.9076 30.7832 11.6497L31.4079 10.0822C31.2565 10.0825 30.7561 10.1047 30.6536 10.0446C30.6451 9.95218 30.7904 9.59177 30.8578 9.53433C31.0106 9.40393 31.4681 9.46497 31.6776 9.46497C31.8811 8.94039 32.1726 8.28498 32.4633 7.79041C32.4819 7.75875 32.5325 7.72701 32.5651 7.70834Z" fill="#FFFDF6"/>
<path d="M20.1386 10.6723C20.1639 10.6718 20.191 10.6712 20.2165 10.6743C20.2998 10.678 20.4651 10.7678 20.5021 10.8482C21.0242 11.9849 19.0752 14.2141 18.3585 14.7019C18.3141 14.7276 18.2655 14.7595 18.2162 14.7745C18.1658 14.7897 18.1172 14.7838 18.0724 14.7557C18.016 14.7204 17.9913 14.6379 17.9817 14.5764C17.8781 13.9127 18.8854 11.9534 19.2789 11.3864C19.4819 11.0937 19.7712 10.7391 20.1386 10.6723Z" fill="#A7A7A7"/>
<path d="M27.0053 10.6713C27.0438 10.6712 27.0658 10.6715 27.1052 10.6806C27.1867 10.694 27.3328 10.7856 27.3672 10.8683C27.8405 12.0099 25.9309 14.2366 25.2079 14.7129C25.1761 14.7318 25.1437 14.7507 25.1092 14.7644C25.053 14.7867 25.0037 14.793 24.9483 14.7649C24.8881 14.7343 24.861 14.6449 24.8507 14.5839C24.7363 13.9153 25.773 11.8989 26.1789 11.3394C26.3869 11.0531 26.6377 10.7294 27.0053 10.6713Z" fill="#A7A7A7"/>
<path d="M20.6933 20.9092C20.7793 20.9337 20.8461 21.1539 20.8665 21.2364C20.9458 21.5564 20.8488 21.807 20.6864 22.0801C20.9263 22.0245 20.9953 22.0271 21.2434 22.0476C21.2203 22.3078 21.1923 22.3982 21.0613 22.624C21.6638 23.1485 22.0923 23.8461 22.2891 24.6229C22.54 25.5962 22.394 26.7062 21.8829 27.5725C21.354 28.4789 20.4886 29.1365 19.4774 29.4005C18.4077 29.6767 17.3749 29.4925 16.4309 28.9328C16.3789 28.9015 16.3119 28.8528 16.2608 28.817C15.4031 28.2148 14.8209 27.2923 14.6443 26.2554C14.4701 25.2267 14.7102 24.1706 15.3115 23.3202C15.5209 23.0298 15.7346 22.8114 15.9931 22.5677C16.0207 22.5419 16.0654 22.3911 16.1084 22.3302C16.1613 22.3195 16.1962 22.3485 16.2545 22.3753C16.7324 22.0314 17.0714 21.9317 17.612 21.7612C17.6613 21.5368 17.7183 21.4454 17.8532 21.2639C18.0529 21.3958 18.1193 21.4696 18.2353 21.6771C18.6621 21.6317 19.1323 21.6969 19.5439 21.8083C19.5797 21.7269 19.6194 21.6528 19.6604 21.5741C19.8705 21.6729 19.9565 21.736 20.1061 21.9097C20.1034 21.4067 20.2709 21.1574 20.6933 20.9092Z" fill="#FFFDF6"/>
<path d="M21.1606 26.4289C21.2184 26.4249 21.2166 26.4155 21.2594 26.4395C21.2837 26.5961 21.0492 27.0077 20.9605 27.1469C20.5016 27.8685 19.8922 28.2559 19.0783 28.448C19.2552 28.0195 19.4297 27.5436 19.5981 27.1091C19.6385 27.2626 19.8009 28.0291 19.9307 28.0573C20.0026 27.9748 19.9818 27.8111 19.9787 27.7024C19.9787 27.5203 19.9926 26.8727 19.9484 26.732C19.8692 26.6808 19.6374 26.7197 19.5319 26.7293C19.3103 27.2616 19.111 27.8565 18.8852 28.4065C18.9681 27.7903 19.0732 27.1772 19.2008 26.5689C19.834 26.5401 20.5245 26.4755 21.1606 26.4289Z" fill="#A7A7A7"/>
<path d="M17.6703 26.6841L17.7172 26.685C17.9086 26.931 18.2601 28.168 18.3468 28.5078C18.1878 28.2387 18.0109 27.8603 17.8673 27.5748C17.7549 27.5232 17.6075 27.4682 17.4905 27.4208C17.4305 27.5229 17.3594 27.691 17.3082 27.8029L17.1495 28.1478C16.5915 27.8233 16.1934 27.3933 15.9191 26.8075C16.4609 26.7875 17.1232 26.7228 17.6703 26.6841Z" fill="#A7A7A7"/>
<path d="M17.1455 25.2218L17.1906 25.2323C17.228 25.3119 17.1403 25.9305 17.1249 26.0622C17.0551 26.0706 17.0343 26.0768 16.9669 26.0639C16.8512 25.9854 16.765 25.7355 16.6902 25.592C16.676 25.7241 16.6751 25.9668 16.6152 26.0795C16.6038 26.1009 16.5454 26.1057 16.5136 26.1124C16.502 26.1106 16.4734 26.1 16.4609 26.0959C16.4578 26.0849 16.4487 26.0541 16.4508 26.0432C16.4815 25.8772 16.4419 25.246 16.6689 25.2371C16.7729 25.309 16.8978 25.6136 16.9603 25.7421C16.9855 25.5956 16.9727 25.3706 17.0402 25.254C17.0527 25.2323 17.1133 25.2282 17.1455 25.2218Z" fill="#A7A7A7"/>
<path d="M21.7012 24.9143C21.7165 24.9133 21.7321 24.9125 21.7476 24.9118C21.8036 24.9098 21.8573 24.8998 21.8901 24.9309C21.8759 25.1099 21.8686 25.6427 21.7447 25.7413C21.6808 25.7537 21.6835 25.7548 21.6204 25.7421C21.5478 25.6468 21.4472 25.4095 21.3677 25.2783C21.3512 25.4499 21.3364 25.6096 21.3099 25.7804C21.2484 25.7831 21.1879 25.7931 21.1337 25.7673C21.1281 25.621 21.1926 25.1071 21.2143 24.9511L21.407 24.9391C21.4813 25.0948 21.5606 25.2734 21.6488 25.4195C21.6607 25.2525 21.6824 25.081 21.7012 24.9143Z" fill="#A7A7A7"/>
<path d="M17.9733 25.1528C18.1304 25.1505 18.2772 25.1848 18.3159 25.3582C18.3275 25.4105 18.3123 25.4145 18.2825 25.4497C18.212 25.4741 18.2091 25.473 18.134 25.4599C18.0695 25.3983 18.0204 25.3358 17.9255 25.3434C17.8374 25.3985 17.7169 25.7955 17.9492 25.8388C18.0072 25.8226 18.022 25.823 18.0653 25.7796L18.0629 25.7438C18.009 25.6909 17.9875 25.6791 17.9229 25.6375L17.9471 25.5762C17.9852 25.5615 18.0545 25.557 18.098 25.5522C18.1607 25.5457 18.2173 25.5317 18.272 25.5599C18.3403 25.6525 18.2785 25.8477 18.2594 25.9847C18.1893 25.992 18.1645 25.9945 18.0948 25.9903L18.0754 25.9202C18.0251 25.9347 17.9551 26.0074 17.9022 26.0181C17.5089 26.0979 17.5449 25.5442 17.689 25.3314C17.7781 25.1999 17.8307 25.185 17.9733 25.1528Z" fill="#A7A7A7"/>
<path d="M19.7061 21.7374C20.1505 21.9304 20.2548 22.4501 20.0929 22.8748C20.0367 22.8666 19.8992 22.7676 19.8595 22.7218C19.6064 22.4307 19.5715 22.0845 19.7061 21.7374Z" fill="#A7A7A7"/>
<path d="M19.4725 22.5603C19.9106 22.8151 20.0364 23.2459 19.8532 23.7095C19.3932 23.5012 19.3151 22.9981 19.4725 22.5603Z" fill="#A7A7A7"/>
<path d="M20.6465 21.0731C20.8215 21.1284 20.7785 21.7069 20.6768 21.8545C20.55 22.0386 20.539 22.0731 20.3527 22.2076C20.2141 22.1752 20.2216 21.7974 20.2432 21.6831C20.2963 21.4033 20.4216 21.237 20.6465 21.0731Z" fill="#A7A7A7"/>
<path d="M19.2228 23.3945C19.6472 23.6402 19.7721 24.0543 19.6219 24.5099C19.3256 24.4805 19.1701 24.1247 19.1423 23.8583C19.1244 23.6876 19.1659 23.5523 19.2228 23.3945Z" fill="#A7A7A7"/>
<path d="M18.4079 26.6315C18.468 26.7122 18.5106 28.1595 18.5172 28.3832L18.3977 27.9527C18.2669 27.4923 18.1157 27.1005 17.9323 26.6613L18.4079 26.6315Z" fill="#A7A7A7"/>
<path d="M20.6479 22.9906C20.7184 22.9859 20.8092 22.9857 20.8813 22.9835C20.7856 23.4076 20.5843 23.6201 20.1666 23.7296L19.9308 23.7438C20.0002 23.3197 20.2394 23.0909 20.6479 22.9906Z" fill="#A7A7A7"/>
<path d="M20.9847 22.1579C21.0282 22.1527 21.0293 22.1552 21.0737 22.1585L21.0978 22.1937C21.1117 22.4042 20.8906 22.6575 20.7245 22.7687C20.5814 22.8646 20.4642 22.8935 20.2969 22.9077C20.249 22.9141 20.2494 22.9128 20.2013 22.9051C20.1179 22.7878 20.2691 22.5795 20.3491 22.4843C20.5285 22.271 20.711 22.1839 20.9847 22.1579Z" fill="#A7A7A7"/>
<path d="M19.5146 25.0647L19.7278 25.0562C19.7063 25.2835 19.7065 25.7049 19.5513 25.8513C19.4828 25.9157 19.3914 25.9493 19.2978 25.9446C19.0066 25.9293 19.0031 25.666 19.0281 25.4497C19.0449 25.3462 19.0552 25.2048 19.066 25.0976L19.2895 25.0798C19.2736 25.2277 19.1948 25.6127 19.2902 25.7189C19.3549 25.7261 19.3328 25.7254 19.3997 25.6932C19.4779 25.5998 19.4806 25.2419 19.5104 25.0852L19.5146 25.0647Z" fill="#A7A7A7"/>
<path d="M15.5353 25.3184C15.7085 25.3349 15.8196 25.3602 15.8408 25.5588L15.8181 25.5855C15.5844 25.6447 15.5905 25.398 15.4024 25.5477C15.451 25.6424 15.9639 25.7223 15.7884 26.0381C15.7311 26.1415 15.6483 26.1595 15.5441 26.1886C15.3604 26.198 15.0828 26.1604 15.1664 25.9082C15.2913 25.8613 15.45 26.0205 15.5989 25.9869L15.6088 25.9527C15.532 25.7554 15.2159 25.8613 15.188 25.6296C15.1643 25.4321 15.3893 25.3413 15.5353 25.3184Z" fill="#A7A7A7"/>
<path d="M20.8467 24.9753C20.9433 24.9644 21.0132 24.9402 21.0889 24.9949C21.1249 25.0587 21.1204 25.0269 21.1157 25.0903C21.0165 25.2122 20.89 25.1099 20.733 25.1732C20.7019 25.2306 20.6947 25.2208 20.7029 25.2715C20.8134 25.3309 20.9532 25.2322 21.0289 25.344C21.0255 25.5942 20.8454 25.4177 20.6992 25.4961C20.6636 25.5569 20.6738 25.5335 20.6736 25.6107C20.72 25.6367 20.8291 25.6214 20.8884 25.618C20.972 25.6124 20.9634 25.6 21.0271 25.6323C21.0719 25.6978 21.0716 25.6752 21.0622 25.7352C20.9623 25.8417 20.6145 25.8235 20.4454 25.8315C20.4591 25.5796 20.5038 25.2489 20.5305 24.994L20.8467 24.9753Z" fill="#A7A7A7"/>
<path d="M20.3874 23.8282C20.4599 23.8228 20.5554 23.8224 20.6299 23.8201C20.5578 24.1437 20.4776 24.2407 20.2288 24.4532L19.9498 24.4755L19.6909 24.4875C19.8089 24.1048 20.0095 23.9324 20.3874 23.8282Z" fill="#A7A7A7"/>
<path d="M18.6751 22.1863C18.7596 22.2984 18.7343 22.5652 18.6839 22.69C18.5808 22.9448 18.4348 23.0865 18.1875 23.197C18.0427 22.7451 18.2754 22.3822 18.6751 22.1863Z" fill="#A7A7A7"/>
<path d="M17.8762 21.4324C18.2501 21.6853 18.2722 22.1814 18.0489 22.5445C17.6681 22.2928 17.6616 21.7978 17.8762 21.4324Z" fill="#A7A7A7"/>
<path d="M17.4611 23.1847C17.9263 23.2537 18.2189 23.525 18.2317 24.0144C17.7605 23.9294 17.4799 23.6811 17.4611 23.1847Z" fill="#A7A7A7"/>
<path d="M17.3266 22.38C17.7889 22.4614 18.0939 22.7196 18.1042 23.2133C17.6113 23.1361 17.3722 22.8779 17.3266 22.38Z" fill="#A7A7A7"/>
<path d="M18.803 22.9865C18.9379 23.158 18.8198 23.5627 18.687 23.7159C18.5607 23.8612 18.511 23.903 18.3414 23.9881L18.309 23.9739C18.1753 23.5547 18.4313 23.1654 18.803 22.9865Z" fill="#A7A7A7"/>
<path d="M18.9125 23.8025C19.0944 23.9359 18.8957 24.4031 18.792 24.5572C18.6778 24.5621 18.5638 24.5704 18.4501 24.582L18.4041 24.5764C18.3538 24.4639 18.4856 24.1696 18.5614 24.0716C18.6648 23.9382 18.7654 23.8755 18.9125 23.8025Z" fill="#A7A7A7"/>
<path d="M18.6205 26.6128L19.0057 26.5837C18.9065 27.0382 18.8232 27.4961 18.7564 27.9566L18.6989 27.9731C18.6772 27.5161 18.6436 27.0658 18.6205 26.6128Z" fill="#A7A7A7"/>
<path d="M17.5726 23.9982C17.888 24.034 18.2652 24.2444 18.3235 24.5862L17.8555 24.6229C17.6504 24.4158 17.6067 24.2813 17.5726 23.9982Z" fill="#A7A7A7"/>
<path d="M16.35 25.2845C16.3932 25.2805 16.3784 25.2781 16.4173 25.295C16.4757 25.4957 16.2981 25.4758 16.2851 25.4997C16.251 25.5616 16.2319 25.8227 16.2342 25.8998C16.6647 26.0939 16.0901 26.1353 15.9568 26.1406C15.8943 26.1475 15.9219 26.1536 15.87 26.1293C15.8582 26.0526 15.8611 26.0106 15.9135 25.9536C15.9595 25.9467 15.9731 25.9485 16.0124 25.9236C16.0341 25.8157 16.0633 25.6332 16.0528 25.5255C15.9809 25.4838 15.9397 25.4642 15.9113 25.3899L15.9304 25.3603C16.0589 25.2812 16.1996 25.2909 16.35 25.2845Z" fill="#A7A7A7"/>
<path d="M16.9804 22.964C17.1393 23.0652 17.0955 23.4759 17.002 23.6227C16.9117 23.7644 16.8945 23.7922 16.7665 23.8966C16.5215 23.6056 16.7189 23.171 16.9804 22.964Z" fill="#A7A7A7"/>
<path d="M15.8893 23.3736C16.2779 23.3534 16.5919 23.5297 16.6849 23.9311C16.2997 23.9464 15.9739 23.7897 15.8893 23.3736Z" fill="#A7A7A7"/>
<path d="M16.1678 22.4651C16.5363 22.6721 16.6341 22.975 16.5185 23.3744C16.1418 23.1778 16.0599 22.8525 16.1678 22.4651Z" fill="#A7A7A7"/>
<path d="M17.236 23.6191C17.3263 23.6862 17.3581 23.8908 17.3444 23.9977C17.3139 24.2361 17.2211 24.3963 17.0328 24.5453L17.0116 24.5388C16.8158 24.217 16.9729 23.8439 17.236 23.6191Z" fill="#A7A7A7"/>
<path d="M16.1776 24.0258C16.3665 24.0319 16.4803 24.051 16.6427 24.1544C16.753 24.2244 17.0076 24.4539 16.9094 24.5898C16.7204 24.5909 16.6226 24.5747 16.4575 24.4739C16.3421 24.4034 16.0829 24.165 16.1776 24.0258Z" fill="#A7A7A7"/>
<path d="M18.466 25.1367L18.6796 25.129L18.6124 25.7514C18.7226 25.7489 18.8433 25.7367 18.9542 25.7278C18.9511 25.7957 18.939 25.8733 18.9302 25.9417C18.7437 25.9537 18.5573 25.964 18.3708 25.9727C18.4088 25.6963 18.4236 25.4172 18.466 25.1367Z" fill="#A7A7A7"/>
<path d="M20.3179 25.0117L20.3885 25.0061C20.4403 25.0315 20.4194 25.0128 20.4481 25.0695C20.4264 25.2174 20.3218 25.2076 20.2055 25.2114C20.1869 25.4268 20.1648 25.6417 20.1394 25.8563C20.0747 25.8596 19.9753 25.8792 19.9372 25.8453C19.9533 25.6376 19.9741 25.4302 19.9995 25.2234C19.9294 25.2302 19.8467 25.2521 19.7963 25.2005C19.7918 24.9689 20.1388 25.0214 20.3179 25.0117Z" fill="#A7A7A7"/>
<path d="M18.7923 22.7444C18.9605 22.7529 19.1119 22.7894 19.2763 22.8234C19.2413 23.0015 19.285 23.1525 19.333 23.3219L19.1719 23.2405C19.122 23.3295 19.0946 23.3958 19.055 23.4896C19.0333 23.5943 19.0344 23.6132 18.9562 23.6822C18.8982 23.6926 18.9253 23.6966 18.8723 23.6695C18.9569 23.4656 19.1074 22.8883 18.7753 22.8534L18.7594 22.832L18.7923 22.7444Z" fill="#A7A7A7"/>
<path d="M17.7482 27.8146C17.8159 27.8556 18.047 28.3595 18.1002 28.4687C17.9975 28.4491 17.8911 28.4239 17.7887 28.4011C17.6473 28.3615 17.5102 28.3054 17.3731 28.2525L17.7482 27.8146Z" fill="#A7A7A7"/>
<path d="M16.0442 24.1777C16.0724 24.2135 16.1098 24.2942 16.1421 24.3391C16.2811 24.5324 16.3922 24.6062 16.5996 24.7065L16.2823 24.7254C16.1194 24.7374 15.9564 24.7474 15.7933 24.755C15.8594 24.5317 15.9323 24.3798 16.0442 24.1777Z" fill="#A7A7A7"/>
<path d="M20.7513 23.798C20.8996 23.941 21.0434 24.2097 21.1323 24.3945C21.021 24.4018 20.9099 24.4096 20.7988 24.4182C20.681 24.4216 20.5554 24.4347 20.4373 24.4447C20.6385 24.2246 20.7073 24.0916 20.7513 23.798Z" fill="#A7A7A7"/>
<path d="M17.3835 22.9666C17.433 22.9953 17.4307 22.9976 17.4604 23.0441C17.4427 23.053 17.3801 23.0859 17.3678 23.0952C17.28 23.1612 17.3729 23.4839 17.4108 23.5671C17.4465 23.6456 17.584 23.7912 17.5838 23.8746L17.4936 23.8926C17.4309 23.8435 17.4112 23.5357 17.283 23.4623C17.2459 23.4779 17.2365 23.4866 17.1972 23.4861C17.1952 23.3327 17.2094 23.2473 17.1832 23.0932L17.1787 23.0678L17.3835 22.9666Z" fill="#A7A7A7"/>
<path d="M17.4878 24.2894C17.5714 24.3425 17.5926 24.5416 17.6105 24.6358L17.339 24.6616C17.2785 24.6625 17.2845 24.6714 17.2384 24.6461L17.2357 24.5931C17.2808 24.4722 17.3908 24.3699 17.4878 24.2894Z" fill="#A7A7A7"/>
<path d="M19.0913 24.1881C19.128 24.2519 19.3012 24.4769 19.3014 24.509L19.2371 24.5266L18.9585 24.539C19.0261 24.3954 19.0474 24.3426 19.0913 24.1881Z" fill="#A7A7A7"/>
<path d="M18.6989 27.9732L18.7564 27.9567C18.7403 28.0588 18.7267 28.1644 18.7123 28.2669C18.7011 28.1606 18.7002 28.0797 18.6989 27.9732Z" fill="#A7A7A7"/>
<path d="M7.32578 6.71282C7.41908 6.70159 7.60036 6.70062 7.69683 6.69853C8.79538 6.67475 9.91011 6.95346 10.7076 7.75719C11.1413 8.19425 11.4675 8.7894 11.458 9.42284C11.4428 10.438 10.8196 11.4558 10.1215 12.1505C9.17717 13.0902 7.88087 13.7119 6.56687 13.8887C6.20552 13.9373 5.87711 13.9436 5.51435 13.9425C5.22974 15.0908 5.20381 16.1092 5.51036 17.2496C3.33378 17.7265 3.42371 15.783 3.71931 14.2846C4.03923 12.6629 4.7253 11.1452 5.55018 9.72194C5.87191 9.16684 5.9533 8.77277 6.6591 8.951C6.6751 8.95669 6.69102 8.96265 6.70683 8.96888C6.93679 9.05803 7.41471 9.309 7.50787 9.55705C7.53853 9.63897 7.47331 9.80702 7.43243 9.8833C6.92942 10.8216 6.3225 11.6844 5.90213 12.6708C7.21704 12.3544 8.52704 11.2455 9.33468 10.1831C9.69149 9.71371 10.2007 8.83059 9.5507 8.38752C8.97058 7.99207 7.97561 8.01393 7.29852 8.14422C6.06124 8.38232 4.73524 8.95285 3.93271 9.9652C3.85078 10.0709 3.74556 10.2426 3.68739 10.3676C3.6525 10.4302 3.51802 10.8216 3.47628 10.8471C3.07844 11.0904 2.14629 10.4334 2.15621 10.0242C2.16694 9.58128 2.50276 9.04607 2.73585 8.78133C3.84865 7.51749 5.69027 6.84398 7.32578 6.71282Z" fill="#FFFDF6"/>
<path d="M18.4373 2.33249C18.7007 2.31791 18.9497 2.42449 19.0557 2.68201C19.1108 2.81532 19.1101 2.96527 19.0539 3.0981C18.9746 3.28812 18.8438 3.3629 18.6687 3.43573C18.9255 4.31543 19.2866 5.13358 19.7498 5.92286C19.8407 6.07747 19.9471 6.3007 20.0971 6.40466C20.1823 6.46388 20.2886 6.4786 20.3883 6.45336C20.7776 6.35473 21.9286 4.49304 22.1814 4.04949C22.0336 3.93517 21.9328 3.81372 21.9769 3.62228C22.1098 3.04388 22.9646 3.30548 22.787 3.84019C22.7431 3.97286 22.5852 4.05093 22.4614 4.09545C22.3933 5.28679 22.1389 6.4599 21.708 7.57173C21.7501 7.7055 21.7812 7.85974 21.7252 7.99332C21.6508 8.06083 21.3408 8.00277 21.2248 7.99481L20.2616 7.93592C19.7133 7.90461 19.1518 7.90385 18.601 7.89051C18.0677 7.89409 17.5242 7.90359 16.9915 7.92345C16.4264 7.9445 15.8589 7.99916 15.2946 8.03116C15.2446 7.8427 15.2522 7.75102 15.3064 7.5742C14.8806 6.55494 14.6205 5.19831 14.555 4.09594C13.9882 3.91082 14.1746 3.28035 14.6356 3.30063C14.7628 3.30617 14.8821 3.36434 14.9653 3.46135C15.153 3.68455 15.0206 3.8936 14.832 4.04822C15.0687 4.47454 16.2335 6.33645 16.609 6.44945C16.6959 6.47562 16.8085 6.47072 16.8884 6.42503C17.0529 6.33101 17.176 6.07294 17.2694 5.9133C17.7308 5.12464 18.0881 4.31205 18.343 3.43362C18.1341 3.35272 17.9779 3.23114 17.929 2.99878C17.8985 2.85039 17.9309 2.6959 18.0184 2.57253C18.1266 2.42093 18.2631 2.36283 18.4373 2.33249Z" fill="#FFFDF6"/>
<path d="M14.869 19.4272L17.3897 19.427L17.3904 20.4272L14.8688 20.4261L14.869 19.4272Z" fill="#FFFDF6"/>
<path d="M19.9045 19.4271L22.4226 19.4275V20.426L19.9056 20.4266L19.9045 19.4271Z" fill="#FFFDF6"/>
<path d="M17.3897 19.427L19.9045 19.4272L19.9056 20.4266L17.3904 20.4272L17.3897 19.427Z" fill="#FFFDF6"/>
<path d="M11.7537 17.3973C12.3888 17.3522 12.6006 17.9147 12.3513 18.4231C12.2365 18.6572 12.074 18.7557 11.8343 18.8363C12.0504 18.9138 12.1945 18.9768 12.4224 19.015C12.3823 19.1511 12.391 19.265 12.2465 19.2841C11.8078 19.261 11.7881 19.1434 11.4422 18.8965C11.344 18.8374 11.1945 18.7989 11.1069 18.7262C10.8142 18.4836 10.9021 17.9415 11.1244 17.6778C11.2986 17.4711 11.499 17.4179 11.7537 17.3973Z" fill="#FFFDF6"/>
<path d="M11.6779 17.6958C12.1039 17.6607 11.9839 18.3763 11.6922 18.5686C11.4418 18.5918 11.4026 18.3603 11.4329 18.162C11.4639 17.9596 11.5141 17.8243 11.6779 17.6958Z" fill="#A7A7A7"/>
<path d="M16.27 3.9447C16.6506 3.95199 16.7895 4.28247 16.4943 4.55416C16.7198 4.88052 16.9505 5.01455 17.2657 5.24524C17.1278 5.50094 16.9781 5.75002 16.8171 5.99167C16.6982 6.10488 16.5888 5.97159 16.5102 5.87866C16.3469 5.6856 16.1893 5.47567 16.0348 5.27564C16.1537 5.00988 16.2134 4.89245 16.2631 4.60029C16.2356 4.59133 16.2072 4.58181 16.1808 4.57031C16.0928 4.53231 16.0242 4.45968 15.9909 4.36939C15.9064 4.14635 16.0761 4.00436 16.27 3.9447Z" fill="#FFFDF6"/>
<path d="M20.638 3.94556C21.0989 3.94421 21.2116 4.43023 20.7466 4.60368C20.8055 4.89855 20.8577 5.00281 20.9785 5.27453C20.845 5.45159 20.7086 5.6265 20.5695 5.79916C20.4776 5.91253 20.3961 6.03406 20.2539 6.04858C20.1215 5.92533 19.8521 5.43132 19.7477 5.24711C20.0525 5.01751 20.3038 4.87945 20.5151 4.55465C20.2611 4.3115 20.3151 4.07409 20.638 3.94556Z" fill="#FFFDF6"/>
<path d="M17.6307 17.7575C17.8616 17.739 18.0564 17.7564 18.2847 17.7768C18.169 18.2405 18.1403 18.3332 18.1562 18.8087C18.0393 18.8196 17.8001 18.8691 17.7117 18.7907L17.7158 18.7039L17.7106 18.6892C17.036 19.3344 16.7337 17.9915 17.6307 17.7575Z" fill="#FFFDF6"/>
<path d="M17.7101 17.9637C17.7712 17.9708 17.7483 17.9575 17.7865 17.9934C17.8095 18.1727 17.7028 18.4324 17.5962 18.578C17.5554 18.5654 17.571 18.5721 17.5379 18.5376C17.4674 18.3485 17.5585 18.0908 17.7101 17.9637Z" fill="#A7A7A7"/>
<path d="M25.7622 17.7567C25.975 17.7375 26.192 17.7581 26.4042 17.7769C26.2836 18.2414 26.2601 18.3303 26.2707 18.8089C26.1217 18.8207 25.9914 18.8611 25.8572 18.8111C25.8167 18.7551 25.8321 18.7604 25.8382 18.6699C25.2117 19.3706 24.8059 17.9778 25.7622 17.7567Z" fill="#FFFDF6"/>
<path d="M25.8252 17.9614C25.859 17.9655 25.9058 17.9671 25.9076 18.0104C25.9146 18.1935 25.8274 18.4139 25.726 18.5629L25.6895 18.57L25.655 18.5457C25.5839 18.3685 25.6836 18.0859 25.8252 17.9614Z" fill="#A7A7A7"/>
<path d="M14.3289 17.7562C14.5388 17.7382 14.7604 17.7582 14.9701 17.777C14.8501 18.2399 14.8244 18.3329 14.8358 18.8095C14.6881 18.8194 14.5432 18.8659 14.4178 18.8068C14.3859 18.743 14.4 18.7483 14.413 18.6607C13.7589 19.3745 13.3802 17.9773 14.3289 17.7562Z" fill="#FFFDF6"/>
<path d="M14.3895 17.9631C14.4235 17.966 14.4708 17.9666 14.4728 18.0101C14.4808 18.1945 14.3905 18.4162 14.2905 18.5659C14.2406 18.5712 14.2632 18.5768 14.2213 18.5452C14.1466 18.3722 14.2495 18.0853 14.3895 17.9631Z" fill="#A7A7A7"/>
<path d="M23.254 17.7562C23.4648 17.7381 23.6872 17.7583 23.8977 17.777C23.7765 18.2173 23.7497 18.3578 23.7622 18.8094C23.6159 18.8195 23.4672 18.8666 23.3438 18.8066C23.3124 18.7428 23.3266 18.7472 23.3402 18.66C22.705 19.3808 22.2925 17.9834 23.254 17.7562Z" fill="#FFFDF6"/>
<path d="M23.3158 17.9646C23.3498 17.9666 23.3969 17.9666 23.3989 18.01C23.4074 18.1959 23.3156 18.4176 23.2157 18.5689C23.1732 18.5722 23.1947 18.574 23.1512 18.5489C23.0695 18.3803 23.1741 18.0838 23.3158 17.9646Z" fill="#A7A7A7"/>
<path d="M20.6886 17.7566C20.9054 17.7384 21.1191 17.7576 21.3348 17.7771C21.2197 18.2101 21.1821 18.3625 21.2026 18.8092C21.0573 18.8199 20.9106 18.8626 20.7811 18.8099C20.7495 18.7547 20.7626 18.761 20.7747 18.6798L20.7722 18.6796C20.7505 18.6893 20.7413 18.6943 20.7249 18.7122C20.6127 18.833 20.4461 18.898 20.2897 18.8265C20.2055 18.7877 20.1487 18.7076 20.1338 18.6197C20.0826 18.3202 20.1984 17.9798 20.4738 17.8282C20.5424 17.7904 20.6141 17.7746 20.6886 17.7566Z" fill="#FFFDF6"/>
<path d="M20.7514 17.9662C20.7951 17.969 20.7843 17.9678 20.8264 17.9804C20.8855 18.1173 20.7355 18.4437 20.6582 18.5645C20.6094 18.5723 20.6324 18.5761 20.5877 18.5489C20.5126 18.3759 20.6114 18.0895 20.7514 17.9662Z" fill="#A7A7A7"/>
<path d="M24.865 17.7434C25.1376 17.764 25.1036 18.022 25.0671 18.2302C25.031 18.4368 25.0026 18.5984 25.0035 18.8099C24.8651 18.8257 24.683 18.8299 24.541 18.837C24.5456 18.6805 24.6624 18.1629 24.5914 18.0794C24.4829 18.1249 24.4355 18.3383 24.4111 18.4456C24.3918 18.5611 24.3821 18.7041 24.3709 18.8228L23.8968 18.8223C23.9557 18.5248 24.0164 18.0864 24.009 17.7917C24.1656 17.7808 24.3224 17.7724 24.4794 17.7664L24.459 17.9606C24.4736 17.9428 24.4885 17.9251 24.5036 17.9076C24.6272 17.7639 24.6843 17.7566 24.865 17.7434Z" fill="#FFFDF6"/>
<path d="M13.5138 17.7643C13.584 17.7566 13.6322 17.7464 13.7015 17.7608C13.7129 17.7984 13.6458 18.0354 13.6327 18.0913C13.5724 18.3482 13.5858 18.547 13.5985 18.8056C13.4428 18.8161 13.287 18.8254 13.1311 18.8335C13.1402 18.7696 13.1444 18.7285 13.1469 18.664C13.0774 18.67 12.9543 18.9039 12.7471 18.8561C12.4888 18.7963 12.5061 18.6754 12.5415 18.4532C12.6005 18.1935 12.6234 18.0546 12.6293 17.7841C12.7693 17.7717 12.9395 17.7685 13.0821 17.762C13.0785 17.9797 12.9501 18.4316 13.01 18.5259C13.2083 18.531 13.2163 17.9299 13.2248 17.7908L13.5138 17.7643Z" fill="#FFFDF6"/>
<path d="M15.1984 17.3002L15.6558 17.2887C15.6249 17.6187 15.5426 17.9912 15.5045 18.3269C15.4845 18.502 15.4928 18.6365 15.4785 18.7971L15.4424 18.8148C15.3031 18.8262 15.1458 18.8308 15.0048 18.838C15.019 18.4544 15.1429 17.7055 15.1984 17.3002Z" fill="#FFFDF6"/>
<path d="M21.5597 17.3002L22.0262 17.2888C21.9642 17.6251 21.9234 17.9949 21.8703 18.3345C21.8537 18.4412 21.8602 18.7555 21.8199 18.813C21.6855 18.8269 21.5063 18.8308 21.3682 18.8377C21.38 18.4524 21.509 17.7199 21.5597 17.3002Z" fill="#FFFDF6"/>
<path d="M16.7326 17.5824C16.8114 17.5762 16.8474 17.5606 16.9126 17.5905C16.9399 17.6495 16.9084 17.7375 16.8929 17.8061L17.1361 17.7879L17.0977 18.025L16.8658 18.0344C16.84 18.1666 16.7556 18.4729 16.8601 18.5638C17.1177 18.5701 17.1193 18.7577 16.895 18.8324C16.055 18.9278 16.471 18.4086 16.4083 18.0386C16.3635 18.02 16.3568 18.021 16.3227 17.9852C16.3094 17.9154 16.32 17.9002 16.342 17.8294C16.3855 17.8054 16.4139 17.7982 16.4604 17.7834C16.5145 17.718 16.505 17.6893 16.5217 17.5978L16.7326 17.5824Z" fill="#FFFDF6"/>
<path d="M19.7778 17.5826C19.8561 17.5737 19.9012 17.5595 19.9641 17.5934C19.986 17.6552 19.954 17.7391 19.9366 17.8069L20.1832 17.7883L20.1428 18.0252L19.9139 18.0346C19.8859 18.1678 19.8282 18.4041 19.8711 18.5253C19.9627 18.6089 19.987 18.5098 20.0911 18.6389C20.1124 18.7642 20.0481 18.7975 19.946 18.8315C19.8255 18.846 19.6738 18.8575 19.5778 18.8235C19.2637 18.7126 19.4812 18.2665 19.4586 18.0396C19.4564 18.0183 19.4095 18.053 19.3625 17.9591C19.3665 17.8878 19.3677 17.8852 19.3983 17.8197C19.4387 17.8091 19.4682 17.7995 19.5074 17.7862C19.56 17.7353 19.559 17.6743 19.5721 17.5981L19.7778 17.5826Z" fill="#FFFDF6"/>
<path d="M18.818 17.4279L19.3186 17.4274C19.2693 17.8163 19.1724 18.4464 19.1634 18.822L18.6749 18.8226C18.7278 18.3768 18.8001 17.8702 18.818 17.4279Z" fill="#FFFDF6"/>
<path d="M22.3279 17.7797C22.417 17.7734 22.5313 17.7734 22.6228 17.7708C22.5554 18.1345 22.5136 18.4164 22.48 18.7849C22.4309 18.8262 22.4296 18.8135 22.3527 18.8227L22.0186 18.8378C22.045 18.5134 22.1176 18.1494 22.1545 17.8076C22.2009 17.7775 22.2701 17.7823 22.3279 17.7797Z" fill="#FFFDF6"/>
<path d="M15.9644 17.7795L16.2532 17.7709C16.2054 18.1246 16.1515 18.4217 16.1124 18.7858C16.0738 18.826 16.065 18.8136 15.9933 18.8227L15.6584 18.8382C15.6776 18.5067 15.7579 18.1643 15.785 17.811C15.8315 17.7766 15.9036 17.7823 15.9644 17.7795Z" fill="#FFFDF6"/>
<path d="M16.0038 17.2834C16.3511 17.2686 16.3731 17.5434 16.105 17.6674C15.7926 17.6757 15.7344 17.4438 16.0038 17.2834Z" fill="#FFFDF6"/>
<path d="M22.3644 17.2845C22.7073 17.2654 22.7389 17.5322 22.4799 17.6648C22.1621 17.6824 22.0956 17.449 22.3644 17.2845Z" fill="#FFFDF6"/>
<path d="M17.8509 17.2784L18.1835 17.2804C18.0623 17.4382 17.9905 17.5213 17.8352 17.6441C17.7943 17.6705 17.6871 17.715 17.6388 17.6981C17.6207 17.6371 17.7979 17.3908 17.8509 17.2784Z" fill="#FFFDF6"/>
</svg>
