<svg width="65" height="32" viewBox="0 0 65 32" fill="none" xmlns="http://www.w3.org/2000/svg">
<path d="M32.2584 14.5663C31.1572 14.8614 30.3734 15.109 29.3038 14.5549C27.1543 13.4414 25.9641 11.8472 25.1363 9.63014C24.3398 7.49727 24.657 6.17281 25.5353 4.10014C26.1785 2.58233 27.893 0.778716 29.4537 0.236067C31.1137 -0.341066 31.8365 0.243018 33.1961 0.88433C34.5934 0.77109 35.3885 1.1897 36.5713 1.7478C40.0474 2.54318 40.7701 5.37041 40.0697 8.58608C39.6652 10.4434 38.5943 12.2193 36.9373 13.2249C35.7948 13.9158 34.5044 14.3249 33.1726 14.4184C32.8076 14.5055 32.6323 14.5338 32.2584 14.5663Z" fill="#002F01"/>
<path d="M33.196 0.884309C34.5933 0.771069 35.3884 1.18968 36.5712 1.74778C40.0474 2.54316 40.77 5.37039 40.0696 8.58606C39.6651 10.4434 38.5942 12.2193 36.9372 13.2249C35.7947 13.9158 34.5043 14.3249 33.1726 14.4183C32.8075 14.5055 32.6322 14.5338 32.2583 14.5663C32.4041 14.3922 32.6228 14.2452 32.8139 14.1202C36.6801 11.5905 37.6367 6.21901 34.8027 2.54849C34.3245 1.92912 33.7181 1.45085 33.196 0.884309Z" fill="#02B200"/>
<path d="M36.571 1.74756C40.0472 2.54294 40.7698 5.37016 40.0694 8.58583C39.6649 10.4432 38.594 12.219 36.937 13.2246C35.7945 13.9155 34.5041 14.3246 33.1724 14.4181C34.3081 13.8875 34.7011 13.766 35.7459 13.0397C37.4711 11.8404 38.1544 10.4006 38.5131 8.341C38.784 6.78573 38.4283 4.56507 37.6548 3.17399C37.3737 2.66853 36.9213 2.21753 36.571 1.74756Z" fill="#E7CE00"/>
<path d="M32.0156 0.883301C32.5418 0.928988 34.1208 2.79792 34.4804 3.32107C35.368 4.61226 36.1601 6.91526 35.8146 8.49097C35.3885 10.4337 33.9848 12.5929 32.311 13.6914C31.9006 13.953 31.0189 14.3936 30.5392 14.2926C32.8885 12.1049 35.1779 9.09355 31.0215 7.0719C27.307 5.26525 30.1715 2.49748 32.0156 0.883301Z" fill="#02B200"/>
<path d="M30.4501 0.561035L30.532 0.571698C30.4681 0.79116 29.2481 1.8608 29.0234 2.18797C27.9836 3.70193 27.1297 5.71825 29.01 7.0164C29.8346 7.66858 31.8109 8.21676 32.0152 9.42582C32.3242 11.2546 31.5417 12.4622 29.8739 12.9172C25.4437 13.2153 24.6349 6.97517 26.2292 4.00582C27.2431 2.11745 28.4856 1.26234 30.4501 0.561035Z" fill="#C96200"/>
<path d="M63.7566 26.2713C64.2747 26.4046 64.3656 25.9176 64.8433 25.875C65.0161 26.0279 64.9833 25.9552 64.9999 26.144C64.7623 26.561 64.0733 26.7793 63.6226 26.8496L63.5702 26.8574C62.9965 27.555 62.3875 28.3685 61.3794 28.0387C61.635 28.0512 61.747 28.0696 61.99 27.9855C62.0994 27.8256 62.0799 27.9027 62.0491 27.6902L61.9492 27.6339C61.995 27.6118 62.0403 27.5886 62.085 27.5643C62.4972 27.3401 62.8609 26.9521 62.9943 26.4947L63.3547 26.638C63.6085 26.5732 63.5606 26.5409 63.7566 26.2713Z" fill="#02B200"/>
<path d="M30.1406 19.2813C30.4683 19.2588 31.1401 19.1685 31.3857 19.3594C31.3048 19.7797 30.4295 20.1994 30.0342 20.8047C28.6186 22.9718 26.4111 33.4095 32.2363 29.8633C31.2587 31.8285 29.331 32.8568 27.6494 30.8545C26.6052 29.6111 26.6835 27.5816 26.8818 26.0488C26.5203 26.0716 26.149 26.1163 25.7881 26.1553C25.2139 27.3181 24.5513 28.4355 23.8066 29.4971C23.2992 30.1209 23.0451 30.3679 22.2617 30.7891C21.0952 31.4158 18.4907 30.4202 19.083 28.8662C19.4059 28.0194 20.6533 27.5821 20.9687 28.7764C21.137 29.4134 20.9278 29.6828 20.6201 30.2022C22.2973 29.8812 22.9067 27.8663 23.5967 26.4512C22.7527 26.4942 21.8264 26.6538 20.9951 26.8066C21.454 26.2465 21.927 25.798 22.4424 25.293C23.0211 25.3022 23.5999 25.305 24.1787 25.3008C24.4106 24.7689 25.9884 22.1728 26.3418 21.709C27.4085 20.3089 28.3877 19.5143 30.1406 19.2813ZM29.7227 19.8565C28.4238 20.5972 27.7694 21.7306 27.1953 23.0723C26.9547 23.6345 26.35 24.6846 26.2187 25.2236L26.3643 25.3037C26.5851 25.2987 26.8893 25.3207 27.0537 25.1924C27.8391 23.4946 28.0352 21.7153 29.5811 20.3389C29.6924 20.2397 29.9264 20.0046 29.915 19.8701L29.7227 19.8565Z" fill="#02B200"/>
<path d="M7.81225 17.7248C9.06825 17.5953 10.3031 18.0745 11.2137 19.1218C11.8772 19.8849 12.2483 22.0803 10.6745 22.1112C10.3905 22.0627 9.91884 21.7712 9.79252 21.5236C9.30268 20.5633 9.93293 20.151 10.596 19.738C9.94042 19.0354 9.02367 18.4836 8.02234 18.7523C5.5925 19.4043 6.90009 21.6554 7.70772 23.0975C8.67674 24.8279 9.41025 26.8049 8.80994 28.8004C7.75931 32.1883 3.17304 33.0972 0.787003 30.5015C-0.205293 29.166 -0.339646 27.195 0.849583 25.9362C1.344 25.4047 2.03439 25.0991 2.76001 25.0904C3.47964 25.0829 4.35791 25.4361 4.33448 26.2798C4.32601 26.5687 4.20265 26.8423 3.9918 27.0398C3.30111 27.6896 2.66116 27.2448 2.15103 26.6878C1.62195 27.3036 1.0862 27.9704 1.24046 28.854C1.49819 30.3304 2.82006 31.141 4.27169 30.9165C5.09927 30.7921 5.83961 30.3334 6.31988 29.6476C8.10428 27.1206 5.19253 24.5457 4.89549 21.978C4.63939 19.7642 5.44629 18.0732 7.81225 17.7248Z" fill="#002F01"/>
<path d="M16.9352 22.6055C17.5321 22.7173 17.4056 23.4313 17.3514 23.8515C17.7938 23.7342 18.1992 23.5354 18.5655 23.8573C18.643 24.0657 18.6075 24.2757 18.517 24.4737C18.054 25.4884 17.8128 26.1946 17.7615 27.3021C18.4561 26.8925 19.8113 25.6362 20.306 25.5522L20.3725 25.6285C20.0739 26.6791 18.3253 27.8405 17.3414 28.1939C15.2976 27.3606 17.5382 25.3857 17.3957 24.5309L17.3031 24.493C16.7129 24.6502 16.5182 25.2985 16.1057 25.8448C15.4005 26.7789 14.4381 27.8684 13.2252 28.1076C12.4967 28.2513 12.3316 27.5849 12.0769 27.3879C11.8332 27.6034 11.591 27.8205 11.3503 28.0392C9.59386 28.6843 9.95994 26.3109 10.3995 25.3989C10.767 24.636 10.9431 24.135 11.4597 23.4311C11.9538 23.4765 12.187 23.5077 12.6786 23.4448C12.3187 24.1026 11.032 26.4761 11.3213 27.115C11.9551 27.3846 13.4949 24.0116 13.6992 23.4474C14.1053 23.4707 14.5119 23.4821 14.9186 23.4816C14.6816 24.3518 13.9867 26.0937 13.8777 26.8433L13.9672 26.9192C14.7986 26.8461 15.9694 25.1377 16.3574 24.4746L15.9168 23.8967C16.189 23.2469 16.3844 23.0119 16.9352 22.6055Z" fill="#02B200"/>
<path d="M31.3242 22.269C31.9545 20.8929 33.6893 21.1689 33.1123 22.8686C33.0678 22.9999 33.58 22.9075 33.6807 22.9155C34.6002 22.9919 34.4176 23.7306 33.9873 24.2563C33.2439 24.269 33.169 24.1172 32.8154 23.477C32.6535 23.5416 32.6721 23.589 32.5732 23.7768C32.013 24.5441 30.7416 25.9556 30.7832 26.9975L30.8672 27.0991C31.8143 27.1043 32.5675 25.0766 32.8008 24.3042C33.1205 24.4757 33.2894 24.5468 33.5479 24.6313L33.8457 24.7251C33.653 25.1104 32.9606 26.7081 33.21 27.0259C34.0069 27.0448 35.3558 24.7328 35.7285 24.0913C36.0993 24.1219 36.6045 24.1187 36.9863 24.1264C36.7936 24.7744 36.4212 25.2078 36.1436 25.8794C36.8028 25.4133 38.0564 23.6113 38.751 24.0356C38.9768 24.4212 38.8407 24.7802 38.7559 25.2261C39.161 24.7482 39.6761 24.0685 40.2979 23.9214C40.5225 23.963 40.439 23.9198 40.6094 24.1079C40.8352 24.8521 40.1428 26.4588 39.873 27.3022C41.6022 26.2429 41.0988 25.8753 42.1973 24.5708C43.0876 23.5144 45.6093 24.5065 44.0674 26.0981C43.6494 26.5296 42.8993 26.4626 42.332 26.3989C42.4382 26.5629 42.6855 26.9672 42.8359 27.0444C44.2157 27.7508 45.6913 24.8825 46.1494 24.0971C46.4869 24.1188 46.8939 24.1143 47.2373 24.1196C47.1361 24.5758 46.7343 25.5567 46.6992 25.8032C47.4011 25.3778 48.1236 23.8919 49.207 23.9262C49.4316 24.0338 49.3565 23.9682 49.4951 24.1762C49.5797 24.7775 48.8586 26.5842 48.6309 27.2788C49.7008 26.7316 50.2321 26.0764 50.5537 24.9077C50.6423 24.586 51.0475 23.8106 50.9561 23.5464C50.8213 23.5008 50.686 23.4556 50.5508 23.4116C50.4954 23.2104 50.517 23.26 50.6055 23.0288C50.8127 22.7881 51.0969 22.8647 51.2119 22.7837C51.3575 22.6807 51.6526 21.7332 51.7168 21.5483C52.0903 21.5336 52.461 21.567 52.834 21.5923C52.7508 21.8013 52.6507 22.0428 52.582 22.2534C52.3733 22.8941 52.6879 22.7322 52.8984 23.1343L52.833 23.2778C52.6181 23.4579 52.473 23.4932 52.207 23.5874C51.8724 24.374 51.2482 26.1983 51.0205 27.0171L51.082 27.1108C51.2945 27.0982 51.3749 26.9851 51.542 26.8843C52.4157 26.3567 52.7731 25.2918 53.0059 24.3159C53.4224 24.4934 53.7449 24.6476 54.2051 24.6889C53.8118 25.27 53.4316 26.5397 53.1973 27.2427C54.0857 26.8326 54.6389 26.4501 55.041 25.5034C55.454 24.5314 56.1943 23.9447 57.2812 24.2309C58.4131 24.529 57.8505 26.5517 56.8232 26.0581C56.5346 25.5867 57.1046 25.2824 57.0176 24.7524C56.7894 24.6878 56.8582 24.7049 56.6104 24.7641C56.0475 25.2334 55.7398 26.174 56.0146 26.8755C56.3349 27.6919 57.4826 26.8477 57.8457 26.4848C58.4159 25.915 58.6352 25.0704 58.8623 24.3091C59.3043 24.5167 59.5102 24.6014 60.0029 24.6919C59.6176 25.2868 59.2467 26.5295 59.0273 27.2495C60.7637 26.3306 60.3574 26.1907 61.4482 24.8159C62.4613 23.5391 64.8146 23.9761 63.7568 26.271C64.2745 26.4039 64.3655 25.9173 64.8428 25.8745C65.0156 26.0274 64.9834 25.9552 65 26.144C64.7623 26.5609 64.0727 26.7789 63.6221 26.8491L63.5703 26.8569C62.9966 27.5546 62.387 28.3684 61.3789 28.0386C60.8123 27.6764 60.7697 27.5508 60.5654 26.937C60.2027 27.3034 59.5593 27.7555 59.0879 27.9653C58.3534 28.2922 58.0346 28.0307 57.7627 27.3579C57.147 27.3714 55.5742 29.4737 54.8389 26.8598C54.3582 27.31 53.2068 28.2503 52.4873 28.0581C52.1915 27.9788 52.0575 27.637 51.9307 27.3764C51.6215 27.4101 51.2252 27.851 50.9219 28.0054C50.1104 28.4182 49.9783 28.0057 49.6768 27.3677C49.3493 27.3681 47.8996 28.8575 47.4238 27.7895C47.1611 27.1989 47.7879 25.9013 47.9961 25.2983C47.0206 26.1028 46.5231 27.1823 45.6982 28.1489L44.9062 28.0854C45.1727 27.3337 45.4338 26.5796 45.6885 25.8237C44.7173 27.1144 42.2194 29.7648 41.3486 26.8364C40.863 27.351 39.4666 28.6782 38.8018 27.8589C38.4477 27.4216 39.2211 25.797 39.3633 25.2436C38.5918 25.9696 38.2799 26.9509 37.6113 27.7632C37.282 28.1634 36.7888 28.3258 36.375 27.9555C36.8096 27.6289 37.3928 25.8724 37.584 25.2856C37.1886 25.6148 36.3846 26.522 36.1162 26.9585V26.9595C35.8003 27.3013 35.3452 28.6268 34.6338 28.0132C34.5361 27.5949 35.0767 26.4032 35.2461 25.8833C34.6923 26.4407 32.0817 29.7634 31.7334 27.2378C31.4181 27.5164 29.4792 28.8931 29.4482 27.6733C29.4667 25.9427 30.6166 23.8139 31.3242 22.269ZM36.375 27.9555C36.4023 27.8621 36.4469 27.7506 36.4971 27.6294C36.447 27.7506 36.4023 27.8621 36.375 27.9555ZM63.3691 24.852C62.6472 24.0641 61.1314 26.9367 61.9492 27.6343C61.9949 27.6122 62.0403 27.5882 62.085 27.5639C62.4969 27.3398 62.8607 26.9518 62.9941 26.4946L62.9512 26.4458C62.2865 25.6891 63.2897 25.4336 63.3691 24.852ZM36.2305 26.9048C36.194 26.9251 36.1559 26.9447 36.1162 26.9604C36.156 26.9446 36.1939 26.9251 36.2305 26.9048ZM43.3594 24.6948C43.1017 24.9307 42.5601 25.4995 42.6709 25.8862C42.8547 25.9835 42.8303 25.9458 43.083 25.8979C43.4508 25.6488 43.6678 25.477 43.8379 25.0591C43.8255 24.8223 43.8625 24.9026 43.7119 24.7485C43.5868 24.7205 43.4879 24.6897 43.3594 24.6948ZM33.8945 24.4946C33.8785 24.5398 33.8647 24.5846 33.8555 24.6245L33.8457 24.6802C33.8474 24.6633 33.8499 24.6445 33.8545 24.6245L33.8945 24.4946ZM58.9629 23.6421C59.0805 22.138 61.3302 23.0627 60.2686 24.147L60.1514 24.2563C59.6298 24.2667 59.4041 24.2764 59.0967 23.9585L58.959 23.8003L58.9629 23.6421ZM53.1484 23.7466C53.1336 22.5778 54.7006 22.4575 54.6826 23.6714C54.6792 23.8847 54.5391 24.0196 54.4629 24.1714L54.4346 24.2387C54.3362 24.2455 54.2373 24.2503 54.1387 24.2534C53.717 24.2654 53.5409 24.2065 53.2754 23.9741L53.1543 23.8637L53.1484 23.7466ZM32.4912 22.1118C32.3129 22.4482 31.7707 23.5367 31.8428 23.8696H31.9531C32.1622 23.5834 33.17 22.3209 32.4912 22.1118Z" fill="#02B200"/>
</svg>
