<svg width="37" height="36" viewBox="0 0 37 36" fill="none" xmlns="http://www.w3.org/2000/svg">
<g clip-path="url(#clip0_315_345)">
<path d="M18.5048 35.935C28.7247 35.935 37.0096 27.8907 37.0096 17.9675C37.0096 8.04433 28.7247 0 18.5048 0C8.28487 0 0 8.04433 0 17.9675C0 27.8907 8.28487 35.935 18.5048 35.935Z" fill="#FFFDF6"/>
<path d="M20.3591 7.76798C20.1967 7.74014 19.4129 7.61021 18.4953 7.61021C17.5777 7.61021 16.7939 7.74014 16.6314 7.76798C16.5358 7.78654 16.5072 7.69374 16.5741 7.64733C16.641 7.60093 18.4953 6.22738 18.4953 6.22738L20.4165 7.64733C20.493 7.69374 20.4547 7.78654 20.3591 7.76798ZM17.1571 16.6589C17.1571 16.6589 17.0615 16.6961 17.0329 16.7796C17.4248 17.0673 17.6924 17.7262 18.4953 17.7262C19.3077 17.7262 19.5754 17.0673 19.9577 16.7796C19.929 16.6961 19.8334 16.6589 19.8334 16.6589C19.8334 16.6589 19.3268 16.7796 18.4953 16.7796C17.6637 16.7796 17.1571 16.6589 17.1571 16.6589ZM18.5048 15.5545C18.2754 15.5545 18.2277 15.471 18.0747 15.471C17.9313 15.471 17.6446 15.5824 17.5872 15.6845C17.5872 15.7401 17.6159 15.7865 17.6542 15.8237C17.9791 15.8701 18.1321 16.0464 18.5144 16.0464C18.8967 16.0464 19.0401 15.8701 19.3746 15.8237C19.4129 15.7773 19.432 15.7309 19.4415 15.6845C19.3842 15.5824 19.0975 15.471 18.9541 15.471C18.7725 15.471 18.7247 15.5545 18.5048 15.5545ZM36.9714 18.9513C36.9523 19.3782 36.9045 19.8051 36.8567 20.2227C34.7634 20.5568 34.0179 18.7471 31.8673 18.8399C31.9915 19.2854 32.0967 19.7309 32.1827 20.1949C33.951 20.1949 34.6678 21.8005 36.6368 21.5592C36.5317 22.051 36.4074 22.5336 36.2641 23.0162C34.7061 23.1647 34.1613 21.6613 32.3547 21.7077C32.3739 21.9582 32.3739 22.2088 32.3739 22.4594L32.3643 22.877L35.8626 24.1763C35.681 24.6589 35.4707 25.1322 35.2509 25.5963C34.1995 25.5406 33.8363 24.232 32.24 24.3341C32.1923 24.6682 32.1349 25.0023 32.0584 25.3271C33.4444 25.2343 33.7503 26.478 34.7443 26.5708C34.4862 27.0162 34.2186 27.4524 33.9319 27.8793C33.3392 27.5731 32.8327 26.645 31.7143 26.5893C31.829 26.2459 31.9342 25.8933 32.0107 25.5406C31.0166 25.5406 29.8887 25.1694 28.9329 24.3248C29.2388 22.6172 26.5147 20.8817 26.5147 19.6381C26.5147 18.2831 27.222 17.5313 27.222 15.703C27.222 14.348 26.5433 12.8724 25.5206 11.8701C25.3199 11.6752 25.1192 11.5174 24.8898 11.3782C25.8265 12.5104 26.5529 13.8469 26.5529 15.3968C26.5529 17.1137 25.7309 18.0232 25.7309 19.6102C25.7309 21.1972 28.1204 22.5708 28.1204 24.2135C28.1204 24.8538 27.9102 25.4849 27.2124 26.7193C28.2829 27.7587 29.688 28.3248 30.5865 28.3248C30.8828 28.3248 31.0357 28.2413 31.1408 28.0186C31.2269 27.8237 31.3129 27.6288 31.3989 27.4339C32.3739 27.471 32.8135 28.3248 33.3584 28.6682C33.0621 29.0487 32.7562 29.4292 32.4312 29.7819C32.068 29.3921 31.5901 28.7425 30.8732 28.5568C30.749 28.7981 30.6151 29.0302 30.4718 29.2622C31.0835 29.42 31.5041 30.0232 31.829 30.413C31.4754 30.7657 31.1122 31.0998 30.7394 31.4246C30.5004 31.0719 30.1372 30.6172 29.7262 30.3666C29.5733 30.5708 29.4108 30.7657 29.2483 30.9513C29.602 31.1833 29.9078 31.6009 30.1086 31.935C29.6689 32.2784 29.2196 32.594 28.7513 32.9002C28.5219 31.0719 25.9603 29.8283 26.6485 27.7123C26.4191 28.0835 26.1514 28.5476 26.1514 29.1137C26.1514 30.645 27.8337 31.8608 27.9675 33.3828C27.6234 33.587 27.2602 33.7726 26.897 33.9582C26.8396 32.2877 25.0522 30.4501 25.0522 29.0766C25.0522 27.5452 27.1168 26.0046 27.1168 24.1949C27.1168 22.3852 24.7273 21.1322 24.7273 19.536C24.7273 17.949 25.7404 17.0302 25.7404 14.9977C25.7404 13.5035 25.014 12 23.8861 11.0348C23.6854 10.8677 23.4942 10.7285 23.2553 10.6079C24.3163 11.8422 24.9375 12.9745 24.9375 14.6729C24.9375 16.5847 23.7714 17.652 23.7714 19.5267C23.7714 21.4014 26.1132 22.4501 26.1132 24.1949C26.1132 25.9397 23.9339 27.4153 23.9339 29.2158C23.9339 30.8492 25.8551 32.4826 25.8838 34.4223C25.4632 34.5986 25.0331 34.7657 24.603 34.9142C24.8515 32.9559 22.6818 30.9327 22.6818 29.3364C22.6818 27.5916 24.9471 26.0882 24.9471 24.2042C24.9471 22.3202 22.6436 21.4478 22.6436 19.5081C22.6436 17.5777 24.0582 16.5012 24.0582 14.3666C24.0582 12.7053 23.2075 11.2019 21.9745 10.2738L21.898 10.2181C21.7833 10.1346 21.6877 10.2367 21.7642 10.3387C22.6436 11.3968 23.1119 12.4733 23.1119 14.0603C23.1119 16.0186 21.4966 17.6056 21.4966 19.4988C21.4966 21.7355 23.6759 22.3759 23.6759 24.2042C23.6759 26.0325 21.3436 27.4988 21.3436 29.4478C21.3436 31.2483 23.5516 33.2529 23.1693 35.3411C22.7296 35.4524 22.2804 35.5452 21.8216 35.6288C22.2326 33.0394 20.0724 31.174 20.0724 29.4756C20.0724 27.6381 22.4906 26.0046 22.4906 24.2042C22.4906 22.5151 20.7606 21.9582 20.5312 20.2227C20.5025 19.9907 20.3018 19.8144 20.0342 19.8515C19.6805 19.9165 19.2313 20.1392 18.524 20.1392C17.8166 20.1392 17.3674 19.9165 17.0138 19.8515C16.7461 19.8051 16.5454 19.9814 16.5167 20.2227C16.2873 21.9582 14.5573 22.5058 14.5573 24.2042C14.5573 25.9954 16.9755 27.6381 16.9755 29.4756C16.9755 31.174 14.8058 33.0394 15.2264 35.6288C14.7676 35.5452 14.3183 35.4524 13.8786 35.3411C13.4963 33.2622 15.7043 31.2575 15.7043 29.4478C15.7043 27.4988 13.3721 26.0325 13.3721 24.2042C13.3721 22.3666 15.5513 21.7355 15.5513 19.4988C15.5513 17.6056 13.9264 16.0186 13.9264 14.0603C13.9264 12.4733 14.3948 11.3968 15.2742 10.3387C15.3602 10.2367 15.2646 10.1346 15.1403 10.2181L15.0639 10.2738C13.8309 11.2019 12.9802 12.6961 12.9802 14.3666C12.9802 16.5012 14.3948 17.5777 14.3948 19.5081C14.3948 21.4385 12.0913 22.3202 12.0913 24.2042C12.0913 26.0882 14.3566 27.5916 14.3566 29.3364C14.3566 30.9327 12.1964 32.9559 12.4353 34.9142C11.9957 34.7657 11.5751 34.6079 11.1545 34.4223C11.1832 32.4826 13.1044 30.8492 13.1044 29.2158C13.1044 27.4153 10.9251 25.949 10.9251 24.1949C10.9251 22.4408 13.2669 21.4014 13.2669 19.5267C13.2669 17.652 12.1008 16.5847 12.1008 14.6729C12.1008 12.9652 12.7125 11.8422 13.7831 10.6079C13.5441 10.7285 13.3529 10.8585 13.1522 11.0348C12.0243 12 11.2979 13.5128 11.2979 14.9977C11.2979 17.0302 12.3111 17.949 12.3111 19.536C12.3111 21.123 9.92153 22.3759 9.92153 24.1949C9.92153 26.0046 11.9861 27.5452 11.9861 29.0766C11.9861 30.4501 10.2083 32.2784 10.1414 33.9582C9.77815 33.7819 9.4245 33.587 9.07084 33.3828C9.20466 31.8608 10.8869 30.645 10.8869 29.1137C10.8869 28.5476 10.6193 28.0835 10.3899 27.7123C11.0781 29.8283 8.51646 31.0812 8.28707 32.9002C7.81871 32.594 7.36947 32.2784 6.92979 31.935C7.13052 31.6009 7.43638 31.1833 7.79004 30.9513C7.62755 30.7657 7.46506 30.5708 7.31212 30.3666C6.90112 30.6079 6.52835 31.0626 6.29895 31.4246C5.92618 31.0998 5.56296 30.7657 5.20931 30.413C5.53429 30.0232 5.95485 29.42 6.56658 29.2622C6.42321 29.0302 6.28939 28.7981 6.16513 28.5568C5.45782 28.7425 4.97035 29.3921 4.60714 29.7819C4.28216 29.42 3.96674 29.0487 3.67999 28.6682C4.21525 28.3248 4.66449 27.471 5.63943 27.4339C5.72545 27.6288 5.80192 27.8237 5.8975 28.0186C6.00264 28.2413 6.15558 28.3248 6.45188 28.3248C7.35036 28.3248 8.75542 27.7587 9.82595 26.7193C9.12819 25.4849 8.91791 24.8538 8.91791 24.2135C8.91791 22.58 11.3075 21.2065 11.3075 19.6102C11.3075 18.0139 10.4855 17.1137 10.4855 15.3968C10.4855 13.8469 11.2023 12.5104 12.1486 11.3782C11.9192 11.5174 11.7089 11.6752 11.5178 11.8701C10.495 12.8724 9.81639 14.348 9.81639 15.703C9.81639 17.5313 10.5237 18.2831 10.5237 19.6381C10.5237 20.8817 7.7996 22.6172 8.10546 24.3248C7.15919 25.1694 6.02176 25.5406 5.0277 25.5406C5.11373 25.8933 5.21887 26.2459 5.32401 26.5893C4.20569 26.645 3.6991 27.5731 3.10649 27.8793C2.81975 27.4524 2.54256 27.0162 2.29404 26.5708C3.2881 26.4687 3.58441 25.2251 4.97991 25.3271C4.90344 25.0023 4.8461 24.6682 4.7983 24.3341C3.20208 24.232 2.83886 25.5406 1.78745 25.5963C1.56761 25.1322 1.35733 24.6589 1.17573 24.1763L4.67405 22.877L4.66449 22.4594C4.66449 22.2088 4.67405 21.9582 4.6836 21.7077C2.88665 21.6705 2.33227 23.1647 0.774279 23.0162C0.630905 22.5429 0.506648 22.051 0.401507 21.5592C2.37051 21.7912 3.07782 20.1856 4.85565 20.1949C4.93212 19.7309 5.03726 19.2854 5.17108 18.8399C3.03003 18.7471 2.27492 20.5568 0.181667 20.2227C0.124318 19.8051 0.0860846 19.3782 0.0669681 18.9513C2.50432 19.2111 3.41236 17.2715 5.62987 17.5128C5.84015 17.0023 6.07911 16.5012 6.3563 16.0186C3.57485 15.5452 2.63814 17.8005 0.0478516 17.4571C0.286808 7.76798 8.45912 0 18.5048 0C28.5506 0 36.7133 7.76798 36.9905 17.4478C34.4002 17.7912 33.4635 15.536 30.6821 16.0093C30.9592 16.4919 31.1982 16.9838 31.4085 17.5035C33.626 17.2715 34.5436 19.2111 36.9714 18.9513ZM10.5524 11.4153C9.18554 10.877 7.54152 10.9977 6.13646 11.8793C5.91662 10.6079 5.20931 9.47564 4.19613 8.79814C4.05276 8.70534 3.90939 8.78886 3.91894 8.94664C4.12923 11.6381 2.51388 13.9675 0.525764 16.0186C2.58079 16.6218 4.32039 14.051 6.98714 14.9513C7.93341 13.5684 9.14731 12.3712 10.5524 11.4153ZM18.5048 9.79118C16.7844 9.79118 15.3506 10.7378 14.9683 11.9536C14.9396 12.0464 14.9778 12.1114 15.0925 12.0557C15.3984 11.9165 15.7521 11.8608 16.1344 11.8608C16.8321 11.8608 17.4534 12.1114 17.8166 12.5476C17.9791 13.0673 17.9887 13.8097 17.8071 14.2459C17.5203 14.181 17.4152 13.9675 17.1285 13.9675C16.8417 13.9675 16.6314 14.1624 16.1535 14.1624C15.6756 14.1624 15.6182 13.9397 15.3028 13.9397C14.9301 13.9397 14.8631 14.3109 14.8631 14.7285C14.8631 16.5847 16.6219 19.1462 18.4953 19.1462C20.3687 19.1462 22.1274 16.594 22.1274 14.7285C22.1274 14.3109 22.0414 13.9582 21.6495 13.9026C21.4583 14.0418 21.2767 14.1531 20.8371 14.1531C20.3591 14.1531 20.2253 13.9582 19.9481 13.9582C19.604 13.9582 19.6423 14.6543 19.2408 14.6914C18.9732 14.0603 18.9636 13.2622 19.1835 12.5383C19.5467 12.1021 20.168 11.8515 20.8657 11.8515C21.2481 11.8515 21.6017 11.9165 21.9076 12.0464C22.0223 12.0928 22.0605 12.0371 22.0318 11.9443C21.6591 10.7285 20.2158 9.79118 18.5048 9.79118ZM21.2385 12.4548C20.8275 12.4548 20.34 12.5754 20.0437 12.9095C20.015 13.0023 20.015 13.1322 20.0533 13.2158C20.7988 12.9652 21.4583 12.9559 21.7738 13.2993C21.9458 13.1508 21.9936 13.0116 21.9936 12.8631C21.9936 12.6218 21.7451 12.4548 21.2385 12.4548ZM15.2264 13.2993C15.5896 12.9466 16.3447 12.9652 17.138 13.2436C17.1762 12.8631 16.4689 12.4455 15.7712 12.4455C15.2646 12.4455 15.0065 12.6125 15.0065 12.8538C15.0065 13.0209 15.0543 13.1508 15.2264 13.2993ZM27.069 7.01624C25.7118 7.10905 24.5361 7.5638 23.5803 8.31554C23.9817 7.20186 24.4979 6.22738 25.1478 5.28074C23.4178 5.45708 21.9745 6.0696 20.9231 7.11833L20.1011 5.02088L21.9267 3.45244L19.4798 3.28538L18.5048 1.07657L17.5299 3.28538L15.083 3.45244L16.9086 5.02088L16.0866 7.11833C15.0352 6.0696 13.5919 5.45708 11.8619 5.28074C12.5118 6.22738 13.028 7.20186 13.4294 8.31554C12.4736 7.5638 11.2979 7.10905 9.94064 7.01624C10.7531 8.02784 11.4795 9.11369 12.0052 10.2738C12.0626 10.4037 12.1964 10.4501 12.3398 10.3759C14.1941 9.47564 16.2873 8.97448 18.5048 8.97448C20.7224 8.97448 22.8156 9.47564 24.6699 10.3759C24.8133 10.4408 24.9375 10.4037 24.9949 10.2738C25.5302 9.11369 26.247 8.02784 27.069 7.01624ZM30.0225 14.9513C32.6797 14.0603 34.4289 16.6218 36.4839 16.0186C34.4958 13.9675 32.8709 11.6288 33.0907 8.94664C33.1003 8.78886 32.9569 8.69606 32.8135 8.79814C31.8004 9.47564 31.0931 10.6079 30.8732 11.8793C29.4682 10.9977 27.8146 10.877 26.4573 11.4153C27.8528 12.3712 29.0667 13.5684 30.0225 14.9513Z" fill="#00654F"/>
<path d="M32.4311 33.5406H31.4944V36H31.1599V33.5406H30.2231V33.2344H32.4407V33.5406H32.4311ZM32.8325 33.2344H33.3296L34.295 35.3968H34.3045L35.2795 33.2344H35.7669V36H35.4228V33.6798H35.4133L34.3905 36H34.1898L33.1671 33.6798V36H32.8325V33.2344Z" fill="#00654F"/>
</g>
<defs>
<clipPath id="clip0_315_345">
<rect width="37" height="36" fill="white"/>
</clipPath>
</defs>
</svg>
