<svg width="36" height="36" viewBox="0 0 36 36" fill="none" xmlns="http://www.w3.org/2000/svg">
<path d="M10.2538 9.55526C10.19 9.24636 10.1719 8.91563 10.1415 8.60153C10.0285 7.43403 10.0198 6.45986 10.1103 5.291C10.1544 4.72243 10.437 1.8255 10.7663 1.57191C10.8811 1.48354 11.0551 1.44386 11.1971 1.46792C11.5103 1.52103 11.8725 1.79942 12.1408 1.96663C13.6492 2.9068 15.7591 4.47197 16.8403 5.87088C17.0534 5.60022 17.0907 5.51116 17.4106 5.40114C17.8733 5.50064 17.9499 5.71122 18.259 6.07687C18.4159 5.94777 18.6292 5.67873 18.7786 5.51879C19.0724 5.20952 19.3743 4.9078 19.6837 4.6139C20.1434 4.18402 20.6247 3.77733 21.1256 3.3954C21.6508 2.98851 23.7716 1.42159 24.3191 1.45512C24.4886 1.4655 24.5999 1.63408 24.6633 1.77389C24.7856 2.044 24.8172 2.3725 24.8699 2.66194C25.1507 4.23873 25.2834 5.83795 25.2662 7.43905C25.261 7.87705 25.1529 8.74047 25.1578 9.20758C25.2213 9.26342 25.3462 9.26683 25.4318 9.29562C25.6146 9.35529 25.8025 9.44642 25.967 9.54643C29.7731 11.8602 32.4459 15.7656 33.1647 20.1386C33.2059 20.3893 33.2613 20.6446 33.2425 20.8868C33.228 21.0743 33.1759 21.1687 33.035 21.2795L33.0525 21.3247C33.3724 21.3168 34.3682 21.2885 34.6235 21.4079C34.9382 21.5552 34.9672 23.0646 34.64 23.304C34.3591 23.4895 33.5336 23.4206 33.1062 23.4833C33.8979 23.62 34.7178 23.2249 34.6469 24.3552C34.6209 24.7671 34.7453 25.0975 34.4803 25.4753L34.4514 25.4912C34.0975 25.682 33.6869 25.5658 33.2994 25.6271C33.289 25.653 33.2798 25.6757 33.2717 25.6954C33.3299 26.1441 34.9054 25.4453 34.8948 26.3571C34.8902 26.7592 35.1177 27.8821 34.4371 27.8912C33.9691 27.8972 33.422 27.9451 32.9605 27.9169C33.0691 28.3558 33.0472 28.9107 33.1977 29.2707C33.5038 30.0033 34.2139 30.8135 34.3924 31.5905C34.3014 31.8124 34.2721 31.8595 34.1234 32.045C34.1173 32.434 34.1567 34.2164 34.0659 34.4382C33.8839 34.5918 33.347 34.5877 33.2018 34.3709C33.081 34.1907 32.974 33.9928 32.8647 33.8037C32.8649 33.9751 32.897 34.2998 32.7691 34.4236C32.5774 34.6092 32.2105 34.5981 32.0239 34.4085C31.9476 34.3313 31.9146 34.1778 31.8892 34.0719C31.5363 34.6296 30.7924 34.7055 30.2623 34.348C30.2048 34.3092 30.0136 34.1745 29.9575 34.1632C29.9417 34.2812 29.9397 34.3611 29.8629 34.4513C29.6999 34.561 29.2164 34.5076 28.999 34.5227C28.6606 34.5466 28.3087 34.5761 27.9759 34.5003C27.8099 34.4632 27.5346 34.2209 27.4153 34.2078C27.3787 34.2789 27.2943 34.47 27.2066 34.4844C26.901 34.5338 26.2248 34.5633 25.9367 34.4813C25.8238 34.4493 25.7061 34.1266 25.6609 34.0162C25.6502 34.1629 25.642 34.316 25.6174 34.4607C25.3228 34.5419 24.8305 34.6825 24.7361 34.2625C24.6705 33.9706 24.7952 33.0035 24.6576 32.785C24.5768 32.7661 24.6085 32.7671 24.5191 32.8082C24.2922 33.0756 24.5665 34.0971 24.3787 34.4297C24.3087 34.5537 23.7735 34.5953 23.6483 34.4846C23.3388 34.2108 23.6707 33.0154 23.4592 32.7779L23.3934 32.764C23.3298 32.8056 23.2877 32.844 23.2794 32.9246C23.2344 33.3661 23.2984 34.1201 22.8252 34.3815C22.1959 34.7292 21.6877 34.5724 21.2388 34.1065C21.2068 34.4087 21.1898 34.5156 20.852 34.5451C20.557 34.5711 20.3514 34.4703 20.2044 34.2139C20.1523 34.1241 20.0645 33.9134 19.9932 33.8556L19.9529 33.8531C19.8595 33.9759 20.1805 34.4682 19.568 34.5484C19.1271 34.6061 19.0321 34.2345 19.0909 33.8493C19.0874 33.3719 19.083 32.8944 19.0837 32.4171C19.0839 32.3017 19.0779 32.0022 19.2206 31.9593C19.937 31.7433 20.0449 32.0907 20.3118 32.6153C20.3222 32.3859 20.3214 32.2644 20.3694 32.0375C20.4494 32.0508 20.5328 32.0551 20.597 32.0995C20.7299 32.1078 20.8344 32.1144 20.9674 32.1098C21.029 32.0155 21.0553 32.0276 21.1742 31.9752C21.4642 31.9172 21.9734 31.7806 22.0309 32.2344C22.0675 32.5235 21.9927 33.4256 22.1069 33.6625L22.1552 33.6976C22.4527 33.6492 22.3491 33.0988 22.3766 32.8805C22.405 32.6549 22.2269 31.9891 22.5332 31.951C23.3309 31.8517 24.1354 31.9122 24.9375 31.9034C25.1555 31.9011 25.536 31.8789 25.7216 31.8993C25.8973 31.9195 26.0681 31.9709 26.2255 32.0513C26.2804 32.0695 26.328 32.0859 26.3816 32.1073C26.6531 31.923 27.0609 31.7312 27.3126 32.0796C27.3444 32.1234 27.3759 32.2495 27.3986 32.3105L27.4433 32.3188C27.5791 32.1645 27.8814 31.9966 28.0825 31.9427C28.4661 31.8396 28.7671 31.9082 29.15 31.9321C29.3511 31.9445 29.6163 31.8464 29.8062 31.9611C29.8977 32.0166 29.9056 32.0771 29.9331 32.1749L29.9618 32.2987C30.1779 32.3022 30.7408 31.6321 30.8809 31.5033C30.9525 31.4375 31.3967 31.412 31.5299 31.4004C30.5559 31.0684 29.2047 30.84 28.1839 30.6504C21.4188 29.4555 14.4938 29.456 7.72894 30.6524C6.06371 30.9524 4.41854 31.353 2.80266 31.8522C2.7016 31.8829 2.55061 31.9208 2.45516 31.9553C1.6054 32.2616 1.40719 31.713 1.77891 31.0256C2.07981 30.4689 2.50305 29.8467 2.77673 29.2684C2.86401 29.0839 2.92619 28.2706 2.95777 28.019C1.5748 27.8188 0.927374 26.944 1.0618 25.6339C1.12964 24.9725 1.46406 25.0218 1.98685 25.0068C1.82067 24.8172 1.59122 24.6303 1.45977 24.4264C0.773758 23.3624 1.16322 21.7133 2.47412 21.3408C2.56246 21.3157 2.8879 21.2463 2.93481 21.2132C2.8729 21.1353 2.69672 20.9175 2.69573 20.8261C2.69323 20.5988 2.77034 20.2031 2.80779 19.9804C3.15335 17.9311 3.92715 15.9761 5.07953 14.2408C5.96979 12.9022 8.6507 9.87984 10.2538 9.55526ZM29.7937 21.3061L30.0177 21.4708C30.1804 21.8962 30.0963 22.5066 30.1039 22.969C30.1194 23.9227 30.078 24.8881 30.1275 25.8406C30.4156 25.8461 30.6805 25.8489 30.9683 25.8403C30.934 25.5666 30.9462 25.2338 30.9485 24.9525C30.9571 23.9092 30.9287 22.8616 30.9703 21.8197C30.9787 21.61 31.07 21.4726 31.2307 21.3457C31.1315 21.3193 30.7481 21.3168 30.6098 21.3056C30.3378 21.3133 30.0658 21.3135 29.7937 21.3061ZM20.9951 14.4344C21.8635 14.716 22.2407 15.4388 22.2417 16.302C22.2233 16.5316 22.2184 16.762 22.2268 16.9922C22.2406 16.9205 22.2818 16.7354 22.288 16.6717C22.346 16.3117 22.416 15.9386 22.4935 15.5803C22.6785 14.7244 22.5862 14.312 23.6796 14.396C24.1349 14.4311 24.828 14.266 25.2207 14.5845C25.3661 14.8642 25.4778 15.623 25.5429 15.9665L25.8983 17.8409C26.0542 18.6553 26.2166 19.4645 26.3684 20.2839C26.5387 21.2022 25.624 20.978 25.0364 21.0072C24.1863 21.0493 24.1034 20.9745 23.954 20.1536C23.918 20.4853 23.9268 20.7043 23.6445 20.9294C23.6268 20.9435 23.6089 20.9574 23.5909 20.9711C23.0504 21.0385 22.4666 20.9812 21.9222 20.9888C21.4106 20.9959 20.9007 21.0028 20.3893 20.9831C20.0736 20.9747 19.7162 21.1317 19.3827 21.0874C18.947 21.0297 18.6025 20.8834 18.3473 20.5233C18.2593 20.7397 18.2129 20.8372 18.0009 20.967C16.8955 21.0609 15.6748 20.9667 14.56 20.973C13.9124 20.9693 13.2765 21.0597 12.636 20.9281C12.4693 20.9192 12.168 21.0251 12.0175 21.0098C11.1492 20.921 10.326 21.0061 9.45775 20.9882C9.06564 20.9801 8.9672 20.8183 8.95464 20.4592C8.93616 19.9313 8.94051 19.4024 8.93962 18.8741C8.94676 17.8183 8.9358 16.7626 8.90672 15.7072C8.70674 16.0409 8.47978 16.3354 8.26828 16.6583C7.9532 17.142 7.68058 17.6516 7.45342 18.1816C7.18919 18.8056 6.9767 19.45 6.81808 20.1083C6.73767 20.4293 6.70029 20.7823 6.5883 21.0884C6.54424 21.2089 6.44143 21.2709 6.33376 21.3353C6.66417 21.3554 6.99513 21.3655 7.32618 21.3655C7.72062 21.3634 8.4494 21.2367 8.54964 21.7379C8.68144 22.3966 8.76849 23.0478 8.93331 23.702C8.97343 23.0585 8.94437 22.4167 8.98828 21.7765C9.03849 21.3248 9.3824 21.3278 9.7399 21.3217C10.1131 21.3153 10.471 21.312 10.8378 21.3392C11.3929 21.3805 11.2564 22.3787 11.2583 22.8069L11.2607 24.5713C11.2611 24.8871 11.3067 25.5592 11.2693 25.8358C11.5615 25.8517 11.8124 25.8522 12.1056 25.8492C12.0578 25.0608 12.0983 24.2277 12.0985 23.4368C12.0987 22.8941 12.0852 22.3467 12.1153 21.8056C12.1258 21.6522 12.1995 21.5342 12.3101 21.4326C13.0596 21.1973 14.2174 21.4942 15.0198 21.3494C15.3523 21.2894 15.8859 21.3808 16.2395 21.3464C17.092 21.3458 18.7538 21.1873 19.4876 21.5589C19.8491 21.7387 20.1224 22.0552 20.2457 22.4372C20.3558 22.7766 20.3733 23.3208 20.3756 23.6811C20.5417 23.2227 20.6049 22.706 20.6919 22.2269C20.7308 22.0121 20.7533 21.7593 20.8511 21.5619C20.8874 21.4887 20.945 21.4404 21.0199 21.4081C21.2471 21.31 23.0036 21.305 23.2168 21.403C23.36 21.4688 23.4432 21.6779 23.486 21.819C23.5633 22.074 23.5918 22.356 23.6411 22.6183C23.7142 23.0081 23.8009 23.3952 23.8768 23.7844C23.9038 23.6766 23.9112 23.5439 23.92 23.4322C23.9173 23.405 23.9119 23.2344 23.9166 23.1922C23.9559 22.8351 23.786 21.726 24.0647 21.4848C24.354 21.3001 24.8744 21.3413 25.1948 21.3456C26.227 21.3594 27.1301 21.1369 27.8254 22.056C27.8468 21.754 27.8318 21.692 27.994 21.4355C28.4285 21.2658 29.1253 21.3165 29.6158 21.3194L29.376 21.1757C29.2006 20.6401 29.088 19.9064 28.9016 19.2918C28.3222 17.3787 27.1087 15.4765 25.5922 14.1653C25.2587 13.8769 24.9122 13.6038 24.5536 13.3469C24.2762 13.1522 23.9562 12.9724 23.7004 12.7494L23.6769 12.7288C23.6729 12.735 23.669 12.7411 23.665 12.7473L23.6445 12.7776C23.09 13.6128 21.9055 14.1175 20.9951 14.4344ZM24.1475 12.524C24.4719 12.7329 24.8806 12.9867 25.181 13.2179C27.4799 14.981 29.0681 17.5006 29.659 20.3224C29.6961 20.4934 29.7215 20.6854 29.7597 20.851C30.1883 20.8453 30.6205 20.8407 31.0489 20.84C31.3039 20.8396 31.698 20.8083 31.9392 20.8332C32.0882 20.6419 31.5203 18.6142 31.4318 18.3367C30.5229 15.5459 28.757 13.1067 26.3811 11.3604C25.9748 11.0639 25.5083 10.7372 25.0646 10.5095C24.9521 10.9864 24.7378 11.439 24.5093 11.8724C24.4015 12.0767 24.2368 12.3194 24.1475 12.524ZM5.15509 21.8748C5.28185 21.1698 5.41332 20.8946 6.20191 20.8153C6.36328 19.9505 6.5537 19.0997 6.88843 18.2725C7.5119 16.7317 8.52249 15.231 9.73345 14.0841C10.1925 13.6493 10.8877 13.1466 11.4035 12.7871C11.3408 12.7153 11.2907 12.6636 11.2363 12.585C10.8613 12.0417 10.5783 11.4622 10.3224 10.8568C10.3019 10.8463 10.2814 10.8359 10.2609 10.8255C10.1441 10.9701 9.65507 11.2878 9.48206 11.4164C7.03215 13.2371 5.20871 15.8409 4.37957 18.7665C4.1959 19.4158 3.99381 20.2502 3.95702 20.9297C4.48146 21.0711 4.87007 21.4284 5.15509 21.8748ZM23.9706 15.7778C23.9588 15.909 23.927 16.1702 23.9266 16.2915C23.956 16.2492 23.9737 16.2484 24.0223 16.2282C24.0295 16.0873 23.9942 15.9195 23.9706 15.7778ZM22.1383 27.2521C22.1375 27.1112 22.1263 27.0595 22.0987 26.9203C22.0883 27.0043 22.045 27.3103 22.0498 27.3769C21.9646 27.7492 21.9497 27.8398 21.5561 27.9121L21.4961 27.9108L21.2686 27.9134C20.9179 27.9177 20.567 27.9159 20.2163 27.9083L20.0371 27.8836C19.8397 27.8161 19.7792 27.6562 19.6949 27.4843C19.4383 27.7089 19.1981 27.811 18.8687 27.8887L18.8904 27.9232C19.0881 27.9484 19.315 27.9255 19.4877 27.9547L19.762 27.963C19.9166 27.9923 20.7019 27.9892 20.8767 27.9804C21.0091 27.9852 21.3045 28.0041 21.4261 27.9993L21.7642 28.0256C22.1103 28.0825 22.4201 28.0694 22.7497 28.1085C23.4398 28.1897 24.1426 28.2355 24.8295 28.3172C25.7219 28.4178 26.6112 28.5421 27.4967 28.6898C28.1923 28.8061 28.8856 28.9465 29.5794 29.0571C29.3974 28.6329 29.2326 28.3558 29.3275 27.8952C29.0539 27.932 28.445 27.9338 28.1684 27.872C28.1229 27.8619 27.9917 27.7808 27.9449 27.7513C27.862 27.5534 27.8394 27.4374 27.797 27.2279C27.6154 27.483 27.1954 27.8118 26.8738 27.8435C25.5177 27.9782 24.1205 27.8882 22.7557 27.925C22.2903 27.9376 22.2075 27.6444 22.1383 27.2521ZM13.4594 28.081L13.5958 28.0825C13.6779 28.0765 13.7839 28.0785 13.8512 28.0399L13.8339 27.99C13.6316 27.9585 13.531 27.9159 13.3403 27.8461C13.0851 27.7087 12.9334 27.6282 12.707 27.4492C12.5557 27.8864 12.3979 27.9136 11.9481 27.9247C10.6011 27.958 9.25594 27.8647 7.90853 27.8982C7.67537 27.904 7.36362 27.8602 7.31578 27.6141C7.24429 27.3787 7.22179 27.1493 7.1883 26.907C7.12146 27.3116 7.20544 27.6474 6.79477 27.8695C6.55868 27.9973 6.71524 28.0732 6.68135 28.2608C6.63661 28.5083 6.49713 28.827 6.37627 29.0534C6.65753 29.0433 7.28133 28.9087 7.60093 28.8514C8.30781 28.7178 9.01782 28.6011 9.73032 28.501C10.8165 28.3432 11.8984 28.2277 12.9917 28.1405C13.1466 28.1282 13.3063 28.1067 13.4594 28.081ZM5.36674 23.8522C5.22882 24.1694 4.90378 24.1399 4.60457 24.1375C4.83737 24.3633 5.07717 24.6181 5.24557 24.8956C5.29746 24.6635 5.43043 24.0935 5.43811 23.88C5.47492 23.6288 5.54135 23.3555 5.58417 23.0945C5.71238 22.6008 5.74434 22.0498 5.88752 21.5581C5.90242 21.5069 5.98596 21.416 6.02565 21.373L6.00788 21.3442C5.57601 21.3632 5.75298 21.9746 5.48748 22.2025C5.42435 22.2567 5.36646 22.3015 5.29688 22.3475C5.33898 22.6025 5.38134 22.8465 5.40422 23.1043C5.42166 23.3368 5.44167 23.6281 5.36674 23.8522ZM16.7352 18.9123C17.0974 18.9492 17.522 18.9321 17.8919 18.9426C17.889 18.8369 17.8916 18.6968 17.8651 18.5989L17.8474 18.5834C17.48 18.8043 16.7825 18.5508 16.6484 18.7972L16.6498 18.8844C16.6987 18.9208 16.6715 18.9107 16.7352 18.9123ZM32.1825 31.9024C32.8146 31.8746 32.7116 31.8681 33.0808 32.3312C33.1283 32.397 33.1339 32.4303 33.1998 32.4507C33.2333 32.3614 33.2102 32.2556 33.2211 32.1464C33.2755 32.0614 33.3218 31.9848 33.3879 31.9074C32.7894 31.7604 32.2151 31.5454 31.6123 31.4145C31.7018 31.6122 31.7097 31.7125 31.6309 31.9203C31.6143 31.9634 31.597 32.0065 31.5792 32.0491C31.6583 32.1058 31.8055 32.2341 31.8856 32.2361C31.9929 32.1439 31.9527 32.0662 32.1159 31.9485L32.1363 31.9336C32.1515 31.9233 32.167 31.9127 32.1825 31.9024ZM16.6593 16.498L16.6784 16.5592C16.8617 16.6117 17.5186 16.5665 17.8593 16.6305L17.8633 16.5385C17.7376 16.4451 16.8558 16.4788 16.6593 16.498ZM30.9731 33.9323C31.4638 33.7775 31.5599 33.3013 31.4353 32.8424C31.3654 32.5853 31.1534 32.4292 30.8793 32.4219C30.186 32.6486 30.2 33.8312 30.9731 33.9323ZM10.7217 16.3123L10.6772 16.7938C10.6925 16.7435 10.7273 16.6787 10.7516 16.6295C10.7557 16.4853 10.7513 16.454 10.7217 16.3123ZM28.2729 33.6681C28.5604 33.7034 28.7481 33.6812 29.0305 33.6492C29.0221 33.3655 29.0163 33.0925 29.0331 32.8079C28.6138 32.7887 28.3095 32.6057 28.0934 33.0424C28.0527 33.2695 28.0563 33.5254 28.2729 33.6681ZM12.9655 16.2567C12.947 16.4055 12.9303 16.5545 12.9153 16.7037L12.9957 16.7379C12.9958 16.5464 12.9909 16.4462 12.9655 16.2567ZM16.01 27.1992C15.7698 27.5829 15.375 27.8045 14.9497 27.9358L14.9752 27.9719C15.1572 27.9915 15.3613 27.9847 15.546 27.9834C15.7181 27.9779 15.8903 27.9774 16.0624 27.9817C16.1377 27.9653 16.2836 27.9497 16.3636 27.9398L16.3888 27.8975C16.0575 27.7712 16.0364 27.5098 16.01 27.1992ZM11.7835 12.9959C11.5934 13.2684 11.0434 13.5888 10.7671 13.8289C10.5473 14.0199 10.3117 14.2388 10.0895 14.4204C10.7174 14.3759 11.2896 14.4054 11.9115 14.4614C12.0196 14.4711 12.2325 14.4222 12.3503 14.4134C12.5314 14.3804 13.7645 14.3891 14.0634 14.3837C13.4265 14.1394 12.9311 13.9396 12.379 13.5142C12.2391 13.4064 11.9072 13.0669 11.7835 12.9959Z" fill="#FEFCF9"/>
<path d="M21.1741 31.9751C21.4641 31.9171 21.9734 31.7805 22.0308 32.2342C22.0674 32.5234 21.9926 33.4254 22.1068 33.6624L22.1552 33.6974C22.4526 33.649 22.349 33.0987 22.3765 32.8804C22.4049 32.6547 22.2268 31.9889 22.5331 31.9509C23.3309 31.8515 24.1353 31.9121 24.9374 31.9032C25.1555 31.901 25.536 31.8788 25.7215 31.8992C25.8972 31.9194 26.0681 31.9708 26.2254 32.0512C26.0828 32.056 25.957 32.0487 25.8365 31.9647C25.7381 31.968 25.6064 32.0013 25.541 31.9741L25.5324 31.9501L25.5474 31.9221C25.5004 31.9118 25.4737 31.9171 25.4256 31.9191C25.2593 32.0729 22.8891 31.8546 22.5295 32.0154C22.7948 32.0981 24.4405 32.0419 24.8407 32.0734C24.8661 32.1495 24.8032 32.1437 24.8331 32.2078C24.8776 32.3028 24.8884 32.3951 24.8177 32.4813C24.7925 32.4778 24.7503 32.4737 24.7273 32.4679L24.677 32.4694C24.5539 32.5516 24.3926 32.4944 24.2698 32.5693C24.168 32.9318 24.3891 34.1232 24.1612 34.2901C23.9999 34.3037 23.8688 34.3007 23.708 34.2979V32.5332C23.5717 32.5307 23.2714 32.5504 23.1874 32.4526C23.1015 32.3525 23.1467 32.2037 23.0879 32.118C22.9187 32.323 23.1052 33.5588 22.9504 33.8452C22.8494 34.0322 22.7661 34.1747 22.5467 34.2392L22.504 34.2233C21.0724 34.4943 21.3487 33.0737 21.3653 32.1165C21.3175 32.0449 21.3486 32.0709 21.2673 32.0368C21.1639 32.051 21.1082 32.0668 21.0111 32.1069C21.0093 32.4531 21.0094 32.7994 21.0114 33.1458C21.0124 33.2903 21.0233 33.6238 21.0021 33.7524L20.9802 33.7736C20.9625 33.223 20.9946 32.6613 20.9673 32.1097C21.0289 32.0154 21.0553 32.0275 21.1741 31.9751Z" fill="#F9F3E1"/>
<path d="M21.365 32.1167C21.462 32.0895 21.6463 32.1051 21.7553 32.1094C21.7544 32.5514 21.5648 34.4033 22.4376 33.8134C22.6529 33.6677 22.5672 32.4097 22.5933 32.1034L22.9806 32.1069C22.9818 32.5925 23.074 33.678 22.7698 34.0325C22.7164 34.0945 22.5423 34.1842 22.5037 34.2235C21.0721 34.4946 21.3484 33.074 21.365 32.1167Z" fill="#254623"/>
<path d="M23.1875 32.1079C23.7113 32.1102 24.2426 32.1079 24.7656 32.1157C24.7709 32.2191 24.8004 32.3895 24.727 32.4682L24.6767 32.4697C24.5047 32.4649 24.3519 32.4669 24.1808 32.4709C24.1819 33.0609 24.1797 33.6505 24.1744 34.2404C24.043 34.2392 23.9049 34.2404 23.7743 34.2341C23.7615 33.6457 23.779 33.0528 23.7644 32.4699C23.5959 32.4674 23.3609 32.4709 23.1979 32.4583C23.1938 32.3446 23.1869 32.2206 23.1875 32.1079Z" fill="#254623"/>
<path d="M19.0907 33.8492C19.0873 33.3717 19.0829 32.8943 19.0836 32.417C19.0838 32.3016 19.0778 32.0021 19.2205 31.9592C19.9369 31.7432 20.0448 32.0906 20.3117 32.6152C20.3221 32.3858 20.3213 32.2642 20.3693 32.0374C20.4493 32.0507 20.5327 32.055 20.5968 32.0994C20.7298 32.1077 20.8343 32.1142 20.9672 32.1097C20.9945 32.6613 20.9624 33.223 20.9801 33.7736L20.9725 34.2397C20.8339 34.24 20.6931 34.242 20.5547 34.2405C20.254 33.7335 19.9623 33.2212 19.6798 32.7042C19.6962 33.2278 19.7105 33.7163 19.6999 34.24C19.5924 34.245 19.4399 34.2679 19.3576 34.2135C19.3105 34.1459 19.32 34.0847 19.3181 33.9997C19.2127 33.909 19.3366 32.1717 19.2388 32.0621L19.1969 32.0706C19.1289 32.1982 19.1808 32.1629 19.1821 32.2731C19.1723 32.3921 19.1618 32.5227 19.1511 32.6409C19.126 32.9187 19.2357 33.6533 19.0907 33.8492Z" fill="#254623"/>
<path d="M19.0907 33.8492C19.0873 33.3717 19.0829 32.8943 19.0836 32.417C19.0838 32.3016 19.0778 32.0021 19.2205 31.9592C19.9369 31.7432 20.0448 32.0906 20.3117 32.6152C20.3221 32.3858 20.3213 32.2642 20.3693 32.0374C20.4493 32.0507 20.5327 32.055 20.5968 32.0994C20.5811 32.5416 20.576 33.193 20.6189 33.6253C20.3553 33.0669 20.0857 32.6416 19.7637 32.1132L19.3434 32.0958C19.3034 32.5398 19.3317 33.0087 19.3262 33.4557C19.3245 33.5956 19.3347 33.8696 19.3181 33.9997C19.2127 33.909 19.3366 32.1717 19.2388 32.0621L19.1969 32.0706C19.1289 32.1982 19.1808 32.1629 19.1821 32.2731C19.1723 32.3921 19.1618 32.5227 19.1511 32.6409C19.126 32.9187 19.2357 33.6533 19.0907 33.8492Z" fill="#F9F3E1"/>
<path d="M29.2934 32.1172C29.3979 32.0945 29.5583 32.1106 29.6702 32.1167L29.675 34.0241C29.6753 34.1106 29.6847 34.1446 29.6397 34.2134C29.5512 34.2661 29.4081 34.2442 29.296 34.2391C29.2733 33.565 29.2914 32.7984 29.2934 32.1172Z" fill="#254623"/>
<path d="M27.4434 32.319C27.5791 32.1647 27.8814 31.9968 28.0825 31.9429C28.4662 31.8398 28.7672 31.9083 29.1501 31.9323C29.3512 31.9446 29.6163 31.8466 29.8062 31.9613C29.8978 32.0167 29.9056 32.0772 29.9331 32.175C29.8701 32.1128 29.8617 32.1055 29.7742 32.0941C29.598 32.2149 29.7854 33.7124 29.6751 34.0242L29.6702 32.1168C29.5584 32.1108 29.3979 32.0946 29.2934 32.1173L29.2116 32.0649L29.2215 32.0518C29.011 31.9484 28.3741 31.895 28.1494 31.9837C27.9602 32.0586 27.6686 32.2981 27.4434 32.319Z" fill="#F6F0D4"/>
<path d="M30.6099 21.3054C30.8242 21.2729 31.0787 21.3012 31.2897 21.2959C31.7659 21.2839 32.5866 21.3432 33.035 21.2793L33.0526 21.3245C32.9677 21.3571 31.3395 21.3724 31.2307 21.3455C31.1316 21.3192 30.7482 21.3166 30.6099 21.3054Z" fill="#F9F3E1"/>
<path d="M11.0962 1.91846C12.8844 2.93023 14.704 4.2674 16.1177 5.75419C16.3308 5.97833 16.6348 6.30392 16.806 6.55007C16.0214 8.15666 15.2565 9.91068 15.4196 11.7374C15.3441 11.7924 15.3774 11.7835 15.29 11.7875L15.188 11.7226C14.7158 10.9658 14.0578 9.14409 13.8079 8.23804L13.7405 8.30908L13.748 8.33084C13.8057 8.50416 13.8463 8.69318 13.8912 8.87089C14.3497 10.6839 15.0358 12.5263 16.2942 13.9486C13.0914 14.5029 11.1636 12.2964 10.7232 9.37033C10.3779 7.07606 10.5212 4.16971 11.0962 1.91846Z" fill="#254623"/>
<path d="M13.7409 8.30941C13.6941 8.11918 13.5803 7.72225 13.6051 7.53809L13.5898 7.62123L13.663 7.62602L13.6674 7.63905L13.5904 7.65829L13.6755 7.66509L13.5916 7.68443L13.6837 7.69361C13.72 7.88044 13.7764 8.06412 13.8083 8.23837L13.7409 8.30941Z" fill="#95AA8B"/>
<path d="M18.4287 6.6814C18.6092 6.41495 18.8938 6.09642 19.1156 5.8592C20.3275 4.56299 21.7697 3.45196 23.2687 2.49963C23.5343 2.33087 23.9447 2.06685 24.2183 1.93359C24.4135 2.70254 24.552 3.59936 24.639 4.41798C24.983 7.6542 25.0317 12.8939 21.0461 13.8986C20.7159 13.9819 20.0466 14.1154 19.7142 14.0002C19.6586 13.973 19.6471 13.9099 19.6334 13.8588C19.6735 13.6852 20.0104 13.3862 20.1408 13.1629C20.6489 12.2927 20.6808 11.4044 20.4409 10.4498C20.3706 10.1702 20.2615 9.89183 20.1923 9.62788C20.3061 9.31956 20.7304 8.19841 20.8817 7.95635L20.8385 7.8486C20.6778 8.15752 20.1784 9.11165 20.0938 9.4031C19.7107 8.55778 19.0351 7.39262 18.4287 6.6814Z" fill="#4CAF34"/>
<path d="M20.8384 7.84847C20.929 7.65678 21.0735 7.39956 21.1836 7.21484C21.098 7.49521 21.017 7.69157 20.8816 7.95622L20.8384 7.84847Z" fill="#B1F39D"/>
<path d="M29.7419 28.2034C30.6757 28.215 31.6268 28.2059 32.5619 28.2052C32.5764 28.4573 32.6097 28.994 32.6791 29.2174C32.8548 29.7828 33.3193 30.4963 33.6269 31.0244C33.7352 31.21 33.8331 31.396 33.9338 31.5856C33.3572 31.4255 32.7846 31.2392 32.2035 31.0801C31.126 30.7859 30.0379 30.5313 28.9416 30.3168C21.3525 28.871 13.5486 28.9446 5.98877 30.5333C4.65087 30.8298 3.32642 31.183 2.01904 31.5919C2.41419 30.8848 2.97074 30.0319 3.27077 29.2917C3.33674 29.1289 3.39202 28.4227 3.4137 28.2021C4.32916 28.2223 5.3023 28.2069 6.22206 28.2069C6.03306 28.7769 5.70199 29.2698 5.37924 29.7727C12.0398 28.1802 20.0964 28.06 26.8691 29.0721C27.8807 29.2232 29.6303 29.5118 30.5855 29.7798C30.2341 29.2179 29.958 28.8294 29.7419 28.2034Z" fill="#254623"/>
<path d="M17.4382 5.87451C17.7734 6.21205 18.096 6.62313 18.3859 7.02565C19.6262 8.74811 21.3507 11.649 19.5063 13.5524C19.3051 13.76 19.0112 13.9581 18.7666 14.1132C18.2649 13.876 17.9463 12.9091 17.806 12.3995C17.6269 12.1984 17.6316 11.3713 17.5228 11.2372C17.5171 11.4912 17.6145 11.8166 17.56 12.0444C17.6227 12.5363 17.802 13.1553 17.9872 13.6201C18.0717 13.8321 18.208 14.0778 18.2844 14.2799C17.8562 14.2747 17.6328 14.2311 17.2409 14.0438C15.0993 13.0206 15.4801 10.4245 16.1463 8.60111C16.4412 7.79406 16.955 6.6054 17.4382 5.87451Z" fill="#FEDE01"/>
<path d="M17.4122 10.7476C17.4112 10.5966 17.4065 10.4615 17.4289 10.3109L17.4609 10.2959C17.4962 10.7964 17.6388 11.4056 17.7114 11.9118C17.7328 12.0614 17.7901 12.2601 17.8058 12.3993C17.6267 12.1982 17.6314 11.3711 17.5226 11.237C17.517 11.491 17.6143 11.8164 17.5598 12.0442C17.5109 11.9597 17.4297 10.9328 17.4122 10.7476Z" fill="#F8FF9D"/>
<path d="M17.4251 9.66504C17.4606 9.88308 17.475 10.0749 17.4607 10.2958L17.4287 10.3108C17.4063 10.4613 17.411 10.5964 17.412 10.7475C17.3443 10.4733 17.3644 9.94525 17.4251 9.66504Z" fill="#FFF64E"/>
<path d="M12.1873 14.8911C12.8726 14.9039 13.5789 14.8968 14.2658 14.898L14.2626 20.5234C13.8482 20.5316 13.4094 20.5248 12.9931 20.5246C12.9844 19.2624 12.9852 18.0002 12.9954 16.7381C12.9955 16.5466 12.9906 16.4463 12.9652 16.2569C12.9467 16.4057 12.93 16.5547 12.9149 16.7039C12.8631 17.0849 12.774 17.5214 12.7093 17.9076L12.2721 20.524C11.9738 20.5261 11.6754 20.5254 11.3771 20.5218C11.1884 19.2263 10.9373 17.9251 10.7513 16.6297C10.7554 16.4855 10.751 16.4542 10.7214 16.3125L10.6768 16.794C10.6967 18.0175 10.6754 19.2965 10.6764 20.5253L9.40479 20.5242L9.40496 14.8947C10.0959 14.893 10.7868 14.8948 11.4777 14.9001C11.5145 15.3158 11.5978 15.8189 11.651 16.2388C11.7002 16.627 11.7655 17.2032 11.854 17.5731C11.9875 16.7141 12.0404 15.7682 12.1873 14.8911Z" fill="#254623"/>
<path d="M16.5323 21.8071C17.2846 21.8403 18.8983 21.6514 19.4737 22.1112C20.168 22.6661 19.826 24.7501 19.9065 25.5513C19.9615 26.0984 19.8751 26.6058 19.5109 27.0218C19.0582 27.439 18.6704 27.4365 18.0826 27.4317C17.5673 27.4277 17.0462 27.4287 16.5303 27.4264L16.5323 21.8071Z" fill="#4CAF34"/>
<path d="M17.846 22.7886C18.0698 22.7896 18.493 22.8086 18.5416 23.096C18.6287 23.663 18.5828 24.2744 18.5887 24.852C18.5925 25.2213 18.6486 26.0182 18.4659 26.3225C18.2905 26.4752 18.0719 26.4531 17.8463 26.4591C17.8271 25.2793 17.8263 23.9638 17.846 22.7886Z" fill="#FEFCF9"/>
<path d="M24.3924 21.8309C24.8581 21.8349 25.3238 21.8344 25.7895 21.8292C26.3595 21.8269 27.0714 21.7614 27.423 22.3112C27.6666 22.7074 27.662 23.2621 27.5804 23.7031C27.512 24.0721 27.2773 24.2762 26.9766 24.4631C26.9949 24.4693 27.0132 24.4757 27.0315 24.4822C27.9218 24.7997 27.8674 25.9731 27.5956 26.6954C27.2181 27.461 26.5647 27.4429 25.8134 27.433C25.3429 27.4267 24.8617 27.429 24.3901 27.4265L24.3924 21.8309Z" fill="#4CAF34"/>
<path d="M25.7004 24.9521C25.8227 24.9548 26.0617 24.9501 26.1629 24.9976C26.5651 25.186 26.4675 26.0288 26.3294 26.3357C26.186 26.4864 25.8985 26.4494 25.7017 26.4466C25.6943 25.9484 25.6938 25.4503 25.7004 24.9521Z" fill="#FEFCF9"/>
<path d="M25.698 22.79C25.8208 22.7868 25.9891 22.7699 26.101 22.8197C26.5268 23.009 26.4038 23.5994 26.2505 23.9376C26.0997 24.0648 25.8933 24.052 25.7039 24.0563C25.6929 23.6343 25.6909 23.2121 25.698 22.79Z" fill="#FEFCF9"/>
<path d="M19.8236 14.8061C20.2918 14.723 21.0536 14.868 21.401 15.2083C21.8328 15.6314 21.7608 16.2851 21.76 16.8374L20.4862 16.8369C20.4901 16.5985 20.524 16.2358 20.435 16.0148C20.3482 15.7992 20.0894 15.7708 19.9022 15.8975C19.7934 15.9728 19.7205 16.0889 19.7004 16.2188C19.6836 16.3302 19.7079 16.5053 19.7036 16.6271C19.6989 16.7646 19.7029 16.9158 19.7037 17.0541C19.7079 17.774 19.6923 18.4949 19.7119 19.2144C19.7178 19.3056 19.7312 19.3776 19.7875 19.4484C19.9822 19.6932 20.4344 19.6289 20.4586 19.2706C20.4759 19.0139 20.4677 18.7419 20.4649 18.4807L20.0077 18.4829C20.0042 18.1272 20.0081 17.7668 20.009 17.4108C20.3201 17.426 20.6967 17.4169 21.0126 17.4172L21.7603 17.4193L21.759 20.5238L20.593 20.5275C20.59 20.3937 20.5931 20.253 20.594 20.1185C20.1686 20.6406 19.5627 20.8119 18.9264 20.4541C18.6433 20.2948 18.4661 19.853 18.4216 19.5433C18.3352 18.9434 18.3984 18.2859 18.3774 17.6782C18.3984 17.1562 18.3396 16.6096 18.4029 16.0909C18.4982 15.3102 19.1139 14.9204 19.8236 14.8061Z" fill="#254623"/>
<path d="M23.1037 14.8931C23.675 14.9049 24.2834 14.895 24.8578 14.8958C25.0033 15.499 25.1437 16.3776 25.2619 17C25.4901 18.1737 25.7118 19.3486 25.9274 20.5246L24.5262 20.5217C24.506 20.3215 24.4836 20.1214 24.4591 19.9215C24.4471 19.7879 24.4359 19.6542 24.4254 19.5205C24.1254 19.517 23.8254 19.5166 23.5254 19.5191C23.4735 19.845 23.4607 20.1874 23.4078 20.5231L22.0674 20.5242C22.3406 18.6861 22.7974 16.7442 23.1037 14.8931ZM24.0221 16.2281C24.0293 16.0872 23.994 15.9194 23.9704 15.7777C23.9587 15.9089 23.9268 16.1701 23.9264 16.2914C23.9558 16.2491 23.9735 16.2483 24.0221 16.2281Z" fill="#254623"/>
<path d="M23.9262 16.2914C23.9556 16.249 23.9733 16.2482 24.0219 16.228C24.0984 16.9371 24.2342 17.7952 24.2637 18.5004C24.0704 18.4997 23.8619 18.495 23.6699 18.4988C23.7501 17.9117 23.8932 16.8628 23.9262 16.2914Z" fill="#FEFCF9"/>
<path d="M23.9263 16.2915C23.9267 16.1702 23.9585 15.909 23.9703 15.7778C23.9939 15.9195 24.0292 16.0873 24.022 16.2282C23.9734 16.2484 23.9557 16.2492 23.9263 16.2915Z" fill="#95AA8B" fill-opacity="0.988235"/>
<path d="M12.597 21.8311C12.9892 21.8474 13.4966 21.8323 13.8971 21.8313C13.9284 23.2535 13.8721 24.6929 13.9109 26.1156C13.8622 26.4564 14.3832 26.5837 14.5292 26.4052C14.6717 26.231 14.6312 25.1517 14.6347 24.9486C14.6483 23.9097 14.6524 22.8708 14.647 21.8318C15.075 21.8409 15.5334 21.8328 15.9637 21.8327L15.9644 22.9033L15.9668 25.5821C15.9648 26.1924 15.9287 26.6518 15.4684 27.1083C14.867 27.7098 13.6077 27.6698 13.0196 27.069C12.4434 26.4806 12.5968 25.4646 12.5962 24.6882C12.5911 23.7358 12.5914 22.7834 12.597 21.8311Z" fill="#4CAF34"/>
<path d="M6.31914 21.8311C6.90313 21.8342 7.48711 21.8343 8.07109 21.8313C8.12702 22.2933 8.31824 23.1448 8.40895 23.6191L9.13004 27.4228C8.66537 27.4303 8.20063 27.4318 7.73591 27.4278C7.72401 27.2342 7.70171 27.0244 7.68475 26.8298L7.64929 26.4436C7.3398 26.4396 7.03027 26.4406 6.72084 26.4464C6.70149 26.7592 6.65875 27.1096 6.62924 27.4263C6.18056 27.4291 5.73188 27.4291 5.2832 27.4263L5.96822 23.7435C6.08451 23.1207 6.22111 22.454 6.31914 21.8311Z" fill="#4CAF34"/>
<path d="M7.16939 22.7817C7.24831 22.9836 7.5029 25.1698 7.48124 25.4125C7.39734 25.4498 7.28492 25.4382 7.18856 25.4372L6.8833 25.4355C6.96616 24.5576 7.07922 23.6651 7.16939 22.7817Z" fill="#FEFFFC"/>
<path d="M21.2481 21.8289C21.7546 21.8578 22.4819 21.8327 22.9953 21.8286C23.044 22.2355 23.2316 23.0657 23.3133 23.497C23.5689 24.8042 23.8167 26.1127 24.0565 27.4229C23.603 27.434 23.1201 27.4257 22.6644 27.4239L22.6119 26.8262L22.5718 26.444C22.2734 26.4392 21.967 26.4435 21.668 26.4442C21.6108 26.7041 21.5768 27.1572 21.5534 27.4269C21.1041 27.431 20.6548 27.4294 20.2056 27.4226C20.3363 26.9383 20.5111 25.8248 20.6059 25.3098C20.8281 24.151 21.0422 22.9906 21.2481 21.8289Z" fill="#4CAF34"/>
<path d="M22.1039 22.812C22.1863 22.9251 22.4098 25.1467 22.4104 25.4117C22.3549 25.451 22.2736 25.4389 22.2013 25.4379L21.8081 25.4366C21.843 24.8323 21.9707 24.1893 22.0151 23.5797C22.0323 23.3429 22.0577 23.0395 22.1039 22.812Z" fill="#FEFFFC"/>
<path d="M2.97204 21.7387C3.08382 21.735 3.19566 21.7327 3.3075 21.7319C3.74843 21.7311 4.25049 21.8268 4.57205 22.1507C4.97647 22.558 4.92908 23.138 4.92549 23.6666C4.51737 23.6707 4.10159 23.6663 3.69282 23.6655C3.69544 23.3843 3.72547 23.0558 3.51275 22.8355C3.34991 22.6668 3.1035 22.6941 2.95879 22.871C2.88593 22.9605 2.85349 23.0759 2.86907 23.1898C2.91999 23.5688 3.74199 24.1411 4.06719 24.3533C5.46242 25.2634 5.40732 27.3008 3.51466 27.5177C3.41995 27.5262 3.32489 27.5303 3.22978 27.5295C2.71899 27.5275 2.24821 27.3898 1.87359 27.024C1.47088 26.6305 1.52115 26.0353 1.52919 25.5102L2.81756 25.5147C2.81571 25.639 2.81545 25.763 2.81682 25.8871C2.82702 26.3822 3.18186 26.8377 3.59507 26.3492C4.01977 25.7512 2.85595 25.0166 2.4507 24.7355C1.56388 24.1204 1.35762 23.1906 1.91361 22.2708C2.1119 21.9427 2.58651 21.7905 2.97204 21.7387Z" fill="#4CAF34"/>
<path d="M14.8506 14.8896C15.6869 14.9324 16.903 14.8958 17.771 14.8949C17.7757 15.2642 17.7717 15.6404 17.7715 16.0104C17.2368 16.0162 16.7049 16.0068 16.168 16.0166C16.1646 16.3733 16.1644 16.7299 16.1676 17.0866L17.5677 17.0898L17.5689 18.2014L16.1668 18.2103L16.1653 19.1445C16.1641 19.2356 16.1654 19.2722 16.179 19.3621C16.281 19.4612 17.59 19.4071 17.8237 19.4054L17.8242 20.5235L14.8523 20.5252L14.8506 14.8896Z" fill="#254623"/>
<path d="M31.4526 21.8086C32.4119 21.8225 33.409 21.8078 34.3713 21.8071L34.3682 22.9148L32.7711 22.9121C32.7597 23.2657 32.7668 23.6451 32.767 24.0007L34.1689 24.0004L34.1653 25.1071L32.7719 25.1111C32.7668 25.4513 32.7648 25.7916 32.7655 26.1317C32.7658 26.2088 32.7571 26.289 32.8019 26.3399C33.1764 26.376 34.0095 26.347 34.4176 26.344C34.4193 26.7045 34.4178 27.065 34.4135 27.4255L31.4554 27.426L31.4526 21.8086Z" fill="#4CAF34"/>
<path d="M25.2669 9.71631C25.8613 10.0105 26.5533 10.4868 27.0778 10.89C29.4193 12.6752 31.1748 15.1082 32.1226 17.8819C32.4816 18.9446 32.6402 19.7522 32.7974 20.845C32.6222 20.8469 32.3819 20.8564 32.2121 20.8452C32.1465 20.8622 31.9965 20.8692 31.9391 20.8332C32.088 20.6419 31.5201 18.6142 31.4316 18.3367C30.5227 15.5459 28.7568 13.1067 26.3809 11.3604C25.9746 11.0638 25.5081 10.7372 25.0645 10.5094C25.0754 10.4429 25.1076 10.3582 25.1297 10.2926C25.1754 10.1466 25.2501 9.86911 25.2669 9.71631Z" fill="#254623"/>
<path d="M25.1297 10.2925C25.8137 10.7659 26.2795 10.9951 26.9898 11.5704C29.6682 13.7211 31.4799 16.7529 32.0962 20.1153C32.1389 20.3579 32.1775 20.6012 32.2121 20.8451C32.1465 20.8621 31.9965 20.8691 31.9391 20.8331C32.088 20.6418 31.5201 18.6142 31.4316 18.3366C30.5227 15.5458 28.7568 13.1066 26.3809 11.3603C25.9746 11.0638 25.5081 10.7371 25.0645 10.5094C25.0754 10.4428 25.1076 10.3581 25.1297 10.2925Z" fill="#F9F3E1"/>
<path d="M10.1037 10.0547C10.1425 10.1926 10.2759 10.5662 10.2201 10.6725C10.1892 10.7151 10.1324 10.7881 10.1097 10.8321L10.1269 10.8671L10.1567 10.8537C10.2009 10.8343 10.2136 10.8334 10.2607 10.8257C10.144 10.9703 9.6549 11.2881 9.4819 11.4166C7.03199 13.2373 5.20855 15.8411 4.3794 18.7667C4.19574 19.416 3.99365 20.2504 3.95686 20.9299C3.9216 20.8647 3.90779 20.8506 3.85885 20.7935L3.81896 20.7955L3.80722 20.778C3.78739 20.8197 3.78108 20.828 3.7431 20.8546C3.55425 20.8094 3.36149 20.7793 3.16992 20.7468C3.21345 20.1333 3.48739 18.972 3.66581 18.3855C4.52681 15.5264 6.23963 12.9922 8.5794 11.1159C9.02488 10.7586 9.60279 10.3215 10.1037 10.0547Z" fill="#254623"/>
<path d="M3.74299 20.8545C3.72072 20.6924 3.91384 19.7526 3.9567 19.5632C4.78371 15.898 7.03404 12.7036 10.22 10.6724C10.1891 10.715 10.1323 10.788 10.1096 10.8319L10.1268 10.8669L10.1566 10.8535C10.2008 10.8341 10.2135 10.8333 10.2606 10.8256C10.1438 10.9701 9.6548 11.2879 9.48179 11.4164C7.03188 13.2371 5.20844 15.8409 4.3793 18.7665C4.19564 19.4158 3.99354 20.2502 3.95676 20.9297C3.92149 20.8645 3.90769 20.8504 3.85875 20.7934L3.81886 20.7953L3.80711 20.7778C3.78728 20.8195 3.78098 20.8278 3.74299 20.8545Z" fill="#F6F0D4"/>
<path d="M9.46191 21.8085C9.86641 21.8218 10.3648 21.8063 10.7766 21.8047C10.7753 23.313 10.7619 24.8476 10.7818 26.3543C11.1873 26.3306 11.7778 26.347 12.1975 26.3458C12.2002 26.7058 12.2002 27.066 12.1975 27.426L9.46316 27.4252L9.46191 21.8085Z" fill="#4CAF34"/>
<path d="M28.3292 21.8072C28.7268 21.8227 29.236 21.8071 29.6418 21.8062L29.6431 26.3514L31.064 26.3453C31.0607 26.7013 31.0658 27.0673 31.0668 27.4243C30.1627 27.4384 29.2325 27.4273 28.3276 27.4236L28.3292 21.8072Z" fill="#4CAF34"/>
<path d="M30.5951 32.1492C30.7027 32.1059 30.7027 32.0759 30.764 31.9849C30.844 32.0184 30.9844 32.0439 31.0708 32.0418L31.1252 32.0791C31.3429 32.157 31.4809 32.207 31.6462 32.3759C32.1002 32.8402 31.9858 33.9263 31.3385 34.1817C30.3348 34.5777 29.6984 33.5643 30.0551 32.6829C30.1566 32.4263 30.3508 32.2531 30.5951 32.1492ZM30.9732 33.9321C31.4639 33.7773 31.56 33.3011 31.4354 32.8423C31.3655 32.5851 31.1534 32.4291 30.8794 32.4218C30.1861 32.6484 30.2001 33.831 30.9732 33.9321Z" fill="#254623"/>
<path d="M30.5947 32.1492C30.7023 32.1059 30.7023 32.0759 30.7635 31.9849C30.8436 32.0184 30.984 32.0439 31.0704 32.0418L31.1248 32.0791C30.9517 32.1132 30.7719 32.1477 30.5947 32.1492Z" fill="#5E7456"/>
<path d="M30.8792 32.4219C31.1533 32.4292 31.3653 32.5852 31.4353 32.8424C31.5598 33.3012 31.4637 33.7774 30.9731 33.9322C30.1999 33.8311 30.1859 32.6485 30.8792 32.4219ZM30.9725 33.7129C31.3117 33.5757 31.2644 32.9767 31.0244 32.741C30.997 32.7322 30.9522 32.7163 30.926 32.7108C30.6321 32.9026 30.5709 33.3418 30.7664 33.6257C30.8086 33.6872 30.9019 33.6973 30.9725 33.7129Z" fill="#F9F3E1"/>
<path d="M25.1041 32.1274C25.6019 32.0876 26.5756 32.0566 26.3435 32.878C26.298 33.0398 26.177 33.1033 26.087 33.2367C26.311 33.5367 26.3539 33.8753 26.4424 34.2426C26.3229 34.2464 26.1592 34.2643 26.055 34.2201C25.9807 34.1609 25.9828 34.1216 25.9617 34.0278C25.8884 33.698 25.8724 33.3247 25.4195 33.3877C25.3439 33.4865 25.3751 34.0641 25.3729 34.237L24.9605 34.2395C24.9629 33.9834 24.9223 32.2646 24.9939 32.1514L25.1041 32.1274Z" fill="#254623"/>
<path d="M25.395 32.4219C25.7563 32.4249 26.2012 32.5895 25.8547 32.9914C25.2425 33.2442 25.3605 32.855 25.395 32.4219Z" fill="#FEFCF9"/>
<path d="M33.4857 32.1055L33.8396 32.1135C33.8449 32.3447 33.8581 34.0739 33.8208 34.2183L33.7692 34.2415C33.6835 34.2456 33.5729 34.2594 33.4908 34.2367C33.3329 34.1936 32.6826 32.9258 32.5679 32.7176C32.5745 33.2263 32.5737 33.735 32.5659 34.2438L32.2122 34.2393C32.2003 33.6022 32.1878 32.7375 32.2181 32.1093L32.6462 32.1143C32.8842 32.4687 33.3062 33.2011 33.477 33.581C33.475 33.0892 33.4778 32.5973 33.4857 32.1055Z" fill="#254623"/>
<path d="M28.2509 32.1008C28.5832 32.0753 28.6742 32.0892 28.9905 32.1575L28.9422 32.5119C28.7401 32.4512 28.5675 32.4217 28.3529 32.459C27.7272 32.5679 27.6143 33.5052 28.1337 33.812C28.3714 33.9524 28.6915 33.9081 28.9511 33.8393L28.9702 34.1924C27.129 34.6956 26.847 32.4555 28.2509 32.1008Z" fill="#254623"/>
<path d="M26.7907 32.0962L27.1029 32.1191C27.1075 32.4393 27.1451 34.0101 27.0844 34.2194L27.0317 34.2401L26.6898 34.2396C26.6885 33.7192 26.6661 32.6962 26.7111 32.1466C26.7139 32.1128 26.7477 32.1118 26.7907 32.0962Z" fill="#254623"/>
<path d="M16.3884 27.8974C16.9198 27.8661 17.4959 27.8401 18.0267 27.8825L18.1315 27.9599C17.3749 27.9932 16.8206 27.9947 16.062 27.9816C16.1373 27.9652 16.2832 27.9496 16.3632 27.9397L16.3884 27.8974Z" fill="#F2CCAC"/>
<path d="M31.0141 31.6162C31.1837 31.6291 31.2955 31.6361 31.4649 31.6303C31.3372 31.767 31.2053 31.9137 31.0705 32.042C30.9841 32.044 30.8438 32.0186 30.7637 31.985C30.8539 31.8244 30.8987 31.7607 31.0141 31.6162Z" fill="#495848"/>
<path d="M18.2591 15.1658C18.2362 14.6216 18.2113 14.776 18.7378 14.5718L18.825 14.6658C18.61 14.7976 18.4341 14.9865 18.2591 15.1658Z" fill="#D4822E"/>
<path d="M16.6592 16.4981C16.8557 16.4788 17.7375 16.4452 17.8632 16.5386L17.8593 16.6306C17.5186 16.5666 16.8616 16.6118 16.6783 16.5593L16.6592 16.4981Z" fill="#D4822E" fill-opacity="0.341176"/>
<path d="M5.40417 23.1042C5.41602 23.0531 5.56162 22.7614 5.59106 22.7383C5.65533 22.8557 5.54934 22.908 5.58412 23.0943C5.54131 23.3553 5.47488 23.6287 5.43806 23.8798L5.3667 23.8521C5.44162 23.6279 5.42161 23.3366 5.40417 23.1042Z" fill="#C6C9A7" fill-opacity="0.0117647"/>
<path d="M13.8338 27.9902C13.8938 27.9822 14.1127 27.9892 14.1865 27.9902C14.448 27.9935 14.6941 27.9527 14.9496 27.936L14.9751 27.9721C15.1571 27.9918 15.3612 27.9849 15.5459 27.9837C15.3839 28.019 15.0024 28.0147 14.8151 28.0195C14.4574 28.0286 13.9377 28.112 13.5957 28.0828C13.6778 28.0767 13.7838 28.0787 13.8511 28.0402L13.8338 27.9902Z" fill="#F2CCAC"/>
<path d="M18.0269 27.8828C18.1382 27.883 18.8106 27.8755 18.8685 27.8888L18.8901 27.9234C19.0878 27.9486 19.3148 27.9256 19.4874 27.9549C19.2988 27.9768 18.327 27.9811 18.1316 27.9602L18.0269 27.8828Z" fill="#F2CCAC"/>
<path d="M13.4593 28.0811L13.386 28.0254L13.2933 28.0649L13.2511 28.0453L13.3054 28.0233C13.2292 27.7886 13.2825 27.9896 13.1782 27.8693L13.2135 27.8408L13.2995 27.8751L13.3402 27.8461C13.5308 27.9159 13.6315 27.9586 13.8338 27.9901L13.851 28.04C13.7838 28.0786 13.6778 28.0765 13.5957 28.0826L13.4593 28.0811Z" fill="#D1C188" fill-opacity="0.0117647"/>
<path d="M20.2161 27.9082C20.5668 27.9158 20.9176 27.9175 21.2684 27.9132C21.1455 27.9362 20.951 27.9347 20.8765 27.9803C20.7017 27.9891 19.9164 27.9922 19.7617 27.9629C19.843 27.9564 19.8973 27.9473 19.9782 27.9616C20.0798 27.9616 20.1367 27.9644 20.2381 27.943L20.2161 27.9082Z" fill="#D4822E" fill-opacity="0.615686"/>
<path d="M15.4196 11.7375C15.4476 11.9242 15.474 12.1116 15.5103 12.2969C15.4269 12.1506 15.2529 11.8641 15.188 11.7227L15.29 11.7876C15.3773 11.7836 15.344 11.7925 15.4196 11.7375Z" fill="#495848"/>
<path d="M16.6016 14.2729C16.6646 14.2785 16.7767 14.3315 16.8156 14.3857C16.7675 14.4295 16.7706 14.4144 16.6845 14.4178C16.6063 14.4191 16.4729 14.429 16.4102 14.3898C16.4437 14.3301 16.5342 14.3029 16.6016 14.2729Z" fill="#D4822E"/>
<path d="M21.496 27.9106L21.556 27.9119C21.6762 27.9588 21.7313 27.9482 21.8576 27.9391L21.8579 27.9666L21.7641 28.0254L21.426 27.9991C21.3778 27.9722 21.356 27.9681 21.3042 27.9532L21.496 27.9106Z" fill="#D1C188" fill-opacity="0.0235294"/>
<path d="M18.7378 14.5714C18.9016 14.5535 19.0742 14.45 19.2153 14.4463C19.1288 14.5288 18.9385 14.6148 18.8251 14.6654L18.7378 14.5714Z" fill="#D89455"/>
<path d="M21.2684 27.9132L21.4959 27.9106L21.304 27.9532C21.3559 27.9681 21.3776 27.9722 21.4258 27.9991C21.3043 28.0039 21.0089 27.985 20.8765 27.9802C20.951 27.9346 21.1455 27.9361 21.2684 27.9132Z" fill="#D89455" fill-opacity="0.423529"/>
<path d="M23.8768 23.7843C23.9037 23.6765 23.9111 23.5437 23.9199 23.4321C23.9349 23.6519 23.9556 23.9388 23.9491 24.1569C23.9224 24.055 23.8664 23.8802 23.8768 23.7843Z" fill="#F9F3E1"/>
<path d="M12.9653 16.2568C12.9907 16.4463 12.9956 16.5465 12.9955 16.738L12.915 16.7038C12.9301 16.5546 12.9468 16.4056 12.9653 16.2568Z" fill="#BCCAAE" fill-opacity="0.988235"/>
<path d="M22.0986 26.9204C22.1261 27.0596 22.1373 27.1113 22.1382 27.2522C22.1174 27.289 22.0825 27.3676 22.0497 27.377C22.0449 27.3104 22.0882 27.0044 22.0986 26.9204Z" fill="#D1C188" fill-opacity="0.027451"/>
<path d="M22.2266 16.9919C22.2182 16.7618 22.2232 16.5313 22.2415 16.3018L22.2554 16.6686L22.2745 16.6844L22.2878 16.6715C22.2817 16.7351 22.2405 16.9202 22.2266 16.9919Z" fill="#F9F3E1" fill-opacity="0.486275"/>
<path d="M10.7213 16.3125C10.7509 16.4543 10.7553 16.4855 10.7512 16.6297C10.7269 16.6789 10.6921 16.7437 10.6768 16.794L10.7213 16.3125Z" fill="#BCCAAE" fill-opacity="0.988235"/>
<path d="M20.0369 27.8838L20.2161 27.9085L20.2382 27.9433C20.1368 27.9647 20.0798 27.9619 19.9783 27.9619L19.9443 27.9234L20.0369 27.8838Z" fill="#D89455" fill-opacity="0.160784"/>
<path d="M10.5847 32.4577C10.8839 32.1598 11.1135 31.9117 11.5867 31.8835C12.0494 31.8557 12.3366 32.0753 12.6577 32.3582C13.0027 31.9578 13.2877 31.8404 13.8115 31.9014C14.6034 31.9967 14.3541 32.4398 14.0683 32.8886C14.0374 32.937 14.5019 33.4062 14.4356 33.6878C14.4213 33.8932 14.3422 34.1476 14.1647 34.2865C13.6708 34.6732 12.9449 34.6803 12.5045 34.2086C12.4763 34.2358 12.4468 34.2618 12.4161 34.2862C12.1576 34.4945 11.826 34.5918 11.4948 34.557C11.0812 34.5129 10.7907 34.283 10.5409 33.9711C9.88241 34.7693 9.04297 34.4809 8.15324 34.5391C7.63724 34.5731 7.81297 34.0689 7.52573 33.9351C7.26437 34.0336 7.41435 34.5066 7.03411 34.5154C5.97053 34.5396 4.90533 34.5035 3.84239 34.5446C3.57107 34.555 3.5038 34.1146 3.38451 33.9555C3.11156 33.8804 3.13437 34.4425 2.8801 34.5081C2.45463 34.618 2.07775 34.5928 2.20542 34.0566C2.33517 33.5115 2.51649 33.0663 2.67137 32.5382C2.74625 32.2828 2.79539 31.9833 3.05779 31.8915C3.54712 31.8772 3.79088 31.86 3.92855 32.4106C3.99351 32.6703 4.1187 32.9733 4.22573 33.2183C4.22459 33.0288 4.24772 32.7323 4.22896 32.4706C4.13298 31.9238 4.69665 31.7907 5.04905 31.9581C5.21553 32.037 5.17287 33.5065 5.15558 33.6784C5.33873 33.6883 5.51921 33.6827 5.70247 33.6794C5.70188 33.656 5.70148 33.6323 5.70122 33.6088C5.69924 33.421 5.67692 32.0524 5.8097 31.9987C6.83914 31.5835 6.67383 32.5056 6.65731 33.1377C6.89502 32.7401 6.91874 31.585 7.81793 31.9281C8.11665 32.042 8.28117 32.902 8.42695 33.2491C8.45654 32.9481 8.38581 32.2493 8.55526 32.0017C8.60748 31.9253 9.05075 31.8885 9.17235 31.8855C9.86187 31.8678 10.1125 32.0312 10.5847 32.4577ZM11.679 33.9315C12.4222 33.6759 12.3076 32.4474 11.58 32.424C10.8835 32.5989 10.892 33.8539 11.679 33.9315ZM9.67241 33.6086C9.81455 33.4102 9.77858 33.1725 9.741 32.9408C9.62065 32.8467 9.55279 32.7845 9.40642 32.7356C9.35563 32.9196 9.25579 33.6252 9.50242 33.682C9.58518 33.6562 9.60013 33.6537 9.67241 33.6086Z" fill="#FAF6E7"/>
<path d="M11.4635 32.096C12.488 32.0045 12.8357 32.9454 12.4619 33.7869C12.3486 34.042 12.0827 34.1749 11.8219 34.2472C10.779 34.3503 10.3935 33.414 10.8159 32.5491C10.9357 32.3038 11.2013 32.1621 11.4635 32.096ZM11.6785 33.9318C12.4218 33.6762 12.3072 32.4477 11.5795 32.4243C10.8831 32.5992 10.8916 33.8542 11.6785 33.9318Z" fill="#254623"/>
<path d="M11.5798 32.4243C12.3074 32.4478 12.422 33.6762 11.6788 33.9319C10.8918 33.8542 10.8833 32.5993 11.5798 32.4243ZM11.7009 33.7219C11.9643 33.47 12.0337 32.802 11.6344 32.714C11.3193 32.8574 11.3144 33.2459 11.4209 33.5328C11.4653 33.6526 11.5823 33.6936 11.7009 33.7219Z" fill="#F9F3E1"/>
<path d="M8.73863 32.1332C8.77742 32.1299 8.81627 32.1266 8.85512 32.1239C9.26996 32.0918 9.85974 32.0689 10.1706 32.3692C10.6357 32.8181 10.5411 33.5316 10.1433 33.974C9.71904 34.3093 9.2094 34.246 8.69571 34.2332C8.67598 33.7222 8.68681 32.7211 8.70268 32.1803C8.71465 32.1647 8.72665 32.1491 8.73863 32.1332ZM9.67231 33.609C9.81446 33.4106 9.77848 33.1729 9.74091 32.9412C9.62055 32.8471 9.5527 32.7849 9.40633 32.736C9.35553 32.92 9.2557 33.6256 9.50233 33.6824C9.58509 33.6566 9.60004 33.6541 9.67231 33.609Z" fill="#254623"/>
<path d="M9.10955 32.4495C9.37296 32.4389 9.59323 32.4243 9.80862 32.5995C10.1771 32.8995 10.0986 33.4156 9.82024 33.7405C9.66734 33.8487 9.31619 34.0065 9.14636 33.884C9.06821 33.7332 9.10561 32.6802 9.10955 32.4495ZM9.67215 33.6089C9.81429 33.4105 9.77832 33.1728 9.74074 32.9411C9.62039 32.8471 9.55253 32.7848 9.40617 32.7359C9.35537 32.9199 9.25553 33.6256 9.50217 33.6823C9.58492 33.6566 9.59987 33.6541 9.67215 33.6089Z" fill="#F9F3E1"/>
<path d="M7.28809 32.1045C7.44958 32.1065 7.61941 32.1143 7.78164 32.1191C7.96556 32.79 8.2891 33.5785 8.43763 34.2398C8.29818 34.2416 8.15161 34.2378 8.01157 34.2363C7.93546 34.0454 7.89958 33.8387 7.81347 33.6358L7.21413 33.6292C7.14709 33.8432 7.09195 34.024 7.04024 34.2423L6.60742 34.233C6.81885 33.5735 7.05137 32.738 7.28809 32.1045Z" fill="#254623"/>
<path d="M7.49036 32.5923C7.5721 32.6772 7.74038 33.1872 7.69902 33.31L7.63355 33.3138L7.29102 33.3224C7.36457 33.0733 7.4313 32.8449 7.49036 32.5923Z" fill="#FEFCF9"/>
<path d="M3.06673 32.1079L3.5569 32.1182C3.79003 32.8211 4.01529 33.5265 4.23261 34.2341L3.79324 34.2407C3.73756 34.0783 3.66612 33.7612 3.58682 33.6361C3.38826 33.6341 3.1897 33.6344 2.99115 33.6364C2.93402 33.8393 2.88053 34.0486 2.80204 34.244L2.40381 34.2354C2.56995 33.6064 2.85289 32.7268 3.06673 32.1079Z" fill="#254623"/>
<path d="M3.28662 32.6074C3.37517 32.6881 3.49019 33.1636 3.50247 33.2896C3.45381 33.3312 3.38636 33.3143 3.30592 33.3136C3.22525 33.3131 3.16047 33.3224 3.09229 33.2843C3.10985 33.1409 3.23743 32.764 3.28662 32.6074Z" fill="#F9F3E1"/>
<path d="M13.4313 32.0954C13.739 32.0788 13.8043 32.1012 14.096 32.1857C14.0552 32.2916 14.026 32.4086 13.9952 32.5185C13.8282 32.468 13.4333 32.3523 13.3061 32.5323C13.0804 32.8759 13.6884 32.9748 13.8807 33.124C14.4425 33.5596 14.1413 34.1528 13.5057 34.2575C13.3297 34.2665 12.9818 34.2817 12.8715 34.1339C12.8033 34.0424 12.8538 33.8894 12.8763 33.7873C13.1291 33.8743 13.7669 34.0671 13.7518 33.5924C13.689 33.4734 13.5618 33.4069 13.4433 33.3539C13.0232 33.1661 12.6017 32.8833 12.9344 32.3793C13.0581 32.1917 13.2157 32.1355 13.4313 32.0954Z" fill="#254623"/>
<path d="M4.50613 32.1006L4.87803 32.1132C4.87465 32.7039 4.87541 33.2945 4.88032 33.8852L5.72766 33.8892C5.7283 34.0123 5.7237 34.1126 5.71574 34.2356C5.30299 34.2414 4.89018 34.2417 4.47743 34.2369C4.48012 33.89 4.44857 32.3335 4.50613 32.1006Z" fill="#254623"/>
<path d="M6.07063 32.1001L6.3805 32.1157C6.38919 32.5844 6.37849 33.0646 6.38279 33.5343C6.38385 33.649 6.39034 34.129 6.37002 34.2188L6.3113 34.2374L5.96937 34.2361C5.96858 33.7178 5.9458 32.6958 5.99459 32.1495C5.99741 32.1177 6.03011 32.1157 6.07063 32.1001Z" fill="#254623"/>
<path d="M12.8125 33.4199C12.9338 33.4222 13.3314 33.6105 13.412 33.7078C13.2553 33.6733 13.0266 33.6274 12.8802 33.5611C12.831 33.5389 12.828 33.4769 12.8125 33.4199Z" fill="#D19D83"/>
<path d="M17.8646 31.9418C18.0717 31.8783 18.3627 31.8435 18.5104 32.0364C18.5433 32.2701 18.5405 34.2488 18.4943 34.4134C18.3925 34.5375 18.2938 34.5206 18.1513 34.5422C17.6203 34.6229 17.5062 34.1419 17.3052 33.7668C17.2947 33.9755 17.3212 34.2836 17.2134 34.4454C16.9663 34.598 15.4401 34.5049 15.0662 34.5294C15.0224 34.5322 14.9571 34.4848 14.9243 34.4543C14.7617 34.1202 14.8889 32.5073 14.8846 32.0638C14.8842 32.0255 14.9346 31.996 14.9627 31.9779L14.9851 31.9766C15.2522 31.841 16.7889 31.9121 17.1537 31.9338C17.3031 31.9426 17.5617 32.4122 17.6776 32.5862C17.6647 32.3374 17.6042 32.0626 17.8646 31.9418ZM18.3067 33.2671C18.3691 33.5356 18.2643 34.0496 18.3743 34.1764C18.4659 34.0257 18.458 32.7637 18.385 32.5806C18.3091 32.6611 18.3248 33.0987 18.3058 33.2585L18.3067 33.2671Z" fill="#FEFCF9"/>
<path d="M18.3062 33.2585C18.3251 33.0986 18.3094 32.661 18.3853 32.5806C18.4583 32.7636 18.4662 34.0256 18.3746 34.1764C18.2646 34.0496 18.3694 33.5355 18.3071 33.267L18.3062 33.2585Z" fill="#F9F3E1" fill-opacity="0.690196"/>
<path d="M14.9854 31.9764C15.2525 31.8408 16.7892 31.9118 17.154 31.9335C17.3033 31.9423 17.562 32.412 17.6779 32.586C17.665 32.3371 17.6045 32.0623 17.8648 31.9416C18.0009 32.0568 18.1087 32.0855 18.2907 32.0364C18.3184 32.0828 18.3164 32.0591 18.3102 32.1057C18.2902 32.4571 18.3012 32.9013 18.3061 33.2583L18.307 33.2669L18.3027 34.2415C18.1657 34.2413 18.0287 34.2402 17.8918 34.2385C17.6539 33.906 17.2175 33.0871 17.0081 32.7143C17.0152 33.2245 17.015 33.7348 17.0074 34.245L16.6531 34.2337C16.6313 33.6317 16.6368 32.708 16.659 32.1065C16.6127 32.0727 16.6065 32.0613 16.5727 32.0139L16.5562 31.9905C16.3981 31.9544 15.3002 31.9537 15.0869 31.9988C15.046 32.0074 15.0341 31.9935 14.9854 31.9764Z" fill="#254623"/>
<path d="M14.9854 31.9764C15.2525 31.8408 16.7892 31.9118 17.154 31.9335C17.3033 31.9423 17.562 32.412 17.6779 32.586C17.665 32.3371 17.6045 32.0623 17.8648 31.9416C18.0009 32.0568 18.1087 32.0855 18.2907 32.0364C18.3184 32.0828 18.3164 32.0591 18.3102 32.1057C18.1992 32.1145 18.0432 32.105 17.9284 32.1012C17.9072 32.5391 17.9206 33.0834 17.918 33.5316C17.6541 33.0408 17.3834 32.591 17.0948 32.1145L16.659 32.1065C16.6127 32.0727 16.6065 32.0613 16.5727 32.0139L16.5562 31.9905C16.3981 31.9544 15.3002 31.9537 15.0869 31.9988C15.046 32.0074 15.0341 31.9935 14.9854 31.9764Z" fill="#F9F3E1"/>
<path d="M15.1007 32.1078C15.4992 32.1063 15.8978 32.1095 16.2962 32.1169L16.3 32.4564L15.4895 32.4698L15.4888 32.9806L16.2672 32.9795L16.2684 33.3015C16.097 33.305 15.6678 33.2664 15.5122 33.3365C15.4837 33.3494 15.4887 33.4051 15.4846 33.4474L15.4872 33.8841L16.3506 33.8861L16.3477 34.2345C15.9309 34.2401 15.514 34.2413 15.0972 34.2388C15.0937 33.5284 15.0948 32.818 15.1007 32.1078Z" fill="#254623"/>
<path d="M15.769 33.6157C15.9182 33.6041 16.2385 33.5842 16.3813 33.613L16.3898 33.6586C16.2041 33.6651 15.9854 33.6793 15.8032 33.6616L15.769 33.6157Z" fill="#D19D83"/>
<path d="M20.3691 32.0377C20.5972 31.8325 20.9059 31.9121 21.174 31.9754C21.0551 32.0279 21.0288 32.0158 20.9671 32.11C20.8342 32.1146 20.7296 32.108 20.5967 32.0997C20.5326 32.0553 20.4492 32.051 20.3691 32.0377Z" fill="#F6F0D4"/>
</svg>
