<svg width="76" height="32" viewBox="0 0 76 32" fill="none" xmlns="http://www.w3.org/2000/svg">
<path d="M41.7999 10.7929C42.4848 10.1571 43.1494 9.67699 44.0827 9.4471C45.8779 9.00476 47.3093 9.87074 47.6442 11.7556C48.0832 14.225 46.9347 17.1077 45.7825 19.2581C45.5298 19.7293 45.0933 20.251 44.7876 20.7117C45.4193 20.4314 45.5159 20.2839 46.0183 19.8874C47.5811 18.6541 47.6602 17.4897 48.3076 15.8053L49.7571 12.1096C49.9393 11.6573 50.1185 11.1588 50.3712 10.7413C51.1045 9.52918 53.1543 9.75461 53.9164 10.7994C54.4511 10.1352 55.4571 9.59941 56.2981 9.42269C58.165 9.03037 59.4884 10.0338 59.7605 11.9675C60.1037 14.4063 58.9475 17.2664 57.7885 19.3852C57.5694 19.7855 57.1175 20.3494 56.8395 20.7357C57.7211 20.3 59.284 19.0403 59.6423 18.1222C60.3139 16.4007 60.7772 14.4721 61.6163 12.7885C61.9793 12.0598 62.2702 11.1887 62.8055 10.5536C62.9646 10.3679 63.1632 10.2201 63.3866 10.121C64.2889 9.71274 65.7624 9.91153 66.2485 10.8832C66.3036 10.994 66.3501 11.2491 66.318 11.3708C66.0727 12.301 65.595 13.1571 65.2216 14.0395C64.9138 14.8107 64.6179 15.5892 64.3076 16.3611C64.1134 16.8569 63.3854 19.2399 63.813 19.5752C64.2689 19.7493 65.3068 18.4431 65.659 18.0824C66.061 17.6224 66.3928 16.9755 66.8537 16.5893C67.1172 16.4612 67.4807 16.5111 67.7002 16.6308C68.5061 17.0701 67.4749 18.1623 67.0778 18.7373C65.8548 20.5098 63.9438 22.859 61.7795 23.4145C60.4087 23.7662 59.3625 22.7852 59.3064 21.4756C59.3006 21.3328 59.2929 21.0618 59.2676 20.9329C59.2205 20.9136 59.1999 20.9075 59.1522 20.9469C58.5556 21.4385 57.7972 21.9445 57.1055 22.3007C55.5267 23.114 53.8278 23.5931 52.0406 23.4678C50.9659 23.3924 50.7545 23.1255 50.0794 22.3652C49.944 22.6637 49.8907 23.0922 49.7907 23.4209C49.3514 24.8659 48.9232 26.2964 48.6194 27.7779C48.5077 28.324 48.3962 29.0124 47.8095 29.2414C47.0504 29.5376 46.094 29.0696 45.5439 28.5439C44.7762 27.7948 44.8975 27.0822 45.1274 26.1411C45.237 25.6956 45.3558 25.2524 45.4833 24.8117C45.7754 23.792 46.017 22.7677 46.3483 21.7603C46.372 21.6874 46.3898 21.6412 46.3618 21.5669C46.2033 21.504 45.7652 21.8626 45.5778 21.9771C44.5201 22.6224 42.9911 23.2438 41.7697 23.3938C40.8862 23.5023 39.3816 23.6316 38.6588 23.0608C38.4119 22.8659 38.2386 22.5866 38.0161 22.4192C37.9157 22.4653 37.8514 22.8335 37.8228 22.9426C37.417 24.5084 36.9014 26.0011 36.5724 27.5936C36.341 28.7138 36.19 29.572 34.7426 29.2667C33.8711 29.0829 32.8057 28.173 32.8597 27.2067C32.926 26.1733 33.3541 25.1616 33.5845 24.1654C33.7777 23.3307 34.0719 22.5144 34.2621 21.6956C33.9864 21.8735 33.8111 22.1089 33.5515 22.3105C32.5874 23.0591 31.3723 23.8034 30.1154 23.3125C29.4816 23.0605 29.2873 22.415 28.9175 21.9151C28.8357 21.8044 28.498 22.2205 28.4187 22.2844C27.1734 23.2858 25.4033 24.0142 23.9639 22.9411C23.3034 22.4486 22.8351 21.5477 22.7219 20.7399C22.6353 19.8607 22.6515 18.787 22.7615 17.8973C23.1893 15.8445 23.9793 13.5962 25.2588 11.9182C26.3009 10.5517 27.6593 9.58414 29.3771 9.36429C30.8499 9.25484 31.7395 9.70993 32.0742 11.1983C32.68 10.0776 33.4315 9.73875 34.726 10.0058C35.2982 10.1238 36.1854 10.7235 35.9964 11.4097C35.6785 12.5637 34.9999 13.6347 34.6261 14.7805C34.4562 15.2926 34.1711 15.8036 34.0009 16.3194C33.8472 16.7857 33.7257 17.2508 33.5908 17.7219C33.4646 18.2464 33.238 19.0097 33.3926 19.53C33.4813 19.8287 34.1021 19.3542 34.2136 19.252C34.6565 18.8244 35.2777 18.2038 35.5339 17.6362C35.9277 16.7639 36.2105 15.7489 36.5877 14.8576C36.7397 14.5372 36.832 14.0092 36.9925 13.7091C37.4503 12.8527 37.7874 11.5399 38.2814 10.7476C38.4107 10.5394 38.5849 10.3627 38.7912 10.2305C39.6688 9.65978 41.2301 9.90913 41.7999 10.7929ZM27.073 20.7874C28.6672 19.8318 29.891 16.377 30.3599 14.6527C30.503 14.1268 30.9373 11.961 30.3633 11.6957C28.7543 12.4554 26.948 17.2614 26.8074 19.0814C26.7873 19.342 26.7287 20.6169 26.9239 20.7655C26.9836 20.7805 27.0111 20.791 27.073 20.7874ZM51.8008 20.9678C52.0221 20.7971 52.442 20.5002 52.61 20.29C54.2393 18.2526 55.35 15.724 55.8369 13.1664C55.8773 12.955 55.9816 11.8658 55.6172 11.872C53.7271 12.8403 51.1922 18.531 51.637 20.8407C51.6487 20.9024 51.7404 20.9553 51.8008 20.9678ZM39.7267 20.9538C40.4516 20.4018 40.5101 20.3445 41.0451 19.5987C41.6533 18.7509 42.0692 17.9008 42.5537 16.9798C42.82 16.4739 44.4844 11.9566 43.52 11.8656C41.7244 12.8083 39.0587 18.5358 39.5561 20.8481C39.5629 20.8802 39.6242 20.9291 39.6522 20.9474L39.7267 20.9538Z" fill="#FF4940"/>
<path d="M16.682 2.67041C16.7371 2.65736 17.1515 2.6807 17.2258 2.68686C18.4281 2.78649 19.773 3.03827 20.8724 3.59041C21.9837 4.14211 23.3539 5.24341 23.7264 6.55999C24.7901 10.3201 21.9287 13.4263 18.9597 14.8104C18.3446 15.0972 17.723 15.3297 17.1212 15.5534C17.1903 15.9879 17.1985 16.5739 17.2416 17.0423C17.629 21.2476 19.9357 26.1678 24.6307 24.3339C25.4053 24.0313 25.9164 23.3139 26.6292 24.1272C26.6642 24.3363 26.7168 24.7508 26.5586 24.9138C24.4646 27.0697 21.3106 28.7578 18.3754 27.6497C15.8067 26.68 14.3631 23.6415 13.7957 20.9468C13.6505 20.2569 13.5945 19.5053 13.483 18.8028L13.4386 18.7866C13.1461 18.9479 12.573 22.546 12.3528 23.0214C11.8272 24.1564 9.82661 23.6007 9.23157 22.8015C9.16059 22.7061 9.0422 22.6325 8.97451 22.5398C8.5746 21.9915 8.64389 21.2562 8.69784 20.6126C8.84555 19.3783 9.17811 18.2139 9.4993 17.0236C9.62745 16.5486 9.74078 16.0693 9.88286 15.5988C10.0858 14.9268 10.3229 14.269 10.5374 13.6016C11.0911 11.8783 11.6794 10.1746 12.3855 8.51593C12.5578 8.11116 12.6884 7.64625 12.9083 7.27306C13.155 6.85428 13.4258 6.67355 13.8733 6.56732C14.5235 6.41293 16.2218 6.38866 16.7717 6.77511C16.9602 6.90758 17.108 7.16005 17.0994 7.40768C17.0833 7.86928 16.2898 9.65117 16.076 10.1898C15.8669 10.7167 15.7126 11.2602 15.5204 11.7934C15.305 12.3911 15.0515 12.9839 14.8623 13.5913C14.836 13.6754 14.7998 13.7716 14.8181 13.8606C15.1007 13.9204 16.6128 12.7526 16.9238 12.4853C17.1699 12.2758 17.402 12.0479 17.6184 11.8033C18.6604 10.6084 19.3673 9.14877 19.3148 7.47302C19.2932 6.78348 19.0838 5.95084 18.5859 5.4877C17.9718 4.91647 16.9548 4.75664 16.1677 4.78964C13.2387 4.92161 10.9186 7.52399 9.98238 10.3542C9.84763 10.7616 9.74884 12.1185 9.55413 12.316C8.89356 12.9859 7.87123 12.5586 7.31067 11.9372C6.82335 11.3971 6.6626 10.9162 6.66724 10.149C6.63335 8.4643 7.7689 6.90352 8.82337 5.77479C9.52008 5.04747 10.2177 4.56778 11.0724 4.07169C12.9154 3.00189 14.6028 2.68423 16.682 2.67041Z" fill="#FF4940"/>
<path d="M66.1974 2.70856C67.6534 2.44831 69.0431 3.42303 69.2942 4.88069C69.5453 6.33836 68.5618 7.72178 67.1026 7.96357C65.6561 8.2032 64.2879 7.23037 64.0391 5.78572C63.7903 4.34105 64.7542 2.9665 66.1974 2.70856Z" fill="#FF4940"/>
</svg>
