<svg width="81" height="32" viewBox="0 0 81 32" fill="none" xmlns="http://www.w3.org/2000/svg">
<path d="M71.606 0.758261C73.1985 0.712875 76.3995 0.857589 76.685 3.05784C76.769 3.70459 76.1394 4.68445 75.6901 5.14298C73.1602 7.72235 69.3103 8.78366 65.8445 9.35273C64.4437 9.5711 62.9064 9.50794 61.5263 9.57063C63.6224 10.2366 66.2084 9.86015 68.3489 9.50823C70.9924 9.07356 78.1491 6.48016 77.5049 3.06933L77.5464 3.03099C78.8203 3.60734 80.0432 4.69608 80.1296 6.18137C80.1664 6.80017 79.9568 7.40843 79.5471 7.87293C78.8354 8.67181 77.1424 9.21818 76.0946 9.25043C75.3493 9.27331 75.0005 9.16533 74.4568 8.67663C74.6149 9.15639 74.7574 10.3579 74.8386 10.9163C73.9806 10.8355 73.0503 10.8355 72.1899 10.836C69.9376 10.8373 66.4529 11.4183 64.422 12.4195C65.448 12.2384 66.6766 11.9046 67.7273 11.6826C70.335 11.1316 72.3211 11.0874 74.9283 11.3442C75.0043 11.9545 75.0925 12.5632 75.1936 13.1698C72.1124 12.3887 66.8423 13.3483 63.8796 14.462C63.7598 13.4292 63.5327 12.3537 63.4478 11.3207C61.8709 11.15 59.3297 11.3259 58.3744 10.1481C55.509 6.61499 59.0725 6.08128 61.852 5.80377C62.4727 5.74179 63.6649 5.12062 64.1128 4.68C64.0156 5.08705 63.9665 5.60407 63.915 6.02644C64.0741 5.74671 64.2369 5.32722 64.3715 5.02531C64.9529 3.71523 65.6411 2.8485 66.8428 2.07477C68.3899 1.07856 69.8247 0.830358 71.606 0.758261Z" fill="black"/>
<path d="M28.3946 17.186C29.3703 17.2056 30.3789 17.1919 31.3577 17.1894C31.3906 18.1793 31.6884 19.9028 31.8421 20.9119L32.7498 26.8241C32.9884 23.765 33.7139 20.3033 34.0754 17.1957C35.0273 17.2167 36.0293 17.203 36.9848 17.2023L37.0101 30.4056L35.1081 30.411C35.0722 27.7301 35.1052 24.9852 35.0997 22.2966C35.0957 21.6935 35.0666 21.0909 35.0125 20.4902C34.915 21.0659 34.8832 21.7075 34.7886 22.3083C34.3394 25.0061 33.9309 27.7106 33.5632 30.4209L31.6875 30.405C31.3032 27.0483 30.7068 23.8137 30.2195 20.4824C30.1523 21.1722 30.2148 22.8522 30.2152 23.6377L30.2265 30.3927L28.3921 30.4056L28.3946 17.186Z" fill="black"/>
<path d="M63.2002 17.2396C64.5822 17.2662 66.1399 17.1351 67.4912 17.4086C68.1921 17.5505 68.8929 18.2 69.1836 18.8393C69.4138 19.3455 69.4651 20.0081 69.4883 20.5619C69.5095 22.4283 69.4957 24.2997 69.4971 26.1664C69.4975 26.9039 69.4923 27.6801 69.3271 28.3988C69.2106 28.906 68.9446 29.256 68.5996 29.6264C67.8205 30.3399 67.1266 30.4352 66.0908 30.4545C65.1261 30.4725 64.1619 30.4492 63.1973 30.4359L63.2002 17.2396ZM67.5176 20.8471C67.5237 18.9948 66.7861 19.0836 65.2598 19.1156L65.2568 28.5727C65.9048 28.5851 66.6871 28.7022 67.166 28.2484C67.2802 28.0916 67.4501 27.8541 67.46 27.6576C67.5751 25.3975 67.51 23.1113 67.5176 20.8471Z" fill="black"/>
<path d="M58.346 17.1116C60.0304 17.0207 61.5536 17.7377 61.7093 19.6009C61.8193 20.9153 61.7627 22.2883 61.7679 23.6136C61.7736 25.0683 61.8081 26.5621 61.7005 28.0091C61.5391 29.5822 60.5408 30.3956 59.056 30.6019C58.1375 30.6198 57.4595 30.5908 56.7005 29.9993C56.0705 29.5052 55.6427 28.7625 55.5775 27.9612C55.4817 26.7801 55.5455 25.5943 55.5247 24.4105C55.521 24.2132 55.512 23.9703 55.5247 23.7767C55.6965 21.1468 54.6292 17.5027 58.346 17.1116ZM58.473 19.0413C58.1851 19.1566 57.8674 19.3119 57.7367 19.6146C57.5353 20.0829 57.5944 26.4315 57.6331 27.2747C57.6449 27.5268 57.6503 27.8815 57.7513 28.1146C57.8547 28.3528 58.0637 28.5159 58.3021 28.6028C58.5158 28.6806 58.7205 28.6758 58.9427 28.6644C59.2339 28.5581 59.496 28.4226 59.64 28.1292C59.841 27.7186 59.8413 20.0405 59.6478 19.5452C59.5727 19.3543 59.3534 19.212 59.1702 19.1409C58.9485 19.0548 58.7088 19.0277 58.473 19.0413Z" fill="black"/>
<path d="M50.7818 17.1109C52.4398 17.0191 54.0461 17.676 54.1929 19.5464C54.3397 21.4243 54.2148 23.3419 54.2535 25.2271C54.2738 26.2129 54.2747 27.2368 54.1841 28.2163C54.0462 29.6514 52.9354 30.434 51.6324 30.6021C50.6705 30.6257 50.0075 30.6046 49.19 30.0074C48.5859 29.5714 48.1844 28.7237 48.1353 27.9849C47.9923 25.8329 48.1085 23.6272 48.0689 21.4712C48.0283 19.2548 48.1877 17.4376 50.7818 17.1109ZM51.0083 19.0406C50.6974 19.1711 50.3628 19.3113 50.2222 19.646C50.0194 20.1306 50.0462 26.3195 50.0962 27.2652C50.1099 27.5205 50.1276 27.8524 50.229 28.0894C50.3292 28.3238 50.5268 28.5005 50.7622 28.5913C50.9859 28.6779 51.2143 28.682 51.4497 28.6753C51.7806 28.5547 52.0355 28.3607 52.187 28.0347C52.2718 27.8523 52.2984 27.6745 52.313 27.4761C52.381 26.5487 52.4208 20.2553 52.2037 19.6861C52.1036 19.424 51.8672 19.2281 51.6138 19.1236C51.418 19.0428 51.2178 19.0315 51.0083 19.0406Z" fill="black"/>
<path d="M12.9561 17.185C14.5943 17.2779 17.0182 16.8185 18.2608 17.9292C18.7988 18.41 19.0648 19.2951 19.0636 19.9936C19.0603 21.8286 19.2929 22.3128 18.0616 23.6606C18.0391 23.8048 18.2368 23.8389 18.3731 23.9936C19.4116 25.1725 19.0193 27.0822 19.1192 28.5395C19.1715 29.3006 19.1944 29.6423 19.3429 30.3745L17.1739 30.3696C17.0856 29.5086 17.0664 28.867 17.0675 27.9995L17.0704 26.9594C17.0715 25.008 16.9821 24.8393 14.9854 24.8393C14.9567 26.6826 14.9542 28.5262 14.9776 30.3696C14.3139 30.3535 13.602 30.3678 12.9347 30.3696C13.0379 26.0386 12.8416 21.5317 12.9561 17.185ZM14.9923 19.0874C14.9592 20.3614 14.9544 21.6364 14.9786 22.9106C15.5903 22.9207 16.1889 23.0074 16.6895 22.6381C17.103 22.1604 17.0122 21.5989 17.0392 21.0161C17.1246 19.1718 16.6595 19.1192 14.9923 19.0874Z" fill="black"/>
<path d="M22.4111 17.1836C23.2877 17.2142 24.2832 17.1973 25.1689 17.1992C25.2367 17.5844 25.3117 17.9825 25.3633 18.3691C25.901 22.4039 26.7543 26.3615 27.3047 30.3975L25.2217 30.3936C25.1339 29.5992 25.0232 28.8074 24.8896 28.0195C24.8786 27.9853 24.8555 27.9705 24.8271 27.9414C24.2075 27.8914 23.1046 27.9181 22.4727 27.9365C22.3896 28.7738 22.2351 29.5645 22.1436 30.3906L20.1885 30.375C20.3267 28.9891 20.7811 26.8932 21.0273 25.4678L22.4111 17.1836ZM23.7363 19.6836C23.6391 20.073 23.5516 20.6924 23.4746 21.1133C23.1742 22.7452 22.9391 24.3891 22.7715 26.04L23.6113 26.041L24.5947 26.0391C24.515 25.4554 23.8004 19.7815 23.7363 19.6836Z" fill="black"/>
<path d="M4.88803 17.2029L7.01275 17.2017C7.03777 18.5847 7.01054 19.976 7.02668 21.3598C7.03234 21.8442 7.03102 22.331 6.99812 22.8143C7.06 22.7057 7.10729 22.5939 7.1627 22.4824C8.03337 20.73 8.88148 18.9671 9.74775 17.2128C10.4504 17.1933 11.1541 17.2266 11.8737 17.2032C11.6154 17.6194 11.3596 18.2485 11.1076 18.6932C10.4853 19.7914 9.91361 20.9059 9.33826 22.029C9.73713 23.0411 9.96774 24.2113 10.2663 25.2577C10.5694 26.3198 10.9016 27.3691 11.2103 28.4304C11.3676 29.0802 11.532 29.7282 11.7033 30.3745C10.989 30.3618 10.2744 30.365 9.56019 30.384C9.52771 30.1925 9.48198 30.0179 9.4184 29.8347C8.83659 28.1567 8.46009 26.3911 7.80526 24.7416C7.20159 25.731 6.99746 26.0953 7.01275 27.2571C7.0263 28.2869 7.02177 29.3473 7.02743 30.3797L4.87646 30.383L4.88803 17.2029Z" fill="black"/>
<path d="M41.6466 17.188C42.5971 17.2362 43.77 17.1739 44.7465 17.1977C45.3271 17.2118 46.5 17.2503 47.0352 17.208L47.0366 19.0916C45.9374 19.0982 44.8386 19.0987 43.7393 19.0932C43.7129 20.3108 43.7346 21.5954 43.7365 22.8179C44.6234 22.8079 45.539 22.8227 46.4282 22.8273L46.4296 24.6474C45.648 24.6108 44.6215 24.6269 43.8399 24.6388C43.7332 24.6814 43.7426 24.7592 43.7417 24.8608C43.7275 26.7009 43.7356 28.5906 43.7351 30.4273C43.0427 30.4164 42.338 30.4213 41.6447 30.4197C41.6036 28.6387 41.6324 26.7502 41.6319 24.9646C41.6239 22.3723 41.6286 19.7801 41.6466 17.188Z" fill="black"/>
<path d="M1.21857 17.1782L3.28524 17.1916C3.23568 21.5654 3.26792 26.0113 3.27802 30.3899C2.58798 30.3818 1.89785 30.3843 1.2079 30.3974C1.18284 26.0867 1.13847 21.4738 1.21857 17.1782Z" fill="black"/>
</svg>
