<svg width="36" height="36" viewBox="0 0 36 36" fill="none" xmlns="http://www.w3.org/2000/svg">
<path d="M22.1311 0.483811C31.733 2.74847 37.7215 12.3212 35.5582 21.9463C33.3949 31.5715 23.8859 37.6607 14.2386 35.599C4.59127 33.5372 -1.59788 24.0928 0.362199 14.4242C2.32224 4.75558 11.7008 -1.5328 21.3895 0.325307C21.6378 0.372924 21.885 0.425773 22.1311 0.483811Z" fill="black"/>
<path d="M17.1394 0.58897C26.7662 0.108481 34.9566 7.53003 35.4241 17.1575C35.8916 26.7849 28.4593 34.9654 18.8313 35.4201C9.22151 35.8741 1.05994 28.4587 0.593175 18.8494C0.126415 9.24008 7.53087 1.06855 17.1394 0.58897Z" fill="#FEFEFE"/>
<path d="M9.42969 11.7044C9.93497 11.651 11.2622 11.6838 11.8276 11.6836L16.7 11.6905C16.5077 11.8166 16.2547 11.9856 16.1492 12.1914C15.4902 13.4779 16.6238 15.2171 17.1375 16.3351C17.9854 18.1809 18.7458 19.8966 19.6127 21.7159C19.8167 22.144 20.0955 22.6646 20.2266 23.1027C20.1138 23.4042 19.8662 23.8504 19.7099 24.1581C19.4666 24.6425 19.2278 25.1292 18.9937 25.618C18.7322 26.1815 18.2777 27.0201 18.08 27.5472C17.9794 27.1335 17.5902 26.3998 17.3957 25.9968C16.9548 25.0833 16.4716 24.1785 16.029 23.2658L13.1816 17.3519C12.3369 15.6023 11.5067 13.6143 10.159 12.1907C9.98305 12.0049 9.52425 11.8486 9.42969 11.7044Z" fill="black"/>
<path d="M22.0957 11.6969C23.2106 11.6832 24.3256 11.6787 25.4406 11.6834C26.0522 11.6845 26.9077 11.6658 27.5069 11.7076C26.6415 12.0044 26.1628 12.4718 25.5854 13.1712C24.7498 14.1834 24.0714 15.1894 23.4946 16.3694L23.2348 16.908L23.1153 16.8566C23.4955 15.2754 23.7665 12.6568 22.0957 11.6969Z" fill="black"/>
<path d="M25.7636 4.7201C26.372 4.70441 26.8794 5.18199 26.9006 5.79026C26.9217 6.39849 26.4488 6.91017 25.8407 6.93684C25.2249 6.96382 24.7052 6.48345 24.6838 5.86737C24.6623 5.25133 25.1474 4.73599 25.7636 4.7201Z" fill="black"/>
<path d="M25.8309 4.85994C26.903 4.8479 26.6725 6.32092 25.7934 6.75191C24.4964 6.72353 25.0373 5.34316 25.8309 4.85994Z" fill="#FEFEFE"/>
<path d="M12.5939 3.462C12.9821 3.37544 13.3869 3.50471 13.6531 3.80029C13.9193 4.09587 14.0057 4.51192 13.8791 4.889C13.7526 5.26611 13.4327 5.54585 13.0421 5.62098C12.4503 5.73482 11.8767 5.35241 11.7542 4.76232C11.6317 4.17222 12.0057 3.5931 12.5939 3.462Z" fill="black"/>
<path d="M12.6634 3.6167C13.3991 3.68414 14.1439 5.11201 12.9988 5.47579C12.1502 5.34355 11.5914 3.869 12.6634 3.6167Z" fill="#FEFEFE"/>
<path d="M11.0835 29.5527C11.6499 29.8658 12.5826 30.1281 12.6539 30.905C12.6752 31.1609 12.5917 31.4145 12.4227 31.6078C12.2009 31.8662 11.9673 31.9553 11.6399 31.9821C11.3097 31.9533 10.3497 31.6413 10.1553 31.422L10.1726 31.36L10.3904 31.3001C10.5708 31.0509 11.073 30.095 11.1452 29.8115C11.1048 29.6976 11.0971 29.6742 11.0835 29.5527Z" fill="black"/>
<path d="M11.5343 29.9224C12.5492 30.3268 12.5287 31.3303 11.6184 31.7858C11.3616 31.7734 10.9702 31.7741 10.8081 31.5605C10.8042 31.226 11.3565 30.2581 11.5343 29.9224Z" fill="#FEFEFE"/>
<path d="M16.056 2.63354C16.7816 2.55267 17.1775 2.92429 16.619 3.55393C17.3968 3.69067 17.4065 4.41583 16.6739 4.62999C16.4974 4.65704 15.7505 4.79329 15.6486 4.7433C15.7342 4.3479 15.7151 3.07058 15.394 2.81342L15.3968 2.75833C15.4933 2.70992 15.9244 2.65386 16.056 2.63354Z" fill="black"/>
<path d="M16.0269 3.64453C16.5404 3.6613 16.9965 3.86726 16.7181 4.45766C16.4913 4.50411 16.3539 4.51462 16.1258 4.53139C16.0796 4.31967 16.0522 3.88266 16.0269 3.64453Z" fill="#FEFEFE"/>
<path d="M15.9243 2.76473C16.5411 2.75245 16.5817 2.93537 16.4457 3.47526C15.8435 3.58011 15.9324 3.24567 15.9243 2.76473Z" fill="#FEFEFE"/>
<path d="M32.1191 11.562C32.1648 11.6034 32.3256 12.1164 32.3679 12.2183C32.6094 12.7983 32.5466 13.0158 31.9991 13.296L31.5792 13.0464C31.3788 13.2878 30.9841 13.9585 30.8538 14.0519L30.8164 13.9906C30.805 13.5964 30.8317 13.4701 31.0481 13.1555C31.154 12.9945 31.3925 12.7323 31.3247 12.5481C31.1803 12.4928 31.0549 12.5836 30.9239 12.63C30.6682 12.7207 30.6374 12.8072 30.4926 13.0298C30.44 12.933 30.2217 12.3676 30.2366 12.276L30.3101 12.2645C30.4793 12.4467 30.5741 12.4278 30.8115 12.3134C31.2504 12.1023 31.8813 12.0174 32.1191 11.562Z" fill="black"/>
<path d="M32.0444 12.1812C32.4342 12.1946 32.3843 12.8157 31.8356 12.9004C31.7198 12.8832 31.7015 12.8796 31.5967 12.8283C31.4992 12.7325 31.4874 12.5889 31.46 12.4509C31.6733 12.3259 31.815 12.2721 32.0444 12.1812Z" fill="#FEFEFE"/>
<path d="M5.06864 9.35742C5.1203 9.41221 5.17376 9.54426 5.26234 9.61467C5.64033 9.91528 6.12118 10.1828 6.55495 10.3909C6.61591 10.4201 6.88722 10.3844 6.94494 10.4309C6.81464 10.6225 6.69843 10.8332 6.56527 11.0324L6.51605 11.0257C6.44572 10.687 6.06624 10.5298 5.78267 10.3541C5.63046 10.6879 5.42784 10.9582 5.25849 11.349C5.74331 11.656 5.64349 11.5961 6.19822 11.6887C6.19902 11.7971 6.03268 12.0092 5.9628 12.1134C5.92878 12.2077 5.92916 12.2325 5.85201 12.2875C5.51947 11.7954 5.19833 11.7367 4.72029 11.4584C4.31979 11.2252 4.48377 11.288 4.08117 11.2601L4.05713 11.1909C4.07054 11.0595 4.28028 10.8428 4.37606 10.6736L4.39504 10.6398L4.4438 10.6558C4.53776 10.9971 4.75778 11.0479 5.0955 11.2494C5.32688 10.917 5.46869 10.6637 5.60878 10.2852C5.51159 10.2207 5.3252 10.1013 5.22214 10.0637C5.08929 10.0153 4.98135 10.0295 4.84282 9.9551C4.83856 9.84651 5.01035 9.50144 5.06864 9.35742Z" fill="black"/>
<path d="M22.6594 3.17676C22.8095 3.22141 23.068 3.3447 23.2195 3.41153C23.3671 4.01443 23.6245 4.63531 23.8185 5.24079C23.9347 4.9201 24.1239 4.45361 24.2082 4.11513C24.2184 4.07451 24.1645 3.90596 24.1465 3.85566L24.1394 3.83627L24.1838 3.80792C24.3306 3.83071 24.5503 3.89567 24.6443 4.01378C24.5946 4.18329 24.3903 4.22375 24.3247 4.35676C24.1921 4.62525 23.8785 5.75354 23.7024 5.89139L23.6511 5.85062C23.5087 5.24887 23.1376 4.4863 22.9871 3.81166C22.789 4.20481 22.3152 4.93382 22.5668 5.33646L22.5856 5.36603L22.547 5.38824C22.3435 5.30114 22.2053 5.25371 21.9961 5.18745L21.9844 5.14105C22.4631 4.81449 22.5647 4.28555 22.773 3.75641C22.8665 3.51909 22.7802 3.37835 22.6594 3.17676Z" fill="black"/>
<path d="M5.18821 22.1885C5.31542 22.2904 5.35306 22.563 5.39996 22.746C5.09768 23.3041 4.82759 23.8759 4.52916 24.4363C4.83929 24.3195 5.14329 24.2107 5.44439 24.07C5.7749 23.9155 5.64491 23.8816 5.81472 23.6421C5.89435 23.6888 6.07505 24.0794 6.08123 24.1866L6.02316 24.227C5.9614 24.1849 5.89827 24.1448 5.83388 24.1067C5.32948 24.2868 4.76583 24.5323 4.27945 24.7532C4.17567 24.7836 4.13593 24.806 4.03237 24.7768L4.00879 24.7194C4.15829 24.3646 4.79745 23.1093 5.00731 22.8232C4.61568 22.9642 4.19071 23.1003 3.83528 23.3198C3.75051 23.3721 3.70174 23.4834 3.6249 23.5664L3.55426 23.5611C3.48686 23.4273 3.42396 23.2968 3.34326 23.1702L3.38155 23.1163C3.96684 23.0973 4.39101 22.9052 4.91621 22.6574C5.11616 22.563 5.13601 22.3815 5.18821 22.1885Z" fill="black"/>
<path d="M21.8397 30.9277C21.9074 30.9244 21.873 30.9209 21.9442 30.9583C21.7414 31.4789 22.0954 32.5318 22.262 33.1023C21.7256 32.7511 20.8762 32.1314 20.3755 31.7401C20.4514 32.1225 20.5063 32.568 20.6099 32.9466C20.6353 33.0395 20.7858 33.0692 20.8861 33.1064L20.9099 33.1589C20.8456 33.2465 20.626 33.315 20.512 33.3601C20.4374 33.3765 20.4044 33.3765 20.3276 33.3795L20.3063 33.3325C20.5367 33.0204 20.2921 32.2158 20.2057 31.8502C20.1711 31.7035 19.9587 31.5035 19.9429 31.3625C20.0386 31.2999 20.2188 31.3088 20.3395 31.3051C20.849 31.6821 21.3654 31.9993 21.8718 32.4034C21.7968 32.0687 21.7311 31.6122 21.6096 31.2824C21.5974 31.249 21.4909 31.2346 21.4472 31.1033C21.5284 31.0154 21.7186 30.9677 21.8397 30.9277Z" fill="black"/>
<path d="M8.70565 5.58691C8.81988 5.77151 8.6972 5.84493 8.78749 5.97039C9.14247 6.46345 9.61643 6.88148 9.98603 7.36524C9.33026 7.34805 8.31768 7.1795 7.64153 7.08512C7.95295 7.36013 8.25421 7.75351 8.55775 8.0446C8.61452 8.09904 8.80422 8.07237 8.88705 8.06293L8.89695 8.0963C8.77145 8.25518 8.64469 8.41307 8.51664 8.56989L8.45671 8.48374C8.48246 8.30837 8.48947 8.28669 8.36756 8.12716C8.1105 7.79081 7.78436 7.43347 7.48783 7.13256C7.45899 7.10326 7.17667 7.05895 7.11914 7.04954C7.12371 6.98816 7.31939 6.78657 7.37593 6.72184C7.89074 6.74363 8.81942 6.88925 9.37949 6.95059C9.19802 6.72424 8.80909 6.20676 8.54914 6.0389C8.5294 6.02617 8.40859 6.072 8.29833 6.01188C8.31852 5.8969 8.59413 5.68476 8.70565 5.58691Z" fill="black"/>
<path d="M31.3728 19.6401C31.4429 19.698 31.5385 19.816 31.5984 19.8413C32.1561 20.076 32.992 20.1921 33.5929 20.3117C32.9006 20.6554 32.1881 21.0614 31.5084 21.4363C31.9115 21.5183 32.6149 21.771 32.9703 21.6021L33.045 21.567C33.1002 21.6597 33.056 22.0127 33.0359 22.1271L32.9951 22.1378L32.9658 22.0574C32.7353 21.8176 31.7077 21.644 31.3534 21.6189C31.2181 21.6093 31.0276 21.8421 30.9419 21.9362C30.9884 21.7216 31.0425 21.5203 31.0992 21.3085C31.4109 21.0915 32.5208 20.4739 32.8576 20.3341C32.4731 20.2977 32.0319 20.1312 31.6517 20.1039C31.6155 20.1013 31.4372 20.1992 31.3907 20.2251L31.3675 20.2031C31.3648 20.0158 31.3579 19.8267 31.3728 19.6401Z" fill="black"/>
<path d="M24.9515 29.5161C25.1262 29.5261 25.2876 29.6949 25.348 29.849C25.0856 29.9341 24.8724 29.5426 24.3938 29.9192C24.2267 30.0495 24.1203 30.2425 24.0993 30.4534C24.044 30.986 24.441 31.5755 24.9822 31.629C25.3508 31.6655 25.83 31.4293 25.5511 31.011C25.4772 30.9003 25.2683 30.9102 25.1552 30.9035L25.142 30.8422C25.2294 30.7456 25.4646 30.6689 25.5952 30.6163L25.7226 30.5175L25.7802 30.5264C25.8906 30.913 25.8631 30.9342 26.1078 31.2612C25.6243 31.6235 24.9995 32.0021 24.3812 31.743C24.1321 31.6386 23.9352 31.4457 23.8358 31.1933C23.7301 30.9179 23.7402 30.6116 23.8636 30.3437C24.0719 29.8908 24.5179 29.6827 24.9515 29.5161Z" fill="black"/>
<path d="M5.63069 25.8936C5.27339 25.8966 5.05592 25.8924 4.85387 26.1956L4.79695 26.1834C4.73348 26.0593 4.66993 25.9178 4.57666 25.8162L4.58401 25.7626C5.37519 25.838 6.15837 25.4611 7.00423 25.4043C6.70644 25.8467 5.72491 27.0377 5.62299 27.402L5.58448 27.3924C5.18736 26.5677 5.44594 26.9678 5.85399 26.3498C5.79208 26.2204 5.70659 26.055 5.65351 25.9258L5.63069 25.8936Z" fill="black"/>
<path d="M5.63086 25.8934C5.80985 25.7527 6.17595 25.7354 6.42726 25.6528C6.3122 25.8093 6.19996 25.9665 6.07388 26.1143C5.89436 26.1244 5.90845 25.9608 5.65368 25.9256L5.63086 25.8934Z" fill="#FEFEFE"/>
<path d="M30.3761 8.91662C30.4817 8.8991 30.4965 8.89944 30.6021 8.91834C30.6146 8.93628 30.6276 8.95423 30.6402 8.97217C30.3182 9.51986 29.8328 10.0843 29.5326 10.6394C29.4815 10.7337 29.4529 11.0373 29.4542 11.0256C29.358 10.8071 29.2107 10.6029 29.1462 10.427C29.1725 10.3352 29.4248 10.1319 29.5517 9.95824L29.5837 9.8788C29.5802 9.75029 29.3876 9.49243 29.3082 9.36647C28.9394 9.44275 28.9471 9.41116 28.6649 9.66742C28.5733 9.64936 28.3005 9.37436 28.1821 9.27495C29.0558 9.35424 29.5372 9.07215 30.3761 8.91662Z" fill="black"/>
<path d="M29.9668 9.13281L30.0308 9.14245L30.0666 9.19122C30.0212 9.32522 29.8441 9.59581 29.7062 9.6453C29.5667 9.52593 29.5545 9.55134 29.5005 9.40009C29.5789 9.25302 29.798 9.19834 29.9668 9.13281Z" fill="#FEFEFE"/>
<path d="M13.7293 32.0062C13.4872 32.2594 13.2562 32.4062 13.3738 32.7722L13.3445 32.8139C13.2322 32.7745 12.9072 32.6419 12.8486 32.5447C12.9398 32.499 13.057 32.4778 13.1073 32.4358C13.3778 32.2102 14.1293 31.0391 14.4322 30.9863C14.5074 31.0433 14.5272 31.0833 14.5371 31.1916C14.5894 31.7574 14.5728 32.3993 14.6653 32.9579L14.8923 33.2392C14.7066 33.1756 14.2264 33.0317 14.0968 32.9111C14.1491 32.7703 14.4238 32.7796 14.2438 32.4317C14.1977 32.3425 14.1889 32.2798 14.099 32.1928C13.9773 32.1629 13.8402 32.0718 13.7293 32.0062Z" fill="black"/>
<path d="M14.2222 31.3892C14.2291 31.5723 14.2629 31.8813 14.1971 32.0373L14.1089 32.1064L14.0992 32.1927C13.9775 32.1627 13.8404 32.0717 13.7295 32.006L13.7789 31.9052C13.9402 31.6843 14.0307 31.5851 14.2222 31.3892Z" fill="#FEFEFE"/>
<path d="M13.7295 32.0061L13.7789 31.9053C13.9224 31.96 14.0494 31.9955 14.1971 32.0374L14.1089 32.1065L14.0992 32.1928C13.9775 32.1629 13.8404 32.0718 13.7295 32.0061Z" fill="#151418"/>
<path d="M17.7114 2.52194C18.0041 2.51002 18.2141 2.52735 18.5074 2.55047L18.2516 2.78648C18.226 3.21401 18.1657 3.70344 18.259 4.12174C18.3739 4.63628 19.0843 4.60817 19.2512 4.14338C19.3907 3.75469 19.3991 3.29493 19.3714 2.88561C19.3675 2.82882 19.1977 2.66047 19.1633 2.57555C19.2828 2.53978 19.4533 2.55251 19.583 2.55476C19.6485 2.54832 19.6975 2.55504 19.7631 2.55939L19.7792 2.58634C19.2665 3.09518 19.8148 4.04467 19.2131 4.51795C19.035 4.65796 18.59 4.67492 18.3748 4.62474C17.4311 4.40471 18.0707 3.26998 17.7888 2.67378C17.759 2.61353 17.7497 2.63409 17.7114 2.52194Z" fill="black"/>
<path d="M4.69692 19.6455C4.76298 19.7304 4.77514 20.2317 4.76458 20.3573C4.35436 20.3044 3.1146 20.366 2.97336 20.8364C2.67786 21.8206 4.14969 21.5124 4.63638 21.3553C4.75811 21.316 4.80619 21.1556 4.84646 21.0461L4.89637 21.0489L5.00232 21.4312C5.05825 21.5228 5.08706 21.5512 5.08557 21.6583C4.96887 21.6713 4.9504 21.6302 4.82901 21.5582C4.15426 21.6418 3.01466 22.0181 2.79242 21.1539C2.42449 19.7233 4.33527 20.2568 4.6808 19.6733L4.69692 19.6455Z" fill="black"/>
<path d="M28.6607 26.2725C28.7645 26.3764 28.6509 26.5184 28.8192 26.699C29.1164 27.0176 29.6278 27.3982 29.7699 27.8085C29.8255 28.0275 29.6693 28.308 29.5554 28.4699C28.8941 29.4097 28.1452 28.3573 27.6032 27.899C27.5355 27.8417 27.3711 27.9152 27.2539 27.8329C27.2725 27.7599 27.3892 27.6678 27.4537 27.6041C27.5262 27.5328 27.6617 27.3397 27.7406 27.2435C27.7576 27.3171 27.7766 27.3902 27.7974 27.4629C27.8689 27.7066 28.5263 28.3106 28.7655 28.4333C29.2281 28.6706 29.4587 28.3745 29.6503 27.979C29.4806 27.5342 29.0668 27.0896 28.6514 26.8364C28.5618 26.7818 28.3247 26.7612 28.2572 26.6931C28.4301 26.5382 28.5216 26.4623 28.6607 26.2725Z" fill="black"/>
<path d="M10.4216 4.49976C10.5593 4.413 10.7252 4.30156 10.8636 4.22266C10.7462 4.87714 10.8012 5.87399 10.7433 6.56402C11.0476 6.42835 11.379 6.28075 11.6059 6.02955C11.673 5.95526 11.6946 5.74811 11.7108 5.64284L11.7698 5.64303C12.2071 6.17639 10.7191 6.75155 10.3365 6.98667C10.3879 6.25118 10.3992 5.3252 10.4686 4.63227C9.98548 4.8089 9.82595 5.02245 9.60002 5.45988C9.51784 5.40239 9.46473 5.19253 9.42773 5.08452C9.73535 4.90301 10.1104 4.649 10.4216 4.49976Z" fill="black"/>
<path d="M20.4765 2.72956C20.6062 2.72507 21.6634 2.94697 21.818 2.99885C21.8845 3.11892 21.8811 3.2333 21.8168 3.34988L21.7501 3.34211C21.7049 3.25722 21.6767 3.2083 21.6217 3.12947C21.4544 3.04731 21.1989 3.03679 21.0071 3.01664C20.9603 3.25562 20.9192 3.49573 20.8841 3.73671C21.3543 3.86591 21.3206 3.70147 21.5383 3.75222C21.5797 3.86107 21.511 4.0451 21.4781 4.16869C21.3196 4.09771 21.0411 3.93171 20.8603 3.84111L20.7112 4.404C20.6811 4.5428 20.6737 4.49574 20.7116 4.61172C20.8942 4.74998 21.2091 4.80908 21.44 4.87137C21.5136 4.76904 21.5581 4.68476 21.6752 4.64094L21.7174 4.68415C21.7179 4.82878 21.6273 4.93367 21.5452 5.05524C21.1819 4.93245 20.2086 4.79761 20.0947 4.65035C20.346 4.43981 20.3391 4.42888 20.4121 4.10804C20.4897 3.76658 20.5951 3.44551 20.6158 3.0909L20.6175 3.05837C20.6264 2.90291 20.5744 2.85388 20.4765 2.72956Z" fill="black"/>
<path d="M6.58018 7.59326C6.67748 7.64851 6.79685 7.70661 6.79506 7.82552C6.54871 7.9325 6.24719 8.01008 6.19907 8.29411C6.27496 8.58306 6.46416 8.65972 6.71612 8.82851C6.95169 8.60882 6.98762 8.57807 6.95089 8.25338L6.9912 8.22847C7.15804 8.26085 7.38595 8.45817 7.40591 8.6321C7.32469 8.60528 7.29028 8.59773 7.20574 8.58436C7.05966 8.68117 6.92936 8.79452 6.79491 8.90665C7.01543 9.09597 7.22079 9.26887 7.4247 9.47617C7.64693 9.26288 7.83096 9.12367 7.90327 8.82222C7.90106 8.80424 7.89904 8.78621 7.89721 8.76819C7.88437 8.64322 7.87096 8.59811 7.93783 8.51513C8.03711 8.57415 8.10139 8.74377 8.15427 8.85377C7.90891 9.20284 7.50055 9.68477 7.22898 10.0275L7.18562 10.0256C7.15487 9.91923 7.15156 9.82105 7.14211 9.7109C7.01939 9.54757 6.26254 8.94688 6.04716 8.79311C5.99001 8.75227 5.81414 8.73093 5.70068 8.67622C5.71768 8.55971 6.4455 7.73686 6.58018 7.59326Z" fill="black"/>
<path d="M30.7869 22.4253C30.9031 22.4453 31.0075 22.4489 31.0955 22.5209C30.7884 22.9132 30.7953 22.6632 30.5419 23.2803L31.3058 23.545C31.5413 23.055 31.3275 23.1692 31.4125 22.8539C31.5378 22.8261 31.699 22.9811 31.7512 23.092C31.8503 23.2362 31.3553 23.4253 31.4571 23.5267C32.0248 24.0914 32.6991 23.586 32.2743 22.903L32.3558 22.8645C32.4854 22.893 32.5947 23.019 32.6942 23.1138C32.5643 23.3309 32.2473 24.1704 32.152 24.4264L32.0918 24.4198C31.8548 24.0358 30.9519 23.7713 30.4977 23.5939C30.3975 23.6276 30.3705 23.6524 30.2859 23.7121L30.2451 23.682C30.2813 23.505 30.6878 22.6209 30.7869 22.4253Z" fill="black"/>
<path d="M3.82484 12.0166C3.95983 12.0434 4.04525 12.0406 4.10781 12.1672C4.00524 12.2377 3.7278 12.4493 3.65838 12.5475C3.39473 12.9206 3.53905 13.3484 3.86786 13.589C4.13741 13.784 4.47467 13.8611 4.80214 13.8025C5.58753 13.6647 5.34906 12.9828 5.262 12.4618C5.37276 12.4795 5.39615 12.5419 5.48988 12.6406C5.72267 12.862 5.44538 13.5524 5.29858 13.7702C4.73943 14.5996 3.51616 14.2619 3.38517 13.2917C3.31819 12.7957 3.53764 12.3965 3.82484 12.0166Z" fill="black"/>
<path d="M29.9445 24.1582C30.0596 24.1994 30.1925 24.2359 30.2352 24.3524C30.0413 24.5919 29.9696 24.4547 29.6671 24.9205C30.0938 25.2367 30.6848 25.5827 31.1424 25.8542C31.2837 25.852 31.265 25.833 31.4037 25.7415L31.4597 25.7665C31.435 25.9181 31.1625 26.3451 31.0623 26.4844C30.948 26.2533 31.0658 26.2953 30.8684 26.1333C30.5663 25.9352 29.6466 25.21 29.3238 25.4329C29.2517 25.6076 29.3345 25.7896 29.2976 26.0177C29.212 26.1035 29.2547 26.0779 29.109 26.097L29.0661 26.0619C28.9444 25.619 29.7921 24.6478 29.9445 24.1582Z" fill="black"/>
<path d="M2.62554 15.7153C2.69321 15.7651 2.77288 15.8754 2.8967 15.9599C3.5167 16.3832 4.15757 16.7066 4.82805 17.0373C4.28673 17.1416 3.18462 17.5304 2.6758 17.7471C2.64094 17.7601 2.51197 17.8553 2.47314 17.8827C2.51578 17.6698 2.53791 17.4424 2.56363 17.2262C2.64795 17.1449 2.77661 17.2761 2.89213 17.2446C3.30985 17.1306 3.7115 16.9942 4.13445 16.8936C3.7909 16.6892 3.45136 16.4808 3.09958 16.2908C2.70262 16.0762 2.83456 16.2556 2.63008 16.325C2.58741 16.25 2.62059 15.8305 2.62554 15.7153Z" fill="black"/>
<path d="M32.0599 14.7179C31.7855 14.7972 31.1089 14.8232 31.2788 15.2656C31.3489 15.4488 31.5528 15.6128 31.6838 15.7659L31.6564 15.829C31.3322 15.8997 31.2403 15.6415 31.2 15.3788C31.1699 15.181 30.9523 14.4583 31.0395 14.3166L31.1066 14.3334L31.219 14.5359C31.384 14.5589 32.5083 14.243 32.7354 14.1878C32.8352 14.1636 32.9106 14.0392 32.9716 13.9526C33.052 14.0639 33.0341 14.3105 33.0706 14.4575C33.1449 14.7545 33.4669 15.355 32.9525 15.421L32.9118 15.3684C32.9887 15.1609 33.0821 14.9624 33.0573 14.7444C32.8874 14.4662 32.4092 14.6429 32.1456 14.7218L32.0599 14.7179Z" fill="black"/>
<path d="M8.07988 27.0981C8.18397 27.1346 8.49486 27.4821 8.57457 27.5826C8.50423 27.7697 8.4062 27.6551 8.30181 27.8925C8.12819 28.2872 8.02814 28.6547 7.82568 29.0411C8.21189 28.8549 8.72647 28.7102 9.09867 28.476C9.15433 28.4409 9.22138 28.2977 9.30741 28.2141C9.45791 28.3942 9.54638 28.4811 9.71626 28.6393C9.61739 28.6766 9.47303 28.6217 9.37451 28.5915C8.91975 28.7547 7.72909 29.2081 7.35156 29.4359C7.53814 28.9703 8.11211 27.5227 8.07988 27.0981Z" fill="black"/>
<path d="M17.0955 31.4313C17.279 31.4201 17.5077 31.3916 17.6844 31.442C17.8412 31.4867 17.9714 31.6851 17.894 31.8407C17.6317 31.6174 17.3559 31.3321 17.0438 31.6696C16.9656 32.1182 17.8084 32.3877 17.8986 32.912C17.9752 33.3576 17.4687 33.5339 17.1041 33.5823C16.8836 33.5159 16.7848 33.4542 16.5878 33.3434C16.527 33.1828 16.4853 32.9073 16.4526 32.7305C16.6789 33.0575 17.1422 33.8164 17.5388 33.2088C17.6888 32.6402 15.8717 31.9385 17.0955 31.4313Z" fill="black"/>
<path d="M31.6462 16.1777C31.7391 16.1783 31.7544 16.1788 31.8424 16.2073C31.8694 16.3498 31.5239 16.527 31.5018 16.7364C31.4789 16.9506 31.5139 17.1525 31.7746 17.1679C32.2283 17.1947 32.2904 16.5453 32.6028 16.2937C32.7118 16.2045 32.8532 16.1651 32.9926 16.1851C33.4601 16.2553 33.6784 17.1178 33.3542 17.3496C33.2075 17.3515 33.1846 17.3798 33.0997 17.3025C33.2707 17.1134 33.4136 16.8209 33.2932 16.5763C32.844 16.2386 32.6173 16.982 32.3933 17.2549C31.9452 17.8008 31.6263 17.5105 31.3608 16.9805C31.3661 16.6391 31.3113 16.36 31.6462 16.1777Z" fill="black"/>
<path d="M27.843 6.32422C28.3577 6.34411 28.512 6.49091 28.7616 6.91652C28.6767 7.01082 28.6373 7.05376 28.5382 7.13579C28.4199 7.10348 28.5229 6.78352 28.4035 6.65017C28.2672 6.49796 28.0034 6.49011 27.8498 6.61058C27.623 7.09883 28.5305 8.08193 27.3132 8.20084C26.8721 8.04512 26.7527 7.91181 26.5439 7.50079L26.8406 7.02183C26.8164 7.33143 26.7237 7.76718 27.0581 7.94843C27.2549 8.05095 27.5132 7.98942 27.5436 7.74051C27.6047 7.24026 27.1712 6.53998 27.843 6.32422Z" fill="black"/>
<path d="M26.312 28.5591L26.3604 28.6253C26.3392 28.7122 26.2957 28.8274 26.3503 28.9078C26.651 29.3503 27.0027 29.7741 27.335 30.1907C27.6788 30.0111 27.9046 29.8716 27.9674 29.4593L27.9726 29.4232L28.0124 29.4288L28.1943 29.6885C28.0374 29.8641 27.9598 29.9296 27.7807 30.0764C27.5542 30.2497 27.1861 30.545 26.9509 30.6824C26.8819 30.5751 26.9373 30.5897 26.977 30.4003C26.8789 30.1561 26.2053 29.3003 25.9576 29.102C25.9431 29.0904 25.8208 29.1324 25.7261 29.0809C25.8148 28.9491 26.1708 28.6748 26.312 28.5591Z" fill="black"/>
<path d="M31.4278 10.2178C31.5196 10.2799 31.7196 10.7003 31.7722 10.8146C31.6712 10.8419 31.5706 10.8709 31.4704 10.9017C31.0513 11.0314 30.1065 11.5016 29.8984 11.8978C29.8798 11.8712 29.6108 11.2569 29.6089 11.227C29.7419 11.1759 29.7582 11.2419 29.8363 11.2312C30.3088 11.1667 30.8909 10.7502 31.2967 10.4834C31.3744 10.4322 31.4061 10.3049 31.4278 10.2178Z" fill="black"/>
<path d="M19.1491 31.4131L19.1859 31.4428C18.9853 31.8755 19.0773 33.0885 19.3629 33.4791C19.0983 33.4754 18.9358 33.4697 18.673 33.5087L18.6402 33.4902C18.9169 33.1696 18.7165 32.2515 18.6733 31.8385C18.6581 31.6932 18.5462 31.5608 18.5658 31.4474C18.7617 31.4285 18.9528 31.4215 19.1491 31.4131Z" fill="black"/>
<path d="M9.9234 28.7744C10.0335 28.8371 10.4533 29.0561 10.5021 29.129C10.0569 29.5149 9.6228 30.0422 9.38254 30.592C9.3572 30.6499 9.39652 30.8266 9.41115 30.895C9.25224 30.8212 8.89524 30.5712 8.77344 30.4395C8.78338 30.3384 9.02535 30.3607 9.07084 30.2993C9.36345 29.9045 9.9836 29.2756 9.9234 28.7744Z" fill="black"/>
<path d="M2.94498 14.5581C3.07018 14.5964 3.07997 14.7177 3.15095 14.7482C3.60334 14.9424 4.16067 14.9952 4.64514 15.0826C4.66991 15.087 4.85656 14.9772 4.88704 14.9588C4.94411 15.0626 4.89984 15.4563 4.86071 15.5768L4.81111 15.5847C4.54349 15.4115 3.36541 15.1727 3.03265 15.1431C2.92334 15.1898 2.83388 15.3278 2.75635 15.4265C2.81011 15.1244 2.87282 14.8567 2.94498 14.5581Z" fill="black"/>
<path d="M32.0601 14.7178L32.1458 14.7217C32.2658 15.1306 32.371 15.028 32.4769 15.2769L32.4498 15.3422C32.3077 15.3502 32.2094 15.4072 32.0955 15.3713C32.057 15.2983 32.0719 14.8786 32.0601 14.7178Z" fill="black"/>
<path d="M23.1149 16.8564L23.2345 16.9078L22.9785 17.4365C23.0031 17.2387 23.0618 17.0486 23.1149 16.8564Z" fill="#151418"/>
</svg>
