<svg width="36" height="36" viewBox="0 0 36 36" fill="none" xmlns="http://www.w3.org/2000/svg">
<path d="M17.3864 31.8463C15.068 32.4712 13.4179 32.9955 11.1661 31.8221C6.64088 29.4641 4.1352 26.0882 2.39246 21.3932C0.715618 16.8766 1.38341 14.0718 3.23246 9.68265C4.58657 6.46846 8.19604 2.64905 11.4817 1.49991C14.9765 0.277742 16.4981 1.51463 19.3605 2.8727C22.3021 2.6329 23.976 3.51936 26.4661 4.70122C33.7843 6.38556 35.3057 12.3726 33.8312 19.1823C32.9796 23.1154 30.7251 26.8762 27.2367 29.0057C24.8314 30.4688 22.1148 31.3351 19.311 31.5331C18.5426 31.7175 18.1735 31.7775 17.3864 31.8463Z" fill="#002F01"/>
<path d="M19.3598 2.87286C22.3015 2.63305 23.9754 3.51952 26.4655 4.70138C33.7838 6.38572 35.3051 12.3728 33.8306 19.1824C32.979 23.1156 30.7245 26.8764 27.2361 29.0059C24.8308 30.469 22.1142 31.3353 19.3106 31.5331C18.542 31.7177 18.1729 31.7777 17.3857 31.8465C17.6927 31.4778 18.1531 31.1665 18.5554 30.9018C26.6948 25.5448 28.7087 14.1699 22.7424 6.397C21.7356 5.0854 20.459 4.07259 19.3598 2.87286Z" fill="#02B200"/>
<path d="M26.465 4.70068C33.7833 6.38502 35.3046 12.3721 33.8301 19.1817C32.9785 23.115 30.724 26.8755 27.2355 29.005C24.8303 30.4681 22.1136 31.3344 19.3101 31.5324C21.701 30.4088 22.5284 30.1515 24.7279 28.6134C28.3599 26.0738 29.7985 23.0248 30.5536 18.6633C31.124 15.3697 30.3751 10.6672 28.7467 7.72136C28.1549 6.65097 27.2025 5.69591 26.465 4.70068Z" fill="#E7CE00"/>
<path d="M16.875 2.87061C17.9828 2.96735 21.307 6.92509 22.064 8.03294C23.9327 10.7672 25.6002 15.6442 24.8729 18.981C23.9758 23.095 21.0207 27.6674 17.4969 29.9936C16.6329 30.5476 14.7767 31.4806 13.7668 31.2668C18.7127 26.634 23.5325 20.257 14.7821 15.9759C6.96214 12.15 12.9927 6.28887 16.875 2.87061Z" fill="#02B200"/>
<path d="M13.5791 2.18799L13.7516 2.21057C13.617 2.67531 11.0486 4.94043 10.5756 5.63326C8.38652 8.8393 6.58883 13.1091 10.5474 15.8582C12.2834 17.2393 16.444 18.4001 16.8741 20.9605C17.5246 24.8332 15.8773 27.3905 12.3661 28.354C3.03936 28.9853 1.33662 15.7709 4.69304 9.48283C6.82757 5.48393 9.44336 3.6731 13.5791 2.18799Z" fill="#C96200"/>
</svg>
