<svg width="60" height="36" viewBox="0 0 60 36" fill="none" xmlns="http://www.w3.org/2000/svg">
<path d="M6.64698 10.9024V11.0464C6.48378 11.0512 6.35898 11.0704 6.27258 11.104C6.19098 11.1328 6.13578 11.1904 6.10698 11.2768C6.07818 11.3584 6.06378 11.488 6.06378 11.6656V15.3232C6.06378 15.472 6.07338 15.5824 6.09258 15.6544C6.11658 15.7264 6.15978 15.7744 6.22218 15.7984C6.28938 15.8224 6.38778 15.8344 6.51738 15.8344H6.87018C7.03338 15.8344 7.18698 15.796 7.33098 15.7192C7.47498 15.6424 7.60458 15.5344 7.71978 15.3952C7.83498 15.2512 7.93098 15.0808 8.00778 14.884C8.08458 14.6872 8.14218 14.4688 8.18058 14.2288H8.34618C8.33178 14.392 8.32458 14.6032 8.32458 14.8624C8.32458 14.9728 8.32698 15.1336 8.33178 15.3448C8.33658 15.556 8.35098 15.7744 8.37498 16C8.13018 15.9904 7.85418 15.9856 7.54698 15.9856C7.23978 15.9808 6.96618 15.9784 6.72618 15.9784C6.60618 15.9784 6.45258 15.9784 6.26538 15.9784C6.07818 15.9784 5.87658 15.9808 5.66058 15.9856C5.44458 15.9856 5.22618 15.988 5.00538 15.9928C4.78458 15.9928 4.57578 15.9952 4.37898 16V15.856C4.53258 15.8464 4.64778 15.8272 4.72458 15.7984C4.80138 15.7696 4.85178 15.712 4.87578 15.6256C4.90458 15.5392 4.91898 15.4096 4.91898 15.2368V11.6656C4.91898 11.488 4.90458 11.3584 4.87578 11.2768C4.85178 11.1904 4.79898 11.1328 4.71738 11.104C4.64058 11.0704 4.52778 11.0512 4.37898 11.0464V10.9024C4.49898 10.9072 4.65978 10.912 4.86138 10.9168C5.06778 10.9216 5.28618 10.924 5.51658 10.924C5.72778 10.924 5.93418 10.9216 6.13578 10.9168C6.34218 10.912 6.51258 10.9072 6.64698 10.9024ZM11.1853 10.888L12.9349 15.3952C13.0021 15.568 13.0765 15.688 13.1581 15.7552C13.2445 15.8176 13.3213 15.8512 13.3885 15.856V16C13.2445 15.9904 13.0741 15.9856 12.8773 15.9856C12.6853 15.9808 12.4909 15.9784 12.2941 15.9784C12.0733 15.9784 11.8645 15.9808 11.6677 15.9856C11.4709 15.9856 11.3149 15.9904 11.1997 16V15.856C11.4445 15.8464 11.5981 15.8056 11.6605 15.7336C11.7277 15.6568 11.7133 15.496 11.6173 15.2512L10.3933 11.9032L10.5229 11.716L9.42854 14.5672C9.32294 14.8312 9.25814 15.0472 9.23414 15.2152C9.21494 15.3832 9.22694 15.5128 9.27014 15.604C9.31814 15.6952 9.39254 15.76 9.49334 15.7984C9.59894 15.832 9.72374 15.8512 9.86774 15.856V16C9.70934 15.9904 9.55814 15.9856 9.41414 15.9856C9.27014 15.9808 9.12374 15.9784 8.97494 15.9784C8.86934 15.9784 8.76854 15.9808 8.67254 15.9856C8.58134 15.9856 8.49974 15.9904 8.42774 16V15.856C8.52854 15.8368 8.63174 15.772 8.73734 15.6616C8.84294 15.5512 8.94614 15.364 9.04694 15.1L10.6885 10.888C10.7653 10.8928 10.8469 10.8952 10.9333 10.8952C11.0245 10.8952 11.1085 10.8928 11.1853 10.888ZM11.6893 13.9264V14.0704H9.54374L9.61574 13.9264H11.6893ZM17.877 10.8016C18.1938 10.8016 18.453 10.8496 18.6546 10.9456C18.861 11.0368 19.0434 11.1448 19.2018 11.2696C19.2978 11.3416 19.3698 11.3512 19.4178 11.2984C19.4706 11.2408 19.5066 11.1088 19.5258 10.9024H19.6914C19.6818 11.0896 19.6746 11.3176 19.6698 11.5864C19.665 11.8504 19.6626 12.2032 19.6626 12.6448H19.497C19.473 12.424 19.4418 12.2368 19.4034 12.0832C19.365 11.9248 19.3122 11.7856 19.245 11.6656C19.1778 11.5456 19.0818 11.4376 18.957 11.3416C18.837 11.2216 18.6978 11.1328 18.5394 11.0752C18.381 11.0176 18.2154 10.9888 18.0426 10.9888C17.7834 10.9888 17.5626 11.0584 17.3802 11.1976C17.1978 11.332 17.049 11.5168 16.9338 11.752C16.8234 11.9872 16.7418 12.2536 16.689 12.5512C16.6362 12.844 16.6098 13.1488 16.6098 13.4656C16.6098 13.7872 16.6362 14.0968 16.689 14.3944C16.7466 14.6872 16.833 14.9488 16.9482 15.1792C17.0682 15.4096 17.2218 15.592 17.409 15.7264C17.5962 15.8608 17.817 15.928 18.0714 15.928C18.2298 15.928 18.3882 15.8992 18.5466 15.8416C18.7098 15.7792 18.849 15.6904 18.9642 15.5752C19.1514 15.4312 19.2786 15.2536 19.3458 15.0424C19.413 14.8264 19.4634 14.5408 19.497 14.1856H19.6626C19.6626 14.6416 19.665 15.0112 19.6698 15.2944C19.6746 15.5728 19.6818 15.808 19.6914 16H19.5258C19.5066 15.7936 19.473 15.664 19.425 15.6112C19.3818 15.5584 19.3074 15.5656 19.2018 15.6328C19.0242 15.7576 18.8346 15.868 18.633 15.964C18.4362 16.0552 18.1818 16.1008 17.8698 16.1008C17.361 16.1008 16.9146 15.9976 16.5306 15.7912C16.1514 15.5848 15.8562 15.2872 15.645 14.8984C15.4338 14.5096 15.3282 14.0416 15.3282 13.4944C15.3282 12.9568 15.4362 12.4864 15.6522 12.0832C15.873 11.68 16.173 11.3656 16.5522 11.14C16.9362 10.9144 17.3778 10.8016 17.877 10.8016ZM22.9535 10.8016C23.4623 10.8016 23.9063 10.9048 24.2855 11.1112C24.6695 11.3176 24.9671 11.6152 25.1783 12.004C25.3895 12.388 25.4951 12.856 25.4951 13.408C25.4951 13.9456 25.3871 14.416 25.1711 14.8192C24.9551 15.2224 24.6527 15.5368 24.2639 15.7624C23.8799 15.988 23.4407 16.1008 22.9463 16.1008C22.4375 16.1008 21.9911 15.9976 21.6071 15.7912C21.2279 15.5848 20.9327 15.2872 20.7215 14.8984C20.5103 14.5096 20.4047 14.0416 20.4047 13.4944C20.4047 12.9568 20.5127 12.4864 20.7287 12.0832C20.9495 11.68 21.2495 11.3656 21.6287 11.14C22.0127 10.9144 22.4543 10.8016 22.9535 10.8016ZM22.9247 10.9312C22.6559 10.9312 22.4207 11.0392 22.2191 11.2552C22.0223 11.4712 21.8687 11.7688 21.7583 12.148C21.6527 12.5272 21.5999 12.9664 21.5999 13.4656C21.5999 13.9744 21.6599 14.4184 21.7799 14.7976C21.9047 15.172 22.0703 15.4624 22.2767 15.6688C22.4879 15.8704 22.7207 15.9712 22.9751 15.9712C23.2439 15.9712 23.4767 15.8632 23.6735 15.6472C23.8751 15.4312 24.0287 15.1336 24.1343 14.7544C24.2447 14.3704 24.2999 13.9312 24.2999 13.4368C24.2999 12.9232 24.2375 12.4792 24.1127 12.1048C23.9927 11.7304 23.8271 11.4424 23.6159 11.2408C23.4095 11.0344 23.1791 10.9312 22.9247 10.9312ZM28.6629 10.8016C28.9797 10.8016 29.2389 10.8496 29.4405 10.9456C29.6469 11.0368 29.8293 11.1448 29.9877 11.2696C30.0837 11.3416 30.1557 11.3512 30.2037 11.2984C30.2565 11.2408 30.2925 11.1088 30.3117 10.9024H30.4773C30.4677 11.0896 30.4605 11.3176 30.4557 11.5864C30.4509 11.8504 30.4485 12.2032 30.4485 12.6448H30.2829C30.2589 12.424 30.2277 12.2368 30.1893 12.0832C30.1509 11.9248 30.0981 11.7856 30.0309 11.6656C29.9637 11.5456 29.8677 11.4376 29.7429 11.3416C29.6229 11.2216 29.4837 11.1328 29.3253 11.0752C29.1669 11.0176 29.0013 10.9888 28.8285 10.9888C28.5693 10.9888 28.3485 11.0584 28.1661 11.1976C27.9837 11.332 27.8349 11.5168 27.7197 11.752C27.6093 11.9872 27.5277 12.2536 27.4749 12.5512C27.4221 12.844 27.3957 13.1488 27.3957 13.4656C27.3957 13.7872 27.4221 14.0968 27.4749 14.3944C27.5325 14.6872 27.6189 14.9488 27.7341 15.1792C27.8541 15.4096 28.0077 15.592 28.1949 15.7264C28.3821 15.8608 28.6029 15.928 28.8573 15.928C29.0157 15.928 29.1741 15.8992 29.3325 15.8416C29.4957 15.7792 29.6349 15.6904 29.7501 15.5752C29.9373 15.4312 30.0645 15.2536 30.1317 15.0424C30.1989 14.8264 30.2493 14.5408 30.2829 14.1856H30.4485C30.4485 14.6416 30.4509 15.0112 30.4557 15.2944C30.4605 15.5728 30.4677 15.808 30.4773 16H30.3117C30.2925 15.7936 30.2589 15.664 30.2109 15.6112C30.1677 15.5584 30.0933 15.5656 29.9877 15.6328C29.8101 15.7576 29.6205 15.868 29.4189 15.964C29.2221 16.0552 28.9677 16.1008 28.6557 16.1008C28.1469 16.1008 27.7005 15.9976 27.3165 15.7912C26.9373 15.5848 26.6421 15.2872 26.4309 14.8984C26.2197 14.5096 26.1141 14.0416 26.1141 13.4944C26.1141 12.9568 26.2221 12.4864 26.4381 12.0832C26.6589 11.68 26.9589 11.3656 27.3381 11.14C27.7221 10.9144 28.1637 10.8016 28.6629 10.8016ZM33.3507 10.9024V11.0464C33.1971 11.0512 33.0795 11.0704 32.9979 11.104C32.9211 11.1328 32.8707 11.1904 32.8467 11.2768C32.8227 11.3584 32.8107 11.488 32.8107 11.6656V15.2368C32.8107 15.4096 32.8227 15.5392 32.8467 15.6256C32.8755 15.712 32.9283 15.7696 33.0051 15.7984C33.0819 15.8272 33.1971 15.8464 33.3507 15.856V16C33.2211 15.9904 33.0579 15.9856 32.8611 15.9856C32.6643 15.9808 32.4651 15.9784 32.2635 15.9784C32.0283 15.9784 31.8099 15.9808 31.6083 15.9856C31.4115 15.9856 31.2507 15.9904 31.1259 16V15.856C31.2795 15.8464 31.3947 15.8272 31.4715 15.7984C31.5483 15.7696 31.5987 15.712 31.6227 15.6256C31.6515 15.5392 31.6659 15.4096 31.6659 15.2368V11.6656C31.6659 11.488 31.6515 11.3584 31.6227 11.2768C31.5987 11.1904 31.5459 11.1328 31.4643 11.104C31.3875 11.0704 31.2747 11.0512 31.1259 11.0464V10.9024C31.2507 10.9072 31.4115 10.912 31.6083 10.9168C31.8099 10.9216 32.0283 10.924 32.2635 10.924C32.4651 10.924 32.6643 10.9216 32.8611 10.9168C33.0579 10.912 33.2211 10.9072 33.3507 10.9024ZM38.5777 10.9024V11.0464C38.4241 11.0656 38.3089 11.1064 38.2321 11.1688C38.1553 11.2264 38.1025 11.32 38.0737 11.4496C38.0497 11.5792 38.0377 11.7616 38.0377 11.9968V16.0144C37.9801 16.0096 37.9201 16.0072 37.8577 16.0072C37.8001 16.0072 37.7377 16.0096 37.6705 16.0144L34.5457 12.0544V14.8192C34.5457 15.0832 34.5601 15.2872 34.5889 15.4312C34.6177 15.5704 34.6801 15.6712 34.7761 15.7336C34.8769 15.7912 35.0329 15.832 35.2441 15.856V16C35.1529 15.9904 35.0329 15.9856 34.8841 15.9856C34.7353 15.9808 34.5961 15.9784 34.4665 15.9784C34.3561 15.9784 34.2433 15.9808 34.1281 15.9856C34.0129 15.9856 33.9169 15.9904 33.8401 16V15.856C33.9937 15.832 34.1089 15.7912 34.1857 15.7336C34.2625 15.676 34.3129 15.5824 34.3369 15.4528C34.3657 15.3184 34.3801 15.136 34.3801 14.9056V11.6656C34.3801 11.488 34.3657 11.3584 34.3369 11.2768C34.3129 11.1904 34.2601 11.1328 34.1785 11.104C34.1017 11.0704 33.9889 11.0512 33.8401 11.0464V10.9024C33.9169 10.9072 34.0129 10.912 34.1281 10.9168C34.2433 10.9216 34.3561 10.924 34.4665 10.924C34.5817 10.924 34.6921 10.9216 34.7977 10.9168C34.9033 10.912 34.9993 10.9072 35.0857 10.9024L37.8721 14.3368V12.0832C37.8721 11.8192 37.8577 11.6176 37.8289 11.4784C37.8001 11.3344 37.7353 11.2312 37.6345 11.1688C37.5385 11.1064 37.3849 11.0656 37.1737 11.0464V10.9024C37.2649 10.9072 37.3849 10.912 37.5337 10.9168C37.6825 10.9216 37.8217 10.924 37.9513 10.924C38.0665 10.924 38.1793 10.9216 38.2897 10.9168C38.4049 10.912 38.5009 10.9072 38.5777 10.9024ZM41.3424 10.888L43.092 15.3952C43.1592 15.568 43.2336 15.688 43.3152 15.7552C43.4016 15.8176 43.4784 15.8512 43.5456 15.856V16C43.4016 15.9904 43.2312 15.9856 43.0344 15.9856C42.8424 15.9808 42.648 15.9784 42.4512 15.9784C42.2304 15.9784 42.0216 15.9808 41.8248 15.9856C41.628 15.9856 41.472 15.9904 41.3568 16V15.856C41.6016 15.8464 41.7552 15.8056 41.8176 15.7336C41.8848 15.6568 41.8704 15.496 41.7744 15.2512L40.5504 11.9032L40.68 11.716L39.5856 14.5672C39.48 14.8312 39.4152 15.0472 39.3912 15.2152C39.372 15.3832 39.384 15.5128 39.4272 15.604C39.4752 15.6952 39.5496 15.76 39.6504 15.7984C39.756 15.832 39.8808 15.8512 40.0248 15.856V16C39.8664 15.9904 39.7152 15.9856 39.5712 15.9856C39.4272 15.9808 39.2808 15.9784 39.132 15.9784C39.0264 15.9784 38.9256 15.9808 38.8296 15.9856C38.7384 15.9856 38.6568 15.9904 38.5848 16V15.856C38.6856 15.8368 38.7888 15.772 38.8944 15.6616C39 15.5512 39.1032 15.364 39.204 15.1L40.8456 10.888C40.9224 10.8928 41.004 10.8952 41.0904 10.8952C41.1816 10.8952 41.2656 10.8928 41.3424 10.888ZM41.8464 13.9264V14.0704H39.7008L39.7728 13.9264H41.8464ZM47.6452 10.9024C48.5908 10.9024 49.294 11.1184 49.7548 11.5504C50.2156 11.9776 50.446 12.592 50.446 13.3936C50.446 13.9168 50.3332 14.3752 50.1076 14.7688C49.882 15.1576 49.5532 15.46 49.1212 15.676C48.694 15.892 48.1804 16 47.5804 16C47.5036 16 47.4028 15.9976 47.278 15.9928C47.1532 15.988 47.0236 15.9856 46.8892 15.9856C46.7548 15.9808 46.6348 15.9784 46.5292 15.9784C46.318 15.9784 46.1092 15.9808 45.9028 15.9856C45.7012 15.9856 45.5404 15.9904 45.4204 16V15.856C45.574 15.8464 45.6892 15.8272 45.766 15.7984C45.8428 15.7696 45.8932 15.712 45.9172 15.6256C45.946 15.5392 45.9604 15.4096 45.9604 15.2368V11.6656C45.9604 11.488 45.946 11.3584 45.9172 11.2768C45.8932 11.1904 45.8404 11.1328 45.7588 11.104C45.682 11.0704 45.5692 11.0512 45.4204 11.0464V10.9024C45.5404 10.9072 45.7012 10.9144 45.9028 10.924C46.1092 10.9288 46.3132 10.9288 46.5148 10.924C46.6876 10.9192 46.882 10.9144 47.098 10.9096C47.3188 10.9048 47.5012 10.9024 47.6452 10.9024ZM47.638 11.032C47.4172 11.032 47.2732 11.0728 47.206 11.1544C47.1388 11.236 47.1052 11.4016 47.1052 11.6512V15.2512C47.1052 15.5008 47.1388 15.6664 47.206 15.748C47.278 15.8296 47.4244 15.8704 47.6452 15.8704C48.0484 15.8704 48.3652 15.7768 48.5956 15.5896C48.8308 15.3976 48.9988 15.1192 49.0996 14.7544C49.2004 14.3896 49.2508 13.9456 49.2508 13.4224C49.2508 12.8848 49.1956 12.4408 49.0852 12.0904C48.9796 11.7352 48.8092 11.4712 48.574 11.2984C48.3388 11.1208 48.0268 11.032 47.638 11.032ZM54.7989 10.9024C54.7797 11.1136 54.7653 11.3176 54.7557 11.5144C54.7509 11.7112 54.7485 11.8624 54.7485 11.968C54.7485 12.064 54.7509 12.1552 54.7557 12.2416C54.7605 12.328 54.7653 12.4 54.7701 12.4576H54.6045C54.5565 12.1072 54.4821 11.8312 54.3813 11.6296C54.2805 11.4232 54.1485 11.2792 53.9853 11.1976C53.8269 11.1112 53.6397 11.068 53.4237 11.068H53.1285C52.9893 11.068 52.8837 11.08 52.8117 11.104C52.7397 11.128 52.6917 11.176 52.6677 11.248C52.6437 11.32 52.6317 11.4304 52.6317 11.5792V15.3232C52.6317 15.472 52.6437 15.5824 52.6677 15.6544C52.6917 15.7264 52.7397 15.7744 52.8117 15.7984C52.8837 15.8224 52.9893 15.8344 53.1285 15.8344H53.4813C53.6973 15.8344 53.8869 15.7888 54.0501 15.6976C54.2181 15.6016 54.3597 15.4408 54.4749 15.2152C54.5949 14.9896 54.6861 14.6848 54.7485 14.3008H54.9141C54.8997 14.4544 54.8925 14.656 54.8925 14.9056C54.8925 15.016 54.8949 15.172 54.8997 15.3736C54.9045 15.5752 54.9189 15.784 54.9429 16C54.6981 15.9904 54.4221 15.9856 54.1149 15.9856C53.8077 15.9808 53.5341 15.9784 53.2941 15.9784C53.1741 15.9784 53.0205 15.9784 52.8333 15.9784C52.6461 15.9784 52.4445 15.9808 52.2285 15.9856C52.0125 15.9856 51.7941 15.988 51.5733 15.9928C51.3525 15.9928 51.1437 15.9952 50.9469 16V15.856C51.1005 15.8464 51.2157 15.8272 51.2925 15.7984C51.3693 15.7696 51.4197 15.712 51.4437 15.6256C51.4725 15.5392 51.4869 15.4096 51.4869 15.2368V11.6656C51.4869 11.488 51.4725 11.3584 51.4437 11.2768C51.4197 11.1904 51.3669 11.1328 51.2853 11.104C51.2085 11.0704 51.0957 11.0512 50.9469 11.0464V10.9024C51.1437 10.9072 51.3525 10.912 51.5733 10.9168C51.7941 10.9168 52.0125 10.9192 52.2285 10.924C52.4445 10.924 52.6461 10.924 52.8333 10.924C53.0205 10.924 53.1741 10.924 53.2941 10.924C53.5149 10.924 53.7645 10.924 54.0429 10.924C54.3261 10.9192 54.5781 10.912 54.7989 10.9024ZM53.6757 13.3648C53.6757 13.3648 53.6757 13.3888 53.6757 13.4368C53.6757 13.4848 53.6757 13.5088 53.6757 13.5088H52.4157C52.4157 13.5088 52.4157 13.4848 52.4157 13.4368C52.4157 13.3888 52.4157 13.3648 52.4157 13.3648H53.6757ZM53.8845 12.4144C53.8653 12.688 53.8557 12.8968 53.8557 13.0408C53.8605 13.1848 53.8629 13.3168 53.8629 13.4368C53.8629 13.5568 53.8653 13.6888 53.8701 13.8328C53.8749 13.9768 53.8869 14.1856 53.9061 14.4592H53.7405C53.7165 14.2912 53.6709 14.1352 53.6037 13.9912C53.5413 13.8472 53.4501 13.732 53.3301 13.6456C53.2101 13.5544 53.0541 13.5088 52.8621 13.5088V13.3648C53.0061 13.3648 53.1285 13.336 53.2293 13.2784C53.3301 13.216 53.4117 13.1368 53.4741 13.0408C53.5413 12.94 53.5941 12.8344 53.6325 12.724C53.6709 12.6136 53.6997 12.5104 53.7189 12.4144H53.8845ZM11.2128 19.9024C12.1584 19.9024 12.8616 20.1184 13.3224 20.5504C13.7832 20.9776 14.0136 21.592 14.0136 22.3936C14.0136 22.9168 13.9008 23.3752 13.6752 23.7688C13.4496 24.1576 13.1208 24.46 12.6888 24.676C12.2616 24.892 11.748 25 11.148 25C11.0712 25 10.9704 24.9976 10.8456 24.9928C10.7208 24.988 10.5912 24.9856 10.4568 24.9856C10.3224 24.9808 10.2024 24.9784 10.0968 24.9784C9.88556 24.9784 9.67676 24.9808 9.47036 24.9856C9.26876 24.9856 9.10796 24.9904 8.98796 25V24.856C9.14156 24.8464 9.25676 24.8272 9.33356 24.7984C9.41036 24.7696 9.46076 24.712 9.48476 24.6256C9.51356 24.5392 9.52796 24.4096 9.52796 24.2368V20.6656C9.52796 20.488 9.51356 20.3584 9.48476 20.2768C9.46076 20.1904 9.40796 20.1328 9.32636 20.104C9.24956 20.0704 9.13676 20.0512 8.98796 20.0464V19.9024C9.10796 19.9072 9.26876 19.9144 9.47036 19.924C9.67676 19.9288 9.88076 19.9288 10.0824 19.924C10.2552 19.9192 10.4496 19.9144 10.6656 19.9096C10.8864 19.9048 11.0688 19.9024 11.2128 19.9024ZM11.2056 20.032C10.9848 20.032 10.8408 20.0728 10.7736 20.1544C10.7064 20.236 10.6728 20.4016 10.6728 20.6512V24.2512C10.6728 24.5008 10.7064 24.6664 10.7736 24.748C10.8456 24.8296 10.992 24.8704 11.2128 24.8704C11.616 24.8704 11.9328 24.7768 12.1632 24.5896C12.3984 24.3976 12.5664 24.1192 12.6672 23.7544C12.768 23.3896 12.8184 22.9456 12.8184 22.4224C12.8184 21.8848 12.7632 21.4408 12.6528 21.0904C12.5472 20.7352 12.3768 20.4712 12.1416 20.2984C11.9064 20.1208 11.5944 20.032 11.2056 20.032ZM17.1914 19.8016C17.7002 19.8016 18.1442 19.9048 18.5234 20.1112C18.9074 20.3176 19.205 20.6152 19.4162 21.004C19.6274 21.388 19.733 21.856 19.733 22.408C19.733 22.9456 19.625 23.416 19.409 23.8192C19.193 24.2224 18.8906 24.5368 18.5018 24.7624C18.1178 24.988 17.6786 25.1008 17.1842 25.1008C16.6754 25.1008 16.229 24.9976 15.845 24.7912C15.4658 24.5848 15.1706 24.2872 14.9594 23.8984C14.7482 23.5096 14.6426 23.0416 14.6426 22.4944C14.6426 21.9568 14.7506 21.4864 14.9666 21.0832C15.1874 20.68 15.4874 20.3656 15.8666 20.14C16.2506 19.9144 16.6922 19.8016 17.1914 19.8016ZM17.1626 19.9312C16.8938 19.9312 16.6586 20.0392 16.457 20.2552C16.2602 20.4712 16.1066 20.7688 15.9962 21.148C15.8906 21.5272 15.8378 21.9664 15.8378 22.4656C15.8378 22.9744 15.8978 23.4184 16.0178 23.7976C16.1426 24.172 16.3082 24.4624 16.5146 24.6688C16.7258 24.8704 16.9586 24.9712 17.213 24.9712C17.4818 24.9712 17.7146 24.8632 17.9114 24.6472C18.113 24.4312 18.2666 24.1336 18.3722 23.7544C18.4826 23.3704 18.5378 22.9312 18.5378 22.4368C18.5378 21.9232 18.4754 21.4792 18.3506 21.1048C18.2306 20.7304 18.065 20.4424 17.8538 20.2408C17.6474 20.0344 17.417 19.9312 17.1626 19.9312ZM24.9757 19.9024V20.0464C24.8221 20.0656 24.7069 20.1064 24.6301 20.1688C24.5533 20.2264 24.5005 20.32 24.4717 20.4496C24.4477 20.5792 24.4357 20.7616 24.4357 20.9968V25.0144C24.3781 25.0096 24.3181 25.0072 24.2557 25.0072C24.1981 25.0072 24.1357 25.0096 24.0685 25.0144L20.9437 21.0544V23.8192C20.9437 24.0832 20.9581 24.2872 20.9869 24.4312C21.0157 24.5704 21.0781 24.6712 21.1741 24.7336C21.2749 24.7912 21.4309 24.832 21.6421 24.856V25C21.5509 24.9904 21.4309 24.9856 21.2821 24.9856C21.1333 24.9808 20.9941 24.9784 20.8645 24.9784C20.7541 24.9784 20.6413 24.9808 20.5261 24.9856C20.4109 24.9856 20.3149 24.9904 20.2381 25V24.856C20.3917 24.832 20.5069 24.7912 20.5837 24.7336C20.6605 24.676 20.7109 24.5824 20.7349 24.4528C20.7637 24.3184 20.7781 24.136 20.7781 23.9056V20.6656C20.7781 20.488 20.7637 20.3584 20.7349 20.2768C20.7109 20.1904 20.6581 20.1328 20.5765 20.104C20.4997 20.0704 20.3869 20.0512 20.2381 20.0464V19.9024C20.3149 19.9072 20.4109 19.912 20.5261 19.9168C20.6413 19.9216 20.7541 19.924 20.8645 19.924C20.9797 19.924 21.0901 19.9216 21.1957 19.9168C21.3013 19.912 21.3973 19.9072 21.4837 19.9024L24.2701 23.3368V21.0832C24.2701 20.8192 24.2557 20.6176 24.2269 20.4784C24.1981 20.3344 24.1333 20.2312 24.0325 20.1688C23.9365 20.1064 23.7829 20.0656 23.5717 20.0464V19.9024C23.6629 19.9072 23.7829 19.912 23.9317 19.9168C24.0805 19.9216 24.2197 19.924 24.3493 19.924C24.4645 19.924 24.5773 19.9216 24.6877 19.9168C24.8029 19.912 24.8989 19.9072 24.9757 19.9024ZM27.1075 19.9024C27.2275 19.9072 27.3883 19.912 27.5899 19.9168C27.7963 19.9216 28.0003 19.924 28.2019 19.924C28.4323 19.924 28.6555 19.9216 28.8715 19.9168C29.0875 19.912 29.2411 19.9096 29.3323 19.9096C29.9995 19.9096 30.4987 20.0416 30.8299 20.3056C31.1611 20.5696 31.3267 20.9104 31.3267 21.328C31.3267 21.5008 31.2931 21.6832 31.2259 21.8752C31.1587 22.0624 31.0435 22.2376 30.8803 22.4008C30.7219 22.5592 30.5035 22.6888 30.2251 22.7896C29.9467 22.8904 29.5963 22.9408 29.1739 22.9408H28.4395V22.7968H29.1019C29.3851 22.7968 29.5987 22.732 29.7427 22.6024C29.8915 22.4728 29.9923 22.3024 30.0451 22.0912C30.1027 21.88 30.1315 21.652 30.1315 21.4072C30.1315 20.9512 30.0643 20.6104 29.9299 20.3848C29.7955 20.1592 29.5651 20.0464 29.2387 20.0464C29.0515 20.0464 28.9291 20.0872 28.8715 20.1688C28.8187 20.2504 28.7923 20.416 28.7923 20.6656V24.1936C28.7923 24.3808 28.8115 24.52 28.8499 24.6112C28.8883 24.7024 28.9627 24.7624 29.0731 24.7912C29.1835 24.82 29.3467 24.8368 29.5627 24.8416V25C29.4139 24.9952 29.2219 24.9904 28.9867 24.9856C28.7515 24.9808 28.5043 24.9784 28.2451 24.9784C28.0387 24.9784 27.8371 24.9808 27.6403 24.9856C27.4435 24.9904 27.2659 24.9952 27.1075 25V24.856C27.2611 24.8464 27.3763 24.8272 27.4531 24.7984C27.5299 24.7696 27.5803 24.712 27.6043 24.6256C27.6331 24.5392 27.6475 24.4096 27.6475 24.2368V20.6656C27.6475 20.488 27.6331 20.3584 27.6043 20.2768C27.5803 20.1904 27.5275 20.1328 27.4459 20.104C27.3691 20.0704 27.2563 20.0512 27.1075 20.0464V19.9024ZM33.717 19.888L35.4666 24.3952C35.5338 24.568 35.6082 24.688 35.6898 24.7552C35.7762 24.8176 35.853 24.8512 35.9202 24.856V25C35.7762 24.9904 35.6058 24.9856 35.409 24.9856C35.217 24.9808 35.0226 24.9784 34.8258 24.9784C34.605 24.9784 34.3962 24.9808 34.1994 24.9856C34.0026 24.9856 33.8466 24.9904 33.7314 25V24.856C33.9762 24.8464 34.1298 24.8056 34.1922 24.7336C34.2594 24.6568 34.245 24.496 34.149 24.2512L32.925 20.9032L33.0546 20.716L31.9602 23.5672C31.8546 23.8312 31.7898 24.0472 31.7658 24.2152C31.7466 24.3832 31.7586 24.5128 31.8018 24.604C31.8498 24.6952 31.9242 24.76 32.025 24.7984C32.1306 24.832 32.2554 24.8512 32.3994 24.856V25C32.241 24.9904 32.0898 24.9856 31.9458 24.9856C31.8018 24.9808 31.6554 24.9784 31.5066 24.9784C31.401 24.9784 31.3002 24.9808 31.2042 24.9856C31.113 24.9856 31.0314 24.9904 30.9594 25V24.856C31.0602 24.8368 31.1634 24.772 31.269 24.6616C31.3746 24.5512 31.4778 24.364 31.5786 24.1L33.2202 19.888C33.297 19.8928 33.3786 19.8952 33.465 19.8952C33.5562 19.8952 33.6402 19.8928 33.717 19.888ZM34.221 22.9264V23.0704H32.0754L32.1474 22.9264H34.221ZM35.9739 19.9024C36.0987 19.9072 36.2619 19.912 36.4635 19.9168C36.6651 19.9216 36.8667 19.924 37.0683 19.924C37.2987 19.924 37.5219 19.9216 37.7379 19.9168C37.9539 19.912 38.1075 19.9096 38.1987 19.9096C38.7939 19.9096 39.2379 20.0152 39.5307 20.2264C39.8283 20.4376 39.9771 20.7088 39.9771 21.04C39.9771 21.208 39.9267 21.3784 39.8259 21.5512C39.7251 21.724 39.5691 21.8776 39.3579 22.012C39.1467 22.1464 38.8731 22.2448 38.5371 22.3072V22.3216C38.9883 22.3552 39.3459 22.4368 39.6099 22.5664C39.8739 22.696 40.0635 22.852 40.1787 23.0344C40.2939 23.2168 40.3515 23.4064 40.3515 23.6032C40.3515 23.9056 40.2723 24.16 40.1139 24.3664C39.9555 24.5728 39.7275 24.7312 39.4299 24.8416C39.1323 24.9472 38.7771 25 38.3643 25C38.2491 25 38.0835 24.9976 37.8675 24.9928C37.6515 24.9832 37.3899 24.9784 37.0827 24.9784C36.8715 24.9784 36.6651 24.9808 36.4635 24.9856C36.2619 24.9856 36.0987 24.9904 35.9739 25V24.856C36.1275 24.8464 36.2427 24.8272 36.3195 24.7984C36.3963 24.7696 36.4467 24.712 36.4707 24.6256C36.4995 24.5392 36.5139 24.4096 36.5139 24.2368V20.6656C36.5139 20.488 36.4995 20.3584 36.4707 20.2768C36.4467 20.1904 36.3939 20.1328 36.3123 20.104C36.2355 20.0704 36.1227 20.0512 35.9739 20.0464V19.9024ZM38.1051 20.0464C37.9179 20.0464 37.7955 20.0872 37.7379 20.1688C37.6851 20.2504 37.6587 20.416 37.6587 20.6656V24.2368C37.6587 24.4048 37.6707 24.532 37.6947 24.6184C37.7235 24.7048 37.7715 24.7624 37.8387 24.7912C37.9107 24.82 38.0163 24.8344 38.1555 24.8344C38.5011 24.8344 38.7531 24.7264 38.9115 24.5104C39.0747 24.2896 39.1563 23.9776 39.1563 23.5744C39.1563 23.2048 39.0627 22.9192 38.8755 22.7176C38.6931 22.516 38.3883 22.4152 37.9611 22.4152H37.3491C37.3491 22.4152 37.3491 22.396 37.3491 22.3576C37.3491 22.3144 37.3491 22.2928 37.3491 22.2928H37.9683C38.1939 22.2928 38.3667 22.24 38.4867 22.1344C38.6067 22.024 38.6907 21.88 38.7387 21.7024C38.7867 21.52 38.8107 21.3256 38.8107 21.1192C38.8107 20.764 38.7555 20.4976 38.6451 20.32C38.5347 20.1376 38.3547 20.0464 38.1051 20.0464ZM43.0583 19.9024V20.0464C42.8951 20.0512 42.7703 20.0704 42.6839 20.104C42.6023 20.1328 42.5471 20.1904 42.5183 20.2768C42.4895 20.3584 42.4751 20.488 42.4751 20.6656V24.3232C42.4751 24.472 42.4847 24.5824 42.5039 24.6544C42.5279 24.7264 42.5711 24.7744 42.6335 24.7984C42.7007 24.8224 42.7991 24.8344 42.9287 24.8344H43.2815C43.4447 24.8344 43.5983 24.796 43.7423 24.7192C43.8863 24.6424 44.0159 24.5344 44.1311 24.3952C44.2463 24.2512 44.3423 24.0808 44.4191 23.884C44.4959 23.6872 44.5535 23.4688 44.5919 23.2288H44.7575C44.7431 23.392 44.7359 23.6032 44.7359 23.8624C44.7359 23.9728 44.7383 24.1336 44.7431 24.3448C44.7479 24.556 44.7623 24.7744 44.7863 25C44.5415 24.9904 44.2655 24.9856 43.9583 24.9856C43.6511 24.9808 43.3775 24.9784 43.1375 24.9784C43.0175 24.9784 42.8639 24.9784 42.6767 24.9784C42.4895 24.9784 42.2879 24.9808 42.0719 24.9856C41.8559 24.9856 41.6375 24.988 41.4167 24.9928C41.1959 24.9928 40.9871 24.9952 40.7903 25V24.856C40.9439 24.8464 41.0591 24.8272 41.1359 24.7984C41.2127 24.7696 41.2631 24.712 41.2871 24.6256C41.3159 24.5392 41.3303 24.4096 41.3303 24.2368V20.6656C41.3303 20.488 41.3159 20.3584 41.2871 20.2768C41.2631 20.1904 41.2103 20.1328 41.1287 20.104C41.0519 20.0704 40.9391 20.0512 40.7903 20.0464V19.9024C40.9103 19.9072 41.0711 19.912 41.2727 19.9168C41.4791 19.9216 41.6975 19.924 41.9279 19.924C42.1391 19.924 42.3455 19.9216 42.5471 19.9168C42.7535 19.912 42.9239 19.9072 43.0583 19.9024ZM47.8055 19.8016C48.3143 19.8016 48.7583 19.9048 49.1375 20.1112C49.5215 20.3176 49.8191 20.6152 50.0303 21.004C50.2415 21.388 50.3471 21.856 50.3471 22.408C50.3471 22.9456 50.2391 23.416 50.0231 23.8192C49.8071 24.2224 49.5047 24.5368 49.1159 24.7624C48.7319 24.988 48.2927 25.1008 47.7983 25.1008C47.2895 25.1008 46.8431 24.9976 46.4591 24.7912C46.0799 24.5848 45.7847 24.2872 45.5735 23.8984C45.3623 23.5096 45.2567 23.0416 45.2567 22.4944C45.2567 21.9568 45.3647 21.4864 45.5807 21.0832C45.8015 20.68 46.1015 20.3656 46.4807 20.14C46.8647 19.9144 47.3063 19.8016 47.8055 19.8016ZM47.7767 19.9312C47.5079 19.9312 47.2727 20.0392 47.0711 20.2552C46.8743 20.4712 46.7207 20.7688 46.6103 21.148C46.5047 21.5272 46.4519 21.9664 46.4519 22.4656C46.4519 22.9744 46.5119 23.4184 46.6319 23.7976C46.7567 24.172 46.9223 24.4624 47.1287 24.6688C47.3399 24.8704 47.5727 24.9712 47.8271 24.9712C48.0959 24.9712 48.3287 24.8632 48.5255 24.6472C48.7271 24.4312 48.8807 24.1336 48.9863 23.7544C49.0967 23.3704 49.1519 22.9312 49.1519 22.4368C49.1519 21.9232 49.0895 21.4792 48.9647 21.1048C48.8447 20.7304 48.6791 20.4424 48.4679 20.2408C48.2615 20.0344 48.0311 19.9312 47.7767 19.9312Z" fill="#3E658D"/>
</svg>
