<svg width="230" height="70" viewBox="0 0 230 70" fill="none" xmlns="http://www.w3.org/2000/svg">
<path d="M10.6954 9.85232C16.4157 9.42557 29.4247 8.77083 33.6194 12.4868C36.4394 14.9851 37.4242 17.3683 37.7759 20.9568C38.4612 27.9503 36.1517 29.8273 32.3102 34.6056C33.5184 39.7758 37.4082 47.1676 39.4214 52.2956C40.2674 54.4503 40.8292 56.3731 41.4884 58.5816C38.8019 58.5881 36.3829 58.6138 33.6844 58.5198C32.5242 56.9603 31.3242 53.6436 30.5949 51.7828C28.9407 48.3583 26.1829 40.9828 25.1572 37.3126L17.6464 39.4333C17.1589 44.6493 17.7489 50.8988 17.3779 56.1943C17.3002 57.3061 17.2064 57.8411 16.4274 58.4831C15.2287 58.8236 11.7977 58.6863 10.6002 58.3423C9.48466 56.7348 9.90891 48.6206 9.92441 46.3138L9.98441 30.6923L9.96216 17.9311C9.95991 16.0948 9.58066 11.0816 10.6954 9.85232ZM17.4444 17.4458C17.5892 21.5063 17.5877 27.1181 17.4717 31.2213C20.2482 30.4833 23.0144 29.7078 25.7697 28.8948C27.3332 27.9993 28.4752 27.1303 29.6124 25.7186C31.4822 17.2558 27.6322 17.2711 20.7419 17.3616C19.7414 17.3963 18.4162 17.4801 17.4444 17.4458Z" fill="#654B78"/>
<path d="M134.32 9.83011C134.732 9.71686 134.796 9.77587 135.237 9.83237C135.405 10.0084 135.545 10.1546 135.643 10.3814C136.16 11.5809 136.242 55.8361 135.484 58.2901C134.285 59.1601 131.177 58.6536 129.381 58.6146C128.838 55.8574 128.77 43.9139 128.883 40.7869C124.812 41.4446 117.943 43.9699 113.759 45.2409C113.299 45.3804 113.27 45.9029 113.169 46.3319C112.747 48.9854 112.434 56.5399 111.705 58.1831C110.564 59.0314 106.735 58.6721 105.296 58.4711C104.8 58.0809 104.558 57.9109 104.523 57.0746C104.419 49.1846 106.652 39.5471 109.188 32.0726C111.647 24.8236 116.487 16.9109 123.234 13.0384C127.338 10.6826 129.802 10.3869 134.32 9.83011ZM115.84 36.5069C119.719 35.0019 124.782 33.7541 128.875 32.6599C128.828 30.4816 129.135 20.4301 128.591 19.1256L127.993 19.0084C127.133 19.3711 125.429 20.0701 124.743 20.6256C120.472 24.0844 116.237 30.6704 115.06 36.0169L115.253 36.4601L115.84 36.5069Z" fill="#654B78"/>
<path d="M42.5083 58.592C44.8621 40.0685 48.3656 11.9715 72.2248 9.92603C72.9141 10.0945 73.2526 10.0863 73.6668 10.6053C74.5616 13.2943 74.0133 17.654 74.0033 20.5333C73.9891 24.6048 73.4993 56.0438 74.1793 57.5813C74.2053 57.6398 74.2268 57.7 74.2523 57.7588C74.2676 57.794 74.2851 57.8283 74.3013 57.863C73.3348 59.227 69.1961 58.9263 67.7878 58.4C66.7188 56.9545 67.2023 44.5373 67.0553 41.6763L66.7748 41.5115C63.4291 41.7838 55.5138 44.3955 51.7631 45.4855C51.2731 48.5248 51.0248 55.736 50.0618 58.0798C49.0331 59.037 44.1203 58.626 42.5083 58.592ZM54.3418 36.765C56.7168 35.886 59.7886 34.8628 62.4956 34.2068C68.0286 32.866 67.4423 32.8215 67.0641 27.1815C66.9118 24.9103 67.2931 21.694 66.9613 19.6193C66.8016 19.4393 66.7276 19.3013 66.5378 19.216C62.1438 20.9078 59.8208 24.0238 57.2673 27.832C56.2426 29.3598 53.1973 35.1255 53.7915 36.7285C53.9118 36.7403 54.2416 36.7863 54.3418 36.765Z" fill="#654B78"/>
<path d="M142.054 9.77616C142.252 9.76091 142.451 9.74965 142.65 9.74215C148.026 9.5234 149.505 10.2332 153.178 14.2147C154.578 15.7332 156.364 17.5484 157.847 19.0204C159.957 21.0744 162.099 23.0952 164.272 25.0827C164.141 23.0387 163.922 11.7549 164.641 10.4062C165.866 9.54665 169.842 9.37065 171.075 10.4327C172.689 16.4982 171.229 29.8649 171.782 36.7234C172.018 39.6404 172.078 56.5872 171.26 58.0449C169.848 59.0644 166.395 58.6191 164.458 58.5776C164.02 55.3994 164.161 47.6016 164.154 44.0549C164.092 41.3824 164.09 38.3517 163.813 35.7224C160.505 32.1434 152.806 25.0179 149.099 21.7312C148.661 26.9814 149.764 56.8899 147.965 58.4752C146.978 58.8044 143.354 58.7897 142.416 58.4842C140.656 56.7164 141.891 17.6904 141.568 12.3532C141.529 11.6967 141.735 10.4057 142.054 9.77616Z" fill="#654B78"/>
<path d="M81.6678 9.86553C89.2433 9.70753 99.3608 8.21452 105.11 13.2645C107.838 15.6608 108.306 18.5783 108.501 21.9698C109.12 32.7403 100.645 36.6213 91.6228 38.3338C90.4301 38.5865 89.0381 38.8218 88.2736 39.657C88.2103 45.5343 88.1748 51.8093 87.6726 57.6108C87.5311 59.2463 82.5253 58.7748 81.5781 58.4013C81.3541 58.1198 81.1451 57.83 81.1156 57.4563C80.6591 51.6928 80.8003 45.2583 80.7916 39.4975C80.7771 30.0888 80.6946 20.8575 81.0268 11.4838C81.0596 10.5613 81.1733 10.5445 81.6678 9.86553ZM97.6268 28.0618C98.4593 27.4148 99.5808 26.6 100.276 25.8505C102.863 15.563 94.9996 17.6775 88.2421 17.358C87.7241 18.7405 88.1041 29.3725 88.1121 31.3613C91.8956 29.8673 94.0018 30.4093 97.6268 28.0618Z" fill="#654B78"/>
<path d="M198.889 10.3073C201.641 9.57431 203.123 9.69156 205.95 9.72006C206.194 12.4388 206.12 15.4376 206.105 18.1876C206.044 27.3318 206.043 36.4766 206.101 45.6208C206.109 47.2096 206.633 57.5426 205.648 58.0711C203.429 59.2613 196.251 58.5313 193.4 58.4288C189.307 58.2813 185.116 55.9801 182.578 52.7938C180.385 50.0778 178.839 46.8986 178.056 43.4966C176.675 37.3461 177.528 25.1618 177.305 18.5091C177.23 16.2911 177.404 13.1946 177.417 10.9131C177.42 10.3196 177.719 10.1673 178.101 9.87256C179.909 9.67156 184.224 8.97156 184.394 11.4191C185.012 19.9596 184.061 28.6538 184.836 37.2081C185.273 42.0321 185.68 48.2391 191.198 49.9143C193.678 50.6676 196.139 50.6043 198.698 51.1156C198.315 47.6603 198.567 41.6436 198.528 37.9316C198.433 28.6851 198.522 19.5513 198.889 10.3073Z" fill="#654B78"/>
<path d="M213.917 9.60059C215.925 9.60009 217.932 9.65759 219.937 9.77284C220.47 12.5173 220.175 25.8618 220.195 29.3738C220.24 37.9556 220.16 46.9066 220.33 55.5383C220.355 56.8031 220.327 57.7416 219.44 58.5916C218.05 58.7103 214.285 58.8006 213.131 58.1346C211.766 53.9021 213.305 38.6986 212.765 33.3788C212.261 28.4216 213.213 21.0033 212.756 15.8198C212.597 14.0058 212.396 10.6951 213.917 9.60059Z" fill="#654B78"/>
<path d="M72.2246 9.92601C73.2554 9.75776 73.5351 9.51801 74.3136 9.91526C74.8179 12.1415 74.7481 55.9335 74.3011 57.863C74.2849 57.8283 74.2674 57.794 74.2521 57.7588C74.2266 57.7 74.2051 57.6398 74.1791 57.5813C73.4991 56.0438 73.9889 24.6048 74.0031 20.5333C74.0131 17.654 74.5614 13.2943 73.6666 10.6053C73.2524 10.0863 72.9139 10.0945 72.2246 9.92601Z" fill="#654B78"/>
</svg>
