<svg width="148" height="32" viewBox="0 0 148 32" fill="none" xmlns="http://www.w3.org/2000/svg">
<path d="M34.4642 12.7282V10.2642H40.4082C42.1202 10.2642 43.4402 10.6162 44.3602 11.3122C45.2802 12.0082 45.7442 13.1202 45.7442 14.6482C45.7442 15.9202 45.4562 16.9602 44.8882 17.7602C44.3202 18.5602 43.4962 19.1042 42.4242 19.3842C42.7762 20.1922 43.0882 20.8322 43.3602 21.2882C43.6322 21.7442 43.9282 22.1042 44.2642 22.3522C44.5922 22.6002 44.9842 22.7522 45.4402 22.7282C46.4482 22.6642 47.0962 22.0642 47.2482 21.9682L48.0162 23.5122C47.6482 23.8642 46.5122 25.2162 44.5442 25.2162C43.6242 25.2162 42.8722 25.0002 42.2882 24.5762C41.7122 24.1522 41.2562 23.6082 40.9202 22.9522C40.5842 22.2962 40.2002 21.3762 39.7682 20.1842L39.5522 19.6082L37.5682 19.6002V24.9362H34.4482V12.7282H34.4642ZM39.4162 17.1442C40.1442 17.1442 40.7442 17.0882 41.2002 16.9762C41.6562 16.8642 42.0082 16.6482 42.2562 16.3282C42.5042 16.0082 42.6242 15.5602 42.6242 14.9762C42.6242 14.3922 42.5042 13.9362 42.2642 13.6082C42.0242 13.2802 41.6722 13.0482 41.2082 12.9202C40.7442 12.7922 40.1522 12.7202 39.4162 12.7202H37.5842V17.1362H39.4162V17.1442Z" fill="#00292D"/>
<path d="M50.56 22.2801C50.976 22.6001 51.56 22.7601 52.32 22.7601C52.632 22.7601 52.928 22.7441 53.208 22.7201C53.792 22.6481 54.408 22.5121 55.064 22.3041C55.72 22.0961 56.248 21.9121 56.664 21.7521L57.12 23.5921C56.896 23.7921 56.528 24.0161 55.992 24.2721C55.456 24.5281 54.848 24.7441 54.16 24.9281C53.464 25.1121 52.776 25.2081 52.08 25.2081C50.8 25.2081 49.776 24.9921 49.016 24.5681C48.248 24.1441 47.704 23.4961 47.36 22.6321C47.024 21.7681 46.856 20.6481 46.856 19.2801C46.856 18.0161 47.024 16.9761 47.368 16.1761C47.712 15.3681 48.264 14.7681 49.04 14.3681C49.808 13.9681 50.84 13.7681 52.128 13.7681C53.584 13.7681 54.744 14.0881 55.616 14.7361C56.48 15.3761 56.952 16.3841 57.024 17.7601C57.04 17.9201 57.048 18.1601 57.048 18.4721C57.048 18.8561 57.032 19.2081 57.008 19.5361C56.984 19.8641 56.96 20.0721 56.944 20.1521L49.976 20.5601C49.944 21.3761 50.152 21.9601 50.56 22.2801ZM54.08 17.8081C54.08 16.6721 53.408 16.1041 52.08 16.1041C51.416 16.1041 50.912 16.2801 50.552 16.6401C50.192 17.0001 49.992 17.5361 49.944 18.2641L54.072 18.1041C54.072 18.0321 54.08 17.9361 54.08 17.8081Z" fill="#00292D"/>
<path d="M64.624 16.9041C64.36 16.4481 63.904 16.2241 63.248 16.2241C62.896 16.2241 62.568 16.2961 62.264 16.4401C61.96 16.5841 61.712 16.7361 61.512 16.9121C61.312 17.0801 61.216 17.1761 61.216 17.2001V24.9361H58.208V14.1681L61.216 13.4321V15.2081C61.216 15.1601 61.376 15.0081 61.704 14.7521C62.032 14.4961 62.432 14.2641 62.912 14.0561C63.392 13.8401 63.888 13.7361 64.416 13.7361C65.712 13.7361 66.64 14.1121 67.2 14.8721C67.76 15.6321 68.04 16.7441 68.04 18.2161V20.2721C68.048 20.8961 68.072 21.3841 68.128 21.7201C68.176 22.0641 68.272 22.3121 68.408 22.4721C68.544 22.6321 68.752 22.7121 69.032 22.7121C69.304 22.7121 69.552 22.6401 69.784 22.5281C70.616 22.1201 70.872 21.3281 70.984 21.2001L71.28 23.1841C71.28 23.2161 70.52 24.3601 69.456 24.8561C69.016 25.0641 68.56 25.2001 68.048 25.2001C66.888 25.2001 66.096 24.8321 65.664 24.0961C65.232 23.3601 65.016 22.4081 65.016 21.2321V19.0241C65.024 18.0641 64.888 17.3601 64.624 16.9041Z" fill="#00292D"/>
<path d="M73.9598 20.0319C73.9598 20.6639 73.9838 21.1679 74.0318 21.5519C74.0798 21.9359 74.1758 22.2239 74.3198 22.4239C74.4638 22.6239 74.6718 22.7199 74.9518 22.7199C76.4318 22.7199 77.4798 21.4799 77.6318 21.3519L78.0558 23.1439C77.6638 23.6159 76.2798 25.1999 74.0638 25.1999C72.9038 25.1999 72.0958 24.8239 71.6318 24.0799C71.1678 23.3359 70.9358 22.3839 70.9358 21.2319V20.9439L70.9278 16.2639H69.7598V14.0079H70.9358V10.9919L73.9598 10.3999V14.0079H76.4718L75.9518 16.2639H73.9518L73.9598 19.9439V20.0319Z" fill="#00292D"/>
<path d="M80.9042 22.2801C81.3202 22.6001 81.9042 22.7601 82.6642 22.7601C82.9762 22.7601 83.2722 22.7441 83.5522 22.7201C84.1362 22.6481 84.7522 22.5121 85.4082 22.3041C86.0642 22.0961 86.5922 21.9121 87.0082 21.7521L87.4642 23.5921C87.2482 23.7921 86.8722 24.0161 86.3362 24.2721C85.8082 24.5281 85.1922 24.7441 84.5042 24.9281C83.8082 25.1121 83.1202 25.2081 82.4242 25.2081C81.1442 25.2081 80.1202 24.9921 79.3602 24.5681C78.6002 24.1441 78.0482 23.4961 77.7042 22.6321C77.3682 21.7681 77.2002 20.6481 77.2002 19.2801C77.2002 18.0161 77.3682 16.9761 77.7122 16.1761C78.0562 15.3681 78.6082 14.7681 79.3842 14.3681C80.1522 13.9681 81.1842 13.7681 82.4722 13.7681C83.9282 13.7681 85.0882 14.0881 85.9602 14.7361C86.8242 15.3761 87.2962 16.3841 87.3682 17.7601C87.3842 17.9201 87.3922 18.1601 87.3922 18.4721C87.3922 18.8561 87.3762 19.2081 87.3522 19.5361C87.3282 19.8641 87.3042 20.0721 87.2882 20.1521L80.3202 20.5601C80.2882 21.3761 80.4882 21.9601 80.9042 22.2801ZM84.4242 17.8081C84.4242 16.6721 83.7602 16.1041 82.4242 16.1041C81.7602 16.1041 81.2562 16.2801 80.8962 16.6401C80.5442 16.9921 80.3362 17.5361 80.2882 18.2641L84.4162 18.1041C84.4162 18.0321 84.4242 17.9361 84.4242 17.8081Z" fill="#00292D"/>
<path d="M94.9038 16.9041C94.6398 16.4481 94.1838 16.2241 93.5278 16.2241C93.1758 16.2241 92.8398 16.2961 92.5438 16.4401C92.2398 16.5841 91.9918 16.7361 91.7918 16.9121C91.5918 17.0801 91.4958 17.1761 91.4958 17.2001V24.9361H88.4878V14.1681L91.4958 13.4321V15.2081C91.4958 15.1601 91.6558 15.0081 91.9838 14.7521C92.3118 14.4961 92.7118 14.2641 93.1918 14.0561C93.6638 13.8401 94.1678 13.7361 94.6958 13.7361C95.9918 13.7361 96.9198 14.1121 97.4798 14.8721C98.0398 15.6321 98.3198 16.7441 98.3198 18.2161V20.2721C98.3278 20.8961 98.3518 21.3841 98.4078 21.7201C98.4558 22.0641 98.5518 22.3121 98.6878 22.4721C98.8238 22.6321 99.0318 22.7121 99.3118 22.7121C99.5838 22.7121 99.8318 22.6481 100.064 22.5281C100.296 22.4001 100.464 22.2801 100.584 22.1521L101.224 22.5121C101.224 22.5441 101.016 23.3201 100.8 23.6561C100.416 24.2481 99.5998 24.9761 98.3358 24.9761C97.1758 24.9761 96.3838 24.6081 95.9518 23.8721C95.5198 23.1361 95.3038 22.4081 95.3038 21.2401V19.0321C95.2958 18.0641 95.1598 17.3601 94.9038 16.9041Z" fill="#00292D"/>
<path d="M106.528 16.9039C106.264 16.4479 105.808 16.224 105.152 16.224C104.8 16.224 104.464 16.2959 104.168 16.4399C103.864 16.5839 103.616 16.7359 103.416 16.9119C103.216 17.0799 103.12 17.1759 103.12 17.1999V24.9359H100.112V14.1679L103.12 13.6479V15.2079C103.12 15.1599 103.28 15.0079 103.608 14.752C103.936 14.496 104.336 14.2639 104.816 14.0559C105.288 13.8399 105.792 13.7359 106.32 13.7359C107.616 13.7359 108.544 14.1119 109.104 14.8719C109.664 15.6319 109.944 16.7439 109.944 18.2159V20.2719C109.952 20.8959 109.976 21.3839 110.032 21.7199C110.08 22.0639 110.176 22.3119 110.312 22.4719C110.448 22.6319 110.656 22.7119 110.936 22.7119C112.272 22.7119 112.648 21.6319 112.76 21.5039L113.144 23.1839C113.144 23.2159 112.496 24.3519 111.36 24.8559C110.92 25.0559 110.464 25.1999 109.952 25.1999C108.792 25.1999 108 24.8319 107.568 24.0959C107.136 23.3599 106.92 22.4079 106.92 21.2319V19.0239C106.92 18.0639 106.784 17.3599 106.528 16.9039Z" fill="#00292D"/>
<path d="M115.824 21.5438C115.872 21.9278 115.968 22.2158 116.12 22.4158C116.264 22.6158 116.48 22.7118 116.752 22.7118C117.904 22.7198 118.768 21.7438 118.912 21.6158L119.392 23.1918C119 23.6638 117.696 25.1998 115.84 25.1998C114.984 25.1998 114.328 24.9918 113.872 24.5678C113.416 24.1518 113.104 23.6238 112.952 22.9918C112.8 22.3598 112.72 21.6318 112.72 20.8158V16.2638H111.664V14.0078H112.944L115.736 13.4878V20.0238C115.752 20.6638 115.776 21.1678 115.824 21.5438Z" fill="#00292D"/>
<path d="M128.712 21.5439C128.76 21.9279 128.856 22.2159 129.008 22.4159C129.152 22.6159 129.368 22.6959 129.64 22.7119C130.664 22.7759 131.304 22.0559 131.448 21.9279L131.952 23.5999C131.552 24.0719 131.064 24.4559 130.48 24.7519C129.896 25.0479 129.312 25.1999 128.728 25.1999C127.32 25.1999 126.392 24.5759 125.944 23.3359C125.592 23.8799 125.168 24.3119 124.672 24.6559C124.168 24.9919 123.592 25.1759 122.928 25.2079C122.84 25.2159 122.712 25.2159 122.544 25.2159C121.048 25.2159 120.024 24.6239 119.488 23.4479C118.952 22.2719 118.68 20.9199 118.68 19.4079C118.68 17.6639 119.008 16.2879 119.664 15.2719C120.32 14.2559 121.416 13.7439 122.944 13.7439C123.424 13.7439 123.904 13.8559 124.408 14.0719C124.912 14.2879 125.304 14.5359 125.616 14.8159V13.4399L128.632 14.1759V20.0399C128.64 20.6639 128.664 21.1679 128.712 21.5439ZM123.72 16.2319C123.208 16.2319 122.8 16.4159 122.504 16.7839C122.208 17.1519 122 17.5919 121.88 18.0959C121.76 18.5999 121.704 19.0879 121.704 19.5679C121.72 20.3919 121.872 21.0959 122.16 21.6799C122.448 22.2639 122.88 22.5839 123.456 22.6479L123.608 22.6559C124 22.6559 124.376 22.5279 124.752 22.2799C125.12 22.0319 125.416 21.7279 125.64 21.3599V17.1199C125.072 16.5279 124.432 16.2319 123.72 16.2319Z" fill="#00292D"/>
<path d="M134.496 21.5361C134.544 21.9201 134.64 22.2081 134.792 22.4081C134.936 22.6081 135.152 22.7041 135.424 22.7041C136.544 22.7041 136.864 21.7361 137.016 21.6081L137.72 23.5921C137.328 24.0561 136.84 24.4321 136.256 24.7281C135.672 25.0241 135.088 25.1681 134.504 25.1681C133.648 25.1681 132.992 24.9601 132.536 24.5521C132.08 24.1361 131.768 23.6161 131.616 22.9921C131.464 22.3681 131.384 21.6401 131.384 20.8241L131.376 10.2321L134.4 9.7041V20.0241C134.416 20.6481 134.44 21.1601 134.496 21.5361Z" fill="#00292D"/>
<path d="M138.888 22.3918C139.704 22.6158 140.4 22.7358 140.992 22.7358C141.6 22.7358 142.064 22.6558 142.392 22.5038C142.72 22.3518 142.88 22.0958 142.88 21.7278C142.88 21.4958 142.768 21.2958 142.544 21.1278C142.32 20.9598 142.04 20.8318 141.712 20.7278C141.384 20.6238 140.928 20.5038 140.352 20.3678L139.904 20.2638C139 20.0318 138.304 19.6238 137.808 19.0558C137.312 18.4878 137.064 17.7998 137.064 16.9998C137.064 16.7438 137.08 16.5198 137.12 16.3278C137.28 15.4318 137.776 14.7758 138.608 14.3598C139.44 13.9438 140.464 13.7358 141.704 13.7358C142.472 13.7358 143.176 13.8238 143.816 14.0078C144.456 14.1918 145 14.4078 145.448 14.6558L145.152 16.9758C144.872 16.8398 144.504 16.7118 144.048 16.5838C143.592 16.4558 143.12 16.3518 142.648 16.2718C142.216 16.2238 141.84 16.1998 141.52 16.1998C140.536 16.1998 140.048 16.4558 140.048 16.9598C140.048 17.3038 140.208 17.5678 140.536 17.7518C140.864 17.9358 141.368 18.0958 142.064 18.2238C143.28 18.4718 144.24 18.8958 144.952 19.4798C145.664 20.0718 146.016 20.8158 146.016 21.7038C146.016 22.5518 145.8 23.2318 145.36 23.7518C144.92 24.2718 144.36 24.6398 143.672 24.8638C142.984 25.0798 142.232 25.1918 141.416 25.1918C141.04 25.1918 140.672 25.1678 140.32 25.1278C138.92 24.9678 137.736 24.5998 136.768 24.0078L137.032 21.5998C137.448 21.9038 138.072 22.1678 138.888 22.3918Z" fill="#00292D"/>
<path d="M114.32 12.7361C115.226 12.7361 115.96 12.1415 115.96 11.4081C115.96 10.6746 115.226 10.0801 114.32 10.0801C113.414 10.0801 112.68 10.6746 112.68 11.4081C112.68 12.1415 113.414 12.7361 114.32 12.7361Z" fill="#00292D"/>
<path d="M27.5041 4.64816V4.64016C27.7681 4.55216 27.9761 4.32816 27.9761 4.00016C27.9761 3.80816 27.9041 3.63216 27.7761 3.52016C27.6161 3.37616 27.4001 3.31216 27.0481 3.31216C26.8241 3.31216 26.5921 3.32816 26.4241 3.36816V5.84016H26.7441V4.76016H27.0481C27.3441 4.76816 27.4721 4.90416 27.5521 5.24816C27.6241 5.56016 27.6801 5.77616 27.7201 5.84816H28.0561C28.0001 5.75216 27.9441 5.51216 27.8641 5.16016C27.8081 4.89616 27.6961 4.72016 27.5041 4.64816ZM27.0801 4.51216H26.7521V3.60016C26.8081 3.58416 26.9121 3.56816 27.0721 3.56816C27.4161 3.56816 27.6481 3.71216 27.6481 4.04016C27.6481 4.32016 27.4321 4.51216 27.0801 4.51216ZM27.1681 2.16016C25.7841 2.16016 24.6641 3.28016 24.6641 4.66416C24.6641 6.04816 25.7841 7.16816 27.1681 7.16816C28.5521 7.16816 29.6721 6.04816 29.6721 4.66416C29.6721 3.28016 28.5521 2.16016 27.1681 2.16016ZM28.7201 6.20816C28.3201 6.60816 27.7761 6.84816 27.1681 6.84816C26.5601 6.84816 26.0161 6.60016 25.6161 6.20816C25.2161 5.80816 24.9761 5.26416 24.9761 4.65616C24.9761 4.04816 25.2241 3.50416 25.6161 3.10416C26.0161 2.70416 26.5601 2.46416 27.1681 2.46416C27.7761 2.46416 28.3201 2.71216 28.7201 3.10416C29.1201 3.50416 29.3601 4.04816 29.3601 4.65616C29.3601 5.26416 29.1121 5.81616 28.7201 6.20816Z" fill="#00292D"/>
<path d="M13.056 13.0722V15.4242C13.056 16.0642 12.536 16.5922 11.888 16.5922C11.248 16.5922 10.72 16.0722 10.72 15.4242V10.0322C10.72 9.39216 11.24 8.86416 11.888 8.86416H17.28C17.92 8.86416 18.448 9.38416 18.448 10.0322C18.448 10.6722 17.928 11.2002 17.28 11.2002H14.456L21.296 18.8162C23.328 17.0802 24.624 14.5042 24.624 11.6162C24.624 6.40016 20.384 2.16016 15.16 2.16016H3.96C3.064 2.16016 2 2.98416 2 4.19216V9.76016L13.664 22.7522V20.4002C13.664 19.7602 14.184 19.2322 14.832 19.2322C15.472 19.2322 16 19.7522 16 20.4002V25.7922C16 26.4322 15.48 26.9602 14.832 26.9602H9.44C8.8 26.9602 8.272 26.4402 8.272 25.7922C8.272 25.1522 8.792 24.6242 9.44 24.6242H12.264L2 13.1842V27.8722C2.032 28.8802 2.8 29.7042 3.792 29.8162L4.032 29.8322H23.552C24.672 29.8322 25.584 28.9202 25.584 27.8002C25.584 27.0802 25.12 26.5122 25.12 26.5122C25.104 26.4962 13.056 13.0722 13.056 13.0722Z" fill="#00292D"/>
</svg>
