<svg width="82" height="24" viewBox="0 0 82 24" fill="none" xmlns="http://www.w3.org/2000/svg">
<path d="M54.5306 13.0149C54.4554 11.9962 54.8695 12.3488 54.9743 12.1426C55.0772 11.9407 54.8391 11.6536 55.0427 11.4383C55.1144 11.363 55.262 11.3523 55.3256 11.2881C55.3608 11.2526 55.192 10.8156 55.3152 10.5762C55.6385 9.94618 56.432 9.66443 57.0702 9.46482C57.6688 9.27765 58.5091 9.0483 59.0984 9.35833C59.4433 9.53994 59.5518 9.79468 59.6598 10.1517C59.6418 10.211 59.6234 10.27 59.6034 10.3287C59.3525 11.0671 58.7731 11.241 58.1177 11.5623C59.3729 12.2399 59.699 12.6973 60.3196 13.9135C60.7002 13.1082 61.2231 12.6521 62.147 12.667C62.7576 12.6768 63.5895 12.8523 64.0232 13.3168C64.591 13.9247 64.6798 14.8196 64.6746 15.6097C64.7874 15.0857 64.9399 14.5891 65.324 14.1905C65.5621 13.9437 65.8766 13.8078 66.2203 13.8009C66.5628 13.794 67.0146 13.9278 67.2626 14.1691C67.5187 14.4185 67.622 14.8364 67.626 15.1813C67.6416 16.5919 66.3383 21.1696 65.3484 22.1574C65.0359 22.469 64.6386 22.557 64.2061 22.5565C63.5667 22.5557 62.9485 22.3812 62.4895 21.9217C61.8253 21.2568 61.8225 20.1185 61.8245 19.2417C61.6248 20.1466 61.2231 21.5573 59.9795 21.4171C58.992 21.3058 58.5931 20.414 58.7039 19.4954C58.3526 19.7231 57.8865 19.9862 57.4939 20.1334C55.6601 20.8213 52.9513 19.9324 52.2166 18.0495C52.1334 18.1155 52.0386 18.2022 51.9682 18.2781C51.0303 19.2767 49.6498 19.4707 48.361 19.2087C46.8978 18.9111 46.2596 18.2457 45.4681 17.0737C45.4009 17.6157 45.214 18.2859 44.7623 18.6315C44.1117 19.1294 42.8637 19.0831 42.3355 18.4258C42.2387 18.5085 42.123 18.6176 42.009 18.6719C40.0317 19.613 39.2655 17.5979 38.5776 16.2508C38.6207 16.5411 38.6493 16.8745 38.6808 17.1698C39.2729 17.5633 39.6751 18.0766 39.5439 18.8142C39.4852 19.1642 39.2851 19.4751 38.9899 19.6751C38.3704 20.0994 37.2404 20.0474 36.5206 19.9011C34.2402 19.4378 33.271 18.4202 32.016 16.634C32.1158 17.3603 32.3083 18.1359 31.9087 18.8045C31.4488 19.574 30.1884 19.5378 29.506 19.1211C28.9242 19.7064 28.2381 20.0307 27.3739 19.8011C26.5654 19.5862 26.4377 18.7851 26.0911 18.1343C25.9034 18.1753 25.7016 18.2106 25.5119 18.2472C25.4983 18.7339 25.5053 19.5151 25.2177 19.9125C24.6799 20.6558 23.3531 20.7086 22.6386 20.2201C21.9582 20.8408 21.5558 21.4293 20.5522 21.7073C18.654 22.2332 16.5727 23.2051 15.6999 20.6345C15.1999 19.1619 14.0747 16.2127 14.6333 14.5477C15.5897 12.9783 20.8269 11.7868 21.5629 14.3955C21.8636 15.4488 21.781 15.8125 21.4158 16.6143C21.5324 16.6592 21.5826 16.6729 21.7052 16.6974C21.7586 16.6176 21.7607 15.5588 21.796 15.3378C21.9246 14.5353 22.0188 13.6219 22.3216 12.8683C22.5952 12.1877 23.1386 11.59 23.8255 11.3179C24.5498 11.0311 25.6048 10.9457 26.3347 11.2516C27.1515 11.5938 27.9035 12.5808 28.2349 13.3872C28.1374 11.7542 28.3884 10.6129 30.194 10.3142C31.8451 10.041 34.3049 9.80695 35.1595 11.6221C35.2721 10.9736 35.5097 10.355 36.1907 10.1103C37.5868 9.60862 39.4223 9.60651 40.8042 10.1582C41.3984 10.3954 41.8509 10.9097 42.0898 11.4844C42.1899 11.076 42.2591 10.7899 42.5276 10.4434C42.7977 10.0974 43.1958 9.87293 43.6331 9.81998C44.1053 9.75988 44.6943 9.95182 45.0556 10.2287C45.5193 10.584 45.6502 11.7552 45.7134 12.312C46.3204 11.2488 47.5232 10.533 48.7131 10.2912C49.6718 10.0964 51.2623 10.0317 52.1206 10.5322C52.7744 10.9134 52.9769 11.8686 52.5087 12.4586C51.9686 13.2237 51.3224 12.9637 50.5677 13.1116C50.1056 13.1092 49.2909 13.2387 48.944 13.5653C48.7643 13.7366 48.6695 13.8113 48.5791 14.0362C48.2626 14.823 48.291 16.1604 49.4454 16.1256C49.557 16.1223 49.6562 16.1225 49.7535 16.0607L49.7915 15.9871C49.7331 15.8416 49.7235 15.8385 49.541 15.7621C49.1641 15.6043 49.0292 15.5745 48.7215 15.2984C48.4306 14.4707 48.5027 14.3057 49 13.6357C49.3681 13.2499 50.1684 13.2436 50.671 13.2596C51.3452 13.3277 51.5416 13.3452 52.1742 13.5725C52.3875 13.4603 52.7956 13.2107 53.0237 13.2525C53.1601 13.2776 53.1593 13.3371 53.3802 13.3433C53.6787 13.166 53.285 12.4597 54.5306 13.0149ZM31.9661 13.5568C32.1719 13.4773 32.3113 13.3881 32.251 13.1533C32.0539 12.9106 31.8899 12.9464 31.6006 12.9629L31.5235 13.0194C31.4995 13.204 31.5404 13.4826 31.5612 13.6759L31.9661 13.5568ZM19.389 21.4363C20.3506 21.2174 21.5526 20.7521 22.0957 19.8913C22.3879 19.4284 22.4496 18.872 22.3253 18.3455C22.231 17.9461 22.0794 17.621 21.7172 17.4019C21.5729 17.3147 20.5129 17.0021 20.5034 16.9648C20.472 16.8415 20.5216 16.7348 20.5867 16.6321C21.0112 15.9627 21.3022 15.826 21.0969 14.918C20.9927 14.4361 20.696 14.0169 20.2746 13.7562C19.7648 13.4378 19.0718 13.3681 18.4844 13.443C17.6594 13.5427 15.7825 14.0101 15.2756 14.6479C14.9645 15.0394 15.0428 15.7428 15.1018 16.2083C15.2446 17.3328 16.0787 20.8338 16.8996 21.4799C17.2255 21.7365 17.6955 21.7569 18.0884 21.7042C18.5252 21.6457 18.9603 21.5361 19.389 21.4363ZM56.3352 17.3183C58.1253 16.9102 58.1089 13.7805 55.9038 13.9923C54.07 14.3768 54.1873 17.6752 56.3352 17.3183ZM39.0064 13.7783C40.0611 13.2727 39.7888 11.863 38.2586 11.9709C38.1064 12.0265 37.9099 12.0886 37.8578 12.2565C37.5471 13.2571 37.7416 14.1454 39.0064 13.7783ZM41.4004 14.7139L41.7473 15.1511L41.8281 15.2231C41.917 15.0586 41.8866 14.4383 41.8802 14.2223L41.8517 14.1808C41.7089 14.3546 41.5537 14.5522 41.4004 14.7139Z" fill="#A7A7A7"/>
<path d="M31.6559 10.7455C32.8208 10.6877 34.2824 10.7675 34.6885 12.1141C34.8491 12.6456 34.8867 13.0185 34.7962 13.5608C34.6987 14.1459 33.7204 14.7398 34.2374 15.2708C34.9625 16.0152 35.739 16.7454 36.7158 17.1346C37.619 17.4945 39.5493 17.6582 38.7927 19.1018C37.6431 19.8072 35.5994 19.2192 34.5454 18.524C34.1072 18.2009 33.706 17.8312 33.3487 17.4215C33.0967 17.1301 32.172 15.7757 32.0219 15.6933C31.9089 15.6314 31.7261 15.6177 31.6015 15.6586C31.0783 15.8303 31.7445 17.8079 31.4171 18.4377C31.3248 18.6153 31.1827 18.7254 30.9911 18.7838C30.5608 18.9146 30.0951 18.7835 29.7138 18.5805C29.8571 17.0031 29.4183 16.3331 28.9992 14.8936C28.7312 13.9733 28.6832 12.2218 29.1769 11.3608C29.8911 10.8682 30.8244 10.8029 31.6559 10.7455ZM31.5615 13.6757L31.9664 13.5566C32.1723 13.4771 32.3116 13.3879 32.2513 13.1531C32.0543 12.9104 31.8903 12.9461 31.6009 12.9627L31.5238 13.0192C31.4999 13.2038 31.5408 13.4824 31.5615 13.6757Z" fill="#373737"/>
<path d="M31.6887 12.3727C32.6594 12.3585 32.9581 12.7713 32.7376 13.6997C32.449 14.0051 32.3925 14.0574 31.9926 14.1963C31.8055 14.2391 31.6042 14.259 31.4128 14.2819C31.0784 14.0431 30.9285 13.7023 30.9053 13.3036C30.8671 12.646 31.044 12.4172 31.6887 12.3727ZM31.5612 13.6759L31.9661 13.5567C32.1719 13.4773 32.3113 13.3881 32.251 13.1533C32.0539 12.9105 31.8899 12.9463 31.6006 12.9629L31.5234 13.0193C31.4995 13.204 31.5404 13.4826 31.5612 13.6759Z" fill="#A7A7A7"/>
<path d="M18.4848 13.4428C19.0722 13.3679 19.7651 13.4375 20.275 13.756C20.6963 14.0166 20.9931 14.4359 21.0973 14.9178C21.3025 15.8258 21.0116 15.9625 20.5871 16.6319C20.522 16.7346 20.4724 16.8413 20.5038 16.9646C20.5132 17.0018 21.5732 17.3145 21.7176 17.4017C22.0797 17.6208 22.2314 17.9458 22.3257 18.3453C22.4499 18.8718 22.3882 19.4282 22.0961 19.8911C21.553 20.7519 20.351 21.2172 19.3894 21.4361C18.9607 21.5359 18.5255 21.6455 18.0888 21.704C17.6959 21.7567 17.2259 21.7363 16.9 21.4797C16.0791 20.8336 15.2449 17.3326 15.1022 16.208C15.0431 15.7426 14.9649 15.0391 15.276 14.6477C15.7828 14.0099 17.6598 13.5425 18.4848 13.4428ZM18.4077 18.7486C18.4513 18.932 18.4924 19.18 18.6025 19.325C18.7096 19.3723 18.6789 19.3584 18.8082 19.3421C19.0781 19.2746 19.6223 19.1188 19.5205 18.7432C19.413 18.6644 19.2218 18.6313 19.0944 18.6492C18.8641 18.6755 18.6337 18.6973 18.4077 18.7486ZM17.9636 17.002C19.4828 16.5579 19.5285 15.1751 18.2393 15.1897C17.8939 15.2511 17.4228 15.3577 17.1691 15.6065C17.0164 15.8834 17.2113 16.7768 17.4414 16.9879C17.622 17.0776 17.7721 17.0475 17.9636 17.002Z" fill="#373737"/>
<path d="M19.1417 18.0537C20.2274 18.0156 20.4519 19.0634 19.6465 19.6321C19.3668 19.8296 19.0789 19.876 18.7489 19.9394C18.5863 19.9649 18.4007 19.9657 18.2693 19.8556C17.9748 19.6088 17.635 18.7134 17.8855 18.389C18.0848 18.1308 18.8198 18.0812 19.1417 18.0537ZM18.4077 18.7488C18.4513 18.9322 18.4923 19.1802 18.6025 19.3252C18.7095 19.3726 18.6789 19.3586 18.8081 19.3423C19.0781 19.2748 19.6222 19.119 19.5204 18.7434C19.413 18.6646 19.2218 18.6315 19.0944 18.6494C18.8641 18.6757 18.6337 18.6975 18.4077 18.7488Z" fill="#A7A7A7"/>
<path d="M18.2392 15.1898C19.5284 15.1752 19.4826 16.558 17.9635 17.0021C17.772 17.0476 17.6218 17.0777 17.4413 16.988C17.2112 16.7769 17.0163 15.8834 17.169 15.6066C17.4227 15.3578 17.8938 15.2512 18.2392 15.1898ZM17.7037 15.9576C17.7259 16.0799 17.7587 16.3337 17.8227 16.4248L17.9135 16.401C18.1057 16.3151 18.5706 16.1246 18.538 15.8674C18.4708 15.7886 18.356 15.7603 18.2536 15.7794C18.0824 15.8302 17.8634 15.8887 17.7037 15.9576Z" fill="#A7A7A7"/>
<path d="M55.8339 11.7166C56.4869 11.8064 57.0123 11.7591 57.6457 12.0097C61.4233 13.5044 60.2738 19.4862 56.2465 19.7692C55.3946 19.8117 54.5355 19.5494 53.8349 19.0766C53.1819 18.636 52.8858 18.093 52.5093 17.4408C52.9286 16.7387 52.969 16.0177 52.9894 15.2187C53.0014 14.7504 52.8786 14.4985 52.7658 14.0535C52.9266 13.7945 53.4 14.0392 53.6708 13.9264C53.8193 13.9112 53.9589 13.5251 54.0722 13.5275C54.5035 13.537 54.9921 13.6224 55.0693 13.0422C55.1025 12.7918 55.2678 12.7204 55.4694 12.6039C55.5314 12.568 55.6331 12.3735 55.6735 12.299C55.6683 11.9596 55.5422 11.9379 55.8339 11.7166ZM56.3357 17.3183C58.1259 16.9101 58.1095 13.7805 55.9044 13.9922C54.0706 14.3768 54.1878 17.6752 56.3357 17.3183Z" fill="#373737"/>
<path d="M55.9042 13.9922C58.1093 13.7804 58.1257 16.9101 56.3355 17.3183C54.1876 17.6751 54.0704 14.3768 55.9042 13.9922ZM56.3819 16.726C56.9425 16.4114 57.1978 15.586 56.8857 15.015C56.8213 14.8976 56.6328 14.7102 56.5312 14.614C56.2331 14.5725 56.095 14.5579 55.7953 14.5943C54.8999 15.3916 55.0571 17.0342 56.3819 16.726Z" fill="#A7A7A7"/>
<path d="M25.0932 11.6585C25.4443 11.6372 25.946 11.694 26.2567 11.8872C27.6423 12.7486 28.473 15.1971 28.941 16.6838C29.0893 17.2175 29.2891 18.2611 29.0092 18.7522C28.671 19.3458 27.752 19.3934 27.2014 19.0725C27.0358 18.8125 26.9076 18.4912 26.7938 18.2039C26.5283 17.5336 26.2699 17.5407 25.6527 17.6116C25.3897 17.6623 25.2511 17.7249 25.0136 17.8422C24.7977 18.6882 25.1539 19.8293 23.9738 19.9388C23.4756 19.9851 23.2633 19.9483 22.8665 19.6426C23.1248 18.8283 23.015 17.6802 22.3184 17.1144C22.3226 15.8153 22.4055 13.4726 23.2896 12.429C23.7771 11.8536 24.3773 11.7142 25.0932 11.6585Z" fill="#373737"/>
<path d="M24.9686 13.7418C25.5931 13.7322 25.9455 14.5858 26.0992 15.093C26.2559 15.6101 26.0523 15.8155 25.5657 15.9205C25.2773 15.9585 25.0635 15.9814 24.7711 15.9964C24.6857 15.8921 24.5938 15.7381 24.5195 15.6219C24.4993 15.0731 24.5332 14.1091 24.9686 13.7418Z" fill="#A7A7A7"/>
<path d="M61.9222 13.2459C64.8827 13.028 63.892 16.2407 64.0573 18.0456L64.2509 18.3239L64.5726 18.1052C64.8679 17.2826 65.2192 15.068 65.8438 14.5316C65.9763 14.4178 66.1199 14.3754 66.294 14.3895C66.5024 14.4065 66.7809 14.5016 66.915 14.6682C67.065 14.8548 67.0318 15.3102 67.0122 15.5317C66.9122 16.676 65.763 21.0687 64.9067 21.7628C64.5758 22.0308 64.2045 21.984 63.8096 21.9444C62.7284 21.6863 62.534 21.1421 62.4387 20.077C62.3535 19.0541 62.4744 18.0274 62.4892 17.0055C62.492 16.7932 62.2911 16.7682 62.2895 16.321L62.2363 16.3088C62.133 16.3915 62.1154 16.5509 62.0434 16.6833C61.4176 17.8335 61.4248 19.2752 60.7718 20.4297C60.3165 21.1289 59.4498 20.8817 59.3029 20.0926C59.0609 18.7888 59.9764 18.2389 60.3029 17.0889C60.4821 16.4576 60.4837 15.9018 60.5269 15.2562C60.5793 14.4796 61.0499 13.3904 61.9222 13.2459Z" fill="#373737"/>
<path d="M38.4071 10.3487C40.2701 10.2984 41.7809 10.8282 41.6741 12.8797C41.6353 13.632 41.2892 13.8534 40.8871 14.4461C40.8382 14.5178 40.7882 14.6742 40.8178 14.762C41.2584 15.9165 42.6712 16.6764 41.8942 18.0582C40.851 18.7245 40.216 18.0777 39.745 17.1772C39.3935 16.6489 39.1275 15.8177 38.6707 15.3675C38.6277 15.3252 38.4104 15.2505 38.3419 15.2274C38.2109 15.311 38.0971 15.4141 37.979 15.5149C37.9492 15.9381 37.9961 16.4997 38.0312 16.9202C37.5275 16.7231 36.9865 16.6576 36.5127 16.3697C36.2416 16.205 35.9692 16.0414 35.6979 15.8771C35.6901 15.8163 35.6841 15.7554 35.6799 15.6943C35.613 14.652 35.4424 11.6834 36.0907 10.8925C36.4781 10.42 37.8033 10.3779 38.4071 10.3487ZM39.0064 13.7781C40.0611 13.2726 39.7888 11.8628 38.2586 11.9707C38.1064 12.0263 37.9099 12.0884 37.8578 12.2563C37.5472 13.2569 37.7416 14.1452 39.0064 13.7781Z" fill="#373737"/>
<path d="M38.2589 11.9707C39.7891 11.8628 40.0614 13.2726 39.0067 13.7781C37.7419 14.1452 37.5474 13.257 37.8581 12.2564C37.9102 12.0884 38.1067 12.0263 38.2589 11.9707ZM38.9418 13.1476C38.9956 12.996 39.0212 12.9395 39.0115 12.7739C38.87 12.5161 38.6207 12.549 38.3489 12.5363C38.3476 12.7307 38.3263 13.0132 38.4027 13.1818C38.5622 13.3337 38.7682 13.2551 38.9418 13.1476Z" fill="#A7A7A7"/>
<path d="M49.7341 10.7442C50.4188 10.6747 52.1893 10.6963 52.1705 11.6935C52.1517 12.6695 50.8025 12.424 50.1647 12.5221C49.5381 12.6184 48.8583 12.7864 48.3949 13.2427C47.6675 13.9611 47.5822 15.6019 48.3321 16.322C49.0231 16.9761 50.4268 16.9223 50.3851 15.7065C50.3623 15.0432 49.2436 15.399 49.1664 14.7764C49.0251 13.6345 50.416 13.8156 51.1282 13.8973C51.6267 13.9545 51.9056 14.0871 52.2281 14.4058C52.3278 14.5871 52.3674 14.7999 52.383 15.0045C52.5166 16.7474 51.6796 18.5587 49.7213 18.7069C47.5014 18.875 45.7497 17.4944 45.6312 15.2378C45.4896 12.5463 47.0933 10.9498 49.7341 10.7442Z" fill="#373737"/>
<path d="M43.6935 10.4144C44.0044 10.3974 44.2213 10.4512 44.5034 10.5998C44.7763 10.745 44.8767 10.9974 44.9459 11.2799C45.2172 12.3884 45.1084 13.5335 45.0239 14.6597C44.9451 15.7159 45.0399 16.928 44.6126 17.9172C44.5086 18.1587 44.1605 18.2999 43.922 18.3593C43.379 18.3857 42.6036 18.2685 42.7004 17.6382C42.7104 17.5717 42.7372 17.1618 42.7256 17.1261C42.4959 16.4455 42.4359 15.9782 42.4631 15.2552C42.5039 13.9882 42.4855 12.6866 42.7272 11.4384C42.842 10.8441 43.1297 10.5894 43.6935 10.4144Z" fill="#373737"/>
<path d="M58.0744 9.82485C58.4653 9.77754 59.4108 9.80677 58.8766 10.4082C58.4053 10.9391 57.5106 11.1664 56.8284 11.2239C56.5271 11.2194 56.0153 11.21 55.8301 10.9457C55.8637 10.3506 57.565 9.95478 58.0744 9.82485Z" fill="#373737"/>
<path d="M36.3287 3.67298C36.5673 2.73927 37.2073 2.26445 38.2156 2.3398C38.7616 2.38061 39.2589 2.84804 38.9306 3.4008C38.8779 3.49721 38.7945 3.57586 38.7697 3.67556C38.8772 3.8155 38.9565 3.99139 39.0736 4.04609C39.9479 3.33307 40.5207 3.22201 41.535 3.71985C42.7466 2.67303 43.1247 4.19393 43.1483 5.14143C43.1355 5.48089 43.1739 5.7738 43.1675 6.0886C43.1619 6.54497 43.1559 7.28865 43.0011 7.71209C42.9567 7.7217 42.5729 8.08722 42.3849 8.09922C42.1152 8.11642 41.7859 7.98589 41.6018 7.82752C41.1533 8.05378 40.7076 8.1909 40.1986 8.11439C39.7238 8.0384 39.2989 7.77755 39.0183 7.38958C38.4993 6.68428 38.4433 5.82592 38.575 4.99584L38.2142 5.10548C38.2368 6.16658 38.8841 8.95877 36.832 8.0647C36.8192 8.0591 36.7599 7.84535 36.6583 7.78359C36.3472 7.80726 36.457 8.44186 35.1828 8.38184C34.4611 7.9186 34.4359 7.83924 34.2545 6.98366C34.227 6.81055 34.1979 6.56086 34.13 6.40745L34.1648 6.48709L34.1129 6.53607C34.1222 6.61186 34.1824 7.16654 34.1946 7.18529C34.3937 8.15141 33.7098 9.0259 32.7726 8.34717C32.6611 8.42923 32.5038 8.53573 32.3814 8.59475C31.9228 8.82085 31.3916 8.85366 30.9083 8.68584C28.6848 7.90414 29.0924 3.09311 32.303 4.29276C32.676 3.9185 32.8 3.93657 33.3063 3.90976C33.8577 4.38329 33.8901 4.65455 34.0009 5.34457C33.9933 5.56749 34.0526 5.82715 34.0944 6.04963C34.1239 5.86667 34.092 5.2967 34.051 5.11648C33.8813 4.08811 33.7706 1.91369 35.5043 2.82614C35.7333 3.2833 35.7335 3.61129 35.7849 4.11469L35.8159 4.11302C35.8881 3.90476 36.1477 3.79139 36.3287 3.67298ZM40.9576 6.4869C41.4222 6.21599 41.4278 5.97571 41.3834 5.477C41.1457 5.20451 41.1237 5.15354 40.7728 5.08995C40.6215 5.1286 40.4923 5.16935 40.4223 5.31557C40.175 5.8341 40.2882 6.47689 40.9576 6.4869ZM32.0891 7.05905C32.6525 6.61893 32.438 5.6627 31.5562 5.73452C31.0536 6.09698 31.176 7.30573 32.0891 7.05905ZM35.9741 6.69119C36.2143 6.74203 36.2909 6.77528 36.5066 6.89627C36.485 6.52563 36.5019 5.45964 36.3653 5.2173C36.1652 5.06663 36.0035 4.95191 35.8173 4.78309C35.8312 5.33134 35.9024 6.13718 35.9741 6.69119Z" fill="#A7A7A7"/>
<path d="M40.3813 3.90549C40.587 3.89079 40.7535 3.91995 40.9571 3.94716C41.1132 4.07431 41.3648 4.30485 41.5549 4.32885C41.9258 4.37564 41.9078 4.05723 42.1395 3.87713C42.332 3.86501 42.4648 3.97544 42.5004 4.15518C42.6112 4.71332 42.965 7.54082 42.2407 7.61613C41.9302 7.49617 42.0055 7.34789 41.8138 7.06026C41.4081 7.07611 41.2232 7.57542 40.7298 7.63091C39.0778 7.81693 38.5834 5.57636 39.3951 4.49425C39.6306 4.17425 39.9861 3.96197 40.3813 3.90549ZM40.9575 6.48687C41.4221 6.21597 41.4277 5.97569 41.3833 5.47698C41.1456 5.20448 41.1236 5.15352 40.7727 5.08992C40.6214 5.12857 40.4922 5.16933 40.4221 5.31555C40.1749 5.83408 40.2881 6.47686 40.9575 6.48687Z" fill="#373737"/>
<path d="M40.7243 4.39258C41.0756 4.81574 41.5669 4.56454 41.8454 5.36943C41.9567 5.69241 41.9334 6.04625 41.7806 6.35211C41.5865 6.7344 41.3901 6.85746 41.0043 6.98338C40.6178 6.99339 40.5198 6.95454 40.1669 6.78965C39.6562 6.06071 39.5741 5.00037 40.5526 4.62027C40.6822 4.5699 40.6818 4.50837 40.7243 4.39258ZM40.9579 6.48685C41.4225 6.21595 41.4281 5.97567 41.3837 5.47695C41.146 5.20446 41.124 5.1535 40.7731 5.0899C40.6218 5.12855 40.4926 5.16931 40.4226 5.31552C40.1753 5.83406 40.2885 6.47684 40.9579 6.48685Z" fill="#A7A7A7"/>
<path d="M32.8686 4.39966C33.0075 4.40828 33.106 4.40276 33.2229 4.48029C33.5549 4.83855 33.6698 6.85731 33.704 7.41481C33.7223 7.71296 33.6997 8.09477 33.3094 8.09473C33.1599 8.02264 33.0536 7.81775 32.9103 7.66971C32.3926 7.51269 32.4058 8.63035 31.0363 8.19523C29.6965 7.57835 29.5513 4.87434 31.2328 4.62592C31.9208 4.52427 31.8944 4.81698 32.427 4.94135C32.7127 4.86913 32.6749 4.65166 32.8686 4.39966ZM32.0894 7.0591C32.6528 6.61898 32.4383 5.66274 31.5565 5.73456C31.0539 6.09703 31.1763 7.30577 32.0894 7.0591Z" fill="#373737"/>
<path d="M31.4655 5.25626C32.3376 5.16407 32.8646 5.57706 32.8878 6.50588C32.8998 6.99041 32.5728 7.37556 32.1356 7.57719C30.8826 7.83229 30.5293 6.51073 30.9733 5.55986C31.1711 5.41182 31.2437 5.36411 31.4655 5.25626ZM32.0893 7.05905C32.6527 6.61893 32.4383 5.6627 31.5564 5.73452C31.0538 6.09698 31.1762 7.30573 32.0893 7.05905Z" fill="#A7A7A7"/>
<path d="M37.8096 2.83335C38.0224 2.8226 38.4456 2.80577 38.5588 3.04246C38.5033 3.47877 37.4886 3.14129 37.6241 3.82745C37.7182 4.3042 38.2124 3.97065 38.5041 4.17665C38.568 4.3059 38.5531 4.25629 38.5434 4.40986C38.3479 4.69216 38.0248 4.51754 37.7977 4.69256C37.5933 4.85006 37.8323 7.05988 37.7899 7.48996C37.6783 7.69814 37.4755 7.80046 37.25 7.69556C36.8074 7.318 36.959 5.47533 36.8529 4.74833C36.6098 4.68668 36.474 4.73085 36.2975 4.53153C36.2007 4.21411 36.5452 4.17359 36.787 4.10479C36.824 3.83194 36.85 3.65383 36.9197 3.38336C37.2184 3.07078 37.4025 2.95587 37.8096 2.83335Z" fill="#373737"/>
<path d="M34.6874 3.13965C34.793 3.13297 34.9822 3.10775 35.0676 3.17675C35.3055 3.36888 35.3836 5.92246 35.4312 6.42666C35.5129 7.29161 35.7418 6.95278 36.0904 7.2781C36.1232 7.30865 36.1464 7.35155 36.1484 7.39584C36.1559 7.56303 36.0086 7.70647 35.9007 7.81979C34.6057 8.29451 34.6583 6.37565 34.5662 5.57231C34.4953 4.954 34.502 4.27912 34.4963 3.6581C34.494 3.40177 34.5076 3.31975 34.6874 3.13965Z" fill="#373737"/>
<path d="M43.651 3.55113C43.4385 3.39418 43.3037 3.30318 43.2577 3.0194C43.0604 1.8026 44.9818 1.64926 45.1487 2.75383C45.2031 3.11259 44.9638 3.38215 44.7509 3.64459C45.033 3.91959 45.0998 4.39463 45.1443 4.78041C46.1014 2.93678 48.7226 3.13635 49.5701 5.02013C49.9322 3.61468 50.3483 3.47843 51.133 4.01325C51.1374 4.01635 51.5059 3.90346 51.5583 3.88265C52.4658 3.52292 53.2564 4.92416 52.3401 5.41692C52.01 5.59451 51.8456 5.51598 51.4995 5.52846C51.0753 6.26582 51.2998 6.84548 51.2202 7.64195C51.1562 8.28486 50.4487 8.64557 49.879 8.32132C49.5132 8.11342 49.3968 7.43222 49.3784 7.04668L49.3348 7.05792C48.6826 8.19505 47.3946 8.50953 46.1862 7.99739C45.6328 7.76271 45.3271 7.3071 45.0654 6.789C45.093 7.41995 45.009 8.16069 44.5633 8.66798C44.2044 9.07616 43.4397 9.32987 42.976 8.92311C42.8075 8.77551 42.7383 8.55139 42.7319 8.33884C42.7083 8.04502 42.9876 7.80938 43.0012 7.71222C43.3181 7.4816 43.238 6.43591 43.2352 6.04159C43.2372 5.81255 43.2328 5.58351 43.2228 5.35467C43.2352 4.60297 43.1516 4.11756 43.651 3.55113ZM47.4126 6.57208C48.0692 6.22558 48.0316 5.23038 47.2669 5.16412C47.0509 5.22097 46.9556 5.23491 46.8368 5.43539C46.7156 5.64194 46.6803 5.88743 46.7392 6.11924C46.8452 6.52274 47.0457 6.57164 47.4126 6.57208Z" fill="#A7A7A7"/>
<path d="M46.9962 4.01337C48.0181 3.86147 48.9736 4.5522 49.1417 5.56432C49.3093 6.57648 48.6279 7.53502 47.6108 7.71659C46.9398 7.83643 46.2556 7.58808 45.8202 7.06669C45.3853 6.54526 45.2668 5.83165 45.5105 5.19923C45.7538 4.56682 46.3216 4.11367 46.9962 4.01337ZM47.4127 6.57215C48.0693 6.22565 48.0317 5.23045 47.2671 5.1642C47.051 5.22104 46.9558 5.23498 46.8369 5.43546C46.7157 5.64202 46.6805 5.8875 46.7393 6.11932C46.8453 6.52282 47.0458 6.57171 47.4127 6.57215Z" fill="#373737"/>
<path d="M46.9901 4.69862C47.2238 4.68174 47.4759 4.65556 47.6967 4.75451C48.6554 5.18383 48.5718 6.67496 47.5935 7.03524C47.177 7.14586 46.8961 7.0485 46.5352 6.85752C46.0262 6.14185 46.079 5.06903 46.9901 4.69862ZM47.4127 6.57216C48.0693 6.22566 48.0316 5.23046 47.267 5.1642C47.0509 5.22105 46.9557 5.23499 46.8369 5.43547C46.7156 5.64202 46.6804 5.8875 46.7392 6.11932C46.8453 6.52282 47.0457 6.57172 47.4127 6.57216Z" fill="#A7A7A7"/>
<path d="M44.1048 3.88794C44.6954 3.93664 44.6522 4.96461 44.621 5.40866C44.555 6.34321 44.8539 8.2227 43.7323 8.60856C43.5062 8.62127 43.4214 8.65547 43.263 8.48133C43.1673 8.12447 43.6307 7.88633 43.6731 7.50361C43.7939 6.41848 43.6211 5.18991 43.8375 4.12603C43.862 4.00631 43.996 3.92973 44.1048 3.88794Z" fill="#373737"/>
<path d="M50.4169 4.2356C50.8522 4.27798 50.7038 5.04358 50.8358 5.16096C50.9562 5.0329 50.8882 5.02909 50.9618 4.81538C51.2695 4.55302 51.7769 4.0555 52.1926 4.4974C52.2351 4.63798 52.2455 4.67099 52.2314 4.81633C51.8945 5.2841 50.9895 4.69304 50.749 6.11708C50.7082 6.56908 50.9162 7.9866 50.3557 7.94311C49.4338 7.87161 50.0832 4.5527 50.4169 4.2356Z" fill="#373737"/>
<path d="M44.0649 2.51063C44.6151 2.5018 44.9588 2.93802 44.3386 3.22239C43.7056 3.26441 43.4988 2.75208 44.0649 2.51063Z" fill="#373737"/>
</svg>
