<svg width="84" height="24" viewBox="0 0 84 24" fill="none" xmlns="http://www.w3.org/2000/svg">
<path d="M12.6063 5.27344C12.725 5.29803 12.783 5.33463 12.7964 5.45799C12.8406 5.80616 12.7704 6.46075 12.8883 6.77474C13.3886 8.10668 14.0484 9.32818 14.5509 10.6703C15.6512 9.84209 16.2077 9.11047 16.5196 7.77098C16.5696 7.55621 16.5978 6.80548 16.7173 6.69793C16.7909 6.77941 16.7827 6.84992 16.7844 6.95889C16.8122 8.65742 16.1243 10.5409 14.8081 11.7739C14.8157 12.7133 14.8486 13.4131 14.5047 14.3158C14.3662 14.6794 14.204 15.0245 14.07 15.388C14.2492 15.3823 14.4515 15.3675 14.6258 15.3304C17.3197 14.7561 18.9221 12.5165 19.3397 10.0039C19.3755 9.78813 19.3772 9.38928 19.4985 9.2092L19.5641 9.20369C19.7972 9.64326 19.364 11.8614 19.17 12.4272C20.3071 12.3781 21.1437 12.0106 21.7851 11.0916C21.888 10.9441 21.9877 10.7405 22.1174 10.6211L22.1951 10.6304C22.203 10.6461 22.2239 10.6959 22.221 10.7119C22.0709 11.5524 21.5076 12.3447 20.7702 12.8113C20.0966 13.2375 19.4733 13.3784 18.6928 13.4668C18.2589 14.2243 17.5616 15.0838 16.809 15.5517C16.6043 15.6789 16.0065 16.0474 15.8689 16.1922L15.8776 16.2721C15.9305 16.3324 16.0173 16.4128 16.0891 16.4497C17.7438 17.2996 19.6327 17.5452 21.2598 16.4804C21.4759 16.3391 21.7406 16.0488 21.9666 15.9885L22.0065 16.0211C21.9673 16.1877 21.7804 16.4071 21.6512 16.5295C20.2216 17.8825 18.3076 18.1571 16.4173 17.6991C15.9684 17.5904 15.34 17.2907 14.936 17.2965C14.6419 17.2981 14.361 17.4145 14.1571 17.6192C13.682 18.0962 13.8152 19.1058 13.8262 19.7772C13.9597 20.0335 14.4002 20.4331 14.3581 20.6817L14.2695 20.7358C13.8669 20.7731 10.3351 20.7967 10.2034 20.7035C10.0981 20.3979 10.4707 20.2053 10.5658 19.8619C10.6448 19.6356 10.6251 19.4134 10.6301 19.1807C10.6568 17.9484 10.131 17.7206 8.97491 17.7305C7.70818 17.6859 6.12079 17.185 5.394 16.1156C3.7391 16.5239 2.29935 15.8016 1.36523 14.4741C2.62493 15.1794 3.29097 15.9205 4.8722 15.4381C4.64817 15.1413 4.44929 14.7551 4.31808 14.4167C4.14126 13.9608 3.60027 12.2343 3.78192 11.8526C3.97992 11.9486 4.23071 13.1046 4.39207 13.4168C4.54116 13.7712 4.73229 14.1163 4.92277 14.4491C5.84878 16.0673 7.45971 16.8641 9.36734 16.634C10.673 16.4764 10.2665 14.8533 10.1262 14.0119C9.59724 14.1341 8.79932 14.1689 8.27727 13.9934C7.66302 13.7815 7.15988 13.3441 6.87675 12.7761C7.28461 12.9697 7.60839 13.3801 8.16817 13.5191C8.82385 13.6819 9.33818 13.579 9.92011 13.2703C9.75999 12.899 9.51955 12.2977 9.32641 11.9512C8.71245 10.8497 7.79969 9.84074 6.76306 9.09136C6.4844 8.88992 5.58312 8.34195 5.43391 8.16417C5.86535 7.79806 8.4785 9.63604 8.8706 9.99315C10.2243 8.69207 9.99595 7.72689 9.36747 6.14562C9.72193 6.40871 9.9907 6.78663 10.1494 7.18713C10.6709 8.50327 10.4121 9.61753 9.55434 10.6998C10.8622 11.8836 11.5545 13.7465 11.8727 15.3778C11.9038 15.5374 11.9927 15.6649 12.1667 15.6836C12.4759 15.5546 12.7424 14.8796 12.8726 14.5896C13.4576 13.286 13.7184 11.903 13.3316 10.5042C12.887 8.89606 11.8249 6.91488 12.6063 5.27344Z" fill="#FFFDF6"/>
<path d="M30.2854 11.7648C30.2959 11.7647 30.3064 11.7646 30.317 11.7647C30.9862 11.7664 30.8454 12.6283 30.8385 13.0794C31.319 12.4173 31.728 12.1203 32.5417 11.9018C33.3856 11.6751 34.6502 11.7789 35.4021 12.2367C36.9539 13.1815 37.0976 14.6751 37.2244 16.2234L37.3774 18.1122C37.4009 18.3968 37.4182 18.6675 37.4574 18.9815C37.5001 19.4047 38.3484 20.2522 38.0583 20.6478C37.8163 20.9778 36.1502 20.8248 35.7388 20.8386C35.1454 20.8585 34.5008 20.8606 33.9449 20.8438C32.9412 20.8136 33.4131 20.0469 33.8068 19.6271C34.1911 19.0848 33.983 17.5546 33.9375 16.9071C33.8838 16.1437 33.8908 15.003 33.7345 14.3092C33.6741 14.0477 33.5829 13.7504 33.4405 13.5195C33.3147 13.3157 33.1257 13.1158 32.8792 13.0565C32.5983 12.9889 32.261 13.0093 32.0108 13.1584C31.6843 13.3529 31.5119 13.7222 31.4247 14.0704C31.3099 14.5288 31.2767 18.7718 31.3838 19.116C31.5015 19.4946 31.8603 19.7339 32.0629 20.0624C32.1508 20.2047 32.2123 20.3936 32.1644 20.5589C32.144 20.6295 32.0992 20.7101 32.0302 20.7448C31.8924 20.8142 31.7178 20.8347 31.5644 20.8445C31.0738 20.8756 27.6764 20.8891 27.3859 20.8028C27.2853 20.7729 27.2328 20.7346 27.1838 20.6432C26.8958 20.1061 27.7148 19.6826 27.8681 19.2042C28.0538 18.6247 27.9435 16.8749 27.9416 16.1739C27.9407 15.8567 27.9738 15.5293 27.9519 15.2139C27.9435 15.0739 27.9128 14.936 27.861 14.805C27.6789 14.3582 27.1966 14.2108 26.9932 13.8235C26.9385 13.7193 26.9375 13.6129 26.9753 13.5033C27.1158 13.0966 29.7739 12.0101 30.2854 11.7648Z" fill="#FFFDF6"/>
<path d="M60.9501 11.8121C61.012 11.8039 61.0743 11.7983 61.1367 11.7953C61.6084 11.7768 61.5567 12.2072 61.5554 12.5291C61.5161 12.5875 61.4607 12.6689 61.4127 12.7207C60.6445 13.545 59.8459 14.3418 59.0998 15.1851C59.017 15.2788 58.7955 15.5114 58.672 15.5226L58.6671 15.3798C58.6618 14.7521 58.4444 14.5073 57.9834 14.0975C57.5572 13.8088 57.6975 13.3418 58.1327 13.1035C58.9985 12.6297 60.0608 12.2384 60.9501 11.8121Z" fill="#FFFDF6"/>
<path d="M3.55186 9.31934C4.05259 9.41148 5.0855 11.1745 3.83557 11.5149C2.33697 11.5627 3.03921 9.98819 3.55186 9.31934Z" fill="#FFFDF6"/>
<path d="M13.6229 3.02808C13.9874 3.10393 13.9711 4.1081 13.8948 4.39468C13.7353 4.99317 13.3945 5.19361 12.7908 5.06039C11.5976 4.30287 12.9564 3.43901 13.6229 3.02808Z" fill="#FFFDF6"/>
<path d="M19.5011 6.7019C19.9887 6.75359 20.9795 8.64449 19.5898 8.90965C18.11 8.7536 19.044 7.33655 19.5011 6.7019Z" fill="#FFFDF6"/>
<path d="M19.0935 14.9849C19.109 14.9861 19.1795 15.0132 19.1991 15.0203C19.4001 15.4076 18.9692 17.1747 17.7935 16.7042C17.7566 16.6825 17.7202 16.66 17.6842 16.6368C17.539 16.5429 17.4675 16.4696 17.4326 16.2981C17.2462 15.3832 18.376 15.1039 19.0935 14.9849Z" fill="#FFFDF6"/>
<path d="M23.4666 13.7761C23.5872 13.7899 23.5458 13.7709 23.6332 13.854C23.9015 14.5697 23.6396 16.111 22.4682 15.6926C21.3435 14.8602 22.7502 14.1186 23.4666 13.7761Z" fill="#FFFDF6"/>
<path d="M16.1987 4.2439C16.4429 4.28946 16.7986 4.66225 16.9396 4.86323C17.3369 5.42953 17.4695 5.9581 16.8207 6.38512C16.6127 6.42708 16.3489 6.45685 16.1621 6.35048C15.3992 5.9161 15.9468 4.75128 16.1987 4.2439Z" fill="#FFFDF6"/>
<path d="M14.3123 5.09302C14.7464 5.12578 15.2121 7.39309 13.6605 7.15834C13.0295 6.89864 13.0593 6.3285 13.4256 5.86072C13.6899 5.52319 13.9576 5.33534 14.3123 5.09302Z" fill="#FFFDF6"/>
<path d="M8.3034 7.09839C8.59613 7.2056 9.00547 7.61345 9.18618 7.8662C9.56919 8.40176 9.62279 8.82512 9.05489 9.20915C7.9544 9.62755 7.79145 8.35363 8.08553 7.65579C8.16785 7.46049 8.17507 7.30016 8.3034 7.09839Z" fill="#FFFDF6"/>
<path d="M5.63784 9.31869C7.07154 9.10043 7.68829 10.3713 6.49995 10.8317C5.88849 10.8212 5.56504 10.4145 5.20426 9.98314C5.06178 9.81273 4.90858 9.63452 5.06317 9.43287C5.20738 9.34561 5.46131 9.33712 5.63784 9.31869Z" fill="#FFFDF6"/>
<path d="M22.9538 8.30437C23.0491 8.3031 23.0626 8.30766 23.1401 8.36277C23.3934 8.76333 23.465 10.0127 22.9568 10.2657C22.7013 10.393 22.5089 10.3791 22.2415 10.3184C22.1714 10.302 22.0844 10.2621 22.0305 10.2153C21.3171 9.59482 22.354 8.56822 22.9538 8.30437Z" fill="#FFFDF6"/>
<path d="M12.0004 10.0559C12.1051 10.0458 12.0662 10.0376 12.157 10.0884C12.3151 10.4005 12.2876 11.157 12.1727 11.4928C11.9873 12.0347 11.5825 12.1605 11.0466 11.9892C10.7925 11.7829 10.7566 11.6571 10.6567 11.3617C10.8199 10.5877 11.3454 10.3783 12.0004 10.0559Z" fill="#FFFDF6"/>
<path d="M7.88752 14.6082C8.69142 14.7017 10.4421 15.0308 9.52232 16.1786C8.57797 16.9717 7.79039 15.3625 7.88752 14.6082Z" fill="#FFFDF6"/>
<path d="M0.15508 12.4724C0.906827 12.6459 2.26812 13.487 1.39404 14.3157C0.11894 15.0404 -0.210465 12.9904 0.15508 12.4724Z" fill="#FFFDF6"/>
<path d="M17.0448 9.00109C17.5564 8.94455 18.4802 9.11353 18.8037 9.51683C18.8945 9.83488 18.4901 9.99272 18.2374 10.1504C16.9204 10.922 16.0046 9.60191 17.0448 9.00109Z" fill="#FFFDF6"/>
<path d="M3.88229 6.97861C4.22408 6.93566 4.6241 6.94939 4.9053 7.16202C5.0733 7.28881 5.1822 7.475 5.20796 7.6795C5.26907 8.17977 4.88845 8.39795 4.43773 8.44692C3.73194 8.32243 3.28497 7.72851 2.97363 7.13982C3.26233 7.06766 3.58723 7.01814 3.88229 6.97861Z" fill="#FFFDF6"/>
<path d="M8.06679 4.19092C8.79769 4.34005 9.44168 4.70386 9.6582 5.42236C9.59577 5.70122 9.5662 5.77991 9.3749 5.9979C8.1567 6.79018 7.74195 4.68854 8.06679 4.19092Z" fill="#FFFDF6"/>
<path d="M19.7735 13.5117C20.2326 13.4737 21.1364 14.0135 21.0574 14.4485C20.9611 14.5471 20.7305 14.6001 20.5885 14.644C19.5028 14.8599 18.8213 14.0756 19.7735 13.5117Z" fill="#FFFDF6"/>
<path d="M21.126 14.9724C21.2485 14.9747 21.2061 14.9587 21.2975 15.0348C21.436 15.4406 21.2792 16.1438 20.9015 16.39C20.6862 16.5303 20.5178 16.4931 20.2812 16.4503C20.1318 16.345 20.0641 16.2712 19.9994 16.0972C19.9495 15.9664 19.9571 15.8216 20.0206 15.6963C20.2146 15.31 20.7328 15.1072 21.126 14.9724Z" fill="#FFFDF6"/>
<path d="M20.7684 9.75562C21.2796 9.94941 21.8891 11.2837 20.8588 11.5287C19.7627 11.4278 20.3742 10.2494 20.7684 9.75562Z" fill="#FFFDF6"/>
<path d="M5.93899 11.2512C6.61866 11.3764 7.55554 11.972 6.91319 12.7125C6.07467 13.2571 5.5436 11.7492 5.93899 11.2512Z" fill="#FFFDF6"/>
<path d="M11.0318 7.74829C11.6544 7.76498 12.9005 8.35177 12.2329 9.08096C11.3224 9.66363 10.848 8.29218 11.0318 7.74829Z" fill="#FFFDF6"/>
<path d="M11.2548 5.11475C11.6566 5.25367 12.1487 5.9556 12.047 6.36394C11.988 6.60086 11.8752 6.67061 11.6812 6.79971L11.6689 6.801C10.5264 6.91023 10.7791 5.65222 11.2548 5.11475Z" fill="#FFFDF6"/>
<path d="M12.6721 12.2334C12.9101 12.3028 13.1846 14.1575 11.9049 13.8064C11.1496 13.1762 12.0471 12.4667 12.6721 12.2334Z" fill="#FFFDF6"/>
<path d="M22.9861 11.0608L23.0019 11.0592C23.2353 11.0377 23.6335 11.0295 23.8196 11.179C23.9781 11.5146 23.4408 11.9777 23.1919 12.1883C22.9485 12.2606 22.6713 12.2845 22.456 12.1301C22.3373 12.0456 22.2598 11.9176 22.2419 11.7761C22.1819 11.3235 22.5795 11.1042 22.9861 11.0608Z" fill="#FFFDF6"/>
<path d="M5.41187 12.3838C5.71674 12.5366 6.26023 13.6132 5.95623 13.9206C5.76555 14.1133 5.75275 14.1085 5.50206 14.1697C4.335 14.0254 5.01475 12.932 5.41187 12.3838Z" fill="#FFFDF6"/>
<path d="M2.32591 11.8538C3.21817 11.6968 4.10127 12.4956 3.02735 13.0319C2.52616 13.0367 2.10055 12.6607 1.86947 12.2348C1.81832 12.1405 1.85735 12.0425 1.90117 11.9536C2.01215 11.8646 2.18002 11.8663 2.32591 11.8538Z" fill="#FFFDF6"/>
<path d="M15.4319 6.45923C15.9479 6.60458 16.693 7.71202 15.8678 8.16928C14.689 8.3492 15.0915 7.04416 15.4319 6.45923Z" fill="#FFFDF6"/>
<path d="M2.50468 13.5681C3.16847 13.6211 4.42075 14.0677 3.71347 14.877C3.68442 14.9008 3.6541 14.923 3.62264 14.9437C2.904 15.4076 2.37817 14.133 2.50468 13.5681Z" fill="#FFFDF6"/>
<path d="M16.6815 11.0668C16.7292 11.0548 16.7708 11.0781 16.8192 11.0964C16.9955 11.3571 16.6095 12.5466 15.7003 12.3647C15.3893 12.174 15.1701 11.8212 15.4661 11.5122C15.8075 11.1559 16.2072 11.1015 16.6815 11.0668Z" fill="#FFFDF6"/>
<path d="M16.1457 13.2069C16.3181 13.2018 16.3933 13.1974 16.5613 13.2303C17.0305 13.5914 16.1162 14.3673 15.6934 14.4683C15.2178 14.3766 14.8654 13.9628 15.2407 13.5421C15.5034 13.2475 15.7748 13.2298 16.1457 13.2069Z" fill="#FFFDF6"/>
<path d="M7.54658 11.6823C8.24717 11.5848 9.63144 11.8789 8.95005 12.8229C8.14307 13.2381 7.49272 12.2561 7.54658 11.6823Z" fill="#FFFDF6"/>
<path d="M6.25288 14.1975C6.88989 14.4124 7.86335 15.0186 7.17786 15.724C6.09267 16.2015 6.06236 14.8654 6.25288 14.1975Z" fill="#FFFDF6"/>
<path d="M6.29643 6.54272C6.91757 6.72544 7.7894 7.46114 7.13335 8.11524C6.03044 8.60695 6.074 7.17813 6.29643 6.54272Z" fill="#FFFDF6"/>
<path d="M17.506 10.864L17.5232 10.8698C17.9516 11.011 18.3693 11.6823 18.315 12.1098C18.2847 12.3481 18.1531 12.4496 17.9778 12.592C16.7302 12.6694 17.1971 11.527 17.506 10.864Z" fill="#FFFDF6"/>
<path d="M21.5142 12.5952C22.2055 12.5608 22.5487 12.9309 22.9408 13.4142C22.809 13.489 22.5839 13.5766 22.4379 13.6384C21.3111 13.9681 20.6022 13.1682 21.5142 12.5952Z" fill="#FFFDF6"/>
<path d="M14.2874 8.16577C15.0266 8.19531 15.9537 8.71263 15.4355 9.55387C15.3469 9.62044 15.0571 9.68249 14.946 9.66405C14.3131 9.5593 14.2362 8.64551 14.2874 8.16577Z" fill="#FFFDF6"/>
<path d="M17.9648 6.43506C18.3357 6.54562 18.5498 8.1967 17.4247 8.04659C16.536 7.47301 17.324 6.7684 17.9648 6.43506Z" fill="#FFFDF6"/>
<path d="M50.9676 13.254C50.3167 13.2638 49.7613 13.3714 49.8118 12.5607C49.822 12.3978 49.7868 12.2785 49.8827 12.1272C50.1752 11.8567 51.3203 12.1373 52.1776 11.4121C53.237 10.5164 52.4958 9.54096 53.8289 9.60828C54.7591 9.65522 54.4219 11.24 54.4404 11.98C54.9121 11.9774 56.3845 11.9057 56.7139 12.101C56.8775 12.2831 56.8673 12.9554 56.6741 13.1494C56.3263 13.3285 54.9285 13.2475 54.4342 13.2624L54.4322 16.1776C54.4301 16.7354 54.3969 17.441 54.4839 17.9917C54.5114 18.1659 54.7238 18.4106 54.8542 18.5441C55.4875 18.676 55.9732 18.4923 56.4969 18.1514C58.5108 16.84 59.7921 14.7598 61.5398 13.1469C62.4598 12.298 63.205 11.5314 64.6291 11.8309C65.0667 11.9224 65.4486 12.1788 65.6898 12.5433C66.2004 13.3132 66.1262 15.0699 64.9728 15.3186C64.4281 15.4361 63.7144 15.3914 63.4195 14.8845C63.2017 14.5438 63.1127 13.7484 62.7198 13.5867C61.4688 13.3509 62.0189 18.2731 61.9495 19.0078C61.9422 19.4887 63.3625 20.2544 62.7826 20.708C62.6599 20.8038 61.7666 20.8683 61.411 20.8083C60.7683 20.6998 58.3841 21.0324 57.9501 20.6301C57.6392 20.3419 58.5842 19.3395 58.6322 19.0275C58.7097 18.5172 58.6498 17.9555 58.6634 17.4566C57.396 18.98 56.6561 20.4685 54.618 21.0001H53.5405C50.9245 20.3309 50.966 18.7029 50.9672 16.4472L50.9676 13.254Z" fill="#FFFDF6"/>
<path d="M42.3509 20.9999C38.3723 19.9911 39.5852 17.0209 39.3214 14.032C39.2852 13.6225 38.5708 13.1054 38.5802 12.6821C38.5812 12.6377 38.5877 12.5935 38.5994 12.5506C38.6287 12.4445 38.6919 12.3622 38.7907 12.3072C38.9904 12.196 41.5347 11.9009 41.9153 11.8796C42.111 11.8687 42.3275 11.8704 42.517 11.9208C42.6031 11.9437 42.6688 11.97 42.7147 12.0484C42.8841 12.338 42.7947 12.9239 42.7898 13.2549C42.7713 14.4245 42.5806 18.0141 42.88 18.9511C42.9916 19.3002 43.2061 19.6283 43.5879 19.7366C43.8517 19.8114 44.1658 19.7748 44.4058 19.6465C44.7499 19.4624 44.9394 19.0894 45.0419 18.7366C45.295 17.8655 45.149 16.6761 45.1535 15.7642C45.1564 15.2489 45.215 14.6858 45.1519 14.1762C45.1305 14.0063 45.0711 13.85 44.9841 13.701C44.7889 13.3669 44.3147 12.9285 44.4316 12.5183C44.4595 12.4211 44.5104 12.352 44.6022 12.3037C44.6974 12.2535 44.8086 12.2271 44.9148 12.21C45.2667 12.1538 45.6252 12.1642 45.9775 12.1195C46.5907 12.0419 47.2145 11.9008 47.8322 11.8624C47.975 11.8535 48.1243 11.857 48.2621 11.8981C48.3556 11.926 48.4401 11.975 48.4844 12.0613C48.6599 12.4011 48.5451 17.991 48.5562 18.765C48.5594 19.0117 48.5566 19.3552 48.6915 19.5724C48.8716 19.8614 49.5742 19.9091 49.3789 20.4331C49.3248 20.5785 49.1775 20.671 49.0381 20.7312C48.4122 21.0014 46.952 21.0301 46.3216 20.7951C46.0563 20.6963 45.8036 20.5046 45.6867 20.2485C45.6375 20.1412 45.6063 20.0273 45.5805 19.9129C45.0879 20.63 44.3869 20.8005 43.5769 20.9999H42.3509Z" fill="#FFFDF6"/>
<path d="M70.3867 20.9999C68.9463 20.7335 67.8282 20.3062 67.0095 19.0882C65.5846 16.969 65.9894 13.9001 68.265 12.4917C69.3654 11.8103 70.682 11.6215 71.9482 11.837C73.2619 12.0493 74.6331 13.0738 74.4095 14.4947C74.3521 14.8607 74.0429 15.1141 73.7365 15.3062C72.5163 16.0155 71.3104 16.858 70.0767 17.5375C71.02 18.6718 72.3259 18.988 73.6873 18.1422C74.0039 17.9456 74.2861 17.2938 74.7787 17.6074C74.8792 17.764 74.8989 17.9614 74.8644 18.14C74.515 19.9469 73.0187 20.6945 71.3428 20.9999H70.3867ZM70.3195 16.0801C70.8428 15.7839 71.5938 14.9847 71.7398 14.4011C71.9712 13.4777 71.2694 12.774 70.3178 12.8454C68.9188 13.1381 69.1058 14.7089 69.3068 15.7395C69.3511 15.9664 69.445 16.2809 69.5877 16.4653L69.662 16.5055C69.8679 16.4369 70.1201 16.2066 70.3195 16.0801Z" fill="#FFFDF6"/>
<path d="M79.4686 21C78.6273 20.84 77.944 20.6733 77.2184 20.19C75.643 19.1413 75.0126 17.1011 75.3748 15.3304C75.6262 14.1597 76.3489 13.1338 77.3837 12.4788C78.9784 11.45 82.0386 11.3808 83.1792 13.1094C83.76 13.9893 83.6944 14.8306 82.7035 15.3904C81.5247 16.0562 80.3709 16.8977 79.1761 17.5316C80.0719 18.7264 81.5198 18.9355 82.7863 18.1473C83.0907 17.9579 83.4102 17.2615 83.8876 17.6261C84.0242 17.8657 83.9708 18.2288 83.8872 18.4822C83.3527 20.0995 81.9955 20.7175 80.4255 21H79.4686ZM79.3874 16.0968C79.9124 15.826 80.6391 15.0302 80.8176 14.463C80.9234 14.1237 80.8848 13.7576 80.7101 13.4459C80.4611 13.0069 79.9247 12.7978 79.423 12.8443C77.9875 13.1368 78.2135 14.8393 78.4465 15.8632C78.4949 16.0763 78.5461 16.314 78.6995 16.4799C78.9132 16.5293 79.1925 16.2096 79.3874 16.0968Z" fill="#FFFDF6"/>
</svg>
