<svg width="27" height="24" viewBox="0 0 27 24" fill="none" xmlns="http://www.w3.org/2000/svg">
<path d="M13.4226 1.25937C13.6316 1.21587 13.916 1.32255 14.0797 1.45685C14.264 1.60747 14.3829 1.82756 14.4104 2.06876C14.4399 2.33998 14.35 2.5692 14.1885 2.77707C14.256 3.00866 14.3595 3.24749 14.4532 3.47007C14.6253 3.3886 14.5066 3.2916 14.5276 3.13202C14.5949 2.61881 15.2266 2.44204 15.5496 2.82922C15.5635 2.35526 15.8425 1.98807 16.3217 1.97827C16.537 1.97576 16.7445 2.06158 16.8986 2.21692C17.2498 2.57264 17.1723 3.0436 16.8479 3.38387L16.8332 3.53228C17.0451 3.49735 17.3442 3.48014 17.5673 3.45727C17.9685 3.41498 18.369 3.36529 18.7685 3.3082C20.4135 3.07138 22.1725 2.65598 23.6709 1.90763C23.9571 1.76465 24.4162 1.49335 24.6493 1.27282C24.5911 1.3561 24.5239 1.43316 24.4655 1.51951C23.7607 2.56175 23.376 3.79409 23.1026 5.02275C23.0405 5.30174 22.9722 5.62463 22.9436 5.91106C23.0448 5.73118 23.1328 5.48411 23.2836 5.34263C23.7839 4.87807 24.589 5.27003 24.9891 5.69237C25.2229 5.93898 25.2342 6.19605 25.2188 6.51564C25.6951 6.78922 25.6512 7.15401 25.4812 7.61287C25.536 7.62381 25.5907 7.6383 25.6424 7.66102C25.8184 7.73855 25.9551 7.88176 26.0229 8.06711C26.1261 8.35004 26.0384 8.67199 25.9221 8.9357C25.4576 9.98989 24.2404 11.8208 23.3693 12.5234C23.1817 12.6747 22.9869 12.7845 22.7653 12.8707C22.7957 13.0547 22.8146 13.3139 22.8374 13.5088C22.8795 13.865 22.9289 14.2201 22.9855 14.5742C23.2123 15.9942 23.8228 18.3264 24.6965 19.437C24.188 18.9948 23.5813 18.6854 22.9664 18.4348C20.967 17.6198 18.7704 17.3138 16.6418 17.1367C16.8514 17.5177 16.9813 17.8122 17.0823 18.2448C17.3068 19.2252 17.1474 20.2576 16.639 21.117C16.2107 21.8398 15.5613 22.3942 14.7937 22.6922C14.591 22.7706 14.3869 22.8192 14.1767 22.8714C13.3747 23.0021 12.6269 22.9215 11.8916 22.5544C11.0094 22.1141 10.3332 21.3287 10.0125 20.3717C9.71932 19.5045 9.74201 18.5566 10.0763 17.7054C10.1635 17.4798 10.2508 17.3374 10.3499 17.1271C8.00982 17.2585 4.13668 17.9331 2.30513 19.4357C3.19139 18.3277 3.72051 15.9477 3.9134 14.5216C3.94892 14.2591 4.00744 13.8592 4.02377 13.5975C3.67562 13.6476 3.30502 13.6604 2.97209 13.5238C1.53878 12.9342 1.98842 11.0373 2.27361 9.84867C2.35481 9.51025 2.50614 9.12683 2.63046 8.79925C1.97007 8.9022 1.2157 8.45212 0.994289 7.79413C0.87417 7.43717 1.01722 7.00516 1.18113 6.68665C1.67256 5.73179 2.76173 5.04407 3.73133 4.72967C3.6559 4.49561 3.59131 4.14932 3.5176 3.89271C3.27152 3.03585 2.88318 1.95936 2.32344 1.26256C2.69719 1.59776 3.20675 1.88105 3.65715 2.08776C5.51021 2.93813 7.55189 3.28672 9.55682 3.49348C9.76081 3.51451 9.98204 3.53829 10.1865 3.54531L10.1597 3.37068C9.84397 3.05324 9.77131 2.60541 10.0792 2.25063C10.2201 2.08905 10.4173 1.99185 10.6274 1.98034C10.8407 1.96701 11.0503 2.04248 11.2094 2.18993C11.3952 2.36319 11.4494 2.56875 11.4607 2.81681C11.4987 2.7839 11.5517 2.73714 11.5928 2.71059C11.7252 2.6252 11.885 2.59763 12.037 2.63391C12.2849 2.69456 12.4774 2.91376 12.4906 3.18147C12.4969 3.30801 12.4298 3.33501 12.498 3.45136C12.6073 3.49941 12.7957 2.86928 12.8295 2.77784C12.7015 2.61316 12.6243 2.48319 12.6031 2.26605C12.5782 2.02172 12.6496 1.77731 12.8013 1.58813C12.966 1.38459 13.1694 1.2837 13.4226 1.25937Z" fill="#FFFDF6"/>
<path d="M23.7635 5.78129C24.0659 5.75519 24.4867 5.98896 24.6099 6.27932C24.5925 6.54006 24.4391 6.85862 24.3341 7.09824C24.4488 7.09758 24.896 7.0817 24.9715 7.12151C24.9824 7.18213 24.8588 7.51047 24.8157 7.52853C24.6692 7.58977 24.2792 7.56207 24.127 7.56048C23.7887 8.31587 23.4576 9.07465 23.1337 9.83672C23.0393 10.0587 22.5008 11.2854 22.5898 11.4109C22.7905 11.4683 23.6458 10.4809 23.786 10.319C24.1245 9.92848 24.4571 9.50682 24.7561 9.08443C24.8478 8.95593 24.9355 8.82434 25.019 8.6899C25.0899 8.57393 25.2398 8.25529 25.3841 8.24924C25.4093 8.26301 25.4197 8.26678 25.4329 8.29443C25.4693 8.3705 25.415 8.50918 25.3869 8.58346C25.0536 9.46671 23.4883 11.8504 22.6623 12.2194C22.4504 12.314 22.2032 12.3023 21.9908 12.2137C21.7827 12.1268 21.5924 11.9481 21.505 11.7323C21.402 11.4778 21.484 11.2411 21.58 11.0006C21.3254 11.304 21.1152 11.6035 20.8142 11.8705C20.5571 12.1036 20.3211 12.32 19.9576 12.2938C19.4884 12.2601 19.0875 11.8924 19.1264 11.3844C18.6911 11.9078 18.1852 12.4337 17.4566 12.2756C16.6647 12.1038 16.6987 11.3271 16.8213 10.6741C16.5096 11.1096 16.1231 11.5991 15.7258 11.9498C15.4788 12.1679 15.2672 12.3216 14.9319 12.2919C14.6816 12.2698 14.4499 12.1463 14.2873 11.9484C14.1504 11.779 14.0974 11.5992 14.1177 11.3821C13.701 11.8747 13.2647 12.3617 12.5772 12.2933C11.923 12.2281 11.6996 11.7511 11.7448 11.1237C11.2561 11.683 10.5651 12.539 9.77415 12.2111C9.46115 12.0814 9.11975 11.7389 9.20353 11.3546C9.2698 11.0505 9.44156 10.7651 9.5508 10.4755C9.81163 9.82915 10.1188 9.19009 10.3696 8.54012C9.95324 8.65156 9.83779 8.85373 9.4079 8.85622C9.2904 9.24375 8.95345 9.82374 8.74135 10.1655C8.51388 10.532 7.41076 12.2506 7.0283 12.2829C6.92377 12.2928 6.82005 12.2568 6.74245 12.1837C6.69048 12.1349 6.65702 12.0715 6.65675 11.9986C6.65551 11.8451 6.77257 11.7353 6.87975 11.6469C7.0338 11.5199 7.1737 11.3757 7.31304 11.232C7.87027 10.6495 8.3812 10.0215 8.8409 9.35421C8.9623 9.17749 9.05889 8.98808 9.17787 8.81246C8.92831 8.68285 8.67036 8.48868 8.75194 8.14492C8.84258 7.77788 9.04066 7.43624 9.17107 7.08434C9.31716 6.69015 9.6357 6.78203 9.93743 6.91743C10.3474 7.10138 10.3329 7.51105 10.1184 7.85047C10.0772 7.9155 9.98195 8.11871 10.0051 8.19447C10.1063 8.25315 10.6534 8.02196 10.8461 8.00672C11.108 7.98602 11.3395 7.95489 11.5773 8.13478C11.6518 8.19107 11.7375 8.34825 11.7217 8.42141C11.6482 8.72342 11.4756 9.02197 11.3424 9.30246C11.0448 9.92924 10.7561 10.5589 10.4548 11.1836C10.4253 11.2447 10.3943 11.339 10.4572 11.3832C10.6918 11.3796 11.837 10.2146 12.006 9.94825C12.0898 9.73881 12.1777 9.4895 12.2544 9.28138C12.7781 7.85908 14.1211 6.16487 15.4148 8.00769C15.4817 7.82192 15.5431 7.6272 15.6274 7.4492C15.6669 7.36547 15.7256 7.26009 15.8167 7.23148C15.9597 7.18656 16.1347 7.26902 16.2591 7.33754C16.3931 7.41127 16.6122 7.53953 16.6447 7.70917C16.698 7.98595 16.1063 9.12973 15.9746 9.42366C15.8581 9.68383 15.1808 11.2262 15.244 11.3952C15.2524 11.4181 15.2578 11.4146 15.2781 11.4235C15.6315 11.3611 16.9542 9.75848 17.2256 9.34673C17.3104 9.18804 17.3725 9.01679 17.4485 8.85229C18.063 7.52429 19.2734 6.37165 20.4147 8.00763C20.485 7.8128 20.5833 7.44217 20.7266 7.29621C20.7799 7.24196 20.8445 7.21367 20.9198 7.21641C21.1177 7.22366 21.4171 7.40199 21.5522 7.54577C21.6045 7.60147 21.652 7.67199 21.6492 7.75278C21.6368 8.10688 21.0456 9.25875 20.8702 9.66164C20.7075 10.0355 20.5543 10.4137 20.4106 10.7958C20.3702 10.9035 20.187 11.3442 20.263 11.4221C20.2917 11.424 20.3108 11.4209 20.3375 11.4086C20.6983 11.2416 22.0139 9.73381 22.2271 9.33107C22.3236 9.14873 22.3884 8.93071 22.4632 8.73728L22.9191 7.56165C22.8086 7.56187 22.4434 7.57858 22.3687 7.53348C22.3625 7.46417 22.4685 7.19386 22.5176 7.15078C22.6292 7.05298 22.963 7.09875 23.1159 7.09875C23.2644 6.70532 23.4771 6.21377 23.6893 5.84284C23.7028 5.81909 23.7398 5.79529 23.7635 5.78129Z" fill="#00292D"/>
<path d="M14.6956 8.0042C14.7141 8.00383 14.7338 8.0034 14.7524 8.00573C14.8132 8.00847 14.9338 8.07589 14.9609 8.13615C15.3419 8.98868 13.9196 10.6606 13.3966 11.0264C13.3642 11.0457 13.3287 11.0697 13.2927 11.0808C13.256 11.0923 13.2205 11.0879 13.1878 11.0668C13.1467 11.0403 13.1286 10.9784 13.1216 10.9323C13.046 10.4345 13.7811 8.96507 14.0682 8.5398C14.2164 8.32025 14.4275 8.05435 14.6956 8.0042Z" fill="#FFFDF6"/>
<path d="M19.7066 8.00343C19.7347 8.00336 19.7508 8.00363 19.7795 8.0104C19.839 8.02047 19.9456 8.08916 19.9707 8.15117C20.3161 9.00742 18.9226 10.6774 18.395 11.0347C18.3718 11.0488 18.3482 11.063 18.323 11.0733C18.282 11.09 18.246 11.0948 18.2055 11.0736C18.1616 11.0507 18.1418 10.9837 18.1343 10.9379C18.0509 10.4364 18.8073 8.92415 19.1036 8.50455C19.2553 8.28976 19.4383 8.04701 19.7066 8.00343Z" fill="#FFFDF6"/>
<path d="M15.1005 15.6819C15.1633 15.7003 15.2121 15.8655 15.227 15.9273C15.2848 16.1673 15.214 16.3553 15.0955 16.5601C15.2706 16.5184 15.321 16.5203 15.502 16.5357C15.4851 16.7309 15.4647 16.7986 15.3691 16.968C15.8088 17.3613 16.1215 17.8845 16.265 18.4672C16.4482 19.1971 16.3416 20.0297 15.9687 20.6794C15.5827 21.3592 14.9512 21.8524 14.2133 22.0504C13.4327 22.2576 12.679 22.1194 11.9902 21.6996C11.9522 21.6762 11.9033 21.6396 11.866 21.6128C11.2401 21.1611 10.8153 20.4692 10.6865 19.6916C10.5593 18.92 10.7345 18.1279 11.1733 17.4901C11.3261 17.2723 11.482 17.1085 11.6707 16.9258C11.6908 16.9064 11.7235 16.7933 11.7548 16.7476C11.7934 16.7396 11.8189 16.7614 11.8614 16.7814C12.2102 16.5236 12.4576 16.4488 12.852 16.3209C12.888 16.1526 12.9296 16.0841 13.028 15.9479C13.1738 16.0469 13.2223 16.1022 13.3069 16.2578C13.6183 16.2238 13.9615 16.2727 14.2618 16.3562C14.2879 16.2952 14.3169 16.2396 14.3468 16.1806C14.5002 16.2547 14.5629 16.302 14.6721 16.4323C14.6701 16.055 14.7923 15.8681 15.1005 15.6819Z" fill="#00292D"/>
<path d="M15.4417 19.8218C15.4839 19.8188 15.4826 19.8117 15.5138 19.8297C15.5315 19.9472 15.3604 20.2559 15.2956 20.3603C14.9608 20.9015 14.5161 21.192 13.9222 21.3361C14.0513 21.0147 14.1786 20.6578 14.3015 20.3319C14.331 20.4471 14.4495 21.0219 14.5442 21.0431C14.5967 20.9812 14.5815 20.8584 14.5793 20.7769C14.5793 20.6403 14.5894 20.1546 14.5571 20.0491C14.4994 20.0107 14.3302 20.0398 14.2532 20.0471C14.0915 20.4463 13.946 20.8925 13.7812 21.305C13.8418 20.8428 13.9185 20.383 14.0116 19.9267C14.4737 19.9052 14.9775 19.8567 15.4417 19.8218Z" fill="#FFFDF6"/>
<path d="M12.8947 20.0132L12.9289 20.0139C13.0685 20.1984 13.325 21.1261 13.3883 21.381C13.2723 21.1791 13.1432 20.8954 13.0384 20.6813C12.9563 20.6426 12.8488 20.6013 12.7634 20.5657C12.7196 20.6423 12.6678 20.7683 12.6304 20.8523L12.5146 21.111C12.1074 20.8676 11.8169 20.5451 11.6167 20.1057C12.0121 20.0907 12.4954 20.0422 12.8947 20.0132Z" fill="#FFFDF6"/>
<path d="M12.5115 18.9165L12.5445 18.9244C12.5718 18.9841 12.5078 19.448 12.4965 19.5468C12.4456 19.5531 12.4304 19.5577 12.3812 19.5481C12.2968 19.4892 12.2339 19.3018 12.1793 19.1941C12.169 19.2932 12.1683 19.4753 12.1246 19.5598C12.1163 19.5759 12.0736 19.5794 12.0505 19.5844C12.042 19.5831 12.0211 19.5752 12.012 19.572C12.0097 19.5639 12.0031 19.5407 12.0046 19.5325C12.027 19.4081 11.9981 18.9346 12.1638 18.928C12.2397 18.9819 12.3308 19.2103 12.3764 19.3067C12.3948 19.1968 12.3855 19.0281 12.4347 18.9406C12.4438 18.9244 12.4881 18.9213 12.5115 18.9165Z" fill="#FFFDF6"/>
<path d="M15.8362 18.6859C15.8474 18.6851 15.8588 18.6845 15.8701 18.684C15.911 18.6825 15.9501 18.675 15.9741 18.6983C15.9637 18.8325 15.9584 19.2321 15.868 19.3061C15.8213 19.3154 15.8233 19.3162 15.7773 19.3067C15.7243 19.2353 15.6509 19.0573 15.5929 18.9589C15.5809 19.0875 15.57 19.2073 15.5507 19.3354C15.5058 19.3375 15.4617 19.345 15.4221 19.3256C15.418 19.2159 15.4651 18.8305 15.4809 18.7134L15.6216 18.7044C15.6758 18.8212 15.7337 18.9552 15.798 19.0648C15.8067 18.9395 15.8225 18.8109 15.8362 18.6859Z" fill="#FFFDF6"/>
<path d="M13.1158 18.8646C13.2304 18.8628 13.3376 18.8886 13.3658 19.0186C13.3743 19.0578 13.3632 19.0608 13.3415 19.0873C13.29 19.1055 13.2879 19.1047 13.2331 19.0949C13.186 19.0487 13.1502 19.0018 13.081 19.0076C13.0166 19.0488 12.9287 19.3466 13.0982 19.3791C13.1406 19.3669 13.1514 19.3672 13.183 19.3346L13.1812 19.3078C13.1419 19.2681 13.1262 19.2593 13.079 19.2281L13.0967 19.1821C13.1245 19.1711 13.1751 19.1677 13.2068 19.1641C13.2526 19.1592 13.2939 19.1487 13.3338 19.1699C13.3836 19.2394 13.3385 19.3857 13.3246 19.4885C13.2734 19.494 13.2554 19.4959 13.2045 19.4927L13.1904 19.4401C13.1536 19.451 13.1025 19.5055 13.0639 19.5136C12.777 19.5734 12.8032 19.1581 12.9084 18.9986C12.9734 18.8999 13.0118 18.8887 13.1158 18.8646Z" fill="#FFFDF6"/>
<path d="M14.3802 16.3032C14.7045 16.448 14.7806 16.8377 14.6624 17.1562C14.6214 17.1501 14.5211 17.0758 14.4921 17.0415C14.3074 16.8232 14.282 16.5635 14.3802 16.3032Z" fill="#FFFDF6"/>
<path d="M14.2099 16.9202C14.5296 17.1112 14.6213 17.4344 14.4876 17.782C14.152 17.6259 14.095 17.2485 14.2099 16.9202Z" fill="#FFFDF6"/>
<path d="M15.0663 15.8049C15.194 15.8464 15.1627 16.2803 15.0884 16.391C14.9959 16.529 14.9878 16.5549 14.8519 16.6558C14.7508 16.6315 14.7562 16.3482 14.772 16.2624C14.8108 16.0526 14.9022 15.9279 15.0663 15.8049Z" fill="#FFFDF6"/>
<path d="M14.0277 17.5459C14.3374 17.7302 14.4285 18.0408 14.3189 18.3824C14.1027 18.3603 13.9892 18.0935 13.9689 17.8937C13.9558 17.7657 13.9862 17.6642 14.0277 17.5459Z" fill="#FFFDF6"/>
<path d="M13.4329 19.9736C13.4768 20.0341 13.5079 21.1197 13.5127 21.2874L13.4255 20.9646C13.3301 20.6192 13.2198 20.3254 13.0859 19.996L13.4329 19.9736Z" fill="#FFFDF6"/>
<path d="M15.0672 17.2429C15.1186 17.2393 15.1849 17.2392 15.2375 17.2375C15.1677 17.5556 15.0208 17.715 14.716 17.7971L14.5439 17.8078C14.5946 17.4897 14.7691 17.3181 15.0672 17.2429Z" fill="#FFFDF6"/>
<path d="M15.3131 16.6185C15.3448 16.6145 15.3456 16.6164 15.3781 16.6189L15.3956 16.6453C15.4057 16.8032 15.2444 16.9931 15.1232 17.0765C15.0188 17.1485 14.9332 17.1702 14.8112 17.1808C14.7762 17.1856 14.7765 17.1846 14.7414 17.1789C14.6805 17.0909 14.7909 16.9347 14.8493 16.8633C14.9802 16.7033 15.1133 16.638 15.3131 16.6185Z" fill="#FFFDF6"/>
<path d="M14.2404 18.7984L14.396 18.792C14.3803 18.9625 14.3804 19.2785 14.2672 19.3884C14.2172 19.4366 14.1505 19.4618 14.0822 19.4583C13.8697 19.4468 13.8672 19.2494 13.8854 19.0872C13.8977 19.0095 13.9052 18.9035 13.9131 18.8231L14.0762 18.8097C14.0646 18.9206 14.0071 19.2094 14.0767 19.289C14.1239 19.2945 14.1078 19.2939 14.1566 19.2698C14.2137 19.1998 14.2157 18.9313 14.2374 18.8138L14.2404 18.7984Z" fill="#FFFDF6"/>
<path d="M11.3365 18.9888C11.4629 19.0012 11.5439 19.0201 11.5594 19.1691L11.5429 19.1891C11.3724 19.2335 11.3768 19.0485 11.2395 19.1608C11.275 19.2318 11.6492 19.2917 11.5212 19.5286C11.4794 19.6061 11.4189 19.6196 11.3429 19.6414C11.2089 19.6485 11.0063 19.6203 11.0673 19.4312C11.1584 19.396 11.2742 19.5154 11.3829 19.4902L11.3901 19.4645C11.3341 19.3165 11.1034 19.396 11.0831 19.2222C11.0658 19.0741 11.23 19.0059 11.3365 18.9888Z" fill="#FFFDF6"/>
<path d="M15.2122 18.7313C15.2828 18.7232 15.3338 18.705 15.389 18.746C15.4153 18.7939 15.412 18.77 15.4085 18.8176C15.3362 18.909 15.2439 18.8323 15.1293 18.8797C15.1066 18.9228 15.1014 18.9154 15.1073 18.9535C15.188 18.998 15.29 18.924 15.3453 19.0079C15.3428 19.1955 15.2113 19.0632 15.1047 19.1219C15.0787 19.1676 15.0861 19.15 15.0859 19.2079C15.1198 19.2274 15.1995 19.216 15.2427 19.2134C15.3037 19.2091 15.2974 19.1999 15.3439 19.2241C15.3766 19.2732 15.3764 19.2563 15.3695 19.3013C15.2966 19.3811 15.0428 19.3675 14.9194 19.3735C14.9295 19.1846 14.962 18.9366 14.9815 18.7454L15.2122 18.7313Z" fill="#FFFDF6"/>
<path d="M14.8774 17.8711C14.9302 17.867 15 17.8668 15.0543 17.865C15.0017 18.1077 14.9432 18.1805 14.7616 18.3398L14.5581 18.3566L14.3691 18.3656C14.4552 18.0786 14.6016 17.9492 14.8774 17.8711Z" fill="#FFFDF6"/>
<path d="M13.6276 16.6396C13.6893 16.7237 13.6709 16.9238 13.6341 17.0174C13.5588 17.2085 13.4523 17.3148 13.2718 17.3977C13.1662 17.0587 13.336 16.7866 13.6276 16.6396Z" fill="#FFFDF6"/>
<path d="M13.0446 16.0742C13.3174 16.2639 13.3335 16.636 13.1706 16.9083C12.8927 16.7195 12.888 16.3483 13.0446 16.0742Z" fill="#FFFDF6"/>
<path d="M12.7417 17.3884C13.0812 17.4402 13.2947 17.6437 13.3041 18.0107C12.9602 17.9469 12.7554 17.7608 12.7417 17.3884Z" fill="#FFFDF6"/>
<path d="M12.6436 16.7849C12.9809 16.846 13.2035 17.0396 13.211 17.4099C12.8514 17.352 12.6769 17.1583 12.6436 16.7849Z" fill="#FFFDF6"/>
<path d="M13.7211 17.2397C13.8196 17.3684 13.7334 17.6719 13.6365 17.7868C13.5443 17.8958 13.5081 17.9272 13.3843 17.991L13.3607 17.9803C13.2631 17.6659 13.4499 17.374 13.7211 17.2397Z" fill="#FFFDF6"/>
<path d="M13.801 17.8518C13.9337 17.9518 13.7887 18.3022 13.713 18.4178C13.6297 18.4215 13.5465 18.4278 13.4636 18.4365L13.43 18.4322C13.3933 18.3479 13.4895 18.1271 13.5448 18.0536C13.6202 17.9536 13.6937 17.9066 13.801 17.8518Z" fill="#FFFDF6"/>
<path d="M13.5879 19.9596L13.869 19.9377C13.7966 20.2786 13.7358 20.622 13.687 20.9674L13.6451 20.9798C13.6293 20.637 13.6048 20.2993 13.5879 19.9596Z" fill="#FFFDF6"/>
<path d="M12.8232 17.9985C13.0534 18.0254 13.3286 18.1832 13.3712 18.4396L13.0297 18.4671C12.88 18.3117 12.8481 18.2109 12.8232 17.9985Z" fill="#FFFDF6"/>
<path d="M11.9311 18.9633C11.9626 18.9603 11.9518 18.9586 11.9802 18.9713C12.0228 19.1217 11.8933 19.1069 11.8837 19.1247C11.8588 19.1712 11.8449 19.367 11.8466 19.4248C12.1607 19.5704 11.7414 19.6014 11.6442 19.6054C11.5986 19.6106 11.6187 19.6152 11.5809 19.5969C11.5722 19.5394 11.5744 19.5079 11.6126 19.4652C11.6461 19.46 11.6561 19.4613 11.6848 19.4427C11.7006 19.3617 11.7219 19.2249 11.7142 19.1441C11.6617 19.1129 11.6317 19.0981 11.611 19.0424L11.6249 19.0202C11.7187 18.9609 11.8213 18.9681 11.9311 18.9633Z" fill="#FFFDF6"/>
<path d="M12.391 17.2231C12.5069 17.2991 12.475 17.6071 12.4067 17.7172C12.3408 17.8235 12.3282 17.8443 12.2348 17.9226C12.056 17.7044 12.2001 17.3784 12.391 17.2231Z" fill="#FFFDF6"/>
<path d="M11.5947 17.5302C11.8783 17.5151 12.1075 17.6473 12.1754 17.9483C11.8942 17.9598 11.6565 17.8423 11.5947 17.5302Z" fill="#FFFDF6"/>
<path d="M11.7981 16.8489C12.067 17.0041 12.1384 17.2313 12.054 17.5309C11.7792 17.3834 11.7194 17.1394 11.7981 16.8489Z" fill="#FFFDF6"/>
<path d="M12.5778 17.7144C12.6438 17.7646 12.6669 17.9181 12.657 17.9982C12.6347 18.177 12.567 18.2973 12.4295 18.409L12.4141 18.4041C12.2712 18.1627 12.3859 17.8829 12.5778 17.7144Z" fill="#FFFDF6"/>
<path d="M11.8054 18.0193C11.9433 18.0239 12.0263 18.0382 12.1448 18.1158C12.2253 18.1682 12.4111 18.3404 12.3394 18.4423C12.2015 18.4431 12.1302 18.431 12.0097 18.3554C11.9255 18.3025 11.7363 18.1237 11.8054 18.0193Z" fill="#FFFDF6"/>
<path d="M13.4752 18.8524L13.6311 18.8467L13.582 19.3135C13.6624 19.3116 13.7505 19.3024 13.8315 19.2957C13.8292 19.3467 13.8204 19.4049 13.8139 19.4562C13.6779 19.4651 13.5418 19.4729 13.4058 19.4795C13.4334 19.2722 13.4443 19.0628 13.4752 18.8524Z" fill="#FFFDF6"/>
<path d="M14.8264 18.7589L14.878 18.7546C14.9158 18.7737 14.9005 18.7597 14.9215 18.8022C14.9057 18.9131 14.8293 18.9058 14.7444 18.9086C14.7309 19.0701 14.7148 19.2314 14.6962 19.3923C14.649 19.3948 14.5765 19.4095 14.5487 19.384C14.5604 19.2282 14.5756 19.0727 14.5941 18.9176C14.543 18.9227 14.4826 18.9392 14.4458 18.9005C14.4425 18.7267 14.6958 18.7661 14.8264 18.7589Z" fill="#FFFDF6"/>
<path d="M13.7134 17.0583C13.8362 17.0648 13.9467 17.0921 14.0666 17.1176C14.0411 17.2512 14.073 17.3644 14.108 17.4915L13.9904 17.4304C13.954 17.4972 13.934 17.5469 13.9051 17.6173C13.8893 17.6958 13.8901 17.7099 13.833 17.7617C13.7907 17.7695 13.8105 17.7725 13.7719 17.7522C13.8335 17.5993 13.9434 17.1663 13.7011 17.1401L13.6895 17.124L13.7134 17.0583Z" fill="#FFFDF6"/>
<path d="M12.9515 20.8608C13.0009 20.8916 13.1695 21.2696 13.2083 21.3515C13.1334 21.3368 13.0557 21.3178 12.981 21.3008C12.8778 21.2711 12.7778 21.2289 12.6777 21.1893L12.9515 20.8608Z" fill="#FFFDF6"/>
<path d="M11.708 18.1333C11.7286 18.1601 11.7559 18.2207 11.7794 18.2543C11.8808 18.3993 11.9619 18.4547 12.1132 18.5299L11.8817 18.5441C11.7629 18.5531 11.6439 18.5606 11.5249 18.5663C11.5731 18.3988 11.6263 18.2849 11.708 18.1333Z" fill="#FFFDF6"/>
<path d="M15.1427 17.8484C15.2509 17.9556 15.3559 18.1572 15.4207 18.2958C15.3395 18.3013 15.2585 18.3071 15.1774 18.3135C15.0914 18.3161 14.9998 18.3259 14.9136 18.3334C15.0604 18.1684 15.1107 18.0686 15.1427 17.8484Z" fill="#FFFDF6"/>
<path d="M12.6851 17.2249C12.7212 17.2464 12.7196 17.2482 12.7412 17.283C12.7283 17.2897 12.6826 17.3144 12.6736 17.3213C12.6096 17.3708 12.6774 17.6129 12.705 17.6753C12.7311 17.7342 12.8314 17.8433 12.8312 17.9059L12.7654 17.9194C12.7197 17.8826 12.7053 17.6517 12.6117 17.5966C12.5847 17.6084 12.5778 17.6149 12.5491 17.6145C12.5477 17.4995 12.558 17.4354 12.5389 17.3198L12.5356 17.3008L12.6851 17.2249Z" fill="#FFFDF6"/>
<path d="M12.7616 18.217C12.8226 18.2568 12.8381 18.4062 12.8511 18.4768L12.653 18.4962C12.6089 18.4968 12.6132 18.5035 12.5796 18.4846L12.5776 18.4448C12.6105 18.3541 12.6908 18.2774 12.7616 18.217Z" fill="#FFFDF6"/>
<path d="M13.9314 18.1411C13.9581 18.1889 14.0846 18.3577 14.0847 18.3818L14.0378 18.395L13.8345 18.4043C13.8838 18.2966 13.8993 18.257 13.9314 18.1411Z" fill="#FFFDF6"/>
<path d="M13.645 20.9799L13.6869 20.9675C13.6752 21.0441 13.6653 21.1233 13.6548 21.2002C13.6466 21.1204 13.6459 21.0598 13.645 20.9799Z" fill="#FFFDF6"/>
<path d="M5.34569 5.0347C5.41377 5.02628 5.54606 5.02556 5.61646 5.02399C6.4181 5.00615 7.23155 5.21519 7.81352 5.81798C8.12999 6.14578 8.36802 6.59214 8.36108 7.06722C8.34998 7.82863 7.8952 8.59191 7.38579 9.11295C6.69671 9.81776 5.75076 10.2841 4.79189 10.4166C4.5282 10.4531 4.28855 10.4578 4.02384 10.457C3.81615 11.3182 3.79723 12.082 4.02093 12.9373C2.43261 13.295 2.49823 11.8373 2.71394 10.7135C2.9474 9.49724 3.44805 8.35897 4.04998 7.29155C4.28476 6.87522 4.34415 6.57967 4.85919 6.71334C4.87087 6.71761 4.88249 6.72208 4.89402 6.72675C5.06184 6.79361 5.41058 6.98184 5.47857 7.16788C5.50094 7.22932 5.45335 7.35536 5.42352 7.41257C5.05646 8.11628 4.61357 8.76339 4.30681 9.50319C5.26634 9.2659 6.22228 8.43423 6.81164 7.6374C7.07202 7.28537 7.44357 6.62304 6.96928 6.29073C6.54595 5.99414 5.81989 6.01054 5.3258 6.10826C4.42292 6.28683 3.4553 6.71473 2.86967 7.47399C2.80988 7.55324 2.7331 7.68204 2.69065 7.7758C2.66519 7.82275 2.56705 8.11628 2.5366 8.13543C2.24628 8.31792 1.56606 7.82511 1.5733 7.51827C1.58113 7.18605 1.82619 6.78465 1.99628 6.58609C2.80833 5.63821 4.15221 5.13307 5.34569 5.0347Z" fill="#00292D"/>
<path d="M13.4543 1.74927C13.6465 1.73834 13.8282 1.81827 13.9056 2.01142C13.9458 2.1114 13.9452 2.22386 13.9042 2.32349C13.8464 2.466 13.7509 2.52208 13.6232 2.57671C13.8105 3.23648 14.074 3.8501 14.4121 4.44206C14.4784 4.55801 14.556 4.72544 14.6655 4.8034C14.7277 4.84782 14.8052 4.85886 14.878 4.83993C15.1621 4.76595 16.002 3.36969 16.1865 3.03703C16.0786 2.95129 16.005 2.8602 16.0372 2.71662C16.1342 2.28282 16.758 2.47902 16.6284 2.88005C16.5963 2.97955 16.4811 3.0381 16.3908 3.07149C16.3411 3.965 16.1555 4.84484 15.841 5.6787C15.8718 5.77904 15.8944 5.89472 15.8536 5.9949C15.7992 6.04553 15.573 6.00199 15.4884 5.99602L14.7856 5.95185C14.3854 5.92837 13.9757 5.92779 13.5737 5.91779C13.1845 5.92047 12.788 5.9276 12.3992 5.9425C11.9868 5.95828 11.5727 5.99928 11.161 6.02328C11.1245 5.88193 11.13 5.81318 11.1696 5.68056C10.8588 4.91611 10.6691 3.89864 10.6212 3.07186C10.2076 2.93303 10.3437 2.46017 10.6801 2.47538C10.7729 2.47953 10.86 2.52316 10.9206 2.59592C11.0576 2.76332 10.961 2.92011 10.8234 3.03607C10.9961 3.35581 11.8461 4.75224 12.1201 4.837C12.1835 4.85662 12.2657 4.85295 12.324 4.81868C12.4441 4.74817 12.5339 4.55461 12.602 4.43489C12.9387 3.84339 13.1994 3.23395 13.3855 2.57513C13.2331 2.51445 13.1191 2.42326 13.0834 2.24899C13.0611 2.1377 13.0847 2.02183 13.1486 1.92931C13.2275 1.8156 13.3272 1.77203 13.4543 1.74927Z" fill="#00292D"/>
<path d="M10.8502 14.5704L12.6897 14.5703L12.6902 15.3204L10.8501 15.3196L10.8502 14.5704Z" fill="#00292D"/>
<path d="M14.5249 14.5703L16.3624 14.5706V15.3195L14.5257 15.3199L14.5249 14.5703Z" fill="#00292D"/>
<path d="M12.6899 14.5703L14.525 14.5704L14.5258 15.32L12.6905 15.3204L12.6899 14.5703Z" fill="#00292D"/>
<path d="M8.57723 13.0481C9.0407 13.0142 9.1952 13.4361 9.01329 13.8174C8.92951 13.9929 8.81096 14.0668 8.63602 14.1273C8.79372 14.1854 8.89892 14.2327 9.06522 14.2613C9.03594 14.3634 9.04228 14.4488 8.93685 14.4631C8.6167 14.4458 8.60234 14.3576 8.34993 14.1724C8.27823 14.1281 8.16914 14.0992 8.10526 14.0447C7.89166 13.8628 7.95575 13.4562 8.11802 13.2584C8.24516 13.1034 8.39133 13.0635 8.57723 13.0481Z" fill="#00292D"/>
<path d="M8.5216 13.2719C8.83246 13.2456 8.74491 13.7823 8.53206 13.9265C8.34931 13.9439 8.32071 13.7703 8.34285 13.6216C8.36543 13.4697 8.40208 13.3683 8.5216 13.2719Z" fill="#FFFDF6"/>
<path d="M11.8728 2.9585C12.1505 2.96396 12.2519 3.21182 12.0364 3.41559C12.201 3.66036 12.3693 3.76088 12.5993 3.9339C12.4987 4.12568 12.3894 4.31249 12.272 4.49372C12.1852 4.57863 12.1054 4.47866 12.048 4.40896C11.9288 4.26417 11.8138 4.10672 11.7011 3.9567C11.7879 3.75738 11.8314 3.66931 11.8677 3.45019C11.8476 3.44347 11.827 3.43633 11.8076 3.4277C11.7434 3.3992 11.6934 3.34473 11.6691 3.27701C11.6074 3.10973 11.7313 3.00324 11.8728 2.9585Z" fill="#00292D"/>
<path d="M15.0603 2.95923C15.3966 2.95822 15.4789 3.32273 15.1396 3.45282C15.1825 3.67397 15.2206 3.75217 15.3088 3.95596C15.2114 4.08876 15.1119 4.21993 15.0104 4.34943C14.9433 4.43446 14.8838 4.52561 14.78 4.5365C14.6834 4.44405 14.4868 4.07355 14.4106 3.93539C14.6331 3.7632 14.8164 3.65965 14.9707 3.41605C14.7853 3.23368 14.8247 3.05563 15.0603 2.95923Z" fill="#00292D"/>
<path d="M12.8657 13.3181C13.0342 13.3043 13.1763 13.3173 13.3428 13.3326C13.2585 13.6804 13.2375 13.7499 13.2491 14.1066C13.1638 14.1148 12.9892 14.1518 12.9248 14.0931L12.9277 14.0279L12.9239 14.0169C12.4317 14.5009 12.2111 13.4937 12.8657 13.3181Z" fill="#00292D"/>
<path d="M12.9237 13.4729C12.9682 13.4782 12.9515 13.4682 12.9794 13.4951C12.9962 13.6296 12.9183 13.8244 12.8405 13.9336C12.8107 13.9242 12.8221 13.9292 12.798 13.9033C12.7465 13.7614 12.813 13.5682 12.9237 13.4729Z" fill="#FFFDF6"/>
<path d="M18.7994 13.3175C18.9547 13.3032 19.113 13.3186 19.2679 13.3326C19.1798 13.6811 19.1627 13.7477 19.1705 14.1067C19.0617 14.1155 18.9667 14.1458 18.8687 14.1083C18.8392 14.0663 18.8504 14.0703 18.8549 14.0024C18.3976 14.5279 18.1015 13.4834 18.7994 13.3175Z" fill="#00292D"/>
<path d="M18.8455 13.4709C18.8701 13.474 18.9043 13.4752 18.9056 13.5077C18.9107 13.645 18.8471 13.8103 18.7731 13.9221L18.7465 13.9274L18.7213 13.9091C18.6694 13.7762 18.7421 13.5643 18.8455 13.4709Z" fill="#FFFDF6"/>
<path d="M10.4563 13.317C10.6095 13.3036 10.7712 13.3186 10.9242 13.3326C10.8367 13.6798 10.8179 13.7496 10.8262 14.1071C10.7185 14.1144 10.6127 14.1493 10.5212 14.105C10.498 14.0572 10.5082 14.0611 10.5177 13.9954C10.0404 14.5308 9.76406 13.4829 10.4563 13.317Z" fill="#00292D"/>
<path d="M10.5004 13.4724C10.5252 13.4746 10.5598 13.475 10.5612 13.5076C10.5671 13.6459 10.5011 13.8122 10.4282 13.9245C10.3918 13.9285 10.4082 13.9327 10.3777 13.909C10.3232 13.7792 10.3982 13.564 10.5004 13.4724Z" fill="#FFFDF6"/>
<path d="M16.969 13.3171C17.1229 13.3035 17.2851 13.3186 17.4387 13.3327C17.3503 13.6629 17.3308 13.7683 17.3399 14.1069C17.2331 14.1146 17.1246 14.1499 17.0345 14.1049C17.0116 14.057 17.022 14.0603 17.0319 13.9949C16.5684 14.5355 16.2674 13.4874 16.969 13.3171Z" fill="#00292D"/>
<path d="M17.0141 13.4734C17.0389 13.4749 17.0733 13.4749 17.0747 13.5074C17.0809 13.6468 17.0139 13.8131 16.941 13.9266C16.9101 13.9291 16.9257 13.9305 16.894 13.9116C16.8344 13.7852 16.9107 13.5628 17.0141 13.4734Z" fill="#FFFDF6"/>
<path d="M15.0971 13.3175C15.2553 13.3038 15.4112 13.3182 15.5686 13.3329C15.4846 13.6576 15.4572 13.772 15.4721 14.107C15.3661 14.115 15.2591 14.147 15.1646 14.1075C15.1415 14.0661 15.1511 14.0708 15.1599 14.0099L15.1581 14.0098C15.1423 14.017 15.1355 14.0208 15.1236 14.0342C15.0417 14.1248 14.9201 14.1736 14.806 14.1199C14.7445 14.0909 14.7031 14.0308 14.6922 13.9648C14.6549 13.7402 14.7394 13.4849 14.9403 13.3712C14.9904 13.3429 15.0427 13.331 15.0971 13.3175Z" fill="#00292D"/>
<path d="M15.1427 13.4746C15.1746 13.4767 15.1667 13.4758 15.1974 13.4853C15.2406 13.588 15.1311 13.8327 15.0747 13.9234C15.0391 13.9292 15.0558 13.9321 15.0233 13.9116C14.9684 13.7819 15.0406 13.5671 15.1427 13.4746Z" fill="#FFFDF6"/>
<path d="M18.1445 13.3076C18.3434 13.3231 18.3187 13.5165 18.292 13.6727C18.2657 13.8277 18.245 13.9488 18.2456 14.1075C18.1446 14.1193 18.0117 14.1225 17.9081 14.1278C17.9114 14.0104 17.9967 13.6222 17.9449 13.5596C17.8657 13.5937 17.8311 13.7538 17.8133 13.8342C17.7992 13.9209 17.7921 14.0282 17.7839 14.1172L17.438 14.1167C17.481 13.8936 17.5253 13.5649 17.5199 13.3438C17.6342 13.3356 17.7486 13.3293 17.8632 13.3249L17.8483 13.4705C17.8589 13.4572 17.8698 13.4439 17.8808 13.4308C17.971 13.323 18.0127 13.3175 18.1445 13.3076Z" fill="#00292D"/>
<path d="M9.86133 13.3233C9.91255 13.3175 9.94773 13.3098 9.99831 13.3206C10.0066 13.3488 9.9577 13.5265 9.94812 13.5685C9.90411 13.7612 9.91386 13.9103 9.92316 14.1042C9.80952 14.1121 9.69582 14.1191 9.58207 14.1252C9.58873 14.0772 9.59182 14.0464 9.59361 13.998C9.54288 14.0025 9.45307 14.1779 9.30184 14.1421C9.11338 14.0972 9.126 14.0066 9.15181 13.8399C9.19488 13.6452 9.2116 13.541 9.21591 13.3381C9.31809 13.3288 9.4423 13.3264 9.54632 13.3215C9.54368 13.4848 9.45 13.8237 9.49374 13.8945C9.63845 13.8983 9.64422 13.4475 9.65046 13.3431L9.86133 13.3233Z" fill="#00292D"/>
<path d="M11.0905 12.9752L11.4242 12.9666C11.4017 13.214 11.3416 13.4934 11.3138 13.7452C11.2993 13.8766 11.3053 13.9774 11.2949 14.0979L11.2685 14.1111C11.1669 14.1197 11.0521 14.1231 10.9492 14.1286C10.9596 13.8409 11.05 13.2791 11.0905 12.9752Z" fill="#00292D"/>
<path d="M15.733 12.9751L16.0734 12.9666C16.0282 13.2188 15.9984 13.4961 15.9596 13.7508C15.9475 13.8308 15.9523 14.0666 15.9229 14.1097C15.8248 14.1201 15.694 14.123 15.5933 14.1282C15.6018 13.8393 15.696 13.2899 15.733 12.9751Z" fill="#00292D"/>
<path d="M12.2101 13.1869C12.2676 13.1822 12.2939 13.1706 12.3415 13.193C12.3614 13.2372 12.3384 13.3032 12.3271 13.3547L12.5046 13.341L12.4766 13.5189L12.3074 13.5259C12.2885 13.625 12.2269 13.8548 12.3032 13.923C12.4911 13.9277 12.4923 14.0684 12.3286 14.1244C11.7157 14.1959 12.0192 13.8066 11.9735 13.529C11.9408 13.5151 11.9359 13.5159 11.911 13.489C11.9013 13.4367 11.909 13.4253 11.9251 13.3721C11.9568 13.3542 11.9776 13.3488 12.0115 13.3377C12.051 13.2886 12.044 13.2671 12.0562 13.1985L12.2101 13.1869Z" fill="#00292D"/>
<path d="M14.4325 13.1869C14.4896 13.1803 14.5225 13.1696 14.5684 13.1951C14.5844 13.2415 14.561 13.3044 14.5484 13.3552L14.7283 13.3413L14.6988 13.5189L14.5318 13.526C14.5113 13.6259 14.4693 13.8031 14.5005 13.894C14.5674 13.9567 14.5852 13.8824 14.6611 13.9792C14.6766 14.0732 14.6297 14.0982 14.5552 14.1236C14.4673 14.1345 14.3565 14.1431 14.2865 14.1176C14.0573 14.0345 14.216 13.6999 14.1995 13.5298C14.198 13.5138 14.1637 13.5398 14.1294 13.4693C14.1323 13.4159 14.1332 13.4139 14.1555 13.3648C14.185 13.3568 14.2065 13.3496 14.2351 13.3397C14.2735 13.3015 14.2728 13.2558 14.2823 13.1986L14.4325 13.1869Z" fill="#00292D"/>
<path d="M13.7319 13.071L14.0972 13.0706C14.0612 13.3622 13.9905 13.8349 13.9839 14.1166L13.6274 14.117C13.6661 13.7827 13.7188 13.4027 13.7319 13.071Z" fill="#00292D"/>
<path d="M16.2936 13.3348C16.3586 13.3301 16.442 13.3301 16.5087 13.3281C16.4596 13.6009 16.4291 13.8124 16.4046 14.0888C16.3687 14.1197 16.3678 14.1101 16.3116 14.1171L16.0679 14.1284C16.0871 13.8851 16.1401 13.6121 16.167 13.3557C16.2009 13.3332 16.2514 13.3368 16.2936 13.3348Z" fill="#00292D"/>
<path d="M11.6495 13.3346L11.8603 13.3281C11.8255 13.5934 11.7861 13.8162 11.7576 14.0893C11.7294 14.1195 11.7229 14.1102 11.6706 14.117L11.4263 14.1286C11.4403 13.88 11.4989 13.6232 11.5187 13.3582C11.5525 13.3324 11.6052 13.3367 11.6495 13.3346Z" fill="#00292D"/>
<path d="M11.6784 12.9626C11.9319 12.9515 11.948 13.1576 11.7523 13.2506C11.5244 13.2568 11.4819 13.0829 11.6784 12.9626Z" fill="#00292D"/>
<path d="M16.32 12.9634C16.5702 12.949 16.5933 13.1491 16.4042 13.2486C16.1723 13.2618 16.1238 13.0867 16.32 12.9634Z" fill="#00292D"/>
<path d="M13.0263 12.9587L13.269 12.9602C13.1806 13.0786 13.1282 13.1409 13.0149 13.2329C12.985 13.2528 12.9068 13.2862 12.8716 13.2735C12.8583 13.2278 12.9877 13.043 13.0263 12.9587Z" fill="#00292D"/>
</svg>
