<svg width="43" height="24" viewBox="0 0 43 24" fill="none" xmlns="http://www.w3.org/2000/svg">
<g clip-path="url(#clip0_279_4768)">
<path d="M22.0095 14.2833C22.0193 13.5637 22.0857 12.8376 22.0851 12.1168C22.0849 11.8641 22.0786 11.6265 22.1146 11.3751C22.4406 10.9732 23.0747 11.2494 23.1398 11.8087C23.2848 13.0537 23.0402 14.2602 23.0947 15.5077C23.1145 15.9591 23.1699 16.1627 23.296 16.5846C23.3409 16.7722 23.1085 17.8013 23.1932 18.0739C23.6787 17.9889 23.6069 14.0922 25.9138 14.0881L25.8142 14.211C25.3026 14.8457 24.9429 15.1288 25.0205 16.0328C25.0247 16.0814 25.0398 16.1282 25.0574 16.1739L25.1235 16.1941C25.5353 15.8584 25.6219 14.8404 25.9421 14.3731L25.9831 14.2539L26.1203 14.2037L26.1563 14.2248C26.8322 14.6268 26.2565 16.5811 26.6521 17.096C26.9248 17.0892 27.0419 16.3744 27.1435 16.1936C27.6388 15.312 27.6117 14.735 27.6062 13.7435C28.7718 13.7369 28.8225 14.0843 28.9823 15.182C29.248 14.2762 29.524 13.2894 30.7169 13.4811C30.9841 13.5241 31.1221 13.8852 31.1205 14.1224C31.1122 15.3479 30.4751 16.6701 30.8143 17.8803C30.8478 17.9996 31.1476 18.2458 31.2507 18.3359C30.9124 19.2722 30.3358 18.8439 29.8361 18.3097C29.6232 17.1752 29.6663 16.3214 29.809 15.1844C29.836 14.9694 29.9782 14.4641 29.9623 14.3362L29.9162 14.3103C29.8137 14.4475 29.695 14.7232 29.6109 14.8838C29.0173 16.0182 28.7574 17.2089 28.6578 18.4826C28.4248 18.4319 28.1794 18.3721 27.9436 18.3445C27.8699 18.0715 27.6426 16.5318 27.6068 16.4771C27.4602 16.5942 27.4102 17.1696 27.2917 17.3638C27.0641 17.7372 26.7055 17.8806 26.33 18.0659C26.115 17.9451 25.8815 17.8325 25.7129 17.6555L25.6854 17.6269C25.6656 17.606 25.6517 17.5901 25.6339 17.5681C25.598 17.3928 25.4919 16.7436 25.4215 16.6286C25.3103 16.6207 25.1742 16.7022 25.0684 16.7519C24.7058 16.9226 24.3834 16.8595 23.9961 16.8188C23.8591 17.2077 23.4617 19.2914 23.4463 19.7344C23.7082 19.8313 26.7118 19.6896 27.3357 19.7969C29.6043 20.1869 31.9573 20.3815 34.1816 21.0295C34.5197 21.1281 34.9285 21.1968 35.2397 21.3214C35.7882 21.4078 37.0007 21.8521 37.5928 22.0381C37.782 22.0782 37.8302 22.0906 38.0056 22.1701L37.9106 22.3221L37.7078 22.3813C37.5683 22.4372 37.4876 22.4843 37.3408 22.4558C37.0478 22.4767 36.3455 22.2345 36.063 22.1287C34.3198 21.6574 32.1823 21.3237 30.4025 21.0663C29.7117 20.9315 28.2562 20.7925 27.5497 20.7559C26.1096 20.6003 24.2263 20.6907 22.7556 20.7282C21.2308 20.7671 19.558 21.1699 18.0324 21.3465C16.7017 21.5532 15.4045 22.0162 14.0493 22.1322C13.511 22.1903 12.9473 22.355 12.4064 22.4257C12.0162 22.4767 11.9488 22.5281 11.9327 22.0924C11.7593 22.1724 11.2951 22.6036 11.0921 22.3935C11.0783 22.0849 11.2358 21.9877 11.4945 21.8917C11.7358 21.7801 12.1413 21.6397 12.4005 21.5407C12.7286 21.3124 13.6856 21.1592 14.1015 21.0455C15.8571 20.5649 17.6588 20.3589 19.4494 20.0616C20.3505 19.912 21.5732 19.6409 22.4831 19.7694C22.1595 19.0414 22.297 18.4494 22.1471 17.8809C21.9777 17.9039 22.0178 18.0474 21.8526 18.098C21.2472 18.2834 20.9628 18.2936 20.3625 18.1499C20.039 17.7417 19.8558 17.2391 19.8403 16.7175C19.7894 15.3749 20.6319 14.3344 22.0095 14.2833ZM21.3673 17.6716C21.973 17.2107 22.2407 15.3728 21.9627 14.6703C21.8469 14.6069 21.8935 14.6248 21.7367 14.6313C21.5644 14.6842 21.4085 14.7409 21.3369 14.9197C21.0815 15.5572 20.7301 17.2094 21.3673 17.6716ZM22.6757 19.1339C22.675 18.9343 22.63 18.1766 22.4325 18.1065C22.3317 18.4561 22.2896 18.9567 22.6757 19.1339Z" fill="#FFFDF6"/>
<path d="M35.2393 21.3215C35.7877 21.4079 37.0002 21.8522 37.5923 22.0382C37.7815 22.0783 37.8297 22.0908 38.0052 22.1703L37.9102 22.3222L37.7073 22.3815C37.5679 22.4374 37.4871 22.4844 37.3404 22.456C37.0474 22.4768 36.345 22.2347 36.0625 22.1288L36.374 22.0188C36.0175 21.748 35.5801 21.7771 35.2393 21.3215Z" fill="#FFFDF6"/>
<path d="M36.374 22.0188C36.5885 22.0259 37.2252 22.2694 37.3404 22.456C37.0473 22.4769 36.345 22.2347 36.0625 22.1289L36.374 22.0188Z" fill="#FFFDF6"/>
<path d="M37.5923 22.0381C37.7815 22.0782 37.8297 22.0907 38.0051 22.1701L37.9101 22.3221L37.7073 22.3813C37.6308 22.2732 37.6206 22.1692 37.5923 22.0381Z" fill="#FFFDF6"/>
<path d="M12.4005 21.5408C12.2432 21.7212 12.2705 21.6602 12.1366 21.7807C12.1634 21.9189 12.1708 21.8661 12.1195 21.985C12.0294 22.032 12.0148 22.0413 11.9171 22.0646L11.9327 22.0925C11.7593 22.1725 11.2951 22.6037 11.0921 22.3936C11.0783 22.085 11.2358 21.9877 11.4945 21.8917C11.7358 21.7802 12.1413 21.6398 12.4005 21.5408Z" fill="#FFFDF6"/>
<path d="M12.4001 21.5408C12.2428 21.7212 12.2701 21.6602 12.1362 21.7807C11.8988 21.9872 11.7931 22.0134 11.4941 21.8917C11.7354 21.7802 12.1409 21.6398 12.4001 21.5408Z" fill="#FFFDF6"/>
<path d="M33.2159 3.24927L33.407 3.26361C33.38 3.33478 33.2887 3.90916 33.2371 4.09306C33.0966 4.59366 32.8395 5.2201 32.7493 5.70146C32.4248 7.43444 32.5444 8.75491 31.5922 10.3528C30.8599 11.5816 29.9999 12.05 28.5909 12.1442C28.1123 12.1936 27.6737 12.2398 27.1867 12.2404C26.4911 12.2412 25.7629 12.1743 25.0961 12.4337C25.0048 12.4692 25.0144 12.6321 24.8653 12.6721L24.8345 12.6186C24.7972 11.9809 25.3042 10.7447 25.4392 10.133C25.727 8.82983 26.0795 7.6995 27.2535 6.93519C27.4046 6.83677 27.6204 6.68147 27.7977 6.6149C29.5165 5.9699 32.5578 5.22989 33.2159 3.24927ZM26.19 10.433C26.8082 9.5331 27.9324 9.49289 28.819 8.98698C29.1147 8.81827 29.8841 7.69199 30.2294 7.94803C30.2411 8.13509 30.0566 8.33155 29.9664 8.48583C28.9738 10.1835 27.2606 9.71104 26.2704 11.5035C27.2368 11.4031 28.2344 11.5325 29.2041 11.3069C30.8416 10.9258 31.6182 9.00267 31.858 7.50118C31.9778 6.75134 32.1684 5.56291 32.5764 4.92854L32.5898 4.90808C32.1857 5.08198 31.7888 5.36046 31.447 5.63953C29.5001 7.22915 27.778 6.46155 26.5684 8.96643L26.4242 9.28157C26.3565 9.48614 26.2378 10.1872 26.19 10.433Z" fill="#FFFDF6"/>
<path d="M5.00975 11.683C5.20581 11.5472 5.57702 11.3196 5.80735 11.3054C5.91842 11.2768 6.22786 11.4006 6.26435 11.5198C6.61142 12.6515 6.71527 13.8745 7.06544 15.0205C7.16143 15.3346 7.16173 15.95 7.39462 16.1549C7.66408 16.1777 7.7046 15.9113 7.95592 15.723L8.01093 15.7503C8.2345 16.5171 7.40923 17.7486 8.27145 18.2684C8.32365 18.2999 8.47465 18.9702 8.50955 19.1006C8.63456 19.8213 8.69738 19.6695 8.86783 20.1958C9.00355 20.6403 9.20187 20.9712 9.39344 21.3917C9.68558 22.0331 9.74269 22.6225 9.82147 23.3111C8.26503 22.8663 7.03176 19.1738 6.54998 17.7246C6.25142 17.728 5.69565 17.8076 5.3813 17.8432C5.36706 18.4823 5.78346 21.2204 5.35883 21.4442C5.17331 21.453 5.19023 21.4797 5.04708 21.4035C4.74579 20.74 4.59688 18.9288 4.39847 18.1356C4.33687 18.1009 4.27573 18.0655 4.21501 18.0294C4.06292 17.9377 4.05081 17.9293 4.01367 17.7833C4.0603 17.6367 4.22756 17.5151 4.34796 17.409C4.39868 16.7486 4.3459 15.9829 4.36072 15.3074C4.38272 14.3045 4.67717 12.6257 5.00975 11.683ZM7.54495 19.4329C7.72715 19.7449 7.8994 20.06 8.06636 20.3804C8.21128 20.6586 8.32449 21.0085 8.50833 21.2534L8.55171 21.2593C8.49855 20.9294 8.42111 20.6526 8.55885 20.3372L8.54822 20.2848C8.49044 20.0497 8.39806 19.6508 8.16097 19.5539C8.02807 19.5756 7.83944 19.6096 7.77792 19.4594C7.97134 19.2695 8.07514 19.4428 8.26868 19.2148C8.07417 19.0659 7.89428 19.096 7.66731 19.1373C7.66878 19.2851 7.63137 19.3183 7.54495 19.4329ZM7.64291 19.1129C7.63599 18.8626 7.69675 18.6847 7.65186 18.3779L7.6123 18.3607C7.45458 18.616 7.49947 18.6657 7.4036 18.9399L7.64291 19.1129ZM6.12595 17.0751C6.15123 16.9725 5.47104 14.7023 5.42904 14.6611C5.30504 15.442 5.32709 16.2888 5.33049 17.0835L6.12595 17.0751ZM8.05566 18.946C8.04898 18.7833 8.0819 18.6523 7.91838 18.5645C7.90079 18.7391 7.87152 18.7425 7.94039 18.8715L8.05566 18.946Z" fill="#FFFDF6"/>
<path d="M8.14712 19.6667L8.21905 19.7281C8.25975 19.8882 8.23245 19.9672 8.19911 20.1288C8.11273 20.0609 8.11202 20.0483 8.06234 19.9464C8.0544 19.8128 8.08266 19.7793 8.14712 19.6667Z" fill="#FFFDF6"/>
<path d="M8.26859 19.2148C8.19271 19.0447 8.03 18.6084 8.12964 18.4462L8.09332 18.4014C8.34557 18.8219 8.13943 18.8856 8.50946 19.1005C8.63447 19.8213 8.69729 19.6695 8.86774 20.1958C8.75029 20.2357 8.67269 20.2648 8.54814 20.2847C8.49036 20.0497 8.39797 19.6508 8.16089 19.5539C8.02798 19.5756 7.83935 19.6096 7.77783 19.4594C7.97125 19.2695 8.07505 19.4428 8.26859 19.2148Z" fill="#FFFDF6"/>
<path d="M7.40368 18.9399L7.64299 19.1129L7.66739 19.1373C7.66886 19.2851 7.63145 19.3183 7.54503 19.4329C7.46759 19.3837 7.44823 19.368 7.38054 19.3058C7.32831 19.1696 7.36639 19.0822 7.40368 18.9399Z" fill="#FFFDF6"/>
<path d="M5.42935 14.6611C5.47135 14.7024 6.15154 16.9725 6.12626 17.0751L5.3308 17.0835C5.3274 16.2888 5.30535 15.442 5.42935 14.6611Z" fill="#FFFDF6"/>
<path d="M7.91845 18.5645C8.08197 18.6522 8.04905 18.7833 8.05572 18.946L7.94045 18.8715C7.87159 18.7425 7.90086 18.7391 7.91845 18.5645Z" fill="#FFFDF6"/>
<path d="M9.46692 6.17165C9.35316 5.53306 9.58202 4.8916 10.2377 4.66775C12.0152 4.06092 12.6294 7.28768 13.101 8.45429C13.2517 8.82718 13.2939 9.65267 13.4563 10.1011L13.5074 10.1011C13.7017 9.75708 13.7839 8.35046 13.8712 7.86746C14.2368 5.84529 14.6351 3.84919 15.5446 1.98956C15.7885 1.49095 16.0148 0.938712 16.3295 0.479248L16.5709 0.577587C16.3959 1.35004 16.0791 2.32997 15.8293 3.11344C15.5907 3.86201 15.3461 4.27979 15.1519 5.13649C14.7833 6.76337 14.9131 8.30596 14.6525 9.94228C14.5257 10.7386 14.5704 11.6837 14.5054 12.491C13.0622 14.7676 12.4175 11.9812 12.1819 10.7899C12.0339 10.0413 11.9852 10.3251 11.839 9.65111C11.6906 9.00779 10.7569 5.43792 10.2597 5.27888C10.1474 5.28512 10.0424 5.33735 9.9694 5.42341C9.9324 5.46725 9.91842 5.50015 9.8957 5.55094L9.88432 5.57583C9.87748 5.59279 9.87063 5.6098 9.86374 5.62676C9.81419 5.82423 9.74121 6.2189 9.58718 6.33403C9.48611 6.28572 9.51979 6.30922 9.46692 6.17165Z" fill="#FFFDF6"/>
<path d="M9.46729 6.17176C9.48102 6.00744 9.50617 5.74621 9.59792 5.61328C9.62728 5.63606 9.6686 5.81933 9.68329 5.87151C9.78638 5.77975 9.70563 5.80051 9.76535 5.63513L9.86411 5.62687C9.81456 5.82434 9.74158 6.21901 9.58755 6.33414C9.48648 6.28583 9.52015 6.30933 9.46729 6.17176Z" fill="#FFFDF6"/>
<path d="M23.6077 9.31536C22.6908 7.69004 21.5681 6.10784 22.5489 4.22409C23.0164 3.32608 23.2942 2.9866 23.5793 1.9984C23.783 1.29222 23.5307 0.48965 23.5924 0.173286L23.6597 0.133545C23.9007 0.269515 24.1722 0.938145 24.3032 1.20177C24.804 2.21044 25.8469 3.1694 26.1901 4.22455C26.735 5.89982 26.1988 7.02032 24.8842 8.09011C24.5771 8.34011 24.136 8.7082 23.9462 9.06552L23.928 9.10029L23.7848 9.05502C23.6579 9.13484 23.6818 9.15256 23.6077 9.31536ZM24.5872 5.48676C24.336 6.5398 24.1766 6.71412 24.0718 7.84934C25.019 6.81263 26.2125 6.02381 25.4635 4.28172C25.3025 3.90734 24.2067 1.85986 24.0027 1.77873C23.896 2.25229 23.8066 3.06389 23.6608 3.45809C23.2874 4.46751 22.6745 5.14015 22.9809 6.30688C23.0402 6.53267 23.0862 6.97045 23.3142 7.05841C23.404 6.99289 23.9096 5.59278 24.025 5.40859C24.141 5.22342 24.0542 4.47911 24.274 4.28771C24.491 4.40752 24.6235 5.2395 24.5872 5.48676Z" fill="#FFFDF6"/>
<path d="M17.6407 15.2919C17.9346 14.7008 18.0342 13.9178 18.7006 13.6821C19.0293 13.5541 19.6213 13.5395 19.684 14.0093C19.8068 14.9285 19.4701 15.9201 19.4354 16.8424C19.4127 17.4467 19.2224 18.1814 19.9045 18.445L19.9355 18.5044C19.6611 19.1331 19.3563 19.0932 18.7891 18.8862C17.7131 17.1359 18.7893 15.1578 18.5363 14.6344C18.4608 14.6415 18.4534 14.6465 18.4035 14.7057C18.289 14.8413 17.5068 17.1098 17.4589 17.3649C17.3937 17.7125 17.4486 18.0915 17.3563 18.4317C17.3225 18.5564 17.2839 18.6027 17.1642 18.6368C17.0441 18.5804 17.0232 18.5653 16.9214 18.4795L16.8497 18.4837L16.7274 18.6685L16.6767 18.6563C16.5536 18.289 16.5059 17.8272 16.3824 17.4274C16.2723 17.7547 16.2073 17.9481 16.0042 18.2396C15.9246 18.2717 15.7991 18.3284 15.7201 18.3477C14.9663 18.5327 14.9546 17.3809 14.7235 17.0069L14.6644 17.0238C14.3818 17.6511 14.5011 17.9659 13.8497 18.4178C13.5435 18.3742 13.317 18.3662 13.1851 18.0384C13.0453 17.6908 13.0271 17.2931 12.9309 16.9282C12.8541 16.7111 12.8458 16.4571 12.8257 16.2252C12.7608 15.8026 12.7411 15.0807 12.7681 14.6509C12.8973 14.6522 13.4869 14.6635 13.5205 14.8039C13.7584 15.7989 13.664 16.8514 13.8652 17.8808C13.9782 17.6294 14.4437 16.6318 14.4794 16.4528C14.6016 15.8399 14.6405 15.0096 14.7265 14.3479L15.2829 14.3403L15.2882 14.3606C15.404 14.8259 15.2972 15.3234 15.3245 15.7786C15.3503 16.2112 15.5352 17.4677 15.7814 17.7707L15.8542 17.7755C16.2495 17.365 16.2207 14.8331 16.2104 14.1451C16.2097 14.0969 16.2086 14.0487 16.2072 14.0005C17.4052 13.9453 17.4266 14.1356 17.6407 15.2919ZM17.476 15.518C17.5944 15.3813 17.611 15.4069 17.626 15.2575L17.5601 15.1984C17.4264 15.3056 17.429 15.2677 17.4079 15.4011L17.476 15.518Z" fill="#FFFDF6"/>
<path d="M12.8257 16.2252C12.9864 16.1226 12.9565 16.1043 13.1091 16.1203C13.28 16.3606 13.1771 16.764 12.9309 16.9282C12.8541 16.7111 12.8458 16.4571 12.8257 16.2252Z" fill="#FFFDF6"/>
<path d="M17.5599 15.1985L17.6258 15.2575C17.6108 15.4069 17.5942 15.3814 17.4758 15.518L17.4077 15.4011C17.4288 15.2678 17.4262 15.3057 17.5599 15.1985Z" fill="#FFFDF6"/>
<path d="M8.8379 10.6479C9.03904 10.4775 9.27403 10.352 9.5272 10.2798C10.9992 9.8467 10.7792 12.9298 10.5993 13.7262C10.5067 14.2608 10.1757 14.6391 9.93524 15.0825C9.69147 15.532 9.95061 16.5472 10.0747 16.9778C10.1664 16.1284 10.257 15.7822 10.5477 14.9881C11.5787 14.537 11.949 14.8256 12.2437 15.9022C12.4134 16.5224 12.4141 17.0751 12.393 17.7127C12.3916 18.0794 12.4811 18.8131 12.3852 19.0799C12.1647 19.4787 11.4969 19.7821 11.0583 19.6912C10.9413 19.6012 10.9703 19.6509 10.9488 19.5062C11.0511 19.1861 11.2598 19.0531 11.5146 18.8346C11.5948 18.5354 11.659 18.2207 11.6312 17.9121C11.5953 17.5137 11.3198 15.2778 11.1134 15.0871L11.0474 15.1006C9.83886 16.645 10.9063 18.4798 10.5223 19.7994L9.90034 19.8413C9.84777 19.6386 9.78507 19.4842 9.71243 19.2883C8.96459 17.272 8.60627 15.0491 8.55722 12.9017C8.53954 12.1269 8.67497 11.3941 8.8379 10.6479ZM12.2053 17.9177L12.1635 17.7712C12.0558 17.8819 11.947 18.8379 12.028 19.0245L12.1079 19.0564C12.1615 19.0319 12.2016 19.0186 12.2444 18.9775C12.2932 18.628 12.2421 18.2675 12.2053 17.9177ZM9.95611 14.5271C10.516 13.2908 10.5004 12.1798 10.1218 10.9019C9.99365 10.7915 9.82543 10.6186 9.66825 10.5876C9.3966 11.3606 9.59598 12.6202 9.62823 13.4521C9.64041 13.766 9.56138 14.4596 9.78121 14.6943L9.83609 14.6963C9.89946 14.6284 9.92348 14.6119 9.95611 14.5271Z" fill="#FFFDF6"/>
<path d="M12.2446 18.9775C12.2018 19.0186 12.1616 19.032 12.108 19.0564L12.0282 19.0245C11.9472 18.8379 12.056 17.8819 12.1637 17.7712L12.2054 17.9177C12.2422 18.2675 12.2934 18.628 12.2446 18.9775Z" fill="#FFFDF6"/>
<path d="M12.2056 17.9176C12.2283 17.8166 12.2355 17.7695 12.2434 17.6663L12.3933 17.7126C12.3919 18.0793 12.4814 18.813 12.3855 19.0798C12.3045 19.0609 12.2973 19.0413 12.2447 18.9774C12.2935 18.6279 12.2424 18.2674 12.2056 17.9176Z" fill="#FFFDF6"/>
<path d="M33.9746 16.6455C34.0999 16.4624 34.2637 16.2537 34.3703 16.1109C34.5118 15.9215 34.4396 14.8379 34.6924 14.85C35.1343 14.8711 35.4843 15.1637 35.5049 15.5916C35.5499 16.5256 35.155 17.4461 35.1374 18.314C35.4862 17.4168 35.7377 16.5434 36.7003 16.1011C37.2287 15.8582 37.8761 15.884 38.1068 16.5062C38.3211 17.0842 37.5911 18.6381 37.7423 19.1005C37.9274 19.1648 38.0313 18.9422 38.1391 18.8062C38.2179 18.6473 39.2081 17.3279 39.3232 17.3133C39.3292 17.4466 39.0073 18.3851 38.9118 18.485C38.7006 18.9915 38.3538 19.6702 37.8251 19.865C36.6349 20.3036 36.5611 19.1905 36.7106 18.3732C36.2922 18.4706 36.0669 18.499 35.6325 18.4852C35.4337 19.1147 34.8742 19.518 34.248 19.17C34.0748 18.8862 34.2061 17.4036 34.2533 17.06C34.3165 16.9119 34.379 16.7709 34.3565 16.6124L34.3 16.5788C34.1805 16.56 34.0917 16.605 33.9746 16.6455ZM36.4295 17.9741C36.9761 17.4733 37.3117 16.9343 37.641 16.2682L37.5988 16.197L37.5121 16.1897C37.0725 16.4948 36.1198 17.4379 36.3547 18.0323L36.4086 18.0197L36.4295 17.9741Z" fill="#FFFDF6"/>
<path d="M38.1392 18.8063C38.2179 18.6475 39.2082 17.328 39.3232 17.3135C39.3293 17.4467 39.0073 18.3853 38.9118 18.4851C38.8374 18.3018 38.964 18.1135 38.9939 17.8982L38.9628 17.887C38.7931 18.1282 38.3946 18.6775 38.1392 18.8063Z" fill="#FFFDF6"/>
<path d="M34.248 19.17C34.0748 18.8863 34.2061 17.4036 34.2533 17.0601C34.3342 17.8209 34.3346 18.4059 34.248 19.17Z" fill="#FFFDF6"/>
<path d="M19.6295 4.71334C19.9875 4.5243 20.099 4.4225 20.5079 4.38892C20.6473 4.45448 20.8162 4.5183 20.9137 4.63327L20.9278 4.723C20.8307 4.75911 20.6116 4.81459 20.5484 4.87593C19.5835 5.81325 19.1197 7.36617 19.3155 8.65104C19.8484 7.75658 20.4041 7.08191 20.3933 6.03009C20.3912 5.83042 20.4093 5.71314 20.6052 5.64189C20.8664 5.6893 21.0399 5.96909 21.1663 6.19133C21.5994 6.95324 21.2251 8.01611 21.2934 8.87703C21.3023 8.98837 21.3542 9.91177 21.3479 9.94324C21.343 9.96906 21.3361 9.9945 21.3273 10.0193C21.2027 10.1933 21.1738 10.2369 21.096 10.4346C20.9395 11.4916 19.881 12.8883 18.6896 12.7119C18.3263 12.6581 18.1733 12.536 17.979 12.2396L18.3116 12.1324C18.969 12.3854 19.3823 12.2723 19.7678 11.6858C20.4474 10.6519 20.0902 9.46563 20.4863 8.35889L20.4961 8.33197C20.269 8.28687 20.1049 9.0268 19.796 9.14982C19.1299 9.41505 18.5411 8.69293 18.2878 8.1517L18.2022 8.12745L18.1361 7.8785L18.1457 7.84774C18.3573 7.15515 18.3888 6.41451 18.8443 5.76786C19.1308 5.36117 19.4075 5.17052 19.6295 4.71334Z" fill="#FFFDF6"/>
<path d="M20.9736 10.0543C21.0595 9.94132 21.0164 9.97954 21.1582 9.91626L21.3273 10.0192C21.2027 10.1933 21.1738 10.2368 21.096 10.4346C21.0778 10.2427 21.0743 10.2173 20.9736 10.0543Z" fill="#FFFDF6"/>
<path d="M20.9732 10.0543C20.8602 10.056 20.8412 10.0591 20.7529 9.99061L20.7617 9.92382C20.9432 9.84232 20.9254 9.87721 21.1578 9.91623C21.016 9.97951 21.0591 9.94129 20.9732 10.0543Z" fill="#FFFDF6"/>
<path d="M17.4701 9.1792C15.8712 10.2201 15.2893 8.29094 15.4696 7.04645C15.6531 5.7788 16.2433 5.08114 17.5917 5.23981C17.6171 5.51154 17.6585 5.79099 17.5617 6.05011C17.5282 6.47 17.267 6.96629 16.9549 7.23549C16.4825 7.56882 16.6201 8.64422 17.0643 8.81195C17.1772 8.81044 17.2655 8.8155 17.375 8.78567C17.8409 8.52892 17.8986 8.34464 18.1359 7.87843L18.202 8.12738C18.0511 8.57246 17.8773 8.90861 17.4701 9.1792ZM17.2318 6.22995C17.2413 6.07361 17.2753 5.80145 17.2246 5.66536C17.0778 5.56099 16.8318 5.62566 16.7678 5.78905C16.6233 6.15845 16.6154 6.76303 16.6675 7.14757L16.7109 7.19487C16.7526 7.16386 16.7698 7.15605 16.8027 7.11547C17.0471 6.76768 17.1299 6.6358 17.2318 6.22995Z" fill="#FFFDF6"/>
<path d="M17.2318 6.22989C17.2654 6.30022 17.2944 6.35523 17.3331 6.42286L17.3876 6.43058C17.4279 6.28854 17.4492 6.15117 17.5617 6.05005C17.5282 6.46994 17.267 6.96624 16.955 7.23543C16.9048 7.15287 16.9005 7.17004 16.8027 7.11541C17.0471 6.76762 17.1299 6.63574 17.2318 6.22989Z" fill="#FFFDF6"/>
<path d="M17.375 8.78566C17.8409 8.52891 17.8986 8.34463 18.1359 7.87842L18.202 8.12737C18.0511 8.57244 17.8774 8.90859 17.4701 9.17919C17.5214 9.07456 17.9067 8.58232 17.9052 8.58957C17.7891 8.63817 17.6207 8.76414 17.5108 8.84046L17.375 8.78566Z" fill="#FFFDF6"/>
<path d="M31.9716 14.2038C32.6937 14.117 33.7392 13.9402 33.7696 14.8814C33.773 14.9837 33.7617 14.986 33.6949 15.0473C33.4021 15.0016 33.2161 14.6043 33.0685 14.369C32.7906 14.6025 32.6251 14.7545 32.5015 15.1149C32.1361 16.1808 32.0415 17.0437 32.4691 18.0809C32.7647 17.9696 32.906 17.8924 33.1472 17.6896L33.2806 17.8515C32.9894 18.331 32.4235 18.5627 31.8827 18.5536C31.8157 18.5156 31.7505 18.4746 31.6872 18.4308C31.0314 17.9861 31.1196 17.0381 31.1512 16.3345C31.1895 15.4842 31.4944 14.8838 31.9716 14.2038Z" fill="#FFFDF6"/>
<path d="M7.29004 6.73834C8.27677 6.63599 9.48976 8.43259 8.79743 8.79789C8.65273 8.89623 8.57933 8.98744 8.41127 8.93597C8.2575 8.73562 8.28261 8.16301 8.03212 7.74459C7.81347 7.37938 7.33606 7.04757 7.29004 6.73834Z" fill="#FFFDF6"/>
<path d="M6.13363 8.83667C6.37857 8.8646 6.61931 8.96171 6.85375 9.03406C7.48813 9.22986 7.88525 9.44632 7.6173 10.1817C7.24306 10.0601 6.29614 9.38933 6.0908 9.09975C6.05972 8.93792 6.05846 8.99804 6.13363 8.83667Z" fill="#FFFDF6"/>
<path d="M34.6471 13.6183C35.3205 13.6039 35.7916 13.7678 35.3957 14.5558C34.7716 14.7948 34.5012 14.1147 34.6471 13.6183Z" fill="#FFFDF6"/>
<path d="M33.9748 16.6456C34.0918 16.6051 34.1807 16.5601 34.3001 16.5789C34.1626 16.8134 33.4965 17.5921 33.2803 17.8514L33.147 17.6895C33.4727 17.1806 33.6167 17.082 33.9748 16.6456Z" fill="#FFFDF6"/>
<path d="M17.9786 12.2395C17.8191 12.0332 17.7362 11.8228 17.8087 11.5673L17.8744 11.551C18.0398 11.6695 18.1213 11.901 18.2844 12.0999L18.3112 12.1323L17.9786 12.2395Z" fill="#FFFDF6"/>
<path d="M16.6711 -0.112549C16.6443 0.118428 16.6109 0.348518 16.5709 0.577554L16.3296 0.479216C16.4403 0.28663 16.5565 0.0761981 16.6711 -0.112549Z" fill="#FFFDF6"/>
<path d="M38.0051 22.1702C38.2663 22.271 38.3761 22.3453 38.5922 22.524C38.3679 22.4695 38.0746 22.3599 37.9102 22.3221L38.0051 22.1702Z" fill="#FFFDF6"/>
<path d="M23.6079 9.31527C23.6821 9.15247 23.6582 9.13475 23.785 9.05493L23.9283 9.1002C23.8683 9.20778 23.8363 9.29224 23.7249 9.3464C23.6698 9.33961 23.6486 9.34522 23.6079 9.31527Z" fill="#FFFDF6"/>
<path d="M25.9135 14.0881C25.9987 14.1552 26.0178 14.1808 26.12 14.2038L25.9829 14.2539L25.9419 14.3732C25.9118 14.3021 25.8677 14.2662 25.814 14.211L25.9135 14.0881Z" fill="#FFFDF6"/>
<path d="M33.2158 3.24934C33.2968 3.14324 33.2986 3.10274 33.4072 3.06494C33.4252 3.16294 33.4277 3.16792 33.4069 3.26369L33.2158 3.24934Z" fill="#FFFDF6"/>
</g>
<defs>
<clipPath id="clip0_279_4768">
<rect width="43" height="24" fill="white"/>
</clipPath>
</defs>
</svg>
