<svg width="65" height="24" viewBox="0 0 65 24" fill="none" xmlns="http://www.w3.org/2000/svg">
<path d="M1.91318 13.4251C3.09308 13.1324 5.11326 11.8111 5.86249 10.7613C6.20176 10.2859 6.45724 8.73091 6.73684 8.14574C7.15838 6.91558 7.57854 5.71951 8.02359 4.49116C8.23357 4.10508 8.61158 2.25461 9.07212 2.20261C9.80728 2.11961 10.1593 2.2203 9.86299 2.98959C9.18978 4.73731 8.55933 6.4812 7.98433 8.26047C7.69026 9.17053 7.33012 10.1288 7.11435 11.0556C7.40985 10.8057 7.85012 10.3559 8.14892 10.1981C8.54592 10.1796 8.78475 10.1698 9.17851 10.2054C9.98197 11.0424 9.69378 11.9777 10.2972 12.9802C11.2567 12.094 11.3485 11.9574 12.1536 10.8935C14.8181 10.3952 12.4581 12.2399 13.4319 13.2002C13.5543 13.2656 13.7696 13.2371 13.8934 13.187C15.0669 12.7099 15.9328 11.69 16.8602 10.8654C17.3945 10.4357 17.2998 9.64783 17.6799 9.11488C17.89 8.82026 18.6812 8.79427 18.7868 9.21558C18.8644 9.52499 18.7087 9.76508 18.5759 10.0329C19.2209 9.69531 20.3174 9.19121 20.8024 10.0595C20.9796 10.3771 20.9511 10.7896 20.9488 11.1455C21.9713 10.9689 22.469 10.8946 23.5049 10.8583C23.968 10.2939 24.3844 9.79525 25.1492 9.73249C26.3319 9.63547 27.1282 9.88046 26.9484 11.2435C26.9474 11.2549 27.3054 11.6217 27.2668 11.7016C27.1012 12.2813 27.056 12.8025 27.0951 13.4059C28.3403 13.1868 28.7567 12.3252 29.4682 11.3963C29.6357 11.1776 29.848 10.8954 30.0806 10.7455C30.2365 10.3404 30.6849 8.96147 31.052 8.60544C31.1038 8.55514 31.9905 8.49844 31.9955 8.67405C32.2159 9.14006 31.3704 10.3781 31.4415 10.7008C31.7741 10.7443 31.7609 10.3921 32.1824 10.3955C32.4856 10.398 32.8014 10.3982 33.1071 10.4067C33.4301 11.1672 33.5276 12.244 33.9643 12.7693C34.531 12.4886 35.0973 12.2295 35.599 11.8438C36.0286 11.5134 36.4912 11.2167 36.8634 10.8228C37.2646 10.3985 37.4789 9.81538 38.0014 9.51046C38.4483 9.25448 38.916 9.16115 39.4076 9.32117C39.7559 9.43534 40.0439 9.6827 40.2079 10.0084C40.5633 10.7232 40.1388 11.219 39.371 10.9443C39.0983 10.8468 39.0399 10.3865 38.9551 10.1253C38.4041 10.5524 38.1015 10.9924 37.9182 11.6921C37.7963 12.1583 37.8044 13.3789 38.5209 13.3945C39.5315 13.3958 40.4989 12.6245 41.2748 12.0555C41.776 11.6877 42.2122 11.1342 42.7551 10.8477C42.946 10.747 43.5396 10.7694 43.7453 10.8905C44.1449 11.3814 43.1232 12.5171 43.6656 13.0789C44.2165 13.65 45.6308 12.2786 46.0863 11.9256C46.4931 11.6108 46.9633 11.1249 47.2314 10.689C47.5346 10.1147 47.6768 9.24464 47.8672 8.59364C48.1201 7.7315 48.4329 6.857 48.6746 6.00425C47.9652 6.05959 44.8833 6.61227 44.4522 6.22083C44.3887 6.16297 44.3582 6.08891 44.3618 6.00405C44.3699 5.81784 44.5466 5.66442 44.6766 5.55151C44.6837 5.54546 44.6908 5.53956 44.6985 5.53386C46.1797 5.33761 47.5529 5.26057 49.0398 5.12753C49.1987 4.60376 49.7334 2.71937 50.1478 2.48561C51.0979 2.29703 51.1705 2.72761 50.8851 3.48768C50.6912 4.00351 50.4789 4.53929 50.2555 5.04227C51.7916 5.09918 53.3465 5.05448 54.9273 5.10902C55.0649 5.2636 55.1904 5.40587 55.1756 5.62537C55.168 5.73374 55.1264 5.82445 55.0421 5.89851C54.8953 6.02675 50.4855 5.95007 50.0112 5.95103C49.5983 6.9234 49.3287 7.98324 49.0337 8.99739C48.5482 10.6674 48.08 12.345 47.7281 14.0488C47.4249 15.5183 47.2177 17.0012 46.9851 18.4819C46.9669 18.6003 46.908 18.661 46.7922 18.7068C46.5835 18.7894 46.2046 18.8084 45.9964 18.7199C45.8954 18.6771 45.8395 18.6198 45.7989 18.5175C45.613 18.0508 46.6007 13.7204 46.7429 12.8262C46.0188 13.4176 45.5749 13.7203 44.7076 14.0724C44.2907 14.1817 43.6915 14.1573 43.2695 14.0684C42.5733 13.7348 42.491 13.4079 42.2376 12.7219C41.1133 13.6528 38.8551 15.006 37.3083 13.9115C36.8604 13.5943 36.7223 12.982 36.6694 12.4536C35.7528 13.0626 34.2873 14.0703 33.1148 13.4191C32.5171 13.0871 32.3637 12.2484 32.219 11.6321C31.2186 12.4866 30.6123 14.2995 29.943 15.0573C29.425 15.0965 29.3255 15.1473 28.9553 14.7584C28.9725 14.3911 29.1812 13.8325 29.1553 13.7121L29.0761 13.6836C28.0092 14.2097 27.6415 14.5135 26.3979 14.1384C26.2039 13.9298 25.9973 13.7198 25.8398 13.4838C24.9105 14.2208 24.552 14.209 23.4105 14.1499C22.4304 13.5017 22.7239 12.764 22.9194 11.786C22.2882 11.8209 21.4752 11.9826 20.8876 12.2154C20.4883 12.7257 20.3009 13.4153 19.8411 13.9374C19.0469 14.8395 18.2046 14.904 17.2987 14.1371C17.262 14.2866 17.2116 14.4437 17.166 14.5911C16.5966 16.5877 15.9563 18.8139 15.6522 20.8633C15.4098 22.4966 14.347 22.4267 14.3947 21.448C14.499 19.3075 15.2936 16.9101 15.8131 14.8401C15.9203 14.413 16.342 13.3638 16.2944 13.0087C16.2154 12.9794 16.2177 13.003 16.1413 13.0647C15.5981 13.5041 15.0648 13.7865 14.4177 14.0591C14.0628 14.2007 13.3443 14.1499 12.9671 14.0731C12.4784 13.8268 12.2132 13.6333 12.0312 13.0809C12.0224 13.0541 12.0139 13.0272 12.0059 13.0002C11.3767 13.479 10.8578 13.88 10.0131 13.7779C8.83396 13.6353 8.65637 12.2627 8.48768 11.3474C8.3171 11.5956 8.11068 11.8069 7.94493 12.0489C7.1992 13.1376 6.59597 14.2999 6.1554 15.5401C5.89606 16.27 5.70933 16.7691 4.82889 16.4378C4.75724 16.4109 4.71093 16.2569 4.69788 16.1859C4.7648 15.2063 5.1186 13.7566 5.3174 12.833C3.74532 13.9681 1.92918 15.0504 0.14493 13.6185C0.131523 12.3897 -0.122638 10.8067 0.772229 9.8908C1.58874 9.0552 3.14762 8.98134 3.5198 10.2729C3.75918 11.1171 2.89646 11.2243 2.43379 10.7754C2.14647 10.4892 2.30938 10.0069 1.77968 10.4029C1.18412 11.0875 0.887809 12.3938 1.36272 13.2202C1.53756 13.2929 1.73154 13.3796 1.91318 13.4251Z" fill="#FFFDF6"/>
<path d="M12.9668 14.0732C13.3687 13.8395 14.0086 13.8353 14.4174 14.0592C14.0625 14.2008 13.344 14.15 12.9668 14.0732Z" fill="#FFFDF6"/>
<path d="M43.269 14.0686C43.7144 13.8825 44.1272 13.8362 44.5888 14.0225C44.6285 14.0385 44.6681 14.0552 44.7072 14.0725C44.2903 14.1818 43.691 14.1574 43.269 14.0686Z" fill="#FFFDF6"/>
<path d="M25.5172 10.5898C25.6807 10.6433 26.0337 11.2473 26.1824 11.45C25.539 11.9223 25.4344 12.491 24.4589 13.1423C24.3188 13.2192 24.2837 13.2291 24.1268 13.2613C23.7754 13.1365 23.9608 12.6399 24.0512 12.3691C24.3147 11.5814 24.7519 10.9667 25.5172 10.5898Z" fill="#00292D"/>
<path d="M19.5543 10.78C19.6765 10.7885 19.6323 10.773 19.7326 10.8512C19.7863 11.0539 19.6995 11.3428 19.6532 11.5558C19.266 11.6823 18.9899 11.8029 18.6516 12.0256L18.5156 11.973C18.5174 11.7355 19.3468 10.9537 19.5543 10.78Z" fill="#00292D"/>
<path d="M58.4925 9.40581C58.6708 9.40243 58.8495 9.40218 59.0278 9.4051C60.1739 9.43234 60.5929 10.3 60.5578 11.3201C60.1912 11.3492 59.9271 11.3455 59.5584 11.3362C59.3878 10.9469 59.2121 10.3478 58.7419 10.3158C58.4428 10.4156 58.2894 10.6768 58.1178 10.9304C58.1269 10.9749 58.1371 11.0191 58.1483 11.0632C58.2275 11.3753 58.6048 12.1107 58.8805 12.2803C59.0283 12.3709 59.92 11.8889 60.1358 11.7978C60.897 11.4847 61.6786 11.222 62.4743 11.0111C62.8516 10.9139 63.4513 10.749 63.7961 10.9502C63.884 11.1075 63.8764 11.4192 63.8845 11.6119C62.7231 12.1111 60.6188 12.4222 59.5204 13.3001C59.8748 14.0677 59.8367 14.846 59.1603 15.4255C58.3818 16.0923 57.6024 16.0477 56.6497 15.9871C56.2201 15.3763 56.2673 15.0817 56.538 14.3938C56.8675 13.8498 57.546 13.4776 57.8339 13.0539C57.9258 12.9181 57.349 12.1942 57.1915 11.9923C55.7859 12.347 55.7356 12.4864 54.1101 12.5036C53.3901 13.7189 52.5395 15.0368 50.8495 14.5819C50.6606 14.4069 50.4722 14.215 50.2883 14.0336C50.1096 12.4166 50.4325 11.1967 51.6696 10.0858C52.3648 9.46161 53.3322 9.09297 54.0852 9.86384C54.5169 10.3059 54.5225 11.0534 54.4813 11.6227C54.5245 11.6173 54.5677 11.6112 54.6108 11.6046C55.1887 11.5181 56.603 11.2414 56.9183 10.7656C57.4145 10.0166 57.4277 9.54671 58.4925 9.40581Z" fill="#FFFDF6"/>
<path d="M51.9715 11.5964C52.1076 11.6224 52.7576 12.2141 52.8957 12.3568C52.6423 12.7726 52.3559 13.0636 52.0152 13.4058C51.875 13.5595 51.7877 13.6438 51.5876 13.6625L51.4997 13.5745C51.3408 13.1464 51.5338 12.4646 51.6465 12.035C51.7085 11.8006 51.778 11.7337 51.9715 11.5964Z" fill="#00292D"/>
<path d="M58.3203 14.103L58.432 14.1257C58.7021 14.4472 58.1308 14.8701 57.8881 15.1059C57.7896 15.082 57.7322 15.077 57.6616 15.0047C57.6748 14.7001 58.1029 14.3288 58.3203 14.103Z" fill="#00292D"/>
<path d="M52.8786 10.3589C52.9085 10.3663 52.938 10.3759 52.9664 10.3876C53.2802 10.5183 53.361 10.8604 53.2244 11.1587C53.1563 11.1009 53.1096 10.9264 52.94 10.8542C52.8186 10.8024 52.8684 10.4974 52.8786 10.3589Z" fill="#00292D"/>
<path d="M43.2738 9.28594L44.1259 9.28296C44.4677 9.66703 44.4027 9.75219 44.1564 10.1756C43.3495 10.2307 42.8864 10.2408 43.2738 9.28594Z" fill="#FFFDF6"/>
<path d="M13.0231 9.28866C13.3726 9.27039 14.0076 9.21818 13.9948 9.72459C13.9893 9.94259 13.8436 10.0206 13.7027 10.162C13.2664 10.4558 12.3529 9.8484 13.0231 9.28866Z" fill="#FFFDF6"/>
</svg>
