<svg width="115" height="25" viewBox="0 0 115 25" fill="none" xmlns="http://www.w3.org/2000/svg">
<path d="M26.779 9.9438V8.0188H31.3977C32.728 8.0188 33.7536 8.2938 34.4685 8.83755C35.1834 9.3813 35.5439 10.25 35.5439 11.4438C35.5439 12.4375 35.3201 13.25 34.8788 13.875C34.4374 14.5 33.7971 14.925 32.9642 15.1438C33.2377 15.775 33.4801 16.275 33.6915 16.6313C33.9028 16.9875 34.1328 17.2688 34.3939 17.4625C34.6488 17.6563 34.9534 17.775 35.3077 17.7563C36.0909 17.7063 36.5944 17.2375 36.7125 17.1625L37.3093 18.3688C37.0234 18.6438 36.1407 19.7 34.6115 19.7C33.8966 19.7 33.3123 19.5313 32.8585 19.2C32.4109 18.8688 32.0566 18.4438 31.7955 17.9313C31.5344 17.4188 31.2361 16.7 30.9004 15.7688L30.7325 15.3188L29.1909 15.3125V19.4813H26.7666V9.9438H26.779ZM30.6269 13.3938C31.1925 13.3938 31.6588 13.35 32.0131 13.2625C32.3674 13.175 32.6409 13.0063 32.8336 12.7563C33.0263 12.5063 33.1196 12.1563 33.1196 11.7C33.1196 11.2438 33.0263 10.8875 32.8398 10.6313C32.6534 10.375 32.3798 10.1938 32.0193 10.0938C31.6588 9.9938 31.1988 9.93755 30.6269 9.93755H29.2034V13.3875H30.6269V13.3938Z" fill="#FFFDF6"/>
<path d="M39.2863 17.4063C39.6096 17.6563 40.0633 17.7813 40.6539 17.7813C40.8963 17.7813 41.1263 17.7688 41.3439 17.7501C41.7977 17.6938 42.2763 17.5876 42.786 17.4251C43.2958 17.2626 43.706 17.1188 44.0293 16.9938L44.3836 18.4313C44.2096 18.5876 43.9236 18.7626 43.5071 18.9626C43.0906 19.1626 42.6182 19.3313 42.0836 19.4751C41.5428 19.6188 41.0082 19.6938 40.4674 19.6938C39.4728 19.6938 38.6771 19.5251 38.0866 19.1938C37.4898 18.8626 37.0671 18.3563 36.7998 17.6813C36.5387 17.0063 36.4082 16.1313 36.4082 15.0626C36.4082 14.0751 36.5387 13.2626 36.806 12.6376C37.0733 12.0063 37.5023 11.5376 38.1052 11.2251C38.702 10.9126 39.5039 10.7563 40.5047 10.7563C41.636 10.7563 42.5374 11.0063 43.215 11.5126C43.8863 12.0126 44.2531 12.8001 44.309 13.8751C44.3214 14.0001 44.3277 14.1876 44.3277 14.4313C44.3277 14.7313 44.3152 15.0063 44.2966 15.2626C44.2779 15.5188 44.2593 15.6813 44.2469 15.7438L38.8325 16.0626C38.8077 16.7001 38.9693 17.1563 39.2863 17.4063ZM42.0214 13.9126C42.0214 13.0251 41.4993 12.5813 40.4674 12.5813C39.9514 12.5813 39.5598 12.7188 39.2801 13.0001C39.0004 13.2813 38.845 13.7001 38.8077 14.2688L42.0152 14.1438C42.0152 14.0876 42.0214 14.0126 42.0214 13.9126Z" fill="#FFFDF6"/>
<path d="M50.2139 13.2064C50.0088 12.8501 49.6545 12.6751 49.1447 12.6751C48.8712 12.6751 48.6164 12.7314 48.3801 12.8439C48.1439 12.9564 47.9512 13.0751 47.7958 13.2126C47.6404 13.3439 47.5658 13.4189 47.5658 13.4376V19.4814H45.2285V11.0689L47.5658 10.4939V11.8814C47.5658 11.8439 47.6901 11.7251 47.945 11.5251C48.1999 11.3251 48.5107 11.1439 48.8836 10.9814C49.2566 10.8126 49.642 10.7314 50.0523 10.7314C51.0593 10.7314 51.7804 11.0251 52.2155 11.6189C52.6507 12.2126 52.8682 13.0814 52.8682 14.2314V15.8376C52.8745 16.3251 52.8931 16.7064 52.9366 16.9689C52.9739 17.2376 53.0485 17.4314 53.1542 17.5564C53.2599 17.6814 53.4215 17.7439 53.6391 17.7439C53.8504 17.7439 54.0431 17.6876 54.2234 17.6001C54.8699 17.2814 55.0688 16.6626 55.1558 16.5626L55.3858 18.1126C55.3858 18.1376 54.7953 19.0314 53.9685 19.4189C53.6266 19.5814 53.2723 19.6876 52.8745 19.6876C51.9731 19.6876 51.3577 19.4001 51.022 18.8251C50.6864 18.2501 50.5185 17.5064 50.5185 16.5876V14.8626C50.5247 14.1126 50.4191 13.5626 50.2139 13.2064Z" fill="#FFFDF6"/>
<path d="M57.4686 15.65C57.4686 16.1437 57.4872 16.5375 57.5245 16.8375C57.5618 17.1375 57.6364 17.3625 57.7483 17.5187C57.8602 17.675 58.0218 17.75 58.2394 17.75C59.3894 17.75 60.2037 16.7812 60.3218 16.6812L60.6513 18.0812C60.3467 18.45 59.2713 19.6875 57.5494 19.6875C56.6481 19.6875 56.0202 19.3937 55.6597 18.8125C55.2991 18.2312 55.1189 17.4875 55.1189 16.5875V16.3625L55.1126 12.7062H54.2051V10.9437H55.1189V8.5875L57.4686 8.125V10.9437H59.4205L59.0164 12.7062H57.4624L57.4686 15.5812V15.65Z" fill="#FFFDF6"/>
<path d="M62.8644 17.4063C63.1877 17.6563 63.6415 17.7813 64.232 17.7813C64.4744 17.7813 64.7044 17.7688 64.922 17.7501C65.3758 17.6938 65.8544 17.5876 66.3642 17.4251C66.8739 17.2626 67.2842 17.1188 67.6074 16.9938L67.9617 18.4313C67.7939 18.5876 67.5017 18.7626 67.0852 18.9626C66.675 19.1626 66.1963 19.3313 65.6617 19.4751C65.1209 19.6188 64.5863 19.6938 64.0455 19.6938C63.0509 19.6938 62.2552 19.5251 61.6647 19.1938C61.0742 18.8626 60.6452 18.3563 60.3779 17.6813C60.1169 17.0063 59.9863 16.1313 59.9863 15.0626C59.9863 14.0751 60.1169 13.2626 60.3842 12.6376C60.6515 12.0063 61.0804 11.5376 61.6834 11.2251C62.2801 10.9126 63.082 10.7563 64.0828 10.7563C65.2142 10.7563 66.1155 11.0063 66.7931 11.5126C67.4644 12.0126 67.8312 12.8001 67.8871 13.8751C67.8996 14.0001 67.9058 14.1876 67.9058 14.4313C67.9058 14.7313 67.8934 15.0063 67.8747 15.2626C67.8561 15.5188 67.8374 15.6813 67.825 15.7438L62.4107 16.0626C62.3858 16.7001 62.5412 17.1563 62.8644 17.4063ZM65.5996 13.9126C65.5996 13.0251 65.0836 12.5813 64.0455 12.5813C63.5296 12.5813 63.138 12.7188 62.8582 13.0001C62.5847 13.2751 62.4231 13.7001 62.3858 14.2688L65.5934 14.1438C65.5934 14.0876 65.5996 14.0126 65.5996 13.9126Z" fill="#FFFDF6"/>
<path d="M73.7422 13.2064C73.5371 12.8501 73.1828 12.6751 72.6731 12.6751C72.3995 12.6751 72.1385 12.7314 71.9085 12.8439C71.6722 12.9564 71.4795 13.0751 71.3241 13.2126C71.1687 13.3439 71.0941 13.4189 71.0941 13.4376V19.4814H68.7568V11.0689L71.0941 10.4939V11.8814C71.0941 11.8439 71.2185 11.7251 71.4733 11.5251C71.7282 11.3251 72.039 11.1439 72.412 10.9814C72.7787 10.8126 73.1704 10.7314 73.5806 10.7314C74.5876 10.7314 75.3087 11.0251 75.7439 11.6189C76.179 12.2126 76.3966 13.0814 76.3966 14.2314V15.8376C76.4028 16.3251 76.4214 16.7064 76.4649 16.9689C76.5022 17.2376 76.5768 17.4314 76.6825 17.5564C76.7882 17.6814 76.9498 17.7439 77.1674 17.7439C77.3787 17.7439 77.5714 17.6939 77.7517 17.6001C77.932 17.5001 78.0625 17.4064 78.1558 17.3064L78.6531 17.5876C78.6531 17.6126 78.4914 18.2189 78.3236 18.4814C78.0252 18.9439 77.3912 19.5126 76.409 19.5126C75.5076 19.5126 74.8922 19.2251 74.5566 18.6501C74.2209 18.0751 74.053 17.5064 74.053 16.5939V14.8689C74.0468 14.1126 73.9412 13.5626 73.7422 13.2064Z" fill="#FFFDF6"/>
<path d="M82.7745 13.2063C82.5693 12.8501 82.215 12.6751 81.7053 12.6751C81.4318 12.6751 81.1707 12.7313 80.9407 12.8438C80.7045 12.9563 80.5118 13.0751 80.3564 13.2126C80.201 13.3438 80.1264 13.4188 80.1264 13.4376V19.4813H77.7891V11.0688L80.1264 10.6626V11.8813C80.1264 11.8438 80.2507 11.7251 80.5055 11.5251C80.7604 11.3251 81.0712 11.1438 81.4442 10.9813C81.811 10.8126 82.2026 10.7313 82.6128 10.7313C83.6199 10.7313 84.341 11.0251 84.7761 11.6188C85.2112 12.2126 85.4288 13.0813 85.4288 14.2313V15.8376C85.435 16.3251 85.4537 16.7063 85.4972 16.9688C85.5345 17.2376 85.6091 17.4313 85.7147 17.5563C85.8204 17.6813 85.982 17.7438 86.1996 17.7438C87.2377 17.7438 87.5299 16.9001 87.6169 16.8001L87.9153 18.1126C87.9153 18.1376 87.4118 19.0251 86.5291 19.4188C86.1872 19.5751 85.8328 19.6876 85.435 19.6876C84.5337 19.6876 83.9183 19.4001 83.5826 18.8251C83.2469 18.2501 83.0791 17.5063 83.0791 16.5876V14.8626C83.0791 14.1126 82.9734 13.5626 82.7745 13.2063Z" fill="#FFFDF6"/>
<path d="M89.9981 16.8313C90.0354 17.1313 90.1099 17.3563 90.2281 17.5126C90.3399 17.6688 90.5078 17.7438 90.7191 17.7438C91.6143 17.7501 92.2856 16.9876 92.3975 16.8876L92.7705 18.1188C92.4659 18.4876 91.4527 19.6876 90.0105 19.6876C89.3454 19.6876 88.8356 19.5251 88.4813 19.1938C88.127 18.8688 87.8845 18.4563 87.7664 17.9626C87.6483 17.4688 87.5862 16.9001 87.5862 16.2626V12.7063H86.7656V10.9438H87.7602L89.9297 10.5376V15.6438C89.9421 16.1438 89.9608 16.5376 89.9981 16.8313Z" fill="#FFFDF6"/>
<path d="M100.012 16.8313C100.049 17.1313 100.124 17.3563 100.242 17.5125C100.354 17.6688 100.522 17.7313 100.733 17.7438C101.529 17.7938 102.026 17.2313 102.138 17.1313L102.529 18.4375C102.219 18.8063 101.839 19.1063 101.386 19.3375C100.932 19.5688 100.478 19.6875 100.024 19.6875C98.9303 19.6875 98.2092 19.2 97.8611 18.2313C97.5876 18.6563 97.2581 18.9938 96.8727 19.2625C96.4811 19.525 96.0336 19.6688 95.5176 19.6938C95.4492 19.7 95.3498 19.7 95.2192 19.7C94.0568 19.7 93.2611 19.2375 92.8446 18.3188C92.4281 17.4 92.2168 16.3438 92.2168 15.1625C92.2168 13.8 92.4717 12.725 92.9814 11.9313C93.4911 11.1375 94.3427 10.7375 95.53 10.7375C95.903 10.7375 96.276 10.825 96.6676 10.9938C97.0592 11.1625 97.3638 11.3563 97.6063 11.575V10.5L99.9498 11.075V15.6562C99.956 16.1437 99.9746 16.5375 100.012 16.8313ZM96.133 12.6813C95.7352 12.6813 95.4181 12.825 95.1881 13.1125C94.9581 13.4 94.7965 13.7438 94.7033 14.1375C94.61 14.5313 94.5665 14.9125 94.5665 15.2875C94.579 15.9312 94.6971 16.4813 94.9208 16.9375C95.1446 17.3938 95.4803 17.6438 95.9279 17.6938L96.046 17.7C96.3506 17.7 96.6427 17.6 96.9349 17.4063C97.2208 17.2125 97.4508 16.975 97.6249 16.6875V13.375C97.1836 12.9125 96.6862 12.6813 96.133 12.6813Z" fill="#FFFDF6"/>
<path d="M104.506 16.825C104.544 17.125 104.618 17.35 104.736 17.5063C104.848 17.6625 105.016 17.7375 105.227 17.7375C106.098 17.7375 106.346 16.9813 106.464 16.8813L107.011 18.4313C106.707 18.7938 106.328 19.0875 105.874 19.3188C105.42 19.55 104.966 19.6625 104.513 19.6625C103.847 19.6625 103.338 19.5 102.983 19.1813C102.629 18.8563 102.387 18.45 102.269 17.9625C102.15 17.475 102.088 16.9063 102.088 16.2688L102.082 7.9938L104.432 7.5813V15.6438C104.444 16.1313 104.463 16.5313 104.506 16.825Z" fill="#FFFDF6"/>
<path d="M107.92 17.4937C108.554 17.6687 109.095 17.7625 109.555 17.7625C110.027 17.7625 110.388 17.7 110.642 17.5812C110.897 17.4625 111.022 17.2625 111.022 16.975C111.022 16.7937 110.935 16.6375 110.761 16.5062C110.587 16.375 110.369 16.275 110.114 16.1937C109.859 16.1125 109.505 16.0187 109.057 15.9125L108.709 15.8312C108.007 15.65 107.466 15.3312 107.081 14.8875C106.695 14.4437 106.502 13.9062 106.502 13.2812C106.502 13.0812 106.515 12.9062 106.546 12.7562C106.67 12.0562 107.056 11.5437 107.702 11.2187C108.349 10.8937 109.144 10.7312 110.108 10.7312C110.705 10.7312 111.252 10.8 111.749 10.9437C112.246 11.0875 112.669 11.2562 113.017 11.45L112.787 13.2625C112.569 13.1562 112.284 13.0562 111.929 12.9562C111.575 12.8562 111.208 12.775 110.841 12.7125C110.506 12.675 110.214 12.6562 109.965 12.6562C109.2 12.6562 108.821 12.8562 108.821 13.25C108.821 13.5187 108.945 13.725 109.2 13.8687C109.455 14.0125 109.847 14.1375 110.388 14.2375C111.332 14.4312 112.078 14.7625 112.632 15.2187C113.185 15.6812 113.458 16.2625 113.458 16.9562C113.458 17.6187 113.291 18.15 112.949 18.5562C112.607 18.9625 112.172 19.25 111.637 19.425C111.102 19.5937 110.518 19.6812 109.884 19.6812C109.592 19.6812 109.306 19.6625 109.032 19.6312C107.945 19.5062 107.025 19.2187 106.272 18.7562L106.478 16.875C106.801 17.1125 107.286 17.3187 107.92 17.4937Z" fill="#FFFDF6"/>
<path d="M88.829 9.95C89.5328 9.95 90.1033 9.4855 90.1033 8.9125C90.1033 8.3395 89.5328 7.875 88.829 7.875C88.1252 7.875 87.5547 8.3395 87.5547 8.9125C87.5547 9.4855 88.1252 9.95 88.829 9.95Z" fill="#FFFDF6"/>
<path d="M21.3708 3.63125V3.625C21.576 3.55625 21.7376 3.38125 21.7376 3.125C21.7376 2.975 21.6816 2.8375 21.5822 2.75C21.4578 2.6375 21.29 2.5875 21.0165 2.5875C20.8424 2.5875 20.6622 2.6 20.5316 2.63125V4.5625H20.7803V3.71875H21.0165C21.2465 3.725 21.346 3.83125 21.4081 4.1C21.4641 4.34375 21.5076 4.5125 21.5387 4.56875H21.7997C21.7562 4.49375 21.7127 4.30625 21.6506 4.03125C21.607 3.825 21.52 3.6875 21.3708 3.63125ZM21.0414 3.525H20.7865V2.8125C20.83 2.8 20.9108 2.7875 21.0351 2.7875C21.3024 2.7875 21.4827 2.9 21.4827 3.15625C21.4827 3.375 21.3149 3.525 21.0414 3.525ZM21.1097 1.6875C20.0343 1.6875 19.1641 2.5625 19.1641 3.64375C19.1641 4.725 20.0343 5.6 21.1097 5.6C22.1851 5.6 23.0554 4.725 23.0554 3.64375C23.0554 2.5625 22.1851 1.6875 21.1097 1.6875ZM22.3157 4.85C22.0049 5.1625 21.5822 5.35 21.1097 5.35C20.6373 5.35 20.2146 5.15625 19.9038 4.85C19.593 4.5375 19.4065 4.1125 19.4065 3.6375C19.4065 3.1625 19.5992 2.7375 19.9038 2.425C20.2146 2.1125 20.6373 1.925 21.1097 1.925C21.5822 1.925 22.0049 2.11875 22.3157 2.425C22.6265 2.7375 22.813 3.1625 22.813 3.6375C22.813 4.1125 22.6203 4.54375 22.3157 4.85Z" fill="#FFFDF6"/>
<path d="M10.1445 10.2125V12.05C10.1445 12.55 9.74047 12.9625 9.23695 12.9625C8.73966 12.9625 8.32939 12.5562 8.32939 12.05V7.8375C8.32939 7.3375 8.73344 6.925 9.23695 6.925H13.4267C13.924 6.925 14.3343 7.33125 14.3343 7.8375C14.3343 8.3375 13.9302 8.75 13.4267 8.75H11.2324L16.5472 14.7C18.1261 13.3437 19.1332 11.3313 19.1332 9.075C19.1332 5 15.8386 1.6875 11.7794 1.6875H3.07668C2.38047 1.6875 1.55371 2.33125 1.55371 3.275V7.625L10.617 17.775V15.9375C10.617 15.4375 11.021 15.025 11.5245 15.025C12.0218 15.025 12.4321 15.4312 12.4321 15.9375V20.15C12.4321 20.65 12.028 21.0625 11.5245 21.0625H7.33479C6.83749 21.0625 6.42722 20.6563 6.42722 20.15C6.42722 19.65 6.83128 19.2375 7.33479 19.2375H9.52912L1.55371 10.3V21.775C1.57858 22.5625 2.17533 23.2062 2.94614 23.2937L3.13263 23.3063H18.3002C19.1705 23.3063 19.8791 22.5937 19.8791 21.7187C19.8791 21.1562 19.5186 20.7125 19.5186 20.7125C19.5061 20.7 10.1445 10.2125 10.1445 10.2125Z" fill="#FFFDF6"/>
</svg>
