<svg width="55" height="24" viewBox="0 0 55 24" fill="none" xmlns="http://www.w3.org/2000/svg">
<g clip-path="url(#clip0_279_5008)">
<path d="M16.4378 1.64239C16.088 1.44082 15.7431 1.24136 15.3484 1.13932C15.1782 1.0953 14.9048 1.08113 14.7545 1.02008L14.7722 0.987779C15.2121 0.942312 16.1741 1.14988 16.5641 1.34612C19.8211 2.45093 22.4624 6.97701 24.0541 9.83975C24.9147 11.3875 25.7651 12.7379 26.8227 14.1616C26.7763 13.6821 26.7787 13.1956 26.7735 12.7139C26.743 9.89365 26.8135 7.07355 26.8008 4.25327C26.7995 3.95409 26.8011 3.64318 26.7418 3.3493C26.6699 2.98895 26.4773 2.66441 26.1964 2.42995C26.0832 2.33547 25.9611 2.25252 25.8317 2.1823C26.3145 2.2107 26.8587 2.19062 27.347 2.18913C27.7458 2.18792 28.1964 2.20567 28.5896 2.18974C27.2844 3.09921 27.4971 3.44325 27.4987 4.95427L27.5024 7.64033L27.5027 12.1171C27.503 12.9701 27.4936 13.8278 27.5258 14.6806C27.5374 14.9893 27.5999 15.0911 27.8019 15.3146C29.3987 17.0822 32.3496 18.6037 34.5195 16.9218C35.236 16.3664 35.7946 15.4426 35.945 14.5392C36.1679 13.1288 35.5637 11.7051 34.7346 10.5983C33.3937 8.70163 29.7876 7.01789 30.1405 4.34175C30.2264 3.69015 30.6695 2.93419 31.1948 2.56485C32.1006 1.92785 33.3379 1.86679 34.3868 2.02631C34.9616 2.11325 35.5295 2.24058 36.0865 2.40737C36.0871 2.99293 36.1059 3.47869 35.9547 4.04996C35.5185 2.27148 32.2996 1.8624 31.3785 3.41638C30.706 4.55104 31.5367 5.50957 32.2685 6.30961C34.0219 8.22585 35.9453 9.13038 36.7909 11.7907C37.7583 14.8336 36.5549 17.3686 33.4233 18.2248C31.7604 18.6579 30.199 18.223 28.751 17.3641C24.875 15.0668 22.91 10.5217 20.5965 6.84151C20.2778 6.33448 19.6718 5.22777 19.3374 4.79994L19.3348 13.2377L19.3349 15.6166C19.3345 16.356 19.198 17.1353 19.7659 17.6847C20.1274 18.0344 20.2601 17.9916 20.6976 18.094C19.8284 18.1762 18.6992 18.134 17.8058 18.1401C17.2937 18.1435 16.2125 18.165 15.7367 18.113C16.245 17.8534 16.6754 17.5655 16.4695 16.9011C16.3392 16.4807 16.189 16.0663 16.049 15.6491L14.9182 12.3478L13.0656 6.91554L12.5199 5.30689C12.4442 5.07852 12.3745 4.80762 12.2894 4.58819C12.1341 4.86769 12.0224 5.18369 11.9256 5.48861C11.5583 6.64618 11.1238 7.782 10.8013 8.9534C10.7753 9.04767 10.7486 9.14629 10.7169 9.23864C11.2963 8.85691 11.5463 8.75282 12.2747 8.73418C12.4812 8.72888 12.7486 8.7355 12.9523 8.77238C12.6348 8.89817 12.2897 9.02115 11.9919 9.17792C10.9624 9.71999 10.1415 10.6204 9.46167 11.5533C9.4133 11.6196 9.36437 11.6936 9.31348 11.7579C9.47767 11.2415 9.6818 10.728 9.86162 10.2154C10.1813 9.28918 10.4907 8.35943 10.7896 7.42627L11.7434 4.43477C11.9444 3.80344 12.3491 2.52388 12.6429 1.9701C13.1566 3.9581 13.9848 6.12594 14.6392 8.09917L16.4699 13.4628L17.207 15.5827C17.4924 16.3821 17.6634 16.9816 18.144 17.6935C18.336 17.3155 18.6008 16.9127 18.6415 16.4819C18.6851 16.0204 18.6567 15.4899 18.6511 15.0222C18.6449 14.2704 18.6437 13.5186 18.6473 12.7668C18.6603 10.4194 18.8186 8.05596 18.7298 5.70333C18.714 5.28613 18.7076 4.1968 18.5737 3.823C18.4104 3.36724 17.452 2.42736 17.0524 2.08041C16.8667 1.91911 16.565 1.75083 16.4378 1.64239Z" fill="white"/>
<path d="M16.4382 1.64239C16.0884 1.44082 15.7435 1.24136 15.3488 1.13932C15.1786 1.0953 14.9052 1.08113 14.7549 1.02008L14.7726 0.987779C15.2126 0.942312 16.1745 1.14988 16.5645 1.34612L16.5507 1.3907C16.3665 1.33675 15.842 1.13051 15.7271 1.18385L15.7313 1.20899C16.0838 1.35256 16.1509 1.38185 16.468 1.58146L16.4773 1.6217L16.4382 1.64239Z" fill="white"/>
<path d="M45.7328 3.74008C46.5488 1.50989 49.6586 1.7666 51.477 2.40805C51.4987 2.82393 51.4452 3.53176 51.4457 3.99399C51.1726 3.39617 50.7433 2.99456 50.1469 2.73031C49.4672 2.42927 48.4689 2.34084 47.768 2.61899C47.2924 2.80774 46.9091 3.13656 46.7055 3.61313C46.5432 3.99371 46.5178 4.39543 46.6508 4.78891C47.1358 6.22179 50.0137 8.60128 51.1352 9.79086C52.1376 10.8542 53.0881 11.9874 53.6303 13.3651C54.2453 14.928 54.1441 16.692 53.4848 18.2225C52.6284 20.2108 51.0227 21.608 49.0414 22.3954C46.8554 23.2745 44.4114 23.2364 42.2533 22.2899C37.7427 20.3076 36.0447 15.4806 38.8442 11.3006C39.0649 10.9714 39.4653 10.553 39.5883 10.1942C40.1915 8.43141 40.7474 6.65124 41.3637 4.89242C41.6931 3.95837 41.9727 2.91937 42.3637 2.0184C42.7456 3.35588 43.2396 4.74295 43.6889 6.06527L44.8246 9.5018C45.4206 11.3269 46.0456 13.1427 46.7006 14.9471C46.9433 15.605 47.1871 16.2821 47.4526 16.9315C47.7592 17.6822 48.0801 17.8269 48.7797 18.1024C48.3235 18.1602 47.6005 18.1411 47.1176 18.1405C46.6177 18.1398 45.8986 18.1599 45.4233 18.1004C46.7194 17.7197 46.1221 16.6745 45.8334 15.7762C45.4671 14.6658 45.0914 13.5586 44.7055 12.4549C44.2482 11.1232 43.8231 9.77947 43.3403 8.45688C43.3041 8.35759 43.2873 8.21639 43.1899 8.1766C43.1273 8.19773 42.7734 8.32144 42.7328 8.32602C39.0707 10.3593 37.7369 16.503 40.3793 19.8368C42.3927 22.377 45.7569 23.0591 48.6615 21.7245C50.9808 20.6586 52.8383 17.9046 52.4809 15.2967C52.0794 12.372 49.1255 10.1353 47.309 8.05453C46.2238 6.81948 45.0539 5.51162 45.7328 3.74008ZM42.0629 4.5643C41.7245 5.22824 41.3766 6.43463 41.1274 7.16586C40.9354 7.71603 40.7498 8.26854 40.5707 8.82309C40.4988 9.04458 40.3653 9.42112 40.3207 9.63363C40.8839 9.15078 41.9249 8.48063 42.6244 8.25766C42.7744 8.20725 42.9697 8.13436 43.1215 8.1141L43.1742 8.06332C43.0957 7.70334 42.7482 6.83882 42.6137 6.45395C42.3741 5.76861 42.2428 5.26384 42.0629 4.5643Z" fill="white"/>
<path d="M2.12682 2.12008C2.31666 2.11611 2.52393 2.12729 2.7159 2.12982C3.65055 2.14214 4.59224 2.10989 5.52613 2.13433C5.25283 2.23127 5.04875 2.3345 4.8345 2.52587C4.68013 2.66136 4.30972 3.11799 4.29495 3.32441C4.18264 4.8938 4.31476 6.58259 4.23874 8.14865C4.7792 7.58359 5.28922 6.97755 5.79754 6.38315C6.42265 5.65217 8.21743 3.64104 8.28089 2.72998C8.29851 2.47721 8.15794 2.29229 8.00105 2.1145C8.57364 2.16981 9.44821 2.11821 10.0664 2.13492C9.78463 2.31572 9.4086 2.54276 9.18557 2.78919C8.4313 3.62261 7.78358 4.54619 7.08781 5.42445C6.57632 6.05852 6.07227 6.69864 5.57579 7.3447C5.35439 7.62758 4.8985 8.18034 4.74926 8.46818C5.63283 9.06152 6.51589 9.92222 7.22831 10.7125C7.83458 11.3923 8.41334 12.0966 8.96315 12.8236C11.5733 16.3139 14.141 20.7741 18.6157 21.958C21.8149 22.8045 25.1124 22.0252 27.8953 20.3596C27.5469 20.7694 26.703 21.2864 26.2418 21.5686C24.6729 22.5674 22.3313 23.1099 20.4936 22.9913C17.9728 22.8285 15.7679 21.8261 13.7477 20.3534C10.7484 18.167 8.88873 15.098 6.72456 12.1728C6.25537 11.5372 5.77092 10.9132 5.27162 10.3013C4.91721 9.86737 4.62755 9.49455 4.21191 9.11664L4.21239 15.3995C4.21242 16.1105 4.22211 16.8384 4.21424 17.5479C4.20474 18.4077 4.47093 18.8668 5.22173 19.304C4.52147 19.2945 3.82113 19.2904 3.12082 19.2917C2.71157 19.2915 2.17583 19.2733 1.78094 19.329C2.53676 18.9083 2.9442 18.5654 3.03 17.6287C3.08 17.0828 3.06112 16.5524 3.06126 16.0052L3.06153 13.1808L3.06078 9.92576C3.06053 9.35829 3.08374 8.54478 3.0286 8.00368C2.51826 7.54489 1.62525 7.29948 0.986328 7.02682C1.60697 7.12834 2.38581 7.34304 3.00161 7.51053C2.94113 6.12343 3.05677 4.67404 2.95373 3.28683C2.91667 2.78818 2.43561 2.45881 2.13317 2.13067C2.13106 2.12714 2.12894 2.12361 2.12682 2.12008Z" fill="white"/>
</g>
<defs>
<clipPath id="clip0_279_5008">
<rect width="55" height="24" fill="white"/>
</clipPath>
</defs>
</svg>
