<svg width="88" height="24" viewBox="0 0 88 24" fill="none" xmlns="http://www.w3.org/2000/svg">
<path d="M53.9155 8.00439C55.6122 7.98104 56.9522 8.25314 58.2905 9.38721C61.1217 11.7862 60.6622 16.7725 57.3765 18.5024C55.8568 19.2882 54.0871 19.4377 52.4575 18.9175C51.2246 18.5329 50.2394 17.8648 49.4907 16.7749C49.3176 16.5228 49.0231 15.8245 48.8599 15.5122C48.7631 16.0598 48.602 16.6762 48.2915 17.144C46.6118 19.676 42.7673 19.9646 40.3452 18.3628C39.1598 17.5786 38.341 16.3502 38.0728 14.9556C37.7234 13.2252 38.0965 11.7474 39.064 10.2964C39.1858 10.144 39.4308 9.90243 39.5747 9.76709C40.7596 8.6539 42.3397 8.05655 43.9653 8.10791C46.0496 8.17368 48.6617 9.49729 48.5776 11.8931C48.5296 13.239 47.6025 13.3458 46.5083 13.2993C44.8594 12.2612 45.6456 10.7876 44.6382 9.48584C43.8924 8.52166 42.3548 9.07245 42.0874 10.2183C41.9673 10.7337 41.8157 11.0112 41.7534 11.5913C41.5952 13.0644 41.6579 14.6002 42.5825 15.8315C43.7414 17.3079 46.0138 17.2075 47.355 16.0552C47.6815 15.7754 47.9633 15.4584 48.2876 15.1792C48.4539 15.0362 48.5072 15.0605 48.6997 15.0864C48.758 14.964 48.5929 14.0947 48.5962 13.8687C48.6215 12.339 48.9084 11.055 49.9399 9.89795C50.9167 8.80264 52.4848 8.08103 53.9155 8.00439ZM53.9858 8.8208C53.6934 8.88351 53.1355 9.11274 52.9985 9.3999C52.1312 11.2233 52.1186 18.0227 54.769 18.4888C55.2295 18.3463 55.5558 18.2316 55.8042 17.7603C56.7396 15.9833 56.4755 9.99021 54.5483 8.98682C54.373 8.89761 54.1815 8.84095 53.9858 8.8208Z" fill="#A7A7A7"/>
<path d="M31.3599 8.22241C34.4957 7.8203 37.3646 10.0329 37.7681 13.1648C38.1713 16.2967 35.9565 19.1626 32.8208 19.5662C29.6841 19.9698 26.8141 17.7567 26.4106 14.6238C26.0073 11.4909 28.223 8.62469 31.3599 8.22241ZM32.2437 9.198C31.8937 9.07788 31.7572 9.11099 31.3999 9.14233C29.4147 10.038 30.1995 15.5721 30.8521 17.2488C31.1023 17.8916 31.8721 18.9166 32.6841 18.6619C33.0041 18.5429 33.4754 18.3739 33.6069 17.9968C34.3085 15.9833 34.0657 12.9511 33.5005 10.9314C33.3559 10.4148 32.7256 9.36395 32.2437 9.198Z" fill="#A7A7A7"/>
<path d="M18.5779 5.03762C18.877 4.99151 18.9724 4.95747 19.2217 5.10657C19.4254 5.3428 19.3437 6.3735 19.3509 6.74125L19.4173 10.1667C20.0586 9.43145 20.4577 9.05551 21.3998 8.73326C22.3866 8.39504 23.6566 8.29891 24.6269 8.80364C26.8128 9.94068 25.9795 13.2569 26.171 15.2824C26.285 16.4887 26.0346 17.0417 26.4552 18.2997C26.766 18.4899 27.0115 18.5919 27.0175 18.995C26.8219 19.3605 26.334 19.3829 25.9657 19.3442C25.1272 19.2561 22.4065 19.5335 21.7877 19.2557C21.4237 18.7594 22.2425 18.3294 22.4114 17.9022C22.5771 17.483 22.4487 12.8059 22.4319 11.9762C22.2581 10.0693 20.5214 9.70165 19.6008 11.3253C19.3479 11.7712 19.4647 13.9077 19.4827 14.5352C19.512 15.5585 19.3614 17.275 19.6946 18.2092C19.9253 18.4461 20.3603 18.6035 20.3909 18.9617C20.3321 19.2135 20.1637 19.4015 19.8966 19.4C18.3893 19.3914 16.8718 19.4879 15.3672 19.4164C15.1935 19.4081 15.0983 19.379 15.0213 19.2145C14.8158 18.7754 15.415 18.5015 15.701 18.2651C15.9688 17.3101 15.8265 15.9148 15.8169 14.9043C15.7937 12.462 15.8082 9.99837 15.6834 7.55967C15.6559 7.02173 14.6044 6.29203 14.9547 5.67542C15.0135 5.57199 15.1344 5.54026 15.2441 5.51583C16.3631 5.39693 17.4635 5.19013 18.5779 5.03762Z" fill="#A7A7A7"/>
<path d="M8.92524 4.98584C10.6024 4.93621 12.6966 5.51708 13.8714 6.77368C14.6798 7.63821 15.1242 8.51629 15.0717 9.72074C15.0134 11.0598 14.1492 11.258 13.0019 11.2205C11.7356 10.3532 11.8515 9.75549 11.5311 8.42384C11.1412 6.8036 9.92501 5.27877 8.06234 5.91355C5.47022 6.83884 5.14729 11.1088 5.75978 13.3349C6.61306 16.4362 9.067 17.4909 12.0471 16.5955C12.8336 16.3909 13.541 15.9566 14.0789 15.3482C14.2796 15.1222 14.8187 14.3811 15.1159 14.396C15.1995 14.469 15.2523 14.5718 15.2396 14.6842C14.5202 21.0517 5.10376 21.2334 2.64394 15.981C2.58348 15.8519 2.49487 15.7136 2.45288 15.5837C0.729104 10.2568 2.95702 5.29041 8.92524 4.98584Z" fill="#A7A7A7"/>
<path d="M70.6504 7.86499C72.0223 7.92801 73.2681 8.38116 74.208 9.39429C74.9093 10.1514 75.8564 12.725 74.3066 13.1433C73.9184 13.2479 73.0455 13.1503 72.6064 13.2009C71.1659 13.2253 69.6489 13.3066 68.21 13.2117C68.3452 14.8577 68.5462 15.2605 69.6904 16.3757C73.7436 17.4607 74.306 14.7538 75.0811 14.8396C75.2123 14.953 75.2254 15.0238 75.2754 15.1843C74.9775 17.4522 73.1904 18.7775 70.998 18.9744C69.5173 19.1112 67.755 18.7952 66.5908 17.8171C66.3012 17.574 65.8824 17.2446 65.6807 16.9324C63.1105 12.9556 65.1102 8.40276 69.7393 7.89331C70.0414 7.8628 70.346 7.8531 70.6504 7.86499ZM70.0713 8.64917C68.4027 9.05406 68.1797 11.1147 68.1582 12.5642C68.7073 12.5363 69.3911 12.4849 69.9297 12.4822C71.003 12.4703 71.9761 12.6633 71.9258 11.1921C71.9016 10.4892 71.6764 9.56362 71.1533 9.06909C70.8637 8.7901 70.4736 8.63857 70.0713 8.64917Z" fill="#A7A7A7"/>
<path d="M63.3616 4.54505C63.4084 4.54131 63.4551 4.53807 63.5018 4.53538C63.753 4.52045 63.8343 4.51513 64.0086 4.66933C64.2785 5.46787 64.1042 8.83599 64.1603 9.91555C64.2922 12.4426 64.1608 15.0429 64.2708 17.5799C64.5659 17.9431 64.943 18.0254 65.0507 18.4158C65.0144 18.6752 65.0007 18.6239 64.821 18.8574C63.4957 18.8125 61.7522 18.8881 60.4039 18.9057C60.1258 18.9102 59.912 18.9516 59.7377 18.7015C59.6454 18.3106 60.2951 17.6855 60.4457 17.2946C60.5765 16.9565 60.4325 7.68282 60.3149 6.95872C60.2297 6.43511 59.8416 6.03848 59.6394 5.56466C59.5789 5.42308 59.552 5.28814 59.6113 5.14107C59.9681 4.75119 61.1355 4.84852 61.6549 4.78105C62.2205 4.70765 62.7971 4.61059 63.3616 4.54505Z" fill="#A7A7A7"/>
<path d="M83.5671 4.63809C83.7826 4.62887 83.9579 4.61629 84.1173 4.76199C84.2904 5.03615 84.2234 7.48545 84.2261 7.97706C85.2688 7.99358 86.3033 7.93995 87.3487 7.93479L87.3471 8.58801C86.3099 8.63248 85.2716 8.64917 84.2338 8.63814C84.1679 10.7112 84.23 12.9459 84.2481 15.0266C84.2536 15.669 84.5147 16.2287 85.1369 16.4456C86.0862 16.7766 87.1849 15.0822 87.695 15.1973L87.7494 15.3002C87.7588 15.8736 87.3201 16.9227 86.9392 17.3644C85.6338 18.6202 84.4586 19.1945 82.5871 18.6729C80.2983 18.0348 80.6077 15.5379 80.5913 13.6776L80.5533 10.2775C80.5528 9.86905 80.6303 9.23328 80.4467 8.88506C80.3428 8.68903 80.0746 8.64192 79.863 8.58379C79.7915 8.42513 79.8184 8.4466 79.8624 8.25698C80.146 7.89971 80.9705 7.1749 81.3283 6.84365C81.9753 6.24367 82.8366 5.02693 83.5671 4.63809Z" fill="#A7A7A7"/>
<path d="M78.8571 9.03729C79.0423 9.01659 79.4194 9.02455 79.6194 9.02285C79.6293 9.55739 79.5562 10.1471 79.5645 10.6895C79.5837 11.9748 79.6008 13.2549 79.6052 14.5404C79.6085 15.3574 79.5782 16.4081 79.6777 17.1974C79.9305 17.5877 80.594 18.0289 80.4219 18.5166C80.0421 18.6994 76.5452 18.6593 75.8191 18.6653C75.4833 18.6584 75.3206 18.6929 75.1002 18.4643C75.0529 18.004 75.6377 17.7673 75.8142 17.3744C76.0088 16.9408 75.8999 11.7431 75.7262 11.0999C75.5987 10.6255 75.1656 10.4433 75.0199 10.0301C74.9716 9.89341 74.9941 9.84598 75.054 9.72208C75.4948 9.45725 76.698 9.47433 77.2675 9.36975C77.8166 9.26868 78.308 9.16333 78.8571 9.03729Z" fill="#A7A7A7"/>
<path d="M77.3869 4.38969C78.4593 4.29428 79.408 5.07942 79.5135 6.14937C79.6196 7.21927 78.8424 8.17443 77.7722 8.28998C76.6872 8.40708 75.7154 7.61815 75.6082 6.53393C75.5015 5.44965 76.3002 4.48636 77.3869 4.38969Z" fill="#A7A7A7"/>
</svg>
