<svg width="67" height="24" viewBox="0 0 67 24" fill="none" xmlns="http://www.w3.org/2000/svg">
<path d="M31.6501 8.12056C31.7931 8.09832 32.1538 8.15859 32.3105 8.18304C32.5522 8.5343 32.7068 9.23586 32.8524 9.65433C33.1095 10.3939 33.3327 11.245 33.6221 11.9667C33.7994 10.8294 33.6658 9.33928 33.8166 8.19132C34.4753 8.12734 35.2765 8.18936 35.9386 8.23228C35.9862 10.8086 35.7512 13.4784 35.8822 16.0343C34.9125 16.0217 33.9221 16.0316 32.9513 16.0327L32.2283 13.2559L32.1858 13.1519C32.0095 13.193 31.687 15.8376 31.1408 15.9194C30.8001 15.9704 30.3642 15.9741 30.0177 15.9896C29.3448 16.0233 28.6716 16.0504 27.9982 16.0709C27.9647 14.6463 28.0352 13.0621 28.0495 11.6279C28.0523 10.8615 28.0644 10.0951 28.0858 9.32894C28.0945 9.02568 28.0986 8.47828 28.1468 8.19198C28.5924 8.19298 29.074 8.17419 29.522 8.1646C29.6118 8.53596 29.5767 8.86372 29.5822 9.23043C29.5942 10.0388 29.4427 11.163 29.5964 11.9327C29.8023 11.4872 29.8989 10.9812 30.01 10.504C30.1969 9.70047 30.3408 8.94413 30.6314 8.16859C30.9542 8.16517 31.3244 8.13742 31.6501 8.12056Z" fill="#A7A7A7"/>
<path d="M37.157 7.95111C37.7728 7.90633 38.5125 7.91202 39.1193 8.01179C39.2704 8.72587 39.0487 9.57653 39.1842 10.173C39.7731 10.1805 41.8494 10.0705 42.2265 10.367C42.4785 10.5654 42.5392 11.0614 42.5667 11.3577C42.6229 11.9579 42.7056 15.4375 42.4284 15.7123C42.1797 15.959 40.6376 15.8898 40.2596 15.8506C40.2038 15.4956 40.1695 15.2245 40.1417 14.8656L40.1 13.2361C40.0921 12.9371 40.108 12.611 40.0527 12.318C40.0274 12.1836 39.9744 12.0305 39.8791 11.9309C39.829 11.8783 39.7649 11.8419 39.6914 11.8416C39.6016 11.8412 39.5247 11.8704 39.4612 11.9342C39.2871 12.1095 39.3206 14.2885 39.3144 14.6118C39.0186 14.6395 36.8817 14.6521 36.658 14.5953C36.548 14.3841 36.3033 8.36643 36.3696 8.04075C36.4904 7.9306 36.9628 7.95608 37.157 7.95111Z" fill="#A7A7A7"/>
<path d="M46.7287 8.35133L47.0939 8.34943C47.6992 8.34805 49.3735 8.26006 49.3687 9.14772C49.3653 9.79217 49.3122 10.4568 49.3083 11.1108C49.304 11.8302 49.3624 12.5495 49.3468 13.2656C49.3219 13.3046 49.2955 13.3426 49.2677 13.3797C48.9862 13.7522 48.1951 13.8589 47.754 13.9184C47.2898 13.981 43.5064 14.2104 43.2144 13.9338C42.9856 13.717 43.0797 12.1879 43.0828 11.8069C43.084 11.762 43.0854 11.717 43.0871 11.6721C43.0979 11.3824 43.0689 10.8643 43.2997 10.6563C43.9113 10.105 47.1948 10.4653 48.0959 10.503C48.1296 10.2967 48.1849 9.94517 48.0571 9.76467C47.8796 9.51405 44.2087 9.8167 43.5047 9.68096C43.4426 9.66901 43.3848 9.65651 43.3488 9.59958C43.2178 9.39153 43.3377 8.82186 43.3854 8.58158C44.2155 8.42992 45.8878 8.37408 46.7287 8.35133ZM45.7871 11.874C45.7432 12.0932 45.5753 12.6181 45.8869 12.6786C45.9246 12.6859 45.97 12.6925 46.0086 12.6979C46.3221 12.7085 47.4982 12.6741 47.7066 12.5214C47.8246 12.3275 47.7727 11.9366 47.6573 11.7519C47.5921 11.7239 47.5751 11.7295 47.5079 11.7394C47.1021 11.7681 46.1549 11.8099 45.7871 11.874Z" fill="#A7A7A7"/>
<path d="M50.165 8.08899C50.2254 8.08293 50.3062 8.08054 50.368 8.08115C51.1347 8.0885 51.9206 8.06896 52.685 8.1122C52.7947 9.26272 52.801 10.7837 52.8132 11.9482C53.2515 11.5822 54.1151 10.7345 54.5299 10.4494C54.9033 10.7413 55.3357 11.2141 55.6 11.6111C55.3122 12.064 54.6017 12.5776 54.2112 13.0587C54.4945 13.4688 54.8475 13.9052 55.1574 14.3035C55.7962 15.1109 56.4038 15.5858 54.9671 15.9193C54.6791 15.9861 54.5308 15.9892 54.2393 15.9572C54.1911 15.8921 54.1491 15.8101 54.1052 15.7408C53.7085 15.1163 53.2282 14.5246 52.7791 13.938C52.6929 14.1961 52.556 14.2471 52.2824 14.213C51.8177 14.1551 50.4304 14.288 50.0573 14.0865C50.0142 14.007 49.9971 13.8513 49.9952 13.761C49.9586 12.1001 49.9368 10.4375 49.9231 8.77607C49.9214 8.58411 49.9266 8.33757 49.9526 8.1486C50.0201 8.08476 50.059 8.10022 50.165 8.08899Z" fill="#A7A7A7"/>
<path d="M43.5673 14.6973C46.4877 14.8093 49.4361 14.7161 52.3596 14.7337C52.5288 14.7348 52.8308 14.7129 52.8747 14.8997C53 15.4352 52.6816 15.5677 52.2753 15.6927C51.6476 15.901 50.1024 15.891 49.4058 15.8917C47.3621 15.8895 45.319 15.8203 43.2796 15.6845C43.2314 15.4412 43.0558 15.0004 43.2172 14.7912C43.2886 14.6988 43.4568 14.7033 43.5673 14.6973Z" fill="#A7A7A7"/>
<path d="M56.6985 14.5567C57.2749 14.5275 57.9446 14.5429 58.5301 14.5429C59.7943 14.5404 61.0586 14.5612 62.322 14.6051C62.3971 15.1607 62.3926 15.4889 61.8252 15.7328C60.8218 16.0716 57.5131 15.7694 56.3656 15.6566C56.2825 15.2156 56.2655 15.0158 56.3083 14.5718L56.6985 14.5567Z" fill="#A7A7A7"/>
<path d="M32.5859 17.8918C33.211 17.9226 33.8903 17.8188 34.4931 17.9951C35.1619 18.1905 35.4018 18.8792 35.2016 19.5136C35.0942 19.8533 34.8345 20.0258 34.5345 20.1746C34.8002 20.5482 35.0868 20.9374 35.3343 21.3214L34.9391 21.3222L34.8486 21.3172C34.7213 21.2499 34.1968 20.4443 34.0806 20.2734L33.0443 20.2756L33.0451 21.2634L32.586 21.2647L32.5859 17.8918ZM34.5521 19.5903C34.7296 19.36 34.7746 19.187 34.7375 18.896C34.6422 18.1494 33.5617 18.2926 33.044 18.3008L33.0451 19.8045C33.5526 19.8128 34.1461 19.8955 34.5521 19.5903Z" fill="#A7A7A7"/>
<path d="M29.4753 17.8945L29.8961 17.8983C30.4097 18.9654 30.961 20.2325 31.439 21.3223L30.9644 21.3226L30.5492 20.3909L29.9132 20.391L28.822 20.3905L28.4098 21.3216L27.9341 21.3223C28.3991 20.213 28.9768 19.0049 29.4753 17.8945ZM29.0035 19.9819L29.7148 19.9844L30.3668 19.9832C30.2414 19.6929 29.8265 18.6838 29.683 18.4404C29.4605 18.9437 29.2137 19.4763 29.0035 19.9819Z" fill="#A7A7A7"/>
<path d="M60.3614 17.894L60.7833 17.8968C60.9518 18.2142 61.1777 18.7554 61.3337 19.101L62.3317 21.3222L61.8534 21.3223C61.7181 21.0098 61.5795 20.6988 61.438 20.3892L60.8466 20.3908L59.7096 20.3881L59.3033 21.3214L58.8193 21.3221C58.9242 21.1187 59.0291 20.8699 59.1221 20.6577C59.5273 19.7357 59.9707 18.8215 60.3614 17.894ZM59.8945 19.981L60.6197 19.9842L61.2631 19.9834C61.1811 19.7952 60.6453 18.5443 60.5684 18.4445L59.8945 19.981Z" fill="#A7A7A7"/>
<path d="M47.2138 17.8892C47.3119 17.9008 47.5461 17.8951 47.6542 17.8953C47.6729 19.0193 47.6564 20.1934 47.657 21.3216L47.2833 21.322L45.3028 18.7407C45.2912 19.505 45.3128 20.2698 45.3045 21.0341C45.3034 21.1304 45.3028 21.2257 45.2898 21.3213L44.7888 21.3229L44.7871 17.8927L45.1781 17.9023C45.7925 18.7463 46.5674 19.6027 47.1974 20.4574L47.1934 18.7731C47.1931 18.5739 47.1815 18.0532 47.2138 17.8892Z" fill="#A7A7A7"/>
<path d="M57.2303 17.8942L57.6916 17.8933C57.6854 18.2868 57.7305 21.2167 57.6545 21.323C57.6083 21.3242 57.3727 21.3306 57.3497 21.3029C56.6579 20.4655 56.0012 19.5835 55.3383 18.7203L55.344 21.3227L54.8779 21.3227L54.8765 17.8928L55.2581 17.9031L57.232 20.4354L57.2303 17.8942Z" fill="#A7A7A7"/>
<path d="M40.9502 17.8931C41.6862 17.9168 42.57 17.9022 43.3086 17.8928V18.3068C42.6809 18.2991 42.0398 18.3062 41.4109 18.3065L41.4106 19.3408L43.1373 19.3395L43.1371 19.7498C42.5915 19.7355 41.9947 19.7478 41.4452 19.7479L41.4177 19.774C41.3925 20.0552 41.4092 20.5608 41.4106 20.8585C42.0815 20.8616 42.7523 20.8609 43.4228 20.8563V21.3232L40.953 21.3226L40.9502 17.8931Z" fill="#A7A7A7"/>
<path d="M37.8749 17.8839C38.4587 17.7693 39.0207 17.9907 39.4397 18.3946L39.1397 18.704C38.4139 18.0263 37.1913 18.2033 36.888 19.1765C36.7799 19.5222 36.8125 19.8972 36.9778 20.2187C37.1375 20.5204 37.4088 20.7453 37.7323 20.8439C38.1653 20.9755 38.5557 20.8879 38.9433 20.6777L38.9416 20.1586L38.9399 19.5139L39.4043 19.5128C39.3952 19.9566 39.4029 20.4322 39.4031 20.8785C38.7153 21.4003 37.7646 21.5127 37.047 20.9823C36.6892 20.7153 36.4513 20.3146 36.3864 19.8692C36.2313 18.8379 36.8709 18.0333 37.8749 17.8839Z" fill="#A7A7A7"/>
<path d="M48.8086 17.8904C49.6172 17.9303 50.7374 17.9005 51.5605 17.8937L51.5617 18.3064L50.4046 18.306C50.4233 18.88 50.4074 19.5484 50.4077 20.1299L50.4103 21.3223L49.9444 21.3226L49.943 18.3058L48.8086 18.3051V17.8904Z" fill="#A7A7A7"/>
<path d="M52.7549 17.8921C52.8952 17.8998 53.0838 17.894 53.2281 17.8938L53.2298 21.322L52.7555 21.3228L52.7549 17.8921Z" fill="#A7A7A7"/>
<path d="M14.6032 1.5H15.0315C15.2371 1.54162 15.6281 1.54697 15.8572 1.56633C16.2488 1.602 16.6377 1.66416 17.0211 1.75239C19.6479 2.34099 21.9485 3.93552 23.4421 6.20271C24.9687 8.50599 25.5227 11.3322 24.9807 14.0518C24.4336 16.7889 22.8356 19.1937 20.5384 20.7369C19.2537 21.5955 17.798 22.1566 16.2749 22.3802C15.9854 22.4252 15.188 22.459 15.0126 22.5H14.5975C14.5109 22.4798 14.1875 22.4637 14.0815 22.4545C13.78 22.429 13.4795 22.3924 13.1807 22.3447C11.6009 22.0851 10.1016 21.4598 8.79914 20.5174C6.75861 19.0512 5.31686 16.8803 4.7449 14.4128C4.56603 13.6285 4.58143 13.1864 4.4668 12.4888V11.4533C4.52233 11.2003 4.5665 10.4595 4.62602 10.0988C4.86891 8.6352 5.42112 7.24211 6.24483 6.01491C7.72885 3.82095 9.99291 2.29362 12.5631 1.75264C12.9968 1.66107 13.4355 1.59677 13.877 1.56011C14.0823 1.54185 14.4196 1.53548 14.6032 1.5ZM6.27403 8.48924C5.61017 9.82666 5.49705 11.8829 5.67921 13.3552C5.80873 12.881 5.97735 12.513 6.42361 12.255C6.77005 12.0593 7.17846 12.009 7.56106 12.1152C7.94915 12.2233 8.27816 12.4848 8.47425 12.8409C8.6633 13.184 8.71051 13.5891 8.60555 13.9674C8.4876 14.3847 8.26234 14.6091 7.93739 14.8607C8.08244 15.2331 8.22627 15.5964 8.31876 15.9866C8.41218 16.3808 8.55945 16.7966 8.17986 17.0952C7.89789 17.3169 7.60883 17.3601 7.2649 17.373C8.75364 19.452 10.8226 20.7938 13.3341 21.1968C14.0318 21.3152 14.7411 21.3475 15.4464 21.293C17.9081 21.1264 20.1988 19.9585 21.7977 18.0546C21.978 17.8437 22.1631 17.6155 22.3077 17.3781C21.7376 17.3284 21.4717 17.2582 21.1277 16.7641C21.2648 15.9629 21.3749 15.6127 21.6485 14.8601C21.2582 14.5443 21.0049 14.2564 20.9447 13.7235C20.9001 13.3289 21.0138 12.9327 21.2601 12.6237C21.5145 12.3076 21.883 12.1076 22.2837 12.068C22.6829 12.0229 23.083 12.1441 23.3923 12.4037C23.6943 12.6532 23.8288 12.9329 23.946 13.2988C24.1228 11.9022 24.0414 10.5846 23.6258 9.23415C23.576 9.07215 23.4366 8.64801 23.3668 8.50113C21.2573 7.10387 16.6616 6.17455 14.1562 6.36944C11.7609 6.48746 8.29792 7.18525 6.27403 8.48924ZM22.6808 13.0522C23.1808 13.3636 23.0585 13.8399 22.6038 14.1099L22.7974 14.4611C23.6159 14.0275 23.5798 12.9029 22.725 12.6434C22.6194 12.6116 22.5095 12.5967 22.3994 12.5994C22.1035 12.6321 21.8826 12.713 21.6894 12.9597C21.5374 13.1575 21.4687 13.408 21.4982 13.6568C21.5301 13.9358 21.6677 14.1673 21.8839 14.3393C21.9041 14.3554 21.9244 14.3711 21.9451 14.3866C22.0235 14.2867 22.1026 14.1833 22.1823 14.0847C21.6125 13.528 22.0029 12.8296 22.6808 13.0522ZM22.0921 16.1079C21.8351 16.1543 21.6641 16.4032 21.7104 16.6635C21.7566 16.9237 22.0024 17.0966 22.2592 17.0495C22.5155 17.0023 22.6858 16.7538 22.6396 16.4941C22.5935 16.2344 22.3485 16.0615 22.0921 16.1079ZM7.02336 14.1122C6.9289 14.0523 6.80739 13.9842 6.74764 13.8897C6.504 13.5044 6.68366 13.1145 7.09998 13.0046C7.7912 13.0351 7.93775 13.6307 7.46123 14.0803L7.69809 14.3769C7.93719 14.1992 8.07836 14.027 8.12718 13.7168C8.16679 13.4582 8.1037 13.1943 7.95173 12.9827C7.80532 12.7786 7.58428 12.6423 7.33801 12.6043C7.26758 12.5935 7.19037 12.5866 7.11967 12.5948C6.81915 12.6475 6.58601 12.7515 6.40456 13.0149C6.26291 13.2225 6.20805 13.4784 6.25195 13.7268C6.31556 14.0789 6.53136 14.308 6.83923 14.4616L7.02336 14.1122ZM11.0135 4.03458C10.7269 4.09517 10.5128 4.19218 10.3452 4.45129C10.2123 4.65655 10.1667 4.9074 10.2187 5.14713C10.3225 5.64677 10.642 5.89121 11.1434 5.72384C11.6854 5.59603 12.1883 5.49373 12.0024 4.75308C11.9381 4.49027 11.7721 4.26474 11.5419 4.12727C11.3601 4.02044 11.2206 4.01442 11.0135 4.03458ZM23.1173 15.8861L23.142 15.9526L23.1703 15.9463C23.2869 15.6727 23.7128 14.7025 23.6777 14.4518C23.4487 14.7204 23.2894 14.8422 22.9665 14.9902C23.04 15.2843 23.0905 15.5839 23.1173 15.8861ZM16.353 4.28552C16.2765 4.73081 16.1876 4.84957 15.9825 5.25012L17.1415 5.41712C17.0742 5.15058 17.0434 4.85072 17.1224 4.5826C17.3401 3.83424 17.8441 3.54724 18.5842 3.49037C17.6504 3.03694 16.3476 2.68622 15.3106 2.67493C15.5216 3.15696 15.5162 3.2619 15.1975 3.68228C15.6812 3.74652 16.1872 3.73417 16.353 4.28552ZM18.3013 4.03537C18.0217 4.15236 17.7815 4.33058 17.6834 4.62323C17.3432 5.63786 18.2154 5.65044 18.8073 5.81503C18.9808 5.81658 19.2217 5.60258 19.3053 5.45455C19.6697 4.80886 19.267 4.01205 18.5086 4.02019C18.4393 4.02112 18.3701 4.02619 18.3013 4.03537ZM7.37671 16.1089C7.15412 16.1536 6.99421 16.3521 6.99568 16.5821C6.99657 16.7218 7.05766 16.8542 7.16292 16.9446C7.26818 17.0349 7.40713 17.0742 7.54337 17.0521C7.71224 17.0247 7.85338 16.9071 7.91244 16.7444C7.97149 16.5818 7.93931 16.3995 7.82823 16.2677C7.71714 16.136 7.5445 16.0752 7.37671 16.1089ZM5.9275 14.4171C5.98316 14.6615 6.34851 15.8462 6.50471 15.9501L6.52175 15.8845C6.56526 15.6062 6.60985 15.2619 6.66599 14.9909C6.1508 14.7543 6.22611 14.6216 5.9275 14.4171ZM14.4383 3.66826C14.1365 3.30547 14.0614 3.11817 14.3153 2.68186C14.242 2.68312 14.0689 2.68173 14.0049 2.68955C13.1866 2.76899 11.7566 3.08524 11.041 3.49939C11.9405 3.5367 12.4592 4.00226 12.5462 4.92289C12.5317 5.08658 12.5216 5.227 12.4869 5.38756C12.8743 5.35621 13.2773 5.28052 13.6462 5.25297C13.0169 4.08437 13.1806 3.86325 14.4383 3.66826ZM19.7015 4.10043C20.1035 4.84024 20.0646 5.39686 19.4889 6.03505C20.7431 6.47648 21.5406 6.83535 22.6808 7.50574L22.9794 7.68118C22.3554 6.44669 21.511 5.44042 20.4322 4.58869C20.2688 4.45971 19.8882 4.16608 19.7015 4.10043ZM14.8856 3.55985C15.0349 3.53632 15.1603 3.43335 15.2139 3.29019C15.2675 3.14703 15.241 2.98574 15.1447 2.86781C15.0483 2.74988 14.8968 2.69347 14.748 2.7201C14.5212 2.76069 14.3689 2.97876 14.4067 3.20898C14.4444 3.4392 14.658 3.59571 14.8856 3.55985ZM9.87771 4.11651C8.63555 4.93756 7.23319 6.33264 6.63008 7.72042L6.96933 7.51786C8.102 6.82814 8.88449 6.47806 10.1401 6.03649C9.81151 5.63456 9.64947 5.33786 9.6751 4.7989C9.68755 4.53687 9.87851 4.19904 9.87771 4.11651Z" fill="#A7A7A7"/>
<path d="M10.9933 13.5173C11.9578 13.3825 12.2301 14.0377 12.9098 14.4596C13.6396 14.9127 15.806 14.9194 16.5811 14.5375C17.3139 14.1764 17.7008 13.3333 18.7304 13.5224C19.6438 13.6901 20.1765 14.3087 20.0374 15.2568C19.922 15.9748 19.4597 16.4932 18.8978 16.9036C16.8927 18.3537 12.7631 18.2781 10.7214 16.879C9.36231 15.9476 8.96571 13.8571 10.9933 13.5173ZM18.8387 16.1818C19.6059 15.4425 19.8326 14.2263 18.5034 14.114C18.1525 14.0844 17.8122 14.3191 17.5824 14.5461C16.7679 15.3509 15.8292 15.4086 14.7491 15.3835C14.2236 15.3713 13.6059 15.3897 13.0852 15.1959C12.8166 15.0942 12.5643 14.9529 12.3363 14.7767C11.8596 14.4062 11.6415 14.0503 11.0021 14.1169C9.55922 14.408 10.2719 15.9361 11.1791 16.4716C12.8673 17.4682 14.9087 17.5038 16.7843 17.1371C17.4829 16.9945 18.3199 16.6563 18.8387 16.1818Z" fill="#A7A7A7"/>
<path d="M13.5681 15.4688C13.8109 15.5063 14.3779 15.5395 14.6251 15.5508C14.7123 15.9641 14.858 16.342 14.3741 16.5213C13.6124 16.7737 12.9177 16.1979 13.5681 15.4688Z" fill="#A7A7A7"/>
<path d="M15.8663 15.5035C16.3265 15.4089 16.4578 16.1933 16.1587 16.426C15.96 16.5806 15.6659 16.5925 15.4289 16.5637C14.7724 16.3964 14.9201 16.1159 15.0107 15.5376C15.3198 15.546 15.5603 15.5306 15.8663 15.5035Z" fill="#A7A7A7"/>
<path d="M17.2174 15.0269C17.5745 15.086 18.1412 16.3154 16.7862 16.3331C16.3363 16.2878 16.3597 15.7895 16.3359 15.4319C16.7108 15.3041 16.8826 15.2179 17.2174 15.0269Z" fill="#A7A7A7"/>
<path d="M12.3648 15.0188C12.4596 15.0397 13.0309 15.3439 13.2988 15.4238C13.2856 15.767 13.2955 16.2102 12.914 16.3188C12.9058 16.3195 12.8975 16.3202 12.8893 16.3207C11.9212 16.3841 11.7312 15.7015 12.3648 15.0188Z" fill="#A7A7A7"/>
<path d="M11.4063 14.3035C11.6375 14.3051 12.0353 14.714 12.2121 14.8736C12.0861 15.218 12.0036 15.3737 11.7445 15.625C11.2254 15.8526 10.9641 15.2195 11.0321 14.7974C11.0744 14.5346 11.2064 14.4421 11.4063 14.3035Z" fill="#A7A7A7"/>
<path d="M18.1224 14.3052C18.85 14.333 18.7525 15.6746 18.0279 15.6897C17.6867 15.5033 17.5659 15.2102 17.4395 14.8588C17.6703 14.6627 17.8795 14.4851 18.1224 14.3052Z" fill="#A7A7A7"/>
<path d="M20.6128 12.2654C20.6341 12.3838 20.651 12.6642 20.663 12.7957C20.2216 13.5152 20.7367 14.1358 20.9241 14.8814C21.0243 15.2791 21.0291 15.6954 20.9381 16.0954C20.6938 17.1994 19.7687 18.1494 18.8405 18.7472C16.805 20.0579 13.6511 20.1193 11.4925 19.1257C9.91367 18.3544 8.20791 16.6898 8.77859 14.7386C8.9744 14.0691 9.40825 13.4607 9.00357 12.8085L9.0059 12.4094C9.01698 12.3304 9.00337 12.3506 9.04655 12.3036C9.56226 12.7625 9.74256 12.8856 10.3504 13.2033C9.33255 13.7258 8.92773 14.4926 9.25554 15.6433C9.4947 16.4828 10.1392 17.1471 10.9098 17.534C13.0012 18.5573 15.4382 18.5832 17.6713 17.9678C19.2204 17.5409 20.8601 16.2587 20.4159 14.3841C20.2851 13.8323 19.7749 13.4635 19.2905 13.2073C19.8111 12.9424 20.2023 12.6841 20.6128 12.2654Z" fill="#A7A7A7"/>
<path d="M14.0877 7.83261C14.1765 7.81299 14.6745 7.80968 14.785 7.81072C15.9699 7.82169 17.3145 7.96562 18.3742 8.54373C18.8481 8.80223 19.3832 9.25931 19.5365 9.79963C19.3926 9.68428 19.2427 9.5769 19.0873 9.47796C18.1614 8.89358 16.5646 8.54388 15.7613 9.44849C15.0518 10.2475 15.8242 11.8074 16.2755 12.5761C16.4906 12.9426 16.996 13.8551 16.3006 13.996C16.0472 14.0473 15.776 13.8498 15.5833 13.7069C15.5348 13.8962 15.5077 13.9892 15.4022 14.1521C15.3097 14.2537 15.1953 14.3323 15.0678 14.3816C14.5148 14.593 14.2533 14.1503 14.103 13.7096C13.7101 13.9984 13.256 14.242 13.0062 13.6325C13.0494 13.1058 13.3984 12.6313 13.6458 12.1513C13.7926 11.8675 13.9174 11.5725 14.019 11.2691C14.3447 10.2888 14.3232 9.36526 13.2113 9.01656C12.4393 8.77447 11.5754 8.96859 10.8702 9.33303C10.6039 9.47061 10.3719 9.64748 10.106 9.7827C10.6016 8.35692 12.7858 7.92514 14.0877 7.83261Z" fill="#A7A7A7"/>
<path d="M14.0616 7.08509C14.2938 7.04901 14.7131 7.06015 14.9543 7.06274C16.6179 7.07995 18.4913 7.45662 19.7947 8.56103C20.8118 9.42287 21.2683 10.858 20.3133 11.9239C19.648 12.6665 18.2669 13.2928 17.29 13.3569L17.2864 12.3394C18.0861 12.152 18.7025 11.9689 19.3543 11.4398C20.5504 10.4692 19.9671 9.10031 18.8468 8.37927C17.8644 7.74695 16.7195 7.50158 15.574 7.41198C14.1596 7.25424 12.2526 7.5603 10.9874 8.23719C10.0993 8.71229 9.17045 9.89438 9.79124 10.9252C10.3395 11.8356 11.3751 12.1094 12.3204 12.3599L12.3199 13.376C11.3444 13.1889 10.4246 12.8704 9.63637 12.237C8.13129 11.0277 8.82642 9.1673 10.2418 8.24167C11.4003 7.48409 12.7003 7.19198 14.0616 7.08509Z" fill="#A7A7A7"/>
<path d="M17.0622 9.49593C17.8185 9.40431 18.6575 9.7138 19.2948 10.1136C18.83 10.0023 18.5604 9.9498 18.085 9.91185C18.1154 9.95267 18.1442 9.9947 18.1713 10.0378C18.2818 10.2126 18.333 10.4165 18.2855 10.622C18.2454 10.7921 18.1395 10.9387 17.9917 11.029C17.8236 11.133 17.6209 11.1632 17.4304 11.1125C16.8909 10.9704 16.8872 10.4836 17.0125 10.0453C16.3281 10.3269 16.3113 10.8297 16.9553 11.1848L16.9645 11.1891C17.7064 11.5302 18.5226 11.286 19.2356 11.0175C18.5404 11.759 17.2531 12.1158 16.3692 11.505C15.9062 11.1851 15.6897 10.4769 16.0452 9.99789C16.2904 9.66749 16.6757 9.55206 17.0622 9.49593Z" fill="#A7A7A7"/>
<path d="M12.129 9.46884C12.1785 9.46401 12.2282 9.46074 12.2779 9.45904C12.7002 9.44494 13.1373 9.5258 13.4539 9.83144C13.6471 10.0155 13.7588 10.2709 13.7636 10.5396C13.7743 11.3412 12.9917 11.8228 12.2719 11.7959C11.4917 11.7667 10.9693 11.574 10.416 11.0165C11.1063 11.2859 11.546 11.3986 12.3058 11.3037C13.0826 11.0918 13.6346 10.4256 12.6243 10.0446C12.7938 10.5199 12.7165 11.0254 12.1366 11.1072C11.9474 11.1342 11.7552 11.0839 11.6025 10.9674C11.2203 10.6733 11.3058 10.2395 11.5635 9.90309C11.0495 9.91903 10.8139 9.98407 10.3101 10.1062C10.9317 9.72581 11.407 9.5452 12.129 9.46884Z" fill="#A7A7A7"/>
<path d="M18.6006 7.27544C18.6223 7.27489 18.6499 7.27469 18.6716 7.27871C20.398 7.6009 22.4279 8.73975 22.2162 10.812C22.1755 11.2109 21.9846 11.459 21.6821 11.6959C21.5305 11.7839 21.1076 11.9868 20.9565 11.8822C20.9497 11.7749 21.0411 11.6947 21.0804 11.5966C21.9198 9.50227 20.2321 8.06474 18.6006 7.27544Z" fill="#A7A7A7"/>
<path d="M10.8875 7.27811C10.9072 7.27572 10.9693 7.27828 10.9928 7.27862C10.9712 7.31723 10.6243 7.48308 10.5613 7.51454C9.09048 8.24816 7.7184 10.0237 8.64525 11.6983C8.67511 11.7522 8.69263 11.833 8.66901 11.8925C8.54015 11.9301 8.27913 11.8273 8.15772 11.7758C7.15314 11.3055 7.33149 9.93675 7.81602 9.14449C8.46929 8.07622 9.72481 7.55191 10.8875 7.27811Z" fill="#A7A7A7"/>
<path d="M22.7727 8.64771C23.2943 9.23174 23.1186 10.9141 22.5034 11.396C22.7848 10.582 22.6797 9.89759 22.3306 9.13619C22.4661 8.96523 22.6225 8.80602 22.7727 8.64771Z" fill="#A7A7A7"/>
<path d="M6.85665 8.64185L7.3062 9.11373C6.95874 9.9198 6.8914 10.4784 7.10714 11.33L7.06333 11.3227C6.71057 10.9817 6.60351 10.3295 6.56726 9.85861C6.53116 9.38977 6.62125 9.04334 6.85665 8.64185Z" fill="#A7A7A7"/>
<path d="M20.7847 17.7815C20.8936 17.7713 20.9845 17.8073 21.0703 17.8714C21.1015 17.9305 21.128 17.9764 21.1068 18.0503C21.0253 18.3334 20.3854 18.8604 20.1623 19.0045C20.0454 19.0084 19.979 18.9879 19.884 18.9242C19.8484 18.8652 19.8179 18.8255 19.8369 18.7476C19.9041 18.4711 20.5684 17.9314 20.7847 17.7815Z" fill="#A7A7A7"/>
<path d="M18.4731 19.4583C18.639 19.482 18.7909 19.6936 18.7094 19.8052C18.5121 20.0753 17.8297 20.2619 17.5329 20.3689C17.3333 20.3388 17.156 20.1813 17.2714 20.0078C17.4365 19.7596 18.2054 19.535 18.4731 19.4583Z" fill="#A7A7A7"/>
<path d="M8.68455 17.7827C9.00003 17.7799 9.46675 18.2928 9.6841 18.5205C9.85578 18.7002 9.83083 18.8663 9.63097 19.0116C9.36598 18.996 8.53014 18.3051 8.53666 17.9912C8.53847 17.9038 8.6258 17.8344 8.68455 17.7827Z" fill="#A7A7A7"/>
<path d="M11.2073 19.5054C11.232 19.5047 11.2567 19.5054 11.2813 19.5075C11.4801 19.5242 12.3147 19.8458 12.4718 20.0332C12.5933 20.1783 12.4776 20.3229 12.3428 20.4274C12.0775 20.4086 11.3301 20.1103 11.1185 19.9038C10.9771 19.7659 11.0818 19.6165 11.2073 19.5054Z" fill="#A7A7A7"/>
<path d="M14.2902 20.3193C14.6271 20.3099 15.4575 20.231 15.689 20.4418C15.7709 20.6127 15.6844 20.6937 15.5413 20.7941C15.1959 20.8524 14.4905 20.9161 14.1877 20.7175C14.0467 20.625 14.2046 20.3997 14.2902 20.3193Z" fill="#A7A7A7"/>
<path d="M18.5006 4.41118C18.7868 4.3934 19.0354 4.6088 19.0625 4.89806C19.0895 5.18732 18.8853 5.44619 18.6008 5.48319C18.4083 5.50824 18.2175 5.42493 18.1033 5.26586C17.989 5.1068 17.9694 4.89729 18.0522 4.71932C18.1349 4.54135 18.3068 4.42322 18.5006 4.41118Z" fill="#A7A7A7"/>
<path d="M11.0784 4.41071C11.3666 4.39272 11.6165 4.61056 11.642 4.90201C11.6676 5.19345 11.4594 5.45249 11.1725 5.48619C10.98 5.50882 10.7905 5.42373 10.6777 5.26401C10.5649 5.10428 10.5465 4.89508 10.6298 4.71772C10.7131 4.54035 10.8849 4.4228 11.0784 4.41071Z" fill="#A7A7A7"/>
<path d="M14.8037 2.89326C14.8912 2.88554 14.976 2.92657 15.025 3.00041C15.0741 3.07426 15.0797 3.16927 15.0398 3.24854C14.9998 3.3278 14.9205 3.37883 14.8327 3.3818C14.7018 3.38622 14.5913 3.28425 14.5835 3.15183C14.5756 3.01943 14.6732 2.90476 14.8037 2.89326Z" fill="#A7A7A7"/>
<path d="M56.5376 8.61132C57.5654 8.48245 61.4619 8.15653 62.2283 8.62632C62.4276 8.74847 62.4815 8.93954 62.5333 9.15359V9.84699C62.5058 9.94415 62.4891 10.2839 62.4832 10.405C62.4616 10.9307 62.4588 11.4569 62.4747 11.9827C62.4869 12.3207 62.5282 12.6751 62.5067 13.012C62.4979 13.1502 62.4752 13.3475 62.3862 13.4577C62.0482 13.876 60.6856 13.9716 60.175 14.0142C59.7565 14.049 56.5495 14.1581 56.3598 13.9563C56.2611 13.8512 56.2552 13.5675 56.2478 13.4295C56.2203 12.9317 56.148 11.0366 56.421 10.7341C57.0547 10.033 60.0655 10.5641 61.0485 10.5087C61.1143 10.5049 61.1801 10.5013 61.2266 10.4483C61.3261 10.255 61.262 9.94271 61.2362 9.72067C60.1642 9.64274 58.9688 9.71872 57.888 9.69157C57.5943 9.68419 56.7244 9.72024 56.4885 9.64555C56.4205 9.47361 56.5135 8.8348 56.5376 8.61132ZM58.9184 11.8817C58.8188 12.4669 58.6748 12.7127 59.3649 12.7013C59.6811 12.7076 60.0051 12.6595 60.3187 12.6325C60.4304 12.6228 60.7809 12.5857 60.8495 12.5151C60.9793 12.3814 60.8512 11.8775 60.8038 11.7258C60.7037 11.7296 60.5572 11.7305 60.4613 11.7393C59.9243 11.7736 59.452 11.802 58.9184 11.8817Z" fill="#A7A7A7"/>
</svg>
