<svg width="55" height="24" viewBox="0 0 55 24" fill="none" xmlns="http://www.w3.org/2000/svg">
<g clip-path="url(#clip0_290_5801)">
<path d="M16.4383 1.64239C16.0884 1.44082 15.7436 1.24136 15.3489 1.13932C15.1787 1.0953 14.9052 1.08113 14.755 1.02008L14.7727 0.987779C15.2126 0.942312 16.1746 1.14988 16.5646 1.34612C19.8216 2.45093 22.4629 6.97701 24.0546 9.83975C24.9152 11.3875 25.7656 12.7379 26.8232 14.1616C26.7768 13.6821 26.7792 13.1956 26.774 12.7139C26.7435 9.89365 26.814 7.07355 26.8013 4.25327C26.8 3.95409 26.8015 3.64318 26.7423 3.3493C26.6704 2.98895 26.4778 2.66441 26.1969 2.42995C26.0837 2.33547 25.9616 2.25252 25.8322 2.1823C26.315 2.2107 26.8592 2.19062 27.3474 2.18913C27.7462 2.18792 28.1969 2.20567 28.59 2.18974C27.2849 3.09921 27.4976 3.44325 27.4992 4.95427L27.5029 7.64033L27.5032 12.1171C27.5035 12.9701 27.4941 13.8278 27.5263 14.6806C27.5378 14.9893 27.6004 15.0911 27.8024 15.3146C29.3992 17.0822 32.3501 18.6037 34.52 16.9218C35.2365 16.3664 35.7951 15.4426 35.9455 14.5392C36.1684 13.1288 35.5641 11.7051 34.7351 10.5983C33.3942 8.70163 29.7881 7.01789 30.1409 4.34175C30.2269 3.69015 30.67 2.93419 31.1953 2.56485C32.1011 1.92785 33.3384 1.86679 34.3873 2.02631C34.962 2.11325 35.53 2.24058 36.087 2.40737C36.0876 2.99293 36.1063 3.47869 35.9552 4.04996C35.519 2.27148 32.3001 1.8624 31.379 3.41638C30.7065 4.55104 31.5372 5.50957 32.269 6.30961C34.0224 8.22585 35.9458 9.13038 36.7914 11.7907C37.7588 14.8336 36.5554 17.3686 33.4238 18.2248C31.7609 18.6579 30.1995 18.223 28.7514 17.3641C24.8755 15.0668 22.9105 10.5217 20.597 6.84151C20.2783 6.33448 19.6723 5.22777 19.3379 4.79994L19.3353 13.2377L19.3354 15.6166C19.335 16.356 19.1985 17.1353 19.7664 17.6847C20.1279 18.0344 20.2606 17.9916 20.6981 18.094C19.8289 18.1762 18.6997 18.134 17.8063 18.1401C17.2942 18.1435 16.213 18.165 15.7372 18.113C16.2455 17.8534 16.6759 17.5655 16.47 16.9011C16.3397 16.4807 16.1895 16.0663 16.0495 15.6491L14.9187 12.3478L13.0661 6.91554L12.5204 5.30689C12.4447 5.07852 12.375 4.80762 12.2899 4.58819C12.1346 4.86769 12.0229 5.18369 11.9261 5.48861C11.5588 6.64618 11.1243 7.782 10.8018 8.9534C10.7758 9.04767 10.7491 9.14629 10.7174 9.23864C11.2968 8.85691 11.5468 8.75282 12.2752 8.73418C12.4816 8.72888 12.749 8.7355 12.9528 8.77238C12.6353 8.89817 12.2901 9.02115 11.9924 9.17792C10.9629 9.71999 10.142 10.6204 9.46215 11.5533C9.41379 11.6196 9.36486 11.6936 9.31396 11.7579C9.47816 11.2415 9.68229 10.728 9.86211 10.2154C10.1818 9.28918 10.4911 8.35943 10.7901 7.42627L11.7439 4.43477C11.9449 3.80344 12.3496 2.52388 12.6434 1.9701C13.1571 3.9581 13.9853 6.12594 14.6397 8.09917L16.4704 13.4628L17.2075 15.5827C17.4929 16.3821 17.6638 16.9816 18.1445 17.6935C18.3365 17.3155 18.6013 16.9127 18.642 16.4819C18.6856 16.0204 18.6572 15.4899 18.6516 15.0222C18.6454 14.2704 18.6442 13.5186 18.6478 12.7668C18.6607 10.4194 18.8191 8.05596 18.7302 5.70333C18.7145 5.28613 18.7081 4.1968 18.5742 3.823C18.4109 3.36724 17.4525 2.42736 17.0529 2.08041C16.8672 1.91911 16.5655 1.75083 16.4383 1.64239Z" fill="#A7A7A7"/>
<path d="M16.4382 1.64239C16.0884 1.44082 15.7435 1.24136 15.3488 1.13932C15.1786 1.0953 14.9052 1.08113 14.7549 1.02008L14.7726 0.987779C15.2126 0.942312 16.1745 1.14988 16.5645 1.34612L16.5507 1.3907C16.3665 1.33675 15.842 1.13051 15.7271 1.18385L15.7313 1.20899C16.0838 1.35256 16.1509 1.38185 16.468 1.58146L16.4773 1.6217L16.4382 1.64239Z" fill="#A7A7A7"/>
<path d="M45.7321 3.74081C46.548 1.51036 49.6589 1.76631 51.4773 2.4078C51.499 2.82354 51.4445 3.53139 51.445 3.99374C51.1719 3.39607 50.7425 2.99426 50.1462 2.73007C49.4665 2.42913 48.4681 2.3406 47.7673 2.61874C47.2918 2.80747 46.9093 3.13649 46.7058 3.61288C46.5433 3.99366 46.5179 4.39595 46.6511 4.78964C47.1365 6.22256 50.0141 8.60114 51.1355 9.79061C52.1379 10.854 53.0874 11.988 53.6296 13.3658C54.2445 14.9287 54.1433 16.6918 53.4841 18.2223C52.6277 20.2106 51.0221 21.6078 49.0407 22.3951C46.8547 23.2743 44.4108 23.2372 42.2526 22.2906C37.7422 20.3084 36.0444 15.4812 38.8435 11.3014C39.0642 10.972 39.4656 10.5529 39.5886 10.1939C40.1917 8.43134 40.7467 6.65179 41.363 4.89315C41.6925 3.95907 41.973 2.92018 42.364 2.01913C42.7458 3.35651 43.239 4.7438 43.6882 6.066L44.8239 9.50253C45.4198 11.3276 46.0459 13.1425 46.7009 14.9469C46.9436 15.6049 47.1873 16.2827 47.4528 16.9322C47.7595 17.6826 48.0797 17.8277 48.779 18.1031C48.3227 18.1609 47.5997 18.1418 47.1169 18.1412C46.6169 18.1405 45.8978 18.1597 45.4226 18.1002C46.719 17.7195 46.1215 16.6752 45.8327 15.7769C45.4665 14.6666 45.0907 13.5592 44.7048 12.4557C44.2475 11.1239 43.8224 9.78018 43.3396 8.45761C43.3033 8.35831 43.2867 8.21619 43.1892 8.17636C43.1261 8.19767 42.7753 8.32053 42.7331 8.32577C39.0708 10.3589 37.737 16.5027 40.3796 19.8365C42.393 22.3768 45.7562 23.0589 48.6608 21.7242C50.9803 20.6583 52.8388 17.9045 52.4812 15.2965C52.0797 12.3718 49.1248 10.136 47.3083 8.05526C46.2232 6.82031 45.0536 5.51212 45.7321 3.74081ZM42.0632 4.56405C41.7248 5.22794 41.3769 6.43437 41.1276 7.16561C40.9356 7.71594 40.7492 8.26911 40.57 8.82382C40.4981 9.04529 40.3647 9.421 40.32 9.63339C40.8832 9.15053 41.9242 8.4804 42.6237 8.25741C42.7738 8.20695 42.9698 8.13404 43.1218 8.11386L43.1745 8.06308C43.0959 7.70294 42.7475 6.83845 42.613 6.4537C42.3735 5.76853 42.2431 5.26349 42.0632 4.56405Z" fill="#A7A7A7"/>
<path d="M2.12682 2.12008C2.31666 2.11611 2.52393 2.12729 2.7159 2.12982C3.65055 2.14214 4.59224 2.10989 5.52613 2.13433C5.25283 2.23127 5.04875 2.3345 4.8345 2.52587C4.68013 2.66136 4.30972 3.11799 4.29495 3.32441C4.18264 4.8938 4.31476 6.58259 4.23874 8.14865C4.7792 7.58359 5.28922 6.97755 5.79754 6.38315C6.42265 5.65217 8.21743 3.64104 8.28089 2.72998C8.29851 2.47721 8.15794 2.29229 8.00105 2.1145C8.57364 2.16981 9.44821 2.11821 10.0664 2.13492C9.78463 2.31572 9.4086 2.54276 9.18557 2.78919C8.4313 3.62261 7.78358 4.54619 7.08781 5.42445C6.57632 6.05852 6.07227 6.69864 5.57579 7.3447C5.35439 7.62758 4.8985 8.18034 4.74926 8.46818C5.63283 9.06152 6.51589 9.92222 7.22831 10.7125C7.83458 11.3923 8.41334 12.0966 8.96315 12.8236C11.5733 16.3139 14.141 20.7741 18.6157 21.958C21.8149 22.8045 25.1124 22.0252 27.8953 20.3596C27.5469 20.7694 26.703 21.2864 26.2418 21.5686C24.6729 22.5674 22.3313 23.1099 20.4936 22.9913C17.9728 22.8285 15.7679 21.8261 13.7477 20.3534C10.7484 18.167 8.88873 15.098 6.72456 12.1728C6.25537 11.5372 5.77092 10.9132 5.27162 10.3013C4.91721 9.86737 4.62755 9.49455 4.21191 9.11664L4.21239 15.3995C4.21242 16.1105 4.22211 16.8384 4.21424 17.5479C4.20474 18.4077 4.47093 18.8668 5.22173 19.304C4.52147 19.2945 3.82113 19.2904 3.12082 19.2917C2.71157 19.2915 2.17583 19.2733 1.78094 19.329C2.53676 18.9083 2.9442 18.5654 3.03 17.6287C3.08 17.0828 3.06112 16.5524 3.06126 16.0052L3.06153 13.1808L3.06078 9.92576C3.06053 9.35829 3.08374 8.54478 3.0286 8.00368C2.51826 7.54489 1.62525 7.29948 0.986328 7.02682C1.60697 7.12834 2.38581 7.34304 3.00161 7.51053C2.94113 6.12343 3.05677 4.67404 2.95373 3.28683C2.91667 2.78818 2.43561 2.45881 2.13317 2.13067C2.13106 2.12714 2.12894 2.12361 2.12682 2.12008Z" fill="#A7A7A7"/>
</g>
<defs>
<clipPath id="clip0_290_5801">
<rect width="55" height="24" fill="white"/>
</clipPath>
</defs>
</svg>
