<svg width="44" height="24" viewBox="0 0 44 24" fill="none" xmlns="http://www.w3.org/2000/svg">
<path d="M31.6028 14.3535C34.1733 14.2752 36.7461 14.4137 39.2931 14.7673C39.545 14.8039 41.6704 15.1147 41.7307 15.2289C41.8381 15.4321 41.7824 16.5162 41.7716 16.8352C41.6592 16.8276 41.5442 16.8084 41.434 16.7865C40.0761 16.517 38.7273 16.3359 37.3479 16.2071C33.0784 15.8476 28.7848 15.8724 24.52 16.2811C23.734 16.3461 22.9495 16.428 22.1672 16.5267C21.8481 16.5672 21.4425 16.6102 21.1331 16.6759C21.3801 16.7146 21.7276 16.7153 21.9475 16.8257C22.1542 16.9295 22.3297 18.3754 22.4304 18.6794C22.4714 18.8029 22.5456 18.9525 22.6728 19.0081C22.7376 19.0362 22.8118 19.0308 22.8758 19.0043C23.4086 18.7841 22.951 18.4567 23.0855 18.1871C23.1277 18.1028 23.2272 18.0607 23.3124 18.0333C23.4478 17.9898 23.6165 17.9574 23.7488 18.0291C23.8575 18.088 23.9262 18.2038 23.9612 18.318C24.0467 18.5962 23.9877 18.9467 23.8515 19.2008C23.6903 19.5016 23.4024 19.7445 23.0717 19.8412C22.7768 19.928 22.4589 19.8918 22.1915 19.7409C21.4375 19.3197 21.2933 17.5253 21.0611 16.6975C20.9001 16.593 16.8035 17.3664 16.3022 17.4579C15.3507 17.6714 14.445 17.8455 13.4784 18.0779C11.2663 18.6069 9.08507 19.2554 6.94453 20.0206C5.9808 20.3689 5.02687 20.7433 4.08386 21.1434C3.85968 21.2377 2.6234 21.8061 2.49804 21.7827L2.48047 21.7215C2.49279 21.679 2.52935 21.6028 2.56614 21.5792C9.12786 17.374 18.1833 15.4451 25.7479 14.7121C27.6936 14.5129 29.6471 14.3932 31.6028 14.3535Z" fill="#A7A7A7"/>
<path d="M15.9207 2.13649C16.1522 1.9706 16.4955 1.75952 16.7949 1.80416C16.9306 1.82551 17.0515 1.90114 17.1294 2.01337C17.1829 2.09049 17.2374 2.23626 17.2707 2.32567C17.6021 2.18875 18.0654 2.12805 18.4266 2.08554C20.1841 1.87807 21.966 2.11332 23.6076 2.76952C24.3066 3.05445 25.0739 3.49103 25.6432 3.98245C25.9199 4.22106 26.1728 4.50188 26.455 4.74104C25.1156 4.33111 23.9177 4.65212 22.7451 5.39459C22.5846 5.49611 21.2847 5.35171 21.0108 5.40425C18.6366 5.53103 16.4893 6.16789 14.9515 8.05784C14.2216 7.61616 13.6956 7.37765 12.846 7.65871C12.9814 7.20593 13.1282 6.83285 13.358 6.41215C13.8251 5.55669 14.9964 4.18342 15.7979 3.64598C15.9131 3.57703 16.0169 3.48744 16.1213 3.40281C15.9747 3.45381 15.8969 3.49737 15.761 3.57046C13.6995 4.53992 12.2536 6.0064 11.4808 8.15357C11.312 8.63647 11.1693 9.12796 11.0534 9.62594C11.3249 9.38101 11.5829 9.17879 11.9214 9.03243C12.8736 8.62074 14.1908 8.3688 15.1244 8.93244C16.2457 7.51474 18.3533 6.67848 20.1218 6.4577C20.62 6.39548 21.6024 6.32544 22.0798 6.43127L22.1215 6.4703C21.9785 6.54146 21.3897 6.52333 21.201 6.54956C19.0894 6.84326 17.0381 7.69819 15.471 9.15139C15.3385 9.27422 15.2177 9.40722 15.0882 9.53103C13.6396 9.12392 12.5525 9.1796 11.1903 9.91122C10.8351 10.102 10.6706 10.2593 10.3677 10.4557C10.4275 9.97279 10.4752 9.54253 10.5864 9.06696C11.0454 7.07922 12.1776 5.30726 13.7946 4.04618C14.5858 3.43293 15.2778 3.10763 16.1766 2.70297C16.1088 2.54032 16.0125 2.27309 15.9207 2.13649ZM21.1566 3.96843C21.3891 4.10981 21.5651 4.26069 21.7796 4.42473C21.0807 3.22562 20.2216 2.58849 18.772 2.63674C18.3542 2.67934 18.1452 2.73111 17.7579 2.88799C18.9419 2.93891 20.1752 3.3004 21.1566 3.96843Z" fill="#A7A7A7"/>
<path d="M25.8206 5.90429C25.9608 5.88851 26.1125 5.88817 26.2522 5.91098C26.3904 5.93352 26.5514 5.98771 26.6339 6.1085C26.8471 6.42045 26.6249 8.38726 26.5506 8.82816C27.1257 8.24217 27.3964 7.68448 28.3296 7.57599C29.7415 7.41186 30.0182 8.9223 29.9167 9.98504C29.8285 10.912 29.6038 11.6838 29.0004 12.4158C28.5296 12.9044 28.008 13.2647 27.3247 13.4249C26.6459 13.6142 24.7866 13.7071 24.6297 12.7407C24.5682 12.3636 24.6407 11.4492 24.6617 11.012L24.8346 7.57327C24.8529 7.18313 24.8051 6.56056 24.8661 6.18865C24.8889 6.05042 25.6509 5.91866 25.8206 5.90429ZM27.147 12.5459C27.4619 12.3739 27.7133 11.9663 27.7923 11.6046C27.9457 10.9007 28.1442 9.86127 27.8745 9.16767C27.7758 8.9142 27.4511 8.90875 27.2255 8.92252C26.3032 9.28502 26.4182 11.0416 26.3994 11.8658C26.3887 12.3362 26.6411 12.6337 27.147 12.5459Z" fill="#A7A7A7"/>
<path d="M23.0069 8.33372C23.1671 8.28919 24.0042 8.43437 24.1466 8.59029C24.2108 8.76641 24.0669 9.43341 24.0441 9.67883C23.9659 10.6204 23.9162 11.5642 23.8949 12.5087C23.8897 12.7563 23.9867 13.4928 23.9484 13.638C23.7642 13.8677 23.2814 13.9376 23.0034 13.9865C22.4419 14.0854 22.0937 13.8804 22.0272 13.2955C21.6716 13.807 21.1927 14.1375 20.6007 14.3218C19.4248 14.6611 18.82 14.1575 18.7854 12.9726C18.75 11.7622 19.0057 10.5672 19.8223 9.62917C20.6402 8.68966 21.8048 8.39883 23.0069 8.33372ZM21.1508 13.0787C22.5038 13.0447 22.2007 10.3185 22.3176 9.4285C22.2209 9.42627 21.9767 9.41374 21.8925 9.41996C20.7361 9.59779 20.6344 11.6043 20.6829 12.4906C20.6986 12.7764 20.8655 13.0145 21.1508 13.0787Z" fill="#A7A7A7"/>
<path d="M8.17219 9.08606C8.38817 9.20509 8.24542 10.5179 7.77037 10.744C7.09737 11.0644 6.42753 11.2867 5.7274 11.5418C5.63471 12.2526 5.59037 13.1926 5.52516 13.9276L5.33961 16.2049C5.3004 16.6747 5.23807 17.1544 5.22725 17.6247C5.22117 17.8884 5.24844 18.1516 5.25239 18.4152C5.25384 18.5112 5.24902 18.5852 5.17749 18.6551C4.92056 18.9063 3.90822 19.2418 3.55577 19.2367C3.46645 19.2354 3.34985 19.2177 3.28717 19.1487C3.01535 18.8496 3.2881 16.7419 3.33158 16.2216C3.41651 15.3072 3.49286 14.3921 3.56059 13.4764C3.58794 13.1436 3.59941 12.6933 3.65234 12.377C2.94224 12.7124 2.17059 12.9507 1.48003 13.3313C1.4283 13.3598 1.36524 13.3923 1.30626 13.3825C1.19282 13.2116 1.40203 12.2018 1.50073 11.98C1.66573 11.6091 2.04198 11.5393 2.38138 11.3843C2.74932 11.2163 3.11482 11.0627 3.48604 10.9106C4.56571 10.4649 5.65133 10.0335 6.74262 9.61641C7.21558 9.43526 7.70407 9.2708 8.17219 9.08606Z" fill="#A7A7A7"/>
<path d="M34.3788 7.31573C34.8555 7.24871 35.499 7.33082 35.5797 7.90511C35.6597 8.47474 35.5852 9.06481 35.5573 9.63824C35.5185 10.4336 35.4498 11.2199 35.4908 12.0173C35.485 12.104 35.563 12.8605 35.5163 12.8894C35.1596 13.1095 34.2106 13.101 33.8827 12.8122C33.6113 12.5732 33.5506 12.2623 33.5268 11.9673C33.4049 12.1657 33.2534 12.3445 33.0775 12.4978C32.2359 13.2376 30.8149 13.466 30.445 12.1028C30.3445 11.7322 30.387 11.3932 30.4165 11.0154C30.4999 9.70295 30.5622 8.87108 30.5112 7.54731C33.4469 6.56698 32.026 9.58243 32.2604 11.075C32.3862 11.8763 33.3544 11.7102 33.5388 10.9009C33.7448 9.99811 33.7535 9.1216 33.768 8.20093C33.779 7.49453 33.5943 7.38441 34.3788 7.31573Z" fill="#A7A7A7"/>
<path d="M9.43628 11.7438C10.7399 11.617 10.8016 13.0184 10.3024 13.8333C9.83054 14.6035 8.75217 15.0462 7.89794 15.2531C7.89562 15.4732 7.8739 15.7554 7.9437 15.9612C8.36698 17.2088 10.1056 15.5114 10.3378 15.494C10.3831 15.6087 10.3088 15.8504 10.2821 15.9711C10.2044 16.3212 9.91075 16.6366 9.62963 16.8482C9.15119 17.2506 8.42189 17.5561 7.82661 17.7071C5.29096 18.3499 5.99073 14.6722 6.805 13.5197C7.51512 12.5145 8.24619 12.0024 9.43628 11.7438ZM7.90626 14.7324C8.0356 14.6974 8.19133 14.6597 8.31555 14.6151C8.7529 14.4345 9.01348 14.1713 9.20677 13.7373C9.30324 13.5207 9.37815 13.1078 9.2877 12.8876C9.24996 12.7937 9.1752 12.719 9.08068 12.681C9.02307 12.6578 8.98593 12.6572 8.9252 12.6611C8.01376 12.8236 7.98687 14.0258 7.90626 14.7324Z" fill="#A7A7A7"/>
<path d="M38.1799 7.26541C38.9 7.18788 40.4098 7.68782 39.8525 8.6602C39.837 8.67061 39.8192 8.68274 39.799 8.69659C39.5736 8.61196 39.3209 8.38273 39.1042 8.28418C38.9232 8.20059 38.7265 8.15554 38.5269 8.15192C38.2647 8.14548 37.7566 8.27658 37.8051 8.61097C37.9243 9.20413 38.6358 9.56559 39.0862 9.97562C39.9392 10.7519 40.1589 12.042 39.3461 12.9309C38.9445 13.37 38.3674 13.4505 37.7771 13.4574C37.2959 13.4455 36.6376 13.2492 36.2905 12.9022C36.0925 12.702 35.9853 12.4307 35.9931 12.1505C35.9983 11.9089 36.079 11.772 36.2472 11.6133C36.6189 12.0534 37.145 12.5017 37.7761 12.4364C37.8965 12.4239 38.0735 12.3319 38.1385 12.2267C38.5363 11.5816 37.6866 11.1172 37.2782 10.7738C37.0748 10.6043 36.9311 10.4901 36.7698 10.2972C36.5612 10.0504 36.4267 9.75061 36.3815 9.43177C36.279 8.72252 36.4592 7.97359 37.098 7.56938C37.4607 7.34001 37.7688 7.31997 38.1799 7.26541Z" fill="#A7A7A7"/>
<path d="M18.4306 9.17478C18.5097 9.1652 18.6312 9.14645 18.7036 9.17377C19.1627 9.34687 19.0129 10.0969 18.8916 10.43C18.5485 10.5069 18.0847 10.6057 17.7852 10.816C16.7624 11.5388 16.842 13.0386 16.7609 14.1485C16.7429 14.3951 16.816 14.6936 16.7692 14.9362C16.4992 15.1622 15.6241 15.4404 15.2884 15.2346C15.1405 15.1439 15.1185 14.9853 15.0869 14.8277C15.0294 14.2961 15.1211 13.7601 15.1528 13.2352C15.2093 12.2331 15.3378 11.2298 15.2661 10.2261C15.2432 9.90451 16.2416 9.65441 16.4982 9.67635C17.0436 9.72297 16.9847 10.4056 16.9529 10.7512C17.3081 10.0996 17.7275 9.49476 18.4306 9.17478Z" fill="#A7A7A7"/>
<path d="M12.9 11.6183C13.1611 11.1445 13.5869 10.6057 14.0337 10.3069C14.7631 9.81921 14.9276 10.7118 14.7747 11.222C14.6962 11.4839 14.4552 11.4999 14.2294 11.5654C12.4523 12.0809 12.6198 14.4127 12.6051 15.8716C12.6034 16.0539 12.4995 16.1003 12.3487 16.1768C12.0893 16.3015 11.8069 16.3702 11.5323 16.4317C10.9208 16.5688 10.8998 16.035 10.9158 15.5788C10.9545 14.4764 11.113 13.3864 11.1235 12.2787C11.1257 12.0549 11.0585 11.4827 11.1642 11.2624C11.3837 11.0317 11.9299 10.862 12.2516 10.8285C12.7465 10.7678 12.7764 11.1393 12.7986 11.524C12.7929 11.6087 12.7767 11.6825 12.8249 11.7501C12.8822 11.7131 12.8727 11.6953 12.9 11.6183Z" fill="#A7A7A7"/>
<path d="M41.2286 7.66382C41.4401 7.67499 41.5978 7.68289 41.7992 7.76435C42.1894 7.92232 42.2778 8.36173 42.2593 8.73901C42.2353 9.23573 42.1619 9.73629 42.0991 10.2314C42.0147 10.8704 41.9482 11.5116 41.8997 12.1542C41.8824 12.3983 41.847 13.5729 41.7927 13.693C41.6753 13.793 41.4671 13.7556 41.3079 13.7476C40.5316 13.7048 40.2467 13.398 40.2869 12.6323C40.3654 11.1388 40.6705 9.66887 40.7178 8.16916C40.7333 7.68111 40.7545 7.69379 41.2286 7.66382Z" fill="#A7A7A7"/>
<path d="M41.4843 5.80427C42.568 5.76434 42.7045 7.03498 41.753 7.17947C41.1192 7.1794 40.5743 6.73871 40.9637 6.05499C41.0654 5.87624 41.2904 5.83158 41.4843 5.80427Z" fill="#A7A7A7"/>
<path d="M12.7988 11.524C12.8311 11.5605 12.8572 11.5974 12.9002 11.6184C12.8729 11.6954 12.8824 11.7131 12.825 11.7502C12.7769 11.6825 12.793 11.6087 12.7988 11.524Z" fill="#A7A7A7" fill-opacity="0.0235294"/>
<path d="M15.7612 3.57049C15.8971 3.4974 15.9749 3.45383 16.1215 3.40283C16.0171 3.48746 15.9133 3.57705 15.7981 3.646L15.7612 3.57049Z" fill="#A7A7A7" fill-opacity="0.0862745"/>
</svg>
