<svg width="88" height="24" viewBox="0 0 88 24" fill="none" xmlns="http://www.w3.org/2000/svg">
<g clip-path="url(#clip0_279_4725)">
<path d="M53.9152 8.00477C55.612 7.98139 56.9521 8.25308 58.2905 9.3872C61.1217 11.7862 60.6622 16.7729 57.3764 18.5028C55.8566 19.2886 54.0867 19.4378 52.457 18.9173C51.2241 18.5327 50.2397 17.8653 49.491 16.7754C49.3179 16.5235 49.0227 15.8241 48.8595 15.5118C48.7627 16.0595 48.6022 16.6764 48.2917 17.1443C46.6119 19.6762 42.7677 19.9646 40.3456 18.3628C39.1601 17.5787 38.3406 16.3507 38.0724 14.9559C37.7229 13.2253 38.0967 11.7473 39.0644 10.296C39.1863 10.1435 39.4313 9.90219 39.5751 9.76693C40.76 8.65372 42.3397 8.05704 43.9653 8.10842C46.0496 8.17419 48.6616 9.49694 48.5775 11.8927C48.5297 13.2391 47.6024 13.3461 46.508 13.2996C44.8591 12.2615 45.6456 10.7876 44.6381 9.48585C43.8922 8.52158 42.3546 9.07269 42.0874 10.2187C41.9673 10.7342 41.8153 11.0111 41.753 11.5912C41.5948 13.0645 41.6578 14.6006 42.5827 15.8321C43.7417 17.3085 46.0139 17.2075 47.3551 16.055C47.6816 15.7752 47.963 15.4585 48.2873 15.1794C48.4538 15.0361 48.5071 15.0605 48.7001 15.0865C48.7583 14.9641 48.5929 14.0951 48.5962 13.8691C48.6215 12.3393 48.9084 11.0553 49.9401 9.89813C50.9168 8.80282 52.4845 8.08141 53.9152 8.00477Z" fill="#FFFDF6"/>
<path d="M53.9861 8.82104C54.1818 8.84119 54.3725 8.8973 54.5478 8.98651C56.4755 9.9891 56.7399 15.9831 55.8043 17.7602C55.5559 18.2318 55.2294 18.3461 54.7688 18.4886C52.1183 18.0226 52.1315 11.2239 52.9989 9.40043C53.1358 9.1131 53.6937 8.88368 53.9861 8.82104Z" fill="#00292D"/>
<path d="M31.3599 8.22248C34.4959 7.82035 37.3646 10.033 37.768 13.165C38.1712 16.297 35.9564 19.1626 32.8206 19.5661C29.6839 19.9697 26.8136 17.7568 26.4102 14.6238C26.0068 11.4909 28.2231 8.62471 31.3599 8.22248Z" fill="#FFFDF6"/>
<path d="M31.3999 9.14264C31.7573 9.1113 31.8933 9.07748 32.2433 9.19759C32.7253 9.36306 33.3555 10.4142 33.5001 10.9309C34.0654 12.9506 34.3089 15.9829 33.6073 17.9966C33.4759 18.3739 33.0046 18.5424 32.6845 18.6614C31.8724 18.9168 31.1021 17.8919 30.8519 17.249C30.1993 15.5724 29.4147 10.0383 31.3999 9.14264Z" fill="#00292D"/>
<path d="M18.5779 5.03762C18.877 4.99151 18.9724 4.95747 19.2217 5.10657C19.4254 5.3428 19.3437 6.3735 19.3509 6.74125L19.4173 10.1667C20.0586 9.43145 20.4577 9.05551 21.3998 8.73326C22.3866 8.39504 23.6566 8.29891 24.6269 8.80364C26.8128 9.94068 25.9795 13.2569 26.171 15.2824C26.285 16.4887 26.0346 17.0417 26.4552 18.2997C26.766 18.4899 27.0115 18.5919 27.0175 18.995C26.8219 19.3605 26.334 19.3829 25.9657 19.3442C25.1272 19.2561 22.4065 19.5335 21.7877 19.2557C21.4237 18.7594 22.2425 18.3294 22.4114 17.9022C22.5771 17.483 22.4487 12.8059 22.4319 11.9762C22.2581 10.0693 20.5214 9.70165 19.6008 11.3253C19.3479 11.7712 19.4647 13.9077 19.4827 14.5352C19.512 15.5585 19.3614 17.275 19.6946 18.2092C19.9253 18.4461 20.3603 18.6035 20.3909 18.9617C20.3321 19.2135 20.1637 19.4015 19.8966 19.4C18.3893 19.3914 16.8718 19.4879 15.3672 19.4164C15.1935 19.4081 15.0983 19.379 15.0213 19.2145C14.8158 18.7754 15.415 18.5015 15.701 18.2651C15.9688 17.3101 15.8265 15.9148 15.8169 14.9043C15.7937 12.462 15.8082 9.99837 15.6834 7.55967C15.6559 7.02173 14.6044 6.29203 14.9547 5.67542C15.0135 5.57199 15.1344 5.54026 15.2441 5.51583C16.3631 5.39693 17.4635 5.19013 18.5779 5.03762Z" fill="#FFFDF6"/>
<path d="M8.92524 4.98584C10.6024 4.93621 12.6966 5.51708 13.8714 6.77368C14.6798 7.63821 15.1242 8.51629 15.0717 9.72074C15.0134 11.0598 14.1492 11.258 13.0019 11.2205C11.7356 10.3532 11.8515 9.75549 11.5311 8.42384C11.1412 6.8036 9.92501 5.27877 8.06234 5.91355C5.47022 6.83884 5.14729 11.1088 5.75978 13.3349C6.61306 16.4362 9.067 17.4909 12.0471 16.5955C12.8336 16.3909 13.541 15.9566 14.0789 15.3482C14.2796 15.1222 14.8187 14.3811 15.1159 14.396C15.1995 14.469 15.2523 14.5718 15.2396 14.6842C14.5202 21.0517 5.10376 21.2334 2.64394 15.981C2.58348 15.8519 2.49487 15.7136 2.45288 15.5837C0.729104 10.2568 2.95702 5.29041 8.92524 4.98584Z" fill="#FFFDF6"/>
<path d="M69.7396 7.89306C70.0419 7.86254 70.3464 7.85321 70.651 7.86512C72.0229 7.92814 73.2679 8.38082 74.2078 9.39396C74.9091 10.1506 75.8573 12.7253 74.3073 13.1437C73.9192 13.2484 73.0458 13.15 72.6066 13.2007C71.166 13.2251 69.6489 13.3064 68.2099 13.2114C68.3451 14.8577 68.5463 15.2605 69.6907 16.3758C73.7439 17.4607 74.3062 14.7538 75.0812 14.8396C75.2125 14.9531 75.2257 15.0238 75.2758 15.1845C74.9778 17.4526 73.1904 18.778 70.9978 18.9747C69.517 19.1115 67.7554 18.7949 66.5912 17.8169C66.3015 17.5737 65.8821 17.2446 65.6804 16.9323C63.1102 12.9554 65.1104 8.4024 69.7396 7.89306Z" fill="#FFFDF6"/>
<path d="M70.0716 8.6492C70.4739 8.63861 70.8636 8.7898 71.1533 9.06878C71.6766 9.56325 71.9014 10.4887 71.9255 11.1917C71.9761 12.6634 71.0032 12.47 69.9297 12.4819C69.3911 12.4846 68.7073 12.5365 68.1582 12.5644C68.1796 11.1149 68.4028 9.05407 70.0716 8.6492Z" fill="#00292D"/>
<path d="M63.3616 4.54505C63.4084 4.54131 63.4551 4.53807 63.5018 4.53538C63.753 4.52045 63.8343 4.51513 64.0086 4.66933C64.2785 5.46787 64.1042 8.83599 64.1603 9.91555C64.2922 12.4426 64.1608 15.0429 64.2708 17.5799C64.5659 17.9431 64.943 18.0254 65.0507 18.4158C65.0144 18.6752 65.0007 18.6239 64.821 18.8574C63.4957 18.8125 61.7522 18.8881 60.4039 18.9057C60.1258 18.9102 59.912 18.9516 59.7377 18.7015C59.6454 18.3106 60.2951 17.6855 60.4457 17.2946C60.5765 16.9565 60.4325 7.68282 60.3149 6.95872C60.2297 6.43511 59.8416 6.03848 59.6394 5.56466C59.5789 5.42308 59.552 5.28814 59.6113 5.14107C59.9681 4.75119 61.1355 4.84852 61.6549 4.78105C62.2205 4.70765 62.7971 4.61059 63.3616 4.54505Z" fill="#FFFDF6"/>
<path d="M83.5671 4.63809C83.7826 4.62887 83.9579 4.61629 84.1173 4.76199C84.2904 5.03615 84.2234 7.48545 84.2261 7.97706C85.2688 7.99358 86.3033 7.93995 87.3487 7.93479L87.3471 8.58801C86.3099 8.63248 85.2716 8.64917 84.2338 8.63814C84.1679 10.7112 84.23 12.9459 84.2481 15.0266C84.2536 15.669 84.5147 16.2287 85.1369 16.4456C86.0862 16.7766 87.1849 15.0822 87.695 15.1973L87.7494 15.3002C87.7588 15.8736 87.3201 16.9227 86.9392 17.3644C85.6338 18.6202 84.4586 19.1945 82.5871 18.6729C80.2983 18.0348 80.6077 15.5379 80.5913 13.6776L80.5533 10.2775C80.5528 9.86905 80.6303 9.23328 80.4467 8.88506C80.3428 8.68903 80.0746 8.64192 79.863 8.58379C79.7915 8.42513 79.8184 8.4466 79.8624 8.25698C80.146 7.89971 80.9705 7.1749 81.3283 6.84365C81.9753 6.24367 82.8366 5.02693 83.5671 4.63809Z" fill="#FFFDF6"/>
<path d="M78.8571 9.03729C79.0423 9.01659 79.4194 9.02455 79.6194 9.02285C79.6293 9.55739 79.5562 10.1471 79.5645 10.6895C79.5837 11.9748 79.6008 13.2549 79.6052 14.5404C79.6085 15.3574 79.5782 16.4081 79.6777 17.1974C79.9305 17.5877 80.594 18.0289 80.4219 18.5166C80.0421 18.6994 76.5452 18.6593 75.8191 18.6653C75.4833 18.6584 75.3206 18.6929 75.1002 18.4643C75.0529 18.004 75.6377 17.7673 75.8142 17.3744C76.0088 16.9408 75.8999 11.7431 75.7262 11.0999C75.5987 10.6255 75.1656 10.4433 75.0199 10.0301C74.9716 9.89341 74.9941 9.84598 75.054 9.72208C75.4948 9.45725 76.698 9.47433 77.2675 9.36975C77.8166 9.26868 78.308 9.16333 78.8571 9.03729Z" fill="#FFFDF6"/>
<path d="M77.3869 4.38969C78.4593 4.29428 79.408 5.07942 79.5135 6.14937C79.6196 7.21927 78.8424 8.17443 77.7722 8.28998C76.6872 8.40708 75.7154 7.61815 75.6082 6.53393C75.5015 5.44965 76.3002 4.48636 77.3869 4.38969Z" fill="#FFFDF6"/>
</g>
<defs>
<clipPath id="clip0_279_4725">
<rect width="88" height="24" fill="white"/>
</clipPath>
</defs>
</svg>
