<svg width="50" height="24" viewBox="0 0 50 24" fill="none" xmlns="http://www.w3.org/2000/svg">
<path d="M25.1703 8.8886C25.1818 8.88741 25.193 8.88619 25.2045 8.88499C27.4318 8.77743 29.3107 11.0699 27.8961 13.0784C27.3073 13.9144 26.3849 14.2393 25.4318 14.3125C23.8842 14.3599 22.2642 13.4344 22.1608 11.7813C22.0517 10.0372 23.5649 8.95619 25.1703 8.8886ZM25.4455 13.0877C25.9669 13.0002 26.3959 12.8344 26.7169 12.3832C26.9247 12.0922 27.0092 11.7309 26.9518 11.3779C26.8031 10.5115 25.89 10.0359 25.0631 10.1289C24.2454 10.247 23.4324 10.848 23.5615 11.7808C23.6818 12.65 24.5946 13.178 25.4455 13.0877Z" fill="#FFFDF6"/>
<path d="M16.7383 9.10649C17.0871 9.08752 17.4592 9.09869 17.8192 9.10886C18.8269 9.1373 20.1431 8.85149 20.8494 9.76778C21.1623 10.1736 21.2581 10.6221 21.0777 11.1028C21.0239 11.2885 20.9676 11.4607 21.1007 11.6275C21.656 12.3233 21.4871 13.239 20.801 13.7673C20.5476 13.9374 20.2403 14.0951 19.9335 14.1279C19.353 14.1662 19.093 14.1803 18.4649 14.176C18.1077 14.1736 16.7744 14.2935 16.4211 14.1388C16.3203 14.0947 16.3461 13.46 16.3448 13.2551C16.3451 12.6849 16.3491 12.1146 16.3567 11.5444C16.3617 10.8451 16.3417 10.1442 16.3584 9.44481C16.3658 9.13427 16.4786 9.1271 16.7383 9.10649ZM18.9148 12.9371C19.1101 12.9333 19.8333 12.9548 19.9272 12.7777C20.2763 12.1191 19.2164 12.2455 18.8872 12.2556C18.558 12.2646 17.4079 12.1088 17.8439 12.8504C17.9363 13.0076 18.728 12.944 18.9148 12.9371ZM19.2183 11.0053C19.3934 10.9929 19.5459 10.9917 19.6674 10.8479C19.8209 10.6664 19.6968 10.4979 19.5498 10.3842L19.5366 10.3742C19.2647 10.3349 18.5752 10.3234 18.2955 10.3527C17.9972 10.3603 17.7541 10.3191 17.7579 10.7389C17.7592 10.877 17.9017 10.9956 18.0354 11.0076C18.4204 11.0422 18.829 11.015 19.2183 11.0053Z" fill="#FFFDF6"/>
<path d="M29.7569 9.10712C30.1124 9.04765 32.5692 9.08965 32.9124 9.16934C33.3253 9.26517 33.7118 9.56061 33.9325 9.91968C34.0855 10.1693 34.1666 10.4498 34.16 10.7429C34.1571 10.8743 34.1502 11.0278 34.1097 11.1532C34.0489 11.3407 33.9247 11.5288 33.7967 11.6773C33.6812 11.8114 33.2144 12.1503 33.2474 12.3259C33.3185 12.7044 34.1732 13.8534 34.0899 14.1604C34.0836 14.1836 34.055 14.2018 34.0343 14.2115C33.8194 14.3127 32.9903 14.2485 32.7603 14.1843C32.5245 14.0655 32.2469 13.3484 32.0875 13.0871C31.9476 12.8586 31.8524 12.5899 31.6849 12.3575C31.4259 12.2564 30.8695 12.0895 30.7752 12.5235C30.6969 12.8837 30.8641 13.8068 30.6925 14.0773C30.6073 14.2118 29.6024 14.177 29.4574 14.0754C29.3416 13.9943 29.3546 13.6577 29.3551 13.5535C29.3595 12.2121 29.3426 10.8718 29.3624 9.53087C29.368 9.17195 29.4227 9.13504 29.7569 9.10712ZM32.4764 11.0128C32.6512 10.9423 32.6703 10.8922 32.7464 10.7128L32.7533 10.6967C32.6903 10.5599 32.6444 10.4386 32.483 10.3946C32.1534 10.3047 31.3492 10.3259 31.0064 10.3516C30.5379 10.4589 30.7264 11.175 31.44 11.0234C31.5028 11.01 32.3404 11.0202 32.4764 11.0128Z" fill="#FFFDF6"/>
<path d="M7.18585 8.86884C7.8533 8.77982 8.5921 9.01274 9.09097 9.46506C9.22833 9.58962 9.68907 10.2024 9.43685 10.3454C9.169 10.4972 8.57032 10.5727 8.25643 10.5585C7.98431 10.4014 7.90084 10.2683 7.54566 10.2137C7.31864 10.1789 6.75479 10.4163 6.80511 10.6458C6.916 11.1515 8.01007 11.0742 8.41891 11.2448C8.75042 11.3831 9.01883 11.4555 9.27877 11.725C9.97469 12.4365 9.92423 13.4922 9.23624 14.1739C8.72616 14.6884 8.0307 14.9769 7.30584 14.9745C6.82159 14.9985 6.40169 14.8709 5.99874 14.6126C5.58211 14.3456 5.10431 13.6847 5.23199 13.1816C5.27725 13.0033 6.342 12.9837 6.49705 13.0844L6.50814 13.0917C6.67061 13.1978 6.74627 13.3568 6.87213 13.4543C7.23455 13.7351 7.94935 13.6233 8.22459 13.2635C8.29117 13.1765 8.36551 13.0286 8.33963 12.9282C8.19786 12.4062 7.24315 12.4595 6.79964 12.3397C6.11131 12.1759 5.44989 11.6853 5.37765 10.9267C5.26981 9.79452 6.10003 8.98016 7.18585 8.86884Z" fill="#FFFDF6"/>
<path d="M35.5556 9.10873C35.5651 9.10824 35.5747 9.10785 35.5842 9.10756C36.1022 9.08976 36.5959 9.1279 37.1789 9.12178C37.4645 9.11876 38.8796 9.06239 39.143 9.20798C39.2495 9.26676 39.2629 10.2537 39.1174 10.3935C38.7722 10.5284 37.1799 10.3246 36.7385 10.4115C36.4028 10.4777 36.4103 10.9738 36.6296 11.0542C37.0373 11.2039 38.5502 10.9936 38.8347 11.2537C38.9238 11.452 38.988 12.3327 38.7678 12.4083C38.3957 12.5361 36.852 12.2896 36.5651 12.4542C36.4948 12.5839 36.4189 12.8765 36.5554 12.9782C36.884 13.2232 37.466 13.081 37.8669 13.1337C38.2419 13.183 38.8249 13.0739 39.1479 13.2819C39.2416 13.3693 39.2207 13.903 39.2148 14.0535C39.2094 14.1945 39.229 14.3488 39.1242 14.4468C38.7885 14.5551 37.2465 14.376 36.8156 14.3778C36.4301 14.3795 35.4587 14.353 35.135 14.2365C35.0307 13.9303 35.09 13.6138 35.0859 13.2873C35.0695 12.0242 35.0651 10.7521 35.082 9.48988C35.0869 9.11312 35.2265 9.12398 35.5556 9.10873Z" fill="#FFFDF6"/>
<path d="M41.9652 8.86899L41.983 8.8665C42.5941 8.78294 43.2101 8.98406 43.7105 9.33455C43.9481 9.50099 44.4251 10.1117 44.2511 10.3953C44.1622 10.5405 43.3314 10.5944 43.1268 10.6109C42.818 10.4845 42.7186 10.2993 42.3399 10.2268C42.0601 10.1733 41.6241 10.3041 41.6197 10.613C41.6129 11.0984 42.8778 11.1242 43.2362 11.3032C43.5819 11.476 43.8651 11.5755 44.1146 11.8964C44.7481 12.6803 44.7542 13.8052 43.9361 14.4663C43.3358 14.9514 42.7511 15.0209 42.0042 14.9456C41.1183 14.8313 40.1334 14.0961 40.0072 13.1775C39.9945 13.084 39.9928 13.0007 40.0523 12.923C40.2274 12.8101 41.213 12.8523 41.3726 13.0628C41.6886 13.4797 41.9513 13.6545 42.4998 13.6002C42.7723 13.5732 43.1839 13.3415 43.1402 12.9937C42.9786 12.4961 42.0924 12.423 41.6322 12.2966C40.3853 11.9544 39.6712 10.7199 40.5284 9.60036C40.8663 9.15899 41.4017 8.93002 41.9652 8.86899Z" fill="#FFFDF6"/>
<path d="M12.3766 9.13042C12.6965 9.12335 13.0148 9.11047 13.335 9.11315C13.6066 9.11545 13.7019 9.21323 13.8047 9.45935C14.0876 10.1365 14.3321 10.8265 14.6041 11.5087C14.8177 12.0427 15.0279 12.5781 15.2348 13.1147C15.3216 13.3373 15.6464 14.0209 15.5429 14.2068C15.4212 14.3146 14.7538 14.2911 14.5758 14.3028C13.8886 14.3481 14.2465 13.8067 13.7888 13.6185C13.7229 13.5914 13.3866 13.6075 13.2872 13.61C12.9084 13.6114 12.5022 13.6222 12.1311 13.6726C11.7882 13.6874 11.7812 14.3024 11.5638 14.3748C11.3276 14.4535 10.3762 14.6388 10.2578 14.3637C10.2618 14.2578 10.3097 14.1031 10.3456 14.0019C10.7763 12.7877 11.2484 11.5888 11.6984 10.3816C11.8384 10.0059 11.9792 9.62525 12.1439 9.26042C12.1824 9.17511 12.294 9.15345 12.3766 9.13042ZM12.9388 12.3419C13.1472 12.3224 13.3282 12.3025 13.2951 12.0306C13.2743 11.8597 13.0838 11.3593 12.9211 11.3025C12.7727 11.4645 12.3072 12.1974 12.7212 12.32C12.7707 12.3347 12.8823 12.3385 12.9388 12.3419Z" fill="#FFFDF6"/>
<path d="M27.3916 16.2067C27.5542 16.2047 27.7844 16.1626 27.8679 16.3162C27.8584 16.4743 27.6194 16.7075 27.5166 16.8338C27.3455 17.0432 27.1938 17.2676 27.063 17.5041C26.5356 18.4701 26.658 19.535 25.8931 20.4162C25.2422 21.1661 23.7179 21.1498 23.0254 20.5069C22.7732 21.0325 22.7587 21.1881 22.5823 21.7035C22.5025 21.7565 22.5172 21.7644 22.4355 21.7653C22.3229 21.6344 22.417 21.2723 22.4697 21.117C22.8103 20.1118 23.5099 19.2252 24.2586 18.4865C24.6641 18.1169 25.0742 17.7974 25.5608 17.5416C25.6601 17.4894 25.7737 17.4035 25.7388 17.279C25.7356 17.2777 25.7327 17.2762 25.7297 17.2751C25.6145 17.2325 25.3318 17.41 25.2307 17.4695C24.5281 17.8829 23.9232 18.4474 23.4191 19.0849C23.2793 19.2617 22.8448 19.9704 22.7222 20.0314C22.4534 19.9996 22.3618 19.3733 22.3633 19.1499C22.3805 16.6407 25.4829 16.2527 27.3916 16.2067Z" fill="#FFFDF6"/>
<path d="M29.956 5.11023C30.5361 5.0226 31.0778 5.42079 31.1667 6.00026C31.2556 6.57975 30.8581 7.12172 30.2783 7.21167C29.6967 7.30189 29.1523 6.90343 29.0632 6.32231C28.9741 5.74118 29.374 5.19814 29.956 5.11023ZM30.2133 6.88016C30.5876 6.82836 30.8606 6.49975 30.8423 6.12265C30.8327 5.92292 30.7414 5.73589 30.5898 5.60528C30.4384 5.4747 30.2397 5.41197 30.0405 5.43182C29.7778 5.45801 29.5495 5.62401 29.4438 5.86592C29.3381 6.10782 29.3716 6.38787 29.5312 6.59821C29.6906 6.80855 29.9516 6.91638 30.2133 6.88016Z" fill="#FFFDF6"/>
<path d="M27.0189 5.07617C27.4201 5.13703 28.0148 4.99159 28.3275 5.24576C28.7694 5.64932 28.6928 6.0259 28.31 6.4189C28.007 6.73 28.5956 6.77525 28.6322 7.0669C28.5624 7.23344 28.4367 7.18215 28.2995 7.1419C27.9372 6.97049 28.0219 6.78398 27.8429 6.61534C27.7789 6.55425 27.6928 6.522 27.6044 6.52617C27.0856 6.54737 27.4249 6.89617 27.2313 7.17817C27.1825 7.24954 27.0416 7.19193 26.9921 7.14112C26.9586 6.96183 26.9689 5.18105 27.0189 5.07617ZM27.3226 5.43176L27.2955 6.2121C27.4584 6.22088 27.7777 6.24585 27.9269 6.23725C28.5072 6.04476 28.3478 5.36488 27.6684 5.42561C27.5468 5.43168 27.445 5.43734 27.3226 5.43176Z" fill="#FFFDF6"/>
<path d="M23.4455 5.104C23.7886 5.07524 24.1403 5.14095 24.3383 5.45841C24.3848 5.53295 24.4372 5.63168 24.4172 5.71782C24.1978 5.88917 23.9365 5.41422 23.6207 5.43229C23.4335 5.44302 23.1505 5.54073 23.142 5.76802C23.2583 6.00968 23.8822 5.96436 24.1446 6.12585C24.6596 6.44292 24.4187 7.039 23.871 7.18297C23.8406 7.19004 23.81 7.19668 23.7793 7.20287C23.3946 7.27975 22.6071 6.92795 22.899 6.55529C23.0246 6.52841 23.2501 6.72422 23.3686 6.81268C23.6303 7.00809 24.1874 6.83224 24.0691 6.46524C23.8509 6.25444 23.0089 6.39131 22.8708 5.96161C22.7103 5.46195 23.0493 5.24758 23.4455 5.104Z" fill="#FFFDF6"/>
<path d="M32.2346 5.10365C32.5893 5.08102 32.8801 5.16367 33.1343 5.43389C33.2136 5.51816 33.2288 5.68672 33.1313 5.76394C32.9333 5.78524 32.7139 5.45465 32.4477 5.43416C32.2419 5.41833 31.9639 5.51653 31.9372 5.75187C32.0452 6.02697 32.6865 5.96165 32.9558 6.14548C33.4824 6.50497 33.1396 7.06577 32.6118 7.19477C31.8894 7.35946 31.397 6.63785 31.7278 6.55119C31.969 6.59772 32.2151 6.96994 32.4839 6.90541C32.6655 6.86182 32.9199 6.69531 32.8696 6.47528C32.8052 6.39987 32.7219 6.38726 32.6279 6.37153C32.2693 6.31148 32.0122 6.27602 31.6973 6.08541L31.6916 6.07167C31.4719 5.52704 31.7485 5.27604 32.2346 5.10365Z" fill="#FFFDF6"/>
<path d="M18.0192 5.14233C18.1117 5.14626 18.2022 5.14272 18.2842 5.18541C18.2935 5.19836 18.3047 5.21407 18.3179 5.23248C18.3395 5.82038 18.2766 6.61719 18.3255 7.18499C17.8966 6.81833 17.3637 6.29214 16.9429 5.90016C16.9028 6.23916 16.9583 6.77816 16.9221 7.17294C16.8037 7.17736 16.7059 7.1969 16.6172 7.12755C16.5943 6.93472 16.6067 6.61141 16.6082 6.40953L16.6155 5.17138C16.7686 5.26958 16.9175 5.42975 17.0538 5.55426C17.3592 5.83311 17.6461 6.13014 17.97 6.38809C17.981 6.15197 17.9373 5.30236 18.0192 5.14233Z" fill="#FFFDF6"/>
<path d="M21.1465 5.14355C21.4674 5.1699 22.0337 5.14958 22.3743 5.14585C22.3805 5.24426 22.3669 5.3899 22.3605 5.49175C22.0613 5.48646 21.7621 5.48626 21.4629 5.49112C21.4545 5.65877 21.46 5.82794 21.4631 5.99587C21.6879 6.00675 21.9039 5.99355 22.1268 5.99992C22.2659 6.0039 22.296 6.16699 22.2678 6.27677C22.0755 6.44321 21.5474 6.20097 21.4546 6.40877C21.4554 6.55407 21.4585 6.69933 21.464 6.84451C21.7257 6.83285 22.0681 6.85063 22.346 6.84687L22.3702 7.16755C22.0366 7.1936 21.4913 7.18412 21.1458 7.18941C21.0846 6.77285 21.1357 5.57899 21.1465 5.14355Z" fill="#FFFDF6"/>
<path d="M19.1753 5.16534C19.1668 5.57917 19.1131 6.23907 19.2664 6.62956C19.3097 6.73978 19.5016 6.85456 19.6205 6.87429C20.6886 7.05153 20.0514 5.32458 20.4097 5.12158C20.4931 5.12258 20.517 5.14453 20.5877 5.18841C20.6285 5.26446 20.6136 5.46992 20.6127 5.56697C20.6185 5.82883 20.6506 6.39802 20.5668 6.60558C20.1022 7.75617 18.6014 7.16909 18.8573 5.96522C18.9038 5.74631 18.7923 5.39663 18.8738 5.14656L19.1753 5.16534Z" fill="#FFFDF6"/>
<path d="M29.8443 18.7612C30.4806 18.7066 30.753 19.3259 30.5023 19.845C30.3953 20.066 30.2562 20.1263 30.0401 20.1943C29.2054 20.2433 28.9718 19.03 29.8443 18.7612ZM29.9742 19.9773C30.5828 19.7167 30.4351 18.9887 29.912 18.9775C29.6195 19.0885 29.4469 19.3739 29.5653 19.6774C29.6136 19.798 29.7088 19.894 29.8292 19.9433C29.8824 19.9655 29.9163 19.9735 29.9742 19.9773Z" fill="#FFFDF6"/>
<path d="M32.1822 18.7634C32.501 18.7537 32.7588 18.902 32.8602 19.2153C32.9256 19.4207 32.9078 19.6437 32.8106 19.8362C32.6937 20.062 32.565 20.1224 32.3428 20.1935C32.1778 20.1988 32.1075 20.19 31.961 20.1052C31.7991 20.0098 31.6827 19.8535 31.6377 19.6713C31.5281 19.2422 31.7552 18.8711 32.1822 18.7634ZM31.813 19.5013C31.9036 19.7825 31.9778 19.9431 32.2999 19.983C32.8675 19.7475 32.7933 18.9853 32.2107 18.9805C31.9219 19.0843 31.8936 19.2166 31.813 19.5013Z" fill="#FFFDF6"/>
<path d="M24.8076 5.14457C25.0369 5.14362 26.3389 5.1052 26.4512 5.19645C26.4868 5.27818 26.5095 5.38547 26.448 5.4555C26.3059 5.50535 25.9707 5.4914 25.8111 5.49135C25.7832 5.69255 25.8042 6.2664 25.8047 6.50603C25.8101 6.74862 25.7976 6.94072 25.7815 7.18113C25.6934 7.18879 25.5637 7.18335 25.4722 7.18228C25.4571 6.64281 25.4771 6.05255 25.4683 5.49696C25.2764 5.4795 24.9903 5.48615 24.7913 5.48489C24.7891 5.3824 24.801 5.24913 24.8076 5.14457Z" fill="#FFFDF6"/>
<path d="M18.3885 18.8085C18.6407 18.7873 19.1864 18.845 19.0908 19.2117C18.9639 19.3143 18.7259 19.0083 18.5389 19.0157C18.3974 19.0213 18.2748 19.0979 18.2653 19.2472C18.3797 19.4512 19.3188 19.348 19.0794 19.9326C19.0149 20.0901 18.9325 20.1248 18.7823 20.1919C18.5272 20.2738 17.9672 20.1785 18.0586 19.8121C18.1622 19.7229 18.4466 20.0184 18.6149 20.0009C18.7465 19.9872 18.8751 19.9218 18.8823 19.7757C18.7611 19.5764 17.817 19.6731 18.059 19.0813C18.1213 18.9291 18.2446 18.8672 18.3885 18.8085Z" fill="#FFFDF6"/>
<path d="M17.568 18.8181C17.6523 18.8175 17.6186 18.8103 17.6985 18.8565C17.7394 18.9372 17.7348 18.9035 17.7246 18.9856C17.6144 19.0921 17.2861 19.0471 17.0902 19.0524L17.0831 19.392C17.2463 19.3948 17.5196 19.3725 17.6337 19.4495C17.6621 19.5362 17.6694 19.5179 17.6527 19.5984C17.5552 19.6607 17.3148 19.5629 17.1909 19.6305C17.0808 19.6906 17.0473 19.8325 17.1003 19.9399C17.1645 19.9844 17.2808 19.9716 17.364 19.9708C17.4879 19.9704 17.6225 19.9459 17.7069 20.0405C17.7203 20.1177 17.7269 20.0889 17.686 20.1492C17.5212 20.2382 17.0718 20.2011 16.8662 20.1964C16.868 19.7415 16.8721 19.2866 16.8786 18.8318C17.1083 18.8228 17.3381 18.8182 17.568 18.8181Z" fill="#FFFDF6"/>
<path d="M28.4465 18.7598C29.0845 18.734 29.084 19.2248 28.7927 19.6572C28.7239 19.7594 28.6499 19.8607 28.5774 19.9608C28.7126 19.946 28.9377 19.8884 28.9927 20.0372C28.9868 20.0574 28.9744 20.1127 28.9631 20.1217C28.8564 20.2075 28.4053 20.1648 28.2654 20.1602C28.2534 20.1634 28.2197 20.1622 28.2053 20.1623C28.1379 19.9618 28.9868 19.3165 28.6826 19.0072C28.4802 18.9438 28.3364 19.1678 28.1814 19.1695L28.1602 19.1369C28.1797 18.9143 28.2561 18.8579 28.4465 18.7598Z" fill="#FFFDF6"/>
<path d="M19.3863 18.8008C19.6441 18.8437 20.3697 18.7388 20.5205 18.9077C20.5267 18.978 20.5335 18.9493 20.4838 19.0161C20.382 19.0596 20.168 19.0477 20.0463 19.0476C20.0392 19.2723 20.0476 19.5348 20.0491 19.7623C20.0521 19.8971 20.0791 20.1125 19.9907 20.2094C19.9084 20.2172 19.9399 20.2263 19.8734 20.1745C19.7825 19.9922 19.8212 19.315 19.82 19.0621C19.6442 19.04 19.482 19.1 19.3674 18.9884C19.3451 18.9135 19.3641 18.8744 19.3863 18.8008Z" fill="#FFFDF6"/>
<path d="M31.0291 18.7759C31.1233 18.779 31.155 18.7769 31.2163 18.8319C31.2493 19.055 31.2495 19.8604 31.2012 20.1255C31.1914 20.1788 31.1348 20.1926 31.0876 20.2126C30.9287 19.9585 31.0715 19.5501 31.0286 19.2546C31.0149 19.16 30.9353 19.1924 30.8926 19.0729C30.9333 18.9687 30.98 18.876 31.0291 18.7759Z" fill="#FFFDF6"/>
<path d="M34.5221 6.02228C34.7667 6.03389 35.3499 5.94655 35.5018 6.10867C35.523 6.18511 35.5086 6.21109 35.4837 6.28426L35.2518 6.29472C35.099 6.30082 34.6004 6.33879 34.5094 6.25479C34.482 6.16716 34.5023 6.11221 34.5221 6.02228Z" fill="#FFFDF6"/>
<path d="M14.2937 6.02928C14.5269 6.02933 15.1408 5.94513 15.2773 6.11774C15.2903 6.19735 15.2799 6.21418 15.2503 6.28589C15.0211 6.29359 14.3991 6.37496 14.2581 6.2105C14.2431 6.13142 14.2626 6.10162 14.2937 6.02928Z" fill="#FFFDF6"/>
<path d="M20.9011 19.9668C20.9429 19.9399 20.9963 19.9384 21.0396 19.963C21.0828 19.9877 21.1088 20.0343 21.1069 20.084C21.1051 20.1337 21.0757 20.1782 21.0307 20.1996C20.9671 20.2297 20.891 20.2054 20.8567 20.1439C20.8225 20.0824 20.8419 20.0049 20.9011 19.9668Z" fill="#FFFDF6"/>
</svg>
