<svg width="57" height="24" viewBox="0 0 57 24" fill="none" xmlns="http://www.w3.org/2000/svg">
<path d="M31.35 8.09453C31.8637 7.61767 32.3621 7.25762 33.0621 7.08521C34.4086 6.75344 35.4821 7.40293 35.7333 8.81661C36.0625 10.6686 35.2011 12.8306 34.337 14.4434C34.1474 14.7968 33.8201 15.1881 33.5908 15.5336C34.0646 15.3234 34.1371 15.2128 34.5138 14.9154C35.686 13.9905 35.7453 13.1172 36.2308 11.8538L37.318 9.08211C37.4546 8.74289 37.589 8.36901 37.7785 8.05583C38.3285 7.14677 39.8658 7.31583 40.4374 8.09943C40.8385 7.6013 41.5929 7.19943 42.2237 7.0669C43.6239 6.77266 44.6164 7.52519 44.8205 8.9755C45.0779 10.8046 44.2108 12.9496 43.3415 14.5388C43.1772 14.839 42.8382 15.2619 42.6298 15.5516C43.291 15.2249 44.4631 14.2801 44.7318 13.5915C45.2356 12.3004 45.583 10.8539 46.2124 9.59127C46.4846 9.04472 46.7027 8.39138 47.1042 7.9151C47.2236 7.77582 47.3725 7.66496 47.5401 7.59061C48.2168 7.28443 49.3219 7.43352 49.6865 8.1623C49.7278 8.2454 49.7627 8.43668 49.7387 8.52801C49.5547 9.22566 49.1963 9.86771 48.9163 10.5295C48.6854 11.1079 48.4636 11.6918 48.2309 12.2707C48.0852 12.6426 47.5392 14.4298 47.8599 14.6813C48.2018 14.8119 48.9803 13.8322 49.2444 13.5617C49.5459 13.2167 49.7948 12.7315 50.1404 12.4418C50.338 12.3458 50.6106 12.3832 50.7753 12.473C51.3797 12.8025 50.6063 13.6216 50.3084 14.0529C49.3912 15.3822 47.958 17.1441 46.3347 17.5607C45.3067 17.8245 44.522 17.0888 44.4799 16.1066C44.4756 15.9995 44.4698 15.7962 44.4509 15.6995C44.4155 15.6851 44.4001 15.6805 44.3643 15.71C43.9169 16.0787 43.348 16.4583 42.8292 16.7254C41.6451 17.3354 40.371 17.6947 39.0305 17.6007C38.2246 17.5442 38.066 17.344 37.5597 16.7738C37.4581 16.9976 37.4182 17.319 37.3431 17.5655C37.0137 18.6493 36.6925 19.7222 36.4647 20.8333C36.3809 21.2429 36.2973 21.7592 35.8573 21.9309C35.2879 22.1531 34.5706 21.802 34.1581 21.4078C33.5823 20.846 33.6732 20.3115 33.8457 19.6057C33.9279 19.2716 34.017 18.9392 34.1126 18.6086C34.3317 17.8439 34.5129 17.0757 34.7613 16.3201C34.7791 16.2654 34.7925 16.2308 34.7715 16.1751C34.6526 16.1279 34.3241 16.3968 34.1835 16.4827C33.3902 16.9667 32.2435 17.4327 31.3274 17.5452C30.6648 17.6266 29.5363 17.7236 28.9942 17.2955C28.8091 17.1493 28.6791 16.9398 28.5122 16.8143C28.4369 16.8488 28.3887 17.125 28.3672 17.2068C28.0629 18.3811 27.6762 19.5007 27.4294 20.6951C27.2559 21.5353 27.1426 22.1789 26.0571 21.9499C25.4035 21.8121 24.6044 21.1297 24.6449 20.4049C24.6946 19.6299 25.0157 18.8711 25.1885 18.1239C25.3334 17.4979 25.554 16.8856 25.6967 16.2716C25.4899 16.405 25.3585 16.5816 25.1637 16.7328C24.4407 17.2942 23.5293 17.8524 22.5867 17.4842C22.1113 17.2953 21.9656 16.8112 21.6883 16.4362C21.6269 16.3532 21.3737 16.6653 21.3141 16.7131C20.3802 17.4642 19.0526 18.0105 17.9731 17.2057C17.4777 16.8364 17.1264 16.1607 17.0415 15.5548C16.9766 14.8954 16.9887 14.0901 17.0712 13.4228C17.3921 11.8832 17.9846 10.197 18.9442 8.93855C19.7258 7.91364 20.7446 7.18798 22.0329 7.02309C23.1375 6.94101 23.8048 7.28233 24.0557 8.39863C24.5101 7.55805 25.0738 7.30394 26.0446 7.50423C26.4738 7.59276 27.1391 8.04249 26.9974 8.55712C26.759 9.42267 26.2501 10.2259 25.9697 11.0853C25.8422 11.4693 25.6284 11.8526 25.5008 12.2395C25.3855 12.5892 25.2944 12.938 25.1932 13.2913C25.0986 13.6847 24.9286 14.2572 25.0446 14.6474C25.1111 14.8714 25.5767 14.5155 25.6603 14.4389C25.9925 14.1182 26.4584 13.6527 26.6506 13.2271C26.9459 12.5728 27.158 11.8116 27.4409 11.1431C27.5549 10.9028 27.6241 10.5068 27.7445 10.2817C28.0878 9.63939 28.3406 8.65482 28.7112 8.06061C28.8082 7.90445 28.9388 7.77194 29.0935 7.67279C29.7517 7.24471 30.9227 7.43172 31.35 8.09453ZM20.3049 15.5904C21.5006 14.8737 22.4184 12.2826 22.7701 10.9894C22.8773 10.595 23.2031 8.97065 22.7726 8.77166C21.5658 9.34143 20.2111 12.946 20.1057 14.3109C20.0906 14.5064 20.0466 15.4625 20.193 15.574C20.2378 15.5852 20.2584 15.5931 20.3049 15.5904ZM38.8507 15.7258C39.0167 15.5977 39.3316 15.375 39.4576 15.2173C40.6796 13.6893 41.5126 11.7929 41.8778 9.87466C41.9081 9.71614 41.9863 8.89921 41.713 8.90387C40.2955 9.63011 38.3943 13.8981 38.7279 15.6304C38.7366 15.6767 38.8054 15.7163 38.8507 15.7258ZM29.7951 15.7152C30.3388 15.3012 30.3827 15.2583 30.7839 14.6989C31.2401 14.0631 31.552 13.4255 31.9154 12.7347C32.1151 12.3553 33.3634 8.9673 32.6401 8.89905C31.2935 9.60607 29.2941 13.9017 29.6672 15.6359C29.6723 15.66 29.7182 15.6967 29.7392 15.7104L29.7951 15.7152Z" fill="#FFFDF6"/>
<path d="M12.5116 2.00293C12.5529 1.99314 12.8637 2.01064 12.9195 2.01526C13.8212 2.08999 14.8299 2.27882 15.6544 2.69293C16.4879 3.1067 17.5155 3.93268 17.7949 4.92012C18.5927 7.74022 16.4466 10.0698 14.2199 11.1079C13.7586 11.323 13.2923 11.4974 12.841 11.6651C12.8929 11.9911 12.899 12.4305 12.9314 12.7818C13.2219 15.9359 14.9519 19.626 18.4731 18.2505C19.0541 18.0236 19.4374 17.4856 19.972 18.0955C19.9982 18.2523 20.0378 18.5633 19.9191 18.6855C18.3486 20.3024 15.983 21.5684 13.7817 20.7374C11.8552 20.0101 10.7725 17.7312 10.3469 15.7102C10.238 15.1928 10.196 14.6291 10.1124 14.1022L10.0791 14.0901C9.85973 14.211 9.42985 16.9096 9.26474 17.2662C8.87053 18.1174 7.37008 17.7006 6.9238 17.1012C6.87056 17.0297 6.78178 16.9745 6.731 16.9049C6.43107 16.4937 6.48304 15.9423 6.5235 15.4596C6.63428 14.5338 6.88371 13.6606 7.1246 12.7678C7.22071 12.4116 7.30571 12.0521 7.41227 11.6992C7.56449 11.1952 7.74232 10.7019 7.90316 10.2013C8.31846 8.90884 8.7597 7.63105 9.28924 6.38707C9.41846 6.08349 9.51645 5.73481 9.68135 5.45491C9.86639 5.14083 10.0695 5.00529 10.4051 4.92561C10.8928 4.80982 12.1664 4.79161 12.5789 5.08145C12.7203 5.1808 12.8311 5.37016 12.8247 5.55589C12.8126 5.90209 12.2174 7.2385 12.0571 7.64248C11.9003 8.03766 11.7845 8.44525 11.6404 8.84517C11.4789 9.29344 11.2888 9.73801 11.1468 10.1936C11.1272 10.2567 11.1 10.3288 11.1137 10.3956C11.3256 10.4404 12.4597 9.56458 12.693 9.36411C12.8776 9.20695 13.0516 9.03604 13.2139 8.85263C13.9954 7.95642 14.5256 6.8617 14.4862 5.60489C14.47 5.08773 14.313 4.46325 13.9396 4.1159C13.479 3.68748 12.7162 3.5676 12.1259 3.59235C9.92916 3.69133 8.1891 5.64312 7.48691 7.76581C7.38585 8.07133 7.31176 9.089 7.16572 9.2371C6.67029 9.73956 5.90355 9.41907 5.48312 8.95306C5.11763 8.54794 4.99708 8.18729 5.00056 7.61184C4.97513 6.34835 5.8268 5.17776 6.61765 4.33122C7.14018 3.78572 7.66341 3.42596 8.3044 3.05389C9.68667 2.25154 10.9522 2.0133 12.5116 2.00293Z" fill="#FFFDF6"/>
<path d="M49.6481 2.03155C50.7401 1.83635 51.7823 2.56739 51.9706 3.66064C52.159 4.75389 51.4214 5.79146 50.3269 5.9728C49.242 6.15252 48.2159 5.4229 48.0293 4.33941C47.8427 3.25591 48.5657 2.225 49.6481 2.03155Z" fill="#FFFDF6"/>
</svg>
