<svg width="56" height="24" viewBox="0 0 56 24" fill="none" xmlns="http://www.w3.org/2000/svg">
<path d="M37.1756 2.72674C38.3123 2.6994 39.5299 2.63395 40.4746 3.39991C41.1155 3.93008 41.696 4.99713 41.824 5.81012C41.9451 6.58154 42.1305 7.52194 42.1943 8.30053C42.3362 9.86243 42.2413 11.4366 41.9129 12.9706C41.8032 13.4691 41.731 13.8516 41.4762 14.3054C40.9014 15.3276 40.0286 16.0508 38.8239 16.1404C38.7038 16.1516 38.5832 16.1608 38.4629 16.168C37.3098 16.231 36.215 16.1769 35.2894 15.3811C33.9906 14.2641 33.7787 12.2855 33.6854 10.6244C33.5741 8.64405 33.7932 5.12017 35.1007 3.49806C35.5847 2.89784 36.4501 2.76185 37.1756 2.72674ZM38.1919 13.3644C40.2542 13.2741 39.8807 6.76045 38.9179 5.59423C38.6948 5.32431 38.1053 5.3166 37.764 5.3327C37.5032 5.37244 37.227 5.40592 37.0583 5.63289C36.798 5.98355 36.6593 6.3976 36.5623 6.81782C36.3722 7.6393 36.1764 10.5169 36.2959 11.2734C36.4045 11.961 36.5404 12.7301 37.1515 13.1646C37.4332 13.3648 37.854 13.4113 38.1919 13.3644Z" fill="white"/>
<path d="M25.5368 2.97507C25.8234 2.94422 26.1684 2.95264 26.46 2.95202C28.12 2.94854 30.0942 2.91721 30.9974 4.59651C31.8396 6.18759 31.7789 8.0783 30.3056 9.28712C30.1535 9.41195 29.6482 9.67753 29.6042 9.78811C29.657 9.97595 30.0376 10.4329 30.1686 10.6186L31.6804 12.7426C31.7335 12.8184 31.7947 12.9148 31.8415 12.9981C32.1447 13.5376 32.7233 14.1636 32.8242 14.7801C32.8554 15.288 32.0198 15.7598 31.6648 15.9858C30.6665 16.6218 29.8782 15.0061 29.401 14.3734C29.2963 14.2346 29.1771 14.1403 29.0932 13.9834C28.9947 13.7903 28.7046 13.3764 28.5788 13.1813L27.5321 11.5329C27.3293 11.2118 27.041 10.7833 26.8787 10.4516C26.682 10.4645 26.5739 10.4748 26.3799 10.4492C26.4461 11.6641 26.3788 12.9237 26.5367 14.1243C26.6114 14.6555 26.614 15.3843 26.2874 15.8385C26.0913 16.1112 25.5888 16.1397 25.2747 16.1344C24.8099 16.1265 24.2431 16.1658 23.8486 15.8821C23.6686 15.7525 23.6789 15.4633 23.6488 15.2623C23.6098 14.5124 23.6199 13.7563 23.6202 13.0053L23.6237 9.22375L23.6256 6.26228C23.6249 5.50356 23.503 4.10217 23.9837 3.47293C24.2971 3.0627 25.0463 3.00832 25.5368 2.97507ZM26.4044 5.15893C26.415 6.02632 26.4577 7.13497 26.4211 7.9786C27.0217 7.97961 27.8731 7.94836 28.3888 7.59881C28.7065 7.39595 29.0193 7.1922 29.0822 6.7966C29.2403 5.8002 28.5312 5.35747 27.6828 5.19911C27.3907 5.14538 27.093 5.12679 26.7963 5.14367C26.6707 5.15016 26.5287 5.16089 26.4044 5.15893Z" fill="white"/>
<path d="M4.75163 2.96666C5.39525 2.92499 6.66252 2.82839 6.68314 3.73727C6.71048 4.94267 6.69802 6.17745 6.59723 7.37941C6.61287 7.35826 6.62878 7.33735 6.64502 7.31666C7.17653 6.6401 7.80615 6.01654 8.43552 5.37266C9.13656 4.65546 10.14 3.23384 11.1755 3.00739C11.7145 2.88951 12.5779 3.53099 12.6122 4.08723C12.6491 4.96724 11.732 5.65711 11.2314 6.2359C10.5128 7.06697 9.5489 7.87635 8.87485 8.70446C9.13 9.05433 9.4701 9.35235 9.73339 9.70189C9.81408 9.809 9.95438 9.93342 10.0482 10.0372C10.7079 10.7665 11.3591 11.5034 12.0013 12.248C12.6216 12.9601 13.7527 13.9863 13.6229 14.9956C13.5242 15.5309 12.5987 16.0824 12.084 16.1232C11.7379 16.1506 11.2436 15.6622 11.0316 15.4248C9.8277 14.0757 8.77021 12.602 7.63027 11.2C7.37909 10.891 7.15879 10.5028 6.88445 10.22L6.57743 10.4903L6.69271 13.733C6.71057 14.1292 6.87961 15.6367 6.62782 15.8622L6.61555 15.873C6.51047 15.9668 6.3117 16.0876 6.12694 16.0993C5.66396 16.1402 4.47762 16.1874 4.09847 15.964C3.73486 15.7498 3.79922 13.7695 3.79947 13.4016L3.81123 10.2957L3.81139 6.36253C3.81136 5.66419 3.8001 4.9357 3.82673 4.24059C3.83622 3.99223 3.88492 3.43917 4.03298 3.25162C4.21269 3.024 4.48621 3.00888 4.75163 2.96666Z" fill="white"/>
<path d="M47.2251 2.64461C49.3112 2.37567 51.3021 3.35319 51.5586 5.56594C51.7057 6.83474 49.8529 6.96959 49.2363 6.46211C49.0129 5.98062 49.0659 5.22924 48.6659 4.97941C48.0039 4.56579 47.1469 4.74068 46.7316 5.40337C46.5692 5.66284 46.5063 5.85864 46.5068 6.14756C46.5085 7.28786 47.8084 7.9572 48.5994 8.57792C49.6224 9.38023 50.7752 10.0592 51.4396 11.2201C51.6346 11.5609 51.8293 11.9173 51.8998 12.3062C52.2963 14.4868 50.6155 15.906 48.6394 16.2371C48.5267 16.2529 48.4138 16.2655 48.3003 16.2748C46.7231 16.3883 45.1522 15.7321 43.9589 14.727C43.656 14.4719 43.505 14.1109 43.4793 13.7199C43.4465 13.3846 43.633 12.5994 43.9081 12.3677C45.2747 11.2172 46.2916 13.6894 47.649 13.6674C47.9467 13.6626 48.4583 13.3871 48.5907 13.2058C49.6125 11.8129 47.4086 10.7504 46.4956 10.1049C45.1973 9.18717 44.0109 8.49907 43.8695 6.76942C43.6784 4.43039 44.8369 2.84675 47.2251 2.64461Z" fill="white"/>
<path d="M14.8477 2.94238C15.0747 2.9653 15.3355 3.08934 15.4788 3.27013C15.9013 3.80321 16.1933 4.40812 16.5299 4.99126C16.9941 5.80813 17.4905 6.60651 18.018 7.38458C18.384 6.62589 18.9003 5.84348 19.3347 5.09782C19.6745 4.51465 20.1141 3.68228 20.5611 3.18431C20.7045 3.0247 20.98 2.96226 21.1913 2.9698C21.5847 2.98384 22.1581 3.30379 22.4216 3.58476C22.5705 3.74356 22.7699 4.02388 22.7606 4.2478C22.7517 4.46427 22.671 4.69989 22.5655 4.88956C22.1522 5.63312 21.6229 6.34783 21.1524 7.05941C20.8191 7.56344 20.5313 8.0817 20.1806 8.58293C19.9251 8.94817 19.6381 9.34042 19.422 9.73243C19.3987 9.77481 19.3915 9.97797 19.3887 10.0385C19.4208 11.5148 19.5104 12.992 19.5303 14.4685C19.5362 14.9072 19.5647 15.3122 19.4748 15.7464C19.3895 15.8434 19.3078 15.9393 19.1873 15.9922C18.6401 16.2324 17.4346 16.1458 16.9021 15.9576C16.6366 15.6508 16.5537 15.4778 16.5404 15.0684C16.5173 14.3536 16.5287 13.6394 16.5283 12.9243C16.5276 11.785 16.4736 10.6439 16.4663 9.50524L14.6572 6.7617C14.2812 6.19427 13.9185 5.6527 13.5724 5.06304C12.9312 3.97083 13.7077 3.05497 14.8477 2.94238Z" fill="white"/>
<path d="M31.5473 17.762C31.7283 17.7668 31.8407 17.813 32.0108 17.8702C32.2793 18.2742 31.9627 20.3109 32.2615 20.9494C32.3488 21.1356 32.5035 22.0198 32.1858 22.1156C31.579 22.0371 31.287 20.7588 31.2648 20.2638C31.1423 20.6422 30.8757 22.4574 30.2302 22.0871C29.7071 21.7871 29.639 20.4838 29.4552 19.9219C29.3582 20.2478 29.3502 20.7008 29.3393 21.0475C29.3237 21.2394 29.3254 22.0776 29.2403 22.1736C29.1897 22.1955 29.1435 22.2069 29.088 22.2097C28.9827 22.2149 28.8411 22.2046 28.761 22.1286C28.648 22.0215 28.6497 20.9962 28.6494 20.7896C28.6491 20.3912 28.8851 18.4472 29.1561 18.1863C29.2816 18.0653 29.4492 18.018 29.6215 18.0256C29.7519 18.0313 29.9359 18.0596 30.0278 18.1609C30.0305 18.164 30.0333 18.1672 30.036 18.1703C30.1561 18.3019 30.3702 20.5611 30.45 20.9578C30.6379 20.4693 30.8853 19.707 31.022 19.2042C31.1464 18.7475 30.9922 18.4082 31.2867 17.8909L31.5473 17.762Z" fill="white"/>
<path d="M27.3806 18.0273C27.9879 18.0393 27.8255 18.4884 27.8066 18.9274C27.7924 19.2908 27.7837 19.6544 27.7804 20.0181C27.7763 20.5708 27.8151 21.1068 27.8605 21.6553C27.8922 22.0391 27.65 22.3705 27.3027 21.9914C26.7761 21.4164 27.0099 20.459 27.0397 19.747L26.5319 21.194C26.4507 21.4296 26.3564 21.7658 26.249 21.984C26.1281 22.2295 25.4712 21.9281 25.311 21.8468C25.0489 21.2203 25.2316 19.9134 25.1206 19.7684C25.037 19.848 24.8787 20.7749 24.8245 20.9926C24.6984 21.4145 24.7176 21.838 24.5835 22.2506C24.5373 22.3927 24.3246 22.4192 24.2039 22.3536C23.8311 22.1512 23.9831 21.6909 24.0413 21.3637C24.2633 20.3771 24.329 19.3923 24.7366 18.4552C24.8181 18.0744 25.7302 17.8693 25.7725 18.3317C25.8579 19.2637 25.6572 20.308 25.9031 21.2214C26.3626 20.2963 26.5998 19.3772 26.982 18.4247C27.089 18.1582 27.1245 18.131 27.3806 18.0273Z" fill="white"/>
<path d="M34.6242 21.9846C34.5561 22.1021 34.4199 22.3199 34.2895 22.3475C33.9176 22.4262 33.2411 22.1229 33.1432 21.749C32.8993 20.8292 33.0101 19.835 33.0888 18.8991C33.1421 18.2674 33.1651 17.5878 34.0141 18.0731C34.0929 18.5749 34.0133 19.2134 33.9682 19.7262C33.9403 20.0407 33.6114 21.3415 33.9723 21.5197C34.5454 21.4119 34.7661 18.58 35.138 18.1398C35.2233 18.0387 35.5875 18.1092 35.7275 18.1342C35.8268 18.61 35.6411 19.214 35.5804 19.7047C35.5107 20.1288 35.491 20.5552 35.4669 20.9807C35.45 21.2784 35.7808 22.0078 35.7075 22.2136C35.614 22.3236 35.4806 22.3768 35.3441 22.4156C34.9826 22.5185 34.931 22.0703 34.8774 21.8301C34.8634 21.7794 34.838 21.6733 34.8153 21.6327L34.6242 21.9846Z" fill="white"/>
<path d="M21.0386 18.1134C21.3005 18.0997 21.3978 18.1134 21.6488 18.1826C21.7374 18.8286 21.6143 19.5181 21.5777 20.168C21.5623 20.4418 21.3909 21.4723 21.6529 21.6374C21.8604 21.5589 22.2155 20.5532 22.2548 20.3347C22.3729 19.6778 22.481 19.079 22.7077 18.4432C23.0338 18.2119 23.2719 18.2218 23.4526 18.5772C23.4088 18.9585 23.3193 19.7041 23.2427 20.0568C23.2357 20.3419 23.1803 20.5726 23.1616 20.8519C23.1463 21.1818 23.2346 21.5087 23.2966 21.8305C23.3125 21.9632 23.4324 22.2188 23.3533 22.3409C23.3191 22.3938 23.2006 22.4224 23.1471 22.4363C22.5329 22.5971 22.5502 22.0431 22.4804 21.6005C22.2488 22.0863 22.2447 22.5255 21.5712 22.3864C20.7801 22.2229 20.777 21.7239 20.6957 21.05C20.6326 20.473 20.6972 19.8807 20.7621 19.3052C20.7945 19.0184 20.7895 18.2635 21.0386 18.1134Z" fill="white"/>
<path d="M17.5036 17.8411C17.7887 17.891 17.9599 17.9762 17.9501 18.295C17.9368 18.7281 17.9828 19.2292 17.8351 19.6407C18.2128 19.6603 18.5988 19.6483 18.9776 19.6407C19.0647 19.1815 19.0496 18.7187 19.2291 18.2898C19.3492 18.003 20.0329 17.7032 19.9673 18.2292C19.8605 19.1317 19.8255 20.0179 19.6739 20.9156C19.5975 21.3686 20.1218 21.9341 19.3248 22.1103C19.2699 22.1019 19.1004 22.075 19.0636 22.0559C18.6985 21.8663 19.0404 20.556 18.9048 20.2564C18.6652 20.3389 18.162 20.3145 17.893 20.3143C17.8879 20.7865 17.9395 21.626 17.889 22.043C17.5963 22.1453 17.536 22.134 17.2524 22.0416C16.9015 21.4203 16.8522 18.7916 17.0631 18.0817C17.2174 17.9475 17.2961 17.8831 17.5036 17.8411Z" fill="white"/>
<path d="M37.3776 18.1145C37.4517 18.1076 37.5261 18.1028 37.6004 18.0999C38.077 18.0862 38.2222 18.2524 38.5471 18.556C38.6701 18.9788 38.73 18.9783 38.7158 19.4401C38.3762 19.7346 38.2925 19.6457 37.9105 19.4606C37.8022 19.2656 37.6808 18.7466 37.4293 18.8249C37.295 18.9417 37.2461 19.1212 37.1955 19.286C37.4388 20.2291 38.5605 20.2892 38.8085 21.1513C38.9876 21.7727 38.4883 22.2247 37.9198 22.3458L37.9053 22.3492C37.3319 22.4858 36.9879 22.2883 36.5187 22.0026C36.3741 21.7589 36.1892 21.2778 36.5507 21.1198C37.0462 21.0651 37.4134 22.51 38.0347 21.3465C37.8381 20.8489 37.6215 20.8474 37.1938 20.5717C36.9193 20.3892 36.5335 20.1233 36.4785 19.7702C36.361 19.0168 36.5652 18.292 37.3776 18.1145Z" fill="white"/>
<path d="M34.8152 21.6328C34.8379 21.6735 34.8633 21.7796 34.8772 21.8302C34.8255 21.9426 34.8543 21.94 34.7714 21.9872L34.624 21.9848L34.8152 21.6328Z" fill="white" fill-opacity="0.0117647"/>
</svg>
